<?xml version="1.0" standalone="no"?>
<!DOCTYPE svg PUBLIC "-//W3C//DTD SVG 1.1//EN" "http://www.w3.org/Graphics/SVG/1.1/DTD/svg11.dtd">
<!--Generator: Xara Designer (www.xara.com), SVG filter version: 5.0.0.2-->
<svg stroke-width="0.501" stroke-linejoin="bevel" fill-rule="evenodd" xmlns:xlink="http://www.w3.org/1999/xlink" xmlns="http://www.w3.org/2000/svg" version="1.1" overflow="visible" height="185.03" viewBox="0 0 113.93566 148.02365" width="142.42">
 <defs>
  <marker id="DefaultArrow2" markerUnits="strokeWidth" viewBox="0 0 1 1" markerWidth="1" markerHeight="1" overflow="visible" orient="auto">
   <!-- REF_ARROW_STRAIGHT (-2) -->
   <g transform="scale(0.0092592592)">
    <!-- 1/108 -->
    <path d="M -9 54 L -9 -54 L 117 0 z"/>
   </g>
  </marker>
  <marker id="DefaultArrow3" markerUnits="strokeWidth" viewBox="0 0 1 1" markerWidth="1" markerHeight="1" overflow="visible" orient="auto">
   <!-- REF_ARROW_ANGLED -->
   <g transform="scale(0.0092592592)">
    <path d="M -27 54 L -9 0 L -27 -54 L 135 0 z"/>
   </g>
  </marker>
  <marker id="DefaultArrow4" markerUnits="strokeWidth" viewBox="0 0 1 1" markerWidth="1" markerHeight="1" overflow="visible" orient="auto">
   <!-- REF_ARROW_ROUNDED -->
   <g transform="scale(0.0092592592)">
    <path d="M -9,0 L -9,-45 C -9,-51.708 2.808,-56.580 9,-54 L 117,-9 C 120.916,-7.369 126.000,-4.242 126,0 C 126,4.242 120.916,7.369 117,9 L 9,54 C 2.808,56.580 -9,51.708 -9,45 z"/>
   </g>
  </marker>
  <marker id="DefaultArrow5" markerUnits="strokeWidth" viewBox="0 0 1 1" markerWidth="1" markerHeight="1" overflow="visible" orient="auto">
   <!-- REF_ARROW_SPOT -->
   <g transform="scale(0.0092592592)">
    <path d="M -54, 0 C -54,29.807 -29.807,54 0,54 C 29.807,54 54,29.807 54,0 C 54,-29.807 29.807,-54 0,-54 C -29.807,-54 -54,-29.807 -54,0 z"/>
   </g>
  </marker>
  <marker id="DefaultArrow6" markerUnits="strokeWidth" viewBox="0 0 1 1" markerWidth="1" markerHeight="1" overflow="visible" orient="auto">
   <!-- REF_ARROW_DIAMOND -->
   <g transform="scale(0.0092592592)">
    <path d="M -63,0 L 0,63 L 63,0 L 0,-63 z"/>
   </g>
  </marker>
  <marker id="DefaultArrow7" markerUnits="strokeWidth" viewBox="0 0 1 1" markerWidth="1" markerHeight="1" overflow="visible" orient="auto">
   <!-- REF_ARROW_FEATHER -->
   <g transform="scale(0.0092592592)">
    <path d="M 18,-54 L 108,-54 L 63,0 L 108,54 L 18, 54 L -36,0 z"/>
   </g>
  </marker>
  <marker id="DefaultArrow8" markerUnits="strokeWidth" viewBox="0 0 1 1" markerWidth="1" markerHeight="1" overflow="visible" orient="auto">
   <!-- REF_ARROW_FEATHER2 -->
   <g transform="scale(0.0092592592)">
    <path d="M -36,0 L 18,-54 L 54,-54 L 18,-18 L 27,-18 L 63,-54 L 99,-54 L 63,-18 L 72,-18 L 108,-54 L 144,-54 L 90,0 L 144,54 L 108,54 L 72,18 L 63,18 L 99,54 L 63,54 L 27,18 L 18,18 L 54,54 L 18,54 z"/>
   </g>
  </marker>
  <marker id="DefaultArrow9" markerUnits="strokeWidth" viewBox="0 0 1 1" markerWidth="1" markerHeight="1" overflow="visible" orient="auto">
   <!-- REF_ARROW_HOLLOWDIAMOND -->
   <g transform="scale(0.0092592592)">
    <path d="M 0,45 L -45,0 L 0, -45 L 45, 0 z M 0, 63 L-63, 0 L 0, -63 L 63, 0 z"/>
   </g>
  </marker>
  <filter id="StainedFilter">
   <feBlend mode="multiply" in2="BackgroundImage" in="SourceGraphic" result="blend"/>
   <feComposite in="blend" in2="SourceAlpha" operator="in" result="comp"/>
  </filter>
  <filter id="BleachFilter">
   <feBlend mode="screen" in2="BackgroundImage" in="SourceGraphic" result="blend"/>
   <feComposite in="blend" in2="SourceAlpha" operator="in" result="comp"/>
  </filter>
  <filter id="InvertTransparencyBitmapFilter">
   <feComponentTransfer>
    <feFuncR type="gamma" amplitude="1.055" exponent=".416666666" offset="-0.055"/>
    <feFuncG type="gamma" amplitude="1.055" exponent=".416666666" offset="-0.055"/>
    <feFuncB type="gamma" amplitude="1.055" exponent=".416666666" offset="-0.055"/>
   </feComponentTransfer>
   <feComponentTransfer>
    <feFuncR type="linear" slope="-1" intercept="1"/>
    <feFuncG type="linear" slope="-1" intercept="1"/>
    <feFuncB type="linear" slope="-1" intercept="1"/>
    <feFuncA type="linear" slope="1" intercept="0"/>
   </feComponentTransfer>
   <feComponentTransfer>
    <feFuncR type="gamma" amplitude="1" exponent="2.4" offset="0"/>
    <feFuncG type="gamma" amplitude="1" exponent="2.4" offset="0"/>
    <feFuncB type="gamma" amplitude="1" exponent="2.4" offset="0"/>
   </feComponentTransfer>
  </filter>
 </defs>
 <g id="Document" fill="none" stroke="black" font-family="Times New Roman" font-size="16" transform="matrix(1,0,0,-1,-13.501,-0.476)">
  <g id="Spread" transform="translate(0 -150)">
   <g id="Layer 1">
    <path d="M 104.674,76.6 C 106.775,76.6 108.481,75.168 108.481,73.406 C 108.481,71.643 106.775,70.211 104.674,70.211 C 102.574,70.211 100.868,71.643 100.868,73.406 C 100.868,75.168 102.574,76.6 104.674,76.6 Z" stroke-linejoin="round" stroke-linecap="round" fill="#faf6f6" stroke="#ac7482" stroke-width="1.5" marker-start="none" marker-end="none" stroke-miterlimit="79.8403193612775"/>
    <path d="M 106.559,90.918 C 110.095,90.918 112.967,88.508 112.967,85.54 C 112.967,82.573 110.095,80.163 106.559,80.163 C 103.023,80.163 100.151,82.573 100.151,85.54 C 100.151,88.508 103.023,90.918 106.559,90.918 Z" stroke-linejoin="round" stroke-linecap="round" fill="#faf6f6" stroke="#ac7482" stroke-width="1.5" marker-start="none" marker-end="none" stroke-miterlimit="79.8403193612775"/>
    <path d="M 59.678,77.57 C 84.847,77.57 125.384,61.697 125.384,40.746 C 125.257,19.041 103.112,17.624 81.148,13.736 C 73.875,12.448 66.111,2.789 59.85,2.789 C 34.68,2.789 14.251,19.794 14.251,40.746 C 14.251,61.697 34.507,77.57 59.678,77.57 Z" stroke-linejoin="round" stroke-linecap="round" fill="#85919d" stroke-width="1.5" stroke="#55616f" marker-start="none" marker-end="none" stroke-miterlimit="79.8403193612775"/>
    <path d="M 100.299,14.797 C 101.083,4.668 120.011,2.214 122.947,16.786 C 124.995,26.952 109.755,26.831 104.584,22.448 C 102.075,20.322 102.464,16.541 100.299,14.797 Z" stroke-linejoin="round" stroke-linecap="round" fill="#85919d" stroke-width="1.5" stroke="#55616f" marker-start="none" marker-end="none" stroke-miterlimit="79.8403193612775"/>
    <path d="M 72.723,12.833 C 71.198,1.743 94.002,-0.484 96.014,9.135 C 98.177,19.471 72.912,23.338 72.754,13.037 C 72.743,12.968 72.732,12.9 72.723,12.833 Z" stroke-linejoin="round" stroke-linecap="round" fill="#85919d" stroke-width="1.5" stroke="#55616f" marker-start="none" marker-end="none" stroke-miterlimit="79.8403193612775"/>
    <path d="M 87.053,11.02 C 85.608,8.535 87.959,2.938 92.188,5.309 C 96.144,7.526 96.406,14.261 88.363,12.042 C 87.769,11.878 87.338,11.509 87.053,11.02 Z" stroke-linejoin="round" stroke-linecap="round" fill="#a9b5c3" stroke-width="0.311" stroke="none" marker-start="none" marker-end="none" stroke-miterlimit="79.8403193612775"/>
    <path d="M 108.103,7.451 C 105.92,7.848 102.968,9.515 102.135,11.736 C 101.028,14.693 106.667,16.089 109.174,14.031 C 112.019,11.697 110.405,9.222 108.103,7.451 Z" stroke-linejoin="round" stroke-linecap="round" fill="#a9b5c3" stroke-width="0.311" stroke="none" marker-start="none" marker-end="none" stroke-miterlimit="79.8403193612775"/>
    <path d="M 59.594,46.779 C 57.883,39.706 59.371,32.515 61.43,27.803 C 66.901,15.283 79.97,11.031 92.495,10.511 C 105.373,9.978 122.633,16.241 126.008,30.405 C 128.28,39.945 124.17,50.995 123.559,57.49 C 123.058,62.811 121.127,71.974 117.438,72.794 C 114.684,73.406 109.353,64.624 106.114,62.541 C 106.628,62.832 92.863,65.288 90.199,64.99 C 89.963,64.964 87.749,75.495 86.833,76.926 C 86.305,77.749 85.559,77.417 84.537,77.231 C 81.171,76.62 75.815,72.181 71.377,62.541 C 66.174,59.48 61.31,53.109 59.594,46.779 Z" stroke-linejoin="round" stroke-linecap="round" fill="#85919d" stroke-width="1.5" stroke="#55616f" marker-start="none" marker-end="none" stroke-miterlimit="79.8403193612775"/>
    <path d="M 34.883,22.77 C 37.468,18.765 40.365,16.84 44.431,14.369 C 49.417,11.337 66.375,8.026 69.606,14.78 C 71,17.695 68.057,20.594 69.032,23.819 C 74.124,29.357 81.161,17.136 78.673,11.313 C 74.066,0.538 55.93,1.189 46.594,4.057 C 38.76,6.465 29.879,9.867 28.136,18.315 C 27.435,21.713 30.183,24.995 33.482,23.089 L 34.883,22.77 Z" stroke-linejoin="round" stroke-linecap="round" fill="#85919d" stroke-width="1.5" stroke="#55616f" marker-start="none" marker-end="none" stroke-miterlimit="79.8403193612775"/>
    <path d="M 26.533,17.585 C 27.165,13.359 35.515,8.827 38.779,10.986 C 44.863,15.007 41.695,21.823 36.371,24.862 C 33.524,26.487 26.153,25.069 25.887,21.234 C 25.796,19.904 25.818,19.02 26.507,17.807 C 26.513,17.733 26.521,17.658 26.533,17.585 Z" stroke-linejoin="round" stroke-linecap="round" fill="#85919d" stroke="none" stroke-width="0.75" marker-start="none" marker-end="none" stroke-miterlimit="79.8403193612775"/>
    <path d="M 80.988,34.483 C 78.093,33.85 76.098,31.892 76.444,28.075 C 77.337,18.284 90.798,16.036 96.06,21.496 C 102.78,28.469 88.696,36.166 80.988,34.483 Z" stroke-linejoin="round" stroke-linecap="round" fill="#a9b5c3" stroke-width="0.311" stroke="none" marker-start="none" marker-end="none" stroke-miterlimit="79.8403193612775"/>
    <path d="M 84.537,31.477 C 84.413,29.124 84.01,26.421 84.997,24.284 C 86.897,20.167 94.84,22.058 94.178,27.038 L 93.566,27.651" fill="none" stroke-linejoin="round" stroke-linecap="round" stroke-width="1.5" stroke="#475463" stroke-miterlimit="79.8403193612775"/>
    <path d="M 79.973,35.941 C 77.14,31.509 86.409,29.412 89.463,32.689 C 89.519,36.26 83.912,38.145 80.985,36.499 L 79.973,35.941 Z" stroke-linejoin="round" stroke-linecap="round" fill="#475463" stroke-width="0.866" stroke="none" marker-start="none" marker-end="none" stroke-miterlimit="79.8403193612775"/>
    <path d="M 95.883,37.197 C 100.58,40.228 105.12,40.072 109.484,37.016" fill="none" stroke-linejoin="round" stroke-linecap="round" stroke-width="1.5" stroke="#475463" stroke-miterlimit="79.8403193612775"/>
    <path d="M 67.905,43.702 C 71.627,44.456 75.971,42.326 78.46,39.609" fill="none" stroke-linejoin="round" stroke-linecap="round" stroke-width="1.5" stroke="#475463" stroke-miterlimit="79.8403193612775"/>
    <path d="M 83.989,35.801 C 84.945,35.548 85.623,34.964 85.5,34.498 C 85.376,34.033 84.499,33.86 83.542,34.114 C 82.585,34.367 81.908,34.95 82.031,35.416 C 82.154,35.882 83.032,36.054 83.989,35.801 Z" stroke-linejoin="round" stroke-linecap="round" fill="#a9b5c3" stroke="none" stroke-width="0.311" marker-start="none" marker-end="none" stroke-miterlimit="79.8403193612775"/>
    <path d="M 70.624,17.835 C 70.35,18.571 69.27,21.729 69.351,22.355 C 69.718,25.182 73.041,24.641 74.635,23.245 C 75.195,22.754 76.583,20.821 76.385,20.19 C 74.81,18.475 73.179,17.898 71.07,17.74 C 70.936,17.815 70.787,17.846 70.624,17.835 Z" stroke-linejoin="round" stroke-linecap="round" fill="#a9b5c3" stroke="none" stroke-width="0.75" marker-start="none" marker-end="none" stroke-miterlimit="79.8403193612775"/>
    <path d="M 112.082,60.857 C 112.803,62.128 115.584,67.018 116.979,67.132 C 117.411,67.166 117.45,67.163 117.745,66.826 C 119.13,65.236 120.502,57.024 118.203,56.114 C 115.796,55.159 112.905,59.997 112.082,60.857 Z" stroke-linejoin="round" stroke-linecap="round" fill="#a9b5c3" stroke-width="0.311" stroke="none" marker-start="none" marker-end="none" stroke-miterlimit="79.8403193612775"/>
    <path d="M 76.141,62.761 C 76.546,64.954 80.381,72.372 82.673,72.311 C 85.421,72.238 84.342,65.61 83.776,63.891 C 82.597,63.19 77.974,63.371 76.126,62.667 C 76.131,62.696 76.135,62.728 76.141,62.761 Z" stroke-linejoin="round" stroke-linecap="round" fill="#a9b5c3" stroke-width="0.311" stroke="none" marker-start="none" marker-end="none" stroke-miterlimit="79.8403193612775"/>
    <path d="M 99.61,45.095 C 99.958,46.05 101.411,48.651 102.671,49.84" fill="none" stroke-linejoin="round" stroke-linecap="round" stroke-width="1.125" stroke="#a9b5c3" stroke-miterlimit="79.8403193612775"/>
    <path d="M 102.635,44.137 C 103.385,45.448 103.955,46.642 105.133,47.656" fill="none" stroke-linejoin="round" stroke-linecap="round" stroke-width="1.125" stroke="#a9b5c3" stroke-miterlimit="79.8403193612775"/>
    <path d="M 75.779,49.57 C 76.212,51.083 77.143,52.895 78.341,53.931" fill="none" stroke-linejoin="round" stroke-linecap="round" stroke-width="1.125" stroke="#a9b5c3" stroke-miterlimit="79.8403193612775"/>
    <path d="M 78.458,48.551 C 79.199,50.375 80.265,52.318 81.9,53.418" fill="none" stroke-linejoin="round" stroke-linecap="round" stroke-width="1.125" stroke="#a9b5c3" stroke-miterlimit="79.8403193612775"/>
    <path d="M 96.538,26.258 C 99.511,26.529 102.64,26.376 105.451,24.962" fill="none" stroke-linejoin="round" stroke-linecap="round" stroke-width="1.125" stroke="#a9b5c3" stroke-miterlimit="79.8403193612775"/>
    <path d="M 95.824,29.015 C 98.927,29.652 102.075,29.957 105.191,29.118" fill="none" stroke-linejoin="round" stroke-linecap="round" stroke-width="1.125" stroke="#a9b5c3" stroke-miterlimit="79.8403193612775"/>
    <path d="M 77.539,32.048 C 76.398,34.243 74.631,35.403 72.336,36.332" fill="none" stroke-linejoin="round" stroke-linecap="round" stroke-width="1.125" stroke="#a9b5c3" stroke-miterlimit="79.8403193612775"/>
    <path d="M 77.08,29.599 C 74.907,31.319 73.708,32.913 70.729,33.349" fill="none" stroke-linejoin="round" stroke-linecap="round" stroke-width="1.125" stroke="#a9b5c3" stroke-miterlimit="79.8403193612775"/>
    <path d="M 50.433,33.356 C 61.351,28.478 58.947,11.865 51.959,11.904" fill="none" stroke-linejoin="round" stroke-linecap="round" stroke-width="1.5" stroke="#55616f" stroke-miterlimit="79.8403193612775"/>
    <path d="M 91.758,67.098 C 90.492,58.79 98.293,53.719 101.543,53.835 C 102.64,53.872 102.75,54.95 103.434,56.133 C 109.185,66.102 94.826,67.996 92.846,68.661 C 92.613,68.742 91.981,68.226 91.964,68.146 C 91.879,67.793 91.811,67.444 91.758,67.098 Z" stroke-linejoin="round" stroke-linecap="round" fill="#85919d" stroke="none" stroke-width="0.75" marker-start="none" marker-end="none" stroke-miterlimit="79.8403193612775"/>
    <path d="M 80.389,148.774 C 99.802,148.774 115.566,135.546 115.566,119.253 C 115.566,102.961 99.802,89.733 80.389,89.733 C 60.976,89.733 45.211,102.961 45.211,119.253 C 45.211,135.546 60.976,148.774 80.389,148.774 Z" stroke-linejoin="round" stroke-linecap="round" fill="#faf6f6" stroke="#ac7482" stroke-width="1.5" marker-start="none" marker-end="none" stroke-miterlimit="79.8403193612775"/>
    <path d="M 67.135,131.269 C 67.155,131.448 67.177,131.629 67.203,131.809 C 67.791,136.129 69.686,140.704 70.903,144.516 C 74.162,144.89 79.175,137.347 77.776,134.761 C 77.74,134.695 77.776,134.612 77.776,134.54 C 76.567,132.963 69.495,130.757 67.135,131.269 Z" stroke-linejoin="round" stroke-linecap="round" stroke="none" stroke-width="0" fill="#e7ddda" marker-start="none" marker-end="none" stroke-miterlimit="79.8403193612775"/>
    <path d="M 66.975,130.536 C 66.6,130.617 66.346,130.97 66.389,131.352 C 66.41,131.535 66.433,131.725 66.46,131.913 C 67.059,136.316 69,141.022 70.188,144.744 C 70.278,145.025 70.524,145.227 70.817,145.261 C 72.932,145.503 75.238,143.306 76.704,141.173 C 77.978,139.317 79.067,136.856 78.69,135.105 L 78.52,134.636 L 78.523,134.602 C 78.538,134.416 78.484,134.231 78.371,134.083 C 76.946,132.225 69.567,129.973 66.975,130.536 Z M 67.986,131.947 L 67.987,131.956 L 67.71,131.948 L 67.986,131.947 Z M 72.665,132.837 C 74.655,133.453 76.287,134.209 76.954,134.769 L 77.042,134.857 L 77.116,135.119 C 77.573,135.963 76.983,138.118 75.468,140.323 C 74.153,142.234 72.583,143.54 71.441,143.749 L 70.598,141.27 C 69.704,138.691 68.758,135.974 68.217,133.301 L 67.987,131.956 L 68.671,131.976 C 69.762,132.076 71.204,132.385 72.665,132.837 Z" stroke="none" stroke-linejoin="round" stroke-linecap="round" stroke-width="0" fill="#a4928c" marker-start="none" marker-end="none" stroke-miterlimit="79.8403193612775"/>
    <path d="M 73.401,91.076 L 72.95,92.255 C 72.266,93.972 71.564,95.493 70.682,97.074 C 70.204,97.932 69.066,99.448 69.024,99.509 C 60.774,111.841 54.277,117.469 64.031,129.883 C 66.386,133.38 73.395,137.966 77.555,138.085 C 86.402,138.34 94.11,132.512 96.175,124.785 C 96.921,121.995 97.268,111.717 99.279,110.376 C 102.174,108.442 105.628,106.437 108.548,104.417 L 109.392,103.812 L 108.966,103.224 C 102.802,95.565 92.343,90.483 80.389,90.483 C 77.998,90.483 75.666,90.686 73.417,91.072 L 73.401,91.076 Z" stroke-linejoin="round" stroke-linecap="round" stroke="none" stroke-width="0" fill="#e7ddda" marker-start="none" marker-end="none" stroke-miterlimit="79.8403193612775"/>
    <path d="M 72.525,91.265 L 72.254,91.976 C 71.578,93.67 70.889,95.162 70.026,96.708 C 69.585,97.502 68.522,98.921 68.408,99.079 C 64.346,105.152 60.54,109.802 59.061,114.437 C 57.526,119.247 58.465,124.013 63.441,130.345 L 63.923,130.997 C 66.758,134.53 73.355,138.714 77.533,138.834 C 86.712,139.099 94.74,133.056 96.899,124.978 C 97.287,123.526 97.577,120.13 97.995,117.14 C 98.472,113.73 99.09,111.403 99.695,110.999 C 102.526,109.108 106.027,107.072 108.989,105.022 L 109.831,104.418 L 108.966,103.224 L 108.95,103.206 L 108.106,103.811 C 105.228,105.8 101.82,107.775 98.862,109.752 C 97.432,110.705 96.875,114.317 96.509,116.933 C 96.065,120.115 95.808,123.253 95.45,124.591 C 93.479,131.967 86.091,137.58 77.576,137.335 C 73.718,137.224 66.908,132.813 64.653,129.464 L 64.62,129.419 C 59.842,123.338 59.153,119.083 60.49,114.893 C 61.883,110.527 65.451,106.197 69.638,99.937 C 69.691,99.865 70.84,98.331 71.337,97.439 C 72.237,95.824 72.953,94.272 73.646,92.534 L 74.245,90.966 L 73.417,91.072 L 72.525,91.265 Z" stroke="none" stroke-linejoin="round" stroke-linecap="round" stroke-width="0" fill="#a4928c" marker-start="none" marker-end="none" stroke-miterlimit="79.8403193612775"/>
    <path d="M 86.938,134.391 C 88.474,135.777 94.932,140.561 96.064,141.301 C 100.327,141.363 98.17,127.002 95.51,125.228 C 92.268,125.659 89.352,132.426 86.938,134.391 Z" stroke-linejoin="round" stroke-linecap="round" stroke="none" stroke-width="0" fill="#e7ddda" marker-start="none" marker-end="none" stroke-miterlimit="79.8403193612775"/>
    <path d="M 90.305,128.795 C 88.793,130.891 87.569,132.91 86.464,133.809 C 86.108,134.099 86.094,134.639 86.435,134.947 C 88.009,136.367 94.5,141.175 95.653,141.928 C 95.772,142.006 95.911,142.048 96.053,142.05 C 99.079,142.094 99.458,137.566 99.13,133.886 C 98.799,130.168 97.614,125.73 95.926,124.604 C 95.774,124.503 95.591,124.46 95.411,124.484 C 93.411,124.75 91.688,126.877 90.305,128.795 Z M 95.293,126.052 L 95.466,126.227 C 96.355,127.402 97.329,130.584 97.636,134.019 C 97.953,137.586 97.423,139.924 96.495,140.442 L 96.219,140.5 C 94.796,139.514 90.3,136.182 88.212,134.486 L 88.053,134.355 L 88.414,133.959 C 89.435,132.761 90.501,131.087 91.521,129.672 C 92.823,127.866 94.024,126.513 95.136,126.092 L 95.293,126.052 Z" stroke="none" stroke-linejoin="round" stroke-linecap="round" stroke-width="0" fill="#a4928c" marker-start="none" marker-end="none" stroke-miterlimit="79.8403193612775"/>
    <path d="M 66.64,112.066 C 66.539,112.214 66.459,112.389 66.423,112.588 C 66.259,113.503 66.573,114.382 66.323,114.85 C 66.128,115.215 66.266,115.669 66.631,115.865 C 66.996,116.06 67.45,115.922 67.646,115.557 C 68.024,114.849 67.923,113.99 67.889,113.373 L 67.899,112.891 L 67.974,112.825 C 68.289,112.616 69.253,112.328 70.356,112.504 C 71.34,112.659 71.936,113.058 71.95,113.841 L 71.753,113.841 C 71.563,113.868 71.384,113.968 71.26,114.134 C 71.012,114.465 71.08,114.936 71.411,115.184 C 71.854,115.516 72.333,115.411 72.614,115.279 C 72.877,115.156 73.084,114.964 73.212,114.826 C 73.309,114.721 73.374,114.589 73.399,114.447 C 73.784,112.257 72.067,111.257 70.592,111.022 C 69.219,110.804 67.308,111.083 66.64,112.066 Z" stroke="none" stroke-linejoin="round" stroke-linecap="round" stroke-width="0" fill="#9f847b" marker-start="none" marker-end="none" stroke-miterlimit="79.8403193612775"/>
    <path d="M 64.852,117.734 C 65.314,118.925 71.565,119.229 70.42,116.037 C 69.887,115.466 69.219,115.156 68.53,115.045 C 66.479,114.718 64.242,116.159 64.852,117.734 Z" stroke-linejoin="round" stroke-linecap="round" stroke="none" stroke-width="0" fill="#c4687b" marker-start="none" marker-end="none" stroke-miterlimit="79.8403193612775"/>
    <path d="M 65.85,117.535 C 66.008,117.944 68.155,118.049 67.762,116.951 C 67.58,116.756 67.349,116.649 67.114,116.611 C 66.408,116.498 65.639,116.993 65.85,117.535 Z" stroke-linejoin="round" stroke-linecap="round" stroke="none" stroke-width="0" fill="#edd9dd" marker-start="none" marker-end="none" stroke-miterlimit="79.8403193612775"/>
    <path d="M 93.321,124.16 C 90.469,124.789 86.242,131.025 85.429,133.471 C 85.192,134.182 85.187,133.811 85.429,134.534 C 89.312,135.297 95.467,129.145 95.493,125.8 C 95.551,124.051 95.054,123.778 93.321,124.16 Z" stroke-linejoin="round" stroke-linecap="round" stroke="none" stroke-width="0" fill="#e7ddda" marker-start="none" marker-end="none" stroke-miterlimit="79.8403193612775"/>
    <path d="M 88.976,133.471 C 90.561,133.861 93.986,137.432 95.183,137.373 C 96.559,135.162 95.174,131.052 93.852,128.949 C 91.971,125.954 89.334,132.259 88.976,133.471 Z" stroke-linejoin="round" stroke-linecap="round" stroke="none" stroke-width="0" fill="#ffffff" marker-start="none" marker-end="none" stroke-miterlimit="79.8403193612775"/>
    <path d="M 69.809,136.818 C 69.999,138.308 70.618,141.425 71.419,142.338 C 72.296,141.864 73.488,139.441 73.458,138.348 C 72.841,137.827 70.612,136.508 69.778,136.552 C 69.786,136.632 69.796,136.722 69.809,136.818 Z" stroke-linejoin="round" stroke-linecap="round" stroke="none" stroke-width="0" fill="#ffffff" marker-start="none" marker-end="none" stroke-miterlimit="79.8403193612775"/>
    <path d="M 74.973,117.207 C 74.014,119.308 75.77,122.171 78.892,123.596 C 82.014,125.021 85.327,124.472 86.286,122.371 C 87.245,120.269 85.489,117.407 82.367,115.982 C 79.245,114.557 75.932,115.106 74.973,117.207 Z" stroke-linejoin="round" stroke-linecap="round" stroke="none" stroke-width="0" fill="#ffffff" marker-start="none" marker-end="none" stroke-miterlimit="79.8403193612775"/>
    <path d="M 74.29,116.895 C 73.057,119.596 75.352,122.804 78.58,124.278 C 81.844,125.768 85.735,125.383 86.968,122.682 C 88.2,119.98 85.906,116.773 82.678,115.299 C 79.414,113.809 75.523,114.194 74.29,116.895 Z M 82.055,116.664 C 85.071,118.04 86.289,120.557 85.603,122.059 C 84.906,123.588 82.219,124.29 79.203,122.913 C 76.187,121.537 74.97,119.019 75.655,117.518 C 76.352,115.989 79.039,115.287 82.055,116.664 Z" stroke="none" stroke-linejoin="round" stroke-linecap="round" stroke-width="0" fill="#a4928c" marker-start="none" marker-end="none" stroke-miterlimit="79.8403193612775"/>
    <path d="M 75.605,119.226 L 75.681,119.521 C 76.135,120.746 77.318,122.053 79.203,122.913 C 81.842,124.117 84.229,123.731 85.251,122.591 L 85.473,122.254 L 84.866,121.875 C 83.923,121.384 82.901,121.018 82.127,120.856 C 80.484,120.511 77.55,120.202 75.655,119.257 L 75.605,119.226 Z" stroke-linejoin="round" stroke-linecap="round" stroke="none" stroke-width="0" fill="#d1b4ac" marker-start="none" marker-end="none" stroke-miterlimit="79.8403193612775"/>
    <path d="M 80.461,119.48 C 80.461,120.545 81.326,121.41 82.391,121.41 C 83.457,121.41 84.322,120.545 84.322,119.48 C 84.322,118.415 83.457,117.55 82.391,117.55 C 81.326,117.55 80.461,118.415 80.461,119.48 Z" stroke-linejoin="round" stroke-linecap="round" stroke="none" stroke-width="0" fill="#684e3e" marker-start="none" marker-end="none" stroke-miterlimit="79.8403193612775"/>
    <path d="M 74.141,117.545 C 73.818,117.804 73.765,118.276 74.024,118.599 C 75.752,120.756 79.636,121.435 82.501,122.096 C 84.034,122.45 85.315,122.79 86.154,123.26 C 86.929,123.693 87.141,124.118 87.004,124.696 C 86.908,125.099 87.157,125.503 87.56,125.599 C 87.963,125.695 88.367,125.446 88.463,125.043 C 88.814,123.569 87.996,122.572 86.887,121.951 C 85.829,121.359 84.333,120.979 82.839,120.634 C 79.397,119.84 76.495,119.285 75.195,117.662 C 74.936,117.339 74.464,117.286 74.141,117.545 Z" stroke="none" stroke-linejoin="round" stroke-linecap="round" stroke-width="0" fill="#7e6963" marker-start="none" marker-end="none" stroke-miterlimit="79.8403193612775"/>
    <path d="M 59.983,118.101 C 58.06,119.61 57.177,122.326 58.011,124.164 C 58.844,126.001 61.083,126.268 63.006,124.759 C 64.928,123.25 65.812,120.533 64.978,118.696 C 64.144,116.859 61.906,116.592 59.983,118.101 Z" stroke-linejoin="round" stroke-linecap="round" stroke="none" stroke-width="0" fill="#ffffff" marker-start="none" marker-end="none" stroke-miterlimit="79.8403193612775"/>
    <path d="M 59.519,117.51 C 57.403,119.172 56.313,122.238 57.327,124.473 C 58.438,126.923 61.324,127.031 63.469,125.348 C 65.584,123.688 66.675,120.62 65.66,118.385 C 64.549,115.936 61.664,115.828 59.519,117.51 Z M 64.295,119.006 C 64.948,120.445 64.271,122.811 62.542,124.169 C 60.841,125.504 59.249,125.078 58.694,123.854 C 58.04,122.413 58.716,120.047 60.446,118.691 C 62.147,117.355 63.738,117.781 64.295,119.006 Z" stroke="none" stroke-linejoin="round" stroke-linecap="round" stroke-width="0" fill="#a4928c" marker-start="none" marker-end="none" stroke-miterlimit="79.8403193612775"/>
    <path d="M 64.442,121.082 L 63.195,122.097 C 61.833,123.016 60.651,123.317 59.565,124.055 L 59.1,124.421 L 59.29,124.607 C 60.051,125.18 61.266,125.17 62.542,124.169 C 63.406,123.49 64.008,122.559 64.311,121.617 L 64.442,121.082 Z" stroke-linejoin="round" stroke-linecap="round" stroke="none" stroke-width="0" fill="#d1b4ac" marker-start="none" marker-end="none" stroke-miterlimit="79.8403193612775"/>
    <path d="M 61.132,120.544 C 61.132,121.511 61.917,122.297 62.884,122.297 C 63.851,122.297 64.637,121.511 64.637,120.544 C 64.637,119.577 63.851,118.791 62.884,118.791 C 61.917,118.791 61.132,119.577 61.132,120.544 Z" stroke-linejoin="round" stroke-linecap="round" stroke="none" stroke-width="0" fill="#684e3e" marker-start="none" marker-end="none" stroke-miterlimit="79.8403193612775"/>
    <path d="M 64.499,119.573 C 64.48,120.39 63.429,121.147 60.1,122.838 C 58.989,123.402 57.816,124.022 57.054,124.74 C 56.23,125.516 55.738,126.566 56.459,127.785 C 56.669,128.141 57.13,128.26 57.486,128.049 C 57.842,127.839 57.961,127.378 57.75,127.022 C 57.521,126.634 57.555,126.329 58.083,125.832 C 58.66,125.288 59.627,124.76 60.78,124.175 C 62.436,123.334 65.949,121.798 65.998,119.606 C 66.008,119.192 65.679,118.849 65.265,118.84 C 64.851,118.83 64.508,119.159 64.499,119.573 Z" stroke="none" stroke-linejoin="round" stroke-linecap="round" stroke-width="0" fill="#7e6963" marker-start="none" marker-end="none" stroke-miterlimit="79.8403193612775"/>
    <path d="M 84.982,121.172 C 84.57,121.211 84.267,121.577 84.306,121.989 C 84.345,122.401 84.711,122.704 85.123,122.665 C 85.907,122.591 86.555,122.46 87.178,122.52 C 87.712,122.571 88.054,122.75 88.267,123.238 C 88.432,123.618 88.875,123.791 89.254,123.626 C 89.634,123.461 89.807,123.018 89.642,122.639 C 89.149,121.507 88.221,121.112 87.321,121.026 C 86.51,120.949 85.56,121.118 84.982,121.172 Z" stroke="none" stroke-linejoin="round" stroke-linecap="round" stroke-width="0" fill="#7e6963" marker-start="none" marker-end="none" stroke-miterlimit="79.8403193612775"/>
    <path d="M 54.715,125.766 C 54.538,126.14 54.698,126.587 55.072,126.764 C 55.446,126.941 55.893,126.781 56.07,126.407 C 56.407,125.695 57.414,125.079 58.256,125.149 C 58.669,125.183 59.032,124.876 59.066,124.464 C 59.1,124.051 58.793,123.688 58.381,123.654 C 56.895,123.53 55.31,124.508 54.715,125.766 Z" stroke="none" stroke-linejoin="round" stroke-linecap="round" stroke-width="0" fill="#7e6963" marker-start="none" marker-end="none" stroke-miterlimit="79.8403193612775"/>
    <path d="M 77.209,126.585 C 76.93,126.721 76.813,127.058 76.948,127.337 C 77.408,128.284 78.085,129.257 79.016,129.89 C 79.273,130.064 79.623,129.997 79.798,129.741 C 79.972,129.484 79.905,129.134 79.649,128.959 C 78.94,128.478 78.373,127.695 77.961,126.846 C 77.825,126.567 77.488,126.45 77.209,126.585 Z" stroke="none" stroke-linejoin="round" stroke-linecap="round" stroke-width="0" fill="#bdaca6" marker-start="none" marker-end="none" stroke-miterlimit="79.8403193612775"/>
    <path d="M 78.656,126.899 C 79.001,127.96 80.267,129.063 81.103,129.557 C 81.371,129.715 81.716,129.626 81.874,129.359 C 82.032,129.091 81.943,128.746 81.676,128.588 C 80.914,128.138 79.942,127.215 79.725,126.55 C 79.629,126.255 79.312,126.094 79.016,126.19 C 78.721,126.286 78.56,126.603 78.656,126.899 Z" stroke="none" stroke-linejoin="round" stroke-linecap="round" stroke-width="0" fill="#bdaca6" marker-start="none" marker-end="none" stroke-miterlimit="79.8403193612775"/>
    <path d="M 64.609,127.258 C 64.137,128.299 64.365,129.595 64.548,130.47 C 64.612,130.774 64.91,130.969 65.214,130.905 C 65.518,130.841 65.713,130.543 65.649,130.239 C 65.456,129.32 65.334,128.382 65.634,127.723 C 65.762,127.44 65.637,127.107 65.354,126.978 C 65.071,126.85 64.738,126.975 64.609,127.258 Z" stroke="none" stroke-linejoin="round" stroke-linecap="round" stroke-width="0" fill="#bdaca6" marker-start="none" marker-end="none" stroke-miterlimit="79.8403193612775"/>
    <path d="M 65.736,127.58 C 65.544,128.64 65.656,129.925 66.225,130.912 C 66.38,131.181 66.724,131.274 66.993,131.119 C 67.262,130.964 67.355,130.62 67.2,130.351 C 66.795,129.648 66.685,128.649 66.843,127.781 C 66.898,127.475 66.695,127.183 66.39,127.127 C 66.084,127.072 65.792,127.275 65.736,127.58 Z" stroke="none" stroke-linejoin="round" stroke-linecap="round" stroke-width="0" fill="#bdaca6" marker-start="none" marker-end="none" stroke-miterlimit="79.8403193612775"/>
    <path d="M 78.485,110.336 C 77.341,111.339 76.726,111.754 75.323,112.309 C 75.035,112.424 74.893,112.751 75.007,113.04 C 75.122,113.328 75.449,113.47 75.738,113.356 C 77.281,112.745 78.004,112.254 79.226,111.181 C 79.46,110.977 79.483,110.621 79.278,110.388 C 79.074,110.154 78.718,110.131 78.485,110.336 Z" stroke="none" stroke-linejoin="round" stroke-linecap="round" stroke-width="0" fill="#bdaca6" marker-start="none" marker-end="none" stroke-miterlimit="79.8403193612775"/>
    <path d="M 79.788,111.792 C 78.814,112.433 77.545,112.881 76.35,113.331 C 76.06,113.441 75.913,113.765 76.022,114.056 C 76.132,114.346 76.456,114.493 76.747,114.384 C 77.886,113.954 79.303,113.458 80.407,112.731 C 80.666,112.561 80.738,112.212 80.567,111.952 C 80.397,111.693 80.048,111.621 79.788,111.792 Z" stroke="none" stroke-linejoin="round" stroke-linecap="round" stroke-width="0" fill="#bdaca6" marker-start="none" marker-end="none" stroke-miterlimit="79.8403193612775"/>
    <path d="M 61.196,111.221 C 60.992,111.454 61.015,111.81 61.249,112.015 C 62.471,113.085 63.194,113.576 64.737,114.187 C 65.026,114.302 65.353,114.16 65.467,113.872 C 65.582,113.583 65.44,113.256 65.152,113.142 C 63.749,112.585 63.134,112.17 61.99,111.168 C 61.757,110.964 61.401,110.987 61.196,111.221 Z" stroke="none" stroke-linejoin="round" stroke-linecap="round" stroke-width="0" fill="#bdaca6" marker-start="none" marker-end="none" stroke-miterlimit="79.8403193612775"/>
    <path d="M 59.909,112.782 C 59.738,113.042 59.809,113.391 60.068,113.562 C 61.171,114.29 62.587,114.785 63.726,115.216 C 64.016,115.325 64.341,115.179 64.451,114.888 C 64.56,114.598 64.414,114.273 64.123,114.163 C 62.928,113.712 61.66,113.265 60.689,112.623 C 60.429,112.452 60.08,112.523 59.909,112.782 Z" stroke="none" stroke-linejoin="round" stroke-linecap="round" stroke-width="0" fill="#bdaca6" marker-start="none" marker-end="none" stroke-miterlimit="79.8403193612775"/>
    <path d="M 81.259,120.079 C 81.259,120.422 81.538,120.701 81.882,120.701 C 82.225,120.701 82.504,120.422 82.504,120.079 C 82.504,119.735 82.225,119.456 81.882,119.456 C 81.538,119.456 81.259,119.735 81.259,120.079 Z" stroke-linejoin="round" stroke-linecap="round" stroke="none" stroke-width="0" fill="#e7ddda" marker-start="none" marker-end="none" stroke-miterlimit="79.8403193612775"/>
    <path d="M 61.841,120.944 C 61.841,121.275 62.11,121.544 62.441,121.544 C 62.772,121.544 63.04,121.275 63.04,120.944 C 63.04,120.613 62.772,120.344 62.441,120.344 C 62.11,120.344 61.841,120.613 61.841,120.944 Z" stroke-linejoin="round" stroke-linecap="round" stroke="none" stroke-width="0" fill="#e7ddda" marker-start="none" marker-end="none" stroke-miterlimit="79.8403193612775"/>
    <path d="M 71.649,93.78 C 70.252,95.705 68.588,98.354 68.777,99.077 C 77.188,95.825 94.816,104.103 98.222,114.787 C 99.483,112.111 99.525,112.153 101.075,110.23 C 101.153,110.045 100.356,107.671 99.414,106.504 C 91.521,96.732 82.068,92.783 71.649,93.78 Z" stroke-linejoin="round" stroke-linecap="round" stroke="none" stroke-width="0" fill="#e28484" marker-start="none" marker-end="none" stroke-miterlimit="79.8403193612775"/>
    <path d="M 71.594,93.208 C 71.43,93.224 71.281,93.309 71.184,93.442 C 70.054,94.999 68.107,97.913 68.191,99.038 L 68.197,99.085 L 68.21,99.167 C 68.267,99.527 68.643,99.743 68.983,99.612 C 77.059,96.49 94.361,104.565 97.675,114.961 C 97.832,115.456 98.519,115.501 98.741,115.031 C 99.979,112.404 99.995,112.484 101.521,110.59 C 101.598,110.494 101.643,110.377 101.648,110.254 L 101.651,110.179 L 101.649,110.099 C 101.594,109.523 100.799,107.306 99.86,106.143 C 91.859,96.237 82.224,92.191 71.594,93.208 Z M 98.967,106.864 C 99.67,107.735 100.296,109.388 100.463,110.01 L 100.474,110.059 L 100.103,110.518 C 99.328,111.478 99.008,111.903 98.479,112.936 L 98.283,113.333 L 97.948,112.584 C 93.385,103.283 78.885,96.351 70.31,98.044 L 69.563,98.223 L 69.773,97.787 C 70.063,97.226 70.485,96.516 70.993,95.739 L 71.962,94.333 L 71.703,94.351 C 81.911,93.374 91.182,97.226 98.967,106.864 Z M 71.703,94.351 L 71.963,94.333 L 71.703,94.351 Z" stroke="none" stroke-linejoin="round" stroke-linecap="round" stroke-width="0" fill="#ba3654" marker-start="none" marker-end="none" stroke-miterlimit="79.8403193612775"/>
    <path d="M 87.047,96.643 C 86.935,96.647 86.906,96.641 86.878,96.64 C 84.936,97.55 84.039,99.615 83.948,100.243 C 84.739,102.151 88.778,109.847 91.162,107.214 C 92.408,105.887 93.341,103.478 93.464,103.386 C 97.633,100.271 98.454,96.732 91.021,96.563 C 89.617,96.533 88.228,96.455 87.047,96.643 Z" stroke-linejoin="round" stroke-linecap="round" stroke="none" stroke-width="0" fill="#e28484" marker-start="none" marker-end="none" stroke-miterlimit="79.8403193612775"/>
    <path d="M 87.926,95.974 L 87.023,96.068 L 86.912,96.066 C 86.814,96.061 86.72,96.08 86.634,96.12 C 84.484,97.127 83.492,99.381 83.379,100.16 C 83.365,100.262 83.378,100.367 83.417,100.462 C 84.005,101.88 88.472,111.039 91.584,107.603 C 92.643,106.473 93.561,104.478 93.842,103.886 L 93.904,103.763 L 95.237,102.638 C 96.531,101.388 97.355,100.031 97.16,98.78 C 96.879,96.987 94.682,96.072 91.033,95.989 C 90.007,95.966 88.928,95.914 87.926,95.974 Z M 91.008,97.136 C 94.773,97.222 95.903,98.175 96.026,98.958 C 96.17,99.881 95.228,101.351 93.12,102.926 C 93.077,102.958 93.039,102.996 93.006,103.038 L 92.977,103.078 L 92.945,103.124 C 92.64,103.62 91.874,105.616 90.739,106.824 C 89.222,108.5 85.974,103.295 84.704,100.538 L 84.55,100.188 L 84.576,100.085 C 84.768,99.494 85.385,98.289 86.514,97.508 L 87.021,97.216 L 87.067,97.216 L 87.137,97.209 C 88.252,97.032 89.567,97.106 91.008,97.136 Z" stroke="none" stroke-linejoin="round" stroke-linecap="round" stroke-width="0" fill="#ba3654" marker-start="none" marker-end="none" stroke-miterlimit="79.8403193612775"/>
    <path d="M 77.741,90.595 L 77.588,90.664 C 76.109,91.63 71.896,98.096 73.534,99.819 C 74.464,100.795 77.89,99.93 79.338,99.526 C 79.474,99.488 79.594,99.455 79.692,99.425 C 79.772,97.819 82.474,96.081 82.373,95.396 C 82.299,94.902 81.155,91.492 80.807,91.087 C 80.604,90.851 80.412,90.665 80.23,90.52 L 80.184,90.491 L 77.741,90.595 Z" stroke-linejoin="round" stroke-linecap="round" stroke="none" stroke-width="0" fill="#e28484" marker-start="none" marker-end="none" stroke-miterlimit="79.8403193612775"/>
    <path d="M 76.726,90.648 L 76.342,91.047 C 75.572,91.912 74.705,93.188 74.027,94.425 C 73.005,96.288 71.91,98.945 73.118,100.214 C 73.815,100.946 75.226,100.895 76.313,100.759 C 77.51,100.609 78.762,100.282 79.492,100.078 C 79.623,100.042 79.753,100.006 79.86,99.973 C 80.091,99.903 80.253,99.694 80.265,99.453 C 80.326,98.231 82.572,96.73 82.898,95.737 C 82.936,95.622 82.964,95.475 82.94,95.311 C 82.859,94.77 81.741,91.395 81.286,90.768 L 81.25,90.722 L 81.035,90.51 L 80.389,90.483 C 79.193,90.483 78.012,90.533 76.85,90.632 L 76.726,90.648 Z M 80.365,91.454 C 80.617,91.801 81.48,94.29 81.736,95.198 L 81.788,95.41 L 81.683,95.578 C 81.486,95.828 81.08,96.233 80.531,96.834 C 80.078,97.329 79.537,97.97 79.274,98.674 L 79.186,98.971 C 78.465,99.173 77.28,99.481 76.17,99.62 C 74.949,99.773 74.182,99.667 73.949,99.423 C 73.446,98.893 73.822,97.184 75.033,94.977 C 76.032,93.156 77.232,91.671 77.777,91.23 L 77.964,91.109 L 78.013,91.096 L 78.1,91.068 L 78.154,91.047 C 78.802,90.757 79.234,90.135 80.365,91.454 Z" stroke="none" stroke-linejoin="round" stroke-linecap="round" stroke-width="0" fill="#ba3654" marker-start="none" marker-end="none" stroke-miterlimit="79.8403193612775"/>
    <path d="M 81.871,94.647 C 80.77,95.533 79.374,97.436 79.543,98.621 C 79.871,100.383 81.797,100.47 83.143,100.839 C 83.595,100.961 83.913,101.093 84.547,100.811 C 85.246,99.346 86.986,96.916 86.867,96.727 C 86.859,95.34 83.763,93.926 81.871,94.647 Z" stroke-linejoin="round" stroke-linecap="round" stroke="none" stroke-width="0" fill="#e28484" marker-start="none" marker-end="none" stroke-miterlimit="79.8403193612775"/>
    <path d="M 81.666,94.11 C 81.61,94.132 81.557,94.162 81.511,94.199 C 80.395,95.097 78.758,97.183 78.976,98.714 C 79.189,99.859 79.937,100.447 80.74,100.782 C 81.468,101.085 82.43,101.238 82.992,101.392 C 83.444,101.514 83.943,101.707 84.78,101.335 C 84.905,101.279 85.006,101.181 85.065,101.058 C 85.632,99.869 87.208,97.591 87.401,97.007 C 87.4,97.01 87.432,96.934 87.442,96.822 L 87.438,96.714 L 87.44,96.723 L 87.43,96.622 L 87.438,96.711 L 87.438,96.714 L 87.44,96.723 C 87.429,94.73 83.764,93.311 81.666,94.11 Z M 86.18,96.403 L 86.283,96.703 L 86.202,96.873 C 85.928,97.371 85.235,98.414 84.648,99.417 L 84.146,100.344 L 84.035,100.384 C 83.793,100.439 83.632,100.376 83.293,100.285 C 82.08,99.952 80.365,99.905 80.109,98.527 C 80.019,97.902 80.642,96.778 81.42,95.884 L 82.158,95.163 L 82.075,95.183 C 83.572,94.612 85.674,95.602 86.18,96.403 Z" stroke="none" stroke-linejoin="round" stroke-linecap="round" stroke-width="0" fill="#ba3654" marker-start="none" marker-end="none" stroke-miterlimit="79.8403193612775"/>
    <path d="M 81.728,97.167 C 81.231,97.658 80.666,98.614 81.414,99.143 C 83.351,100.511 85.515,98.859 84.152,97.706 C 83.602,97.242 82.569,97.393 82.148,97.138 C 82.023,97.211 81.883,97.221 81.728,97.167 Z" stroke-linejoin="round" stroke-linecap="round" stroke="none" stroke-width="0" fill="#f1bbaa" marker-start="none" marker-end="none" stroke-miterlimit="79.8403193612775"/>
    <path d="M 92.097,101.522 C 90.474,103.029 89.616,102.802 88.596,105.113 C 88.43,105.489 88.379,105.808 88.416,106.067 C 88.583,107.261 90.588,107.203 91.648,105.785 C 92.448,104.716 92.809,103.358 93.354,102.599 C 93.875,101.871 95.966,99.726 95.823,98.873 C 95.764,98.813 95.703,98.753 95.643,98.694 C 93.964,98.482 93.106,100.584 92.097,101.522 Z" stroke-linejoin="round" stroke-linecap="round" stroke="none" stroke-width="0" fill="#f1bbaa" marker-start="none" marker-end="none" stroke-miterlimit="79.8403193612775"/>
    <path d="M 85.544,99.457 C 85.508,99.556 85.49,99.662 85.488,99.772 C 85.469,100.866 87.075,102.361 88.147,102.195 C 89.468,101.989 90.172,100.145 89.224,99.053 C 87.813,97.426 86.114,97.903 85.544,99.457 Z" stroke-linejoin="round" stroke-linecap="round" stroke="none" stroke-width="0" fill="#cf4060" marker-start="none" marker-end="none" stroke-miterlimit="79.8403193612775"/>
    <path d="M 76.701,96.719 C 76.709,96.732 76.701,96.748 76.701,96.763 C 77.819,97.623 78.426,97.112 79.476,97.265 C 79.525,97.272 79.574,97.281 79.624,97.291 C 79.703,96.762 80.323,96.007 80.427,95.641 C 79.812,95.294 79.653,94.508 78.586,94.429 C 77.779,94.37 76.338,96.039 76.701,96.719 Z" stroke-linejoin="round" stroke-linecap="round" stroke="none" stroke-width="0" fill="#cf4060" marker-start="none" marker-end="none" stroke-miterlimit="79.8403193612775"/>
   </g>
  </g>
 </g>
</svg>
