<?xml version="1.0" encoding="utf-8"?>
<!-- Generator: Adobe Illustrator 16.0.0, SVG Export Plug-In . SVG Version: 6.00 Build 0)  -->
<!DOCTYPE svg PUBLIC "-//W3C//DTD SVG 1.1//EN" "http://www.w3.org/Graphics/SVG/1.1/DTD/svg11.dtd">
<svg version="1.1" id="Layer_1" xmlns="http://www.w3.org/2000/svg" xmlns:xlink="http://www.w3.org/1999/xlink" x="0px" y="0px"
   width="444.52264"
   height="363.15253"
   viewBox="0 0 444.52264 363.15253"
   xml:space="preserve">
<g transform="translate(-786.53523,-703.07946)">
	<g>
		<path fill="#82074A" d="M1080.945,889.251c-9.123-105.634-42.66-153.179-127.898-155.662l0,0l0,0l0,0l0,0
			c-85.257,2.483-118.698,50.028-127.896,155.662c-8.899,102.171,29.217,155.104,127.896,147.81
			C1051.697,1044.354,1089.756,991.422,1080.945,889.251z"/>
		<path fill="#FF6B80" d="M1069.59,828.601c0,31.632-25.648,57.284-57.281,57.284c-31.621,0-57.269-25.651-57.269-57.284
			c0-31.633,25.648-57.28,57.269-57.28C1043.941,771.32,1069.59,796.968,1069.59,828.601z"/>
		<path fill="#FBFAF6" d="M1057.162,828.601c0,24.822-20.148,44.969-44.967,44.969c-24.833,0-44.976-20.146-44.976-44.969
			c0-24.84,20.143-44.983,44.976-44.983C1037.014,783.617,1057.162,803.761,1057.162,828.601z"/>
		<path fill="#FF6B80" d="M951.189,828.601c0,31.632-25.637,57.284-57.27,57.284c-31.643,0-57.28-25.651-57.28-57.284
			c0-31.633,25.638-57.28,57.28-57.28C925.552,771.32,951.189,796.968,951.189,828.601z"/>
		<path fill="#FBFAF6" d="M938.876,828.601c0,24.822-20.137,44.969-44.978,44.969c-24.819,0-44.956-20.146-44.956-44.969
			c0-24.84,20.137-44.983,44.956-44.983C918.74,783.617,938.876,803.761,938.876,828.601z"/>
		<g>
			<path fill="#FF6B80" d="M959.398,944.743c-0.126-0.771-0.8-1.347-1.589-1.347c-0.722,0.097-1.454,0.577-1.578,1.347
				c-0.383,2.269-1.721,3.885-3.184,3.885c-1.462,0-2.809-1.616-3.194-3.885c-0.124-0.771-0.797-1.347-1.578-1.347l0,0
				c-0.787,0-1.46,0.577-1.586,1.347l-0.067,0.366c-0.086,0.442-0.163,0.863-0.163,1.347c0,4.559,2.953,8.292,6.589,8.292
				c3.637,0,6.589-3.733,6.589-8.292c0-0.521-0.095-0.984-0.173-1.33L959.398,944.743z"/>
			<path fill="#FF6B80" d="M912.083,944.722c-0.145-0.77-0.818-1.347-1.588-1.326c-0.78,0.017-1.443,0.577-1.578,1.347
				c-0.375,2.269-1.713,3.885-3.174,3.885c-1.464,0-2.811-1.616-3.194-3.885c-0.134-0.791-0.711-1.25-1.597-1.347
				c-0.789,0.017-1.452,0.577-1.578,1.364l-0.067,0.387c-0.086,0.421-0.162,0.846-0.162,1.309c0,4.559,2.963,8.292,6.599,8.292
				c3.637,0,6.589-3.733,6.589-8.292c0-0.539-0.105-1.022-0.183-1.388L912.083,944.722z"/>
			<path fill="#FF6B80" d="M1000.351,954.747c3.635,0,6.59-3.733,6.59-8.292c0-0.539-0.096-1.022-0.172-1.388l-0.078-0.345
				c-0.135-0.75-0.799-1.326-1.578-1.326c-0.76-0.038-1.453,0.577-1.588,1.347c-0.375,2.269-1.711,3.885-3.174,3.885
				c-1.452,0-2.799-1.616-3.194-3.885c-0.135-0.791-0.788-1.25-1.596-1.347c-0.78,0.017-1.454,0.577-1.568,1.364l-0.069,0.387
				c-0.086,0.421-0.163,0.846-0.163,1.309C993.762,951.014,996.725,954.747,1000.351,954.747z"/>
			<path fill="#FF6B80" d="M959.387,999.965c-0.135-0.77-0.808-1.309-1.578-1.309c-0.895-0.038-1.454,0.556-1.588,1.347
				c-0.383,2.252-1.711,3.885-3.174,3.885c-1.462,0-2.809-1.653-3.194-3.905c-0.124-0.771-0.797-1.326-1.578-1.326l0,0
				c-0.787,0-1.46,0.556-1.586,1.347l-0.067,0.346c-0.086,0.442-0.163,0.884-0.163,1.347c0,4.579,2.953,8.274,6.589,8.274
				c3.637,0,6.589-3.695,6.589-8.274c0-0.539-0.095-1.002-0.182-1.364L959.387,999.965z"/>
			<path fill="#FF6B80" d="M912.083,999.965c-0.135-0.77-0.808-1.309-1.578-1.309c-0.886-0.076-1.454,0.556-1.588,1.347
				c-0.375,2.231-1.713,3.885-3.174,3.885c-1.464,0-2.811-1.653-3.194-3.905c-0.134-0.787-0.711-1.25-1.597-1.326
				c-0.789,0-1.452,0.577-1.578,1.347l-0.067,0.384c-0.086,0.424-0.162,0.846-0.162,1.309c0,4.579,2.963,8.274,6.599,8.274
				c3.626,0,6.579-3.695,6.579-8.274c0-0.539-0.095-1.002-0.172-1.385L912.083,999.965z"/>
			<path fill="#FF6B80" d="M1006.691,999.965c-0.135-0.77-0.799-1.309-1.578-1.309c-0.76-0.038-1.453,0.556-1.588,1.347
				c-0.375,2.231-1.711,3.885-3.174,3.885c-1.452,0-2.799-1.653-3.194-3.905c-0.135-0.787-0.788-1.25-1.596-1.326
				c-0.78,0-1.454,0.577-1.568,1.347l-0.069,0.384c-0.086,0.424-0.163,0.846-0.163,1.309c0,4.579,2.963,8.274,6.589,8.274
				c3.635,0,6.59-3.695,6.59-8.274c0-0.539-0.096-1.002-0.172-1.385L1006.691,999.965z"/>
			<path fill="#FF6B80" d="M978.253,916.957c-0.135-0.77-0.741-1.385-1.597-1.326c-0.769,0-1.442,0.556-1.568,1.326
				c-0.375,2.272-1.713,3.906-3.165,3.906c-1.471,0-2.818-1.634-3.205-3.906c-0.135-0.77-0.895-1.232-1.595-1.326
				c-0.791,0-1.464,0.577-1.579,1.364l-0.067,0.387c-0.088,0.422-0.164,0.847-0.164,1.288c0,4.559,2.963,8.292,6.609,8.292
				c3.626,0,6.572-3.733,6.572-8.292c0-0.518-0.088-0.98-0.174-1.367L978.253,916.957z"/>
			<path fill="#FF6B80" d="M940.53,916.957c-0.126-0.77-0.799-1.326-1.586-1.326l0,0c-0.781,0-1.454,0.556-1.578,1.326
				c-0.385,2.272-1.713,3.906-3.184,3.906c-1.462,0-2.81-1.634-3.194-3.906c-0.125-0.77-0.798-1.326-1.578-1.326l0,0
				c-0.788,0-1.452,0.556-1.587,1.326l-0.067,0.387c-0.086,0.422-0.164,0.847-0.164,1.326c0,4.559,2.955,8.292,6.591,8.292
				s6.589-3.733,6.589-8.292c0-0.518-0.097-0.98-0.173-1.326L940.53,916.957z"/>
			<path fill="#FF6B80" d="M978.253,971.834c-0.135-0.753-0.808-1.309-1.587-1.309c0,0,0,0-0.01,0c-0.769,0-1.442,0.577-1.568,1.347
				c-0.375,2.252-1.713,3.885-3.165,3.885c-1.471,0-2.818-1.654-3.205-3.885c-0.135-0.791-0.895-1.423-1.595-1.347
				c-0.791,0-1.464,0.577-1.579,1.367l-0.067,0.363c-0.088,0.424-0.164,0.849-0.164,1.309c0,4.579,2.963,8.295,6.609,8.295
				c3.626,0,6.572-3.716,6.572-8.295c0-0.539-0.088-0.998-0.174-1.364L978.253,971.834z"/>
			<path fill="#FF6B80" d="M903.04,973.564c0-0.539-0.086-0.981-0.173-1.385l-0.069-0.346c-0.135-0.753-0.808-1.309-1.577-1.309
				c-0.751-0.117-1.462,0.577-1.587,1.347c-0.387,2.231-1.713,3.885-3.175,3.885s-2.809-1.654-3.203-3.885
				c-0.126-0.791-0.848-1.423-1.589-1.347c-0.789,0-1.462,0.577-1.578,1.367l-0.065,0.363c-0.088,0.424-0.166,0.849-0.166,1.309
				c0,4.579,2.963,8.295,6.601,8.295C900.087,981.859,903.04,978.144,903.04,973.564z"/>
			<path fill="#FF6B80" d="M940.53,971.872c-0.126-0.77-0.799-1.347-1.586-1.347l0,0c-0.781,0-1.454,0.577-1.578,1.347
				c-0.385,2.231-1.713,3.885-3.184,3.885c-1.462,0-2.81-1.654-3.194-3.885c-0.125-0.791-0.798-1.347-1.578-1.347l0,0
				c-0.788,0-1.452,0.577-1.587,1.347l-0.067,0.346c-0.086,0.462-0.164,0.887-0.164,1.347c0,4.579,2.955,8.295,6.591,8.295
				s6.589-3.716,6.589-8.295c0-0.501-0.097-0.96-0.173-1.326L940.53,971.872z"/>
			<path fill="#FF6B80" d="M1016.053,972.2l-0.068-0.366c-0.135-0.753-0.809-1.309-1.586-1.309c0,0,0,0-0.01,0
				c-0.77,0-1.443,0.577-1.568,1.347c-0.377,2.231-1.713,3.885-3.176,3.885c-1.461,0-2.809-1.654-3.193-3.885
				c-0.135-0.791-0.789-1.347-1.578-1.347l0,0c-0.789,0-1.463,0.577-1.588,1.347l-0.066,0.346c-0.088,0.462-0.164,0.887-0.164,1.347
				c0,4.579,2.953,8.295,6.59,8.295s6.592-3.716,6.592-8.295C1016.236,973.025,1016.139,972.566,1016.053,972.2z"/>
		</g>
		<g>
			<path fill="#FF6B80" d="M854.976,950.938c-33.615,43.505-38.753,65.227-38.753,65.227s-38.954-48.026-27.62-93.703
				c11.323-45.681,28.274-59.494,51.451-53.741C863.249,874.475,884.789,912.34,854.976,950.938z"/>
		</g>
		<g>
			<path fill="#FF6B80" d="M1102.609,863.89c27.418,1.654,46.352,0.463,58.416-1.115c12.084-1.578,8.582,25.551-11.873,48.585
				c-8.697,9.832-19.529,18.527-32.729,23.417c-44.119,16.355-65.055,10.118-73.365-12.276
				C1034.746,900.102,1053.908,860.965,1102.609,863.89z"/>
		</g>
		<g>
			<path fill="#351E1E" d="M928.218,829.526c0,16.586-13.596,30.034-30.355,30.034c-16.77,0-30.352-13.447-30.352-30.034
				c0-16.566,13.582-30.016,30.352-30.016C914.622,799.51,928.218,812.96,928.218,829.526z"/>
			<path fill="#FFFFFF" d="M890.167,813.882c0,5.504-4.501,9.987-9.996,9.987c-5.551,0-10.053-4.482-10.053-9.987
				c0-5.522,4.501-10.025,10.053-10.025C885.666,803.857,890.167,808.36,890.167,813.882z"/>
			<path fill="#FFFFFF" d="M880.142,829.294c0,2.251,1.856,4.079,4.097,4.079c2.272,0,4.12-1.827,4.12-4.079
				c0-2.269-1.848-4.116-4.12-4.116C881.998,825.178,880.142,827.025,880.142,829.294z"/>
			<path fill="#351E1E" d="M977.897,829.526c0,16.586,13.594,30.034,30.361,30.034c16.76,0,30.355-13.447,30.355-30.034
				c0-16.566-13.596-30.016-30.355-30.016C991.491,799.51,977.897,812.96,977.897,829.526z"/>
			<path fill="#FFFFFF" d="M1015.945,813.882c0,5.504,4.504,9.987,9.998,9.987c5.549,0,10.053-4.482,10.053-9.987
				c0-5.522-4.504-10.025-10.053-10.025C1020.449,803.857,1015.945,808.36,1015.945,813.882z"/>
			<path fill="#FFFFFF" d="M1025.971,829.294c0,2.251-1.848,4.079-4.1,4.079c-2.268,0-4.115-1.827-4.115-4.079
				c0-2.269,1.848-4.116,4.115-4.116C1024.123,825.178,1025.971,827.025,1025.971,829.294z"/>
		</g>
		<g>
			<path fill="#FF6B80" d="M967.382,1060.306c-4.31,0-7.687-6.12-7.687-13.952c0-7.812,3.377-13.947,7.687-13.947
				c4.32,0,7.706,6.136,7.706,13.947C975.088,1054.186,971.702,1060.306,967.382,1060.306z"/>
			<path fill="#FF6B80" d="M993.337,1060.306c-4.318,0-7.714-6.12-7.714-13.952c0-7.812,3.396-13.947,7.714-13.947
				c4.32,0,7.698,6.136,7.698,13.947C1001.035,1054.186,997.657,1060.306,993.337,1060.306z"/>
			<path fill="#FF6B80" d="M980.37,1066.231c-4.387,0-7.714-7.273-7.714-16.915c0-9.638,3.327-16.91,7.714-16.91
				c4.377,0,7.677,7.272,7.677,16.91C988.046,1058.958,984.747,1066.231,980.37,1066.231z"/>
			<path fill="#FF6B80" d="M912.9,1060.306c-4.31,0-7.687-6.12-7.687-13.952c0-7.812,3.377-13.947,7.687-13.947
				c4.318,0,7.706,6.136,7.706,13.947C920.606,1054.186,917.219,1060.306,912.9,1060.306z"/>
			<path fill="#FF6B80" d="M938.857,1060.306c-4.32,0-7.708-6.12-7.708-13.952c0-7.812,3.388-13.947,7.708-13.947
				c4.31,0,7.687,6.136,7.687,13.947C946.544,1054.186,943.167,1060.306,938.857,1060.306z"/>
			<path fill="#FF6B80" d="M925.869,1066.231c-4.378,0-7.687-7.273-7.687-16.915c0-9.638,3.309-16.91,7.687-16.91
				c4.386,0,7.715,7.272,7.715,16.91C933.584,1058.958,930.255,1066.231,925.869,1066.231z"/>
		</g>
		<g>
			<path opacity="0.25" fill="#3A002F" d="M1121.85,936.545c-0.615-0.346-1.154-0.809-1.691-1.271
				C1120.678,935.757,1121.234,936.199,1121.85,936.545z"/>
		</g>
		<path fill="#351E1E" d="M953.634,840.569c0,0-12.881,7.773-15.558,22.146c4.493,4.196,15.558,25.399,15.558,25.399
			s11.064-21.204,15.557-25.399C966.515,848.343,953.634,840.569,953.634,840.569z"/>
		<path opacity="0.25" fill="#1D1D1B" d="M953.645,888.115c0.028-0.059,11.063-21.225,15.547-25.399
			c-2.676-14.352-15.519-22.108-15.547-22.146V888.115z"/>
		<path fill="#82074A" d="M935.912,734.283c0.08,0.459-0.421,0.846-1.115,1.17c-1.627,0.135-3.184,0.328-4.79,0.5h47.362
			c-1.164-0.114-2.281-0.269-3.463-0.366c-3.184-2.614,5.549-5.232,5.771-5.539c0.673-0.484-10.015-5.425-20.048,3.098
			c-0.154,0.134-0.24,0.269-0.364,0.404c-0.231-0.345-0.492-0.711-0.705-1.077c-5.049-7.466-2.096-13.737-2.279-14.124
			c-0.048-0.653-8.62,2.079-9.004,11.216c-1.818-0.749-4.685-2.113-7.178-2.635c-9.621-1.982-11.351,2.424-12.536,3.426
			C928.024,730.529,929.611,729.241,935.912,734.283z"/>
		<g>
			<path fill="#82074A" d="M847.796,721.351c-1.394-1.537,7.045-12.505,61.737,18.896c8.628,5.964-45.428,41.081-52.644,36.46
				C837.582,740.979,854.619,729.7,847.796,721.351z"/>
			<path fill="#FF6B80" d="M867.905,759.758c-5.252-12.007-5.6-19.801-5.118-25.765c6.001,2.673,14.131,6.792,24.888,13.198
				C882.125,751.484,874.311,756.446,867.905,759.758z"/>
			<path fill="#82074A" d="M1059.471,721.351c1.402-1.537-7.043-12.505-61.727,18.896c-8.639,5.964,45.428,41.081,52.645,36.46
				C1069.688,740.979,1052.658,729.7,1059.471,721.351z"/>
			<path fill="#FF6B80" d="M1039.363,759.758c5.252-12.007,5.619-19.801,5.117-25.765c-6.002,2.673-14.123,6.792-24.877,13.198
				C1025.145,751.484,1032.955,756.446,1039.363,759.758z"/>
		</g>
		<path fill="#FF6B80" d="M942.869,798.854c-0.79,4.562-38.762-16.853-79.833-9.234c-25.532,4.734-39.31-1.443-51.643-6.233
			c-0.577-0.231,15.095,0.577,14.575,0.211c-0.97-0.75-23.724-3.443-24.916-7.735c-0.301-0.981,18.558,2.714,17.931,2.02
			c-0.703-0.729-21.656-5.463-21.858-6.309c-0.827-3.619,10.94,0.749,10.583-0.193c-0.356-1.04-15.911-8.198-15.055-8.236
			c21.251-0.96,9.293,19.339,89.066-0.96C914.794,753.773,936.221,784.404,942.869,798.854z"/>
		<path fill="#FF6B80" d="M963.352,798.854c0.787,4.562,38.771-16.853,79.841-9.234c25.531,4.734,39.309-1.443,51.623-6.233
			c0.598-0.231-15.084,0.577-14.566,0.211c0.98-0.75,23.725-3.443,24.918-7.735c0.289-0.981-18.549,2.714-17.934,2.02
			c0.693-0.729,21.666-5.463,21.857-6.309c0.848-3.619-10.928,0.749-10.58-0.193c0.346-1.04,15.912-8.198,15.064-8.236
			c-21.242-0.96-9.295,19.339-89.068-0.96C991.434,753.773,970.008,784.404,963.352,798.854z"/>
		<g>
			<polygon fill="#82074A" points="1142.67,929.772 1133.568,928.35 1157.521,776.707 1166.625,778.15 			"/>
			<polygon fill="#EBF1F2" points="1136.049,928.733 1135.184,928.599 1159.139,776.959 1160.006,777.111 			"/>
			<path fill="#EA3D4E" d="M1171.512,720.273c-0.096-0.114-0.557-0.19-0.691-0.114c-36.77-41.561-80.41,0.731-64.883,41.695
				c12.084,31.881,38.637,53.451,48.621,61.127c0.119-0.038,0.58,0.042,0.674,0.117c11.854-4.234,43.795-16.548,65.113-43.139
				C1247.766,745.807,1219.326,692.104,1171.512,720.273z"/>
			<g>
				<path fill="#EBF1F2" d="M1165.066,718.387c-6.504-5.964-13.545-9.621-20.588-10.736c-10.891-1.73-21.475,2.58-28.998,11.852
					c-9.369,11.506-11.699,27.823-6.119,42.583c0.598,1.52,1.234,3.077,1.906,4.596c-0.289-0.673-0.559-1.347-0.807-2.038
					c-5.678-14.97-3.291-31.536,6.213-43.215c7.678-9.469,18.471-13.854,29.594-12.104
					C1152.674,710.345,1159.062,713.425,1165.066,718.387z"/>
				<path fill="#EBF1F2" d="M1170.877,723.391l-0.232,0.135l-0.172-0.21c0.02,0.038-0.039,0-0.113,0
					c0.498,0.539,1.018,1.077,1.518,1.654c0.076,0,0.174,0,0.27,0.017c0.076,0.021,0.154,0.021,0.25,0.059
					c10.197-5.964,20.281-8.35,29.17-6.965c5.158,0.829,9.832,2.887,13.855,6.043c-4.35-4.12-9.738-6.775-15.645-7.718
					C1190.984,715.003,1180.998,717.427,1170.877,723.391z"/>
			</g>
			<path fill="#EBF1F2" d="M1169.955,729.818c-0.098-0.097-0.482-0.156-0.58-0.076c-29.881-33.788-65.379,0.576-52.758,33.884
				c9.832,25.917,31.42,43.464,39.52,49.697c0.098-0.038,0.502,0.021,0.578,0.08c9.621-3.426,35.578-13.43,52.914-35.059
				C1231.93,750.579,1208.801,706.919,1169.955,729.818z"/>
			<path fill="#EA3D4E" d="M1168.646,737.667c-0.078-0.076-0.387-0.114-0.463-0.076c-24.242-27.399-53.029,0.5-42.793,27.496
				c7.986,21.03,25.494,35.248,32.057,40.311c0.074-0.038,0.402,0.018,0.463,0.076c7.811-2.791,28.859-10.93,42.945-28.438
				C1218.922,754.506,1200.162,719.082,1168.646,737.667z"/>
			<path fill="#EBF1F2" d="M1167.221,746.173c-0.037-0.038-0.27-0.076-0.326-0.038c-18.068-20.434-39.502,0.346-31.863,20.472
				c5.926,15.664,18.973,26.266,23.877,30.037c0.059-0.021,0.289,0.017,0.326,0.055c5.832-2.075,21.494-8.136,31.98-21.203
				C1204.701,758.719,1190.695,732.339,1167.221,746.173z"/>
			<path fill="#EA3D4E" d="M1165.779,755.023c-0.039-0.038-0.193-0.059-0.23-0.038c-12.027-13.585-26.324,0.249-21.244,13.662
				c3.963,10.429,12.641,17.508,15.912,20.008c0.039,0,0.193,0.021,0.23,0.042c3.867-1.389,14.318-5.429,21.301-14.124
				C1190.732,763.395,1181.422,745.807,1165.779,755.023z"/>
			<path fill="#EBF1F2" d="M1150.367,755.562c-0.365-1.271,1.02-2.79,3.076-3.388c2.098-0.577,4.062-0.038,4.428,1.232
				c0.365,1.271-1.021,2.791-3.1,3.388C1152.695,757.372,1150.73,756.833,1150.367,755.562z"/>
			<path fill="#EBF1F2" d="M1150.135,758.101c-0.117,0.808-0.848,1.368-1.598,1.233c-0.77-0.114-1.289-0.846-1.172-1.654
				c0.135-0.808,0.846-1.368,1.615-1.25C1149.748,756.564,1150.27,757.292,1150.135,758.101z"/>
			<g>
				<path fill="none" d="M1147.23,830.717c0.057-0.249,0.135-0.5,0.211-0.75c-0.73-0.48-1.637-1.057-2.289-1.54
					c-1.174-0.749-2.348-1.616-3.463-2.597c-5.484-3.885-9.508-10.409-11.508,2.272c-2.02,12.698,3.811,7.753,10.236,5.733
					c1.732-0.771,3.523-1.309,5.273-1.692c0.441-0.135,0.98-0.27,1.498-0.425C1147.189,831.391,1147.189,831.066,1147.23,830.717z"
					/>
				<path fill="none" d="M1159.545,832.682c-0.057,0.325-0.154,0.653-0.25,0.96c0.441,0.29,0.904,0.576,1.27,0.846
					c1.559,0.926,3.078,2.003,4.502,3.273c5.484,3.885,9.506,10.388,11.525-2.31c2.002-12.698-3.83-7.736-10.256-5.733
					c-1.348,0.615-2.732,1.036-4.098,1.423c-0.77,0.249-1.809,0.539-2.656,0.75C1159.582,832.144,1159.582,832.413,1159.545,832.682
					z"/>
				<path fill="#EA3D4E" d="M1130.182,828.103c2-12.681,6.023-6.157,11.508-2.272c1.115,0.98,2.289,1.848,3.463,2.597
					c-3.021-2.29-6.1-5.598-8.775-10.042c-5.811-12.374-14.68,2.037-15.662,8.236c-0.961,6.174,3.002,22.647,12.236,13.392
					c4.408-4.099,8.852-6.641,12.74-7.87c-1.75,0.383-3.541,0.922-5.273,1.692C1133.992,835.856,1128.162,840.801,1130.182,828.103z
					"/>
				<path fill="#EA3D4E" d="M1176.592,835.452c-2.02,12.697-6.041,6.195-11.525,2.31c-1.424-1.271-2.943-2.348-4.502-3.273
					c3.346,2.386,6.771,6.157,9.697,11.431c5.926,11.662,14.777-2.79,15.758-8.965c0.98-6.199-2.982-22.647-12.332-12.664
					c-3.926,3.388-7.871,5.601-11.449,6.852c1.365-0.387,2.75-0.808,4.098-1.423
					C1172.762,827.716,1178.594,822.754,1176.592,835.452z"/>
				<path fill="#E04B5A" d="M1182.037,866.314c-0.867,0.038,0.367-2.193-0.5-2.193c-4.734-0.097-9.949-0.462-14.297-2.424
					C1170.779,865.544,1175.783,867.143,1182.037,866.314z"/>
				<path fill="#EA3D4E" d="M1161.949,849.921c-0.635-7.714-2.213-11.62-3.656-14.469c0.387-0.48,0.711-1.002,0.941-1.596
					c0.445,0.21,0.887,0.383,1.33,0.632c-0.365-0.27-0.828-0.556-1.27-0.846c0.096-0.308,0.193-0.636,0.25-0.96
					c0.037-0.269,0.037-0.539,0.037-0.791c0.848-0.211,1.887-0.501,2.656-0.75c-0.887,0.231-1.77,0.404-2.637,0.539
					c0-3.001-2.174-5.656-5.234-6.119c-3.078-0.501-5.943,1.347-6.887,4.213c-0.77-0.404-1.559-0.846-2.328-1.347
					c0.652,0.483,1.559,1.06,2.289,1.54c-0.076,0.249-0.154,0.501-0.211,0.75c-0.041,0.349-0.041,0.673-0.041,1.001
					c-0.518,0.155-1.057,0.29-1.498,0.425c0.498-0.117,0.98-0.117,1.48-0.193c0.018,0.711,0.174,1.405,0.443,2.058
					c-2.193,2.251-4.85,5.484-7.736,12.412c-2.461,4.6-5.408,7.735-8.656,9.562c4.23-0.48,8.215-2.366,11.273-6.889
					c3.465-7.29,6.697-9.562,8.717-11.659c0.404,0.152,0.77,0.345,1.213,0.404c0.5,0.097,1,0.038,1.5-0.021
					c1.25,2.638,3.656,5.791,4.713,13.834c1.521,5.256,4.715,8.274,8.602,10.046
					C1164.699,858.928,1162.871,855.039,1161.949,849.921z"/>
				<path fill="#E04B5A" d="M1116.867,853.886c-0.828-0.27-0.367,2.251-1.154,1.944c5.695,2.711,10.93,2.731,15.51,0.152
					C1126.469,856.503,1121.389,855.271,1116.867,853.886z"/>
			</g>
		</g>
		<path opacity="0.45" fill="#E28F9F" d="M1159.756,863.006l-21.703,10.851l12.832,35.424c0,0,15.277-17.028,15.586-37.348
			c0.117-8.312-3.424-9.234-3.424-9.234L1159.756,863.006z"/>
		<path fill="#FF6B80" d="M1162.047,862.716l-22.398,11.296l13.699,32.344c0,0,18.01-21.338,17.607-34.558
			c-0.27-8.291-4.33-9.1-4.33-9.1L1162.047,862.716z"/>
	</g>
	<g>
		<path opacity="0.2" fill="#1D1D1B" d="M1098.512,771.379c0.346-1.04,15.912-8.198,15.064-8.236
			c-18.107-0.808-12.16,13.779-59.303,5.581c12.854-29.495-1.076-39.675,5.197-47.373c1.402-1.537-7.043-12.505-61.727,18.896
			c-0.076,0.038-0.114,0.114-0.173,0.173c-7.407-2.328-15.392-4.062-24.004-5.215c-2.038-2.483,5.898-4.869,6.109-5.156
			c0.673-0.484-10.015-5.425-20.048,3.098c-0.154,0.134-0.24,0.269-0.364,0.404c-0.231-0.345-0.492-0.711-0.705-1.077
			c-5.049-7.466-2.096-13.737-2.279-14.124c-0.019-0.27-1.5,0.038-3.243,1.136v317.575c0,0,0,0,0.01,0
			c2.849,0.193,5.638,0.346,8.388,0.463c-1.077,2.387-1.74,5.426-1.74,8.83c0,7.832,3.377,13.952,7.687,13.952
			c2.348,0,4.386-1.848,5.792-4.735c1.087,6.352,3.819,10.661,7.196,10.661c3.367,0,6.09-4.31,7.167-10.678
			c1.404,2.904,3.454,4.752,5.8,4.752c4.32,0,7.698-6.12,7.698-13.952c0-4.424-1.105-8.253-2.829-10.791
			c49.622-8.16,75.924-39.696,82.352-91.821c0.02,0,0.02,0,0.02,0c-20.453,1.637-31.902-6.081-37.52-21.241
			c-6.773-18.24,4.676-47.528,35.402-56.244c-0.02,0-0.02,0.021-0.037,0.021c-2.289-17.028-5.371-32.327-9.43-45.909
			c-1.193-8.236-4.135-15.896-8.428-22.609c-1.02-2.231-2.078-4.406-3.174-6.523c16.855,0.652,27.609-4.041,37.424-7.85
			c0.598-0.231-15.084,0.577-14.566,0.211c0.98-0.75,23.725-3.443,24.918-7.735c0.289-0.981-18.549,2.714-17.934,2.02
			c0.693-0.729,21.666-5.463,21.857-6.309C1109.939,767.953,1098.164,772.321,1098.512,771.379z M974.048,1039.409
			c-0.191-0.614-0.404-1.195-0.644-1.751c0.432,0,0.867-0.021,1.309-0.021C974.472,1038.177,974.25,1038.773,974.048,1039.409z
			 M986.662,1039.409c-0.269-0.846-0.568-1.616-0.894-2.311c0.625-0.055,1.26-0.097,1.875-0.151
			C987.259,1037.676,986.941,1038.525,986.662,1039.409z"/>
	</g>
</g>
</svg>
