<?xml version="1.0" encoding="utf-8"?>
<!-- Generator: Adobe Illustrator 16.0.0, SVG Export Plug-In . SVG Version: 6.00 Build 0)  -->
<!DOCTYPE svg PUBLIC "-//W3C//DTD SVG 1.1//EN" "http://www.w3.org/Graphics/SVG/1.1/DTD/svg11.dtd">
<svg version="1.1" id="Layer_1" xmlns="http://www.w3.org/2000/svg" xmlns:xlink="http://www.w3.org/1999/xlink" x="0px" y="0px"
   width="106.47466" height="146.01215" viewBox="0 0 106.47467 146.01215" enable-background="new 0 0 198.43 198.43" xml:space="preserve">
<g transform="translate(-50.905834,-31.401)">
	<path fill="#FFFFFF" stroke="#000000" stroke-width="0.5" stroke-miterlimit="10" d="M55.429,144.615
		c1.649,7.984,4.824,18.56,10.493,24.688c11.239,12.153,11.651-17.093,22.91-11.943c3.577,1.636,6.354,3.966,10.373,4.875
		c3.082,0.696,6.289,0.774,9.368,0.27c6.522-1.068,12.228-9.451,18.095-2.673c2.896,3.345,3.863,11.57,8.901,12.606
		c6.441,1.324,11.06-11.329,12.982-15.562c14.697-32.342,7.936-78.133-1.174-111.019c-0.576-2.082-3.099-9.179-0.058-10.69
		c-4.954,2.466-10.403,3.995-15.917,4.581c-1.353,0.145-16.019,0.14-15.804-1.12c0.283-1.476,1.285-2.867,1.269-4.447
		c-1.501,1.588-5.883,3.15-8.025,3.006c1.322-1.547,2.329-3.486,2.625-5.535c-2.744,3.103-9.102,5.704-13.117,5.525
		c0.715-1.208,1.328-2.736,1.595-4.135c-5.668,3.286-12.832,5.811-19.467,5.819c-2.927,0.007-15.378,1.065-16.743-2
		c0.158,0.355,0.363,0.767,0.522,1.124c-0.856-0.65-2.038-0.896-2.968-1.216c4.972,1.713,0.618,15.553-0.399,18.808
		c-6.315,20.177-10.406,44.181-8.677,66.214c0.294,3.76,0.789,7.502,1.274,11.241C53.991,136.914,54.637,140.779,55.429,144.615z"/>
	<g>
		<path opacity="0.18" d="M151.667,83.249c0.242-6.358-0.158-12.726,0.016-19.082
			c-0.002-0.09-0.004-0.091-0.006,0.003c0.84,7.889,3.438,15.39,4.193,23.272c1.312,13.68,2.151,27.51,0.647,41.207
			c-0.908,8.265-3.301,16.186-6.469,23.846c-2.305,5.568-4.969,16.691-11.166,18.995c-4.697,1.743-7.213-1.956-8.765-5.675
			c-1.485-3.558-3.592-8.706-8.341-8.617c-4.865,0.088-8.437,4.078-13.07,5.046c-1.366,0.283-2.523,0.644-3.93,0.571
			c-1.358-0.068-2.762-0.251-4.083-0.399c-1.562-0.175-3.09-0.493-4.547-1.096c-1.068-0.439-1.98-1.342-3.037-1.849
			c-2.429-1.167-4.675-3.539-7.708-2.814c-2.371,0.565-3.989,2.75-5.293,4.627c-1.323,1.908-2.351,3.975-3.698,5.858
			c-1.635,2.285-2.474,5.311-5.855,4.685c-5.943-1.1-9.915-10.555-11.714-15.388c-4.57-12.275-5.794-26.216-6.663-39.173
			c-0.369-5.488-0.503-10.999-0.246-16.496c0.251-5.356,1.146-10.514,1.95-15.795c0.47-3.082,0.964-6.165,1.706-9.194
			c0.65-2.654,1.366-5.309,1.921-7.982c0.335-1.617,1.407-3.463,1.428-5.08c0.001-0.055,0.167,0.287,0.188,0.267
			c-2.196,9.512-0.535,18.948,0.341,28.476c2.504,27.23,16.944,58.021,49.33,53.183c11.782-1.761,25.624-6.145,32.071-16.579
			C148.706,115.384,151.118,97.742,151.667,83.249z"/>
		<path opacity="0.18" d="M145.981,136.957c8.056-11.352,9.756-27.758,10.42-41.198
			c0.004-0.095,0.004-0.094-0.004,0.004c-0.133,2.02,0.549,4.373,0.728,6.404c0.174,1.96,0.201,3.882,0.203,5.845
			c0.008,5.278-0.086,10.771-0.736,15.995c-0.541,4.34-1.215,8.668-1.877,13.012c-0.355,2.319-1.037,4.482-1.445,6.771
			c-0.477,2.663-1.721,5.326-2.612,7.887c-0.82,2.348-1.599,4.574-2.699,6.858c-2.111,4.372-7.14,17.223-14.056,13.258
			c-1.893-1.086-3.024-3.434-3.83-5.358c-1.168-2.799-2.516-6.092-5.006-7.997c-2.364-1.811-5.696-1.015-8.104,0.275
			c-2.852,1.525-5.286,3.562-8.61,4.107c-3.667,0.604-7.475,0.102-10.992-1.022c-1.282-0.409-2.187-1.039-3.315-1.718
			c-1.358-0.814-2.843-1.277-4.149-2.208c-1.051-0.748-2.308-1.498-3.651-1.282c-3.983,0.641-6.038,4.745-7.871,7.876
			c-1.216,2.078-1.988,4.261-3.801,5.952c-7.57,7.079-13.778-8.015-15.769-13.358c-4.57-12.276-5.795-26.216-6.664-39.174
			c-0.56-8.345-0.885-17.451,1.267-25.624c0-0.095-0.002-0.099-0.007-0.009c-0.658,11.416,2.608,25.454,9.273,34.938
			c7.024,9.996,17.573,20.058,30.701,20.695c10.266,0.497,20.861,0.81,30.977-1.264C132.534,144.943,140.892,144.13,145.981,136.957
			z"/>
	</g>
	
		<ellipse transform="matrix(0.0066 -1 1 0.0066 -71.6966 275.0608)" opacity="0.17" cx="102.591" cy="173.615" rx="3.782" ry="51.686"/>
	<path d="M106.792,81.163c0.086-0.075,0.174-0.146,0.26-0.214c0.301-0.236,0.68-0.486,0.865-0.831
		c0.373-0.695-0.57-1.035-1.064-1.244c-0.824-0.351-1.766-0.435-2.651-0.353c-0.816,0.076-3.378,0.683-2.206,2
		c0.486,0.551,1.197,0.85,1.681,1.4c0.332,0.381,0.514,1.307,1.055,1.435c0.496,0.118,0.771-0.423,0.965-0.776
		C105.975,82.071,106.341,81.553,106.792,81.163z"/>
	<g>
		<path d="M108.019,94.958c25.185,2.04,40.562,21.299,37.908,46.146c-0.4,3.734-0.348,8.129-2.949,11.136
			c-2.36,2.729-6.207,3.643-9.65,2.797c-4.092-1.002-8.064-4.562-12.368-4.164c-0.006,0-0.013,0-0.019,0.002
			c-3.875,0.286-6.289,3.256-9.711,4.58c-3.697,1.432-7.766,1.435-11.588,0.511c-4.706-1.137-8.305-5.255-13.447-4.888
			c-3.256,0.232-5.479,2.134-8.317,3.407c-1.979,0.889-4.573,1.123-6.715,1.228c-11.441,0.557-10.774-15.367-10.201-22.996
			c0.435-5.785,1.791-11.82,4.592-16.959c8.175-14.994,25.915-22.136,42.457-20.8C108.011,94.957,108.014,94.957,108.019,94.958z"/>
		<path opacity="0.07" fill="#F5F5F5" d="M77.999,104.988c-3.118,2.387-5.682,5.377-7.431,8.9
			c-0.399,0.808-2.919,5.846-1.215,6.334c1.579,0.453,5.083-4.89,5.875-5.829c2.181-2.58,4.441-5.101,7.27-6.989
			c4.542-3.031,9.706-4.764,14.877-6.35c0.916-0.281,4.143-1.079,3.264-2.592c-0.846-1.459-3.843-1.193-5.229-1.073
			C88.833,97.968,83.153,101.046,77.999,104.988z"/>
	</g>
	<path fill="none" stroke="#000000" stroke-miterlimit="10" d="M97.397,88.896c3.302-3.928,11.394-4.35,14.48-0.022"/>
	<g>
		<path d="M84.631,52.346c3.249,2.234,6.961,2.867,10.267,5.339c-0.086,0.287-0.826,3.439-0.638,3.464
			c0.771,0.101,1.547-0.254,2.184-0.878c-0.181,6.022,1.696,12.104,0.653,18.126c-1.063,6.145-6.494,13.687-14.649,13.642
			c-10.929-0.06-19.297-7.304-17.966-18.99c0.879-7.724,0.766-14.847,4.467-22.025c2.888-5.602,8.434-6.655,12.9-1.227
			C82.718,50.853,83.653,51.672,84.631,52.346z"/>
		<path opacity="0.12" fill="#F5F5F5" d="M74.694,84.177c2.622,1.512,6.008,1.845,8.888,1.359
			c2.281-0.387,4.175-1.707,5.931-3.139c1.325-1.081,3.032-3.506,4.75-3.82c2.432-0.446,0.444,3.814-0.058,4.654
			c-1.422,2.383-3.292,4.8-5.71,6.238c-1.94,1.155-3.668,1.598-5.904,1.733c-3.834,0.229-7.378-0.659-10.316-3.221
			c-2.664-2.321-4.293-5.68-5.175-9.05c-0.805-3.077-1.562-7.83-0.563-10.935c1.042-3.24,1.713,0.784,1.823,1.913
			c0.18,1.818,0.498,3.634,1.033,5.385c0.834,2.73,1.602,5.866,3.837,7.834C73.679,83.528,74.171,83.876,74.694,84.177z"/>
		<path fill="#F2F3F3" d="M75.871,74.07c3.838,5.313,10.719,0.102,10.261-5.309c0,0-0.028-0.128-0.016-0.052
			c0.171,0.458,0.354,0.934,0.572,1.368c1.374,2.732,1.865,5.819-0.155,8.364c-1.565,1.974-4.219,3.027-6.721,2.771
			c-4.744-0.488-6.501-5.555-5.465-9.805C74.784,72.312,75.28,73.251,75.871,74.07z"/>
		<path fill="#F2F3F3" d="M82.897,70.24c0.461,0.783,0.562,1.684,0.282,2.654c-0.103-0.509-0.217-1.04-0.455-1.504
			c-0.574-1.118-1.886-1.444-3.045-1.079c-1.23,0.39-1.748,1.59-1.795,2.804c0.023-0.575-0.212-1.101-0.154-1.688
			c0.112-1.148,0.564-2.257,1.684-2.667c0.966-0.357,2.003-0.1,2.753,0.59C82.468,69.625,82.712,69.924,82.897,70.24z"/>
	</g>
	<g>
		<path d="M126.063,52.465c-3.444,2.158-7.313,2.699-10.828,5.092c0.08,0.291,0.734,3.467,0.539,3.485
			c-0.803,0.081-1.594-0.29-2.229-0.932c-0.027,6.035-2.189,12.077-1.323,18.137c0.884,6.178,6.241,13.863,14.69,14.021
			c11.325,0.213,20.254-6.835,19.291-18.571c-0.636-7.759-0.263-14.891-3.841-22.169c-2.793-5.684-8.501-6.875-13.322-1.549
			C128.1,51.02,127.101,51.814,126.063,52.465z"/>
		<path opacity="0.12" fill="#F5F5F5" d="M135.563,84.851c-2.768,1.342-6.237,1.461-9.141,0.793
			c-2.299-0.528-4.146-1.967-5.842-3.508c-1.281-1.161-2.865-3.691-4.597-4.113c-2.448-0.601-0.692,3.778-0.235,4.649
			c1.297,2.466,3.049,4.998,5.421,6.588c1.901,1.275,3.636,1.826,5.905,2.103c3.891,0.475,7.557-0.188,10.713-2.56
			c2.858-2.148,4.731-5.396,5.844-8.704c1.016-3.019,2.088-7.713,1.268-10.877c-0.854-3.298-1.793,0.676-1.979,1.795
			c-0.297,1.804-0.736,3.595-1.394,5.309c-1.022,2.674-2.002,5.754-4.405,7.574C136.638,84.268,136.114,84.584,135.563,84.851z"/>
		<path fill="#F2F3F3" d="M123.729,73.456c2.146,6.594,10.763,3.572,12.054-2.023c0,0.002,0.012-0.141,0-0.057
			c0.024,0.516,0.055,1.053,0.135,1.562c0.5,3.198-0.006,6.466-2.865,8.376c-2.214,1.479-5.229,1.685-7.663,0.613
			c-4.62-2.027-4.749-7.698-2.329-11.642C123.204,71.335,123.399,72.44,123.729,73.456z"/>
		<path fill="#F2F3F3" d="M131.574,71.508c0.228,0.878,0.076,1.771-0.458,2.63c0.04-0.519,0.075-1.06-0.025-1.571
			c-0.244-1.232-1.418-1.906-2.631-1.873c-1.289,0.035-2.117,1.05-2.496,2.201c0.18-0.547,0.098-1.115,0.313-1.665
			c0.425-1.072,1.163-2.015,2.353-2.104c1.028-0.078,1.953,0.456,2.486,1.324C131.329,70.798,131.483,71.152,131.574,71.508z"/>
	</g>
	<path d="M105.655,108.305c-1.377-0.78-2.606-1.277-3.635-2.622c0,0,1.969-0.389,2.287-0.374c1.023,0.049,2.104-0.241,3.096,0.183
		c0.572,0.242,1.029,0.707,1.624,0.937c0.646,0.249,1.326,0.349,1.974,0.6c1.198,0.467,2.146,1.332,3.276,1.915
		c-0.617,0.662-1.463,0.729-2.255,0.951c-1.092,0.31-2.051,0.863-3.185,0.259C107.784,109.589,106.71,108.9,105.655,108.305z"/>
	<g>
		<g>
			<path stroke="#FFFFFF" stroke-width="2" stroke-miterlimit="10" d="M96.25,106.936c0.746,0.167,1.547,0.197,2.491,0.247
				c1.32,0.069,1.417,0.939,1.964,2.042c0.68,1.367,1.352,2.799,2.491,3.832c0.979,0.89,2.101,1.336,3.136,2.104
				c0.351,0.258,1.193,0.878,1.17,1.358c-0.215,4.305-11.413,3.581-13.964,3.537c-6.188-0.104-12.653-2.36-16.821-7.083
				c-3.625-4.107-5.124-11.383-4.591-16.689c5.812,3.932,12.244,2.948,18.29,6.461c1.28,0.742,2.214,1.769,3.271,2.773
				C94.559,106.351,95.366,106.738,96.25,106.936z"/>
		</g>
		<path stroke="#FFFFFF" stroke-width="2" stroke-miterlimit="10" d="M117.544,102.542c2.914,1.503,0.319,2.725-1.127,3.753
			c-0.457,0.325-0.326,1.024-0.734,1.399c-2.658,2.438-6.251,0.278-9.01-0.464c-0.49-0.13-3.217-1.043-3.539-0.868
			c1.773-0.962,3.799-1.378,5.541-2.391c1.708-0.991,3.257-2.008,5.283-2.317C114.677,101.547,116.284,101.894,117.544,102.542z"/>
		<path stroke="#FFFFFF" stroke-width="2" stroke-miterlimit="10" d="M106.304,105.987c10.735,7.271,20.905-4.525,29.078-10.242
			c2.174,3.314,0.481,10.529-0.73,14.069c-1.577,4.604-4.518,8.711-9.174,10.524c-8.457,3.293-18.715-1.388-24.305-8.007
			c-1.57-1.858-1.681-4.505-3.421-6.177c-0.968-0.93-4.39-1.747-3.265-3.695c0.712-1.231,3.787-1.062,4.923-0.767
			C102.128,102.403,104.034,104.45,106.304,105.987z"/>
		<path opacity="0.07" fill="#F5F5F5" d="M124.868,114.826c1.965-1.292,3.615-3.205,4.508-5.271
			c0.306-0.705,2.903-6.714,3.901-6.263c2.021,0.913-0.91,7.971-1.474,9.075c-1.429,2.808-3.466,5.094-6.491,6.144
			c-3.595,1.245-8.029,1.188-11.696,0.324c-1.968-0.464-3.443-1.203-5.089-2.317c-1.368-0.93-2.714-2.339,0.075-2.348
			c1.016-0.004,2.529,0.485,3.479,0.789c0.007,0.002,0.014,0.005,0.022,0.008c3.474,1.064,7.568,2.311,11.095,0.769
			C123.773,115.487,124.333,115.18,124.868,114.826z"/>
		<path opacity="0.07" fill="#F5F5F5" d="M83.906,112.799c-1.99-1.245-3.682-3.118-4.621-5.159
			c-0.321-0.697-3.059-6.641-4.042-6.166c-1.991,0.962,1.103,7.944,1.689,9.036c3.783,7.026,12.399,8.126,19.63,8.376
			c1.233,0.042,3.722,0.289,4.715-0.723c1.795-1.825-1.708-1.67-2.829-1.64C93.877,116.66,87.812,115.245,83.906,112.799z"/>
	</g>
	<path d="M146.315,32.365c6.683,1.016,8.486,7.365,5.181,12.454c-0.773,1.191-3.435,4.812-5.195,4.353
		c-1.785-0.467-1.697-7.463-3.012-7.49c-1.853-0.069-6.908,1.621-7.908-0.682c-1.734-4.023,5.084-7.877,8.057-8.541
		C144.401,32.244,145.372,32.223,146.315,32.365z"/>
	<path opacity="0.12" fill="#F5F5F5" d="M149.868,45.694c-1.433,1.297-3.343,2.344-4.515,0.06
		c-0.391-0.766-0.916-2.143-0.67-3.005c0.299-1.043,1.078-1.024,2.105-0.962c1.149,0.066,2.082-0.146,2.606-1.126
		c0.775-1.438-0.045-2.822,0.41-4.235c0.687-2.132,2.5,2.325,2.586,2.877C152.771,41.753,151.782,43.965,149.868,45.694z"/>
	<g>
		<path d="M56.215,37.783c1.414-6.611,7.861-8.031,12.743-4.428c1.143,0.846,4.598,3.719,4.034,5.447
			c-0.573,1.753-7.552,1.247-7.658,2.558c-0.182,1.845,1.205,6.994-1.154,7.854c-4.119,1.491-7.558-5.547-8.042-8.555
			C55.979,39.685,56.017,38.714,56.215,37.783z"/>
		<path opacity="0.12" fill="#F5F5F5" d="M60.457,46.725c1.565,1.121,3.534,1.913,4.232-0.627
			c0.233-0.85,0.484-2.351,0.104-3.205c-0.46-1.032-1.188-0.896-2.139-0.676c-1.062,0.246-1.972,0.165-2.636-0.768
			c-0.972-1.367-0.449-2.925-1.12-4.315c-1.014-2.099-1.935,2.784-1.917,3.366C57.055,43.092,58.365,45.225,60.457,46.725z"/>
	</g>
	<g>
		<g>
			<path d="M134.622,172.092c2.971,1.188,5.426-0.426,7.219-2.738c1.447-1.868,3.812-5.221,4.168-7.609
				c0.238-1.604-0.59-2.792-2.309-2.307c-1.378,0.392-2.712,2.163-3.691,3.147c-1.479,1.483-3.734,2.75-5.704,1.456
				c-1.567-1.031-2.006-3.292-3.669-4.268c-2.801-1.64-1.769,3.274-1.434,4.438C130.041,167.128,131.611,170.892,134.622,172.092z"
				/>
			<path opacity="0.12" fill="#F5F5F5" d="M141.88,165.265c0.637-0.649,1.809-3.015,2.832-3.111
				c0.922-0.087,0.42,1.271,0.065,1.889c-0.393,0.688-6.547,9.74-7.457,6.602c-0.327-1.13,1.339-1.938,1.992-2.46
				C140.325,167.38,140.974,166.186,141.88,165.265z"/>
		</g>
		<g>
			<path d="M76.526,167.16c0.532-0.877,0.97-1.806,1.506-2.676c0.531-0.865,1.757-2.134,1.218-3.217
				c-0.971-1.95-3.756-0.284-4.799,0.592c-0.663,0.557-1.25,1.197-1.916,1.75c-1.911,1.585-3.872,0.528-5.585-0.77
				c-1.154-0.872-3.83-4.76-5.402-2.877c-0.995,1.189,0.541,3.444,1.154,4.51c0.95,1.65,2.145,3.221,3.363,4.68
				c1.092,1.307,2.427,2.621,4.156,2.968c1.491,0.297,3-0.647,3.896-1.76c0.631-0.784,1.28-1.556,1.866-2.374
				C76.175,167.717,76.354,167.438,76.526,167.16z"/>
			<path opacity="0.12" fill="#F5F5F5" d="M74.69,165.203c0.639-0.65,1.811-3.015,2.833-3.111
				c0.922-0.087,0.42,1.271,0.066,1.888c-0.394,0.688-6.547,9.74-7.457,6.604c-0.327-1.131,1.339-1.94,1.992-2.461
				C73.136,167.318,73.786,166.125,74.69,165.203z"/>
		</g>
	</g>
</g>
</svg>
