<?xml version="1.0" encoding="utf-8"?>
<!-- Generator: Adobe Illustrator 16.0.0, SVG Export Plug-In . SVG Version: 6.00 Build 0)  -->
<!DOCTYPE svg PUBLIC "-//W3C//DTD SVG 1.1//EN" "http://www.w3.org/Graphics/SVG/1.1/DTD/svg11.dtd">
<svg version="1.1" id="Layer_1" xmlns="http://www.w3.org/2000/svg" xmlns:xlink="http://www.w3.org/1999/xlink" x="0px" y="0px"
   width="440.40015"
   height="393.20328"
   viewBox="0 0 440.40015 393.20328"
   xml:space="preserve">
<g transform="translate(-787.19621,-686.65273)">
	<g>
		<g>
			<path fill="#FF6B80" d="M1076.186,893.616c-13.392-96.224-40.252-144.539-120.7-146.908l0,0l0,0l0,0l0,0
				c-80.445,2.369-107.326,50.685-120.697,146.908c-13.316,95.861,27.592,168.322,120.697,161.433
				C1048.576,1061.938,1089.502,989.478,1076.186,893.616z"/>
			<path fill="#3A002F" d="M968.974,1074.232c-4.078,0-7.272-5.809-7.272-13.199c0-7.386,3.194-13.198,7.272-13.198
				c4.1,0,7.294,5.812,7.294,13.198C976.268,1068.424,973.073,1074.232,968.974,1074.232z"/>
			<path fill="#3A002F" d="M993.544,1074.232c-4.096,0-7.311-5.809-7.311-13.199c0-7.386,3.215-13.198,7.311-13.198
				c4.082,0,7.294,5.812,7.294,13.198C1000.838,1068.424,997.626,1074.232,993.544,1074.232z"/>
			<path fill="#3A002F" d="M981.271,1079.852c-4.158,0-7.294-6.887-7.294-16.007s3.136-16.01,7.294-16.01
				c4.137,0,7.272,6.89,7.272,16.01S985.408,1079.852,981.271,1079.852z"/>
			<path fill="#3A002F" d="M917.408,1074.232c-4.078,0-7.272-5.809-7.272-13.199c0-7.386,3.194-13.198,7.272-13.198
				c4.1,0,7.294,5.812,7.294,13.198C924.702,1068.424,921.508,1074.232,917.408,1074.232z"/>
			<path fill="#3A002F" d="M941.979,1074.232c-4.1,0-7.294-5.809-7.294-13.199c0-7.386,3.194-13.198,7.294-13.198
				c4.078,0,7.272,5.812,7.272,13.198C949.252,1068.424,946.058,1074.232,941.979,1074.232z"/>
			<path fill="#3A002F" d="M929.686,1079.852c-4.158,0-7.273-6.887-7.273-16.007s3.115-16.01,7.273-16.01
				c4.154,0,7.29,6.89,7.29,16.01S933.84,1079.852,929.686,1079.852z"/>
			<g>
				<path fill="#FF6B80" d="M882.793,898.793c-39.175,0-71.057-31.885-71.057-71.076c0-39.195,31.882-71.06,71.057-71.06
					c39.195,0,71.076,31.864,71.076,71.06C953.869,866.908,921.988,898.793,882.793,898.793z"/>
				<g>
					<g>
						<path fill="#FF6B80" d="M859.725,894.942c1.095-3.136,3.27-5.539,5.656-7.117c2.403-1.54,5.042-2.272,7.694-1.848
							c5.121,0.905,9.545,6.157,9.718,12.815c0.021,3.309-1.348,6.33-3.848,8.388c-2.462,2.059-6.061,3.118-9.814,2.483
							c-3.75-0.615-6.83-2.77-8.484-5.521C858.954,901.39,858.646,898.082,859.725,894.942z"/>
					</g>
					<g>
						<path fill="#FF6B80" d="M839.174,883.785c4.233-5.118,10.946-6.562,15.547-4.12c2.365,1.291,3.981,3.484,4.924,6.198
							c0.926,2.711,1.157,5.943,0.08,9.079c-1.061,3.14-3.329,5.542-6.372,6.696c-3.001,1.136-6.751,0.942-10.101-0.863
							c-3.347-1.83-5.539-4.869-6.213-8.005C836.346,889.613,837.133,886.382,839.174,883.785z"/>
					</g>
					<g>
						<path fill="#FF6B80" d="M823.319,866.562c5.656-3.463,12.487-2.693,16.048,1.137c3.501,3.867,3.75,10.736-0.193,16.086
							c-2.021,2.617-4.967,4.154-8.198,4.25c-3.212,0.118-6.696-1.271-9.272-4.078c-2.58-2.79-3.657-6.367-3.291-9.562
							C818.758,871.18,820.55,868.372,823.319,866.562z"/>
					</g>
					<g>
						<path fill="#FF6B80" d="M813.909,845.166c3.215-0.809,6.409-0.324,9.044,0.829c2.617,1.153,4.676,2.983,5.753,5.425
							c2.079,4.772,0.06,11.352-5.387,15.143c-2.753,1.848-6.044,2.349-9.12,1.406c-3.081-0.943-5.947-3.389-7.467-6.869
							c-1.54-3.484-1.405-7.234-0.021-10.143C808.101,848.032,810.697,845.957,813.909,845.166z"/>
					</g>
					<g>
						<path fill="#FF6B80" d="M811.968,821.846c6.617,0.732,11.524,5.563,11.987,10.757c0.21,2.673-0.732,5.253-2.504,7.521
							c-1.751,2.252-4.327,4.217-7.542,5.042c-3.212,0.829-6.482,0.252-9.083-1.672c-2.613-1.885-4.499-5.139-4.811-8.93
							c-0.324-3.788,1.04-7.273,3.291-9.562C805.559,822.675,808.677,821.576,811.968,821.846z"/>
					</g>
					<g>
						<path fill="#FF6B80" d="M817.718,799.182c3.042,1.347,5.256,3.695,6.62,6.213c1.367,2.541,1.868,5.234,1.195,7.832
							c-0.656,2.597-2.369,4.713-4.773,6.312c-2.386,1.558-5.466,2.576-8.792,2.307c-3.291-0.248-6.178-1.865-8.042-4.521
							c-1.848-2.635-2.601-6.292-1.658-10.004c0.926-3.695,3.35-6.562,6.216-8.005C811.371,797.852,814.699,797.835,817.718,799.182
							z"/>
					</g>
					<g>
						<path fill="#FF6B80" d="M830.554,779.611c4.752,4.638,5.636,11.448,2.808,15.837c-2.884,4.327-9.486,6.213-15.644,3.733
							c-3.039-1.33-5.253-3.792-6.116-6.91c-0.887-3.098-0.424-6.811,1.692-9.983c2.079-3.194,5.273-5.118,8.468-5.543
							C824.953,776.303,828.109,777.359,830.554,779.611z"/>
					</g>
					<g>
						<path fill="#FF6B80" d="M848.988,765.222c1.578,2.921,1.902,6.136,1.422,8.965c-0.479,2.828-1.733,5.272-3.847,6.927
							c-4.137,3.194-11.006,2.846-16.01-1.502c-2.444-2.23-3.754-5.29-3.577-8.522c0.151-3.216,1.806-6.562,4.807-8.91
							c3.005-2.327,6.658-3.136,9.814-2.5C844.771,760.314,847.427,762.313,848.988,765.222z"/>
					</g>
					<g>
						<path fill="#FF6B80" d="M871.096,757.621c0.539,3.27-0.214,6.426-1.561,8.927c-1.385,2.538-3.367,4.427-5.905,5.29
							c-2.521,0.888-5.253,0.598-7.891-0.539c-2.614-1.153-5.156-3.173-6.751-6.077c-1.578-2.908-1.831-6.216-0.619-9.218
							c1.175-3.004,3.851-5.618,7.449-6.868c3.615-1.232,7.328-0.791,10.118,0.825S870.574,754.33,871.096,757.621z"/>
					</g>
					<g>
						<path fill="#FF6B80" d="M894.492,757.621c-0.539,3.27-2.289,6.002-4.386,7.945c-2.116,1.924-4.62,3.098-7.293,3.077
							c-2.715,0.021-5.197-1.153-7.312-3.077c-2.1-1.943-3.829-4.696-4.406-7.945c-0.538-3.274,0.308-6.486,2.425-8.91
							c2.116-2.445,5.483-4.061,9.293-4.061c3.788,0,7.158,1.615,9.255,4.061C894.202,751.135,895.069,754.347,894.492,757.621z"/>
					</g>
					<g>
						<path fill="#FF6B80" d="M916.618,765.222c-1.596,2.921-4.134,4.924-6.752,6.077c-2.638,1.137-5.369,1.427-7.891,0.539
							c-2.538-0.863-4.521-2.752-5.905-5.29c-1.347-2.501-2.1-5.657-1.578-8.927c0.539-3.274,2.387-6.044,5.194-7.66
							c2.772-1.616,6.506-2.058,10.101-0.808c3.599,1.232,6.274,3.847,7.466,6.851C918.448,759.006,918.217,762.334,916.618,765.222
							z"/>
					</g>
					<g>
						<path fill="#FF6B80" d="M935.072,779.611c-5.021,4.348-11.893,4.696-16.03,1.52c-2.113-1.654-3.367-4.116-3.847-6.944
							c-0.463-2.808-0.152-6.044,1.423-8.965c1.578-2.908,4.216-4.907,7.39-5.525c3.156-0.653,6.811,0.176,9.814,2.503
							c3.001,2.328,4.655,5.674,4.811,8.89C938.806,774.321,937.514,777.381,935.072,779.611z"/>
					</g>
					<g>
						<path fill="#FF6B80" d="M947.888,799.182c-6.157,2.5-12.76,0.594-15.644-3.733c-2.828-4.389-1.944-11.199,2.828-15.837
							c2.425-2.252,5.581-3.309,8.775-2.866c3.19,0.425,6.405,2.349,8.484,5.543c2.097,3.173,2.559,6.886,1.672,9.983
							C953.141,795.39,950.927,797.852,947.888,799.182z"/>
					</g>
					<g>
						<path fill="#FF6B80" d="M953.641,821.846c-3.328,0.27-6.389-0.749-8.795-2.307c-2.387-1.6-4.117-3.716-4.772-6.312
							c-0.674-2.598-0.173-5.291,1.194-7.832c1.364-2.501,3.599-4.866,6.62-6.213c3.019-1.347,6.348-1.309,9.234,0.135
							c2.866,1.443,5.29,4.31,6.216,8.005c0.943,3.712,0.19,7.369-1.654,10.004C959.836,819.98,956.929,821.598,953.641,821.846z"/>
					</g>
					<g>
						<path fill="#FF6B80" d="M951.714,845.166c-3.232-0.825-5.809-2.79-7.56-5.042c-1.75-2.269-2.714-4.849-2.482-7.521
							c0.463-5.193,5.35-10.024,11.969-10.757c3.288-0.27,6.406,0.846,8.658,3.156c2.251,2.289,3.615,5.774,3.291,9.562
							c-0.312,3.791-2.196,7.045-4.794,8.93C958.179,845.418,954.908,845.995,951.714,845.166z"/>
					</g>
					<g>
						<path fill="#FF6B80" d="M942.286,866.584c-5.445-3.812-7.445-10.392-5.387-15.164c1.098-2.441,3.136-4.271,5.753-5.425
							c2.635-1.137,5.829-1.638,9.062-0.829c3.194,0.809,5.791,2.866,7.18,5.791c1.385,2.908,1.52,6.658-0.021,10.143
							c-1.52,3.48-4.386,5.926-7.467,6.869C948.33,868.911,945.039,868.41,942.286,866.584z"/>
					</g>
					<g>
						<path fill="#FF6B80" d="M926.433,883.785c-3.944-5.35-3.695-12.219-0.194-16.086c3.544-3.83,10.392-4.6,16.048-1.115
							c2.773,1.806,4.562,4.596,4.907,7.811c0.366,3.195-0.711,6.772-3.308,9.562c-2.56,2.808-6.044,4.196-9.255,4.078
							C931.398,887.96,928.452,886.402,926.433,883.785z"/>
					</g>
					<g>
						<path fill="#FF6B80" d="M905.882,894.942c-1.078-3.136-0.847-6.368,0.059-9.079c0.942-2.714,2.579-4.907,4.945-6.198
							c4.579-2.462,11.312-0.998,15.547,4.12c2.04,2.597,2.828,5.828,2.116,8.985c-0.656,3.136-2.866,6.175-6.195,8.005
							c-3.35,1.806-7.1,1.999-10.101,0.863C909.211,900.484,906.941,898.082,905.882,894.942z"/>
					</g>
					<g>
						<path fill="#FF6B80" d="M882.793,898.793c0.193-6.658,4.616-11.91,9.738-12.815c2.651-0.425,5.29,0.308,7.693,1.848
							c2.387,1.578,4.562,3.981,5.657,7.117c1.077,3.14,0.77,6.447-0.923,9.2c-1.653,2.752-4.734,4.906-8.484,5.521
							c-3.754,0.635-7.369-0.425-9.832-2.483C884.16,905.123,882.793,902.102,882.793,898.793z"/>
					</g>
				</g>
			</g>
			<g>
				<path fill="#FF6B80" d="M1029.162,898.793c39.175,0,71.056-31.885,71.056-71.076c0-39.195-31.881-71.06-71.056-71.06
					c-39.195,0-71.076,31.864-71.076,71.06C958.086,866.908,989.967,898.793,1029.162,898.793z"/>
				<g>
					<g>
						<path fill="#FF6B80" d="M1052.23,894.942c1.098,3.14,0.77,6.427-0.905,9.2c-1.671,2.73-4.752,4.906-8.502,5.521
							c-3.754,0.635-7.353-0.425-9.814-2.483c-2.5-2.058-3.867-5.079-3.847-8.388c0-3.329,1.271-6.312,3.021-8.564
							c1.789-2.269,4.058-3.788,6.696-4.251c2.651-0.442,5.29,0.29,7.693,1.848C1048.98,889.403,1051.136,891.807,1052.23,894.942z"
							/>
					</g>
					<g>
						<path fill="#FF6B80" d="M1072.781,883.785c2.058,2.597,2.828,5.828,2.134,8.985c-0.673,3.136-2.884,6.175-6.213,8.005
							c-3.35,1.806-7.082,1.999-10.083,0.846c-3.039-1.137-5.312-3.539-6.389-6.679c-1.078-3.136-0.847-6.386,0.079-9.079
							c0.942-2.714,2.559-4.928,4.925-6.198c2.365-1.288,5.101-1.461,7.887-0.767
							C1067.912,879.589,1070.74,881.167,1072.781,883.785z"/>
					</g>
					<g>
						<path fill="#FF6B80" d="M1088.635,866.562c2.773,1.827,4.562,4.617,4.907,7.832c0.366,3.195-0.711,6.772-3.291,9.562
							c-2.576,2.791-6.04,4.196-9.271,4.078c-3.216-0.096-6.157-1.633-8.198-4.25c-2.021-2.618-2.866-5.754-2.866-8.62
							c0.017-2.866,0.846-5.505,2.673-7.466c1.83-1.982,4.351-3.039,7.217-3.291
							C1082.671,864.197,1085.845,864.774,1088.635,866.562z"/>
					</g>
					<g>
						<path fill="#FF6B80" d="M1098.046,845.166c3.211,0.791,5.808,2.866,7.196,5.791c1.385,2.908,1.52,6.658-0.021,10.122
							c-1.52,3.501-4.386,5.926-7.466,6.868c-3.077,0.964-6.348,0.442-9.121-1.385c-2.77-1.826-4.558-4.503-5.501-7.214
							c-0.925-2.731-0.963-5.466,0.114-7.929c1.077-2.462,3.136-4.271,5.753-5.425
							C1091.636,844.858,1094.83,844.357,1098.046,845.166z"/>
					</g>
					<g>
						<path fill="#FF6B80" d="M1099.969,821.846c3.309-0.287,6.444,0.829,8.695,3.156c2.252,2.289,3.599,5.774,3.291,9.562
							c-0.328,3.791-2.213,7.023-4.811,8.93c-2.617,1.903-5.888,2.48-9.099,1.672c-3.194-0.825-5.792-2.79-7.542-5.042
							c-1.771-2.269-2.715-4.849-2.483-7.521c0.231-2.676,1.558-5.079,3.675-7.041
							C1093.812,823.635,1096.678,822.136,1099.969,821.846z"/>
					</g>
					<g>
						<path fill="#FF6B80" d="M1094.236,799.182c3.019-1.347,6.348-1.33,9.234,0.135c2.866,1.443,5.291,4.31,6.216,8.005
							c0.922,3.691,0.19,7.369-1.654,10.004c-1.868,2.655-4.755,4.272-8.063,4.521c-3.291,0.252-6.389-0.749-8.774-2.328
							c-2.387-1.578-4.116-3.694-4.79-6.291c-0.656-2.598-0.135-5.291,1.212-7.832
							C1088.98,802.877,1091.194,800.508,1094.236,799.182z"/>
					</g>
					<g>
						<path fill="#FF6B80" d="M1081.421,779.594c2.425-2.251,5.581-3.291,8.771-2.849c3.194,0.425,6.389,2.349,8.488,5.543
							c2.075,3.173,2.56,6.886,1.692,9.966c-0.884,3.119-3.118,5.598-6.137,6.928c-3.042,1.326-6.274,1.364-9.064,0.674
							c-2.791-0.712-5.098-2.155-6.579-4.407c-1.464-2.272-1.868-4.983-1.426-7.812
							C1077.65,784.809,1078.977,781.863,1081.421,779.594z"/>
					</g>
					<g>
						<path fill="#FF6B80" d="M1062.967,765.222c1.561-2.908,4.217-4.929,7.39-5.543c3.156-0.636,6.811,0.173,9.814,2.5
							c3.001,2.349,4.655,5.694,4.811,8.91c0.173,3.232-1.119,6.271-3.561,8.505c-2.462,2.252-5.504,3.347-8.35,3.578
							c-2.888,0.231-5.543-0.404-7.66-2.059c-2.134-1.654-3.388-4.099-3.867-6.927
							C1061.081,771.357,1061.392,768.143,1062.967,765.222z"/>
					</g>
					<g>
						<path fill="#FF6B80" d="M1040.841,757.621c0.539-3.291,2.387-6.044,5.177-7.66s6.503-2.058,10.118-0.825
							c3.599,1.25,6.274,3.864,7.449,6.868c1.212,3.002,0.98,6.31-0.618,9.218c-1.596,2.904-4.138,4.924-6.752,6.077
							c-2.638,1.137-5.369,1.427-7.891,0.539c-2.538-0.863-4.521-2.77-5.905-5.29
							C1041.072,764.026,1040.319,760.87,1040.841,757.621z"/>
					</g>
					<g>
						<path fill="#FF6B80" d="M1017.462,757.621c-0.556-3.274,0.29-6.486,2.407-8.91c2.096-2.445,5.483-4.061,9.272-4.078
							c3.809,0.018,7.176,1.633,9.275,4.058c2.134,2.444,2.98,5.656,2.424,8.931c-0.538,3.249-2.289,6.002-4.389,7.945
							c-2.113,1.924-4.597,3.077-7.29,3.077c-2.715,0-5.197-1.153-7.311-3.077C1019.752,763.623,1018.001,760.87,1017.462,757.621z"
							/>
					</g>
					<g>
						<path fill="#FF6B80" d="M995.337,765.222c-1.6-2.908-1.831-6.216-0.636-9.218c1.191-3.004,3.867-5.618,7.466-6.851
							c3.616-1.25,7.328-0.809,10.118,0.808c2.791,1.616,4.639,4.386,5.177,7.66c0.521,3.27-0.231,6.405-1.596,8.927
							c-1.367,2.538-3.35,4.427-5.888,5.29c-2.541,0.888-5.252,0.598-7.891-0.539C999.474,770.146,996.932,768.126,995.337,765.222z
							"/>
					</g>
					<g>
						<path fill="#FF6B80" d="M976.882,779.611c-2.441-2.23-3.733-5.29-3.561-8.522c0.155-3.216,1.81-6.562,4.811-8.89
							c3.005-2.327,6.658-3.156,9.814-2.521c3.174,0.614,5.829,2.635,7.391,5.543c1.574,2.921,1.885,6.157,1.423,8.965
							c-0.48,2.828-1.734,5.29-3.868,6.927c-2.117,1.654-4.79,2.29-7.639,2.079C982.387,782.94,979.344,781.846,976.882,779.611z"/>
					</g>
					<g>
						<path fill="#FF6B80" d="M964.066,799.182c-3.039-1.33-5.252-3.792-6.115-6.91c-0.888-3.077-0.404-6.811,1.671-9.983
							c2.079-3.194,5.294-5.118,8.488-5.543c3.191-0.442,6.348,0.614,8.771,2.866c2.445,2.272,3.771,5.197,4.255,8.025
							c0.459,2.846,0.038,5.561-1.427,7.812c-1.481,2.252-3.788,3.695-6.578,4.407C970.358,800.546,967.109,800.508,964.066,799.182
							z"/>
					</g>
					<g>
						<path fill="#FF6B80" d="M969.686,866.584c-2.77,1.826-6.061,2.327-9.138,1.385c-3.081-0.943-5.926-3.389-7.445-6.869
							c-1.562-3.484-1.427-7.234-0.042-10.143c1.389-2.904,3.985-4.982,7.197-5.791c3.215-0.809,6.427-0.308,9.044,0.829
							c2.618,1.174,4.676,2.983,5.753,5.425c1.078,2.463,1.04,5.197,0.114,7.929C974.247,862.06,972.438,864.754,969.686,866.584z"
							/>
					</g>
					<g>
						<path fill="#FF6B80" d="M985.522,883.785c-2.021,2.617-4.966,4.154-8.198,4.25c-3.212,0.118-6.696-1.271-9.255-4.078
							c-2.576-2.79-3.675-6.367-3.309-9.562c0.366-3.215,2.138-6.005,4.925-7.811c2.772-1.81,5.967-2.387,8.812-2.155
							c2.866,0.231,5.387,1.288,7.218,3.271c1.826,1.961,2.673,4.6,2.673,7.466S987.563,881.167,985.522,883.785z"/>
					</g>
					<g>
						<path fill="#FF6B80" d="M1006.073,894.942c-1.061,3.14-3.329,5.542-6.372,6.679c-3.001,1.153-6.751,0.96-10.08-0.846
							c-3.35-1.83-5.542-4.869-6.233-8.005c-0.694-3.157,0.094-6.389,2.135-8.985c2.058-2.618,4.886-4.196,7.659-4.887
							c2.787-0.694,5.539-0.521,7.888,0.767c2.365,1.271,4.002,3.484,4.945,6.198
							C1006.919,888.557,1007.15,891.807,1006.073,894.942z"/>
					</g>
					<g>
						<path fill="#FF6B80" d="M1029.162,898.793c0,3.309-1.367,6.33-3.851,8.388c-2.462,2.059-6.061,3.118-9.832,2.483
							c-3.75-0.615-6.81-2.791-8.484-5.521c-1.692-2.773-2-6.061-0.922-9.2c1.095-3.136,3.271-5.539,5.656-7.117
							c2.424-1.558,5.06-2.29,7.694-1.848c2.638,0.463,4.907,1.982,6.695,4.251C1027.891,892.48,1029.142,895.464,1029.162,898.793z
							"/>
					</g>
				</g>
			</g>
			<g>
				<path fill="#FF6B80" d="M889.315,729.432c-36.712,7.39-45.697,19.528-68.749,16.721c-4.002-0.656-9.002-3.119-10.525-6.582
					c-0.77-1.769-1.402-3.367-1.558-5.001c-0.038-0.829,0.021-1.653,0.231-2.521l0.193-0.618c-0.041-0.018,0.211-0.46,0.287-0.674
					c0.172-0.324,0.345-0.614,0.614-0.98c1.022-1.309,2.655-2.134,4.293-2.058c0.846,0.037,1.653,0.269,2.424,0.711
					c0.674,0.387,1.326,1.061,1.713,1.868c0.884,1.578,0.905,3.847-0.097,5.539c-1.001,1.675-3.212,2.483-5.042,1.562l-0.21,0.441
					c1.847,1.326,4.654,0.98,6.291-1.061c1.616-1.999,2.079-5.038,1.099-7.617c-2.176-5.464-9.044-6.292-13.009-2.27
					c-0.463,0.442-0.963,1.057-1.367,1.692c-0.173,0.308-0.249,0.346-0.519,0.867l-0.462,0.942
					c-0.577,1.306-0.771,2.808-0.905,4.289c-1.115,12.411,10.525,19.031,15.201,21.821c10.737,5.847,47.643,17.93,69.133,15.102
					c46.547-6.137,84.989,10.239,86.261,4.638C976.999,765.604,939.748,719.292,889.315,729.432z"/>
				<path fill="#FF6B80" d="M1021.658,729.432c36.712,7.39,45.677,19.528,68.748,16.721c4.003-0.656,9.003-3.119,10.526-6.582
					c0.767-1.769,1.402-3.367,1.558-5.001c0.038-0.829-0.021-1.653-0.231-2.521l-0.211-0.618c0.038-0.018-0.193-0.46-0.27-0.674
					c-0.173-0.324-0.349-0.614-0.618-0.98c-1.019-1.309-2.635-2.134-4.289-2.058c-0.846,0.037-1.654,0.269-2.424,0.711
					c-0.656,0.387-1.33,1.061-1.713,1.868c-0.867,1.578-0.904,3.847,0.097,5.539c0.98,1.675,3.212,2.483,5.042,1.562l0.211,0.441
					c-1.848,1.326-4.655,0.98-6.293-1.061c-1.615-1.999-2.078-5.038-1.077-7.617c2.155-5.464,9.023-6.292,12.988-2.27
					c0.463,0.442,0.96,1.057,1.385,1.692c0.173,0.308,0.231,0.346,0.501,0.867l0.441,0.942c0.598,1.306,0.791,2.808,0.926,4.289
					c1.115,12.411-10.525,19.031-15.201,21.821c-10.736,5.847-47.643,17.93-69.136,15.102c-46.544-6.137-84.987,10.239-86.258,4.638
					C933.975,765.604,971.226,719.292,1021.658,729.432z"/>
			</g>
			<path fill="#EAE5D3" d="M1096.812,831.602c-2.058-2.538-5.059-3.906-8.371-3.885l0,0l0,0l0,0
				c3.312,0.017,6.313-1.348,8.371-3.889c2.021-2.521,3.043-6.213,2.272-10.025c-0.791-3.788-3.06-6.848-5.926-8.388
				c-2.849-1.578-6.199-1.675-9.237-0.384l0,0c3.098-1.271,5.311-3.678,6.254-6.813c0.884-3.098,0.403-6.906-1.771-10.122
				c-2.155-3.211-5.464-5.135-8.679-5.463c-3.249-0.345-6.347,0.829-8.657,3.174l0,0l0,0l0,0c2.327-2.327,3.502-5.425,3.156-8.678
				c-0.328-3.212-2.252-6.503-5.463-8.676c-3.216-2.175-7.024-2.638-10.104-1.771c-3.153,0.943-5.561,3.174-6.831,6.254l0,0
				c1.291-3.042,1.195-6.388-0.383-9.217c-1.541-2.887-4.58-5.155-8.389-5.946c-3.812-0.771-7.504,0.27-10.025,2.272
				c-2.541,2.059-3.888,5.059-3.888,8.367l0,0l0,0l0,0c0.021-3.309-1.347-6.309-3.886-8.367c-2.503-2.003-6.195-3.043-10.008-2.252
				c-3.809,0.771-6.868,3.061-8.405,5.926c-1.561,2.829-1.657,6.175-0.387,9.217l0,0c-1.271-3.08-3.657-5.311-6.81-6.232
				c-3.098-0.888-6.89-0.425-10.104,1.75c-3.212,2.173-5.136,5.464-5.48,8.696c-0.349,3.232,0.825,6.33,3.174,8.657l0,0
				c-2.328-2.345-5.426-3.502-8.658-3.152c-3.215,0.324-6.522,2.23-8.678,5.441c-2.176,3.232-2.655,7.045-1.771,10.122
				c0.925,3.156,3.156,5.543,6.233,6.813l0,0c-3.039-1.271-6.368-1.194-9.217,0.404c-2.867,1.52-5.156,4.579-5.927,8.388
				c-0.77,3.81,0.253,7.505,2.252,10.005c2.059,2.541,5.062,3.905,8.371,3.889c-3.309,0-6.312,1.347-8.371,3.885
				c-1.999,2.521-3.021,6.216-2.252,10.025c0.771,3.809,3.06,6.868,5.927,8.388c2.849,1.578,6.178,1.675,9.217,0.387l0,0
				c-3.077,1.271-5.291,3.675-6.233,6.831c-0.884,3.076-0.404,6.886,1.771,10.101c2.155,3.212,5.463,5.139,8.678,5.463
				c3.25,0.349,6.33-0.825,8.658-3.152l0,0c-2.328,2.327-3.502,5.404-3.156,8.657c0.327,3.212,2.251,6.503,5.463,8.678
				c3.215,2.173,7.024,2.656,10.104,1.769c3.152-0.942,5.56-3.153,6.81-6.251l0,0c-1.271,3.039-1.174,6.368,0.404,9.234
				c1.54,2.866,4.579,5.139,8.388,5.926c3.812,0.771,7.505-0.27,10.025-2.269c2.521-2.062,3.889-5.062,3.889-8.371
				c-0.021,3.309,1.347,6.31,3.885,8.371c2.504,1.999,6.195,3.039,10.008,2.269c3.809-0.787,6.869-3.06,8.405-5.926
				c1.578-2.866,1.657-6.195,0.387-9.234l0,0c1.25,3.098,3.657,5.309,6.811,6.251c3.098,0.888,6.909,0.404,10.121-1.769
				c3.216-2.175,5.118-5.466,5.446-8.678c0.346-3.253-0.809-6.351-3.156-8.657v-0.021l0,0l0,0c2.327,2.348,5.425,3.521,8.657,3.173
				c3.232-0.345,6.523-2.251,8.699-5.463c2.154-3.215,2.635-7.024,1.751-10.122c-0.926-3.135-3.156-5.539-6.233-6.81l0,0l0,0l0,0
				c3.039,1.271,6.368,1.191,9.217-0.387c2.866-1.537,5.155-4.597,5.926-8.388C1099.872,837.817,1098.833,834.105,1096.812,831.602z
				"/>
			<path fill="#EAE5D3" d="M942.093,827.717c3.312,0.017,6.313-1.348,8.392-3.889c2-2.5,3.021-6.195,2.252-10.005
				c-0.771-3.809-3.06-6.868-5.926-8.408c-2.85-1.578-6.199-1.654-9.217-0.384l0,0c3.076-1.271,5.308-3.657,6.232-6.813
				c0.885-3.077,0.404-6.89-1.771-10.122c-2.154-3.211-5.463-5.117-8.678-5.463c-3.25-0.345-6.33,0.829-8.657,3.174l0,0
				c2.348-2.327,3.501-5.425,3.156-8.678c-0.328-3.212-2.252-6.503-5.446-8.676c-3.232-2.175-7.041-2.638-10.121-1.75
				c-3.153,0.922-5.54,3.152-6.811,6.232l0,0c1.271-3.042,1.174-6.388-0.404-9.217c-1.52-2.865-4.579-5.155-8.388-5.926
				c-3.812-0.791-7.504,0.249-10.008,2.252c-2.538,2.059-3.905,5.059-3.885,8.367l0,0l0,0l0,0c0-3.309-1.368-6.309-3.906-8.367
				c-2.503-2.003-6.195-3.043-10.008-2.272c-3.809,0.791-6.868,3.06-8.388,5.946c-1.578,2.829-1.675,6.175-0.384,9.217l0,0l0,0l0,0
				c-1.271-3.08-3.678-5.311-6.83-6.254c-3.081-0.866-6.89-0.403-10.102,1.771c-3.215,2.173-5.139,5.464-5.466,8.676
				c-0.346,3.253,0.808,6.351,3.156,8.678l0,0l0,0l0,0c-2.311-2.345-5.426-3.519-8.658-3.174c-3.215,0.346-6.523,2.252-8.699,5.463
				c-2.154,3.216-2.635,7.024-1.75,10.122c0.942,3.136,3.174,5.543,6.232,6.813l0,0c-3.018-1.291-6.367-1.194-9.217,0.384
				c-2.866,1.54-5.155,4.6-5.926,8.388c-0.767,3.83,0.252,7.525,2.252,10.025c2.079,2.541,5.08,3.905,8.392,3.889l0,0l0,0l0,0
				c-3.312-0.021-6.312,1.347-8.392,3.885c-2,2.504-3.019,6.216-2.252,10.025c0.771,3.809,3.06,6.851,5.926,8.388
				c2.85,1.578,6.179,1.657,9.217,0.387l0,0l0,0l0,0c-3.076,1.271-5.29,3.675-6.232,6.831c-0.885,3.076-0.404,6.886,1.75,10.101
				c2.176,3.212,5.467,5.139,8.679,5.463c3.253,0.349,6.351-0.825,8.679-3.152v-0.021l0,0v0.021
				c-2.349,2.307-3.502,5.404-3.156,8.657c0.327,3.212,2.251,6.503,5.445,8.678c3.232,2.173,7.024,2.656,10.122,1.769
				c3.136-0.942,5.56-3.153,6.81-6.251l0,0c-1.271,3.039-1.174,6.368,0.387,9.234c1.537,2.866,4.597,5.139,8.389,5.926
				c3.829,0.771,7.521-0.27,10.024-2.269c2.538-2.062,3.906-5.062,3.886-8.371c0,3.309,1.367,6.31,3.888,8.371
				c2.521,1.999,6.213,3.039,10.025,2.269c3.809-0.787,6.868-3.06,8.388-5.926c1.578-2.866,1.675-6.195,0.404-9.234l0,0
				c1.25,3.098,3.657,5.309,6.811,6.251c3.08,0.888,6.889,0.404,10.104-1.769c3.212-2.175,5.136-5.466,5.464-8.678
				c0.345-3.253-0.829-6.33-3.156-8.657l0,0c2.327,2.327,5.407,3.501,8.657,3.152c3.215-0.324,6.523-2.251,8.678-5.463
				c2.176-3.215,2.656-7.024,1.771-10.101c-0.925-3.156-3.156-5.561-6.232-6.831l0,0c3.018,1.288,6.367,1.191,9.217-0.387
				c2.866-1.537,5.155-4.579,5.926-8.388c0.77-3.81-0.252-7.505-2.252-10.025C948.406,829.063,945.404,827.717,942.093,827.717z"/>
			<path fill="#FBFAF6" d="M927.989,827.717c0,24.953-20.239,45.197-45.196,45.197c-24.938,0-45.177-20.244-45.177-45.197
				c0-24.958,20.239-45.197,45.177-45.197C907.75,782.52,927.989,802.759,927.989,827.717z"/>
			<path fill="#3A002F" d="M955.485,843.107c0,0-13.393,8.081-16.179,23.034c4.676,4.348,16.179,26.418,16.179,26.418
				s11.506-22.07,16.182-26.418C968.877,851.188,955.485,843.107,955.485,843.107z"/>
			<g>
				<g>
					<path fill="#3A002F" d="M880.406,866.293c-0.922-1.212-1.751-2.424-2.441-3.674c-0.712-1.25-1.309-2.521-1.81-3.792
						c1.751,0.712,3.561,1.271,5.408,1.638c1.847,0.365,3.732,0.556,5.636,0.556c-0.943,0.983-1.982,1.927-3.115,2.811
						C882.948,864.715,881.715,865.544,880.406,866.293z"/>
				</g>
				<g>
					<path fill="#3A002F" d="M867.863,861.079c-0.387-1.481-0.673-2.925-0.85-4.348c-0.172-1.423-0.248-2.828-0.228-4.196
						c1.347,1.348,2.808,2.542,4.386,3.599c1.578,1.061,3.232,1.965,4.983,2.693c-1.25,0.539-2.56,1.002-3.965,1.385
						C870.806,860.578,869.362,860.886,867.863,861.079z"/>
				</g>
				<g>
					<path fill="#3A002F" d="M858.26,851.458c0.193-1.499,0.501-2.942,0.867-4.327c0.383-1.389,0.866-2.714,1.405-3.965
						c0.729,1.752,1.616,3.426,2.673,5.001c1.061,1.561,2.252,3.042,3.581,4.368c-1.351,0.038-2.752-0.037-4.179-0.211
						C861.168,852.131,859.725,851.862,858.26,851.458z"/>
				</g>
				<g>
					<path fill="#3A002F" d="M853.066,838.912c0.749-1.326,1.578-2.538,2.462-3.674c0.884-1.133,1.848-2.173,2.812-3.115
						c0,1.885,0.189,3.788,0.556,5.636s0.926,3.675,1.637,5.407c-1.271-0.5-2.542-1.098-3.792-1.788
						C855.49,840.646,854.258,839.838,853.066,838.912z"/>
				</g>
				<g>
					<path fill="#3A002F" d="M853.066,825.33c1.191-0.926,2.441-1.733,3.674-2.462c1.25-0.694,2.521-1.292,3.792-1.792
						c-0.711,1.75-1.271,3.56-1.637,5.407c-0.366,1.868-0.556,3.754-0.556,5.64c-0.964-0.943-1.928-1.982-2.812-3.119
						C854.662,827.868,853.836,826.639,853.066,825.33z"/>
				</g>
				<g>
					<path fill="#3A002F" d="M858.281,812.784c1.46-0.384,2.903-0.673,4.326-0.866c1.427-0.152,2.85-0.232,4.196-0.211
						c-1.326,1.347-2.538,2.807-3.578,4.368c-1.06,1.578-1.965,3.249-2.693,5.001c-0.539-1.251-1.022-2.576-1.385-3.961
						C858.761,815.727,858.475,814.286,858.281,812.784z"/>
				</g>
				<g>
					<path fill="#3A002F" d="M867.881,803.184c1.502,0.19,2.945,0.48,4.33,0.847c1.385,0.383,2.711,0.866,3.965,1.405
						c-1.751,0.729-3.426,1.633-4.986,2.673c-1.575,1.057-3.039,2.251-4.386,3.599c-0.018-1.368,0.038-2.77,0.21-4.196
						C867.208,806.088,867.477,804.627,867.881,803.184z"/>
				</g>
				<g>
					<path fill="#3A002F" d="M880.427,797.969c1.309,0.75,2.538,1.579,3.675,2.442c1.115,0.888,2.176,1.847,3.118,2.828
						c-1.906,0-3.792,0.193-5.64,0.56c-1.848,0.365-3.674,0.904-5.404,1.637c0.48-1.271,1.095-2.542,1.789-3.792
						C878.676,800.394,879.502,799.16,880.427,797.969z"/>
				</g>
				<g>
					<path fill="#3A002F" d="M894.013,797.969c0.922,1.213,1.751,2.425,2.441,3.675c0.711,1.25,1.309,2.521,1.81,3.81
						c-1.751-0.732-3.578-1.289-5.426-1.654c-1.848-0.366-3.732-0.56-5.618-0.56c0.942-0.981,1.982-1.924,3.115-2.828
						C891.471,799.548,892.683,798.719,894.013,797.969z"/>
				</g>
				<g>
					<path fill="#3A002F" d="M906.555,803.184c0.387,1.461,0.674,2.926,0.85,4.327c0.173,1.443,0.229,2.849,0.211,4.217
						c-1.347-1.347-2.812-2.562-4.369-3.599c-1.578-1.061-3.253-1.965-4.982-2.676c1.25-0.557,2.559-1.02,3.964-1.406
						C903.612,803.664,905.057,803.374,906.555,803.184z"/>
				</g>
				<g>
					<path fill="#3A002F" d="M916.138,812.805c-0.193,1.499-0.479,2.942-0.866,4.327c-0.363,1.385-0.847,2.714-1.385,3.965
						c-0.729-1.751-1.634-3.426-2.674-5.004c-1.06-1.558-2.271-3.039-3.598-4.365c1.364-0.021,2.77,0.038,4.192,0.21
						C913.233,812.131,914.677,812.4,916.138,812.805z"/>
				</g>
				<g>
					<path fill="#3A002F" d="M921.353,825.348c-0.749,1.309-1.578,2.541-2.462,3.678c-0.885,1.133-1.848,2.172-2.812,3.115
						c0-1.903-0.19-3.789-0.556-5.637c-0.366-1.848-0.926-3.678-1.637-5.407c1.271,0.501,2.541,1.077,3.791,1.788
						C918.928,823.617,920.161,824.426,921.353,825.348z"/>
				</g>
				<g>
					<path fill="#3A002F" d="M921.353,838.912c-1.212,0.942-2.425,1.751-3.675,2.466c-1.25,0.711-2.541,1.309-3.809,1.806
						c0.729-1.75,1.268-3.557,1.654-5.404c0.365-1.868,0.556-3.754,0.556-5.639c0.964,0.942,1.927,1.981,2.812,3.118
						C919.774,836.395,920.604,837.624,921.353,838.912z"/>
				</g>
				<g>
					<path fill="#3A002F" d="M916.138,851.479c-1.461,0.384-2.904,0.674-4.33,0.867c-1.44,0.172-2.846,0.228-4.214,0.211
						c1.348-1.348,2.56-2.812,3.599-4.39c1.061-1.558,1.965-3.232,2.677-4.983c0.556,1.254,1.039,2.58,1.402,3.965
						C915.658,848.533,915.944,849.977,916.138,851.479z"/>
				</g>
				<g>
					<path fill="#3A002F" d="M906.537,861.079c-1.502-0.193-2.945-0.48-4.33-0.867c-1.385-0.383-2.711-0.846-3.965-1.385
						c1.734-0.729,3.409-1.633,4.983-2.673c1.578-1.06,3.043-2.271,4.368-3.598c0.039,1.347-0.037,2.752-0.21,4.195
						C907.211,858.175,906.921,859.618,906.537,861.079z"/>
				</g>
				<g>
					<path fill="#3A002F" d="M893.991,866.293c-1.309-0.749-2.538-1.578-3.674-2.462s-2.176-1.827-3.118-2.811
						c1.885,0,3.771-0.19,5.639-0.556c1.848-0.367,3.654-0.926,5.404-1.638c-0.497,1.271-1.094,2.542-1.806,3.792
						C895.742,863.869,894.914,865.081,893.991,866.293z"/>
				</g>
			</g>
			<path fill="#3A002F" d="M863.146,832.123c0,13.295,10.777,24.087,24.053,24.087c13.277,0,24.052-10.792,24.052-24.087
				c0-13.278-10.774-24.073-24.052-24.073C873.924,808.05,863.146,818.845,863.146,832.123z"/>
			<path fill="#FBFAF6" d="M889.837,851.402c-4.734-1.001-7.814-5.542-6.872-10.062c0.964-4.583,5.602-7.486,10.315-6.506
				c4.772,1.001,7.85,5.521,6.89,10.101C899.227,849.459,894.606,852.384,889.837,851.402z"/>
			<path fill="#FBFAF6" d="M982.888,827.717c0,24.953,20.239,45.197,45.196,45.197c24.954,0,45.197-20.244,45.197-45.197
				c0-24.958-20.243-45.197-45.197-45.197C1003.127,782.52,982.888,802.759,982.888,827.717z"/>
			<path fill="#3A002F" d="M1047.73,832.123c0,13.295-10.757,24.087-24.035,24.087c-13.295,0-24.069-10.792-24.069-24.087
				c0-13.278,10.774-24.073,24.069-24.073C1036.974,808.05,1047.73,818.845,1047.73,832.123z"/>
			<g>
				<g>
					<path fill="#3A002F" d="M1016.864,866.293c-0.901-1.212-1.729-2.424-2.441-3.674c-0.711-1.25-1.309-2.521-1.788-3.792
						c1.729,0.712,3.539,1.271,5.404,1.638c1.848,0.365,3.754,0.556,5.618,0.556c-0.942,0.983-1.982,1.927-3.098,2.811
						C1019.424,864.715,1018.194,865.544,1016.864,866.293z"/>
				</g>
				<g>
					<path fill="#3A002F" d="M1004.34,861.079c-0.404-1.481-0.691-2.925-0.847-4.348c-0.173-1.423-0.249-2.828-0.21-4.196
						c1.325,1.348,2.79,2.542,4.368,3.599c1.558,1.061,3.232,1.965,4.983,2.693c-1.254,0.539-2.58,1.002-3.965,1.385
						C1007.285,860.578,1005.82,860.886,1004.34,861.079z"/>
				</g>
				<g>
					<path fill="#3A002F" d="M994.739,851.458c0.193-1.499,0.479-2.942,0.866-4.327c0.384-1.389,0.847-2.714,1.402-3.965
						c0.712,1.752,1.616,3.426,2.677,5.001c1.039,1.561,2.251,3.042,3.599,4.368c-1.386,0.038-2.791-0.037-4.214-0.211
						C997.644,852.131,996.2,851.862,994.739,851.458z"/>
				</g>
				<g>
					<path fill="#3A002F" d="M989.542,838.912c0.753-1.326,1.578-2.538,2.466-3.674c0.884-1.133,1.826-2.173,2.808-3.115
						c0,1.885,0.173,3.788,0.56,5.636c0.365,1.848,0.922,3.675,1.633,5.407c-1.268-0.5-2.538-1.098-3.788-1.788
						C991.97,840.646,990.736,839.838,989.542,838.912z"/>
				</g>
				<g>
					<path fill="#3A002F" d="M989.542,825.33c1.194-0.926,2.428-1.733,3.678-2.462c1.25-0.694,2.521-1.292,3.788-1.792
						c-0.711,1.75-1.268,3.56-1.633,5.407c-0.387,1.868-0.56,3.754-0.56,5.64c-0.981-0.943-1.924-1.982-2.808-3.119
						C991.12,827.868,990.295,826.639,989.542,825.33z"/>
				</g>
				<g>
					<path fill="#3A002F" d="M994.739,812.784c1.481-0.384,2.925-0.673,4.348-0.866c1.423-0.152,2.828-0.232,4.196-0.211
						c-1.348,1.347-2.542,2.807-3.599,4.368c-1.04,1.578-1.944,3.249-2.677,5.001c-0.539-1.251-1.019-2.576-1.402-3.961
						C995.24,815.727,994.949,814.286,994.739,812.784z"/>
				</g>
				<g>
					<path fill="#3A002F" d="M1004.34,803.184c1.502,0.19,2.945,0.48,4.348,0.847c1.367,0.383,2.714,0.866,3.947,1.405
						c-1.734,0.729-3.409,1.633-4.983,2.673c-1.578,1.057-3.043,2.251-4.368,3.599c-0.021-1.368,0.037-2.77,0.21-4.196
						C1003.666,806.088,1003.956,804.627,1004.34,803.184z"/>
				</g>
				<g>
					<path fill="#3A002F" d="M1016.906,797.969c1.305,0.75,2.518,1.579,3.653,2.442c1.136,0.888,2.176,1.847,3.118,2.828
						c-1.885,0-3.771,0.193-5.639,0.56c-1.848,0.365-3.654,0.904-5.404,1.637c0.497-1.271,1.094-2.542,1.806-3.792
						C1015.155,800.394,1015.98,799.16,1016.906,797.969z"/>
				</g>
				<g>
					<path fill="#3A002F" d="M1030.471,797.969c0.922,1.213,1.751,2.425,2.462,3.675c0.712,1.25,1.31,2.521,1.789,3.81
						c-1.729-0.732-3.561-1.289-5.408-1.654c-1.847-0.366-3.732-0.56-5.636-0.56c0.943-0.981,2-1.924,3.115-2.828
						C1027.929,799.548,1029.162,798.719,1030.471,797.969z"/>
				</g>
				<g>
					<path fill="#3A002F" d="M1043.014,803.184c0.403,1.461,0.693,2.926,0.866,4.327c0.173,1.443,0.231,2.849,0.211,4.217
						c-1.347-1.347-2.808-2.562-4.386-3.599c-1.578-1.061-3.232-1.965-4.983-2.676c1.25-0.557,2.58-1.02,3.965-1.406
						C1040.071,803.664,1041.531,803.374,1043.014,803.184z"/>
				</g>
				<g>
					<path fill="#3A002F" d="M1052.617,812.805c-0.193,1.499-0.483,2.942-0.867,4.327c-0.383,1.385-0.846,2.714-1.405,3.965
						c-0.712-1.751-1.616-3.426-2.655-5.004c-1.057-1.558-2.27-3.039-3.599-4.365c1.367-0.021,2.752,0.038,4.195,0.21
						C1049.692,812.131,1051.152,812.4,1052.617,812.805z"/>
				</g>
				<g>
					<path fill="#3A002F" d="M1057.811,825.348c-0.749,1.309-1.578,2.541-2.441,3.678c-0.888,1.133-1.848,2.172-2.828,3.115
						c0-1.903-0.176-3.789-0.56-5.637c-0.366-1.848-0.926-3.678-1.637-5.407c1.271,0.501,2.542,1.077,3.792,1.788
						C1055.387,823.617,1056.619,824.426,1057.811,825.348z"/>
				</g>
				<g>
					<path fill="#3A002F" d="M1057.811,838.912c-1.191,0.942-2.424,1.751-3.674,2.466c-1.25,0.711-2.521,1.309-3.792,1.806
						c0.711-1.75,1.271-3.557,1.637-5.404c0.384-1.868,0.56-3.754,0.56-5.639c0.98,0.942,1.94,1.981,2.828,3.118
						C1056.232,836.395,1057.062,837.624,1057.811,838.912z"/>
				</g>
				<g>
					<path fill="#3A002F" d="M1052.617,851.479c-1.481,0.384-2.925,0.674-4.348,0.867c-1.427,0.172-2.828,0.228-4.196,0.211
						c1.347-1.348,2.538-2.812,3.599-4.39c1.057-1.558,1.944-3.232,2.673-4.983c0.56,1.254,1.022,2.58,1.405,3.965
						C1052.116,848.533,1052.406,849.977,1052.617,851.479z"/>
				</g>
				<g>
					<path fill="#3A002F" d="M1043.014,861.079c-1.499-0.193-2.942-0.48-4.327-0.867c-1.385-0.383-2.715-0.846-3.965-1.385
						c1.73-0.729,3.405-1.633,4.983-2.673c1.578-1.06,3.039-2.271,4.368-3.598c0.018,1.347-0.038,2.752-0.21,4.195
						C1043.687,858.175,1043.4,859.618,1043.014,861.079z"/>
				</g>
				<g>
					<path fill="#3A002F" d="M1030.45,866.293c-1.309-0.749-2.521-1.578-3.657-2.462c-1.133-0.884-2.172-1.827-3.136-2.811
						c1.906,0,3.792-0.19,5.64-0.556c1.864-0.367,3.674-0.926,5.425-1.638c-0.501,1.271-1.098,2.542-1.81,3.792
						C1032.201,863.869,1031.393,865.081,1030.45,866.293z"/>
				</g>
			</g>
			<path fill="#FBFAF6" d="M1018.636,851.402c-4.734-1.001-7.812-5.542-6.868-10.062c0.942-4.583,5.598-7.486,10.312-6.506
				c4.772,1.001,7.853,5.521,6.89,10.101C1028.025,849.459,1023.408,852.384,1018.636,851.402z"/>
			<path fill="#FBFAF6" d="M1032.453,852.363c1.133,0.307,2.289-0.346,2.576-1.406c0.29-1.095-0.404-2.21-1.52-2.521
				c-1.137-0.308-2.29,0.349-2.58,1.426C1030.644,850.939,1031.334,852.056,1032.453,852.363z"/>
			<path fill="#FBFAF6" d="M879.867,852.363c-1.115,0.307-2.269-0.346-2.559-1.406c-0.287-1.095,0.387-2.21,1.52-2.521
				c1.136-0.308,2.289,0.349,2.58,1.426C881.677,850.939,881.004,852.056,879.867,852.363z"/>
			<path fill="#FBFAF6" d="M875.692,848.554c-1.73,0.463-3.519-0.538-3.964-2.214c-0.442-1.675,0.597-3.404,2.348-3.867
				c1.751-0.48,3.54,0.521,3.965,2.192C878.504,846.34,877.443,848.091,875.692,848.554z"/>
			<path fill="#FBFAF6" d="M1038.206,848.554c-1.754,0.463-3.522-0.538-3.964-2.214c-0.442-1.675,0.594-3.404,2.345-3.867
				c1.754-0.48,3.522,0.521,3.964,2.192C1040.993,846.34,1039.957,848.091,1038.206,848.554z"/>
			<g opacity="0.25">
				<path fill="#1D1D1B" d="M955.485,843.107L955.485,843.107v49.452l0,0c0,0,11.506-22.07,16.182-26.418
					C968.877,851.188,955.485,843.107,955.485,843.107z"/>
			</g>
			<g>
				<path fill="#FBFAF6" d="M960.721,950.109c-0.114-0.636-0.674-1.115-1.31-1.115l0,0c-0.652,0-1.191,0.479-1.309,1.115
					c-0.308,1.848-1.405,3.212-2.617,3.212c-1.191,0-2.308-1.364-2.614-3.212c-0.117-0.636-0.674-1.115-1.309-1.115h-0.021
					c-0.635,0.018-1.191,0.479-1.288,1.115l-0.059,0.308c-0.075,0.366-0.135,0.711-0.135,1.098c0,3.751,2.425,6.81,5.426,6.81
					c3.004,0,5.429-3.059,5.429-6.81c0-0.445-0.08-0.808-0.135-1.118L960.721,950.109z"/>
				<path fill="#FBFAF6" d="M921.777,950.089c-0.135-0.636-0.674-1.095-1.309-1.095c0,0,0,0-0.021,0
					c-0.635,0.018-1.174,0.479-1.288,1.115c-0.307,1.848-1.405,3.212-2.617,3.212c-1.191,0-2.307-1.364-2.618-3.212
					c-0.113-0.656-0.749-1.195-1.326-1.115c-0.635,0.018-1.194,0.497-1.287,1.133l-0.06,0.311c-0.075,0.346-0.134,0.69-0.134,1.077
					c0,3.751,2.444,6.81,5.425,6.81c3.001,0,5.425-3.059,5.425-6.81c0-0.445-0.076-0.829-0.151-1.157L921.777,950.089z"/>
				<path fill="#FBFAF6" d="M994.432,958.324c3.001,0,5.426-3.059,5.426-6.81c0-0.445-0.076-0.829-0.156-1.136l-0.055-0.29
					c-0.117-0.636-0.732-1.095-1.309-1.095c-0.636,0.018-1.175,0.479-1.292,1.115c-0.308,1.848-1.402,3.212-2.614,3.212
					c-1.194,0-2.311-1.364-2.639-3.212c-0.093-0.656-0.576-1.195-1.305-1.115c-0.656,0.018-1.195,0.497-1.292,1.133l-0.059,0.311
					c-0.076,0.346-0.135,0.69-0.135,1.077C989.003,955.266,991.448,958.324,994.432,958.324z"/>
				<path fill="#FBFAF6" d="M960.699,995.576c-0.093-0.636-0.652-1.099-1.288-1.099c0,0,0,0-0.017,0
					c-0.636,0-1.175,0.463-1.292,1.099c-0.308,1.864-1.405,3.211-2.617,3.211c-1.191,0-2.308-1.347-2.614-3.211
					c-0.117-0.636-0.771-1.078-1.33-1.099c-0.635,0-1.191,0.483-1.288,1.116l-0.059,0.311c-0.075,0.345-0.135,0.69-0.135,1.095
					c0,3.753,2.425,6.813,5.426,6.813c3.004,0,5.429-3.061,5.429-6.813c0-0.442-0.08-0.825-0.156-1.137L960.699,995.576z"/>
				<path fill="#FBFAF6" d="M921.777,995.576c-0.117-0.636-0.674-1.099-1.309-1.099c0,0,0,0-0.021,0
					c-0.635,0-1.174,0.463-1.288,1.099c-0.307,1.864-1.405,3.211-2.617,3.211c-1.191,0-2.307-1.347-2.618-3.211
					c-0.113-0.636-0.749-1.174-1.326-1.099c-0.635,0-1.194,0.483-1.287,1.116l-0.06,0.327c-0.075,0.328-0.134,0.694-0.134,1.078
					c0,3.753,2.444,6.813,5.425,6.813c3.001,0,5.425-3.061,5.425-6.813c0-0.46-0.076-0.847-0.151-1.153L921.777,995.576z"/>
				<path fill="#FBFAF6" d="M999.646,995.576c-0.117-0.636-0.732-1.02-1.309-1.099c-0.636,0-1.175,0.463-1.292,1.099
					c-0.308,1.864-1.402,3.211-2.614,3.211c-1.194,0-2.311-1.347-2.639-3.211c-0.093-0.636-0.576-1.174-1.305-1.099
					c-0.656,0-1.195,0.483-1.292,1.116l-0.059,0.327c-0.076,0.328-0.135,0.694-0.135,1.078c0,3.753,2.445,6.813,5.429,6.813
					c3.001,0,5.426-3.061,5.426-6.813c0-0.46-0.076-0.847-0.156-1.153L999.646,995.576z"/>
				<path fill="#FBFAF6" d="M976.229,927.23c-0.118-0.635-0.598-1.077-1.31-1.098c-0.635,0-1.174,0.463-1.287,1.119
					c-0.312,1.844-1.406,3.19-2.618,3.19c-1.194,0-2.311-1.347-2.635-3.212c-0.097-0.635-0.656-1.174-1.309-1.098
					c-0.636,0-1.195,0.483-1.292,1.119l-0.055,0.324c-0.08,0.349-0.135,0.694-0.135,1.061c0,3.771,2.441,6.83,5.425,6.83
					c3.001,0,5.425-3.06,5.425-6.83c0-0.442-0.075-0.829-0.135-1.115L976.229,927.23z"/>
				<path fill="#FBFAF6" d="M945.174,927.23c-0.097-0.635-0.653-1.098-1.288-1.098c0,0,0,0-0.021,0
					c-0.635,0-1.191,0.463-1.288,1.098c-0.307,1.865-1.405,3.212-2.617,3.212s-2.311-1.347-2.635-3.212
					c-0.097-0.635-0.656-1.098-1.292-1.098l0,0c-0.652,0-1.191,0.463-1.309,1.119l-0.056,0.286
					c-0.079,0.346-0.135,0.712-0.135,1.099c0,3.771,2.442,6.83,5.426,6.83s5.425-3.06,5.425-6.83c0-0.425-0.075-0.809-0.151-1.115
					L945.174,927.23z"/>
				<path fill="#FBFAF6" d="M976.229,972.407c-0.097-0.614-0.656-1.077-1.288-1.077l0,0c-0.656,0-1.195,0.463-1.309,1.098
					c-0.312,1.869-1.406,3.216-2.618,3.216c-1.194,0-2.311-1.368-2.635-3.236c-0.097-0.614-0.656-1.077-1.309-1.077
					c-0.636,0-1.195,0.483-1.292,1.119l-0.055,0.307c-0.08,0.346-0.135,0.712-0.135,1.078c0,3.771,2.441,6.81,5.425,6.81
					c3.001,0,5.425-3.039,5.425-6.81c0-0.425-0.075-0.829-0.135-1.137L976.229,972.407z"/>
				<path fill="#FBFAF6" d="M914.328,973.834c0-0.442-0.076-0.809-0.151-1.137l-0.06-0.29c-0.113-0.614-0.652-1.077-1.309-1.077
					c-0.673,0.021-1.191,0.463-1.288,1.098c-0.328,1.869-1.405,3.216-2.617,3.216s-2.307-1.347-2.635-3.236
					c-0.097-0.614-0.656-1.077-1.288-1.077h-0.021c-0.635,0-1.194,0.463-1.288,1.119l-0.059,0.307
					c-0.075,0.346-0.135,0.691-0.135,1.078c0,3.771,2.425,6.81,5.426,6.81C911.887,980.644,914.328,977.604,914.328,973.834z"/>
				<path fill="#FBFAF6" d="M945.174,972.407c-0.097-0.614-0.653-1.077-1.288-1.077l0,0c-0.656,0-1.213,0.463-1.31,1.098
					c-0.307,1.869-1.405,3.216-2.617,3.216s-2.311-1.347-2.635-3.236c-0.097-0.614-0.656-1.057-1.309-1.077
					c-0.636,0-1.195,0.463-1.292,1.119l-0.056,0.307c-0.079,0.346-0.135,0.691-0.135,1.078c0,3.771,2.425,6.81,5.426,6.81
					c2.983,0,5.425-3.039,5.425-6.81c0-0.425-0.075-0.809-0.135-1.115L945.174,972.407z"/>
				<path fill="#FBFAF6" d="M1007.361,972.719l-0.059-0.312c-0.114-0.614-0.653-1.077-1.31-1.077l0,0
					c-0.635,0-1.191,0.463-1.309,1.098c-0.308,1.869-1.401,3.216-2.614,3.216c-1.194,0-2.311-1.347-2.617-3.236
					c-0.114-0.614-0.652-1.077-1.309-1.077l0,0c-0.636,0-1.191,0.463-1.31,1.098l-0.038,0.308c-0.075,0.349-0.155,0.712-0.155,1.099
					c0,3.771,2.445,6.81,5.429,6.81c3.001,0,5.426-3.039,5.426-6.81C1007.496,973.409,1007.42,973.025,1007.361,972.719z"/>
			</g>
		</g>
		<g>
			<path fill="#3A002F" d="M849.257,976.296c-17.146,28.804-12.739,57.532-12.739,57.532s-67.016-38.408-44.813-111.349
				c12.854-42.158,55.453-37.735,69.077-15.433C870.229,922.479,869.787,941.776,849.257,976.296z"/>
		</g>
		<g>
			<path fill="#3A002F" d="M1132.178,887.228c32.651,7.622,58.707-5.253,58.707-5.253s-16.376,75.504-92.607,76.35
				c-44.064,0.501-52.723-41.464-35.598-61.186C1074.553,883.478,1093.08,878.069,1132.178,887.228z"/>
		</g>
		<path opacity="0.15" fill="#1D1D1B" d="M1132.178,887.228c-17.47-4.099-30.824-5.253-41.312-4.099
			c2.079-2.652,3.004-5.847,2.676-8.734c-0.345-3.156-2.058-5.888-4.751-7.697c0,0,0.017-0.018,0.017-0.037
			c2.735,1.729,5.947,2.23,8.948,1.287c3.08-0.942,5.946-3.367,7.466-6.868c1.54-3.464,1.405-7.214,0.021-10.122
			c-1.389-2.925-3.985-5-7.196-5.791c3.211,0.809,6.481,0.231,9.099-1.672c2.598-1.906,4.482-5.139,4.811-8.93
			c0.308-3.788-1.039-7.273-3.291-9.562c-2.251-2.327-5.387-3.443-8.695-3.156c0,0,0,0-0.021,0l0,0c0.021,0,0.021,0,0.021,0
			c3.309-0.248,6.195-1.865,8.063-4.521c1.845-2.635,2.576-6.312,1.654-10.004c-0.925-3.695-3.35-6.562-6.216-8.005
			c-2.887-1.465-6.216-1.481-9.234-0.135h-0.021l0,0h0.021c3.019-1.33,5.253-3.809,6.137-6.928c0.867-3.08,0.383-6.793-1.692-9.966
			c-2.1-3.194-5.294-5.118-8.488-5.543c-3.19-0.442-6.347,0.598-8.771,2.849c-0.021,0-0.021,0.018-0.021,0.018l0,0
			c0,0,0-0.018,0.021-0.018c2.441-2.234,3.733-5.272,3.561-8.505c-0.155-3.216-1.81-6.562-4.811-8.91
			c-0.231-0.173-0.501-0.286-0.731-0.441c5.311-1.906,9.638-3.771,12.314-5.232c4.676-2.79,16.316-9.41,15.201-21.821
			c-0.135-1.481-0.328-2.983-0.926-4.289l-0.441-0.942c-0.27-0.521-0.328-0.56-0.501-0.867c-0.425-0.636-0.922-1.25-1.385-1.692
			c-3.965-4.022-10.833-3.194-12.988,2.27c-1.001,2.579-0.538,5.618,1.077,7.617c1.638,2.041,4.445,2.387,6.293,1.061l-0.211-0.441
			c-1.83,0.922-4.062,0.113-5.042-1.562c-1.001-1.692-0.964-3.961-0.097-5.539c0.383-0.808,1.057-1.481,1.713-1.868
			c0.77-0.442,1.578-0.674,2.424-0.711c1.654-0.076,3.271,0.749,4.289,2.058c0.27,0.366,0.445,0.656,0.618,0.98
			c0.076,0.214,0.308,0.656,0.27,0.674l0.211,0.618c0.21,0.867,0.27,1.691,0.231,2.521c-0.155,1.634-0.791,3.232-1.558,5.001
			c-1.523,3.463-6.523,5.926-10.526,6.582c-23.071,2.808-32.036-9.331-68.748-16.721c-26.456-5.312-49.279,4.906-64.65,17.355
			c-0.521-0.021-1.001-0.059-1.522-0.079c-0.363,0.021-0.712,0.042-1.057,0.059v308.341c0.366-0.021,0.711-0.021,1.057-0.059
			c2.348,0.173,4.638,0.27,6.91,0.35c-0.442,1.709-0.694,3.598-0.694,5.635c0,7.391,3.194,13.199,7.272,13.199
			c2.234,0,4.158-1.751,5.484-4.482c1.021,6.022,3.619,10.102,6.813,10.102s5.753-4.079,6.789-10.102
			c1.329,2.731,3.253,4.482,5.483,4.482c4.082,0,7.294-5.809,7.294-13.199c0-3.615-0.787-6.848-2.059-9.217
			c45.218-11.274,71.422-47.776,78.101-97.397c5.905,2.538,13.005,4.003,21.397,3.905c76.231-0.846,92.607-76.35,92.607-76.35
			S1164.829,894.85,1132.178,887.228z M987.215,1054.455c-0.039-0.117-0.056-0.214-0.098-0.328c0.059,0,0.135-0.021,0.215-0.021
			C987.294,1054.224,987.252,1054.338,987.215,1054.455z M1075.264,887.4c-0.059-0.48-0.135-0.98-0.214-1.461
			c0.445,0.308,0.888,0.652,1.367,0.904C1076.034,887.017,1075.647,887.228,1075.264,887.4z"/>
		<path fill="#EA3D4E" d="M1186.13,824.732c-12.294-3.964-22.724,10.774-27.686,16.086c-4.945-5.312-15.396-20.05-27.672-16.086
			c-17.912,5.598-18.258,32.479-5.155,48.295c5.618,6.89,19.895,17.954,32.827,28.072c12.929-10.118,27.226-21.183,32.845-28.072
			C1204.37,857.211,1204.046,830.33,1186.13,824.732z"/>
		<path fill="#EA3D4E" d="M1135.873,686.793c-7.984,1.115-10.408,11.275-11.737,15.623c-4.234-1.634-13.544-6.078-19.356-0.48
			c-8.522,8.022-1.385,23.207,10.312,28.514c5.024,2.332,16.086,4.639,26.111,6.793c4.485-9.217,9.486-19.335,10.757-24.726
			C1154.998,700.029,1147.456,685.042,1135.873,686.793z"/>
		<path fill="#EA3D4E" d="M1183.188,733.645c10.177,1.443,13.257,14.372,14.949,19.915c5.388-2.079,17.26-7.753,24.688-0.614
			c10.871,10.235,1.751,29.591-13.143,36.363c-6.427,2.963-20.51,5.908-33.287,8.66c-5.732-11.758-12.104-24.649-13.72-31.535
			C1158.807,750.538,1168.41,731.413,1183.188,733.645z"/>
	</g>
</g>
</svg>
