<?xml version="1.0" encoding="utf-8"?>
<!-- Generator: Adobe Illustrator 16.0.0, SVG Export Plug-In . SVG Version: 6.00 Build 0)  -->
<!DOCTYPE svg PUBLIC "-//W3C//DTD SVG 1.1//EN" "http://www.w3.org/Graphics/SVG/1.1/DTD/svg11.dtd">
<svg version="1.1" id="Layer_1" xmlns="http://www.w3.org/2000/svg" xmlns:xlink="http://www.w3.org/1999/xlink" x="0px" y="0px"
   width="446.39868"
   height="364.08664"
   viewBox="0 0 446.39868 364.08664"
   xml:space="preserve">
<g transform="translate(-785.446,-702.46036)">
	<g>
		<g>
			<path fill="#FF6B80" d="M1081.423,875.784c-13.7-98.551-41.233-148.041-123.623-150.444l0,0l0,0l0,0l0,0
				c-82.393,2.403-109.926,51.894-123.604,150.444c-13.662,98.209,28.244,172.421,123.604,165.359
				C1053.157,1048.205,1095.066,973.993,1081.423,875.784z"/>
			<path fill="#3A002F" d="M971.635,1060.811c-4.196,0-7.467-5.968-7.467-13.548c0-7.562,3.271-13.506,7.467-13.506
				c4.175,0,7.445,5.943,7.445,13.506C979.08,1054.843,975.81,1060.811,971.635,1060.811z"/>
			<path fill="#3A002F" d="M996.781,1060.811c-4.195,0-7.483-5.968-7.483-13.548c0-7.562,3.288-13.506,7.483-13.506
				c4.196,0,7.466,5.943,7.466,13.506C1004.247,1054.843,1000.978,1060.811,996.781,1060.811z"/>
			<path fill="#3A002F" d="M984.218,1066.543c-4.254,0-7.486-7.042-7.486-16.394s3.232-16.393,7.486-16.393
				c4.234,0,7.425,7.041,7.425,16.393S988.452,1066.543,984.218,1066.543z"/>
			<path fill="#3A002F" d="M918.815,1060.811c-4.175,0-7.466-5.968-7.466-13.548c0-7.562,3.291-13.506,7.466-13.506
				s7.449,5.943,7.449,13.506C926.265,1054.843,922.99,1060.811,918.815,1060.811z"/>
			<path fill="#3A002F" d="M943.966,1060.811c-4.179,0-7.466-5.968-7.466-13.548c0-7.562,3.287-13.506,7.466-13.506
				c4.176,0,7.463,5.943,7.463,13.506C951.429,1054.843,948.142,1060.811,943.966,1060.811z"/>
			<path fill="#3A002F" d="M931.382,1066.543c-4.254,0-7.466-7.042-7.466-16.394s3.212-16.393,7.466-16.393
				c4.251,0,7.463,7.041,7.463,16.393S935.633,1066.543,931.382,1066.543z"/>
			<g>
				<path fill="#FF6B80" d="M883.354,881.096c-40.135,0-72.789-32.651-72.789-72.79c0-40.155,32.654-72.789,72.789-72.789
					c40.138,0,72.793,32.634,72.793,72.789C956.146,848.444,923.491,881.096,883.354,881.096z"/>
				<g>
					<g>
						<path fill="#FF6B80" d="M859.726,877.169c1.115-3.232,3.329-5.694,5.791-7.29c2.466-1.599,5.159-2.327,7.87-1.906
							c5.253,0.926,9.794,6.312,9.967,13.123c0.021,3.388-1.385,6.502-3.944,8.602c-2.521,2.117-6.195,3.194-10.042,2.538
							c-3.851-0.635-6.986-2.845-8.699-5.656C858.938,883.751,858.61,880.363,859.726,877.169z"/>
					</g>
					<g>
						<path fill="#FF6B80" d="M838.678,865.721c4.327-5.231,11.216-6.713,15.913-4.213c2.424,1.309,4.096,3.578,5.059,6.351
							c0.943,2.77,1.175,6.078,0.076,9.311c-1.095,3.194-3.422,5.677-6.523,6.831c-3.077,1.174-6.924,0.983-10.35-0.885
							c-3.426-1.864-5.656-4.962-6.368-8.177C835.77,871.688,836.578,868.397,838.678,865.721z"/>
					</g>
					<g>
						<path fill="#FF6B80" d="M822.437,848.099c5.791-3.561,12.795-2.752,16.431,1.153c3.599,3.965,3.851,10.985-0.189,16.469
							c-2.079,2.677-5.101,4.272-8.409,4.369c-3.291,0.113-6.852-1.31-9.486-4.196c-2.635-2.846-3.75-6.502-3.367-9.772
							C817.781,852.812,819.591,849.942,822.437,848.099z"/>
					</g>
					<g>
						<path fill="#FF6B80" d="M812.798,826.181c3.291-0.847,6.562-0.325,9.255,0.846c2.694,1.195,4.79,3.043,5.905,5.543
							c2.117,4.907,0.06,11.641-5.521,15.529c-2.828,1.865-6.175,2.403-9.352,1.423c-3.136-0.964-6.078-3.446-7.618-7.024
							c-1.599-3.577-1.464-7.428-0.038-10.391C806.831,829.105,809.507,826.988,812.798,826.181z"/>
					</g>
					<g>
						<path fill="#FF6B80" d="M810.816,802.283c6.771,0.771,11.793,5.694,12.256,11.026c0.23,2.749-0.75,5.367-2.539,7.715
							c-1.792,2.311-4.444,4.31-7.735,5.156c-3.291,0.846-6.641,0.231-9.313-1.73c-2.655-1.924-4.6-5.235-4.907-9.141
							c-0.345-3.868,1.061-7.445,3.35-9.794C804.255,803.15,807.449,802.014,810.816,802.283z"/>
					</g>
					<g>
						<path fill="#FF6B80" d="M816.704,779.08c3.114,1.364,5.387,3.789,6.771,6.348c1.406,2.617,1.906,5.37,1.233,8.025
							c-0.674,2.673-2.445,4.828-4.891,6.465c-2.441,1.596-5.598,2.635-9.002,2.365c-3.367-0.248-6.33-1.906-8.236-4.617
							c-1.903-2.693-2.656-6.465-1.692-10.256c0.942-3.792,3.405-6.714,6.368-8.195C810.201,777.733,813.606,777.692,816.704,779.08
							z"/>
					</g>
					<g>
						<path fill="#FF6B80" d="M829.844,759.03c4.869,4.752,5.774,11.738,2.887,16.221c-2.963,4.444-9.717,6.368-16.026,3.829
							c-3.098-1.367-5.37-3.888-6.274-7.082c-0.901-3.156-0.422-6.966,1.733-10.236c2.134-3.253,5.407-5.235,8.678-5.656
							C824.111,755.643,827.344,756.72,829.844,759.03z"/>
					</g>
					<g>
						<path fill="#FF6B80" d="M848.72,744.292c1.637,3.001,1.944,6.309,1.464,9.196c-0.5,2.887-1.771,5.387-3.947,7.079
							c-4.229,3.273-11.274,2.925-16.393-1.537c-2.5-2.289-3.826-5.429-3.653-8.736c0.151-3.271,1.848-6.696,4.925-9.1
							c3.059-2.407,6.81-3.216,10.045-2.58C844.41,739.25,847.124,741.308,848.72,744.292z"/>
					</g>
					<g>
						<path fill="#FF6B80" d="M871.388,736.519c0.538,3.328-0.231,6.561-1.616,9.137c-1.427,2.601-3.446,4.524-6.043,5.429
							c-2.598,0.901-5.388,0.595-8.081-0.56c-2.694-1.174-5.291-3.253-6.928-6.232c-1.616-2.963-1.864-6.351-0.636-9.428
							c1.213-3.081,3.965-5.774,7.639-7.045c3.695-1.268,7.505-0.809,10.354,0.846C868.942,730.323,870.828,733.151,871.388,736.519
							z"/>
					</g>
					<g>
						<path fill="#FF6B80" d="M895.344,736.519c-0.56,3.328-2.349,6.136-4.504,8.118c-2.176,2.003-4.714,3.174-7.486,3.174
							c-2.749,0-5.308-1.171-7.463-3.174c-2.155-1.982-3.947-4.79-4.503-8.118c-0.577-3.351,0.308-6.658,2.482-9.142
							c2.155-2.5,5.599-4.154,9.504-4.154c3.868,0,7.331,1.654,9.486,4.154C895.036,729.86,895.92,733.168,895.344,736.519z"/>
					</g>
					<g>
						<path fill="#FF6B80" d="M917.99,744.292c-1.637,3.001-4.217,5.059-6.91,6.232c-2.693,1.154-5.484,1.461-8.081,0.56
							c-2.597-0.904-4.638-2.828-6.04-5.429c-1.385-2.576-2.154-5.809-1.615-9.137c0.538-3.367,2.424-6.195,5.308-7.854
							c2.831-1.654,6.657-2.113,10.353-0.846c3.675,1.291,6.409,3.964,7.639,7.045C919.876,737.941,919.624,741.329,917.99,744.292z
							"/>
					</g>
					<g>
						<path fill="#FF6B80" d="M936.883,759.03c-5.117,4.462-12.18,4.811-16.393,1.558c-2.176-1.692-3.443-4.213-3.943-7.1
							c-0.483-2.888-0.155-6.195,1.443-9.196c1.616-2.963,4.327-5.042,7.58-5.657c3.232-0.656,6.965,0.173,10.042,2.56
							c3.081,2.403,4.772,5.829,4.928,9.12C940.733,753.602,939.404,756.741,936.883,759.03z"/>
					</g>
					<g>
						<path fill="#FF6B80" d="M950.026,779.08c-6.312,2.56-13.067,0.615-16.03-3.829c-2.883-4.482-1.982-11.448,2.887-16.221
							c2.501-2.311,5.716-3.388,9.007-2.925c3.25,0.421,6.541,2.403,8.679,5.656c2.154,3.271,2.635,7.08,1.729,10.236
							C955.414,775.192,953.124,777.733,950.026,779.08z"/>
					</g>
					<g>
						<path fill="#FF6B80" d="M955.915,802.283c-3.409,0.27-6.544-0.77-9.007-2.365c-2.445-1.637-4.233-3.792-4.887-6.465
							c-0.673-2.655-0.172-5.408,1.229-8.005c1.389-2.579,3.657-4.983,6.775-6.368c3.098-1.388,6.503-1.347,9.445,0.135
							c2.963,1.481,5.429,4.424,6.371,8.216c0.96,3.771,0.211,7.542-1.695,10.235C962.244,800.377,959.281,802.035,955.915,802.283z
							"/>
					</g>
					<g>
						<path fill="#FF6B80" d="M953.933,826.181c-3.291-0.847-5.946-2.846-7.735-5.156c-1.789-2.348-2.77-4.966-2.56-7.715
							c0.48-5.332,5.502-10.256,12.277-11.026c3.366-0.27,6.561,0.867,8.868,3.232c2.31,2.349,3.694,5.926,3.366,9.814
							c-0.307,3.885-2.251,7.196-4.907,9.12C960.549,826.412,957.224,827.026,953.933,826.181z"/>
					</g>
					<g>
						<path fill="#FF6B80" d="M944.291,848.099c-5.598-3.889-7.639-10.622-5.522-15.509c1.116-2.521,3.216-4.368,5.909-5.563
							c2.673-1.171,5.943-1.671,9.255-0.846c3.291,0.808,5.943,2.925,7.369,5.926c1.402,2.963,1.558,6.813-0.038,10.391
							c-1.561,3.578-4.485,6.061-7.621,7.024C950.469,850.502,947.119,849.964,944.291,848.099z"/>
					</g>
					<g>
						<path fill="#FF6B80" d="M928.053,865.742c-4.04-5.505-3.791-12.525-0.214-16.49c3.637-3.905,10.644-4.714,16.452-1.153
							c2.828,1.865,4.658,4.714,5.024,8.022c0.362,3.271-0.732,6.927-3.388,9.793c-2.635,2.866-6.178,4.289-9.486,4.176
							C933.133,869.993,930.111,868.397,928.053,865.742z"/>
					</g>
					<g>
						<path fill="#FF6B80" d="M906.984,877.169c-1.077-3.232-0.85-6.541,0.076-9.311c0.98-2.772,2.655-5.042,5.059-6.351
							c4.697-2.5,11.583-1.019,15.934,4.234c2.076,2.655,2.884,5.964,2.173,9.196c-0.69,3.215-2.942,6.312-6.368,8.198
							c-3.426,1.847-7.256,2.037-10.332,0.863C910.406,882.846,908.079,880.363,906.984,877.169z"/>
					</g>
					<g>
						<path fill="#FF6B80" d="M883.354,881.096c0.193-6.811,4.734-12.197,9.97-13.123c2.711-0.421,5.404,0.308,7.888,1.906
							c2.444,1.596,4.654,4.058,5.773,7.29c1.115,3.194,0.809,6.582-0.926,9.41c-1.713,2.812-4.848,5.021-8.695,5.656
							c-3.851,0.656-7.542-0.421-10.062-2.538C884.741,887.598,883.354,884.483,883.354,881.096z"/>
					</g>
				</g>
			</g>
			<g>
				<path fill="#FF6B80" d="M1033.263,881.096c40.138,0,72.771-32.651,72.771-72.79c0-40.155-32.634-72.789-72.771-72.789
					c-40.139,0-72.79,32.634-72.79,72.789C960.473,848.444,993.124,881.096,1033.263,881.096z"/>
				<g>
					<g>
						<path fill="#FF6B80" d="M1056.891,877.169c1.118,3.194,0.79,6.582-0.923,9.41c-1.733,2.79-4.869,5.021-8.716,5.656
							c-3.848,0.656-7.525-0.441-10.046-2.538c-2.559-2.1-3.961-5.214-3.943-8.602c0.021-3.405,1.309-6.465,3.098-8.775
							c1.83-2.307,4.137-3.885,6.868-4.348c2.715-0.442,5.408,0.308,7.87,1.886C1053.561,871.475,1055.774,873.937,1056.891,877.169
							z"/>
					</g>
					<g>
						<path fill="#FF6B80" d="M1077.941,865.742c2.117,2.655,2.904,5.964,2.193,9.196c-0.694,3.215-2.942,6.312-6.368,8.177
							c-3.426,1.868-7.256,2.059-10.333,0.885c-3.118-1.171-5.445-3.637-6.543-6.831c-1.096-3.232-0.864-6.541,0.079-9.311
							c0.96-2.772,2.635-5.042,5.059-6.351c2.407-1.309,5.215-1.502,8.081-0.787
							C1072.958,861.432,1075.846,863.048,1077.941,865.742z"/>
					</g>
					<g>
						<path fill="#FF6B80" d="M1094.18,848.099c2.849,1.865,4.676,4.714,5.024,8.002c0.383,3.273-0.732,6.947-3.367,9.793
							c-2.639,2.887-6.195,4.31-9.486,4.196c-3.312-0.097-6.33-1.692-8.409-4.348c-2.079-2.694-2.925-5.909-2.945-8.852
							c0.021-2.925,0.888-5.618,2.752-7.639c1.868-2.02,4.444-3.098,7.391-3.367C1088.063,845.653,1091.334,846.251,1094.18,848.099
							z"/>
					</g>
					<g>
						<path fill="#FF6B80" d="M1103.82,826.181c3.292,0.808,5.965,2.925,7.37,5.926c1.423,2.963,1.558,6.813-0.021,10.374
							c-1.578,3.595-4.5,6.061-7.639,7.021c-3.153,1.001-6.521,0.463-9.352-1.402c-2.829-1.868-4.673-4.638-5.637-7.411
							c-0.942-2.77-0.98-5.577,0.114-8.118c1.119-2.5,3.215-4.348,5.909-5.543C1097.238,825.855,1100.529,825.334,1103.82,826.181z"
							/>
					</g>
					<g>
						<path fill="#FF6B80" d="M1105.803,802.283c3.367-0.27,6.579,0.867,8.889,3.232c2.29,2.349,3.695,5.926,3.367,9.794
							c-0.328,3.905-2.251,7.217-4.924,9.141c-2.677,1.962-6.022,2.559-9.314,1.73c-3.291-0.863-5.946-2.846-7.734-5.177
							c-1.811-2.327-2.771-4.963-2.539-7.715c0.229-2.731,1.596-5.193,3.771-7.196
							C1099.473,804.131,1102.415,802.573,1105.803,802.283z"/>
					</g>
					<g>
						<path fill="#FF6B80" d="M1099.915,779.08c3.098-1.388,6.503-1.347,9.448,0.135c2.942,1.481,5.426,4.403,6.386,8.195
							c0.942,3.791,0.193,7.562-1.71,10.256c-1.906,2.711-4.869,4.348-8.236,4.617c-3.388,0.27-6.544-0.77-9.006-2.365
							c-2.441-1.637-4.213-3.792-4.887-6.465c-0.673-2.655-0.173-5.408,1.233-8.025
							C1094.528,782.852,1096.817,780.444,1099.915,779.08z"/>
					</g>
					<g>
						<path fill="#FF6B80" d="M1086.771,759.03c2.504-2.311,5.716-3.388,9.007-2.925c3.271,0.421,6.54,2.386,8.678,5.656
							c2.155,3.253,2.635,7.08,1.73,10.236c-0.905,3.194-3.174,5.694-6.271,7.082c-3.118,1.348-6.427,1.385-9.275,0.691
							c-2.866-0.732-5.231-2.231-6.751-4.541c-1.503-2.29-1.906-5.08-1.444-7.968
							C1082.925,764.359,1084.292,761.337,1086.771,759.03z"/>
					</g>
					<g>
						<path fill="#FF6B80" d="M1067.896,744.292c1.6-2.984,4.313-5.042,7.563-5.678c3.232-0.636,6.985,0.173,10.045,2.559
							c3.077,2.425,4.77,5.851,4.925,9.121c0.193,3.308-1.136,6.426-3.657,8.736c-2.5,2.29-5.618,3.405-8.543,3.653
							c-2.942,0.231-5.674-0.421-7.85-2.116c-2.172-1.692-3.443-4.192-3.965-7.101
							C1065.955,750.601,1066.263,747.293,1067.896,744.292z"/>
					</g>
					<g>
						<path fill="#FF6B80" d="M1045.231,736.519c0.556-3.367,2.425-6.195,5.312-7.854c2.828-1.654,6.658-2.113,10.35-0.846
							c3.678,1.271,6.409,3.964,7.639,7.045c1.232,3.077,0.98,6.465-0.636,9.428c-1.633,2.979-4.229,5.059-6.924,6.232
							c-2.693,1.154-5.483,1.461-8.084,0.539c-2.597-0.884-4.617-2.808-6.04-5.408
							C1045.463,743.079,1044.693,739.847,1045.231,736.519z"/>
					</g>
					<g>
						<path fill="#FF6B80" d="M1021.275,736.519c-0.576-3.367,0.308-6.658,2.483-9.142c2.155-2.5,5.598-4.154,9.486-4.175
							c3.885,0.021,7.349,1.654,9.504,4.158c2.175,2.5,3.06,5.791,2.482,9.158c-0.56,3.328-2.348,6.136-4.503,8.118
							c-2.155,2.003-4.714,3.174-7.466,3.156c-2.77,0.018-5.312-1.153-7.483-3.156
							C1023.624,742.654,1021.835,739.847,1021.275,736.519z"/>
					</g>
					<g>
						<path fill="#FF6B80" d="M998.629,744.292c-1.637-2.963-1.886-6.351-0.652-9.428c1.229-3.081,3.961-5.774,7.639-7.045
							c3.691-1.268,7.521-0.809,10.35,0.846c2.866,1.658,4.772,4.486,5.311,7.854c0.539,3.346-0.23,6.561-1.615,9.137
							c-1.406,2.601-3.443,4.524-6.044,5.408c-2.597,0.922-5.387,0.615-8.098-0.539
							C1002.842,749.351,1000.245,747.271,998.629,744.292z"/>
					</g>
					<g>
						<path fill="#FF6B80" d="M979.735,759.03c-2.521-2.272-3.851-5.429-3.678-8.716c0.173-3.291,1.868-6.717,4.945-9.12
							c3.06-2.387,6.813-3.216,10.046-2.58c3.25,0.636,5.964,2.715,7.58,5.678c1.616,3.001,1.924,6.309,1.443,9.196
							c-0.479,2.887-1.771,5.387-3.943,7.079c-2.176,1.695-4.907,2.348-7.854,2.116C985.351,762.436,982.236,761.32,979.735,759.03z
							"/>
					</g>
					<g>
						<path fill="#FF6B80" d="M966.593,779.08c-3.098-1.367-5.37-3.888-6.271-7.082c-0.905-3.156-0.404-6.966,1.729-10.215
							c2.138-3.292,5.426-5.257,8.679-5.678c3.271-0.463,6.503,0.614,9.006,2.925c2.479,2.307,3.848,5.329,4.327,8.232
							c0.48,2.908,0.059,5.698-1.443,7.988c-1.52,2.289-3.885,3.788-6.751,4.521C973.04,780.482,969.711,780.428,966.593,779.08z"/>
					</g>
					<g>
						<path fill="#FF6B80" d="M972.346,848.099c-2.85,1.865-6.195,2.403-9.352,1.423c-3.156-0.964-6.081-3.446-7.639-7.024
							c-1.596-3.577-1.461-7.407-0.038-10.391c1.423-2.98,4.078-5.118,7.369-5.926c3.291-0.825,6.579-0.325,9.255,0.846
							c2.693,1.195,4.79,3.043,5.905,5.543c1.119,2.541,1.061,5.349,0.117,8.118C977.021,843.461,975.174,846.23,972.346,848.099z"
							/>
					</g>
					<g>
						<path fill="#FF6B80" d="M988.566,865.742c-2.079,2.655-5.08,4.251-8.389,4.348c-3.291,0.113-6.852-1.31-9.486-4.196
							c-2.639-2.846-3.754-6.502-3.388-9.772c0.366-3.309,2.192-6.157,5.042-8.022c2.849-1.848,6.099-2.445,9.023-2.214
							c2.945,0.27,5.543,1.348,7.391,3.367c1.885,2.021,2.731,4.714,2.748,7.639C991.508,859.833,990.645,863.048,988.566,865.742z"
							/>
					</g>
					<g>
						<path fill="#FF6B80" d="M1009.614,877.169c-1.078,3.194-3.405,5.66-6.521,6.831c-3.08,1.174-6.91,0.983-10.332-0.885
							c-3.426-1.864-5.678-4.962-6.371-8.177c-0.712-3.232,0.079-6.541,2.176-9.196c2.096-2.694,5.004-4.311,7.849-5.021
							c2.85-0.694,5.657-0.521,8.081,0.787s4.1,3.578,5.062,6.351C1010.502,870.628,1010.712,873.937,1009.614,877.169z"/>
					</g>
					<g>
						<path fill="#FF6B80" d="M1033.263,881.096c0.021,3.388-1.385,6.502-3.944,8.602c-2.521,2.097-6.216,3.194-10.062,2.538
							c-3.848-0.635-6.986-2.866-8.695-5.656c-1.734-2.828-2.062-6.216-0.946-9.41c1.136-3.232,3.35-5.694,5.794-7.311
							c2.48-1.578,5.174-2.328,7.888-1.886c2.715,0.463,5.021,2.041,6.852,4.348C1031.953,874.631,1033.245,877.69,1033.263,881.096
							z"/>
					</g>
				</g>
			</g>
			<g>
				<path fill="#FF6B80" d="M890.032,707.655c-37.617,7.542-46.796,19.974-70.403,17.104c-4.1-0.674-9.237-3.174-10.774-6.714
					c-0.791-1.826-1.464-3.463-1.619-5.155c-0.038-0.85,0.041-1.695,0.252-2.58l0.193-0.635c-0.042-0.018,0.21-0.463,0.308-0.674
					c0.151-0.346,0.327-0.636,0.614-1.001c1.06-1.348,2.714-2.193,4.406-2.117c0.847,0.041,1.692,0.27,2.483,0.732
					c0.673,0.387,1.347,1.077,1.729,1.906c0.905,1.595,0.943,3.943-0.097,5.674c-0.998,1.712-3.27,2.541-5.155,1.619l-0.211,0.421
					c1.903,1.385,4.752,1.002,6.444-1.077c1.657-2.041,2.137-5.155,1.118-7.791c-2.234-5.601-9.275-6.447-13.315-2.331
					c-0.48,0.463-1.002,1.078-1.406,1.734c-0.172,0.307-0.269,0.345-0.518,0.884l-0.483,0.964c-0.594,1.347-0.787,2.883-0.922,4.406
					c-1.153,12.719,10.774,19.49,15.567,22.336c11.006,5.984,48.775,18.375,70.807,15.471c47.66-6.292,87.045,10.505,88.337,4.772
					C979.829,744.675,941.693,697.264,890.032,707.655z"/>
				<path fill="#FF6B80" d="M1025.586,707.655c37.596,7.542,46.775,19.974,70.402,17.104c4.1-0.674,9.238-3.174,10.774-6.714
					c0.791-1.826,1.444-3.463,1.6-5.155c0.059-0.85-0.021-1.695-0.231-2.58l-0.211-0.635c0.038-0.018-0.193-0.463-0.29-0.674
					c-0.173-0.346-0.346-0.636-0.614-1.001c-1.04-1.348-2.715-2.193-4.407-2.117c-0.866,0.041-1.675,0.27-2.482,0.732
					c-0.674,0.387-1.347,1.077-1.751,1.906c-0.884,1.595-0.922,3.943,0.117,5.674c0.998,1.712,3.271,2.541,5.156,1.619l0.211,0.421
					c-1.906,1.385-4.773,1.002-6.444-1.077c-1.657-2.041-2.138-5.155-1.119-7.791c2.214-5.601,9.255-6.447,13.296-2.331
					c0.5,0.463,1.001,1.078,1.426,1.734c0.173,0.307,0.249,0.345,0.518,0.884l0.463,0.964c0.598,1.347,0.809,2.883,0.943,4.406
					c1.153,12.719-10.795,19.49-15.568,22.336c-11.006,5.984-48.795,18.375-70.824,15.471c-47.662-6.292-87.048,10.505-88.318,4.772
					C935.768,744.675,973.924,697.264,1025.586,707.655z"/>
			</g>
			<path fill="#EAE5D3" d="M1102.57,812.288c-2.116-2.614-5.197-4.003-8.581-3.982l0,0l0,0l0,0c3.384,0.021,6.465-1.405,8.581-3.981
				c2.059-2.579,3.098-6.371,2.308-10.277c-0.788-3.885-3.136-7.003-6.078-8.581c-2.908-1.616-6.33-1.713-9.448-0.404l0,0
				c3.156-1.288,5.445-3.75,6.406-6.982c0.904-3.156,0.403-7.062-1.807-10.354c-2.234-3.291-5.602-5.252-8.893-5.598
				c-3.325-0.345-6.502,0.847-8.889,3.25l0,0l0,0l0,0c2.407-2.383,3.599-5.561,3.253-8.89c-0.345-3.291-2.31-6.657-5.598-8.889
				c-3.291-2.23-7.196-2.693-10.353-1.81c-3.232,0.964-5.678,3.232-6.986,6.389l0,0c1.309-3.098,1.212-6.523-0.404-9.428
				c-1.558-2.941-4.693-5.272-8.582-6.081c-3.905-0.787-7.693,0.27-10.273,2.311c-2.597,2.117-3.981,5.193-3.981,8.581l0,0l0,0l0,0
				c0.018-3.388-1.388-6.464-3.985-8.581c-2.559-2.041-6.347-3.098-10.253-2.311c-3.889,0.809-7.024,3.14-8.603,6.081
				c-1.599,2.904-1.691,6.33-0.383,9.449l0,0c-1.309-3.157-3.774-5.446-6.986-6.389c-3.174-0.905-7.062-0.425-10.353,1.788
				c-3.288,2.231-5.253,5.598-5.599,8.889c-0.365,3.329,0.829,6.507,3.254,8.89l0,0c-2.387-2.403-5.563-3.595-8.893-3.232
				c-3.288,0.349-6.654,2.311-8.889,5.58c-2.231,3.312-2.711,7.197-1.81,10.371c0.963,3.215,3.235,5.677,6.409,6.965l0,0
				c-3.118-1.288-6.544-1.212-9.466,0.404c-2.925,1.578-5.256,4.696-6.063,8.603c-0.788,3.905,0.252,7.677,2.31,10.256
				c2.117,2.597,5.194,4.003,8.582,3.981c-3.388-0.021-6.465,1.385-8.582,3.982c-2.058,2.579-3.098,6.351-2.31,10.256
				c0.808,3.906,3.139,7.024,6.081,8.603c2.904,1.616,6.33,1.692,9.448,0.383l0,0c-3.174,1.31-5.446,3.771-6.409,7.004
				c-0.901,3.156-0.404,7.045,1.81,10.353c2.234,3.291,5.601,5.253,8.889,5.581c3.329,0.366,6.506-0.829,8.871-3.232h0.021
				c-2.407,2.387-3.599,5.56-3.254,8.889c0.346,3.271,2.311,6.658,5.599,8.889c3.312,2.214,7.196,2.694,10.353,1.81
				c3.232-0.963,5.694-3.253,6.986-6.409l0,0c-1.309,3.098-1.216,6.523,0.404,9.448c1.557,2.925,4.692,5.273,8.581,6.082
				c3.923,0.787,7.694-0.27,10.273-2.328c2.598-2.117,4.003-5.177,3.982-8.564c-0.018,3.388,1.385,6.447,3.985,8.564
				c2.559,2.059,6.347,3.115,10.252,2.328c3.906-0.809,7.024-3.157,8.603-6.082c1.616-2.925,1.692-6.351,0.404-9.448l0,0
				c1.288,3.156,3.75,5.429,6.966,6.389c3.173,0.905,7.062,0.425,10.37-1.789c3.271-2.23,5.252-5.618,5.58-8.889
				c0.366-3.35-0.829-6.502-3.232-8.889l0,0l0,0l0,0c2.387,2.387,5.543,3.599,8.868,3.232c3.312-0.349,6.679-2.311,8.893-5.581
				c2.23-3.308,2.711-7.196,1.807-10.37c-0.961-3.215-3.232-5.677-6.386-6.986l0,0l0,0l0,0c3.098,1.31,6.52,1.233,9.445-0.383
				c2.925-1.578,5.272-4.696,6.061-8.603C1105.686,818.639,1104.629,814.847,1102.57,812.288z"/>
			<path fill="#EAE5D3" d="M944.101,808.306c3.385,0.021,6.465-1.385,8.582-3.981c2.058-2.579,3.098-6.351,2.307-10.256
				c-0.809-3.906-3.136-7.024-6.078-8.603c-2.907-1.616-6.333-1.692-9.448-0.404l0,0c3.156-1.288,5.446-3.75,6.406-6.982
				c0.904-3.156,0.404-7.041-1.81-10.354c-2.231-3.27-5.598-5.231-8.889-5.598c-3.329-0.345-6.503,0.847-8.868,3.25l0,0
				c2.386-2.383,3.577-5.561,3.232-8.89c-0.35-3.291-2.311-6.657-5.602-8.889c-3.288-2.213-7.193-2.693-10.35-1.788
				c-3.232,0.942-5.678,3.231-6.986,6.389l0,0c1.309-3.119,1.212-6.545-0.404-9.449c-1.558-2.941-4.693-5.272-8.581-6.081
				c-3.906-0.787-7.698,0.27-10.257,2.311c-2.614,2.117-4.002,5.193-3.981,8.581l0,0l0,0l0,0c0-3.388-1.385-6.464-4.003-8.581
				c-2.559-2.041-6.351-3.098-10.235-2.311c-3.905,0.809-7.041,3.14-8.603,6.081c-1.633,2.904-1.713,6.33-0.403,9.428l0,0l0,0l0,0
				c-1.31-3.156-3.751-5.425-6.983-6.389c-3.156-0.884-7.062-0.403-10.353,1.81c-3.309,2.231-5.253,5.598-5.598,8.889
				c-0.349,3.329,0.846,6.507,3.249,8.89l0,0l0,0l0,0c-2.386-2.403-5.56-3.595-8.889-3.25c-3.291,0.346-6.675,2.328-8.889,5.598
				c-2.214,3.291-2.715,7.197-1.81,10.354c0.964,3.232,3.253,5.694,6.389,6.982l0,0c-3.098-1.309-6.523-1.212-9.448,0.404
				c-2.925,1.578-5.27,4.696-6.061,8.581c-0.787,3.927,0.252,7.698,2.311,10.277c2.116,2.576,5.193,4.003,8.581,3.981l0,0l0,0l0,0
				c-3.388-0.021-6.465,1.368-8.581,3.982c-2.059,2.559-3.098,6.351-2.311,10.256c0.791,3.906,3.136,7.024,6.061,8.603
				c2.925,1.616,6.333,1.692,9.448,0.383l0,0l0,0l0,0c-3.156,1.31-5.425,3.771-6.389,7.004c-0.905,3.156-0.421,7.045,1.81,10.353
				c2.214,3.271,5.598,5.253,8.889,5.581c3.312,0.366,6.485-0.846,8.872-3.232l0,0l0,0l0,0c-2.407,2.387-3.599,5.539-3.232,8.889
				c0.345,3.271,2.289,6.658,5.58,8.889c3.309,2.214,7.193,2.694,10.37,1.81c3.212-0.98,5.674-3.253,6.983-6.409l0,0
				c-1.31,3.098-1.229,6.523,0.387,9.448c1.578,2.925,4.714,5.273,8.599,6.082c3.905,0.787,7.697-0.27,10.256-2.328
				c2.598-2.117,4.003-5.177,3.982-8.564c-0.018,3.388,1.388,6.447,3.984,8.564c2.576,2.059,6.368,3.115,10.257,2.328
				c3.905-0.809,7.041-3.157,8.599-6.082c1.616-2.925,1.713-6.351,0.404-9.448l0,0c1.288,3.156,3.754,5.429,6.986,6.409
				c3.156,0.885,7.062,0.404,10.35-1.81c3.291-2.23,5.252-5.618,5.602-8.889c0.345-3.329-0.847-6.502-3.232-8.889l0,0
				c2.365,2.403,5.539,3.599,8.868,3.232c3.291-0.328,6.657-2.29,8.889-5.581c2.214-3.308,2.714-7.196,1.81-10.353
				c-0.96-3.232-3.25-5.694-6.406-7.004l0,0c3.115,1.31,6.541,1.233,9.448-0.383c2.942-1.578,5.27-4.696,6.078-8.603
				c0.791-3.905-0.249-7.677-2.307-10.256C950.565,809.69,947.485,808.285,944.101,808.306z"/>
			<path fill="#FBFAF6" d="M929.648,808.306c0,25.572-20.724,46.275-46.295,46.275c-25.552,0-46.275-20.703-46.275-46.275
				c0-25.571,20.724-46.295,46.275-46.295C908.925,762.011,929.648,782.734,929.648,808.306z"/>
			<path fill="#3A002F" d="M957.8,824.063c0,0-13.699,8.274-16.568,23.59c4.793,4.465,16.568,27.054,16.568,27.054
				s11.794-22.589,16.587-27.054C971.517,832.338,957.8,824.063,957.8,824.063z"/>
			<g>
				<g>
					<path fill="#3A002F" d="M880.912,847.809c-0.943-1.232-1.789-2.482-2.521-3.771c-0.711-1.271-1.329-2.58-1.826-3.889
						c1.768,0.753,3.636,1.309,5.521,1.695c1.902,0.384,3.83,0.577,5.771,0.577c-0.96,1.001-2.021,1.961-3.194,2.866
						C883.509,846.192,882.259,847.038,880.912,847.809z"/>
				</g>
				<g>
					<path fill="#3A002F" d="M868.059,842.459c-0.404-1.502-0.694-2.963-0.867-4.427c-0.193-1.461-0.248-2.922-0.231-4.31
						c1.385,1.388,2.888,2.617,4.486,3.695c1.616,1.077,3.325,2.003,5.118,2.731c-1.292,0.58-2.639,1.039-4.082,1.443
						C871.08,841.959,869.599,842.266,868.059,842.459z"/>
				</g>
				<g>
					<path fill="#3A002F" d="M858.227,832.628c0.211-1.54,0.501-3.021,0.885-4.444c0.403-1.427,0.884-2.773,1.443-4.041
						c0.731,1.769,1.654,3.481,2.731,5.098c1.077,1.599,2.327,3.118,3.674,4.482c-1.385,0.041-2.828-0.038-4.289-0.229
						C861.207,833.318,859.726,833.032,858.227,832.628z"/>
				</g>
				<g>
					<path fill="#3A002F" d="M852.916,819.754c0.77-1.347,1.615-2.576,2.5-3.733c0.904-1.174,1.885-2.23,2.887-3.194
						c0,1.927,0.193,3.868,0.577,5.754c0.366,1.906,0.942,3.753,1.675,5.562c-1.309-0.521-2.618-1.136-3.889-1.847
						C855.398,821.563,854.128,820.717,852.916,819.754z"/>
				</g>
				<g>
					<path fill="#3A002F" d="M852.916,805.861c1.212-0.96,2.482-1.769,3.75-2.518c1.291-0.715,2.601-1.33,3.889-1.83
						c-0.732,1.771-1.288,3.636-1.675,5.542c-0.366,1.886-0.577,3.81-0.577,5.771c-1.002-0.98-1.982-2.037-2.887-3.211
						C854.531,808.461,853.686,807.208,852.916,805.861z"/>
				</g>
				<g>
					<path fill="#3A002F" d="M858.244,793.011c1.502-0.407,2.963-0.693,4.427-0.887c1.481-0.173,2.925-0.249,4.31-0.231
						c-1.367,1.388-2.597,2.887-3.674,4.503s-2.003,3.309-2.752,5.118c-0.56-1.288-1.04-2.656-1.423-4.079
						C858.745,796.029,858.438,794.548,858.244,793.011z"/>
				</g>
				<g>
					<path fill="#3A002F" d="M868.076,783.176c1.54,0.193,3.021,0.483,4.447,0.867c1.402,0.404,2.77,0.884,4.041,1.423
						c-1.771,0.77-3.484,1.695-5.101,2.752c-1.616,1.078-3.119,2.311-4.483,3.675c-0.021-1.385,0.039-2.828,0.211-4.289
						C867.385,786.16,867.672,784.657,868.076,783.176z"/>
				</g>
				<g>
					<path fill="#3A002F" d="M880.929,777.848c1.347,0.749,2.601,1.596,3.754,2.5c1.153,0.905,2.231,1.886,3.194,2.887
						c-1.944,0-3.867,0.193-5.773,0.577c-1.886,0.346-3.751,0.926-5.539,1.654c0.497-1.288,1.115-2.576,1.847-3.885
						C879.141,780.31,879.986,779.06,880.929,777.848z"/>
				</g>
				<g>
					<path fill="#3A002F" d="M894.843,777.848c0.942,1.232,1.788,2.462,2.5,3.75c0.711,1.292,1.347,2.601,1.848,3.889
						c-1.789-0.749-3.657-1.309-5.543-1.675c-1.902-0.384-3.826-0.577-5.771-0.577c0.98-1.001,2.037-1.961,3.194-2.887
						C892.246,779.443,893.496,778.618,894.843,777.848z"/>
				</g>
				<g>
					<path fill="#3A002F" d="M907.675,783.176c0.404,1.481,0.694,2.984,0.884,4.444c0.177,1.465,0.232,2.908,0.215,4.311
						c-1.367-1.385-2.866-2.614-4.482-3.692c-1.6-1.077-3.312-2.003-5.101-2.752c1.288-0.56,2.635-1.019,4.061-1.443
						C904.674,783.677,906.155,783.391,907.675,783.176z"/>
				</g>
				<g>
					<path fill="#3A002F" d="M917.507,793.028c-0.19,1.52-0.497,3.021-0.884,4.428c-0.384,1.422-0.867,2.786-1.423,4.058
						c-0.753-1.789-1.675-3.502-2.753-5.118c-1.077-1.596-2.31-3.115-3.674-4.465c1.405-0.038,2.828,0.041,4.31,0.214
						C914.526,792.334,916.008,792.624,917.507,793.028z"/>
				</g>
				<g>
					<path fill="#3A002F" d="M922.839,805.861c-0.771,1.347-1.616,2.617-2.521,3.774c-0.904,1.153-1.868,2.23-2.887,3.19
						c0-1.94-0.173-3.864-0.556-5.771c-0.387-1.886-0.946-3.754-1.675-5.542c1.288,0.5,2.597,1.115,3.885,1.847
						C920.355,804.093,921.605,804.939,922.839,805.861z"/>
				</g>
				<g>
					<path fill="#3A002F" d="M922.839,819.792c-1.233,0.925-2.483,1.771-3.754,2.504c-1.288,0.729-2.597,1.347-3.905,1.847
						c0.749-1.792,1.309-3.636,1.695-5.542c0.383-1.886,0.556-3.83,0.556-5.774c1.019,0.964,1.982,2.041,2.887,3.194
						C921.223,817.195,922.068,818.445,922.839,819.792z"/>
				</g>
				<g>
					<path fill="#3A002F" d="M917.507,832.646c-1.499,0.387-2.98,0.693-4.444,0.866c-1.461,0.173-2.904,0.252-4.289,0.211
						c1.364-1.347,2.597-2.866,3.674-4.462c1.078-1.616,2-3.329,2.732-5.118c0.559,1.268,1.06,2.636,1.443,4.058
						C917.01,829.627,917.296,831.108,917.507,832.646z"/>
				</g>
				<g>
					<path fill="#3A002F" d="M907.658,842.48c-1.523-0.215-3.005-0.501-4.428-0.888c-1.423-0.404-2.77-0.863-4.061-1.443
						c1.792-0.729,3.505-1.654,5.101-2.731c1.616-1.078,3.118-2.308,4.503-3.695c0.018,1.405-0.059,2.849-0.231,4.31
						C908.369,839.496,908.079,840.978,907.658,842.48z"/>
				</g>
				<g>
					<path fill="#3A002F" d="M894.822,847.809c-1.348-0.771-2.598-1.616-3.771-2.521c-1.153-0.905-2.214-1.865-3.194-2.866
						c1.944,0,3.889-0.193,5.774-0.577c1.902-0.387,3.75-0.942,5.539-1.695c-0.498,1.309-1.116,2.617-1.845,3.889
						C896.61,845.326,895.765,846.576,894.822,847.809z"/>
				</g>
			</g>
			<path fill="#3A002F" d="M863.228,812.826c0,13.606,11.047,24.65,24.629,24.65c13.623,0,24.649-11.044,24.649-24.65
				c0-13.62-11.026-24.667-24.649-24.667C874.274,788.159,863.228,799.206,863.228,812.826z"/>
			<path fill="#FBFAF6" d="M890.57,832.552c-4.848-1.022-8.004-5.66-7.041-10.294c0.98-4.697,5.732-7.66,10.581-6.658
				c4.869,1.001,8.025,5.656,7.041,10.35C900.191,830.569,895.457,833.57,890.57,832.552z"/>
			<path fill="#FBFAF6" d="M985.872,808.306c0,25.572,20.724,46.275,46.296,46.275c25.551,0,46.274-20.703,46.274-46.275
				c0-25.571-20.724-46.295-46.274-46.295C1006.596,762.011,985.872,782.734,985.872,808.306z"/>
			<path fill="#3A002F" d="M1052.273,812.826c0,13.606-11.023,24.65-24.609,24.65c-13.603,0-24.649-11.044-24.649-24.65
				c0-13.62,11.047-24.667,24.649-24.667C1041.25,788.159,1052.273,799.206,1052.273,812.826z"/>
			<g>
				<g>
					<path fill="#3A002F" d="M1020.679,847.809c-0.943-1.232-1.769-2.482-2.501-3.771c-0.731-1.271-1.347-2.58-1.847-3.889
						c1.788,0.753,3.636,1.309,5.542,1.695c1.903,0.384,3.83,0.577,5.771,0.577c-0.98,1.001-2.037,1.961-3.194,2.866
						C1023.275,846.192,1022.025,847.038,1020.679,847.809z"/>
				</g>
				<g>
					<path fill="#3A002F" d="M1007.846,842.459c-0.425-1.502-0.711-2.963-0.884-4.427c-0.177-1.461-0.252-2.922-0.214-4.31
						c1.367,1.388,2.866,2.617,4.485,3.695c1.596,1.077,3.309,2.003,5.098,2.731c-1.288,0.58-2.636,1.039-4.062,1.443
						C1010.847,841.959,1009.365,842.266,1007.846,842.459z"/>
				</g>
				<g>
					<path fill="#3A002F" d="M998.015,832.628c0.189-1.54,0.5-3.021,0.884-4.444c0.383-1.427,0.866-2.773,1.443-4.041
						c0.732,1.769,1.654,3.481,2.731,5.098c1.077,1.599,2.311,3.118,3.675,4.482c-1.402,0.041-2.846-0.038-4.311-0.229
						C1000.978,833.318,999.496,833.032,998.015,832.628z"/>
				</g>
				<g>
					<path fill="#3A002F" d="M992.683,819.754c0.77-1.347,1.616-2.576,2.521-3.733c0.905-1.174,1.868-2.23,2.887-3.194
						c0,1.927,0.193,3.868,0.56,5.754c0.384,1.906,0.943,3.753,1.692,5.562c-1.309-0.521-2.617-1.136-3.906-1.847
						C995.165,821.563,993.915,820.717,992.683,819.754z"/>
				</g>
				<g>
					<path fill="#3A002F" d="M992.683,805.861c1.232-0.96,2.503-1.769,3.771-2.518c1.271-0.715,2.58-1.33,3.889-1.83
						c-0.749,1.771-1.309,3.636-1.692,5.542c-0.366,1.886-0.56,3.81-0.56,5.771c-1.019-0.98-1.981-2.037-2.887-3.211
						C994.299,808.461,993.452,807.208,992.683,805.861z"/>
				</g>
				<g>
					<path fill="#3A002F" d="M998.015,793.011c1.498-0.407,2.979-0.693,4.444-0.887c1.461-0.173,2.904-0.249,4.289-0.231
						c-1.364,1.388-2.598,2.887-3.675,4.503s-1.999,3.309-2.731,5.118c-0.56-1.288-1.039-2.656-1.443-4.079
						C998.515,796.029,998.225,794.548,998.015,793.011z"/>
				</g>
				<g>
					<path fill="#3A002F" d="M1007.846,783.176c1.54,0.193,3.021,0.483,4.444,0.867c1.405,0.404,2.77,0.884,4.062,1.423
						c-1.793,0.77-3.502,1.695-5.118,2.752c-1.619,1.078-3.101,2.311-4.485,3.675c-0.018-1.385,0.037-2.828,0.231-4.289
						C1007.151,786.16,1007.441,784.657,1007.846,783.176z"/>
				</g>
				<g>
					<path fill="#3A002F" d="M1020.699,777.848c1.347,0.749,2.597,1.596,3.771,2.5c1.153,0.905,2.213,1.886,3.173,2.887
						c-1.923,0-3.867,0.193-5.753,0.577c-1.902,0.346-3.75,0.926-5.539,1.654c0.497-1.288,1.115-2.576,1.848-3.885
						C1018.91,780.31,1019.756,779.06,1020.699,777.848z"/>
				</g>
				<g>
					<path fill="#3A002F" d="M1034.609,777.848c0.942,1.232,1.789,2.462,2.521,3.75c0.712,1.292,1.33,2.601,1.827,3.889
						c-1.769-0.749-3.637-1.309-5.539-1.675c-1.886-0.384-3.81-0.577-5.774-0.577c0.981-1.001,2.041-1.961,3.216-2.887
						C1032.013,779.443,1033.263,778.618,1034.609,777.848z"/>
				</g>
				<g>
					<path fill="#3A002F" d="M1047.463,783.176c0.403,1.481,0.693,2.984,0.866,4.444c0.173,1.465,0.249,2.908,0.231,4.311
						c-1.385-1.385-2.887-2.614-4.482-3.692c-1.616-1.077-3.329-2.003-5.121-2.752c1.291-0.56,2.639-1.019,4.061-1.443
						C1044.44,783.677,1045.922,783.391,1047.463,783.176z"/>
				</g>
				<g>
					<path fill="#3A002F" d="M1057.294,793.028c-0.21,1.52-0.497,3.021-0.884,4.428c-0.404,1.422-0.884,2.786-1.443,4.058
						c-0.75-1.789-1.654-3.502-2.731-5.118c-1.078-1.596-2.311-3.115-3.675-4.465c1.385-0.038,2.828,0.041,4.289,0.214
						C1054.293,792.334,1055.795,792.624,1057.294,793.028z"/>
				</g>
				<g>
					<path fill="#3A002F" d="M1062.605,805.861c-0.771,1.347-1.616,2.617-2.5,3.774c-0.905,1.153-1.886,2.23-2.888,3.19
						c0-1.94-0.193-3.864-0.576-5.771c-0.366-1.886-0.942-3.754-1.675-5.542c1.309,0.5,2.597,1.115,3.889,1.847
						C1060.122,804.093,1061.394,804.939,1062.605,805.861z"/>
				</g>
				<g>
					<path fill="#3A002F" d="M1062.605,819.792c-1.229,0.925-2.483,1.771-3.75,2.504c-1.292,0.729-2.601,1.347-3.889,1.847
						c0.732-1.792,1.309-3.636,1.675-5.542c0.383-1.886,0.576-3.83,0.576-5.774c1.002,0.964,1.982,2.041,2.888,3.194
						C1060.989,817.195,1061.835,818.445,1062.605,819.792z"/>
				</g>
				<g>
					<path fill="#3A002F" d="M1057.277,832.646c-1.503,0.387-2.984,0.693-4.428,0.866c-1.481,0.173-2.925,0.252-4.31,0.211
						c1.367-1.347,2.597-2.866,3.674-4.462c1.099-1.616,2.003-3.329,2.753-5.118c0.56,1.268,1.039,2.636,1.423,4.058
						C1056.776,829.627,1057.084,831.108,1057.277,832.646z"/>
				</g>
				<g>
					<path fill="#3A002F" d="M1047.445,842.48c-1.54-0.215-3.021-0.501-4.428-0.888c-1.422-0.404-2.79-0.863-4.061-1.443
						c1.771-0.729,3.484-1.654,5.101-2.731c1.616-1.078,3.118-2.308,4.482-3.695c0.021,1.405-0.038,2.849-0.211,4.31
						C1048.136,839.496,1047.85,840.978,1047.445,842.48z"/>
				</g>
				<g>
					<path fill="#3A002F" d="M1034.592,847.809c-1.347-0.771-2.601-1.616-3.754-2.521c-1.153-0.905-2.23-1.865-3.194-2.866
						c1.944,0,3.868-0.193,5.754-0.577c1.906-0.387,3.771-0.942,5.56-1.695c-0.518,1.309-1.133,2.617-1.844,3.889
						C1036.381,845.326,1035.535,846.576,1034.592,847.809z"/>
				</g>
			</g>
			<path fill="#FBFAF6" d="M1022.488,832.552c-4.849-1.022-8.005-5.66-7.024-10.294c0.964-4.697,5.716-7.66,10.563-6.658
				c4.869,1.001,8.025,5.656,7.042,10.35C1032.109,830.569,1027.357,833.57,1022.488,832.552z"/>
			<path fill="#FBFAF6" d="M1036.65,833.55c1.136,0.308,2.327-0.366,2.617-1.443c0.308-1.115-0.404-2.269-1.561-2.576
				c-1.153-0.308-2.328,0.346-2.635,1.461C1034.782,832.089,1035.476,833.242,1036.65,833.55z"/>
			<path fill="#FBFAF6" d="M880.353,833.55c-1.133,0.308-2.328-0.366-2.618-1.443c-0.307-1.115,0.408-2.269,1.562-2.576
				s2.327,0.346,2.635,1.461C882.221,832.089,881.526,833.242,880.353,833.55z"/>
			<path fill="#FBFAF6" d="M876.08,829.645c-1.788,0.462-3.615-0.539-4.058-2.27c-0.462-1.713,0.615-3.501,2.404-3.964
				c1.788-0.48,3.619,0.538,4.061,2.251C878.95,827.375,877.873,829.164,876.08,829.645z"/>
			<path fill="#FBFAF6" d="M1042.518,829.645c-1.769,0.462-3.599-0.539-4.058-2.27c-0.463-1.713,0.614-3.501,2.403-3.964
				c1.81-0.48,3.619,0.538,4.078,2.251C1045.384,827.375,1044.307,829.164,1042.518,829.645z"/>
			<g opacity="0.25">
				<path fill="#1D1D1B" d="M957.8,824.063L957.8,824.063v50.644l0,0c0,0,11.794-22.589,16.587-27.054
					C971.517,832.338,957.8,824.063,957.8,824.063z"/>
			</g>
			<g>
				<path fill="#FBFAF6" d="M963.149,933.662c-0.097-0.653-0.674-1.137-1.329-1.137l0,0c-0.653,0-1.229,0.483-1.326,1.137
					c-0.328,1.886-1.443,3.271-2.677,3.271c-1.25,0-2.386-1.385-2.693-3.271c-0.114-0.653-0.674-1.137-1.347-1.137l0,0
					c-0.674,0-1.229,0.483-1.326,1.137l-0.059,0.308c-0.076,0.387-0.135,0.731-0.135,1.118c0,3.848,2.482,7.004,5.56,7.004
					c3.06,0,5.543-3.156,5.543-7.004c0-0.425-0.076-0.828-0.135-1.136L963.149,933.662z"/>
				<path fill="#FBFAF6" d="M923.26,933.645c-0.113-0.656-0.673-1.119-1.326-1.119l0,0c-0.673,0-1.232,0.483-1.329,1.137
					c-0.325,1.886-1.44,3.271-2.673,3.271c-1.233,0-2.365-1.385-2.693-3.271c-0.118-0.653-0.771-1.229-1.368-1.137
					c-0.652,0-1.212,0.483-1.309,1.137l-0.056,0.328c-0.079,0.366-0.135,0.711-0.135,1.098c0,3.848,2.48,7.004,5.561,7.004
					c3.06,0,5.543-3.156,5.543-7.004c0-0.445-0.08-0.85-0.156-1.156L923.26,933.645z"/>
				<path fill="#FBFAF6" d="M997.707,942.092c3.056,0,5.539-3.156,5.539-7.004c0-0.445-0.076-0.85-0.152-1.156l-0.059-0.287
					c-0.113-0.656-0.749-1.136-1.329-1.119c-0.674,0-1.212,0.483-1.326,1.137c-0.328,1.886-1.443,3.271-2.673,3.271
					c-1.254,0-2.369-1.385-2.715-3.271c-0.097-0.653-0.597-1.229-1.347-1.137c-0.656,0-1.212,0.483-1.309,1.137l-0.059,0.328
					c-0.076,0.366-0.152,0.711-0.152,1.098C992.126,938.936,994.627,942.092,997.707,942.092z"/>
				<path fill="#FBFAF6" d="M963.149,980.227c-0.117-0.652-0.674-1.115-1.329-1.115l0,0c-0.674,0-1.229,0.463-1.326,1.115
					c-0.328,1.924-1.443,3.291-2.677,3.291c-1.25,0-2.386-1.367-2.693-3.291c-0.114-0.652-0.787-1.098-1.347-1.115
					c-0.674,0-1.229,0.479-1.326,1.136l-0.059,0.325c-0.076,0.349-0.135,0.711-0.135,1.115c0,3.851,2.482,6.965,5.56,6.965
					c3.06,0,5.543-3.114,5.543-6.965c0-0.459-0.076-0.846-0.155-1.171L963.149,980.227z"/>
				<path fill="#FBFAF6" d="M923.26,980.227c-0.097-0.652-0.673-1.115-1.326-1.115l0,0c-0.673,0-1.232,0.463-1.329,1.115
					c-0.325,1.924-1.44,3.291-2.673,3.291c-1.233,0-2.365-1.385-2.693-3.291c-0.118-0.652-0.771-1.194-1.368-1.115
					c-0.652,0-1.212,0.479-1.309,1.153l-0.056,0.308c-0.079,0.349-0.135,0.711-0.135,1.115c0,3.851,2.48,6.965,5.561,6.965
					c3.06,0,5.543-3.114,5.543-6.965c0-0.459-0.08-0.863-0.156-1.191L923.26,980.227z"/>
				<path fill="#FBFAF6" d="M1003.035,980.227c-0.113-0.652-0.749-1.039-1.329-1.115c-0.674,0-1.212,0.463-1.326,1.115
					c-0.328,1.924-1.443,3.291-2.673,3.291c-1.254,0-2.369-1.385-2.715-3.291c-0.097-0.652-0.597-1.194-1.347-1.115
					c-0.656,0-1.212,0.479-1.309,1.153l-0.059,0.308c-0.076,0.349-0.152,0.711-0.152,1.115c0,3.851,2.501,6.965,5.581,6.965
					c3.056,0,5.539-3.114,5.539-6.965c0-0.459-0.076-0.863-0.152-1.191L1003.035,980.227z"/>
				<path fill="#FBFAF6" d="M979.062,910.228c-0.117-0.656-0.636-1.115-1.351-1.115c-0.652,0-1.212,0.459-1.326,1.115
					c-0.308,1.903-1.443,3.291-2.673,3.291c-1.232,0-2.369-1.388-2.697-3.291c-0.113-0.656-0.69-1.194-1.347-1.115
					c-0.652,0-1.212,0.501-1.325,1.133l-0.06,0.328c-0.075,0.345-0.135,0.731-0.135,1.098c0,3.868,2.504,6.982,5.563,6.982
					c3.057,0,5.561-3.114,5.561-6.982c0-0.441-0.098-0.846-0.156-1.156L979.062,910.228z"/>
				<path fill="#FBFAF6" d="M947.254,910.228c-0.114-0.656-0.674-1.115-1.347-1.115l0,0c-0.653,0-1.212,0.459-1.326,1.115
					c-0.308,1.903-1.443,3.291-2.677,3.291c-1.229,0-2.365-1.388-2.693-3.291c-0.114-0.656-0.674-1.115-1.326-1.115l0,0
					c-0.674,0-1.232,0.459-1.347,1.115l-0.059,0.308c-0.059,0.366-0.135,0.731-0.135,1.136c0,3.868,2.5,6.982,5.56,6.982
					s5.543-3.114,5.543-6.982c0-0.441-0.076-0.828-0.135-1.136L947.254,910.228z"/>
				<path fill="#FBFAF6" d="M979.062,956.502c-0.117-0.635-0.677-1.115-1.33-1.115c-0.021,0-0.021,0-0.021,0
					c-0.652,0.018-1.212,0.48-1.326,1.137c-0.308,1.902-1.443,3.27-2.673,3.27c-1.232,0-2.369-1.385-2.697-3.27
					c-0.113-0.656-0.69-1.119-1.347-1.137c-0.652,0.018-1.229,0.501-1.325,1.153l-0.06,0.328c-0.075,0.346-0.135,0.712-0.135,1.077
					c0,3.868,2.504,7.004,5.563,7.004c3.057,0,5.561-3.136,5.561-7.004c0-0.424-0.098-0.828-0.156-1.153L979.062,956.502z"/>
				<path fill="#FBFAF6" d="M915.642,957.945c0-0.424-0.075-0.808-0.155-1.153l-0.055-0.29c-0.118-0.635-0.674-1.115-1.33-1.115
					c-0.69,0.018-1.229,0.48-1.326,1.137c-0.328,1.902-1.443,3.27-2.676,3.27c-1.229,0-2.366-1.367-2.693-3.27
					c-0.114-0.656-0.674-1.137-1.348-1.137l0,0c-0.673,0.018-1.229,0.48-1.326,1.137l-0.059,0.324
					c-0.076,0.366-0.135,0.711-0.135,1.098c0,3.868,2.483,7.004,5.561,7.004C913.159,964.949,915.642,961.813,915.642,957.945z"/>
				<path fill="#FBFAF6" d="M947.254,956.523c-0.114-0.656-0.674-1.137-1.347-1.137l0,0c-0.653,0-1.212,0.48-1.326,1.137
					c-0.308,1.902-1.443,3.27-2.677,3.27c-1.229,0-2.365-1.367-2.693-3.27c-0.114-0.656-0.674-1.099-1.347-1.137
					c-0.653,0.018-1.229,0.48-1.326,1.137l-0.059,0.324c-0.076,0.366-0.135,0.711-0.135,1.098c0,3.868,2.483,7.004,5.56,7.004
					c3.06,0,5.543-3.136,5.543-7.004c0-0.424-0.076-0.808-0.135-1.115L947.254,956.523z"/>
				<path fill="#FBFAF6" d="M1010.923,956.83l-0.056-0.307c-0.097-0.656-0.673-1.137-1.329-1.137l0,0
					c-0.652,0-1.229,0.48-1.326,1.137c-0.328,1.902-1.464,3.27-2.693,3.27c-1.233,0-2.369-1.367-2.694-3.27
					c-0.096-0.656-0.655-1.137-1.329-1.137l0,0c-0.652,0-1.229,0.48-1.326,1.137l-0.059,0.307c-0.076,0.366-0.135,0.729-0.135,1.115
					c0,3.868,2.483,7.004,5.543,7.004c3.077,0,5.56-3.136,5.56-7.004C1011.078,957.521,1011.002,957.138,1010.923,956.83z"/>
			</g>
		</g>
		<g>
			<path fill="#3A002F" d="M848.989,960.484c-17.547,29.498-13.043,58.917-13.043,58.917s-68.636-39.33-45.874-114.043
				c13.143-43.156,56.783-38.656,70.73-15.796C870.482,905.358,870.02,925.118,848.989,960.484z"/>
		</g>
		<path fill="#EA3D4E" d="M1173.319,924.524c-0.076,0-0.152-0.021-0.249-0.021c-0.711-0.135-1.194-0.847-1.06-1.558
			c4.944-26.535,10.332-70.096,3.656-74.039c-0.097-0.06-0.307-0.06-0.538,0.055c-0.135,0.097-0.48,0.349-0.48,0.888
			c0,0.749-0.598,1.347-1.329,1.347c-0.732,0-1.326-0.598-1.326-1.347c0-1.347,0.673-2.542,1.827-3.194
			c1.019-0.58,2.251-0.618,3.193-0.041c10.468,6.178-1.039,69.615-2.386,76.812C1174.514,924.079,1173.955,924.524,1173.319,924.524
			z"/>
		<g>
			<path fill="#3A002F" d="M1126.468,863.01c32.555,0.19,54.473-17.608,54.473-17.608s0.771,75.024-71.252,92.284
				c-41.638,9.945-58.876-27.921-46.91-50.277C1071.073,871.899,1087.445,862.779,1126.468,863.01z"/>
		</g>
		<path fill="#EA3D4E" d="M1173.319,948.978c-4.31,0-7.967-8.733-7.946-15.893c0-6.889,3.561-12.525,7.967-12.508
			c4.386-0.018,7.967,5.602,7.946,12.528C1181.286,940.244,1177.611,948.978,1173.319,948.978z M1173.34,922.235
			c-3.889,0-7.041,4.865-7.041,10.85c0,6.271,3.287,14.2,7.021,14.2c3.716,0,7.041-7.929,7.041-14.2
			C1180.36,927.121,1177.208,922.235,1173.34,922.235z"/>
		<path fill="#EA3D4E" d="M1173.319,924.524c-0.712,0-1.288-0.56-1.326-1.271c-0.117-2.366-2.963-58.341,0.018-74.099
			c0.134-0.731,0.846-1.191,1.561-1.057c0.729,0.135,1.191,0.825,1.057,1.558c-2.904,15.43,0,72.886,0.021,73.463
			c0.038,0.731-0.521,1.364-1.25,1.405C1173.357,924.524,1173.34,924.524,1173.319,924.524z"/>
		<g>
			<path opacity="0.2" fill="#3A002F" d="M1173.378,882.425c7.715-19.818,7.562-37.023,7.562-37.023s-2.234,1.81-6.312,4.255
				C1173.454,855.89,1173.223,868.991,1173.378,882.425z"/>
		</g>
		<path fill="#EA3D4E" d="M1225.368,964.179L1225.368,964.179L1225.368,964.179L1225.368,964.179
			c3.771,0.038,6.889-3.615,6.001-8.198c-0.421-2.23-1.75-4.078-3.404-5.038c-1.654-0.964-3.578-1.039-5.312-0.29l-0.017,0.021l0,0
			l0.017-0.021c1.733-0.732,3.021-2.155,3.446-4.062c0.46-1.844-0.021-4.192-1.54-6.136c-1.52-1.944-3.712-3.022-5.677-3.022
			c-1.982-0.038-3.654,0.926-4.731,2.463v0.021c0,0,0,0-0.021,0c0.021-0.021,0.021-0.021,0.021-0.021
			c1.095-1.537,1.402-3.443,0.69-5.291c-0.69-1.826-2.441-3.519-4.772-4.289c-2.327-0.791-5.118-0.425-6.733,0.771
			c-1.676,1.191-2.387,3.001-2.231,4.887c0,0,0.018,0.017,0.018,0.037h-0.018c0-0.021,0-0.037,0-0.037
			c-0.117-1.886-1.115-3.581-2.925-4.504c-1.789-0.922-4.31-1.001-6.541,0.021c-4.582,2.096-5.466,6.868-3.156,9.811
			c0.018,0.021,0.018,0.021,0.018,0.021l0,0c0,0,0,0-0.018-0.021c-2.154-3.115-6.947-3.405-10.024-0.384
			c-2.521,2.463-2.791,5.927-1.212,8.485c-2.328-1.771-5.291-1.848-7.543-0.48c1.25-2.482,0.863-5.697-1.481-8.005
			c-3.08-3.021-7.87-2.731-10.046,0.384c0,0.021,0,0.021,0,0.021h-0.017c0.017,0,0.017,0,0.017-0.021
			c2.328-2.942,1.427-7.715-3.135-9.811c-2.231-1.022-4.772-0.943-6.541-0.021c-1.81,0.923-2.811,2.618-2.945,4.504
			c0,0,0,0.017,0,0.037l0,0c0-0.021,0-0.037,0-0.037c0.172-1.886-0.539-3.695-2.231-4.887c-1.616-1.195-4.368-1.578-6.755-0.753
			c-2.269,0.753-4.061,2.445-4.734,4.271c-0.729,1.848-0.403,3.754,0.674,5.291c0.021,0,0.021,0,0.021,0v0.021
			c0,0,0-0.021-0.021-0.021c-1.057-1.537-2.749-2.501-4.731-2.463c-1.944,0-4.157,1.078-5.677,3.022
			c-1.52,1.943-1.982,4.292-1.54,6.136c0.445,1.906,1.712,3.329,3.463,4.062l0,0v0.021v-0.021c-1.729-0.749-3.653-0.674-5.311,0.29
			c-1.654,0.96-3.001,2.808-3.423,5.038c-0.887,4.583,2.252,8.236,6.002,8.198l0,0c-3.771-0.193-6.982,3.388-6.405,7.812
			c0.576,4.428,4.541,7.004,8.156,5.926l0,0l0,0l0,0c-3.653,0.888-5.771,5.118-4.04,9.238c1.733,4.078,6.254,5.539,9.448,3.501l0,0
			l0,0l0,0c-3.312,1.848-4.196,6.541-1.347,10.005c2.846,3.502,7.407,3.502,10.024,0.791l0,0l0,0l0,0
			c-2.693,2.673-2.482,7.193,0.519,9.849c2.963,2.655,7.369,2.331,9.814-0.556l0,0l0,0l0,0c-2.463,2.887-2.003,7.272,0.998,9.734
			c3.021,2.463,7.39,2.003,9.755-0.96l0,0c-2.365,2.963-1.826,7.311,1.195,9.697c2.096,1.654,4.811,1.886,7.062,0.922
			c-0.172,1.692,0.27,3.426,1.402,4.869c2.331,2.98,6.658,3.481,9.7,1.095c1.886-1.499,2.808-3.75,2.652-5.964
			c2.252,0.964,4.945,0.732,7.045-0.922c3.021-2.387,3.561-6.734,1.191-9.697l0,0l0,0l0,0c2.369,2.963,6.717,3.423,9.738,0.96
			c3.019-2.462,3.46-6.848,1.019-9.734l0,0l0,0l0,0c2.425,2.887,6.831,3.211,9.812,0.556c2.983-2.655,3.215-7.176,0.521-9.849l0,0
			l0,0l0,0c2.617,2.711,7.158,2.711,10.024-0.791c2.828-3.464,1.944-8.157-1.347-10.005l0,0l0,0l0,0
			c3.194,2.038,7.715,0.577,9.428-3.501c1.73-4.12-0.366-8.351-4.04-9.238l0,0l0,0l0,0c3.615,1.078,7.58-1.498,8.156-5.926
			C1232.371,967.566,1229.139,963.985,1225.368,964.179z"/>
	</g>
	<g>
		<path opacity="0.15" fill="#1D1D1B" d="M1184.633,938.936c0.096,0.017,0.193,0.017,0.289,0.038
			C1184.826,938.952,1184.729,938.952,1184.633,938.936z"/>
		<path opacity="0.15" fill="#1D1D1B" d="M1161.736,938.974c0.097,0,0.193-0.021,0.29-0.038
			C1161.93,938.952,1161.833,938.974,1161.736,938.974z"/>
		<path opacity="0.15" fill="#1D1D1B" d="M1160.504,939.397c0.193-0.079,0.387-0.155,0.58-0.23
			C1160.891,939.242,1160.697,939.318,1160.504,939.397z"/>
		<path opacity="0.15" fill="#1D1D1B" d="M1185.596,939.167c0.193,0.075,0.366,0.151,0.56,0.23
			C1185.962,939.318,1185.789,939.242,1185.596,939.167z"/>
		<path opacity="0.15" fill="#1D1D1B" d="M1187.637,940.358c0.308,0.269,0.614,0.576,0.846,0.942
			C1188.251,940.935,1187.944,940.627,1187.637,940.358z"/>
		<path opacity="0.15" fill="#1D1D1B" d="M1169.085,941.937c0.06,0.075,0.097,0.172,0.155,0.269
			C1169.182,942.108,1169.145,942.012,1169.085,941.937z"/>
		<path opacity="0.15" fill="#1D1D1B" d="M1187.288,940.089c-0.19-0.152-0.404-0.308-0.636-0.442
			C1186.884,939.781,1187.098,939.937,1187.288,940.089z"/>
		<path opacity="0.15" fill="#1D1D1B" d="M1159.371,940.089c0.211-0.152,0.422-0.308,0.652-0.442
			C1159.793,939.781,1159.582,939.937,1159.371,940.089z"/>
		<path opacity="0.15" fill="#1D1D1B" d="M1158.176,941.301c0.253-0.366,0.539-0.674,0.847-0.942
			C1158.715,940.627,1158.429,940.935,1158.176,941.301z"/>
		<path opacity="0.15" fill="#1D1D1B" d="M1176.303,945.514c0,0.042-0.021,0.059-0.021,0.079c-0.905,1.04-1.924,1.692-2.963,1.692
			c-1.04,0-2.021-0.614-2.925-1.637c0.021,0.715-0.056,1.405-0.249,2.079c0.038-0.097,0.076-0.173,0.097-0.249
			c0.308,0.308,0.636,0.557,0.96,0.771c-0.038,0.017-0.056,0.038-0.097,0.038c1.33-0.425,2.79-0.425,4.179,0.055
			c0.383-0.248,0.767-0.518,1.133-0.901c0.155,0.691,0.441,1.347,0.829,1.962C1176.534,948.229,1176.206,946.86,1176.303,945.514z"
			/>
		<path opacity="0.15" fill="#1D1D1B" d="M1169.838,943.304c-0.021-0.079-0.059-0.135-0.097-0.214
			C1169.779,943.169,1169.8,943.225,1169.838,943.304z"/>
		<path opacity="0.15" fill="#1D1D1B" d="M1177.439,942.168c0.037-0.06,0.075-0.135,0.134-0.211
			C1177.515,942.033,1177.477,942.108,1177.439,942.168z"/>
		<path opacity="0.15" fill="#1D1D1B" d="M1176.496,944.322c-0.021,0.038-0.021,0.076-0.041,0.135
			C1176.476,944.398,1176.476,944.36,1176.496,944.322z"/>
		<path opacity="0.15" fill="#1D1D1B" d="M1176.918,943.11c-0.038,0.059-0.06,0.114-0.076,0.173
			C1176.858,943.225,1176.88,943.169,1176.918,943.11z"/>
		<path opacity="0.15" fill="#1D1D1B" d="M1170.222,944.437c-0.018-0.038-0.018-0.056-0.038-0.094
			C1170.204,944.381,1170.204,944.398,1170.222,944.437z"/>
	</g>
	<g>
		<path opacity="0.15" fill="#1D1D1B" d="M1179.918,929.353c-0.037-0.193-0.113-0.384-0.172-0.577
			C1179.805,928.969,1179.881,929.159,1179.918,929.353z"/>
		<path opacity="0.15" fill="#1D1D1B" d="M1166.989,938.414c-0.135-0.539-0.27-1.095-0.366-1.634
			C1166.72,937.319,1166.854,937.875,1166.989,938.414z"/>
		<path opacity="0.15" fill="#1D1D1B" d="M1172.704,924.349c-0.075-0.038-0.134-0.076-0.193-0.114l0,0
			c0.06,0.038,0.118,0.076,0.173,0.114H1172.704z"/>
		<path opacity="0.15" fill="#1D1D1B" d="M1172.183,923.851c0.042,0.076,0.08,0.114,0.118,0.19c0.017,0,0.017,0,0.017,0
			C1172.263,923.985,1172.225,923.927,1172.183,923.851z"/>
		<path opacity="0.15" fill="#1D1D1B" d="M1166.375,934.701c-0.06-0.538-0.076-1.077-0.076-1.616
			C1166.299,933.624,1166.315,934.163,1166.375,934.701z"/>
		<path opacity="0.15" fill="#1D1D1B" d="M1167.549,940.379c-0.173-0.521-0.328-1.061-0.483-1.616
			C1167.221,939.318,1167.376,939.857,1167.549,940.379z"/>
		<path opacity="0.15" fill="#1D1D1B" d="M1166.623,936.742c-0.097-0.539-0.152-1.077-0.211-1.637
			C1166.471,935.665,1166.526,936.203,1166.623,936.742z"/>
		<path opacity="0.15" fill="#1D1D1B" d="M1175.84,922.984c-0.097-0.059-0.193-0.097-0.286-0.135
			C1175.646,922.888,1175.743,922.926,1175.84,922.984z"/>
		<path opacity="0.15" fill="#1D1D1B" d="M1178.727,926.158c-0.075-0.114-0.155-0.231-0.23-0.346
			C1178.571,925.927,1178.651,926.044,1178.727,926.158z"/>
		<path opacity="0.15" fill="#1D1D1B" d="M1179.418,927.66c-0.076-0.155-0.152-0.308-0.211-0.463
			C1179.266,927.353,1179.342,927.505,1179.418,927.66z"/>
		<path opacity="0.15" fill="#1D1D1B" d="M1179.093,940.396c0.173-0.518,0.325-1.077,0.48-1.616
			C1179.418,939.318,1179.266,939.878,1179.093,940.396z"/>
		<path opacity="0.15" fill="#1D1D1B" d="M1177.898,924.849c-0.076-0.075-0.173-0.172-0.249-0.269
			C1177.726,924.677,1177.822,924.773,1177.898,924.849z"/>
		<path opacity="0.15" fill="#1D1D1B" d="M1172.069,923.62c0-0.038-0.021-0.08-0.021-0.118c0,0.038,0.021,0.08,0.021,0.097V923.62z"
			/>
		<path opacity="0.15" fill="#1D1D1B" d="M1176.918,923.792c-0.076-0.075-0.173-0.135-0.249-0.21
			C1176.745,923.657,1176.842,923.717,1176.918,923.792z"/>
		<path opacity="0.15" fill="#1D1D1B" d="M1174.244,924.138L1174.244,924.138c-0.059,0.059-0.117,0.097-0.172,0.135
			C1174.127,924.234,1174.186,924.196,1174.244,924.138z"/>
		<path opacity="0.15" fill="#1D1D1B" d="M1174.514,923.754L1174.514,923.754c-0.021,0.038-0.037,0.076-0.079,0.114
			C1174.477,923.83,1174.493,923.792,1174.514,923.754z"/>
		<path opacity="0.15" fill="#1D1D1B" d="M1176.013,921.348c0.366,0.214,0.694,0.463,1.022,0.731
			C1176.707,921.811,1176.379,921.562,1176.013,921.348z"/>
		<path opacity="0.15" fill="#1D1D1B" d="M1173.571,848.099c0.729,0.135,1.191,0.825,1.057,1.558
			c-1.385,7.387-1.443,24.436-1.136,40.252c-0.038-2.483-0.094-4.983-0.114-7.483c0-0.021,0.021-0.041,0.021-0.041
			c2.559-6.6,4.269-12.909,5.388-18.376c0,12.605-2.138,30.866-4.676,46.721c0.172,4.348,0.324,7.888,0.421,10.042
			c0.425,0.097,0.829,0.27,1.232,0.463c-0.23-0.117-0.441-0.252-0.673-0.328c2.079-11.507,8.716-51.199,5.349-67.612
			c0.519-4.887,0.501-7.892,0.501-7.892s-0.097,0.059-0.155,0.118c-0.038,0.037-0.114,0.097-0.193,0.134
			c-0.076,0.076-0.231,0.194-0.366,0.287c-0.173,0.135-0.383,0.29-0.632,0.483c-0.155,0.076-0.29,0.19-0.445,0.308
			c-0.229,0.151-0.459,0.307-0.711,0.501c-0.135,0.075-0.27,0.172-0.404,0.269c-0.308-0.365-0.653-0.693-1.02-0.887
			c-0.942-0.577-2.175-0.539-3.193,0.041c-0.771,0.442-1.289,1.153-1.578,1.982C1172.531,848.233,1173.05,848.002,1173.571,848.099z
			 M1175.129,848.962c0.231-0.114,0.441-0.114,0.538-0.055c0.021,0.017,0.038,0.055,0.076,0.055
			c-0.038,0.038-0.055,0.038-0.097,0.08c-0.286,0.172-0.594,0.362-0.922,0.556C1174.821,849.27,1175.032,849.042,1175.129,848.962z"
			/>
		<path opacity="0.15" fill="#1D1D1B" d="M1174.59,923.54c0.021-0.038,0.038-0.076,0.038-0.114c0.038-0.23,0.117-0.538,0.173-0.904
			c-0.056-0.018-0.114-0.059-0.173-0.076c0.021,0.404,0.021,0.636,0.021,0.674C1174.666,923.271,1174.628,923.405,1174.59,923.54
			L1174.59,923.54z"/>
		<path opacity="0.15" fill="#1D1D1B" d="M1174.072,909.727c0-0.403-0.021-0.808-0.042-1.232
			C1174.051,908.919,1174.072,909.323,1174.072,909.727z"/>
		<path opacity="0.15" fill="#1D1D1B" d="M1173.319,924.524c0.021,0,0.038,0,0.079,0
			C1173.357,924.524,1173.34,924.524,1173.319,924.524L1173.319,924.524z"/>
		<path opacity="0.15" fill="#1D1D1B" d="M1172.953,924.466c0.038,0,0.079,0.038,0.117,0.038c0.097,0,0.173,0.021,0.249,0.021l0,0
			C1173.185,924.524,1173.07,924.483,1172.953,924.466L1172.953,924.466z"/>
		<path opacity="0.15" fill="#1D1D1B" d="M1173.513,924.504l0.021-0.021c-0.041,0.021-0.097,0.041-0.135,0.041
			C1173.437,924.524,1173.454,924.504,1173.513,924.504z"/>
		<path opacity="0.15" fill="#1D1D1B" d="M1173.992,907.341c-0.037-0.922-0.075-1.848-0.097-2.808
			C1173.917,905.493,1173.955,906.436,1173.992,907.341z"/>
		<path opacity="0.15" fill="#1D1D1B" d="M1173.879,904.302c-0.021-0.964-0.059-1.924-0.076-2.925
			C1173.82,902.378,1173.857,903.338,1173.879,904.302z"/>
		<path opacity="0.15" fill="#1D1D1B" d="M1171.24,905.493c0,0.135,0,0.27,0.021,0.387
			C1171.24,905.763,1171.24,905.628,1171.24,905.493z"/>
		<path opacity="0.15" fill="#1D1D1B" d="M1170.798,889.369c0.021,0.653,0.021,1.31,0.038,1.944
			C1170.819,890.679,1170.819,890.022,1170.798,889.369z"/>
		<path opacity="0.15" fill="#1D1D1B" d="M1170.781,888.717c-0.27-14.183-0.193-29.153,0.884-37.368
			c-9.369,5.155-25.265,11.775-45.197,11.661c-12.142-0.059-22.088,0.771-30.286,2.425c2.349-2.79,3.389-6.237,3.022-9.334
			c-0.349-3.212-2.117-6.023-4.869-7.867c0.021-0.021,0.021-0.041,0.021-0.041c2.808,1.771,6.078,2.271,9.176,1.309
			c3.139-0.96,6.061-3.426,7.639-7.021c1.578-3.561,1.443-7.411,0.021-10.374c-1.405-3.001-4.078-5.118-7.37-5.926l0,0v-0.018v0.018
			c3.292,0.828,6.638,0.231,9.314-1.73c2.673-1.924,4.596-5.235,4.924-9.141c0.328-3.868-1.077-7.445-3.367-9.794
			c-2.31-2.365-5.521-3.502-8.889-3.232c-0.021,0-0.021,0-0.021,0l0,0c0,0,0,0,0.021,0c3.367-0.27,6.33-1.906,8.236-4.617
			c1.903-2.693,2.652-6.465,1.71-10.256c-0.96-3.792-3.443-6.714-6.386-8.195c-2.945-1.481-6.351-1.522-9.448-0.135h-0.021l0,0
			h0.021c3.098-1.388,5.366-3.888,6.271-7.082c0.904-3.156,0.425-6.983-1.73-10.236c-2.138-3.271-5.407-5.235-8.678-5.656
			c-3.291-0.463-6.503,0.614-9.007,2.925l0,0l0,0l0,0c2.521-2.311,3.851-5.429,3.657-8.736c-0.155-3.271-1.848-6.696-4.925-9.121
			c-0.23-0.172-0.5-0.286-0.752-0.462c5.445-1.941,9.873-3.848,12.621-5.35c4.773-2.846,16.722-9.617,15.568-22.336
			c-0.135-1.523-0.346-3.06-0.943-4.406l-0.463-0.964c-0.269-0.539-0.345-0.577-0.518-0.884c-0.425-0.656-0.926-1.271-1.426-1.734
			c-4.041-4.116-11.082-3.27-13.296,2.331c-1.019,2.636-0.538,5.75,1.119,7.791c1.671,2.079,4.538,2.462,6.444,1.077l-0.211-0.421
			c-1.886,0.922-4.158,0.093-5.156-1.619c-1.039-1.73-1.001-4.079-0.117-5.674c0.404-0.829,1.077-1.52,1.751-1.906
			c0.808-0.463,1.616-0.691,2.482-0.732c1.692-0.076,3.367,0.77,4.407,2.117c0.269,0.365,0.441,0.655,0.614,1.001
			c0.097,0.211,0.328,0.656,0.29,0.674l0.211,0.635c0.211,0.885,0.29,1.73,0.231,2.58c-0.155,1.692-0.809,3.329-1.6,5.155
			c-1.536,3.54-6.675,6.04-10.774,6.714c-23.627,2.869-32.807-9.562-70.402-17.104c-27.112-5.463-50.471,5.004-66.229,17.761
			c-0.518-0.021-1.019-0.059-1.558-0.076v315.804c2.404,0.193,4.752,0.27,7.08,0.345c-0.442,1.755-0.712,3.695-0.712,5.774
			c0,7.58,3.271,13.548,7.467,13.548c2.269,0,4.25-1.81,5.598-4.621c1.06,6.178,3.716,10.354,6.985,10.354
			c3.25,0,5.889-4.176,6.945-10.354c1.367,2.812,3.35,4.621,5.618,4.621c4.196,0,7.466-5.968,7.466-13.548
			c0-3.695-0.787-7.003-2.096-9.428c46.696-11.641,73.577-49.527,80.176-100.979c7.429,2.752,16.569,3.405,27.361,0.829
			c34.039-8.161,51.8-29.229,61.093-49.162C1170.781,888.6,1170.781,888.658,1170.781,888.717z M990.316,1040.528
			c-0.037-0.117-0.076-0.23-0.113-0.328c0.076-0.017,0.135-0.017,0.21-0.017C990.375,1040.298,990.354,1040.411,990.316,1040.528z
			 M1080.635,870.456c-0.113-0.829-0.23-1.692-0.365-2.521c0.846,0.615,1.75,1.077,2.714,1.423
			C1082.176,869.706,1081.405,870.09,1080.635,870.456z"/>
		<path opacity="0.15" fill="#1D1D1B" d="M1171.551,913.729c0,0.017,0,0.038,0,0.038S1171.551,913.746,1171.551,913.729z"/>
		<path opacity="0.15" fill="#1D1D1B" d="M1171.396,909.841c0,0.079,0.021,0.155,0.021,0.231
			C1171.416,909.996,1171.396,909.92,1171.396,909.841z"/>
		<path opacity="0.15" fill="#1D1D1B" d="M1180.402,939.588c0,0,0,0,0-0.018C1180.402,939.588,1180.402,939.588,1180.402,939.588
			L1180.402,939.588z"/>
		<path opacity="0.15" fill="#1D1D1B" d="M1181.055,936.279c0,0.038-0.018,0.097-0.018,0.155
			C1181.037,936.355,1181.055,936.317,1181.055,936.279z"/>
		<path opacity="0.15" fill="#1D1D1B" d="M1180.246,931.162c-0.021-0.193-0.075-0.366-0.097-0.539
			C1180.171,930.796,1180.226,930.969,1180.246,931.162z"/>
		<path opacity="0.15" fill="#1D1D1B" d="M1171.013,898.106c0,0.27,0.017,0.539,0.017,0.808
			C1171.029,898.646,1171.013,898.376,1171.013,898.106z"/>
		<path opacity="0.15" fill="#1D1D1B" d="M1170.933,895.603c0.021,0.27,0.021,0.539,0.021,0.791
			C1170.953,896.142,1170.953,895.872,1170.933,895.603z"/>
		<path opacity="0.15" fill="#1D1D1B" d="M1171.088,900.721c0,0.193,0.018,0.387,0.018,0.56
			C1171.105,901.107,1171.088,900.914,1171.088,900.721z"/>
		<path opacity="0.15" fill="#1D1D1B" d="M1171.164,903.128c0,0.172,0,0.328,0.021,0.518
			C1171.164,903.456,1171.164,903.3,1171.164,903.128z"/>
		<path opacity="0.15" fill="#1D1D1B" d="M1171.319,907.724c0,0.097,0.018,0.193,0.018,0.29
			C1171.337,907.917,1171.319,907.82,1171.319,907.724z"/>
		<path opacity="0.15" fill="#1D1D1B" d="M1170.878,892.774c0,0.366,0.017,0.712,0.017,1.061
			C1170.895,893.486,1170.878,893.141,1170.878,892.774z"/>
		<path opacity="0.15" fill="#1D1D1B" d="M1165.584,936.241c0.021,0.076,0.021,0.114,0.041,0.193
			C1165.604,936.355,1165.604,936.317,1165.584,936.241z"/>
		<path opacity="0.15" fill="#1D1D1B" d="M1181.286,933.105c0-0.77-0.038-1.522-0.114-2.251
			C1181.248,931.583,1181.286,932.336,1181.286,933.105z"/>
		<path opacity="0.15" fill="#1D1D1B" d="M1177.283,922.272c0.308,0.27,0.598,0.615,0.885,0.943
			C1177.881,922.888,1177.591,922.56,1177.283,922.272z"/>
		<path opacity="0.15" fill="#1D1D1B" d="M1179.649,938.435c0.135-0.539,0.269-1.077,0.366-1.616
			C1179.918,937.357,1179.784,937.896,1179.649,938.435z"/>
		<path opacity="0.15" fill="#1D1D1B" d="M1180.284,934.701c0.038-0.538,0.076-1.077,0.076-1.616
			C1180.36,933.624,1180.322,934.163,1180.284,934.701z"/>
		<path opacity="0.15" fill="#1D1D1B" d="M1180.016,936.76c0.096-0.557,0.172-1.095,0.23-1.654
			C1180.188,935.665,1180.111,936.203,1180.016,936.76z"/>
		<path opacity="0.15" fill="#1D1D1B" d="M1179.148,924.617c-0.229-0.383-0.459-0.767-0.729-1.115
			C1178.689,923.851,1178.92,924.234,1179.148,924.617z"/>
		<path opacity="0.15" fill="#1D1D1B" d="M1180.188,926.776c0.173,0.421,0.29,0.884,0.425,1.347
			C1180.478,927.66,1180.36,927.197,1180.188,926.776z"/>
		<path opacity="0.15" fill="#1D1D1B" d="M1173.513,890.292c0.021,1.136,0.038,2.271,0.059,3.388
			C1173.551,892.563,1173.533,891.428,1173.513,890.292z"/>
		<path opacity="0.15" fill="#1D1D1B" d="M1181.055,930.236c-0.076-0.497-0.155-1.019-0.27-1.499
			C1180.899,929.218,1180.979,929.739,1181.055,930.236z"/>
		<path opacity="0.15" fill="#1D1D1B" d="M1173.686,897.644c0.021,1.04,0.059,2.059,0.076,3.06
			C1173.744,899.702,1173.706,898.684,1173.686,897.644z"/>
		<path opacity="0.15" fill="#1D1D1B" d="M1173.589,893.873c0.021,1.212,0.059,2.403,0.097,3.577
			C1173.647,896.276,1173.609,895.085,1173.589,893.873z"/>
		<path opacity="0.15" fill="#1D1D1B" d="M1179.956,926.255c-0.172-0.422-0.345-0.826-0.556-1.213
			C1179.611,925.429,1179.784,925.833,1179.956,926.255z"/>
	</g>
</g>
</svg>
