<?xml version="1.0" encoding="utf-8"?>
<!-- Generator: Adobe Illustrator 16.0.0, SVG Export Plug-In . SVG Version: 6.00 Build 0)  -->
<!DOCTYPE svg PUBLIC "-//W3C//DTD SVG 1.1//EN" "http://www.w3.org/Graphics/SVG/1.1/DTD/svg11.dtd">
<svg version="1.1" id="Layer_1" xmlns="http://www.w3.org/2000/svg" xmlns:xlink="http://www.w3.org/1999/xlink" x="0px" y="0px"
   width="102.53031" height="141.64871" viewBox="0 0 102.53032 141.64872" enable-background="new 0 0 198.43 198.43" xml:space="preserve">
<g transform="translate(-48.631449,-29.419764)">
	<path fill="#FFFFFF" stroke="#000000" stroke-width="0.5" stroke-miterlimit="10" d="M52.979,141.049
		c1.735,7.693,4.988,17.863,10.576,23.693c11.081,11.561,10.972-16.73,21.949-11.947c3.488,1.518,6.214,3.725,10.117,4.533
		c2.991,0.623,6.095,0.641,9.062,0.1c6.292-1.147,11.661-9.354,17.454-2.902c2.859,3.187,3.938,11.125,8.827,12.039
		c6.251,1.168,10.497-11.147,12.284-15.274c13.651-31.533,6.316-75.7-3.064-107.343c-0.593-2.005-3.154-8.823-0.241-10.34
		c-4.747,2.472-9.99,4.044-15.312,4.707c-1.305,0.163-15.488,0.413-15.302-0.81c0.248-1.431,1.191-2.793,1.146-4.321
		c-1.422,1.562-5.633,3.148-7.707,3.046c1.251-1.519,2.191-3.413,2.441-5.396c-2.601,3.045-8.702,5.674-12.589,5.569
		c0.671-1.18,1.235-2.669,1.471-4.025c-5.426,3.275-12.309,5.843-18.726,5.969c-2.831,0.055-14.854,1.295-16.228-1.645
		c0.159,0.343,0.364,0.733,0.524,1.079c-0.839-0.616-1.986-0.831-2.893-1.125c4.838,1.57,0.869,15.029-0.06,18.193
		c-5.757,19.622-9.296,42.908-7.24,64.186c0.349,3.631,0.894,7.239,1.428,10.85C51.457,133.627,52.148,137.354,52.979,141.049z"/>
	<g>
		<path opacity="0.18" d="M144.88,79.665c0.138-6.943-0.393-13.947-0.904-20.881
			c0.604,8.142,4.1,16.608,5.03,24.904c2.26,20.09,3.605,41.854-2.91,61.34c-1.351,4.046-2.946,7.935-4.749,11.802
			c-1.632,3.5-3.381,7.76-7.287,9.312c-4.502,1.787-6.992-1.785-8.553-5.391c-1.493-3.451-3.614-8.445-8.195-8.277
			c-4.541,0.168-8.312,4.293-12.825,5.129c-4.953,0.92-10.294-0.303-14.794-2.395c-2.36-1.099-4.569-3.379-7.483-2.615
			c-6.208,1.619-6.756,16.32-14.063,15.09c-5.751-0.969-9.747-10.141-11.564-14.832c-4.619-11.92-6.04-25.521-7.102-38.172
			c-1.58-18.839,1.245-38.51,7.028-56.52c0.379,20.829-2.943,39.642,6.524,59.444c7.797,16.306,23.128,25.961,41.542,22.826
			c11.338-1.93,24.616-6.457,30.658-16.771C142.574,111.127,144.598,93.841,144.88,79.665z"/>
		<path opacity="0.18" d="M140.301,131.303c7.578-11.238,8.936-27.307,9.347-40.454
			c0.003-0.092,0.001-0.091-0.004,0.004c2.688,17.324,1.995,37.072-3.599,53.82c-1.351,4.043-2.945,7.934-4.749,11.801
			c-1.632,3.5-3.38,7.76-7.285,9.312c-4.504,1.789-6.992-1.783-8.554-5.39c-1.494-3.451-3.615-8.444-8.194-8.276
			c-4.54,0.17-8.313,4.291-12.826,5.129c-4.953,0.918-10.295-0.306-14.793-2.396c-2.36-1.1-4.569-3.379-7.484-2.617
			c-6.208,1.621-6.757,16.322-14.062,15.091c-5.753-0.968-9.748-10.14-11.567-14.83c-4.619-11.918-6.039-25.521-7.102-38.172
			c-0.683-8.148-1.154-17.044,0.783-25.068c-0.001-0.093-0.003-0.097-0.007-0.009c-0.44,11.169,2.955,24.833,9.547,33.984
			c6.95,9.646,17.3,19.293,29.978,19.685c9.913,0.305,20.143,0.422,29.864-1.783C127.464,139.348,135.513,138.402,140.301,131.303z"
			/>
	</g>
	<g>
		<path d="M117.21,48.453c0.521-0.107,1.067-0.195,1.641-0.271c2.229-0.297,13.492-0.596,14.236-3.295
			c-0.328,1.187-0.842,2.486-1.148,3.743c0.833-0.214,2.036,0.073,2.869-0.166c1.357,6.612,4.569,12.389,4.999,19.438
			c0.449,7.385-2.965,17.485-10.822,19.481c-20.509,5.21-26.476-20.072-18.705-34.027C111.981,50.298,114.165,49.072,117.21,48.453z
			"/>
		<path opacity="0.12" fill="#F5F5F5" d="M130.171,81.029c-2.719,1.359-6.154,1.536-9.042,0.935
			c-2.288-0.479-4.143-1.852-5.853-3.327c-1.291-1.114-2.905-3.559-4.628-3.942c-2.438-0.543-0.62,3.706-0.151,4.551
			c1.331,2.387,3.112,4.832,5.489,6.345c1.909,1.213,3.638,1.722,5.892,1.952c3.863,0.396,7.483-0.316,10.567-2.688
			c2.797-2.147,4.595-5.354,5.638-8.609c0.95-2.968,1.93-7.575,1.06-10.651c-0.907-3.211-1.766,0.689-1.928,1.787
			c-0.263,1.769-0.667,3.527-1.286,5.213c-0.965,2.63-1.879,5.659-4.229,7.481C131.226,80.441,130.712,80.758,130.171,81.029z"/>
		<path fill="#F2F3F3" d="M117.883,67.789c2.239,5.887,10.026,2.806,10.98-2.314c0.002,0.002,0.009-0.127-0.002-0.052
			c0.045,0.467,0.095,0.952,0.188,1.411c0.59,2.875,0.26,5.854-2.287,7.7c-1.974,1.428-4.73,1.731-7.012,0.861
			c-4.324-1.65-4.674-6.781-2.615-10.451C117.312,65.889,117.538,66.882,117.883,67.789z"/>
		<path fill="#F2F3F3" d="M125.853,67.728c-0.627,0.615-1.447,0.922-2.426,0.887c0.453-0.216,0.925-0.448,1.305-0.779
			c0.915-0.801,0.914-2.109,0.302-3.11c-0.653-1.063-1.902-1.268-3.052-1.029c0.544-0.113,0.982-0.456,1.547-0.541
			c1.104-0.162,2.25,0.003,2.898,0.955c0.562,0.825,0.562,1.858,0.091,2.724C126.329,67.181,126.107,67.48,125.853,67.728z"/>
	</g>
	
		<ellipse transform="matrix(-0.0053 -1 1 -0.0053 -67.0886 268.1705)" opacity="0.17" cx="99.835" cy="167.453" rx="3.606" ry="49.985"/>
	<path d="M101.499,74.904c0.086-0.071,0.171-0.142,0.255-0.207c0.298-0.23,0.671-0.473,0.854-0.808
		c0.367-0.677-0.562-1.007-1.049-1.21c-0.812-0.34-1.742-0.423-2.615-0.343c-0.806,0.072-3.33,0.66-2.176,1.943
		c0.48,0.535,1.183,0.824,1.658,1.362c0.326,0.369,0.505,1.271,1.039,1.396c0.489,0.113,0.758-0.413,0.951-0.757
		C100.693,75.787,101.054,75.282,101.499,74.904z"/>
	<g>
		<path d="M74.185,162.898c0.508-0.858,0.923-1.77,1.437-2.627c0.508-0.848,1.693-2.104,1.144-3.147
			c-0.991-1.877-3.708-0.211-4.72,0.658c-0.646,0.555-1.211,1.188-1.857,1.735c-1.855,1.574-3.809,0.58-5.521-0.651
			c-1.152-0.828-3.86-4.562-5.377-2.703c-0.959,1.174,0.596,3.34,1.219,4.364c0.966,1.589,2.172,3.097,3.399,4.492
			c1.098,1.25,2.438,2.506,4.148,2.812c1.476,0.264,2.946-0.683,3.809-1.777c0.607-0.772,1.234-1.533,1.799-2.342
			C73.849,163.448,74.021,163.176,74.185,162.898z"/>
		<path opacity="0.12" fill="#F5F5F5" d="M72.282,161.598c0.616-0.643,1.73-2.961,2.736-3.074
			c0.907-0.1,0.437,1.228,0.1,1.836c-0.374,0.675-6.279,9.584-7.233,6.548c-0.342-1.093,1.285-1.908,1.92-2.427
			C70.788,163.68,71.406,162.512,72.282,161.598z"/>
	</g>
	<g>
		<path d="M129.966,166.48c2.949,1.104,5.342-0.508,7.066-2.787c1.395-1.844,3.666-5.143,3.974-7.473
			c0.206-1.563-0.631-2.705-2.315-2.201c-1.352,0.404-2.635,2.148-3.584,3.125c-1.433,1.467-3.633,2.736-5.598,1.512
			c-1.564-0.973-2.036-3.165-3.692-4.084c-2.792-1.545-1.685,3.214-1.333,4.341C125.361,161.732,126.976,165.365,129.966,166.48z"/>
		<path opacity="0.12" fill="#F5F5F5" d="M136.823,160.078c0.616-0.646,1.729-2.963,2.734-3.076
			c0.907-0.101,0.438,1.227,0.101,1.836c-0.374,0.674-6.28,9.586-7.231,6.549c-0.344-1.094,1.283-1.91,1.918-2.428
			C135.329,162.16,135.947,160.99,136.823,160.078z"/>
	</g>
	<g>
		<path d="M82.064,47.303c-0.512-0.103-1.047-0.188-1.607-0.261c-2.18-0.281-13.185-0.441-13.956-3.254
			c0.339,1.234,0.865,2.589,1.186,3.898c-0.817-0.215-1.986,0.104-2.804-0.137c-1.209,6.936-4.245,13.021-4.541,20.402
			c-0.311,7.729,3.203,18.25,10.91,20.23c20.117,5.174,25.502-21.352,17.667-35.845C87.202,49.163,85.05,47.911,82.064,47.303z"/>
		<path opacity="0.12" fill="#F5F5F5" d="M69.302,81.55c2.612,1.423,5.955,1.689,8.786,1.166
			c2.241-0.413,4.085-1.73,5.79-3.152c1.288-1.073,2.927-3.461,4.614-3.799c2.39-0.475,0.506,3.702,0.024,4.529
			c-1.358,2.338-3.159,4.724-5.517,6.165c-1.893,1.157-3.587,1.616-5.789,1.786c-3.775,0.292-7.285-0.513-10.229-2.952
			c-2.667-2.211-4.334-5.448-5.265-8.711c-0.847-2.978-1.679-7.586-0.752-10.622c0.97-3.169,1.704,0.732,1.833,1.829
			c0.209,1.767,0.556,3.524,1.115,5.218c0.871,2.642,1.682,5.678,3.922,7.551C68.291,80.936,68.782,81.267,69.302,81.55z"/>
		<path fill="#F2F3F3" d="M70.86,67.84c2.229,5.854,9.976,2.79,10.925-2.303c0,0,0.007-0.126,0-0.052
			c0.042,0.464,0.093,0.947,0.186,1.402c0.586,2.861,0.259,5.825-2.274,7.659c-1.964,1.422-4.708,1.725-6.974,0.859
			c-4.303-1.644-4.651-6.748-2.604-10.396C70.294,65.95,70.519,66.938,70.86,67.84z"/>
		<path fill="#F2F3F3" d="M78.789,67.779c-0.623,0.612-1.439,0.917-2.412,0.883c0.451-0.216,0.92-0.445,1.298-0.775
			c0.911-0.796,0.909-2.098,0.297-3.094c-0.648-1.06-1.891-1.263-3.034-1.023c0.542-0.112,0.979-0.454,1.54-0.538
			c1.099-0.163,2.238,0.001,2.883,0.95c0.559,0.819,0.56,1.847,0.09,2.708C79.263,67.235,79.042,67.532,78.789,67.779z"/>
	</g>
	<path fill="none" stroke="#000000" stroke-miterlimit="10" d="M93.962,77.588c0.164,2.255,0.912,4.488,2.036,5.899
		c3.212,4.039,8.997,1.007,9.098-6.064"/>
	<g>
		<path d="M103.869,88.395c24.861,1.547,40.364,20.009,38.192,44.216c-0.327,3.638-0.197,7.908-2.707,10.877
			c-2.279,2.695-6.056,3.648-9.464,2.888c-4.051-0.904-8.033-4.295-12.268-3.836c-0.005,0-0.013,0-0.019,0.002
			c-3.812,0.346-6.141,3.274-9.489,4.621c-3.62,1.457-7.63,1.528-11.413,0.696c-4.66-1.022-8.281-4.965-13.345-4.52
			c-3.206,0.283-5.363,2.17-8.14,3.457c-1.934,0.897-4.488,1.172-6.598,1.311c-11.269,0.738-10.896-14.756-10.468-22.186
			c0.325-5.633,1.555-11.525,4.225-16.568c7.791-14.721,25.149-21.972,41.48-20.959C103.862,88.395,103.864,88.395,103.869,88.395z"
			/>
		<path opacity="0.07" fill="#F5F5F5" d="M74.456,98.668c-3.033,2.373-5.503,5.322-7.165,8.781
			c-0.38,0.791-2.774,5.733-1.084,6.182c1.562,0.412,4.922-4.844,5.687-5.771c2.104-2.547,4.287-5.034,7.04-6.922
			c4.423-3.025,9.483-4.798,14.552-6.43c0.9-0.29,4.066-1.12,3.173-2.577c-0.859-1.402-3.81-1.095-5.175-0.953
			C85.01,91.653,79.466,94.743,74.456,98.668z"/>
	</g>
	<g>
		<path fill="#D22027" stroke="#D22027" stroke-miterlimit="10" d="M75.287,134.629c3.147,1.426,6.191,3.434,9.386,4.871
			c3.067,1.383,6.073,2.758,9.159,4.121c1.487,0.655,3.019,1.172,4.413,2.061c0.062-4.727-0.382-9.365-0.31-14.053
			c0.087-5.584,0.209-11.226,0.187-16.854c-0.013-2.434-0.211-4.854-0.162-7.264c0.034-1.547-20.408-7.035-22.69-7.188
			c-0.057,2.622-0.109,5.235-0.041,7.86c0.073,2.849-0.003,5.693,0.071,8.541C75.344,118.438,74.698,134.361,75.287,134.629z"/>
		<path fill="#841618" stroke="#841618" stroke-miterlimit="10" d="M123.373,134.469c-3.454,1.461-6.788,3.504-10.292,4.979
			c-3.369,1.413-6.664,2.821-10.053,4.217c-1.634,0.674-3.312,1.207-4.843,2.108c-0.112-4.748,0.332-9.414,0.207-14.123
			c-0.148-5.61-0.339-11.278-0.366-16.938c-0.011-2.443,0.188-4.877,0.106-7.301c-0.049-1.556,22.416-7.246,24.93-7.416
			c0.086,2.634,0.171,5.259,0.12,7.899c-0.055,2.859,0.059,5.722,0.003,8.582C123.155,118.197,124.021,134.195,123.373,134.469z"/>
		<path fill="#ED4854" stroke="#D22027" stroke-miterlimit="10" d="M102.195,105.773c-1.39,0.584-2.699,1.193-4.09,1.506
			c-0.803-1.991-6.252-2.086-8.304-2.521c-3.557-0.754-7.058-1.809-10.457-3.002c-1.186-0.416-2.931-0.947-3.947-1.59
			c0.767,0.483,4.729-0.846,5.644-1.044c4.239-0.927,8.492-1.797,12.717-2.784c1.831-0.428,3.619-1.132,5.433-1.532
			c2.434-0.535,5.176,0.428,7.471,1.144c2.816,0.88,5.633,1.779,8.514,2.435c2.525,0.573,4.672,1.204,7.241,1.321
			c0.044,0,0.044-0.002,0-0.002c-1.477,0.614-3.05,0.821-4.589,1.166c-1.789,0.399-3.566,0.854-5.329,1.352
			C108.997,103.205,105.544,104.365,102.195,105.773z"/>
		<path fill="#49C4D7" stroke="#49C4D7" stroke-miterlimit="10" d="M91.876,102.023c-2.789,1.623-1.847,4.088-1.965,6.894
			c-0.156,3.666-0.759,7.293-0.904,10.969c-0.279,7.033-1.359,14.695,0.428,21.615c-1.43-0.914-3.369-1.189-4.7-2.041
			c-1.759-1.123-1.078-4.816-1.191-6.722c-0.333-5.637-0.451-11.311-0.264-16.952c0.119-3.533,0.395-7.043,0.285-10.578
			c-0.093-3.066,0.416-3.72,3.43-4.621c1.798-0.537,3.568-1.156,5.345-1.766c1.34-0.459,2.821-1.125,4.235-1.311
			c0.669-0.086,3.255-0.345,3.511,0.552c0.301,1.059-2.666,1.84-3.428,2.104C95.042,100.727,93.362,101.156,91.876,102.023z"/>
		<path fill="#10727C" stroke="#10727C" stroke-miterlimit="10" d="M106.096,102.086c2.622,1.604,1.761,4.076,1.899,6.881
			c0.177,3.664,0.771,7.285,0.938,10.959c0.325,7.031,1.403,14.686-0.207,21.617c1.328-0.924,3.142-1.215,4.379-2.076
			c1.636-1.139,0.965-4.824,1.056-6.73c0.263-5.639,0.321-11.312,0.097-16.957c-0.142-3.528-0.431-7.036-0.362-10.571
			c0.062-3.068-0.42-3.717-3.246-4.594c-1.688-0.523-3.35-1.129-5.016-1.724c-1.257-0.449-2.649-1.104-3.973-1.276
			c-0.625-0.082-3.049-0.319-3.279,0.578c-0.272,1.062,2.51,1.818,3.225,2.078C103.123,100.818,104.696,101.234,106.096,102.086z"/>
		<path fill="#49C4D7" stroke="#49C4D7" stroke-miterlimit="10" d="M94.112,92.069c-1.751-1.785-4.079-2.966-6.522-3.545
			c-2.101-0.497-3.273-0.05-4.623,1.605c-1.08,1.329-3.049,3.907-2.257,5.737c1.368,3.162,5.968,3.106,8.722,3.321
			c1.932,0.15,3.802,0.295,5.75,0.289c0.783-0.002,1.573,0.051,2.331-0.143c0.462-1.807,1.562-2.168,0.2-3.621
			C96.556,94.484,95.3,93.281,94.112,92.069z"/>
		<path fill="#49C4D7" stroke="#49C4D7" stroke-miterlimit="10" d="M110.3,90.415c1.292-0.606,4.213-1.64,5.636-0.841
			c1.3,0.729,1.534,3.148,1.932,4.437c0.295,0.957,0.807,2.212,0.693,3.231c-0.114,1.039-0.718,0.973-1.494,1.473
			c2.075-1.337-3.131-1.735-3.847-1.675c-1.899,0.16-3.809,0.607-5.613,1.223c-1.734,0.594-6.163,3.652-6.846,1.024
			c-0.646-2.495,2.638-2.574,3.977-3.635C106.833,93.997,107.681,91.643,110.3,90.415z"/>
		<path fill="#10727C" stroke="#49C4D7" stroke-miterlimit="10" d="M99.257,100.283c2.154-0.352,2.875-3.411,0.477-3.854
			c-1.561-0.288-3.069,1.096-2.825,2.648C97.077,100.162,98.331,100.436,99.257,100.283z"/>
		<path fill="#10727C" stroke="#49C4D7" stroke-miterlimit="10" d="M108.186,99.803c-1.718,0.184-3.441,0.402-5.177,0.306
			c1.659-0.603,3.385-1.014,5.084-1.659c2.031-0.771,4.725-1.227,6.9-1.212c0.518,0.004,4.181-0.128,3.16,1.302
			c-0.538,0.754-3.104,0.787-3.908,0.869c-1.847,0.188-3.707,0.151-5.552,0.34C108.524,99.766,108.355,99.784,108.186,99.803z"/>
		<path fill="#10727C" stroke="#49C4D7" stroke-miterlimit="10" d="M87.429,96.449c2.287,1.044,4.689,1.701,7.141,2.195
			c0.816,0.166,1.552,0.703,2.397,0.906c-0.995-0.24-2.292-0.137-3.331-0.254c-1.402-0.158-2.796-0.397-4.209-0.422
			c-2.332-0.041-5.312,0.289-7.404-1.052c-1.315-0.844-1.947-3.162-0.052-3.611C83.676,93.809,85.97,95.781,87.429,96.449z"/>
	</g>
	<g>
		<path d="M54.807,34.172c2.715-6.004,9.225-6.054,13.195-1.638c0.93,1.034,3.676,4.464,2.776,5.997
			c-0.91,1.552-7.536-0.339-7.907,0.887c-0.551,1.718-0.266,6.896-2.718,7.238c-4.276,0.586-6.155-6.804-6.009-9.764
			C54.191,35.934,54.426,35.017,54.807,34.172z"/>
		<path opacity="0.12" fill="#F5F5F5" d="M57.071,43.534c1.282,1.383,3.019,2.534,4.212,0.261
			c0.398-0.762,0.947-2.141,0.753-3.03c-0.233-1.074-0.961-1.092-1.924-1.074c-1.074,0.02-1.937-0.239-2.386-1.262
			c-0.659-1.498,0.165-2.873-0.199-4.332c-0.549-2.2-2.434,2.257-2.538,2.814C54.532,39.391,55.36,41.687,57.071,43.534z"/>
	</g>
	<g>
		<path d="M137.499,30.49c6.641,0.876,8.542,7.052,5.355,12.082c-0.746,1.179-3.315,4.765-5.068,4.346
			c-1.778-0.426-1.816-7.266-3.12-7.271c-1.835-0.035-6.817,1.706-7.85-0.528c-1.791-3.902,4.896-7.787,7.83-8.488
			C135.601,30.403,136.563,30.366,137.499,30.49z"/>
		<path opacity="0.12" fill="#F5F5F5" d="M141.485,43.534c-1.396,1.292-3.27,2.35-4.474,0.136
			c-0.401-0.74-0.946-2.077-0.718-2.925c0.276-1.024,1.05-1.021,2.069-0.979c1.141,0.048,2.061-0.178,2.563-1.145
			c0.741-1.417-0.097-2.76,0.33-4.147c0.642-2.096,2.52,2.229,2.614,2.769C144.289,39.633,143.348,41.811,141.485,43.534z"/>
	</g>
	<g>
		<g>
			<path d="M128.513,103.621c-0.531,1.553-1.135,3.059-2.635,4.418c-1.892,1.715-8.185,2.961-6.729,6.395
				c1.582,3.729,9.651,2.721,13.21,1.701c1.453-0.416,2.941-1.043,4.263-1.809c2.997-1.734,4.314-2.525,4.91-5.783
				c0.444-2.428,1.829-20.906-4.308-16.44c-2.824,2.057-5.248,4.685-7.061,7.582C129.347,100.99,128.954,102.322,128.513,103.621z"
				/>
		</g>
		<path opacity="0.12" fill="#F5F5F5" d="M136.005,113.99c-2.045,1.079-4.451,1.635-6.665,1.922
			c-1.349,0.174-9,0.729-7.638-2.052c0.938-1.903,4.862-0.938,6.469-1.37c4.561-1.229,8.389-3.699,9.854-8.234
			c0.292-0.908,0.943-3.779,2.522-3.062c1.197,0.541,0.69,4.267,0.622,5.32c-0.147,2.326-1.312,4.512-3.12,6.09
			C137.433,113.141,136.743,113.6,136.005,113.99z"/>
	</g>
	<g>
		<g>
			<path d="M69.749,103.586c0.555,1.633,1.185,3.207,2.715,4.524c1.926,1.66,8.286,2.326,6.864,6.229
				c-1.544,4.238-9.691,4.025-13.292,3.305c-1.472-0.293-2.979-0.813-4.319-1.502c-3.044-1.562-4.385-2.278-5.026-5.762
				c-0.479-2.6-2.121-22.581,4.123-18.39c2.876,1.931,5.354,4.526,7.221,7.485C68.875,100.812,69.286,102.219,69.749,103.586z"/>
		</g>
		<path opacity="0.12" fill="#F5F5F5" d="M62.223,115.037c2.083,1.121,4.523,1.68,6.765,1.957
			c1.366,0.17,9.11,0.662,7.699-2.265c-0.97-2.008-4.93-0.938-6.559-1.377c-4.626-1.248-8.526-3.817-10.064-8.606
			c-0.309-0.961-1.002-3.996-2.589-3.22c-1.205,0.593-0.646,4.533-0.563,5.65c0.178,2.463,1.379,4.764,3.229,6.416
			C60.769,114.156,61.473,114.633,62.223,115.037z"/>
	</g>
</g>
</svg>
