<?xml version="1.0" encoding="utf-8"?>
<!-- Generator: Adobe Illustrator 16.0.0, SVG Export Plug-In . SVG Version: 6.00 Build 0)  -->
<!DOCTYPE svg PUBLIC "-//W3C//DTD SVG 1.1//EN" "http://www.w3.org/Graphics/SVG/1.1/DTD/svg11.dtd">
<svg version="1.1" id="Layer_1" xmlns="http://www.w3.org/2000/svg" xmlns:xlink="http://www.w3.org/1999/xlink" x="0px" y="0px"
   width="103.88421" height="139.89392" viewBox="0 0 103.88421 139.89393" enable-background="new 0 0 198.43 198.43" xml:space="preserve">
<g transform="translate(-48.810414,-29.571546)">
		<ellipse transform="matrix(-0.0078 -1 1 -0.0078 -61.9968 267.7369)" opacity="0.17" cx="101.831" cy="164.626" rx="4.824" ry="48.622"/>
	<path fill="#FFFFFF" stroke="#000000" stroke-width="0.5" stroke-miterlimit="10" d="M109.092,158.827
		c-1.498,0.907-2.727,2.043-3.104,3.516c-1.338,5.225,8.216,4.761,11.232,4.236c49.781-8.646,32.352-92.333,23.172-123.453
		c-0.59-2.002-3.135-8.822-0.264-10.348c-4.68,2.485-9.853,4.073-15.103,4.751c-1.289,0.166-15.291,0.454-15.106-0.77
		c0.24-1.433,1.17-2.799,1.121-4.328c-1.4,1.565-5.552,3.165-7.603,3.067c1.232-1.523,2.156-3.42,2.4-5.408
		c-2.562,3.055-8.579,5.702-12.416,5.608c0.66-1.185,1.216-2.674,1.442-4.034c-5.349,3.294-12.139,5.88-18.471,6.022
		c-2.794,0.063-14.66,1.336-16.021-1.602c0.158,0.342,0.36,0.732,0.521,1.077c-0.818-0.605-1.931-0.819-2.812-1.104
		c4.889,1.576,0.41,10.941-0.414,13.543c-7.244,22.871-8.982,44.926-6.646,68.903c0.354,3.634,0.9,7.244,1.438,10.854
		c0.556,3.746,1.246,7.476,2.077,11.175c1.717,7.644,5.507,14.621,11.727,19.466c7.518,5.854,16.763,6.343,26.013,7.472
		c3.62,0.44,10.396-0.016,8.753-4.793c-1.098-3.199-4.201-4.691-6.833-6.434c-1.176-0.78-2.641-1.304-3.698-2.228
		c-0.923-0.803-1.491-1.846,0.283-1.495c3.988,0.79,7.601,3.514,11.771,3.688c2.15,0.093,3.949,0.26,6.012-0.435
		c1.771-0.596,3.582-1.052,5.354-1.64c0.791-0.263,4.596-2.14,4.268-0.04c-0.186,1.17-2.27,1.725-3.182,2.104
		C113.416,156.858,111.027,157.653,109.092,158.827z"/>
	<path opacity="0.18" d="M109.295,158.388c-1.213,0.611-2.238,1.469-2.83,2.802
		c-1.773,3.999,2.752,5.825,5.91,5.846c1.709,0.01,3.668,0.017,5.352-0.273c4.396-0.758,9.234-2.643,13.078-4.884
		c3.549-2.071,6.545-4.996,8.99-8.275c1.252-1.677,2.361-3.446,3.391-5.266c0.746-1.32,1.15-2.816,1.771-4.177
		c1.668-3.67,3.223-7.666,3.86-11.683c0.611-3.854,0.832-7.763,1.564-11.599c0.412-2.147,0.393-4.312,0.512-6.494
		c0.193-3.517,0.271-7.039,0.238-10.562c-0.029-3.02-1.021-5.893-0.93-8.93c0.112-3.896-0.685-8.138-1.291-11.981
		c-0.687-4.342-1.629-8.691-2.347-12.992c-0.135-0.806-0.396-1.766-0.34-2.481c-0.27,3.402-0.072,6.708-0.766,10.136
		c-0.691,3.422-1.785,6.8-3.406,9.896c-2.426,4.635-5.998,8.592-9.449,12.481c-2.834,3.193-5.676,6.407-9.477,8.469
		c-9.012,4.883-20.607,5.084-30.579,4.273c-14.265-1.156-25.957-10.965-33.303-22.906c-5.496-8.938-6.376-20.695-4.195-30.727
		c-1.729,3.439-1.932,7.419-2.482,11.157c-1.298,8.826-2.634,17.786-2.367,26.747c0.141,4.807-0.029,9.623,0.178,14.428
		c0.105,2.476,0.711,4.883,0.88,7.342c0.096,1.405,0.175,2.799,0.41,4.188c0.359,2.137,0.506,4.281,0.805,6.426
		c0.689,4.941,1.521,9.928,3.207,14.629c2.236,6.233,5.829,12.096,11.103,16.199c7.518,5.854,16.761,6.344,26.012,7.471
		c3.621,0.442,10.395-0.014,8.752-4.793c-1.099-3.196-4.2-4.688-6.832-6.433c-1.177-0.778-2.643-1.302-3.7-2.228
		c-0.922-0.804-1.491-1.845,0.283-1.492c3.99,0.789,7.602,3.51,11.77,3.686c2.152,0.091,3.951,0.259,6.013-0.434
		c1.77-0.598,3.582-1.054,5.354-1.642c0.721-0.237,2.699-1.436,3.389-1.011c1.771,1.094-1.493,2.776-2.241,3.052
		C113.674,157.052,111.242,157.405,109.295,158.388z"/>
	<path opacity="0.18" d="M109.312,158.671c-1.211,0.72-2.233,1.68-2.787,3.063
		c-2.399,5.99,7.896,5.58,11.123,5.023c3.879-0.666,7.941-2.002,11.402-3.869c3.049-1.643,5.738-3.77,8.139-6.256
		c4.183-4.336,7.207-9.777,9.191-15.437c1.205-3.438,2.516-6.981,3-10.608c0.414-3.088,0.527-6.207,0.942-9.294
		c0.416-3.096,1.06-6.174,1.064-9.312c0.01-4.268-0.873-8.584-1.006-12.877c-0.066-2.125-0.021-4.254-0.127-6.378
		c-0.053-1.038-0.178-2.059-0.291-3.09c-0.07-0.655-0.512-1.92-0.404-2.509c-4.418,24.02-33.348,42.69-56.91,39.983
		c-11.184-1.283-20.864-6.694-27.763-15.565c-5.603-7.206-13.573-20.661-13.61-30.035c0-0.144,0.002-0.132,0.009,0.035
		c-3.054,10.824-1.057,26.115,0.021,37.134c0.355,3.633,0.902,7.245,1.439,10.854c0.559,3.746,1.25,7.474,2.084,11.173
		c1.721,7.644,5.519,14.622,11.754,19.466c7.536,5.854,16.801,6.344,26.072,7.473c3.631,0.441,10.419-0.016,8.775-4.793
		c-1.104-3.198-4.211-4.69-6.85-6.434c-1.18-0.779-2.647-1.303-3.709-2.228c-0.925-0.803-1.494-1.846,0.284-1.494
		c3.997,0.792,7.618,3.513,11.798,3.688c2.155,0.09,3.959,0.258,6.022-0.436c1.775-0.597,3.592-1.053,5.369-1.641
		c0.834-0.274,2.238-1.216,3.125-1.008c3.133,0.737-3.322,3.446-4.104,3.698C112.02,157.438,110.564,157.925,109.312,158.671z"/>
	<path d="M100.068,160.591c-0.487-0.484-1.021-0.904-1.533-1.24c-1.18-0.774-3.836-3.758-5.282-3.496
		c-2.337,0.427-0.507,1.769-0.023,3.308c1.081,3.446-0.527,3.522-2.697,5.258c-2.651,2.122,1.777,2.992,3.151,3.188
		c2.211,0.314,6.917,0.844,7.959-1.989C102.359,163.673,101.381,161.892,100.068,160.591z"/>
	<path d="M107.328,160.743c-2.527,2.543-1.056,5.248,2.133,5.905c3.121,0.646,6.022,0.547,9.024-0.598
		c3.025-1.15,0.957-2.695-1.245-3.205c-0.574-0.134-2.783-0.154-3.07-0.682c-0.418-0.771,0.969-1.659,1.346-2.289
		c0.861-1.438,1.285-3.619-0.885-3.254C112.418,156.995,108.895,159.164,107.328,160.743z"/>
	<path opacity="0.12" fill="#F5F5F5" d="M112.629,164.901c0.457-0.029,0.906-0.075,1.328-0.111
		c0.67-0.057,1.352-0.178,2.018-0.246c0.469-0.048,1.379-0.53,1.748-0.052c0.264,0.338-0.131,0.632-0.399,0.795
		c-0.619,0.371-1.5,0.551-2.188,0.76c-2.252,0.682-4.32,0.666-6.379-0.51c-0.729-0.416-2.113-1.333-1.984-2.31
		c0.23-1.75,2.314,0.825,2.687,1.078C110.367,164.923,111.52,164.969,112.629,164.901z"/>
	<g>
		<path d="M138.268,29.636c6.332,0.829,8.158,6.794,5.135,11.664c-0.709,1.141-3.151,4.613-4.823,4.212
			c-1.695-0.407-1.748-7.017-2.99-7.017c-1.748-0.03-6.496,1.665-7.482-0.492c-1.717-3.767,4.65-7.539,7.445-8.224
			C136.459,29.558,137.375,29.519,138.268,29.636z"/>
		<g>
			<path d="M56.673,34.469c2.587-5.839,8.825-5.904,12.64-1.625c0.896,1.002,3.533,4.328,2.677,5.817
				c-0.869,1.512-7.225-0.309-7.577,0.883c-0.523,1.67-0.239,6.702-2.587,7.04c-4.1,0.58-5.915-6.593-5.781-9.469
				C56.087,36.182,56.309,35.291,56.673,34.469z"/>
			<path opacity="0.12" fill="#F5F5F5" d="M58.708,43.941c1.272,1.39,3,2.543,4.179,0.251
				c0.396-0.767,0.937-2.154,0.741-3.05c-0.234-1.081-0.956-1.096-1.912-1.075c-1.066,0.021-1.921-0.235-2.37-1.264
				c-0.657-1.505,0.158-2.89-0.207-4.356c-0.55-2.213-2.41,2.276-2.512,2.838C56.18,39.781,57.006,42.088,58.708,43.941z"/>
		</g>
		<path opacity="0.12" fill="#F5F5F5" d="M141.902,42.143c-1.375,1.297-3.223,2.359-4.416,0.148
			c-0.396-0.739-0.938-2.076-0.715-2.925c0.271-1.024,1.035-1.023,2.041-0.984c1.125,0.044,2.033-0.184,2.529-1.152
			c0.727-1.42-0.104-2.761,0.313-4.152c0.63-2.099,2.492,2.225,2.589,2.764C144.66,38.231,143.738,40.414,141.902,42.143z"/>
	</g>
	<path opacity="0.12" fill="#F5F5F5" d="M97.504,167.192c0.854-0.11,1.873-0.401,2.517-1.008
		c0.41-0.385,1.08-1.477,0.652-2.043c-0.494-0.647-1.446,0.29-1.865,0.6c-0.774,0.572-1.561,0.859-2.529,0.864
		c-0.996,0.005-1.938-0.226-2.885-0.512c-0.516-0.157-1.287-0.368-1.819-0.192c-0.959,0.314-0.19,1.191,0.328,1.439
		c0.612,0.291,1.311,0.41,1.972,0.53C95.01,167.079,96.344,167.347,97.504,167.192z"/>
	<path d="M118.473,46.701c0.516,0.033,1.057,0.095,1.623,0.183c4.133,0.647,10.994,3.134,12.732-2.488
		c-0.125,0.408-0.746,3.4-1.007,3.478c0.802-0.237,1.955,0.001,2.75-0.261c1.355,6.451,4.486,12.019,4.955,18.934
		c0.314,4.647-0.157,12.492-3.45,16.074c-5.32,5.789-8.992-3.395-14.812-1.72c-6.104,1.754-10.236,8.414-12.725-1.375
		c-1.851-7.272-0.604-14.854,0.149-22.19C109.422,50.234,111.926,46.272,118.473,46.701z"/>
	<path opacity="0.12" fill="#F5F5F5" d="M115.162,82.678c1.604-0.85,2.932-2.331,4.737-2.873
		c2.05-0.617,4.752-0.005,6.736,0.651c1.232,0.404,2.021,0.999,3.002,1.74c3.367,2.546,9.182-4.064,7.062-4.905
		c-0.421-0.167-1.554,0.48-1.906,0.626c-1.113,0.458-2.037,1.088-3.312,1.185c-2.104,0.158-4.825-0.822-6.885-1.267
		c-2.18-0.473-3.457-0.562-5.52,0.4c-3.293,1.533-5.105-0.108-7.074-2.313c-0.769-0.862-2.219-0.959-2.877-0.03
		c-0.666,0.942,0.02,2.562,0.235,3.579C109.801,81.525,112.531,84.07,115.162,82.678z"/>
	<path d="M102.381,74.963c0.09-0.076,0.178-0.148,0.264-0.217c0.306-0.241,0.688-0.494,0.873-0.844
		c0.377-0.704-0.58-1.047-1.078-1.257c-0.834-0.352-1.787-0.435-2.684-0.35c-0.825,0.078-3.416,0.696-2.229,2.029
		c0.494,0.556,1.218,0.854,1.704,1.412c0.336,0.385,0.522,1.32,1.07,1.449c0.504,0.118,0.777-0.431,0.975-0.789
		C101.559,75.883,101.928,75.358,102.381,74.963z"/>
	<path d="M104.475,92.329c24.729,1.473,40.193,19.716,38.094,43.689c-0.315,3.604-0.176,7.834-2.664,10.779
		c-2.262,2.674-6.012,3.627-9.403,2.881c-4.033-0.886-7.998-4.235-12.209-3.77c-0.006,0.002-0.013,0.002-0.019,0.002
		c-3.793,0.352-6.102,3.259-9.428,4.601c-3.598,1.45-7.582,1.532-11.348,0.718c-4.638-1.004-8.249-4.897-13.281-4.442
		c-3.188,0.287-5.328,2.162-8.086,3.442c-1.922,0.894-4.46,1.17-6.557,1.312c-11.205,0.76-10.874-14.584-10.467-21.941
		c0.31-5.578,1.517-11.414,4.158-16.417c7.711-14.596,24.955-21.816,41.199-20.854C104.465,92.328,104.469,92.329,104.475,92.329z"
		/>
	<path opacity="0.07" fill="#F5F5F5" d="M76.426,106.748c-3.392,2.658-6.154,5.957-8.007,9.819
		c-0.425,0.886-3.093,6.409-1.197,6.901c1.756,0.458,5.505-5.419,6.358-6.454c2.349-2.85,4.791-5.633,7.872-7.744
		c4.947-3.393,10.614-5.384,16.291-7.219c1.009-0.324,4.555-1.262,3.549-2.885c-0.972-1.562-4.274-1.211-5.802-1.047
		C88.236,98.891,82.032,102.354,76.426,106.748z"/>
	<path fill="none" stroke="#000000" stroke-miterlimit="10" d="M94.917,75.287c0.256,2.323,0.778,4.228,1.949,5.84
		c3.097,4.267,8.762,1.105,8.92-6.332"/>
	<path fill="#F2F3F3" d="M118.008,64.396c2.428,6.417,10.801,3.032,11.816-2.556c0,0.001,0.008-0.14-0.003-0.058
		c0.048,0.509,0.104,1.038,0.205,1.54c0.644,3.135,0.295,6.388-2.44,8.405c-2.123,1.566-5.09,1.906-7.545,0.963
		c-4.66-1.79-5.051-7.389-2.845-11.396C117.391,62.324,117.637,63.407,118.008,64.396z"/>
	<path fill="#F2F3F3" d="M122.459,62.383c-1.851-2.338-0.25-5.315,2.584-5.486c3.408-0.208,3.947,5.16,1.27,6.548
		c-0.961,0.498-2.082,0.371-2.963-0.239C122.996,62.961,122.699,62.686,122.459,62.383z"/>
	<path fill="#F2F3F3" d="M122.162,65.393c0.881-1.024-0.279-2.282-1.441-1.823C118.781,64.336,120.551,67.269,122.162,65.393z"/>
	<g>
		<path fill="#CD2027" d="M82.954,90.189c9.044,1.16,13.615,8.111,17.862,15.017c3.134-6.154,7.015-11.285,13.836-14.148
			c8.554-3.587,18.543,2.984,22.252,10.346c6.33,12.562-1.639,24.511-11.108,32.738c-4.203,3.654-8.055,5.917-11.193,10.483
			c-1.879,2.734-7.012,9.734-11.061,8.978c-2.07-0.389-5.371-4.422-7.295-5.666c-8.612-5.557-16.849-11.383-25.685-16.854
			c-7.41-4.588-12.199-13.296-10.508-21.899C62.091,98.836,71.061,88.665,82.954,90.189z"/>
		<path opacity="0.79" fill="#F5F5F5" d="M76.165,94.056c1.554-0.745,3.261-1.203,5.222-1.218
			c1.326-0.011,6.016,1.158,3.51-1.086c-0.767-0.688-2.885-0.958-3.895-0.962c-1.925-0.004-3.969,0.436-5.771,1.087
			c-3.364,1.216-6.965,3.527-8.62,6.766c-1.447,2.828-0.979,4.338,1.659,1.769C70.773,97.972,73.181,95.486,76.165,94.056z"/>
		<path opacity="0.94" fill="#7A1315" d="M106.65,100.387c-1.014,0.892-2.33,2.521-3.737,2.451
			c0.321-2.554,3.688-5.472,5.453-7.311c2.387-2.486,5.184-4.295,8.633-5.009c1.739-0.36,3.266-0.283,4.979,0.228
			c0.078,0.013,0.078,0.013,0,0C115.98,89.692,110.52,96.979,106.65,100.387z"/>
	</g>
	<g>
		<path d="M137.668,100.766c-0.381-0.326-0.738-0.715-1.074-1.173c-1.338-1.835-2.008-5.697-4.971-3.211
			c-2.281,1.917-1.814,5.817-0.75,8.276c1.606,3.718,4.606,6.918,7.612,9.53c2.312,2.013,5.025,3.921,8.046,4.655
			c1.885,0.459,5.69,1.146,5.856-1.612c0.189-3.162,0.478-6.286,0.176-9.44c-0.233-2.459,0.181-5.164-0.836-7.51
			c-1.582-3.657-5.604,0.803-7.795,1.454C141.574,102.439,139.396,102.255,137.668,100.766z"/>
	</g>
	<path opacity="0.12" fill="#F5F5F5" d="M140.779,114.494c1.691,1.389,6.744,4.259,9.091,3.239
		c2.912-1.262,0.92-4.604-1.175-5.467c-2.897-1.195-6.041-1.771-8.817-3.269c-1.178-0.634-2.476-1.522-3.426-2.456
		c-1.138-1.119-1.554-2.404-2.486-3.629c-0.865-1.135-1.898-0.855-1.891,0.678c0.008,1.572,1.186,3.205,2.102,4.414
		C136.027,110.444,138.402,112.541,140.779,114.494z"/>
	<g>
		<path d="M63.544,104.104c0.357-0.371,0.688-0.803,0.985-1.299c1.191-1.994,1.456-5.953,4.829-3.78
			c2.604,1.676,2.556,5.65,1.722,8.243c-1.263,3.918-4.034,7.469-6.878,10.432c-2.49,2.594-4.954,4.264-8.327,5.478
			c-1.703,0.614-5.352,1.994-5.855-0.877c-0.613-3.5-0.93-7.043-1.071-10.593c-0.083-2.053-0.69-6.499,1.532-7.812
			c1.87-1.103,4.719,1.544,6.624,1.878C59.648,106.22,61.905,105.793,63.544,104.104z"/>
	</g>
	<path opacity="0.12" fill="#F5F5F5" d="M61.869,117.557c-1.601,1.506-6.45,4.712-8.838,3.825
		c-2.963-1.101-1.176-4.598,0.854-5.595c3.265-1.606,6.947-2.66,9.955-4.729c1.634-1.123,3.31-3.311,4.244-5.037
		c0.434-0.801,1.368-2.271,1.933-1.121c0.717,1.458-1.212,4.56-1.965,5.704C66.355,113.179,64.117,115.44,61.869,117.557z"/>
	<g>
		<path opacity="0.57" fill="#F2868C" d="M134.314,86.176c-0.471,0.079-0.971,0.011-1.854,0.268
			c-2.633,0.766,0.672,2.395,1.549,3.37c1.715,1.904,3.443,1.872,5.623,0.071c2.361-1.952,2.568-4.698,3.303-7.445
			c0.369-1.376,2.154-7.952-1.406-6.235c-1.854,0.895-2.711,3.363-3.338,5.163c-0.448,1.29-1.545,3.067-2.518,4.013
			C135.096,85.938,134.715,86.109,134.314,86.176z"/>
		<path opacity="0.57" fill="#F2868C" d="M66.121,86.166c0.459,0.088,0.945,0.03,1.803,0.308
			c2.546,0.821-0.706,2.378-1.582,3.334c-1.711,1.866-3.396,1.797-5.479-0.051c-2.258-2.002-2.4-4.753-3.057-7.514
			c-0.329-1.383-1.926-7.996,1.505-6.204c1.786,0.934,2.567,3.422,3.141,5.233c0.408,1.298,1.438,3.1,2.365,4.065
			C65.366,85.91,65.732,86.09,66.121,86.166z"/>
	</g>
	<g>
		<path d="M81.908,47.199c-0.515,0.042-1.056,0.112-1.619,0.211c-4.119,0.719-10.938,3.324-12.771-2.268
			c0.134,0.406,0.804,3.387,1.066,3.458c-0.806-0.223-1.953,0.036-2.753-0.213c-1.244,6.474-4.277,12.094-4.626,19.016
			c-0.233,4.654,0.374,12.487,3.729,16.013c5.418,5.695,8.929-3.548,14.775-1.976c6.129,1.648,10.376,8.236,12.694-1.594
			c1.724-7.305,0.345-14.864-0.535-22.186C91.016,50.575,88.445,46.658,81.908,47.199z"/>
		<path fill="#F2F3F3" d="M72.402,64.853c2.426,6.417,10.8,3.033,11.813-2.556c0,0,0.007-0.139-0.001-0.058
			c0.048,0.509,0.103,1.038,0.205,1.538c0.641,3.137,0.294,6.389-2.442,8.408c-2.121,1.564-5.09,1.905-7.545,0.961
			c-4.659-1.789-5.05-7.387-2.843-11.396C71.783,62.782,72.027,63.865,72.402,64.853z"/>
		<path fill="#F2F3F3" d="M78.631,61.735c1.882-2.298,0.365-5.309-2.438-5.542c-3.369-0.281-4.021,5.073-1.397,6.52
			c0.939,0.519,2.052,0.416,2.938-0.174C78.087,62.3,78.387,62.032,78.631,61.735z"/>
		<path fill="#F2F3F3" d="M78.579,65.278c-0.852-1.045,0.325-2.275,1.466-1.792C81.95,64.295,80.131,67.188,78.579,65.278z"/>
		<path opacity="0.12" fill="#F5F5F5" d="M85.839,83.006c-1.625-0.896-3.004-2.483-4.815-3.042
			c-2.058-0.635-4.706,0.077-6.643,0.826c-1.201,0.462-1.957,1.123-2.896,1.946c-3.222,2.828-9.27-4.261-7.208-5.213
			c0.409-0.188,1.56,0.497,1.915,0.647c1.123,0.479,2.064,1.147,3.331,1.23c2.089,0.136,4.742-0.979,6.76-1.5
			c2.138-0.551,3.398-0.669,5.482,0.341c3.326,1.61,5.05-0.208,6.901-2.643c0.722-0.952,2.152-1.082,2.846-0.083
			c0.702,1.013,0.095,2.786-0.076,3.898C91.096,81.659,88.505,84.476,85.839,83.006z"/>
	</g>
</g>
</svg>
