<?xml version="1.0" encoding="utf-8"?>
<!-- Generator: Adobe Illustrator 16.0.0, SVG Export Plug-In . SVG Version: 6.00 Build 0)  -->
<!DOCTYPE svg PUBLIC "-//W3C//DTD SVG 1.1//EN" "http://www.w3.org/Graphics/SVG/1.1/DTD/svg11.dtd">
<svg version="1.1" id="Layer_1" xmlns="http://www.w3.org/2000/svg" xmlns:xlink="http://www.w3.org/1999/xlink" x="0px" y="0px"
   width="127.00266" height="138.33864" viewBox="0 0 127.00267 138.33864" enable-background="new 0 0 198.43 198.43" xml:space="preserve">
<g transform="translate(-37.089298,-34.457977)">
	<g>
		<path fill="#FFFFFF" stroke="#000000" stroke-width="0.5" stroke-miterlimit="10" d="M54.584,143.289
			c1.674,7.496,4.812,17.405,10.191,23.082c10.666,11.252,10.533-16.324,21.094-11.677c3.354,1.478,5.978,3.623,9.73,4.406
			c2.878,0.603,5.861,0.615,8.715,0.084c6.048-1.127,11.204-9.133,16.779-2.85c2.752,3.102,3.795,10.838,8.499,11.723
			c6.014,1.131,10.082-10.883,11.797-14.908c13.096-30.754,6-73.798-3.05-104.631c-0.573-1.952-3.042-8.597-0.243-10.078
			c-4.562,2.415-9.602,3.956-14.717,4.608c-1.256,0.161-14.896,0.423-14.714-0.77c0.235-1.395,1.142-2.725,1.097-4.214
			c-1.365,1.523-5.411,3.076-7.408,2.979c1.203-1.481,2.105-3.329,2.346-5.266c-2.497,2.974-8.363,5.544-12.102,5.447
			c0.646-1.15,1.188-2.604,1.41-3.927c-5.213,3.201-11.83,5.712-17.999,5.843c-2.72,0.058-14.28,1.282-15.603-1.582
			c0.153,0.333,0.352,0.715,0.506,1.05c-0.81-0.599-1.911-0.806-2.782-1.092c4.653,1.524,0.85,14.65-0.041,17.736
			c-5.517,19.135-8.896,41.837-6.899,62.576c0.342,3.539,0.867,7.057,1.386,10.573C53.113,136.055,53.781,139.688,54.584,143.289z"
			/>
		<g>
			<path opacity="0.18" d="M142.887,83.332c0.127-6.77-0.389-13.597-0.891-20.354
				c0.589,7.937,3.959,16.186,4.862,24.271c2.191,19.582,3.509,40.794-2.739,59.796c-1.295,3.945-2.824,7.738-4.556,11.51
				c-1.564,3.416-3.242,7.57-6.996,9.088c-4.327,1.748-6.725-1.729-8.229-5.244c-1.439-3.36-3.482-8.227-7.887-8.057
				c-4.365,0.17-7.989,4.195-12.326,5.016c-4.763,0.902-9.899-0.282-14.228-2.313c-2.271-1.068-4.397-3.287-7.198-2.541
				c-5.969,1.588-6.48,15.918-13.508,14.729c-5.531-0.936-9.382-9.871-11.135-14.44c-4.453-11.613-5.833-24.871-6.865-37.201
				c-1.538-18.363,1.16-37.541,6.704-55.104c0.384,20.306-2.793,38.647,6.331,57.938c7.512,15.883,22.262,25.277,39.964,22.199
				c10.899-1.898,23.662-6.328,29.463-16.392C140.701,114.004,142.629,97.15,142.887,83.332z"/>
			<path opacity="0.18" d="M138.535,133.674c7.272-10.965,8.563-26.629,8.946-39.447
				c0.002-0.091,0.001-0.089-0.004,0.005c2.601,16.884,1.953,36.136-3.408,52.468c-1.293,3.942-2.823,7.737-4.555,11.51
				c-1.564,3.414-3.242,7.567-6.996,9.086c-4.328,1.75-6.725-1.729-8.229-5.242c-1.439-3.361-3.483-8.227-7.888-8.057
				c-4.365,0.168-7.989,4.192-12.326,5.016c-4.763,0.902-9.899-0.283-14.227-2.316c-2.271-1.067-4.397-3.284-7.199-2.541
				c-5.968,1.591-6.48,15.921-13.507,14.729c-5.532-0.936-9.382-9.871-11.135-14.441c-4.454-11.61-5.833-24.868-6.865-37.198
				c-0.665-7.941-1.126-16.611,0.729-24.438c-0.001-0.091-0.003-0.094-0.006-0.008c-0.412,10.889,2.863,24.202,9.212,33.116
				c6.691,9.395,16.652,18.782,28.843,19.146c9.532,0.285,19.367,0.387,28.715-1.776
				C126.199,141.533,133.938,140.602,138.535,133.674z"/>
		</g>
	</g>
	
		<ellipse transform="matrix(0.0019 -1 1 0.0019 -70.1208 268.1169)" opacity="0.17" cx="99.252" cy="169.185" rx="3.61" ry="49.36"/>
	<path d="M101.096,78.97c0.083-0.072,0.166-0.139,0.248-0.203c0.287-0.227,0.647-0.465,0.824-0.795
		c0.354-0.662-0.545-0.985-1.017-1.184c-0.784-0.332-1.683-0.411-2.526-0.332c-0.778,0.069-3.218,0.649-2.103,1.906
		c0.466,0.524,1.146,0.807,1.605,1.333c0.315,0.361,0.489,1.246,1.005,1.367c0.473,0.111,0.733-0.403,0.918-0.742
		C100.318,79.836,100.668,79.34,101.096,78.97z"/>
	<path d="M103.74,92.19c24.031,1.483,39.034,19.555,36.959,43.277c-0.312,3.562-0.184,7.752-2.605,10.662
		c-2.201,2.645-5.849,3.584-9.145,2.842c-3.916-0.881-7.769-4.201-11.859-3.742c-0.006,0-0.012,0-0.02,0
		c-3.685,0.345-5.933,3.22-9.168,4.543c-3.498,1.433-7.371,1.508-11.03,0.697c-4.505-0.996-8.01-4.854-12.901-4.412
		c-3.098,0.283-5.182,2.133-7.863,3.4c-1.868,0.881-4.337,1.151-6.376,1.291c-10.891,0.737-10.545-14.443-10.138-21.726
		c0.309-5.52,1.491-11.295,4.066-16.241c7.516-14.435,24.286-21.563,40.072-20.592C103.734,92.19,103.735,92.19,103.74,92.19z"/>
	<g>
		<path d="M148.4,83.005c0.236-3.568,4.072-2.357,6.027-4.178c1.797-1.676,1.355-4.336,3.256-5.988
			c8.691-7.547,6.195,9.414,5.693,12.975c-1.107,7.857-6.017,14.913-14.023,16.991c-0.774-6.26-1.264-12.997-0.977-19.318
			C148.384,83.32,148.392,83.16,148.4,83.005z"/>
		<path opacity="0.12" fill="#F5F5F5" d="M158.572,95.251c-1.743,2.551-3.229,3.986-5.967,5.424
			c-0.565,0.297-1.498,1.244-2.17,1.17c-1.146-0.123-0.641-2.057-0.467-2.879c0.157-0.74,0.443-1.184,0.918-1.75
			c1.383-1.647,3.375-2.581,4.779-4.176c1.143-1.299,2.199-2.467,2.914-4.054c1.307-2.895,1.893-5.795,2.696-8.834
			c0.246-0.932,0.373-3.557,1.062-4.249c0.764-0.771,1.016,0.65,0.965,1.422c-0.176,2.636-0.559,5.45-0.979,8.075
			C161.76,88.895,160.58,92.318,158.572,95.251z"/>
	</g>
	<g>
		<path d="M75.122,164.301c0.489-0.844,0.89-1.736,1.385-2.576c0.491-0.832,1.636-2.063,1.102-3.086
			c-0.959-1.838-3.584-0.203-4.562,0.65c-0.621,0.543-1.168,1.166-1.793,1.705c-1.792,1.543-3.68,0.571-5.336-0.632
			c-1.115-0.812-3.736-4.467-5.2-2.645c-0.926,1.152,0.578,3.271,1.182,4.275c0.937,1.555,2.104,3.03,3.291,4.397
			c1.063,1.226,2.359,2.451,4.014,2.75c1.426,0.258,2.847-0.672,3.678-1.746c0.587-0.76,1.192-1.506,1.736-2.297
			C74.797,164.838,74.963,164.57,75.122,164.301z"/>
		<path opacity="0.12" fill="#F5F5F5" d="M73.281,163.029c0.596-0.633,1.67-2.903,2.642-3.016
			c0.876-0.1,0.423,1.201,0.098,1.795c-0.361,0.664-6.061,9.402-6.983,6.428c-0.333-1.069,1.239-1.873,1.853-2.379
			C71.839,165.07,72.436,163.926,73.281,163.029z"/>
	</g>
	<g>
		<path d="M129.039,167.736c2.853,1.076,5.162-0.506,6.828-2.739c1.346-1.808,3.537-5.045,3.833-7.326
			c0.196-1.533-0.612-2.65-2.241-2.156c-1.308,0.398-2.543,2.111-3.46,3.066c-1.383,1.438-3.509,2.688-5.409,1.489
			c-1.512-0.952-1.971-3.1-3.572-3.995c-2.699-1.513-1.625,3.149-1.285,4.254C124.584,163.09,126.148,166.646,129.039,167.736z"/>
		<path opacity="0.12" fill="#F5F5F5" d="M135.66,161.453c0.596-0.634,1.67-2.904,2.643-3.017
			c0.876-0.1,0.423,1.201,0.098,1.797c-0.36,0.662-6.061,9.4-6.983,6.427c-0.333-1.07,1.24-1.873,1.854-2.379
			C134.219,163.496,134.815,162.348,135.66,161.453z"/>
	</g>
	<g>
		<path d="M56.268,39.123c2.618-5.887,8.909-5.944,12.751-1.622c0.9,1.012,3.559,4.369,2.691,5.871
			c-0.879,1.523-7.286-0.32-7.644,0.881c-0.529,1.684-0.251,6.759-2.62,7.097c-4.134,0.58-5.956-6.658-5.817-9.559
			C55.674,40.85,55.9,39.952,56.268,39.123z"/>
		<path opacity="0.12" fill="#F5F5F5" d="M58.465,48.293c1.24,1.354,2.919,2.479,4.07,0.25
			c0.385-0.747,0.914-2.1,0.727-2.969c-0.227-1.054-0.931-1.069-1.861-1.052c-1.04,0.021-1.871-0.232-2.307-1.232
			c-0.639-1.466,0.156-2.815-0.196-4.244c-0.532-2.156-2.351,2.214-2.449,2.762C56.007,44.238,56.81,46.486,58.465,48.293z"/>
	</g>
	<g>
		<path d="M137.615,35.405c6.387,0.847,8.222,6.863,5.163,11.771c-0.717,1.149-3.186,4.648-4.87,4.242
			c-1.71-0.412-1.755-7.078-3.008-7.081c-1.765-0.033-6.554,1.671-7.547-0.506c-1.727-3.802,4.7-7.598,7.521-8.284
			C135.791,35.324,136.717,35.287,137.615,35.405z"/>
		<path opacity="0.12" fill="#F5F5F5" d="M141.461,48.117c-1.34,1.261-3.142,2.294-4.3,0.138
			c-0.389-0.721-0.912-2.023-0.692-2.851c0.265-0.998,1.008-0.996,1.988-0.955c1.097,0.044,1.979-0.178,2.465-1.12
			c0.711-1.384-0.096-2.688,0.312-4.043c0.615-2.043,2.425,2.17,2.517,2.693C144.154,44.309,143.252,46.434,141.461,48.117z"/>
	</g>
	<path opacity="0.07" fill="#F5F5F5" d="M75.321,102.295c-2.928,2.33-5.313,5.225-6.917,8.615
		c-0.366,0.774-2.675,5.623-1.042,6.059c1.514,0.402,4.754-4.752,5.492-5.662c2.029-2.5,4.139-4.94,6.798-6.793
		c4.271-2.971,9.16-4.715,14.059-6.32c0.869-0.284,3.928-1.104,3.062-2.529c-0.833-1.372-3.684-1.066-5.003-0.927
		C85.515,95.408,80.161,98.443,75.321,102.295z"/>
	<g>
		<g>
			<path d="M82.625,51.955c-0.494-0.102-1.013-0.185-1.555-0.254c-2.106-0.273-12.742-0.416-13.492-3.17
				c0.33,1.21,0.839,2.535,1.15,3.818c-0.792-0.209-1.921,0.104-2.711-0.129c-1.162,6.796-4.09,12.764-4.369,19.997
				c-0.292,7.574,3.114,17.878,10.565,19.81C91.664,97.07,96.842,71.07,89.256,56.88C87.593,53.769,85.511,52.546,82.625,51.955z"/>
			<path opacity="0.12" fill="#F5F5F5" d="M70.323,85.528c2.525,1.393,5.758,1.648,8.491,1.133
				c2.167-0.407,3.947-1.701,5.595-3.098c1.242-1.054,2.824-3.396,4.456-3.728c2.309-0.469,0.491,3.627,0.029,4.436
				c-1.312,2.295-3.049,4.634-5.326,6.05c-1.827,1.137-3.466,1.588-5.594,1.759c-3.648,0.291-7.042-0.493-9.888-2.88
				c-2.58-2.163-4.194-5.332-5.096-8.529c-0.823-2.914-1.632-7.43-0.737-10.406c0.934-3.105,1.646,0.717,1.771,1.789
				c0.204,1.731,0.541,3.453,1.082,5.113c0.846,2.586,1.633,5.559,3.801,7.393C69.345,84.928,69.82,85.251,70.323,85.528z"/>
		</g>
		<path fill="#F2F3F3" d="M71.817,72.092c2.159,5.735,9.644,2.722,10.558-2.271c0,0,0.006-0.124-0.001-0.051
			c0.042,0.455,0.09,0.93,0.182,1.375c0.568,2.804,0.254,5.707-2.192,7.508c-1.896,1.396-4.548,1.695-6.74,0.851
			c-4.159-1.604-4.501-6.605-2.525-10.185C71.267,70.242,71.485,71.209,71.817,72.092z"/>
		<path fill="#F2F3F3" d="M79.48,72.023c-0.603,0.601-1.391,0.898-2.332,0.867c0.437-0.212,0.89-0.438,1.254-0.762
			c0.881-0.781,0.877-2.059,0.285-3.032c-0.628-1.036-1.829-1.233-2.934-0.999c0.523-0.111,0.943-0.446,1.488-0.528
			c1.061-0.16,2.161-0.001,2.786,0.928c0.54,0.803,0.542,1.81,0.091,2.653C79.938,71.488,79.724,71.78,79.48,72.023z"/>
	</g>
	<g>
		<g>
			<path d="M116.253,52.943c0.501-0.104,1.025-0.19,1.577-0.266c2.143-0.294,12.972-0.601,13.684-3.231
				c-0.312,1.156-0.806,2.425-1.101,3.649c0.802-0.211,1.959,0.068,2.759-0.166c1.312,6.443,4.406,12.071,4.826,18.943
				c0.438,7.196-2.834,17.049-10.388,19.005c-19.714,5.104-25.477-19.532-18.018-33.146
				C111.229,54.748,113.325,53.552,116.253,52.943z"/>
			<path opacity="0.12" fill="#F5F5F5" d="M128.746,84.681c-2.612,1.328-5.916,1.506-8.693,0.922
				c-2.2-0.463-3.984-1.799-5.629-3.234c-1.242-1.085-2.799-3.467-4.455-3.837c-2.345-0.525-0.592,3.613-0.14,4.436
				c1.279,2.326,2.996,4.707,5.283,6.178c1.837,1.182,3.497,1.674,5.664,1.896c3.718,0.383,7.197-0.316,10.16-2.633
				c2.687-2.1,4.41-5.228,5.41-8.4c0.912-2.896,1.849-7.387,1.01-10.385c-0.875-3.128-1.696,0.675-1.853,1.745
				c-0.251,1.726-0.638,3.438-1.231,5.083c-0.925,2.564-1.802,5.519-4.059,7.298C129.759,84.106,129.266,84.416,128.746,84.681z"/>
		</g>
		<path fill="#F2F3F3" d="M116.918,71.791c2.158,5.733,9.643,2.722,10.557-2.271c0,0.002,0.006-0.125-0.002-0.052
			c0.042,0.454,0.092,0.929,0.182,1.375c0.568,2.802,0.257,5.706-2.19,7.507c-1.896,1.396-4.547,1.695-6.74,0.852
			c-4.16-1.604-4.502-6.606-2.524-10.186C116.367,69.939,116.585,70.907,116.918,71.791z"/>
		<path fill="#F2F3F3" d="M124.581,71.72c-0.604,0.602-1.393,0.9-2.332,0.867c0.436-0.211,0.89-0.438,1.253-0.762
			c0.881-0.781,0.878-2.058,0.287-3.031c-0.629-1.037-1.83-1.234-2.935-1c0.523-0.111,0.943-0.445,1.486-0.527
			c1.062-0.161,2.163-0.002,2.787,0.927c0.541,0.803,0.543,1.811,0.09,2.653C125.037,71.186,124.825,71.478,124.581,71.72z"/>
	</g>
	<path fill="none" stroke="#000000" stroke-miterlimit="10" d="M93.816,81.492c0.17,1.375,0.906,2.738,2,3.604
		c3.125,2.473,8.702,0.646,8.76-3.662"/>
	<g>
		<path d="M49.508,104.398c-0.03,0.677-0.159,1.328-0.566,1.912c-0.485,0.697-1.828,0.978-2.418,1.763
			c-1.54,2.047-0.178,5.456-2.049,7.096c-3.812,3.34-6.784-5.365-7.146-7.846c-1.391-9.511,3.288-21.286,13.442-23.081
			c-0.341,6.031-1.207,12.081-1.283,18.223C49.481,103.107,49.537,103.764,49.508,104.398z"/>
		<path opacity="0.12" fill="#F5F5F5" d="M44.404,105.27c-1.308,2.07-2.357,6.482-0.181,8.4
			c0.493-0.381,0.652-0.889,0.834-1.51c0.399-1.365-0.329-2.67,0.549-3.966c0.646-0.95,2.026-1.149,2.679-2.049
			c0.562-0.776,0.342-1.803,0.347-2.699c0.002-0.434,0.155-4.062,0.293-4.084c-0.953,0.146-1.668,1.89-2.234,2.548
			C45.798,102.949,45.148,104.092,44.404,105.27z"/>
	</g>
</g>
</svg>
