<?xml version="1.0" encoding="utf-8"?>
<!-- Generator: Adobe Illustrator 16.0.0, SVG Export Plug-In . SVG Version: 6.00 Build 0)  -->
<!DOCTYPE svg PUBLIC "-//W3C//DTD SVG 1.1//EN" "http://www.w3.org/Graphics/SVG/1.1/DTD/svg11.dtd">
<svg version="1.1" id="Layer_1" xmlns="http://www.w3.org/2000/svg" xmlns:xlink="http://www.w3.org/1999/xlink" x="0px" y="0px"
	width="103.50362" height="145.01508" viewBox="0 0 103.50362 145.01508" enable-background="new 0 0 198.43 198.43" xml:space="preserve">
<g transform="translate(-48.561059,-32.51556)">
		<ellipse transform="matrix(0.0016 -1 1 0.0016 -65.589 267.3574)" opacity="0.17" cx="101.098" cy="166.526" rx="11.005" ry="49.491"/>
	<path fill="#FFFFFF" stroke="#000000" stroke-width="0.5" stroke-miterlimit="10" d="M108.394,164.526
		c-1.537,0.899-2.806,2.035-3.213,3.528c-1.444,5.296,8.287,4.975,11.367,4.488c50.803-8.018,34.376-93.468,25.521-125.285
		c-0.569-2.048-3.051-9.029-0.104-10.536c-4.804,2.457-10.092,3.99-15.446,4.599c-1.313,0.148-15.568,0.223-15.363-1.021
		c0.269-1.455,1.233-2.831,1.21-4.388c-1.451,1.57-5.7,3.134-7.785,3.003c1.276-1.531,2.248-3.447,2.526-5.468
		c-2.653,3.07-8.819,5.669-12.725,5.515c0.691-1.195,1.278-2.703,1.531-4.083c-5.494,3.268-12.445,5.794-18.895,5.839
		c-2.844,0.021-14.94,1.131-16.281-1.883c0.155,0.351,0.356,0.754,0.514,1.104c-0.825-0.629-1.952-0.863-2.847-1.168
		c4.95,1.68,0.244,11.143-0.636,13.775c-7.733,23.165-9.848,45.587-7.846,70.024c0.303,3.703,0.801,7.39,1.29,11.07
		c0.508,3.821,1.152,7.627,1.939,11.405c1.627,7.806,5.374,14.968,11.63,19.995c7.56,6.077,16.96,6.72,26.356,8.014
		c3.679,0.506,10.581,0.147,8.985-4.74c-1.068-3.272-4.203-4.841-6.854-6.654c-1.187-0.812-2.668-1.368-3.731-2.324
		c-0.927-0.832-1.488-1.902,0.312-1.518c4.048,0.866,7.682,3.693,11.922,3.938c2.188,0.127,4.017,0.324,6.124-0.35
		c1.812-0.577,3.663-1.015,5.478-1.583c0.81-0.256,4.712-2.108,4.343,0.024c-0.205,1.188-2.335,1.72-3.271,2.092
		C112.827,162.59,110.384,163.36,108.394,164.526z"/>
	<path opacity="0.18" d="M108.72,164.346c-2.604,1.404-5.436,4.919-2.244,7.149
		c2.935,2.051,7.224,1.768,10.583,1.24c4.081-0.639,8.182-1.896,11.802-3.893c6.183-3.405,10.979-8.48,14.484-14.559
		c1.188-2.062,1.708-4.238,2.588-6.45c0.926-2.332,1.921-4.639,2.694-7.026c1.194-3.689,1.616-7.555,2.333-11.381
		c0.867-4.624,0.967-9.458,0.937-14.166c-0.034-5.358-0.004-10.793-0.24-16.134c-0.246-5.579-1.314-11.183-1.871-16.74
		c-0.572-5.725-2.144-12.268-3.513-17.898c-0.258,9.509-1.287,20.942-5.021,29.746c-10.458,24.653-35.592,25.574-58.364,21.435
		c-5.968-1.086-10.651-5.486-14.397-10.025c-7.926-9.6-11.683-21.574-12.598-33.823c-0.31-4.141-0.851-8.772,0.058-12.868
		c0.009-0.151,0.012-0.139,0.009,0.044c-3.217,8.259-3.76,17.037-5.539,25.604c-0.262,1.261-0.269,2.395-0.31,3.688
		c-0.081,2.528-0.448,5.071-0.624,7.591c-0.368,5.294-0.896,11.11-0.171,16.385c0.902,6.556,0.403,13.208,1.611,19.687
		c0.41,2.195,0.554,4.445,0.92,6.653c1.026,6.186,2.824,12.864,5.907,18.348c1.75,3.111,4.792,6.063,7.555,8.283
		c7.561,6.076,16.961,6.722,26.358,8.015c3.679,0.506,10.581,0.146,8.984-4.74c-1.067-3.274-4.202-4.842-6.853-6.656
		c-1.294-0.886-2.757-1.439-3.92-2.517c-0.539-0.497-1.77-1.849-0.195-1.796c0.902,0.028,2.861,1.065,3.751,1.418
		c2.915,1.146,5.66,2.806,8.868,2.992c2.188,0.127,4.016,0.323,6.123-0.35c1.812-0.578,3.664-1.014,5.479-1.585
		c0.722-0.227,4.724-2.067,3.85,0.068c-0.202,0.493-1.031,0.851-1.458,1.131c-1.213,0.795-2.393,1.094-3.752,1.574
		C111.345,163.212,109.952,163.681,108.72,164.346z"/>
	<path opacity="0.18" d="M108.384,164.174c-1.63,0.901-3.089,2.136-3.552,3.889
		c-1.38,5.224,9.132,4.855,11.878,4.429c4.158-0.649,8.531-2.087,12.233-4.077c6.419-3.449,11.187-9.155,14.74-15.413
		c4.067-7.157,5.543-14.701,6.751-22.755c0.823-5.488,0.703-10.964,1.121-16.472c0.218-2.871-0.144-5.751-0.356-8.615
		c-0.18-2.389-0.11-4.784-0.162-7.178c-0.026-1.224-0.102-2.438-0.209-3.655c-0.059-0.638-0.471-1.833-0.36-2.383
		c-4.879,24.38-34.641,42.929-58.599,39.803c-11.371-1.484-21.148-7.144-28.035-16.281c-5.594-7.421-13.502-21.24-13.392-30.782
		c0.002-0.146,0.005-0.135,0.006,0.034c-3.277,10.97-1.483,26.562-0.561,37.797c0.305,3.703,0.804,7.388,1.295,11.07
		c0.509,3.819,1.157,7.625,1.947,11.402c1.633,7.809,5.392,14.971,11.667,19.998c7.584,6.077,17.014,6.722,26.439,8.017
		c3.69,0.506,10.614,0.147,9.013-4.739c-1.072-3.274-4.216-4.842-6.875-6.656c-1.19-0.812-2.678-1.368-3.743-2.324
		c-0.929-0.831-1.494-1.901,0.312-1.518c4.062,0.867,7.705,3.693,11.96,3.939c2.194,0.127,4.028,0.323,6.144-0.35
		c1.817-0.578,3.675-1.014,5.495-1.584c0.832-0.262,3.535-1.588,3.889-0.374c0.455,1.565-5.204,3.136-6.141,3.483
		C110.378,163.22,109.351,163.638,108.384,164.174z"/>
	<g>
		<path d="M73.431,54.651c-0.614,0.663-1.201,1.335-1.769,1.972c-0.839,0.939-1.831,2.053-3.06,2.489
			c-0.738,0.266-2.89,0.407-3.06-0.818c0.119,0.858,0.022,1.776,0.249,2.621c0.192,0.722,0.644,1.209,0.604,1.975
			c-0.364,0.063-2.14-0.264-2.09-0.898c-0.441,5.683-2.887,11.309-2.492,17.037c0.402,5.843,4.896,13.234,12.81,13.625
			c10.608,0.526,19.469-5.854,19.374-16.938c-0.073-8.395,0.566-25.152-11.449-25.965C78.74,49.49,75.872,52.011,73.431,54.651z"/>
		<path opacity="0.12" fill="#F5F5F5" d="M75.038,86.761c2.706,0.552,5.745-0.122,8.112-1.359
			c1.876-0.979,3.152-2.649,4.277-4.379c0.849-1.304,1.651-3.874,3.057-4.631c1.991-1.075,1.459,3.149,1.26,4.016
			c-0.567,2.448-1.515,5.058-3.212,6.98c-1.363,1.544-2.742,2.414-4.649,3.166c-3.271,1.288-6.604,1.53-9.881,0.164
			c-2.97-1.237-5.332-3.658-7.048-6.306c-1.565-2.413-3.562-6.28-3.565-9.232c-0.005-3.08,1.71,0.188,2.125,1.125
			c0.667,1.514,1.456,2.981,2.413,4.334c1.494,2.109,3.042,4.585,5.542,5.64C73.972,86.491,74.499,86.651,75.038,86.761z"/>
		<path fill="#F2F3F3" d="M72.211,73.209c3.923,5.087,10.501-0.229,9.887-5.514c0,0-0.032-0.127-0.017-0.051
			c0.181,0.441,0.375,0.901,0.604,1.323c1.429,2.634,2.005,5.642,0.105,8.196c-1.474,1.979-4.039,3.096-6.497,2.92
			c-4.661-0.333-6.538-5.241-5.653-9.435C71.092,71.522,71.608,72.425,72.211,73.209z"/>
		<path fill="#F2F3F3" d="M80.229,66.809c0.441,0.775,0.527,1.653,0.236,2.598c-0.094-0.499-0.198-1.021-0.426-1.478
			c-0.548-1.104-1.838-1.454-2.988-1.124c-1.221,0.352-1.751,1.512-1.817,2.693c0.032-0.562-0.191-1.078-0.125-1.651
			c0.128-1.117,0.594-2.188,1.704-2.562c0.961-0.327,1.98-0.052,2.71,0.638C79.815,66.198,80.052,66.495,80.229,66.809z"/>
	</g>
	<g>
		<path d="M126.966,53.678c0.707,0.577,1.39,1.167,2.047,1.723c0.973,0.823,2.121,1.794,3.418,2.066
			c0.78,0.166,2.968,0.024,2.974-1.214c-0.005,0.867,0.217,1.767,0.104,2.632c-0.098,0.742-0.487,1.283-0.346,2.036
			c0.376,0.017,2.121-0.543,1.984-1.165c1.21,5.575,4.431,10.832,4.803,16.563c0.381,5.845-3.153,13.763-11.076,15.188
			c-10.621,1.913-20.407-3.249-21.803-14.25c-1.056-8.329-3.953-24.861,8.048-27.244C120.923,49.26,124.15,51.382,126.966,53.678z"
			/>
		<path opacity="0.12" fill="#F5F5F5" d="M131.65,84.911c-2.706,1.241-6.109,1.36-8.964,0.757
			c-2.26-0.48-4.08-1.796-5.756-3.207c-1.266-1.063-2.838-3.383-4.539-3.769c-2.407-0.544-0.656,3.476-0.201,4.273
			c1.29,2.263,3.025,4.585,5.363,6.04c1.877,1.167,3.58,1.668,5.81,1.916c3.821,0.424,7.415-0.196,10.497-2.385
			c2.793-1.982,4.609-4.975,5.681-8.02c0.976-2.775,1.998-7.095,1.173-10c-0.862-3.031-1.757,0.624-1.931,1.655
			c-0.28,1.659-0.699,3.306-1.332,4.883c-0.986,2.46-1.929,5.295-4.275,6.977C132.701,84.373,132.19,84.665,131.65,84.911z"/>
		<path fill="#F2F3F3" d="M119.064,71.135c2.305,6.395,10.649,3.171,11.741-2.352c0,0.003,0.008-0.138-0.001-0.056
			c0.04,0.505,0.086,1.029,0.18,1.526c0.587,3.115,0.193,6.331-2.548,8.29c-2.124,1.517-5.067,1.809-7.486,0.837
			c-4.587-1.844-4.889-7.396-2.641-11.331C118.483,69.075,118.71,70.151,119.064,71.135z"/>
		<path fill="#F2F3F3" d="M125.399,65.685c0.486,0.746,0.627,1.618,0.392,2.576c-0.122-0.492-0.258-1.005-0.514-1.448
			c-0.613-1.069-1.923-1.34-3.052-0.94c-1.197,0.424-1.656,1.612-1.65,2.797c-0.001-0.562-0.256-1.064-0.226-1.642
			c0.062-1.123,0.462-2.219,1.548-2.66c0.938-0.384,1.974-0.169,2.742,0.474C124.949,65.101,125.204,65.381,125.399,65.685z"/>
	</g>
	<g>
		<path d="M103.456,78.734c0.08-0.084,0.16-0.162,0.239-0.236c0.279-0.262,0.636-0.542,0.789-0.9
			c0.312-0.726-0.657-0.981-1.166-1.146c-0.852-0.277-1.796-0.279-2.672-0.12c-0.805,0.146-3.301,0.97-2.021,2.183
			c0.533,0.505,1.268,0.738,1.795,1.247c0.362,0.35,0.624,1.256,1.174,1.336c0.504,0.075,0.729-0.488,0.893-0.855
			C102.722,79.708,103.042,79.159,103.456,78.734z"/>
		<path fill="none" stroke="#000000" stroke-miterlimit="10" d="M97.517,81.705c0.228,2.302,0.666,4.184,1.619,5.768
			c2.523,4.188,7.035,0.971,7.089-6.417"/>
	</g>
	<g>
		<path d="M106.381,166.15c-0.433,0.512-0.794,1.078-1.06,1.708c-0.98,2.336,1.336,4.158,3.487,4.638
			c3.168,0.705,6.122,0.651,9.195-0.467c1.309-0.474,1.883-1.462,0.738-2.5c-1.119-1.015-3.184-1.006-4.595-1.191
			c-1.104-0.147-2.047-0.563-1.391-1.823c0.393-0.756,4.582-4.617,1.47-4.143C111.522,162.785,108.265,163.928,106.381,166.15z"/>
		<path opacity="0.12" fill="#F5F5F5" d="M112.258,170.688c0.781,0.119,1.569,0.156,2.23,0.119
			c0.449-0.023,2.517-0.593,2.627,0.276c0.074,0.588-1.844,0.944-2.219,1.033c-2.101,0.493-4.707,0.539-6.627-0.601
			c-0.75-0.443-2.893-1.247-2.258-2.484c0.758-1.479,2.982,0.451,3.762,0.886C110.456,170.297,111.353,170.548,112.258,170.688z"/>
	</g>
	<g>
		<path d="M99.184,166.179c-0.49-0.502-1.028-0.936-1.542-1.286c-1.188-0.809-3.845-3.887-5.32-3.641
			c-2.386,0.396-0.545,1.791-0.076,3.365c1.046,3.525-0.594,3.576-2.828,5.309c-2.731,2.118,1.763,3.072,3.159,3.294
			c2.244,0.354,7.024,0.966,8.132-1.901C101.467,169.352,100.499,167.524,99.184,166.179z"/>
		<path opacity="0.12" fill="#F5F5F5" d="M96.45,172.708c0.349-0.035,0.695-0.088,1.041-0.164
			c0.88-0.191,3.226-1.417,2.253-2.742c-0.492-0.667-1.478,0.273-1.907,0.581c-0.797,0.571-1.603,0.85-2.588,0.841
			c-1.015-0.011-1.97-0.26-2.928-0.565c-0.522-0.168-1.305-0.395-1.852-0.226c-0.979,0.305-0.212,1.209,0.314,1.47
			c0.618,0.308,1.324,0.438,1.997,0.571C93.974,172.711,95.219,172.829,96.45,172.708z"/>
	</g>
	<g>
		<path d="M105.574,95.974c25.091,1.875,40.511,20.521,38.009,44.674c-0.434,4.17-1.773,8.045-3.193,11.945
			c-1.896,5.21-5.693,10.178-10.824,12.799c-5.329,2.724-9.135,0.468-5.683-5.132c3.247-5.266,2.349-10.72-5.108-10.019
			c-0.006,0.002-0.012,0.002-0.018,0.002c-5.904,0.451-8.84,6.23-14.599,6.895c-7.554,0.869-12.773-7.083-20.001-6.548
			c-5.323,0.396-7.421,3.361-5.596,8.173c1.931,5.09,1.91,8.55-5.123,6.442c-6.884-2.062-9.88-7.625-12.313-13.762
			c-2.325-5.861-2.643-12.377-2.2-18.587c0.4-5.623,1.716-11.491,4.477-16.496c8.058-14.603,25.681-21.616,42.161-20.389
			C105.567,95.973,105.569,95.973,105.574,95.974z"/>
		<path opacity="0.07" fill="#F5F5F5" d="M73.261,106.792c-3.492,2.651-6.356,5.968-8.303,9.87
			c-0.446,0.894-3.248,6.474-1.328,7.005c1.78,0.493,5.688-5.43,6.573-6.469c2.436-2.864,4.964-5.658,8.134-7.761
			c5.09-3.373,10.888-5.312,16.696-7.09c1.03-0.315,4.654-1.213,3.656-2.881c-0.963-1.604-4.331-1.299-5.89-1.156
			C85.405,98.979,79.036,102.408,73.261,106.792z"/>
	</g>
	<g>
		<path stroke="#FFFFFF" stroke-miterlimit="10" d="M84.952,112.005c-5.745-0.204-12.567-2.938-16.44-7.261
			c-3.458-3.859-6.365-11.784,1.58-10.102c1.854,0.396,4.005,1.487,5.852,1.556c3.284,0.118,6.544-2.737,9.973-1.011
			c2.699,1.359,2.979,4.594,5.146,6.522c1.921,1.711,4.584,0.947,6.49,2.776C106.276,112.874,88.651,112.136,84.952,112.005z"/>
		<path opacity="0.12" fill="#F5F5F5" d="M75.874,108.344c-2.854-1.401-4.533-2.702-6.397-5.274
			c-0.385-0.533-1.484-1.342-1.511-2.036c-0.041-1.186,2.001-0.954,2.863-0.898c0.775,0.053,1.269,0.276,1.915,0.677
			c1.879,1.165,3.122,3.057,4.951,4.25c1.49,0.974,2.833,1.876,4.555,2.371c3.136,0.902,6.176,1.075,9.387,1.444
			c0.984,0.116,3.672-0.141,4.479,0.455c0.896,0.666-0.513,1.131-1.304,1.19c-2.708,0.209-5.63,0.233-8.363,0.189
			C82.811,110.653,79.154,109.955,75.874,108.344z"/>
	</g>
	<g>
		<g>
			<path fill="#44B649" d="M104.991,120.328c0,0-0.14-0.479-0.351-1.316c-0.108-0.418-0.224-0.931-0.321-1.53
				c-0.112-0.598-0.231-1.274-0.296-2.019c-0.098-0.743-0.156-1.553-0.17-2.414c-0.053-0.86,0.008-1.772,0.047-2.716
				c0.124-0.938,0.155-1.924,0.397-2.897c0.173-0.984,0.47-1.962,0.762-2.94c0.329-0.96,0.771-1.908,1.204-2.793
				c0.431-0.885,0.922-1.71,1.368-2.514c0.912-1.599,1.771-3.054,2.446-4.333c0.331-0.642,0.623-1.234,0.856-1.771
				c0.224-0.54,0.428-1.017,0.542-1.422c0.135-0.404,0.223-0.729,0.268-0.955c0.054-0.228,0.082-0.349,0.082-0.349
				s0.01,0.124,0.025,0.355c0.021,0.232,0.056,0.58,0.018,1.018c-0.012,0.443-0.082,0.976-0.202,1.578
				c-0.119,0.604-0.288,1.278-0.529,1.99c-0.46,1.434-1.155,3.04-1.942,4.7c-0.387,0.824-0.785,1.676-1.191,2.541
				c-0.396,0.855-0.761,1.699-1.052,2.6c-0.287,0.895-0.586,1.786-0.769,2.701c-0.233,0.898-0.368,1.812-0.538,2.688
				c-0.08,0.891-0.262,1.743-0.306,2.569c-0.071,0.823-0.146,1.605-0.174,2.332c-0.085,1.455-0.116,2.666-0.132,3.537
				C105.019,119.832,104.991,120.328,104.991,120.328z"/>
		</g>
		<path fill="#44B649" d="M111.409,91.046c-1.82,1.119-7.363,4.724-7.709,1.021c-0.152-1.625,1.834-2.173,3.057-2.476
			c-1.494-1.463-0.003-5.126,2.148-3.644c1.618,1.115,1.979,3.254,2.887,4.869C111.696,90.872,111.566,90.948,111.409,91.046z"/>
		<path fill="#44B649" d="M113.433,89.506c-0.53,0.207-1.009,0.438-1.371,0.734c-0.87-1.192-3.299-6.751-0.817-7.464
			c1.516-0.436,2.39,1.302,2.895,2.374c1.141-1.674,4.076-0.965,3.938,0.977C117.92,88.308,115.346,88.756,113.433,89.506z"/>
		<path fill="#44B649" d="M111.831,90.702c-0.104-0.125-0.205-0.189-0.312-0.181c1.691-0.165,8.862-3.883,9.223-0.228
			c0.169,1.719-1.93,2.312-3.222,2.637c0.292-0.074,1.33,4.284-1.332,4.229C113.544,97.102,112.697,91.759,111.831,90.702z"/>
	</g>
	<g>
		<path stroke="#FFFFFF" stroke-miterlimit="10" d="M117.685,94.86c-0.352,0.158-0.689,0.354-1.014,0.593
			c-2.147,1.579-1.816,4.391-3.679,6.155c-1.905,1.808-4.583,1.051-6.477,2.974c-8.652,8.78,8.969,7.761,12.666,7.569
			c5.789-0.297,11.582-2.822,15.321-7.334c2.216-2.673,7.053-8.325,1.899-9.677c-3.618-0.949-6.117,1.667-9.889,0.75
			C123.431,95.14,120.825,93.446,117.685,94.86z"/>
		<path opacity="0.12" fill="#F5F5F5" d="M127.504,108.705c3.161-1.732,5.118-3.4,7.515-6.788
			c0.496-0.704,1.771-1.735,1.935-2.682c0.278-1.61-1.83-1.426-2.712-1.402c-0.795,0.023-1.338,0.299-2.07,0.804
			c-2.13,1.471-3.763,3.968-5.852,5.482c-1.698,1.23-3.235,2.378-5.071,2.945c-3.35,1.034-6.452,1.079-9.771,1.384
			c-1.018,0.096-3.682-0.421-4.615,0.341c-1.038,0.852,0.292,1.57,1.08,1.705c2.693,0.454,5.64,0.666,8.409,0.777
			C120.036,111.42,123.87,110.695,127.504,108.705z"/>
	</g>
	<g>
		<path d="M56.997,37.13c2.725-5.902,9.074-5.869,12.89-1.455c0.895,1.035,3.527,4.461,2.632,5.963
			c-0.909,1.525-7.348-0.426-7.726,0.78c-0.56,1.691-0.35,6.816-2.744,7.124c-4.18,0.526-5.916-6.805-5.734-9.729
			C56.372,38.865,56.612,37.962,56.997,37.13z"/>
		<path opacity="0.12" fill="#F5F5F5" d="M59.239,47.052c1.275,1.433,3.015,2.635,4.249,0.32
			c0.414-0.774,0.986-2.181,0.804-3.093c-0.223-1.104-0.957-1.131-1.93-1.125c-1.087,0.006-1.951-0.271-2.393-1.321
			c-0.646-1.543,0.205-2.939-0.142-4.438c-0.526-2.261-2.49,2.279-2.602,2.85C56.731,42.777,57.536,45.138,59.239,47.052z"/>
	</g>
	<g>
		<path d="M140.62,33.209c6.433,0.943,8.198,7.044,5.043,11.952c-0.738,1.149-3.279,4.646-4.976,4.211
			c-1.72-0.44-1.67-7.168-2.934-7.188c-1.781-0.06-6.637,1.592-7.608-0.619c-1.688-3.859,4.852-7.6,7.708-8.252
			C138.781,33.102,139.715,33.075,140.62,33.209z"/>
		<path opacity="0.12" fill="#F5F5F5" d="M144.28,46.166c-1.42,1.298-3.315,2.351-4.495,0.081
			c-0.396-0.761-0.925-2.128-0.683-2.988c0.291-1.04,1.068-1.025,2.092-0.97c1.146,0.062,2.072-0.155,2.593-1.135
			c0.764-1.435-0.062-2.811,0.386-4.221c0.673-2.126,2.503,2.304,2.591,2.854C147.149,42.228,146.176,44.434,144.28,46.166z"/>
	</g>
</g>
</svg>
