<?xml version="1.0" encoding="utf-8"?>
<!-- Generator: Adobe Illustrator 16.0.0, SVG Export Plug-In . SVG Version: 6.00 Build 0)  -->
<!DOCTYPE svg PUBLIC "-//W3C//DTD SVG 1.1//EN" "http://www.w3.org/Graphics/SVG/1.1/DTD/svg11.dtd">
<svg version="1.1" id="Layer_1" xmlns="http://www.w3.org/2000/svg" xmlns:xlink="http://www.w3.org/1999/xlink" x="0px" y="0px"
   width="1437.704"
   height="424.39197"
   viewBox="0 0 1437.704 424.39197"
   xml:space="preserve">
<g transform="translate(-289.584,-672.09604)">
	<g>
		<g>
			<g>
				<path fill="#FF6B80" d="M604.812,915.869c25.283-86.45,20.954-137.506-46.169-170.102l0,0l0,0l0,0l0,0
					c-68.894-28.61-109.992,2.012-157.894,78.284c-47.728,75.964-40.715,152.776,40.628,182.389
					C517.448,1047.672,579.606,1001.974,604.812,915.869z"/>
				<path fill="#3A002F" d="M445.485,1027.777c-3.453-1.541-3.954-7.677-1.145-13.931c2.818-6.254,7.735-9.929,11.18-8.389
					c3.454,1.558,3.953,7.677,1.135,13.932C453.846,1025.64,448.939,1029.334,445.485,1027.777z"/>
				<path fill="#3A002F" d="M466.247,1037.129c-3.453-1.561-3.964-7.697-1.154-13.951c2.818-6.254,7.734-9.929,11.188-8.371
					c3.464,1.54,3.964,7.681,1.154,13.931C474.617,1034.991,469.701,1038.666,466.247,1037.129z"/>
				<path fill="#3A002F" d="M453.74,1037.205c-3.512-1.578-3.55-8.603-0.087-16.317c3.464-7.697,8.746-12.332,12.257-10.757
					c3.503,1.578,3.521,8.603,0.058,16.299C462.495,1034.145,457.242,1038.783,453.74,1037.205z"/>
				<path fill="#3A002F" d="M401.895,1008.169c-3.454-1.557-3.954-7.677-1.145-13.931c2.819-6.254,7.734-9.945,11.18-8.388
					c3.453,1.558,3.954,7.677,1.145,13.931C410.256,1006.035,405.339,1009.727,401.895,1008.169z"/>
				<path fill="#3A002F" d="M422.656,1017.5c-3.464-1.536-3.954-7.677-1.145-13.927c2.81-6.254,7.725-9.932,11.188-8.392
					c3.444,1.561,3.935,7.677,1.125,13.931C431.017,1015.366,426.101,1019.062,422.656,1017.5z"/>
				<path fill="#3A002F" d="M410.13,1017.58c-3.501-1.578-3.54-8.582-0.067-16.3c3.464-7.715,8.735-12.333,12.248-10.754
					c3.511,1.578,3.55,8.581,0.076,16.296C418.914,1014.537,413.642,1019.158,410.13,1017.58z"/>
				<g>
					<path fill="#FF6B80" d="M439.357,846.687c-33.123-14.912-47.939-53.989-33.037-87.124
						c14.912-33.133,53.981-47.948,87.114-33.047c33.124,14.903,47.95,53.983,33.047,87.116
						C511.57,846.765,472.49,861.59,439.357,846.687z"/>
					<g>
						<g>
							<path fill="#FF6B80" d="M421.319,834.652c2.116-2.231,4.857-3.435,7.485-3.857c2.626-0.404,5.127-0.011,7.205,1.357
								c3.993,2.712,5.734,8.831,3.348,14.535c-1.241,2.791-3.55,4.831-6.436,5.629c-2.877,0.808-6.312,0.327-9.246-1.635
								c-2.943-1.953-4.714-4.955-5.08-7.908C418.211,839.799,419.212,836.885,421.319,834.652z"/>
						</g>
						<g>
							<path fill="#FF6B80" d="M408.187,817.393c5.532-2.713,11.766-1.385,14.71,2.445c1.511,1.972,2.05,4.453,1.819,7.109
								c-0.26,2.636-1.3,5.454-3.396,7.706c-2.088,2.241-4.936,3.426-7.938,3.232c-2.973-0.184-6.061-1.77-8.196-4.579
								c-2.137-2.81-2.838-6.206-2.213-9.121C403.578,821.241,405.474,818.817,408.187,817.393z"/>
						</g>
						<g>
							<path fill="#FF6B80" d="M401.337,796.824c6.1-0.789,11.583,2.473,13.142,7.052c1.481,4.598-0.924,10.486-6.292,13.517
								c-2.703,1.443-5.771,1.637-8.543,0.481c-2.761-1.125-5.176-3.627-6.282-6.965c-1.125-3.337-0.673-6.792,0.856-9.341
								C395.729,798.979,398.306,797.285,401.337,796.824z"/>
						</g>
						<g>
							<path fill="#FF6B80" d="M401.52,775.139c3.021,0.539,5.542,2.174,7.322,4.147c1.779,1.98,2.828,4.291,2.809,6.772
								c-0.067,4.83-4.262,9.621-10.313,10.766c-3.031,0.49-6.003-0.317-8.255-2.309c-2.223-1.963-3.723-5.099-3.685-8.64
								c0.02-3.521,1.56-6.647,3.839-8.571C395.517,775.36,398.489,774.592,401.52,775.139z"/>
						</g>
						<g>
							<path fill="#FF6B80" d="M408.754,754.695c5.312,3.136,7.62,9.083,6.032,13.643c-0.837,2.347-2.616,4.165-4.964,5.417
								c-2.338,1.242-5.271,1.905-8.303,1.385c-3.021-0.52-5.57-2.26-7.042-4.868c-1.491-2.588-1.847-6.052-0.664-9.37
								c1.164-3.329,3.628-5.764,6.417-6.841C403.012,752.955,406.079,753.204,408.754,754.695z"/>
						</g>
						<g>
							<path fill="#FF6B80" d="M422.243,737.715c2.049,2.29,3.03,5.128,3.223,7.773c0.192,2.665-0.424,5.128-1.963,7.071
								c-1.54,1.953-3.81,3.089-6.446,3.521c-2.607,0.415-5.599,0.097-8.303-1.385c-2.684-1.471-4.521-3.935-5.079-6.888
								c-0.567-2.925,0.202-6.311,2.404-9.082c2.185-2.771,5.321-4.282,8.303-4.396
								C417.375,734.185,420.193,735.426,422.243,737.715z"/>
						</g>
						<g>
							<path fill="#FF6B80" d="M440.521,726.045c2.251,5.734,0.414,11.843-3.637,14.47c-4.089,2.569-10.399,1.656-14.642-2.799
								c-2.068-2.271-3.002-5.204-2.561-8.168c0.434-2.953,2.242-5.916,5.234-7.793c2.973-1.913,6.417-2.317,9.274-1.462
								C437.059,721.14,439.318,723.227,440.521,726.045z"/>
						</g>
						<g>
							<path fill="#FF6B80" d="M461.581,720.897c0.23,3.079-0.73,5.928-2.203,8.131c-1.49,2.204-3.473,3.799-5.897,4.386
								c-4.704,1.126-10.38-1.77-12.959-7.369c-1.212-2.81-1.154-5.896,0.222-8.552c1.356-2.656,4.031-4.859,7.456-5.694
								c3.425-0.829,6.821-0.126,9.245,1.605C459.888,715.145,461.369,717.84,461.581,720.897z"/>
						</g>
						<g>
							<path fill="#FF6B80" d="M483.17,722.89c-0.779,2.963-2.626,5.339-4.733,6.955c-2.116,1.607-4.512,2.454-6.984,2.233
								c-2.482-0.221-4.676-1.511-6.476-3.475c-1.779-1.961-3.155-4.636-3.396-7.706c-0.23-3.049,0.818-5.945,2.982-8.022
								c2.136-2.079,5.397-3.281,8.918-2.964c3.521,0.317,6.504,2.108,8.235,4.541C483.468,716.887,483.969,719.917,483.17,722.89z"
								/>
						</g>
						<g>
							<path fill="#FF6B80" d="M502.95,731.79c-1.713,2.548-4.224,4.205-6.735,5.04c-2.529,0.827-5.079,0.867-7.35-0.162
								c-2.28-1.021-3.944-2.944-5.003-5.389c-1.029-2.443-1.462-5.425-0.692-8.388c0.778-2.973,2.722-5.368,5.445-6.62
								c2.703-1.261,6.176-1.337,9.39,0.107c3.194,1.442,5.444,4.097,6.292,6.955C505.162,726.199,504.663,729.239,502.95,731.79z"
								/>
						</g>
						<g>
							<path fill="#FF6B80" d="M518.757,746.623c-2.454,1.867-5.368,2.607-8.015,2.58c-2.654-0.049-5.08-0.838-6.889-2.55
								c-1.809-1.703-2.761-4.051-2.973-6.705c-0.183-2.647,0.376-5.6,2.069-8.159c1.702-2.569,4.31-4.205,7.292-4.503
								c2.963-0.307,6.282,0.732,8.852,3.157c2.568,2.424,3.828,5.646,3.703,8.63C522.672,742.082,521.209,744.786,518.757,746.623z
								"/>
						</g>
						<g>
							<path fill="#FF6B80" d="M528.877,765.808c-5.888,1.779-11.833-0.549-14.113-4.81c-1.164-2.204-1.289-4.754-0.625-7.332
								c0.683-2.55,2.174-5.167,4.618-7.043c2.434-1.856,5.436-2.54,8.36-1.866c2.905,0.665,5.685,2.742,7.33,5.86
								c1.655,3.106,1.78,6.58,0.692,9.35C534.053,762.768,531.803,764.855,528.877,765.808z"/>
						</g>
						<g>
							<path fill="#FF6B80" d="M532.273,787.223c-6.157-0.221-11.016-4.339-11.805-9.102c-0.721-4.781,2.627-10.198,8.408-12.313
								c2.915-0.972,5.975-0.665,8.515,0.922c2.53,1.569,4.512,4.417,5.06,7.908c0.568,3.474-0.451,6.812-2.366,9.082
								C538.161,786.021,535.333,787.262,532.273,787.223z"/>
						</g>
						<g>
							<path fill="#FF6B80" d="M528.502,808.581c-2.896-1.039-5.108-3.07-6.532-5.292c-1.424-2.26-2.087-4.714-1.646-7.157
								c0.434-2.454,1.876-4.532,3.993-6.157c2.106-1.607,4.878-2.761,7.956-2.752c3.068,0.019,5.868,1.309,7.744,3.636
								c1.896,2.31,2.838,5.658,2.223,9.141c-0.615,3.472-2.636,6.3-5.204,7.82C534.457,809.36,531.388,809.619,528.502,808.581z"/>
						</g>
						<g>
							<path fill="#FF6B80" d="M518.006,827.552c-2.404-1.915-3.839-4.56-4.464-7.128c-0.615-2.588-0.442-5.128,0.76-7.302
								c2.367-4.215,8.342-6.437,14.2-4.542c2.896,1.019,5.118,3.146,6.139,5.964c1.038,2.791,0.856,6.254-0.866,9.342
								c-1.703,3.078-4.522,5.099-7.446,5.705C523.384,830.218,520.401,829.478,518.006,827.552z"/>
						</g>
						<g>
							<path fill="#FF6B80" d="M501.9,842.07c-3.155-5.282-2.347-11.603,1.213-14.854c1.856-1.654,4.271-2.414,6.937-2.395
								c2.646,0.029,5.542,0.838,7.956,2.732c2.415,1.904,3.82,4.646,3.878,7.639c0.067,2.982-1.241,6.206-3.887,8.562
								c-2.607,2.367-5.946,3.329-8.899,2.963C506.115,846.351,503.546,844.667,501.9,842.07z"/>
						</g>
						<g>
							<path fill="#FF6B80" d="M481.958,850.584c-1.29-6.022,1.52-11.738,5.955-13.67c4.454-1.877,10.525,0.067,13.987,5.156
								c1.655,2.588,2.099,5.629,1.175,8.485c-0.905,2.828-3.185,5.456-6.427,6.831c-3.242,1.386-6.706,1.241-9.38-0.087
								C484.574,856.001,482.669,853.576,481.958,850.584z"/>
						</g>
						<g>
							<path fill="#FF6B80" d="M460.33,852.2c0.289-3.06,1.713-5.705,3.522-7.647c1.827-1.925,4.04-3.175,6.522-3.348
								c4.819-0.337,9.947,3.453,11.583,9.379c0.731,2.982,0.163,6.004-1.627,8.409c-1.76,2.405-4.762,4.118-8.282,4.406
								c-3.521,0.25-6.754-1.01-8.871-3.118C461.053,858.166,460.042,855.26,460.33,852.2z"/>
						</g>
						<g>
							<path fill="#FF6B80" d="M439.357,846.687c2.693-5.56,8.428-8.321,13.104-7.127c2.404,0.635,4.348,2.251,5.801,4.493
								c1.424,2.231,2.338,5.088,2.068,8.148c-0.269,3.06-1.789,5.743-4.262,7.428c-2.462,1.692-5.878,2.357-9.283,1.442
								c-3.425-0.895-6.062-3.155-7.36-5.829C438.097,852.547,438.097,849.469,439.357,846.687z"/>
						</g>
					</g>
				</g>
				<g>
					<path fill="#FF6B80" d="M563.088,902.362c33.124,14.891,72.203,0.076,87.105-33.056c14.912-33.144,0.087-72.213-33.037-87.125
						c-33.134-14.903-72.212-0.078-87.115,33.055C515.13,848.362,529.955,887.451,563.088,902.362z"/>
					<g>
						<g>
							<path fill="#FF6B80" d="M584.052,907.864c-0.261,3.081-1.78,5.736-4.262,7.428c-2.463,1.692-5.879,2.348-9.284,1.443
								c-3.425-0.884-6.061-3.156-7.36-5.829c-1.317-2.694-1.317-5.774-0.058-8.544c1.279-2.811,3.473-4.848,5.82-6.099
								c2.367-1.232,4.868-1.675,7.273-1.039c2.405,0.635,4.368,2.251,5.801,4.482C583.407,901.938,584.33,904.808,584.052,907.864z
								"/>
						</g>
						<g>
							<path fill="#FF6B80" d="M605.679,906.248c0.75,2.984,0.183,6.005-1.616,8.409c-1.771,2.407-4.782,4.137-8.293,4.407
								c-3.521,0.269-6.754-0.998-8.86-3.115c-2.136-2.117-3.137-5.024-2.857-8.084c0.298-3.039,1.722-5.695,3.53-7.639
								c1.828-1.94,4.041-3.173,6.522-3.367c2.492-0.19,4.859,0.715,6.956,2.348C603.148,900.86,604.947,903.268,605.679,906.248z"
								/>
						</g>
						<g>
							<path fill="#FF6B80" d="M625.622,897.745c1.664,2.576,2.107,5.619,1.184,8.464c-0.904,2.849-3.185,5.467-6.437,6.852
								c-3.232,1.385-6.696,1.229-9.371-0.076c-2.693-1.309-4.588-3.753-5.319-6.737c-0.722-2.98-0.23-5.943,0.847-8.368
								c1.106-2.424,2.81-4.33,5.108-5.294c2.299-0.98,4.839-0.922,7.35-0.038C621.485,893.453,623.958,895.166,625.622,897.745z"/>
						</g>
						<g>
							<path fill="#FF6B80" d="M641.736,883.217c2.405,1.906,3.819,4.638,3.868,7.639c0.067,2.984-1.241,6.195-3.868,8.543
								c-2.626,2.386-5.965,3.347-8.918,2.963c-2.973-0.345-5.551-2.041-7.196-4.617c-1.636-2.617-2.145-5.563-1.896-8.215
								c0.26-2.638,1.261-4.986,3.108-6.641c1.855-1.671,4.271-2.424,6.936-2.424C636.417,880.503,639.312,881.311,641.736,883.217z
								"/>
						</g>
						<g>
							<path fill="#FF6B80" d="M652.224,864.246c2.905,1.021,5.127,3.135,6.146,5.945s0.848,6.272-0.865,9.353
								c-1.712,3.098-4.531,5.118-7.456,5.715c-2.935,0.632-5.916-0.135-8.312-2.041c-2.405-1.923-3.848-4.559-4.474-7.138
								c-0.625-2.579-0.442-5.119,0.771-7.292c1.202-2.174,3.241-3.695,5.781-4.56C646.326,863.399,649.327,863.225,652.224,864.246
								z"/>
						</g>
						<g>
							<path fill="#FF6B80" d="M655.994,842.889c3.069,0.019,5.868,1.307,7.744,3.636c1.886,2.308,2.849,5.656,2.233,9.128
								c-0.626,3.475-2.646,6.312-5.215,7.822c-2.579,1.54-5.647,1.81-8.533,0.77c-2.887-1.04-5.109-3.068-6.533-5.311
								c-1.424-2.241-2.087-4.704-1.646-7.147c0.424-2.445,1.876-4.522,3.993-6.157
								C650.146,844.023,652.926,842.868,655.994,842.889z"/>
						</g>
						<g>
							<path fill="#FF6B80" d="M652.599,821.473c2.915-0.981,5.974-0.673,8.514,0.924c2.54,1.557,4.512,4.415,5.061,7.897
								c0.567,3.483-0.442,6.812-2.367,9.083c-1.923,2.3-4.742,3.55-7.812,3.512c-3.078-0.03-5.83-1.233-7.908-2.868
								c-2.098-1.665-3.491-3.771-3.896-6.233c-0.386-2.464,0.307-4.916,1.76-7.14C647.432,824.436,649.684,822.453,652.599,821.473
								z"/>
						</g>
						<g>
							<path fill="#FF6B80" d="M642.478,802.289c2.434-1.866,5.436-2.55,8.36-1.866c2.905,0.663,5.686,2.731,7.33,5.848
								c1.646,3.118,1.78,6.582,0.693,9.352c-1.088,2.801-3.348,4.888-6.263,5.85s-5.917,0.722-8.408-0.164
								c-2.521-0.895-4.541-2.443-5.695-4.657c-1.175-2.193-1.3-4.743-0.636-7.321C638.553,806.771,640.034,804.165,642.478,802.289
								z"/>
						</g>
						<g>
							<path fill="#FF6B80" d="M626.671,787.443c1.692-2.559,4.3-4.194,7.292-4.493c2.963-0.316,6.273,0.732,8.852,3.146
								c2.568,2.416,3.828,5.658,3.703,8.649c-0.124,2.992-1.587,5.696-4.04,7.543c-2.463,1.856-5.368,2.607-8.015,2.578
								c-2.664-0.048-5.079-0.837-6.888-2.55c-1.809-1.703-2.762-4.049-2.974-6.705C624.42,792.967,624.978,790.013,626.671,787.443
								z"/>
						</g>
						<g>
							<path fill="#FF6B80" d="M606.891,778.546c0.779-2.973,2.723-5.359,5.436-6.609c2.703-1.261,6.177-1.347,9.39,0.095
								c3.204,1.454,5.455,4.099,6.302,6.957c0.866,2.867,0.366,5.916-1.347,8.456c-1.712,2.55-4.224,4.205-6.734,5.052
								c-2.53,0.835-5.07,0.865-7.351-0.164c-2.28-1.029-3.935-2.944-5.003-5.387C606.554,784.5,606.121,781.518,606.891,778.546z"
								/>
						</g>
						<g>
							<path fill="#FF6B80" d="M585.303,776.563c-0.241-3.049,0.808-5.946,2.981-8.023c2.136-2.079,5.397-3.281,8.909-2.955
								c3.521,0.309,6.503,2.098,8.235,4.533c1.75,2.433,2.261,5.463,1.462,8.428c-0.799,2.972-2.626,5.348-4.733,6.965
								c-2.116,1.616-4.512,2.452-6.994,2.231c-2.473-0.231-4.666-1.511-6.475-3.473
								C586.918,782.307,585.542,779.643,585.303,776.563z"/>
						</g>
						<g>
							<path fill="#FF6B80" d="M564.243,781.72c-1.232-2.818-1.155-5.896,0.211-8.562c1.356-2.654,4.041-4.857,7.466-5.686
								c3.415-0.836,6.812-0.135,9.245,1.597c2.444,1.742,3.926,4.446,4.138,7.495c0.23,3.079-0.741,5.926-2.204,8.129
								c-1.49,2.203-3.473,3.809-5.906,4.387c-2.415,0.596-4.917,0.105-7.254-1.165C567.619,786.627,565.455,784.539,564.243,781.72
								z"/>
						</g>
						<g>
							<path fill="#FF6B80" d="M545.954,793.39c-2.059-2.281-2.992-5.214-2.55-8.178c0.424-2.944,2.241-5.907,5.214-7.803
								c2.983-1.904,6.427-2.309,9.284-1.452c2.867,0.846,5.138,2.934,6.341,5.762c1.183,2.828,1.202,5.831,0.529,8.398
								c-0.693,2.58-2.078,4.715-4.176,6.062c-2.107,1.328-4.618,1.684-7.245,1.221C550.745,796.94,548.022,795.661,545.954,793.39z
								"/>
						</g>
						<g>
							<path fill="#FF6B80" d="M525.058,852.489c-3.03,0.49-6.003-0.318-8.244-2.298c-2.242-1.963-3.733-5.109-3.694-8.63
								c0.019-3.531,1.559-6.658,3.829-8.592c2.279-1.934,5.272-2.704,8.293-2.155c3.021,0.539,5.541,2.174,7.321,4.137
								c1.77,1.982,2.818,4.299,2.809,6.782c-0.02,2.491-1.097,4.781-2.915,6.744C530.638,850.412,528.088,851.998,525.058,852.489z
								"/>
						</g>
						<g>
							<path fill="#FF6B80" d="M531.917,873.077c-2.712,1.423-5.781,1.616-8.552,0.461c-2.752-1.116-5.166-3.618-6.273-6.965
								c-1.126-3.348-0.683-6.783,0.837-9.341c1.529-2.588,4.099-4.272,7.129-4.743c3.03-0.472,5.956,0.25,8.283,1.54
								c2.328,1.298,4.061,3.155,4.858,5.511c0.79,2.368,0.5,4.897-0.577,7.342C536.525,869.307,534.631,871.615,531.917,873.077z"
								/>
						</g>
						<g>
							<path fill="#FF6B80" d="M545.05,890.317c-2.098,2.23-4.936,3.426-7.938,3.232c-2.973-0.193-6.07-1.771-8.206-4.579
								c-2.136-2.812-2.838-6.195-2.213-9.121c0.615-2.925,2.502-5.369,5.224-6.773c2.724-1.443,5.716-1.693,8.322-1.231
								c2.616,0.499,4.878,1.673,6.368,3.656c1.521,1.982,2.068,4.462,1.829,7.118C548.186,885.237,547.147,888.065,545.05,890.317z
								"/>
						</g>
						<g>
							<path fill="#FF6B80" d="M563.088,902.362c-1.24,2.791-3.55,4.828-6.445,5.619c-2.857,0.808-6.312,0.328-9.246-1.637
								c-2.943-1.941-4.714-4.945-5.069-7.908c-0.395-2.963,0.606-5.888,2.723-8.119c2.107-2.231,4.858-3.443,7.476-3.847
								c2.636-0.425,5.146-0.021,7.215,1.347c2.059,1.385,3.396,3.539,4.041,6.136C564.416,896.533,564.349,899.534,563.088,902.362
								z"/>
						</g>
					</g>
				</g>
				<g>
					<path fill="#FF6B80" d="M509.29,705.997c-33.855-7.735-46.055-0.875-64.468-12.026c-3.137-2.077-6.446-6.061-6.397-9.553
						c0.019-1.789,0.076-3.396,0.577-4.838c0.278-0.703,0.653-1.386,1.154-2.041l0.404-0.451c-0.029-0.029,0.346-0.309,0.49-0.443
						c0.278-0.23,0.529-0.404,0.904-0.606c1.347-0.703,3.04-0.789,4.406-0.097c0.692,0.347,1.299,0.848,1.78,1.53
						c0.413,0.56,0.702,1.387,0.74,2.204c0.135,1.675-0.702,3.598-2.203,4.648c-1.472,1.038-3.646,0.884-4.858-0.587l-0.336,0.288
						c1.067,1.827,3.56,2.588,5.724,1.5c2.117-1.067,3.675-3.472,3.81-6.012c0.251-5.465-5.243-8.775-10.111-6.879
						c-0.576,0.202-1.231,0.528-1.818,0.914c-0.26,0.193-0.336,0.202-0.75,0.53l-0.75,0.625c-0.991,0.895-1.732,2.087-2.405,3.29
						c-5.667,10.063,1.664,20.098,4.551,24.225c6.859,9.023,33.45,33.278,52.701,39.059c41.677,12.508,67.96,40.995,71.145,36.742
						C569.658,769.916,555.776,716.607,509.29,705.997z"/>
					<path fill="#FF6B80" d="M621.168,756.331c28.236,20.204,31.19,33.884,51.758,40.273c3.628,0.972,8.804,0.798,11.401-1.549
						c1.317-1.212,2.472-2.311,3.223-3.647c0.347-0.673,0.606-1.404,0.751-2.212l0.076-0.608c0.039,0,0.01-0.461,0.02-0.663
						c-0.02-0.347-0.058-0.655-0.154-1.067c-0.355-1.481-1.414-2.8-2.847-3.369c-0.722-0.288-1.492-0.404-2.319-0.316
						c-0.692,0.067-1.511,0.394-2.146,0.914c-1.337,1-2.231,2.906-2.02,4.724c0.192,1.789,1.751,3.319,3.655,3.251l0.02,0.442
						c-2.078,0.423-4.311-0.952-4.926-3.3c-0.606-2.29,0.164-5.042,1.982-6.831c3.915-3.801,10.033-1.896,11.853,3.011
						c0.23,0.558,0.413,1.271,0.519,1.963c0.029,0.326,0.067,0.385,0.097,0.913l0.019,0.972c0,1.328-0.403,2.683-0.847,3.983
						c-3.78,10.918-16.144,12.083-21.155,12.66c-11.304,0.856-47.093-2.955-64.188-13.537c-37.01-22.896-75.753-23.666-74.686-28.88
						C533.293,753.551,582.387,728.576,621.168,756.331z"/>
				</g>
				<path fill="#EAE5D3" d="M516.534,809.158c2.79,1.269,5.84,1.26,8.553-0.105c2.655-1.357,4.926-4.099,5.725-7.601
					c0.789-3.521,0.019-6.966-1.829-9.36c-1.809-2.416-4.588-3.752-7.647-3.83l0,0c3.088,0.097,5.888-1.088,7.879-3.386
					c1.925-2.281,2.963-5.677,2.348-9.228c-0.606-3.54-2.665-6.406-5.253-7.917c-2.617-1.53-5.676-1.722-8.533-0.625l0,0
					c2.867-1.068,5.031-3.242,5.974-6.119c0.934-2.847,0.578-6.359-1.317-9.419s-4.936-4.905-7.88-5.339
					c-3.011-0.404-5.888,0.568-8.139,2.694l0,0c2.241-2.087,3.435-4.945,3.185-7.957c-0.202-3.001-1.925-6.099-4.839-8.207
					c-2.925-2.096-6.446-2.635-9.332-1.894c-2.935,0.779-5.224,2.799-6.466,5.6l0,0l0,0l0,0c1.271-2.791,1.261-5.841-0.105-8.554
					c-1.356-2.655-4.099-4.935-7.609-5.724c-3.512-0.789-6.966-0.019-9.352,1.818c-2.414,1.81-3.752,4.598-3.829,7.649l0,0l0,0l0,0
					c0.097-3.089-1.087-5.879-3.396-7.87c-2.271-1.923-5.677-2.963-9.217-2.348c-3.541,0.606-6.418,2.666-7.918,5.254
					c-1.53,2.607-1.723,5.676-0.615,8.533l0,0l0,0l0,0c-1.078-2.868-3.262-5.031-6.129-5.965c-2.848-0.943-6.358-0.577-9.428,1.309
					c-3.051,1.896-4.907,4.935-5.33,7.879c-0.404,3.011,0.567,5.888,2.684,8.14l0,0c-2.078-2.241-4.935-3.435-7.937-3.184
					c-3.011,0.21-6.108,1.923-8.216,4.838c-2.098,2.925-2.636,6.438-1.896,9.333c0.779,2.925,2.79,5.225,5.599,6.464l0,0l0,0l0,0
					c-2.789-1.26-5.849-1.25-8.562,0.107c-2.646,1.355-4.917,4.089-5.715,7.599c-0.789,3.522-0.02,6.976,1.809,9.362
					c1.809,2.405,4.608,3.76,7.658,3.828l0,0l0,0l0,0c-3.088-0.097-5.888,1.088-7.87,3.396c-1.924,2.271-2.973,5.667-2.356,9.217
					c0.615,3.54,2.665,6.417,5.263,7.917c2.607,1.53,5.676,1.723,8.523,0.627l0,0l0,0l0,0c-2.857,1.067-5.021,3.241-5.965,6.117
					c-0.942,2.858-0.577,6.359,1.317,9.419c1.896,3.06,4.927,4.907,7.87,5.339c3.021,0.396,5.897-0.566,8.139-2.683l0,0
					c-2.231,2.077-3.425,4.935-3.184,7.938c0.211,3.02,1.924,6.109,4.839,8.205c2.935,2.107,6.455,2.646,9.341,1.905
					c2.926-0.779,5.215-2.799,6.466-5.598c-1.27,2.789-1.261,5.848,0.105,8.552c1.357,2.656,4.09,4.926,7.601,5.724
					c3.521,0.789,6.966,0.019,9.351-1.818c2.415-1.808,3.772-4.598,3.84-7.647l0,0c-0.106,3.087,1.087,5.877,3.386,7.869
					c2.28,1.915,5.677,2.963,9.217,2.356c3.55-0.614,6.427-2.674,7.927-5.261c1.521-2.607,1.713-5.677,0.616-8.535l0,0
					c1.077,2.868,3.252,5.032,6.129,5.976c2.847,0.943,6.359,0.577,9.418-1.319c3.06-1.886,4.916-4.927,5.34-7.871
					c0.403-3.02-0.568-5.896-2.694-8.138l0,0c2.088,2.231,4.945,3.424,7.946,3.174c3.012-0.202,6.1-1.913,8.207-4.838
					c2.106-2.935,2.646-6.437,1.896-9.322C521.354,812.698,519.333,810.408,516.534,809.158z"/>
				<path fill="#FBFAF6" d="M504.596,803.779c-9.486,21.108-34.298,30.517-55.387,21.022c-21.098-9.486-30.507-34.299-21.012-55.387
					c9.486-21.098,34.298-30.517,55.396-21.02C504.691,757.879,514.09,782.691,504.596,803.779z"/>
				<g>
					<g>
						<path fill="#3A002F" d="M449.709,818.297c-0.326-1.366-0.558-2.713-0.683-4.041c-0.115-1.328-0.145-2.637-0.077-3.897
							c1.202,1.279,2.521,2.435,3.944,3.445c1.424,1.02,2.954,1.896,4.551,2.617c-1.164,0.472-2.405,0.875-3.704,1.193
							C452.451,817.922,451.095,818.163,449.709,818.297z"/>
					</g>
					<g>
						<path fill="#3A002F" d="M441.08,809.109c0.221-1.385,0.538-2.712,0.923-3.983c0.405-1.279,0.876-2.491,1.425-3.636
							c0.625,1.646,1.404,3.224,2.327,4.714c0.924,1.481,1.992,2.887,3.194,4.156c-1.261-0.009-2.559-0.114-3.887-0.316
							C443.755,809.821,442.417,809.514,441.08,809.109z"/>
					</g>
					<g>
						<path fill="#3A002F" d="M436.625,797.344c0.741-1.204,1.53-2.309,2.377-3.339c0.855-1.029,1.761-1.962,2.703-2.81
							c-0.058,1.742,0.058,3.503,0.346,5.233c0.299,1.724,0.761,3.426,1.377,5.061c-1.165-0.49-2.319-1.086-3.464-1.77
							C438.828,799.017,437.702,798.228,436.625,797.344z"/>
					</g>
					<g>
						<path fill="#3A002F" d="M437.01,784.741c1.136-0.818,2.29-1.54,3.464-2.155c1.183-0.625,2.396-1.136,3.569-1.57
							c-0.722,1.597-1.279,3.272-1.674,4.975c-0.395,1.703-0.616,3.453-0.664,5.204c-0.904-0.903-1.741-1.904-2.53-2.972
							C438.396,787.146,437.674,785.991,437.01,784.741z"/>
					</g>
					<g>
						<path fill="#3A002F" d="M442.167,773.272c1.375-0.326,2.723-0.547,4.05-0.673c1.328-0.124,2.627-0.154,3.887-0.076
							c-1.27,1.193-2.424,2.519-3.444,3.943c-1.01,1.425-1.895,2.955-2.616,4.55c-0.462-1.172-0.876-2.414-1.193-3.712
							C442.552,776.015,442.312,774.668,442.167,773.272z"/>
					</g>
					<g>
						<path fill="#3A002F" d="M451.345,764.643c1.386,0.231,2.713,0.53,3.992,0.924c1.271,0.396,2.492,0.875,3.628,1.414
							c-1.636,0.625-3.214,1.406-4.695,2.33c-1.491,0.932-2.887,2.001-4.166,3.213c0.011-1.271,0.115-2.569,0.317-3.887
							C450.633,767.317,450.941,765.981,451.345,764.643z"/>
					</g>
					<g>
						<path fill="#3A002F" d="M463.121,760.179c1.183,0.73,2.309,1.52,3.328,2.368c1.021,0.856,1.973,1.75,2.818,2.693
							c-1.751-0.048-3.502,0.076-5.233,0.364c-1.731,0.29-3.425,0.751-5.069,1.376c0.5-1.164,1.087-2.327,1.77-3.472
							C461.437,762.372,462.226,761.257,463.121,760.179z"/>
					</g>
					<g>
						<path fill="#3A002F" d="M475.704,760.545c0.828,1.125,1.55,2.29,2.175,3.472c0.615,1.174,1.135,2.367,1.558,3.561
							c-1.597-0.713-3.262-1.279-4.974-1.675c-1.703-0.394-3.444-0.615-5.195-0.663c0.896-0.895,1.896-1.732,2.964-2.531
							C473.309,761.93,474.473,761.208,475.704,760.545z"/>
					</g>
					<g>
						<path fill="#3A002F" d="M487.182,765.711c0.327,1.366,0.558,2.713,0.684,4.041c0.104,1.328,0.134,2.637,0.067,3.897
							c-1.193-1.281-2.521-2.445-3.945-3.455c-1.424-1.019-2.953-1.894-4.551-2.616c1.175-0.472,2.405-0.867,3.715-1.193
							C484.44,766.078,485.787,765.846,487.182,765.711z"/>
					</g>
					<g>
						<path fill="#3A002F" d="M495.811,774.889c-0.23,1.387-0.538,2.733-0.932,3.994c-0.405,1.279-0.886,2.491-1.425,3.626
							c-0.625-1.635-1.396-3.213-2.318-4.704c-0.933-1.483-2.001-2.887-3.203-4.156c1.27,0.009,2.559,0.125,3.887,0.327
							C493.127,774.178,494.464,774.495,495.811,774.889z"/>
					</g>
					<g>
						<path fill="#3A002F" d="M500.256,786.665c-0.73,1.204-1.52,2.309-2.376,3.339c-0.856,1.019-1.751,1.962-2.685,2.818
							c0.049-1.762-0.077-3.521-0.365-5.244c-0.289-1.722-0.75-3.424-1.376-5.069c1.165,0.5,2.328,1.088,3.473,1.78
							C498.062,784.992,499.179,785.781,500.256,786.665z"/>
					</g>
					<g>
						<path fill="#3A002F" d="M499.881,799.249c-1.126,0.827-2.299,1.549-3.474,2.174c-1.173,0.625-2.376,1.136-3.568,1.568
							c0.73-1.605,1.288-3.271,1.674-4.973c0.404-1.713,0.635-3.453,0.683-5.195c0.885,0.904,1.731,1.885,2.521,2.963
							C498.495,796.862,499.227,798.018,499.881,799.249z"/>
					</g>
					<g>
						<path fill="#3A002F" d="M494.715,810.736c-1.366,0.317-2.713,0.547-4.031,0.673c-1.328,0.124-2.636,0.143-3.896,0.086
							c1.271-1.212,2.425-2.53,3.444-3.954c1.02-1.425,1.895-2.944,2.607-4.552c0.471,1.174,0.875,2.416,1.202,3.706
							C494.35,807.994,494.58,809.341,494.715,810.736z"/>
					</g>
					<g>
						<path fill="#3A002F" d="M485.536,819.366c-1.386-0.231-2.712-0.549-3.982-0.924c-1.279-0.404-2.492-0.886-3.627-1.414
							c1.636-0.625,3.214-1.414,4.704-2.338c1.481-0.924,2.877-2.001,4.156-3.194c-0.02,1.26-0.115,2.559-0.327,3.876
							C486.258,816.691,485.95,818.019,485.536,819.366z"/>
					</g>
					<g>
						<path fill="#3A002F" d="M473.771,823.83c-1.192-0.732-2.3-1.53-3.329-2.376c-1.028-0.856-1.973-1.751-2.818-2.694
							c1.741,0.057,3.502-0.078,5.224-0.366c1.732-0.289,3.435-0.751,5.08-1.366c-0.501,1.153-1.088,2.317-1.789,3.463
							C475.454,821.626,474.665,822.742,473.771,823.83z"/>
					</g>
					<g>
						<path fill="#3A002F" d="M461.187,823.455c-0.827-1.125-1.549-2.3-2.174-3.463c-0.626-1.185-1.136-2.386-1.568-3.569
							c1.606,0.711,3.271,1.28,4.974,1.673c1.713,0.396,3.454,0.616,5.205,0.665c-0.904,0.895-1.886,1.741-2.963,2.53
							S462.428,822.8,461.187,823.455z"/>
					</g>
				</g>
				<path fill="#3A002F" d="M448.112,782.855c-5.061,11.237-0.058,24.446,11.169,29.497c11.228,5.05,24.446,0.038,29.487-11.199
					c5.061-11.227,0.058-24.455-11.179-29.505C466.372,766.596,453.163,771.619,448.112,782.855z"/>
				<path fill="#FBFAF6" d="M463.342,809.282c-3.617-2.635-4.502-7.639-1.982-11.101c2.55-3.512,7.571-4.205,11.198-1.578
					c3.647,2.664,4.532,7.647,1.973,11.159C472.02,811.227,466.987,811.948,463.342,809.282z"/>
				<path fill="#FBFAF6" d="M454.549,806.33c-1.068-0.172-1.809-1.164-1.636-2.174c0.164-1.031,1.174-1.732,2.242-1.569
					c1.077,0.193,1.799,1.174,1.635,2.194C456.617,805.8,455.617,806.502,454.549,806.33z"/>
				<path fill="#FBFAF6" d="M452.461,801.509c-1.646-0.27-2.771-1.799-2.502-3.375c0.251-1.588,1.8-2.656,3.454-2.386
					c1.665,0.27,2.79,1.789,2.521,3.377C455.684,800.701,454.115,801.77,452.461,801.509z"/>
				<path fill="#EAE5D3" d="M645.845,871.289c-0.779-2.925-2.79-5.214-5.599-6.466l0,0l0,0l0,0c2.8,1.271,5.849,1.252,8.562-0.116
					c2.654-1.366,4.925-4.089,5.714-7.599c0.799-3.512,0.028-6.965-1.818-9.352c-1.809-2.416-4.589-3.763-7.648-3.838l0,0
					c3.089,0.105,5.888-1.078,7.87-3.386c1.924-2.271,2.972-5.677,2.356-9.208c-0.615-3.559-2.665-6.427-5.262-7.927
					c-2.607-1.53-5.667-1.721-8.524-0.625l0,0l0,0l0,0c2.867-1.067,5.032-3.243,5.975-6.119c0.943-2.847,0.567-6.368-1.318-9.417
					c-1.895-3.06-4.936-4.907-7.88-5.34c-3.021-0.404-5.896,0.558-8.139,2.685l0,0c2.242-2.079,3.426-4.937,3.185-7.948
					c-0.212-3.009-1.924-6.099-4.849-8.205s-6.445-2.637-9.322-1.896c-2.935,0.778-5.233,2.8-6.475,5.6l0,0l0,0l0,0
					c1.27-2.791,1.26-5.85-0.105-8.553c-1.357-2.646-4.089-4.926-7.601-5.726c-3.521-0.789-6.966-0.019-9.36,1.818
					c-2.415,1.81-3.752,4.6-3.83,7.66l0,0c0.106-3.1-1.087-5.888-3.396-7.87c-2.271-1.924-5.667-2.974-9.217-2.357
					c-3.541,0.614-6.407,2.664-7.918,5.252c-1.529,2.616-1.722,5.675-0.615,8.533l0,0c-1.077-2.866-3.252-5.032-6.129-5.974
					c-2.848-0.943-6.349-0.568-9.418,1.317c-3.06,1.896-4.906,4.937-5.34,7.889c-0.404,3.011,0.568,5.888,2.693,8.129l0,0
					c-2.087-2.231-4.944-3.424-7.946-3.184c-3.011,0.212-6.099,1.925-8.206,4.849c-2.098,2.925-2.646,6.437-1.896,9.322
					c0.771,2.936,2.79,5.225,5.59,6.475c-2.79-1.269-5.84-1.26-8.553,0.105c-2.655,1.357-4.926,4.089-5.714,7.601
					c-0.789,3.521-0.03,6.965,1.817,9.352c1.8,2.414,4.589,3.762,7.648,3.838l0,0c-3.088-0.097-5.888,1.088-7.87,3.386
					c-1.924,2.281-2.963,5.678-2.356,9.228c0.615,3.54,2.674,6.408,5.263,7.917c2.607,1.53,5.666,1.702,8.523,0.625l0,0
					c-2.857,1.077-5.021,3.234-5.965,6.119c-0.942,2.847-0.567,6.349,1.318,9.427c1.896,3.042,4.926,4.89,7.879,5.332
					c3.012,0.404,5.888-0.56,8.13-2.694l0,0c-2.232,2.079-3.426,4.945-3.175,7.946c0.201,3.001,1.924,6.099,4.839,8.198
					c2.935,2.113,6.446,2.652,9.332,1.903c2.925-0.788,5.225-2.791,6.465-5.598c-1.27,2.79-1.251,5.85,0.106,8.543
					c1.356,2.656,4.089,4.945,7.609,5.733c3.512,0.808,6.965,0.021,9.352-1.81c2.415-1.806,3.762-4.596,3.838-7.656l0,0
					c-0.104,3.077,1.078,5.888,3.388,7.87c2.271,1.924,5.675,2.98,9.216,2.366c3.54-0.615,6.417-2.676,7.918-5.273
					c1.529-2.617,1.722-5.674,0.625-8.522v-0.021l0,0v0.021c1.078,2.866,3.252,5.021,6.119,5.964
					c2.847,0.942,6.368,0.577,9.419-1.326c3.059-1.886,4.906-4.928,5.339-7.87c0.403-3.021-0.567-5.888-2.685-8.14l0,0l0,0l0,0
					c2.078,2.231,4.936,3.426,7.947,3.194c3.002-0.231,6.1-1.923,8.196-4.849C646.066,877.695,646.596,874.174,645.845,871.289z"/>
				<g>
					<path fill="#FBFAF6" d="M551.014,824.676c-9.494,21.089-0.086,45.899,21.021,55.385c21.089,9.486,45.891,0.097,55.386-21.011
						c9.496-21.098,0.087-45.908-21.011-55.395C585.312,794.16,560.51,803.577,551.014,824.676z"/>
					<path fill="#3A002F" d="M604.148,853.057c-5.06,11.246-18.259,16.25-29.486,11.208c-11.228-5.051-16.239-18.27-11.18-29.497
						c5.052-11.237,18.261-16.258,29.507-11.208C604.207,828.61,609.199,841.83,604.148,853.057z"/>
					<g>
						<g>
							<path fill="#3A002F" d="M565.07,870.19c-0.318-1.347-0.549-2.693-0.674-4.021c-0.125-1.328-0.144-2.635-0.077-3.896
								c1.203,1.261,2.511,2.433,3.954,3.454c1.424,1,2.954,1.885,4.542,2.618c-1.165,0.461-2.416,0.865-3.705,1.191
								C567.821,869.845,566.465,870.075,565.07,870.19z"/>
						</g>
						<g>
							<path fill="#3A002F" d="M556.449,861.022c0.223-1.385,0.539-2.721,0.934-3.982c0.404-1.279,0.866-2.491,1.414-3.628
								c0.626,1.636,1.405,3.214,2.329,4.695c0.923,1.492,2.001,2.896,3.193,4.166c-1.27-0.019-2.559-0.126-3.887-0.328
								C559.124,861.735,557.787,861.426,556.449,861.022z"/>
						</g>
						<g>
							<path fill="#3A002F" d="M551.996,849.248c0.74-1.193,1.529-2.31,2.376-3.329c0.856-1.029,1.761-1.972,2.694-2.81
								c-0.049,1.732,0.076,3.491,0.355,5.233c0.298,1.722,0.75,3.424,1.375,5.069c-1.163-0.509-2.327-1.106-3.472-1.789
								C554.199,850.921,553.083,850.132,551.996,849.248z"/>
						</g>
						<g>
							<path fill="#3A002F" d="M552.381,836.653c1.125-0.827,2.299-1.539,3.463-2.155c1.184-0.625,2.386-1.145,3.569-1.568
								c-0.722,1.587-1.28,3.262-1.674,4.973c-0.395,1.704-0.616,3.455-0.673,5.206c-0.896-0.915-1.732-1.904-2.521-2.973
								C553.766,839.059,553.045,837.895,552.381,836.653z"/>
						</g>
						<g>
							<path fill="#3A002F" d="M557.547,825.187c1.366-0.328,2.713-0.549,4.031-0.684c1.337-0.125,2.636-0.145,3.896-0.078
								c-1.279,1.204-2.434,2.531-3.454,3.954c-1.01,1.425-1.895,2.944-2.606,4.552c-0.471-1.174-0.876-2.416-1.192-3.714
								C557.912,827.918,557.682,826.571,557.547,825.187z"/>
						</g>
						<g>
							<path fill="#3A002F" d="M566.716,816.557c1.385,0.221,2.722,0.539,3.992,0.914c1.27,0.404,2.491,0.875,3.627,1.414
								c-1.636,0.635-3.214,1.414-4.705,2.338c-1.481,0.932-2.876,2.001-4.156,3.203c0.01-1.269,0.116-2.559,0.318-3.887
								C566.003,819.231,566.311,817.893,566.716,816.557z"/>
						</g>
						<g>
							<path fill="#3A002F" d="M578.481,812.083c1.202,0.73,2.309,1.52,3.338,2.376c1.029,0.846,1.972,1.751,2.819,2.685
								c-1.751-0.04-3.502,0.076-5.233,0.364c-1.732,0.299-3.425,0.76-5.07,1.376c0.5-1.155,1.097-2.319,1.771-3.464
								C576.807,814.286,577.596,813.169,578.481,812.083z"/>
						</g>
						<g>
							<path fill="#3A002F" d="M591.074,812.458c0.827,1.126,1.549,2.29,2.174,3.472c0.617,1.174,1.136,2.378,1.56,3.561
								c-1.598-0.722-3.271-1.279-4.984-1.673c-1.692-0.396-3.434-0.617-5.185-0.674c0.903-0.886,1.885-1.731,2.972-2.521
								C588.679,813.834,589.833,813.112,591.074,812.458z"/>
						</g>
						<g>
							<path fill="#3A002F" d="M602.552,817.624c0.327,1.366,0.548,2.712,0.683,4.031c0.116,1.337,0.135,2.635,0.067,3.906
								c-1.192-1.28-2.52-2.443-3.943-3.454c-1.425-1.021-2.944-1.896-4.551-2.618c1.173-0.471,2.415-0.865,3.713-1.193
								C599.81,817.99,601.156,817.758,602.552,817.624z"/>
						</g>
						<g>
							<path fill="#3A002F" d="M611.172,826.803c-0.221,1.385-0.538,2.721-0.924,3.992c-0.404,1.269-0.885,2.491-1.424,3.626
								c-0.615-1.635-1.395-3.213-2.318-4.704c-0.943-1.492-2.001-2.887-3.204-4.156c1.271,0,2.56,0.115,3.887,0.317
								C608.497,826.09,609.835,826.398,611.172,826.803z"/>
						</g>
						<g>
							<path fill="#3A002F" d="M615.637,838.577c-0.742,1.193-1.54,2.31-2.387,3.329c-0.847,1.029-1.751,1.974-2.693,2.82
								c0.058-1.751-0.067-3.512-0.356-5.233c-0.289-1.732-0.751-3.435-1.376-5.071c1.164,0.5,2.329,1.088,3.474,1.78
								C613.424,836.904,614.549,837.693,615.637,838.577z"/>
						</g>
						<g>
							<path fill="#3A002F" d="M615.251,851.161c-1.135,0.829-2.3,1.548-3.473,2.165c-1.175,0.635-2.376,1.145-3.56,1.578
								c0.711-1.607,1.279-3.272,1.664-4.983c0.404-1.704,0.616-3.455,0.674-5.195c0.895,0.905,1.731,1.886,2.52,2.963
								C613.865,848.776,614.597,849.93,615.251,851.161z"/>
						</g>
						<g>
							<path fill="#3A002F" d="M610.085,862.648c-1.366,0.307-2.713,0.539-4.031,0.654c-1.337,0.135-2.636,0.154-3.896,0.097
								c1.27-1.204,2.435-2.521,3.444-3.945c1.02-1.423,1.886-2.953,2.617-4.55c0.462,1.164,0.875,2.414,1.193,3.704
								C609.719,859.906,609.95,861.253,610.085,862.648z"/>
						</g>
						<g>
							<path fill="#3A002F" d="M600.907,871.268c-1.386-0.229-2.714-0.539-3.983-0.923c-1.279-0.383-2.492-0.884-3.637-1.423
								c1.636-0.617,3.223-1.385,4.714-2.309c1.481-0.924,2.877-2.001,4.156-3.213c-0.01,1.25-0.124,2.559-0.326,3.887
								C601.618,868.614,601.32,869.921,600.907,871.268z"/>
						</g>
						<g>
							<path fill="#3A002F" d="M589.141,875.734c-1.193-0.732-2.309-1.522-3.329-2.368c-1.029-0.865-1.972-1.751-2.818-2.694
								c1.741,0.057,3.502-0.077,5.224-0.366c1.741-0.289,3.436-0.75,5.07-1.385c-0.49,1.174-1.087,2.346-1.77,3.483
								C590.814,873.539,590.036,874.655,589.141,875.734z"/>
						</g>
						<g>
							<path fill="#3A002F" d="M576.547,875.368c-0.817-1.137-1.539-2.291-2.164-3.483c-0.615-1.155-1.136-2.367-1.567-3.54
								c1.606,0.692,3.27,1.269,4.974,1.654c1.712,0.404,3.453,0.614,5.204,0.673c-0.904,0.886-1.886,1.732-2.973,2.521
								C578.943,873.982,577.789,874.693,576.547,875.368z"/>
						</g>
					</g>
					<path fill="#FBFAF6" d="M572.228,858.28c-3.617-2.635-4.502-7.639-1.981-11.111c2.54-3.502,7.571-4.205,11.198-1.578
						c3.646,2.666,4.521,7.649,1.981,11.161C580.896,860.214,575.874,860.936,572.228,858.28z"/>
					<path fill="#FBFAF6" d="M583.542,864.361c0.827,0.673,2.059,0.577,2.703-0.212c0.664-0.808,0.51-2.029-0.327-2.723
						c-0.837-0.673-2.06-0.566-2.713,0.231C582.551,862.465,582.695,863.688,583.542,864.361z"/>
					<path fill="#FBFAF6" d="M589.844,863.322c-1.646-0.27-2.781-1.789-2.512-3.367c0.26-1.597,1.809-2.664,3.464-2.395
						c1.664,0.278,2.779,1.779,2.52,3.376C593.057,862.514,591.497,863.572,589.844,863.322z"/>
				</g>
				<path fill="#3A002F" d="M521.989,827.264c0,0-14.393,1.732-22.436,13.306c2.289,5.465,3.627,28.487,3.627,28.487
					s18.116-14.268,23.734-16.183C530.243,839.183,521.989,827.264,521.989,827.264z"/>
				<g opacity="0.25">
					<path fill="#1D1D1B" d="M521.989,827.264L521.989,827.264l-18.809,41.792l0,0c0,0,18.116-14.268,23.734-16.183
						C530.243,839.183,521.989,827.264,521.989,827.264z"/>
				</g>
				<g>
					<path fill="#EAE5D3" d="M488.847,919.815c0.144-0.673-0.213-1.347-0.838-1.616l0,0c-0.635-0.252-1.376-0.021-1.731,0.556
						c-1.059,1.692-2.685,2.58-3.868,2.096c-1.183-0.48-1.73-2.269-1.289-4.213c0.155-0.691-0.202-1.347-0.827-1.616
						c-0.009,0-0.009,0-0.009,0c-0.646-0.27-1.367-0.018-1.723,0.577l-0.192,0.27c-0.212,0.307-0.414,0.635-0.567,1.001
						c-1.521,3.712-0.366,7.697,2.578,8.927c2.935,1.195,6.562-0.808,8.091-4.521c0.173-0.425,0.251-0.829,0.308-1.153
						L488.847,919.815z"/>
					<path fill="#EAE5D3" d="M450.565,904.017c0.145-0.652-0.202-1.326-0.837-1.578c0,0,0-0.017-0.009-0.017
						c-0.636-0.252-1.357-0.021-1.723,0.556c-1.059,1.713-2.685,2.58-3.868,2.117c-1.183-0.501-1.721-2.269-1.279-4.234
						c0.154-0.673-0.24-1.461-0.847-1.616c-0.645-0.27-1.375,0-1.722,0.577l-0.192,0.29c-0.202,0.308-0.414,0.635-0.568,1.001
						c-1.52,3.712-0.355,7.677,2.579,8.91c2.944,1.191,6.562-0.812,8.091-4.524c0.183-0.442,0.25-0.825,0.317-1.174L450.565,904.017
						z"/>
					<path fill="#EAE5D3" d="M518.66,941.558c2.935,1.212,6.562-0.808,8.081-4.523c0.184-0.421,0.26-0.846,0.318-1.154l0.058-0.307
						c0.145-0.673-0.27-1.385-0.847-1.616c-0.625-0.231-1.347,0-1.723,0.577c-1.059,1.692-2.685,2.58-3.857,2.096
						c-1.184-0.48-1.731-2.269-1.29-4.213c0.154-0.694-0.096-1.423-0.846-1.637c-0.646-0.249-1.367,0-1.723,0.597l-0.183,0.269
						c-0.212,0.308-0.414,0.636-0.567,1.002C514.552,936.343,515.706,940.346,518.66,941.558z"/>
					<path fill="#EAE5D3" d="M470.423,964.512c0.145-0.694-0.212-1.347-0.837-1.616l0,0c-0.635-0.27-1.366-0.021-1.723,0.556
						c-1.068,1.713-2.693,2.6-3.877,2.1c-1.184-0.501-1.722-2.272-1.28-4.234c0.155-0.656-0.316-1.347-0.846-1.599
						c-0.636-0.249-1.356-0.017-1.723,0.56l-0.183,0.29c-0.212,0.325-0.414,0.632-0.567,1.019c-1.529,3.695-0.375,7.698,2.568,8.889
						c2.944,1.233,6.571-0.808,8.091-4.503c0.174-0.421,0.261-0.846,0.318-1.153L470.423,964.512z"/>
					<path fill="#EAE5D3" d="M432.151,948.734c0.145-0.673-0.212-1.347-0.837-1.616c-0.009,0-0.009,0-0.009,0
						c-0.636-0.231-1.356,0-1.723,0.577c-1.059,1.692-2.685,2.58-3.868,2.079c-1.183-0.48-1.721-2.272-1.289-4.213
						c0.154-0.673-0.239-1.443-0.846-1.616c-0.636-0.252-1.366,0-1.723,0.576l-0.192,0.287c-0.202,0.307-0.403,0.635-0.558,1.001
						c-1.529,3.695-0.366,7.698,2.578,8.91c2.935,1.212,6.562-0.809,8.091-4.524c0.173-0.421,0.251-0.846,0.318-1.191
						L432.151,948.734z"/>
					<path fill="#EAE5D3" d="M508.703,980.27c0.145-0.673-0.309-1.288-0.847-1.595c-0.635-0.27-1.356-0.021-1.723,0.556
						c-1.058,1.695-2.685,2.579-3.867,2.1c-1.184-0.501-1.722-2.272-1.289-4.234c0.154-0.673-0.097-1.385-0.837-1.616
						c-0.645-0.252-1.375,0-1.732,0.577l-0.183,0.287c-0.212,0.328-0.413,0.635-0.567,1.022c-1.521,3.695-0.365,7.677,2.578,8.889
						c2.944,1.212,6.562-0.808,8.091-4.503c0.184-0.442,0.26-0.846,0.318-1.191L508.703,980.27z"/>
					<path fill="#EAE5D3" d="M513.368,903.613c0.146-0.673-0.163-1.288-0.846-1.596c-0.636-0.269-1.356-0.038-1.723,0.556
						c-1.059,1.713-2.684,2.58-3.867,2.1c-1.183-0.501-1.722-2.272-1.289-4.234c0.153-0.673-0.184-1.426-0.847-1.616
						c-0.635-0.252-1.366,0-1.722,0.577l-0.184,0.287c-0.211,0.311-0.413,0.635-0.566,1.001c-1.521,3.716-0.366,7.698,2.577,8.91
						c2.935,1.212,6.571-0.808,8.092-4.503c0.172-0.442,0.25-0.846,0.307-1.174L513.368,903.613z"/>
					<path fill="#EAE5D3" d="M482.843,891.049c0.145-0.673-0.212-1.347-0.838-1.616h-0.009c-0.625-0.252-1.366-0.021-1.712,0.556
						c-1.068,1.713-2.694,2.58-3.878,2.1c-1.192-0.501-1.731-2.272-1.288-4.234c0.153-0.656-0.193-1.347-0.828-1.599l0,0
						c-0.635-0.249-1.366-0.018-1.732,0.559l-0.173,0.27c-0.211,0.328-0.433,0.653-0.587,1.04c-1.52,3.695-0.365,7.697,2.568,8.889
						c2.944,1.233,6.571-0.808,8.092-4.503c0.183-0.421,0.25-0.826,0.317-1.154L482.843,891.049z"/>
					<path fill="#EAE5D3" d="M495.061,948.04c0.154-0.673-0.211-1.347-0.827-1.616h-0.01c-0.635-0.27-1.366-0.018-1.722,0.576
						c-1.059,1.696-2.693,2.58-3.877,2.079c-1.174-0.48-1.713-2.269-1.28-4.234c0.154-0.652-0.211-1.326-0.847-1.595
						c-0.635-0.249-1.365-0.021-1.722,0.577l-0.192,0.29c-0.211,0.307-0.404,0.635-0.558,0.998
						c-1.529,3.695-0.366,7.698,2.568,8.892c2.944,1.229,6.571-0.808,8.101-4.503c0.173-0.425,0.251-0.846,0.308-1.157
						L495.061,948.04z"/>
					<path fill="#EAE5D3" d="M433.634,924.336c0.182-0.425,0.249-0.808,0.316-1.153l0.059-0.311
						c0.144-0.653-0.202-1.347-0.837-1.596c-0.683-0.249-1.367-0.021-1.723,0.56c-1.059,1.692-2.684,2.576-3.867,2.096
						c-1.193-0.48-1.732-2.272-1.289-4.234c0.153-0.653-0.202-1.326-0.837-1.596l0,0c-0.645-0.269-1.376-0.021-1.731,0.556
						l-0.184,0.29c-0.211,0.308-0.413,0.635-0.567,1.001c-1.52,3.692-0.375,7.694,2.569,8.906
						C428.486,930.068,432.113,928.048,433.634,924.336z"/>
					<path fill="#EAE5D3" d="M464.535,935.456c0.153-0.653-0.202-1.347-0.838-1.616l0,0c-0.635-0.249-1.365-0.018-1.722,0.58
						c-1.058,1.692-2.685,2.576-3.867,2.075c-1.193-0.48-1.732-2.251-1.289-4.213c0.153-0.673-0.212-1.309-0.847-1.596
						c-0.636-0.269-1.356-0.041-1.723,0.556l-0.173,0.29c-0.222,0.308-0.424,0.615-0.577,0.998c-1.521,3.695-0.376,7.698,2.568,8.91
						s6.57-0.825,8.091-4.521c0.184-0.425,0.251-0.808,0.318-1.153L464.535,935.456z"/>
					<path fill="#EAE5D3" d="M525.529,960.931l0.058-0.308c0.154-0.673-0.192-1.347-0.837-1.616l0,0
						c-0.625-0.27-1.356-0.038-1.722,0.559c-1.059,1.713-2.684,2.576-3.868,2.096c-1.192-0.501-1.722-2.269-1.279-4.234
						c0.145-0.653-0.202-1.347-0.837-1.595h-0.01c-0.635-0.27-1.356-0.021-1.723,0.56l-0.172,0.269
						c-0.222,0.325-0.434,0.653-0.588,1.036c-1.52,3.695-0.365,7.68,2.579,8.892c2.934,1.212,6.561-0.808,8.081-4.503
						C525.395,961.663,525.462,961.259,525.529,960.931z"/>
				</g>
				<g>
					<path fill="#3A002F" d="M341.767,849.103c-24.61,20.126-52.183,20.05-52.183,20.05s45.457,57.452,110.743,26.358
						c37.722-17.989,27.591-57.328,4.762-66.968C389.282,821.857,371.244,824.984,341.767,849.103z"/>
				</g>
				<g>
					<path fill="#3A002F" d="M661.064,915.637c29.314,12.297,55.723,4.369,55.723,4.369s-27.217,68.02-98.649,56.8
						c-41.282-6.485-42.773-47.083-23.639-62.823C607.747,903.057,625.92,900.939,661.064,915.637z"/>
				</g>
			</g>
			<path opacity="0.15" fill="#1D1D1B" d="M716.787,920.006c0,0-26.408,7.929-55.723-4.369c-13.748-5.75-24.869-8.889-34.144-9.966
				c0.683-2.656,0.26-5.404-1.231-7.812c0.01,0,0.02,0,0.029,0c1.646,2.5,4.175,4.158,7.1,4.503
				c2.953,0.384,6.292-0.577,8.918-2.963c2.627-2.348,3.936-5.56,3.868-8.543c-0.049-3.001-1.463-5.732-3.868-7.639h-0.009l0,0
				h0.009c2.396,1.906,5.378,2.673,8.312,2.041c2.925-0.598,5.744-2.618,7.456-5.715c1.713-3.081,1.885-6.543,0.865-9.353
				s-3.241-4.924-6.146-5.945l-0.02-0.019l0,0l0.02,0.019c2.886,1.04,5.954,0.77,8.533-0.77c2.568-1.511,4.589-4.348,5.215-7.822
				c0.615-3.472-0.348-6.82-2.233-9.128c-1.876-2.33-4.675-3.618-7.744-3.636c0,0-0.009,0.008-0.019,0.008c0-0.008,0-0.008,0-0.008
				c0.01,0,0.01,0,0.01,0c3.078,0.038,5.897-1.212,7.82-3.512c1.925-2.271,2.935-5.6,2.367-9.083
				c-0.549-3.482-2.521-6.34-5.061-7.897c-2.54-1.597-5.599-1.905-8.514-0.924l0,0c0,0,0,0-0.01,0c0.01,0,0.01,0,0.01,0
				c2.915-0.962,5.175-3.049,6.263-5.85c1.087-2.77,0.952-6.233-0.693-9.352c-0.125-0.24-0.298-0.432-0.432-0.663
				c5.204,0.404,9.572,0.49,12.391,0.27c5.012-0.577,17.375-1.742,21.155-12.66c0.443-1.3,0.847-2.656,0.847-3.983l-0.019-0.972
				c-0.029-0.528-0.067-0.587-0.097-0.913c-0.105-0.692-0.288-1.406-0.519-1.963c-1.819-4.907-7.938-6.812-11.853-3.011
				c-1.818,1.789-2.589,4.541-1.982,6.831c0.615,2.348,2.848,3.723,4.926,3.3l-0.02-0.442c-1.904,0.067-3.463-1.463-3.655-3.251
				c-0.212-1.818,0.683-3.725,2.02-4.724c0.635-0.52,1.453-0.846,2.146-0.914c0.827-0.088,1.598,0.028,2.319,0.316
				c1.433,0.568,2.491,1.887,2.847,3.369c0.097,0.413,0.135,0.72,0.154,1.067c-0.01,0.202,0.02,0.663-0.02,0.663l-0.076,0.608
				c-0.145,0.808-0.404,1.539-0.751,2.212c-0.751,1.336-1.905,2.435-3.223,3.647c-2.598,2.347-7.773,2.521-11.401,1.549
				c-20.567-6.389-23.521-20.069-51.758-40.273c-20.349-14.564-43.534-14.604-61.264-9.928c-0.434-0.202-0.827-0.423-1.261-0.636
				c-0.039-0.019-0.067-0.027-0.116-0.046L441.34,1006.419c0.01,0,0.019,0,0.038,0.021c1.905,1.019,3.81,1.982,5.705,2.904
				c-1.02,1.271-1.963,2.77-2.742,4.503c-2.81,6.254-2.309,12.39,1.145,13.931c1.876,0.846,4.186,0.097,6.35-1.734
				c-1.423,5.506-0.798,9.929,1.905,11.162c2.694,1.191,6.417-1.271,9.572-5.984c0.078,2.828,1.049,5.062,2.935,5.908
				c3.454,1.537,8.37-2.138,11.188-8.392c1.376-3.077,1.943-6.099,1.771-8.581c45.698,8.256,83.893-16.508,108.376-61.764
				c5.33,8.851,15.172,16.01,30.556,18.414C689.57,988.026,716.787,920.006,716.787,920.006z M468.412,1018.001
				c0.02-0.114,0.02-0.211,0.028-0.324c0.067,0.017,0.135,0.037,0.212,0.055C468.565,1017.811,468.498,1017.925,468.412,1018.001z"
				/>
		</g>
		<g>
			<g>
				<path fill="#FF6B80" d="M1412.061,915.869c-25.285-86.45-20.955-137.506,46.157-170.102l0,0l0,0l0,0l0,0
					c68.904-28.61,110.002,2.012,157.914,78.284c47.718,75.964,40.715,152.776-40.64,182.389
					C1499.412,1047.672,1437.267,1001.974,1412.061,915.869z"/>
				<path fill="#3A002F" d="M1571.394,1027.777c3.446-1.541,3.947-7.677,1.136-13.931c-2.807-6.254-7.735-9.929-11.178-8.389
					c-3.464,1.558-3.944,7.677-1.137,13.932C1563.026,1025.64,1567.934,1029.334,1571.394,1027.777z"/>
				<path fill="#3A002F" d="M1550.636,1037.129c3.442-1.561,3.961-7.697,1.133-13.951c-2.808-6.254-7.735-9.929-11.179-8.371
					c-3.464,1.54-3.965,7.681-1.153,13.931C1542.265,1034.991,1547.172,1038.666,1550.636,1037.129z"/>
				<path fill="#3A002F" d="M1563.141,1037.205c3.501-1.578,3.539-8.603,0.075-16.317c-3.46-7.697-8.754-12.332-12.256-10.757
					c-3.501,1.578-3.519,8.603-0.055,16.299C1554.365,1034.145,1559.639,1038.783,1563.141,1037.205z"/>
				<path fill="#3A002F" d="M1614.979,1008.169c3.46-1.557,3.961-7.677,1.132-13.931c-2.808-6.254-7.714-9.945-11.178-8.388
					c-3.443,1.558-3.944,7.677-1.137,13.931C1606.625,1006.035,1611.531,1009.727,1614.979,1008.169z"/>
				<path fill="#3A002F" d="M1594.217,1017.5c3.464-1.536,3.961-7.677,1.153-13.927c-2.828-6.254-7.735-9.932-11.199-8.392
					c-3.443,1.561-3.943,7.677-1.115,13.931C1585.863,1015.366,1590.771,1019.062,1594.217,1017.5z"/>
				<path fill="#3A002F" d="M1606.742,1017.58c3.501-1.578,3.539-8.582,0.076-16.3c-3.464-7.715-8.734-12.333-12.256-10.754
					c-3.502,1.578-3.54,8.581-0.076,16.296C1597.949,1014.537,1603.22,1019.158,1606.742,1017.58z"/>
				<g>
					<path fill="#FF6B80" d="M1577.513,846.687c33.114-14.912,47.95-53.989,33.038-87.124
						c-14.911-33.133-53.972-47.948-87.104-33.047c-33.135,14.903-47.97,53.983-33.059,87.116
						C1505.301,846.765,1544.382,861.59,1577.513,846.687z"/>
					<g>
						<g>
							<path fill="#FF6B80" d="M1595.543,834.652c-2.097-2.231-4.849-3.435-7.467-3.857c-2.635-0.404-5.135-0.011-7.214,1.357
								c-3.985,2.712-5.735,8.831-3.35,14.535c1.25,2.791,3.543,4.831,6.447,5.629c2.866,0.808,6.31,0.327,9.234-1.635
								c2.946-1.953,4.714-4.955,5.08-7.908C1598.661,839.799,1597.66,836.885,1595.543,834.652z"/>
						</g>
						<g>
							<path fill="#FF6B80" d="M1608.687,817.393c-5.525-2.713-11.759-1.385-14.701,2.445c-1.52,1.972-2.059,4.453-1.83,7.109
								c0.252,2.636,1.291,5.454,3.388,7.706c2.096,2.241,4.945,3.426,7.946,3.232c2.963-0.184,6.061-1.77,8.198-4.579
								c2.134-2.81,2.828-6.206,2.213-9.121C1613.282,821.241,1611.396,818.817,1608.687,817.393z"/>
						</g>
						<g>
							<path fill="#FF6B80" d="M1615.534,796.824c-6.099-0.789-11.583,2.473-13.14,7.052c-1.481,4.598,0.922,10.486,6.292,13.517
								c2.71,1.443,5.771,1.637,8.54,0.481c2.772-1.125,5.176-3.627,6.292-6.965c1.118-3.337,0.673-6.792-0.864-9.341
								C1621.136,798.979,1618.556,797.285,1615.534,796.824z"/>
						</g>
						<g>
							<path fill="#FF6B80" d="M1615.361,775.139c-3.039,0.539-5.543,2.174-7.331,4.147c-1.789,1.98-2.829,4.291-2.808,6.772
								c0.076,4.83,4.271,9.621,10.312,10.766c3.039,0.49,6.005-0.317,8.253-2.309c2.234-1.963,3.733-5.099,3.678-8.64
								c-0.021-3.521-1.54-6.647-3.829-8.571C1621.363,775.36,1618.383,774.592,1615.361,775.139z"/>
						</g>
						<g>
							<path fill="#FF6B80" d="M1608.105,754.695c-5.29,3.136-7.597,9.083-6.022,13.643c0.829,2.347,2.618,4.165,4.966,5.417
								c2.349,1.242,5.273,1.905,8.312,1.385c3.021-0.52,5.56-2.26,7.041-4.868c1.482-2.588,1.848-6.052,0.656-9.37
								c-1.156-3.329-3.636-5.764-6.409-6.841C1613.859,752.955,1610.8,753.204,1608.105,754.695z"/>
						</g>
						<g>
							<path fill="#FF6B80" d="M1594.638,737.715c-2.058,2.29-3.039,5.128-3.232,7.773c-0.193,2.665,0.425,5.128,1.962,7.071
								c1.54,1.953,3.812,3.089,6.447,3.521c2.617,0.415,5.598,0.097,8.291-1.385c2.694-1.471,4.542-3.935,5.08-6.888
								c0.58-2.925-0.189-6.311-2.386-9.082c-2.193-2.771-5.329-4.282-8.312-4.396
								C1599.486,734.185,1596.679,735.426,1594.638,737.715z"/>
						</g>
						<g>
							<path fill="#FF6B80" d="M1576.339,726.045c-2.248,5.734-0.404,11.843,3.657,14.47c4.078,2.569,10.391,1.656,14.642-2.799
								c2.059-2.271,2.983-5.204,2.542-8.168c-0.425-2.953-2.234-5.916-5.215-7.793c-2.983-1.913-6.427-2.317-9.275-1.462
								C1579.823,721.14,1577.551,723.227,1576.339,726.045z"/>
						</g>
						<g>
							<path fill="#FF6B80" d="M1555.291,720.897c-0.231,3.079,0.731,5.928,2.213,8.131c1.481,2.204,3.464,3.799,5.889,4.386
								c4.692,1.126,10.387-1.77,12.946-7.369c1.232-2.81,1.157-5.896-0.211-8.552c-1.347-2.656-4.02-4.859-7.466-5.694
								c-3.405-0.829-6.811-0.126-9.234,1.605C1556.982,715.145,1555.501,717.84,1555.291,720.897z"/>
						</g>
						<g>
							<path fill="#FF6B80" d="M1533.7,722.89c0.791,2.963,2.639,5.339,4.734,6.955c2.117,1.607,4.504,2.454,6.986,2.233
								c2.479-0.221,4.676-1.511,6.482-3.475c1.771-1.961,3.136-4.636,3.388-7.706c0.231-3.049-0.809-5.945-2.984-8.022
								c-2.134-2.079-5.404-3.281-8.906-2.964c-3.521,0.317-6.506,2.108-8.235,4.541
								C1533.414,716.887,1532.893,719.917,1533.7,722.89z"/>
						</g>
						<g>
							<path fill="#FF6B80" d="M1513.923,731.79c1.71,2.548,4.214,4.205,6.734,5.04c2.538,0.827,5.08,0.867,7.349-0.162
								c2.29-1.021,3.943-2.944,5.004-5.389c1.039-2.443,1.461-5.425,0.69-8.388c-0.787-2.973-2.731-5.368-5.442-6.62
								c-2.697-1.261-6.178-1.337-9.39,0.107c-3.194,1.442-5.445,4.097-6.292,6.955
								C1511.71,726.199,1512.211,729.239,1513.923,731.79z"/>
						</g>
						<g>
							<path fill="#FF6B80" d="M1498.124,746.623c2.445,1.867,5.35,2.607,8.005,2.58c2.656-0.049,5.08-0.838,6.89-2.55
								c1.806-1.703,2.749-4.051,2.963-6.705c0.19-2.647-0.366-5.6-2.059-8.159c-1.695-2.569-4.312-4.205-7.293-4.503
								c-2.963-0.307-6.274,0.732-8.851,3.157c-2.58,2.424-3.83,5.646-3.695,8.63
								C1494.197,742.082,1495.662,744.786,1498.124,746.623z"/>
						</g>
						<g>
							<path fill="#FF6B80" d="M1487.985,765.808c5.905,1.779,11.852-0.549,14.12-4.81c1.175-2.204,1.292-4.754,0.619-7.332
								c-0.674-2.55-2.155-5.167-4.601-7.043c-2.441-1.856-5.445-2.54-8.37-1.866c-2.904,0.665-5.674,2.742-7.328,5.86
								c-1.658,3.106-1.771,6.58-0.694,9.35C1482.809,762.768,1485.077,764.855,1487.985,765.808z"/>
						</g>
						<g>
							<path fill="#FF6B80" d="M1484.598,787.223c6.157-0.221,11.026-4.339,11.813-9.102c0.712-4.781-2.635-10.198-8.426-12.313
								c-2.908-0.972-5.964-0.665-8.506,0.922c-2.538,1.569-4.521,4.417-5.059,7.908c-0.56,3.474,0.441,6.812,2.365,9.082
								C1478.71,786.021,1481.538,787.262,1484.598,787.223z"/>
						</g>
						<g>
							<path fill="#FF6B80" d="M1488.368,808.581c2.908-1.039,5.118-3.07,6.544-5.292c1.424-2.26,2.076-4.714,1.634-7.157
								c-0.421-2.454-1.864-4.532-3.981-6.157c-2.117-1.607-4.887-2.761-7.967-2.752c-3.06,0.019-5.867,1.309-7.753,3.636
								c-1.886,2.31-2.828,5.658-2.214,9.141c0.615,3.472,2.635,6.3,5.215,7.82C1482.426,809.36,1485.481,809.619,1488.368,808.581z
								"/>
						</g>
						<g>
							<path fill="#FF6B80" d="M1498.856,827.552c2.403-1.915,3.847-4.56,4.482-7.128c0.614-2.588,0.442-5.128-0.771-7.302
								c-2.365-4.215-8.35-6.437-14.2-4.542c-2.903,1.019-5.117,3.146-6.136,5.964c-1.04,2.791-0.847,6.254,0.866,9.342
								c1.692,3.078,4.521,5.099,7.445,5.705C1493.486,830.218,1496.47,829.478,1498.856,827.552z"/>
						</g>
						<g>
							<path fill="#FF6B80" d="M1514.98,842.07c3.156-5.282,2.348-11.603-1.213-14.854c-1.864-1.654-4.271-2.414-6.944-2.395
								c-2.639,0.029-5.543,0.838-7.967,2.732c-2.407,1.904-3.81,4.646-3.868,7.639c-0.076,2.982,1.25,6.206,3.886,8.562
								c2.617,2.367,5.946,3.329,8.909,2.963C1510.746,846.351,1513.326,844.667,1514.98,842.07z"/>
						</g>
						<g>
							<path fill="#FF6B80" d="M1534.912,850.584c1.292-6.022-1.519-11.738-5.942-13.67c-4.466-1.877-10.547,0.067-13.989,5.156
								c-1.676,2.588-2.117,5.629-1.175,8.485c0.905,2.828,3.174,5.456,6.427,6.831c3.232,1.386,6.696,1.241,9.372-0.087
								C1532.299,856.001,1534.201,853.576,1534.912,850.584z"/>
						</g>
						<g>
							<path fill="#FF6B80" d="M1556.541,852.2c-0.29-3.06-1.713-5.705-3.522-7.647c-1.827-1.925-4.04-3.175-6.521-3.348
								c-4.831-0.337-9.948,3.453-11.586,9.379c-0.729,2.982-0.172,6.004,1.617,8.409c1.771,2.405,4.771,4.118,8.294,4.406
								c3.52,0.25,6.755-1.01,8.868-3.118C1555.829,858.166,1556.831,855.26,1556.541,852.2z"/>
						</g>
						<g>
							<path fill="#FF6B80" d="M1577.513,846.687c-2.693-5.56-8.426-8.321-13.102-7.127c-2.407,0.635-4.348,2.251-5.791,4.493
								c-1.423,2.231-2.349,5.088-2.079,8.148s1.789,5.743,4.271,7.428c2.445,1.692,5.867,2.357,9.275,1.442
								c3.423-0.895,6.061-3.155,7.37-5.829C1578.763,852.547,1578.783,849.469,1577.513,846.687z"/>
						</g>
					</g>
				</g>
				<g>
					<path fill="#FF6B80" d="M1453.794,902.362c-33.135,14.891-72.213,0.076-87.106-33.056
						c-14.912-33.144-0.098-72.213,33.037-87.125c33.114-14.903,72.213-0.078,87.104,33.055
						C1501.743,848.362,1486.908,887.451,1453.794,902.362z"/>
					<g>
						<g>
							<path fill="#FF6B80" d="M1432.822,907.864c0.248,3.081,1.788,5.736,4.25,7.428c2.463,1.692,5.889,2.348,9.293,1.443
								c3.426-0.884,6.061-3.156,7.37-5.829c1.309-2.694,1.309-5.774,0.059-8.544c-1.292-2.811-3.484-4.848-5.833-6.099
								c-2.365-1.232-4.865-1.675-7.272-1.039c-2.403,0.635-4.365,2.251-5.791,4.482
								C1433.454,901.938,1432.553,904.808,1432.822,907.864z"/>
						</g>
						<g>
							<path fill="#FF6B80" d="M1411.193,906.248c-0.749,2.984-0.173,6.005,1.616,8.409c1.769,2.407,4.772,4.137,8.292,4.407
								c3.521,0.269,6.754-0.998,8.851-3.115c2.138-2.117,3.139-5.024,2.87-8.084c-0.291-3.039-1.713-5.695-3.523-7.639
								c-1.826-1.94-4.04-3.173-6.544-3.367c-2.479-0.19-4.848,0.715-6.944,2.348
								C1413.715,900.86,1411.926,903.268,1411.193,906.248z"/>
						</g>
						<g>
							<path fill="#FF6B80" d="M1391.24,897.745c-1.654,2.576-2.096,5.619-1.174,8.464c0.904,2.849,3.194,5.467,6.426,6.852
								c3.254,1.385,6.717,1.229,9.369-0.076c2.715-1.309,4.6-3.753,5.332-6.737c0.712-2.98,0.231-5.943-0.846-8.368
								c-1.115-2.424-2.812-4.33-5.101-5.294c-2.307-0.98-4.849-0.922-7.37-0.038
								C1395.377,893.453,1392.915,895.166,1391.24,897.745z"/>
						</g>
						<g>
							<path fill="#FF6B80" d="M1375.134,883.217c-2.403,1.906-3.809,4.638-3.868,7.639c-0.075,2.984,1.254,6.195,3.868,8.543
								c2.639,2.386,5.968,3.347,8.931,2.963c2.963-0.345,5.539-2.041,7.176-4.617c1.654-2.617,2.154-5.563,1.902-8.215
								c-0.248-2.638-1.267-4.986-3.098-6.641c-1.864-1.671-4.289-2.424-6.944-2.424
								C1380.445,880.503,1377.559,881.311,1375.134,883.217z"/>
						</g>
						<g>
							<path fill="#FF6B80" d="M1364.649,864.246c-2.907,1.021-5.118,3.135-6.14,5.945c-1.04,2.81-0.863,6.272,0.846,9.353
								c1.713,3.098,4.541,5.118,7.466,5.715c2.946,0.632,5.927-0.135,8.312-2.041c2.407-1.923,3.851-4.559,4.486-7.138
								c0.614-2.579,0.441-5.119-0.771-7.292s-3.253-3.695-5.791-4.56C1370.537,863.399,1367.554,863.225,1364.649,864.246z"/>
						</g>
						<g>
							<path fill="#FF6B80" d="M1360.879,842.889c-3.061,0.019-5.871,1.307-7.757,3.636c-1.886,2.308-2.828,5.656-2.214,9.128
								c0.619,3.475,2.639,6.312,5.197,7.822c2.598,1.54,5.657,1.81,8.544,0.77c2.884-1.04,5.118-3.068,6.541-5.311
								c1.405-2.241,2.079-4.704,1.637-7.147c-0.425-2.445-1.868-4.522-3.985-6.157
								C1366.725,844.023,1363.955,842.868,1360.879,842.889z"/>
						</g>
						<g>
							<path fill="#FF6B80" d="M1364.283,821.473c-2.925-0.981-5.984-0.673-8.522,0.924c-2.542,1.557-4.503,4.415-5.062,7.897
								c-0.556,3.483,0.442,6.812,2.365,9.083c1.927,2.3,4.755,3.55,7.815,3.512c3.076-0.03,5.829-1.233,7.908-2.868
								c2.096-1.665,3.501-3.771,3.885-6.233c0.404-2.464-0.287-4.916-1.751-7.14
								C1369.439,824.436,1367.188,822.453,1364.283,821.473z"/>
						</g>
						<g>
							<path fill="#FF6B80" d="M1374.405,802.289c-2.445-1.866-5.446-2.55-8.371-1.866c-2.904,0.663-5.694,2.731-7.331,5.848
								c-1.654,3.118-1.771,6.582-0.694,9.352c1.099,2.801,3.35,4.888,6.274,5.85c2.904,0.962,5.905,0.722,8.409-0.164
								c2.521-0.895,4.521-2.443,5.694-4.657c1.174-2.193,1.288-4.743,0.636-7.321
								C1378.328,806.771,1376.847,804.165,1374.405,802.289z"/>
						</g>
						<g>
							<path fill="#FF6B80" d="M1390.201,787.443c-1.692-2.559-4.311-4.194-7.294-4.493c-2.963-0.316-6.271,0.732-8.851,3.146
								c-2.576,2.416-3.83,5.658-3.691,8.649c0.113,2.992,1.574,5.696,4.04,7.543c2.441,1.856,5.349,2.607,8.001,2.578
								c2.656-0.048,5.08-0.837,6.89-2.55c1.81-1.703,2.752-4.049,2.963-6.705C1392.452,792.967,1391.893,790.013,1390.201,787.443z
								"/>
						</g>
						<g>
							<path fill="#FF6B80" d="M1409.981,778.546c-0.771-2.973-2.714-5.359-5.446-6.609c-2.693-1.261-6.178-1.347-9.368,0.095
								c-3.216,1.454-5.467,4.099-6.313,6.957c-0.866,2.867-0.365,5.916,1.348,8.456c1.713,2.55,4.213,4.205,6.733,5.052
								c2.521,0.835,5.062,0.865,7.353-0.164c2.269-1.029,3.943-2.944,5-5.387C1410.327,784.5,1410.752,781.518,1409.981,778.546z"
								/>
						</g>
						<g>
							<path fill="#FF6B80" d="M1431.568,776.563c0.252-3.049-0.809-5.946-2.98-8.023c-2.138-2.079-5.387-3.281-8.909-2.955
								c-3.522,0.309-6.503,2.098-8.236,4.533c-1.751,2.433-2.252,5.463-1.461,8.428c0.787,2.972,2.635,5.348,4.731,6.965
								c2.116,1.616,4.503,2.452,6.985,2.231c2.483-0.231,4.676-1.511,6.485-3.473
								C1429.952,782.307,1431.337,779.643,1431.568,776.563z"/>
						</g>
						<g>
							<path fill="#FF6B80" d="M1452.637,781.72c1.213-2.818,1.157-5.896-0.228-8.562c-1.347-2.654-4.023-4.857-7.449-5.686
								c-3.422-0.836-6.83-0.135-9.255,1.597c-2.441,1.742-3.923,4.446-4.137,7.495c-0.231,3.079,0.732,5.926,2.213,8.129
								c1.482,2.203,3.464,3.809,5.889,4.387c2.424,0.596,4.924,0.105,7.255-1.165
								C1449.253,786.627,1451.407,784.539,1452.637,781.72z"/>
						</g>
						<g>
							<path fill="#FF6B80" d="M1470.919,793.39c2.058-2.281,3.001-5.214,2.538-8.178c-0.421-2.944-2.23-5.907-5.215-7.803
								c-2.963-1.904-6.426-2.309-9.271-1.452c-2.87,0.846-5.139,2.934-6.334,5.762c-1.191,2.828-1.212,5.831-0.538,8.398
								c0.693,2.58,2.078,4.715,4.178,6.062c2.114,1.328,4.617,1.684,7.253,1.221C1466.126,796.94,1468.84,795.661,1470.919,793.39z
								"/>
						</g>
						<g>
							<path fill="#FF6B80" d="M1491.815,852.489c3.038,0.49,6.001-0.318,8.253-2.298c2.23-1.963,3.733-5.109,3.695-8.63
								c-0.038-3.531-1.561-6.658-3.851-8.592c-2.269-1.934-5.27-2.704-8.274-2.155c-3.018,0.539-5.56,2.174-7.328,4.137
								c-1.771,1.982-2.828,4.299-2.811,6.782c0.021,2.491,1.098,4.781,2.904,6.744
								C1486.234,850.412,1488.793,851.998,1491.815,852.489z"/>
						</g>
						<g>
							<path fill="#FF6B80" d="M1484.964,873.077c2.714,1.423,5.773,1.616,8.543,0.461c2.753-1.116,5.177-3.618,6.271-6.965
								c1.136-3.348,0.674-6.783-0.846-9.341c-1.52-2.588-4.079-4.272-7.117-4.743c-3.043-0.472-5.947,0.25-8.274,1.54
								c-2.328,1.298-4.062,3.155-4.869,5.511c-0.787,2.368-0.501,4.897,0.576,7.342
								C1480.347,869.307,1482.249,871.615,1484.964,873.077z"/>
						</g>
						<g>
							<path fill="#FF6B80" d="M1471.824,890.317c2.096,2.23,4.941,3.426,7.945,3.232c2.963-0.193,6.061-1.771,8.195-4.579
								c2.138-2.812,2.828-6.195,2.213-9.121c-0.614-2.925-2.5-5.369-5.214-6.773c-2.731-1.443-5.732-1.693-8.333-1.231
								c-2.614,0.499-4.866,1.673-6.368,3.656c-1.52,1.982-2.058,4.462-1.827,7.118
								C1468.685,885.237,1469.724,888.065,1471.824,890.317z"/>
						</g>
						<g>
							<path fill="#FF6B80" d="M1453.794,902.362c1.229,2.791,3.54,4.828,6.444,5.619c2.849,0.808,6.291,0.328,9.237-1.637
								c2.942-1.941,4.714-4.945,5.08-7.908c0.383-2.963-0.618-5.888-2.731-8.119c-2.117-2.231-4.87-3.443-7.487-3.847
								c-2.618-0.425-5.139-0.021-7.196,1.347c-2.059,1.385-3.405,3.539-4.059,6.136
								C1452.465,896.533,1452.523,899.534,1453.794,902.362z"/>
						</g>
					</g>
				</g>
				<g>
					<path fill="#FF6B80" d="M1507.572,705.997c33.863-7.735,46.064-0.875,64.478-12.026c3.136-2.077,6.444-6.061,6.406-9.553
						c-0.038-1.789-0.097-3.396-0.595-4.838c-0.27-0.703-0.635-1.386-1.156-2.041l-0.404-0.451c0.038-0.029-0.324-0.309-0.48-0.443
						c-0.269-0.23-0.518-0.404-0.904-0.606c-1.347-0.703-3.039-0.789-4.406-0.097c-0.691,0.347-1.288,0.848-1.769,1.53
						c-0.425,0.56-0.715,1.387-0.753,2.204c-0.135,1.675,0.694,3.598,2.214,4.648c1.461,1.038,3.637,0.884,4.849-0.587l0.328,0.288
						c-1.061,1.827-3.561,2.588-5.716,1.5c-2.116-1.067-3.674-3.472-3.809-6.012c-0.252-5.465,5.253-8.775,10.122-6.879
						c0.556,0.202,1.229,0.528,1.806,0.914c0.252,0.193,0.349,0.202,0.753,0.53l0.749,0.625c0.981,0.895,1.73,2.087,2.403,3.29
						c5.678,10.063-1.671,20.098-4.558,24.225c-6.852,9.023-33.442,33.278-52.702,39.059c-41.678,12.508-67.94,40.995-71.135,36.742
						C1447.212,769.916,1461.084,716.607,1507.572,705.997z"/>
					<path fill="#FF6B80" d="M1395.705,756.331c-28.228,20.204-31.19,33.884-51.762,40.273c-3.615,0.972-8.792,0.798-11.389-1.549
						c-1.33-1.212-2.483-2.311-3.232-3.647c-0.346-0.673-0.598-1.404-0.75-2.212l-0.079-0.608c-0.038,0,0-0.461-0.018-0.663
						c0.018-0.347,0.056-0.655,0.152-1.067c0.366-1.481,1.426-2.8,2.849-3.369c0.732-0.288,1.481-0.404,2.328-0.316
						c0.693,0.067,1.502,0.394,2.138,0.914c1.347,1,2.23,2.906,2.02,4.724c-0.193,1.789-1.751,3.319-3.657,3.251l-0.021,0.442
						c2.079,0.423,4.31-0.952,4.928-3.3c0.615-2.29-0.155-5.042-1.981-6.831c-3.906-3.801-10.046-1.896-11.853,3.011
						c-0.231,0.558-0.403,1.271-0.521,1.963c-0.017,0.326-0.075,0.385-0.097,0.913l-0.017,0.972c0,1.328,0.403,2.683,0.846,3.983
						c3.771,10.918,16.145,12.083,21.145,12.66c11.316,0.856,47.104-2.955,64.208-13.537c37.002-22.896,75.735-23.666,74.675-28.88
						C1483.579,753.551,1434.476,728.576,1395.705,756.331z"/>
				</g>
				<path fill="#EAE5D3" d="M1500.338,809.158c-2.79,1.269-5.829,1.26-8.544-0.105c-2.655-1.357-4.944-4.099-5.732-7.601
					c-0.79-3.521-0.021-6.966,1.827-9.36c1.81-2.416,4.6-3.752,7.639-3.83l0,0c-3.08,0.097-5.867-1.088-7.87-3.386
					c-1.924-2.281-2.963-5.677-2.349-9.228c0.618-3.54,2.677-6.406,5.253-7.917c2.617-1.53,5.677-1.722,8.544-0.625l0,0
					c-2.884-1.068-5.042-3.242-5.985-6.119c-0.942-2.847-0.576-6.359,1.33-9.419c1.886-3.06,4.924-4.905,7.87-5.339
					c3.021-0.404,5.888,0.568,8.14,2.694l0,0c-2.234-2.087-3.426-4.945-3.178-7.957c0.193-3.001,1.906-6.099,4.831-8.207
					c2.926-2.096,6.444-2.635,9.331-1.894c2.925,0.779,5.215,2.799,6.465,5.6l0,0l0,0l0,0c-1.268-2.791-1.25-5.841,0.117-8.554
					c1.347-2.655,4.079-4.935,7.601-5.724c3.502-0.789,6.966-0.019,9.349,1.818c2.424,1.81,3.754,4.598,3.83,7.649l0,0l0,0l0,0
					c-0.097-3.089,1.077-5.879,3.388-7.87c2.289-1.923,5.677-2.963,9.217-2.348c3.561,0.606,6.427,2.666,7.926,5.254
					c1.54,2.607,1.733,5.676,0.617,8.533l0,0l0,0l0,0c1.078-2.868,3.25-5.031,6.137-5.965c2.85-0.943,6.351-0.577,9.41,1.309
					c3.061,1.896,4.904,4.935,5.329,7.879c0.425,3.011-0.56,5.888-2.673,8.14l0,0c2.075-2.241,4.941-3.435,7.946-3.184
					c3.001,0.21,6.099,1.923,8.194,4.838c2.117,2.925,2.655,6.438,1.906,9.333c-0.791,2.925-2.79,5.225-5.602,6.464l0,0l0,0l0,0
					c2.791-1.26,5.851-1.25,8.564,0.107c2.656,1.355,4.925,4.089,5.715,7.599c0.788,3.522,0.018,6.976-1.809,9.362
					c-1.81,2.405-4.601,3.76-7.66,3.828l0,0l0,0l0,0c3.098-0.097,5.889,1.088,7.87,3.396c1.924,2.271,2.963,5.667,2.349,9.217
					c-0.598,3.54-2.656,6.417-5.253,7.917c-2.617,1.53-5.677,1.723-8.522,0.627l0,0l0,0l0,0c2.866,1.067,5.021,3.241,5.964,6.117
					c0.942,2.858,0.577,6.359-1.309,9.419c-1.906,3.06-4.925,4.907-7.888,5.339c-3.004,0.396-5.888-0.566-8.14-2.683l0,0
					c2.252,2.077,3.443,4.935,3.194,7.938c-0.214,3.02-1.927,6.109-4.849,8.205c-2.925,2.107-6.447,2.646-9.334,1.905
					c-2.925-0.779-5.215-2.799-6.465-5.598c1.271,2.789,1.25,5.848-0.097,8.552c-1.364,2.656-4.099,4.926-7.618,5.724
					c-3.501,0.789-6.965,0.019-9.352-1.818c-2.407-1.808-3.754-4.598-3.829-7.647l0,0c0.097,3.087-1.078,5.877-3.389,7.869
					c-2.289,1.915-5.673,2.963-9.213,2.356c-3.543-0.614-6.427-2.674-7.929-5.261c-1.52-2.607-1.713-5.677-0.615-8.535l0,0
					c-1.077,2.868-3.253,5.032-6.119,5.976c-2.866,0.943-6.368,0.577-9.428-1.319c-3.06-1.886-4.907-4.927-5.332-7.871
					c-0.421-3.02,0.56-5.896,2.677-8.138l0,0c-2.079,2.231-4.928,3.424-7.946,3.174c-3.004-0.202-6.102-1.913-8.198-4.838
					c-2.096-2.935-2.635-6.437-1.902-9.322C1495.527,812.698,1497.527,810.408,1500.338,809.158z"/>
				<path fill="#FBFAF6" d="M1512.266,803.779c9.507,21.108,34.309,30.517,55.398,21.022c21.086-9.486,30.514-34.299,21.01-55.387
					c-9.486-21.098-34.309-30.517-55.395-21.02C1512.189,757.879,1502.783,782.691,1512.266,803.779z"/>
				<g>
					<g>
						<path fill="#3A002F" d="M1567.163,818.297c0.325-1.366,0.556-2.713,0.69-4.041c0.118-1.328,0.135-2.637,0.059-3.897
							c-1.191,1.279-2.521,2.435-3.926,3.445c-1.443,1.02-2.963,1.896-4.559,2.617c1.174,0.472,2.403,0.875,3.713,1.193
							C1564.428,817.922,1565.778,818.163,1567.163,818.297z"/>
					</g>
					<g>
						<path fill="#3A002F" d="M1575.8,809.109c-0.228-1.385-0.538-2.712-0.942-3.983c-0.384-1.279-0.863-2.491-1.402-3.636
							c-0.635,1.646-1.405,3.224-2.348,4.714c-0.926,1.481-1.982,2.887-3.195,4.156c1.271-0.009,2.58-0.114,3.886-0.316
							C1573.106,809.821,1574.453,809.514,1575.8,809.109z"/>
					</g>
					<g>
						<path fill="#3A002F" d="M1580.248,797.344c-0.732-1.204-1.54-2.309-2.387-3.339c-0.85-1.029-1.75-1.962-2.693-2.81
							c0.056,1.742-0.059,3.503-0.349,5.233c-0.286,1.724-0.749,3.426-1.364,5.061c1.153-0.49,2.307-1.086,3.464-1.77
							C1578.052,799.017,1579.167,798.228,1580.248,797.344z"/>
					</g>
					<g>
						<path fill="#3A002F" d="M1579.861,784.741c-1.137-0.818-2.29-1.54-3.464-2.155c-1.174-0.625-2.386-1.136-3.577-1.57
							c0.731,1.597,1.287,3.272,1.674,4.975c0.404,1.703,0.633,3.453,0.674,5.204c0.901-0.903,1.751-1.904,2.538-2.972
							C1578.477,787.146,1579.209,785.991,1579.861,784.741z"/>
					</g>
					<g>
						<path fill="#3A002F" d="M1574.705,773.272c-1.367-0.326-2.714-0.547-4.04-0.673c-1.329-0.124-2.639-0.154-3.889-0.076
							c1.25,1.193,2.425,2.519,3.446,3.943c0.998,1.425,1.886,2.955,2.598,4.55c0.462-1.172,0.884-2.414,1.212-3.712
							C1574.318,776.015,1574.57,774.668,1574.705,773.272z"/>
					</g>
					<g>
						<path fill="#3A002F" d="M1565.526,764.643c-1.385,0.231-2.714,0.53-4.003,0.924c-1.271,0.396-2.482,0.875-3.615,1.414
							c1.634,0.625,3.212,1.406,4.693,2.33c1.481,0.932,2.887,2.001,4.175,3.213c-0.017-1.271-0.114-2.569-0.324-3.887
							C1566.238,767.317,1565.931,765.981,1565.526,764.643z"/>
					</g>
					<g>
						<path fill="#3A002F" d="M1553.75,760.179c-1.191,0.73-2.307,1.52-3.328,2.368c-1.02,0.856-1.962,1.75-2.808,2.693
							c1.729-0.048,3.501,0.076,5.214,0.364c1.751,0.29,3.443,0.751,5.08,1.376c-0.501-1.164-1.098-2.327-1.771-3.472
							C1555.426,762.372,1554.635,761.257,1553.75,760.179z"/>
					</g>
					<g>
						<path fill="#3A002F" d="M1541.167,760.545c-0.826,1.125-1.541,2.29-2.173,3.472c-0.618,1.174-1.136,2.367-1.561,3.561
							c1.599-0.713,3.271-1.279,4.983-1.675c1.695-0.394,3.446-0.615,5.197-0.663c-0.905-0.895-1.906-1.732-2.984-2.531
							C1543.573,761.93,1542.399,761.208,1541.167,760.545z"/>
					</g>
					<g>
						<path fill="#3A002F" d="M1529.698,765.711c-0.325,1.366-0.556,2.713-0.69,4.041c-0.118,1.328-0.135,2.637-0.059,3.897
							c1.194-1.281,2.521-2.445,3.926-3.455c1.443-1.019,2.963-1.894,4.559-2.616c-1.174-0.472-2.403-0.867-3.713-1.193
							C1532.434,766.078,1531.086,765.846,1529.698,765.711z"/>
					</g>
					<g>
						<path fill="#3A002F" d="M1521.062,774.889c0.231,1.387,0.538,2.733,0.942,3.994c0.384,1.279,0.884,2.491,1.402,3.626
							c0.635-1.635,1.405-3.213,2.331-4.704c0.922-1.483,1.999-2.887,3.212-4.156c-1.271,0.009-2.576,0.125-3.886,0.327
							C1523.734,774.178,1522.408,774.495,1521.062,774.889z"/>
					</g>
					<g>
						<path fill="#3A002F" d="M1516.617,786.665c0.729,1.204,1.52,2.309,2.365,3.339c0.867,1.019,1.751,1.962,2.693,2.818
							c-0.059-1.762,0.076-3.521,0.366-5.244c0.286-1.722,0.749-3.424,1.364-5.069c-1.153,0.5-2.307,1.088-3.461,1.78
							C1518.81,784.992,1517.694,785.781,1516.617,786.665z"/>
					</g>
					<g>
						<path fill="#3A002F" d="M1516.979,799.249c1.136,0.827,2.311,1.549,3.484,2.174c1.174,0.625,2.386,1.136,3.561,1.568
							c-0.712-1.605-1.271-3.271-1.675-4.973c-0.384-1.713-0.615-3.453-0.674-5.195c-0.884,0.904-1.73,1.885-2.521,2.963
							C1518.385,796.862,1517.652,798.018,1516.979,799.249z"/>
					</g>
					<g>
						<path fill="#3A002F" d="M1522.156,810.736c1.367,0.317,2.714,0.547,4.04,0.673c1.329,0.124,2.639,0.143,3.889,0.086
							c-1.271-1.212-2.425-2.53-3.443-3.954c-1.022-1.425-1.889-2.944-2.617-4.552c-0.463,1.174-0.867,2.416-1.195,3.706
							C1522.522,807.994,1522.291,809.341,1522.156,810.736z"/>
					</g>
					<g>
						<path fill="#3A002F" d="M1531.335,819.366c1.385-0.231,2.714-0.549,3.981-0.924c1.271-0.404,2.483-0.886,3.637-1.414
							c-1.634-0.625-3.232-1.414-4.714-2.338s-2.866-2.001-4.154-3.194c0.017,1.26,0.114,2.559,0.328,3.876
							C1530.623,816.691,1530.931,818.019,1531.335,819.366z"/>
					</g>
					<g>
						<path fill="#3A002F" d="M1543.09,823.83c1.195-0.732,2.311-1.53,3.35-2.376c1.02-0.856,1.962-1.751,2.808-2.694
							c-1.751,0.057-3.501-0.078-5.231-0.366c-1.733-0.289-3.426-0.751-5.062-1.366c0.501,1.153,1.077,2.317,1.771,3.463
							C1541.419,821.626,1542.206,822.742,1543.09,823.83z"/>
					</g>
					<g>
						<path fill="#3A002F" d="M1555.694,823.455c0.826-1.125,1.541-2.3,2.155-3.463c0.636-1.185,1.136-2.386,1.578-3.569
							c-1.599,0.711-3.271,1.28-4.983,1.673c-1.695,0.396-3.446,0.616-5.197,0.665c0.905,0.895,1.886,1.741,2.963,2.53
							C1553.288,822.079,1554.444,822.8,1555.694,823.455z"/>
					</g>
				</g>
				<path fill="#3A002F" d="M1568.759,782.855c5.062,11.237,0.059,24.446-11.158,29.497c-11.236,5.05-24.456,0.038-29.498-11.199
					c-5.06-11.227-0.059-24.455,11.179-29.505C1550.501,766.596,1563.699,771.619,1568.759,782.855z"/>
				<path fill="#FBFAF6" d="M1553.54,809.282c3.615-2.635,4.482-7.639,1.982-11.101c-2.56-3.512-7.584-4.205-11.199-1.578
					c-3.657,2.664-4.542,7.647-1.982,11.159C1544.841,811.227,1549.883,811.948,1553.54,809.282z"/>
				<path fill="#FBFAF6" d="M1562.332,806.33c1.061-0.172,1.789-1.164,1.637-2.174c-0.173-1.031-1.194-1.732-2.251-1.569
					c-1.078,0.193-1.81,1.174-1.638,2.194C1560.253,805.8,1561.255,806.502,1562.332,806.33z"/>
				<path fill="#FBFAF6" d="M1564.411,801.509c1.637-0.27,2.77-1.799,2.5-3.375c-0.249-1.588-1.806-2.656-3.464-2.386
					c-1.654,0.27-2.77,1.789-2.5,3.377C1561.179,800.701,1562.757,801.77,1564.411,801.509z"/>
				<path fill="#EAE5D3" d="M1371.018,871.289c0.787-2.925,2.808-5.214,5.598-6.466l0,0l0,0l0,0
					c-2.79,1.271-5.847,1.252-8.543-0.116c-2.652-1.366-4.925-4.089-5.733-7.599c-0.787-3.512-0.021-6.965,1.827-9.352
					c1.81-2.416,4.6-3.763,7.639-3.838l0,0c-3.077,0.105-5.867-1.078-7.866-3.386c-1.927-2.271-2.967-5.677-2.349-9.208
					c0.615-3.559,2.673-6.427,5.253-7.927c2.617-1.53,5.677-1.721,8.543-0.625l0,0l0,0l0,0c-2.866-1.067-5.042-3.243-5.984-6.119
					c-0.942-2.847-0.577-6.368,1.326-9.417c1.886-3.06,4.928-4.907,7.87-5.34c3.021-0.404,5.888,0.558,8.14,2.685l0,0
					c-2.231-2.079-3.426-4.937-3.174-7.948c0.19-3.009,1.924-6.099,4.828-8.205c2.945-2.106,6.447-2.637,9.334-1.896
					c2.942,0.778,5.231,2.8,6.481,5.6l0,0l0,0l0,0c-1.267-2.791-1.267-5.85,0.098-8.553c1.367-2.646,4.099-4.926,7.601-5.726
					c3.522-0.789,6.965-0.019,9.352,1.818c2.424,1.81,3.771,4.6,3.847,7.66l0,0c-0.114-3.1,1.077-5.888,3.388-7.87
					c2.269-1.924,5.656-2.974,9.217-2.357c3.54,0.614,6.406,2.664,7.926,5.252c1.52,2.616,1.713,5.675,0.618,8.533l0,0
					c1.057-2.866,3.249-5.032,6.115-5.974c2.85-0.943,6.352-0.568,9.411,1.317c3.06,1.896,4.924,4.937,5.349,7.889
					c0.404,3.011-0.576,5.888-2.693,8.129l0,0c2.079-2.231,4.945-3.424,7.946-3.184c3.021,0.212,6.099,1.925,8.215,4.849
					c2.101,2.925,2.639,6.437,1.886,9.322c-0.77,2.936-2.79,5.225-5.598,6.475c2.79-1.269,5.85-1.26,8.561,0.105
					c2.656,1.357,4.928,4.089,5.716,7.601c0.79,3.521,0.038,6.965-1.81,9.352c-1.807,2.414-4.597,3.762-7.656,3.838l0,0
					c3.098-0.097,5.888,1.088,7.87,3.386c1.924,2.281,2.963,5.678,2.365,9.228c-0.614,3.54-2.673,6.408-5.272,7.917
					c-2.614,1.53-5.674,1.702-8.523,0.625l0,0c2.866,1.077,5.021,3.234,5.964,6.119c0.942,2.847,0.577,6.349-1.326,9.427
					c-1.886,3.042-4.928,4.89-7.87,5.332c-3.001,0.404-5.888-0.56-8.14-2.694l0,0c2.231,2.079,3.426,4.945,3.174,7.946
					c-0.189,3.001-1.902,6.099-4.827,8.198c-2.926,2.113-6.448,2.652-9.331,1.903c-2.925-0.788-5.235-2.791-6.465-5.598
					c1.268,2.79,1.25,5.85-0.117,8.543c-1.347,2.656-4.079,4.945-7.601,5.733c-3.52,0.808-6.966,0.021-9.353-1.81
					c-2.403-1.806-3.75-4.596-3.826-7.656l0,0c0.094,3.077-1.098,5.888-3.388,7.87c-2.289,1.924-5.677,2.98-9.217,2.366
					c-3.561-0.615-6.427-2.676-7.929-5.273c-1.52-2.617-1.71-5.674-0.632-8.522l0.018-0.021l0,0
					c-0.018,0.021-0.018,0.021-0.018,0.021c-1.061,2.866-3.232,5.021-6.119,5.964c-2.85,0.942-6.351,0.577-9.41-1.326
					c-3.061-1.886-4.908-4.928-5.329-7.87c-0.404-3.021,0.556-5.888,2.673-8.14l0,0l0,0l0,0c-2.075,2.231-4.924,3.426-7.946,3.194
					c-3.001-0.231-6.099-1.923-8.194-4.849C1370.807,877.695,1370.285,874.174,1371.018,871.289z"/>
				<g>
					<path fill="#FBFAF6" d="M1465.856,824.676c9.507,21.089,0.097,45.899-21.01,55.385c-21.107,9.486-45.892,0.097-55.396-21.011
						c-9.486-21.098-0.079-45.908,21.01-55.395C1431.568,794.16,1456.37,803.577,1465.856,824.676z"/>
					<path fill="#3A002F" d="M1412.733,853.057c5.039,11.246,18.241,16.25,29.478,11.208c11.234-5.051,16.238-18.27,11.179-29.497
						c-5.042-11.237-18.261-16.258-29.498-11.208S1407.671,841.83,1412.733,853.057z"/>
					<g>
						<g>
							<path fill="#3A002F" d="M1451.812,870.19c0.308-1.347,0.539-2.693,0.674-4.021c0.113-1.328,0.135-2.635,0.075-3.896
								c-1.212,1.261-2.521,2.433-3.964,3.454c-1.423,1-2.942,1.885-4.541,2.618c1.174,0.461,2.407,0.865,3.694,1.191
								C1449.06,869.845,1450.406,870.075,1451.812,870.19z"/>
						</g>
						<g>
							<path fill="#3A002F" d="M1460.41,861.022c-0.211-1.385-0.518-2.721-0.922-3.982c-0.404-1.279-0.867-2.491-1.423-3.628
								c-0.618,1.636-1.385,3.214-2.31,4.695c-0.943,1.492-2,2.896-3.195,4.166c1.251-0.019,2.56-0.126,3.868-0.328
								C1457.737,861.735,1459.084,861.426,1460.41,861.022z"/>
						</g>
						<g>
							<path fill="#3A002F" d="M1464.876,849.248c-0.732-1.193-1.52-2.31-2.366-3.329c-0.866-1.029-1.771-1.972-2.714-2.81
								c0.059,1.732-0.059,3.491-0.346,5.233c-0.29,1.722-0.749,3.424-1.385,5.069c1.175-0.509,2.328-1.106,3.481-1.789
								C1462.683,850.921,1463.798,850.132,1464.876,849.248z"/>
						</g>
						<g>
							<path fill="#3A002F" d="M1464.492,836.653c-1.136-0.827-2.289-1.539-3.464-2.155c-1.174-0.625-2.386-1.145-3.581-1.568
								c0.732,1.587,1.292,3.262,1.675,4.973c0.404,1.704,0.636,3.455,0.674,5.206c0.904-0.915,1.733-1.904,2.542-2.973
								C1463.104,839.059,1463.836,837.895,1464.492,836.653z"/>
						</g>
						<g>
							<path fill="#3A002F" d="M1459.333,825.187c-1.364-0.328-2.711-0.549-4.04-0.684c-1.326-0.125-2.635-0.145-3.886-0.078
								c1.271,1.204,2.425,2.531,3.443,3.954c1.022,1.425,1.886,2.944,2.597,4.552c0.483-1.174,0.888-2.416,1.212-3.714
								C1458.971,827.918,1459.198,826.571,1459.333,825.187z"/>
						</g>
						<g>
							<path fill="#3A002F" d="M1450.157,816.557c-1.385,0.221-2.734,0.539-3.985,0.914c-1.287,0.404-2.5,0.875-3.636,1.414
								c1.637,0.635,3.215,1.414,4.696,2.338c1.499,0.932,2.887,2.001,4.175,3.203c-0.021-1.269-0.134-2.559-0.328-3.887
								C1450.869,819.231,1450.562,817.893,1450.157,816.557z"/>
						</g>
						<g>
							<path fill="#3A002F" d="M1438.398,812.083c-1.212,0.73-2.327,1.52-3.346,2.376c-1.019,0.846-1.962,1.751-2.812,2.685
								c1.751-0.04,3.502,0.076,5.235,0.364c1.73,0.299,3.426,0.76,5.06,1.376c-0.501-1.155-1.095-2.319-1.769-3.464
								C1440.074,814.286,1439.266,813.169,1438.398,812.083z"/>
						</g>
						<g>
							<path fill="#3A002F" d="M1425.798,812.458c-0.829,1.126-1.54,2.29-2.176,3.472c-0.614,1.174-1.136,2.378-1.558,3.561
								c1.596-0.722,3.271-1.279,4.983-1.673c1.692-0.396,3.442-0.617,5.193-0.674c-0.904-0.886-1.902-1.731-2.979-2.521
								C1428.201,813.834,1427.027,813.112,1425.798,812.458z"/>
						</g>
						<g>
							<path fill="#3A002F" d="M1414.329,817.624c-0.328,1.366-0.56,2.712-0.694,4.031c-0.113,1.337-0.135,2.635-0.055,3.906
								c1.191-1.28,2.521-2.443,3.943-3.454c1.423-1.021,2.925-1.896,4.541-2.618c-1.174-0.471-2.407-0.865-3.712-1.193
								C1417.061,817.99,1415.714,817.758,1414.329,817.624z"/>
						</g>
						<g>
							<path fill="#3A002F" d="M1405.689,826.803c0.23,1.385,0.538,2.721,0.925,3.992c0.422,1.269,0.905,2.491,1.423,3.626
								c0.636-1.635,1.405-3.213,2.328-4.704c0.942-1.492,2.002-2.887,3.215-4.156c-1.271,0-2.58,0.115-3.906,0.317
								C1408.365,826.09,1407.036,826.398,1405.689,826.803z"/>
						</g>
						<g>
							<path fill="#3A002F" d="M1401.244,838.577c0.732,1.193,1.52,2.31,2.369,3.329c0.863,1.029,1.769,1.974,2.711,2.82
								c-0.059-1.751,0.059-3.512,0.346-5.233c0.29-1.732,0.753-3.435,1.367-5.071c-1.153,0.5-2.311,1.088-3.464,1.78
								C1403.458,836.904,1402.322,837.693,1401.244,838.577z"/>
						</g>
						<g>
							<path fill="#3A002F" d="M1401.61,851.161c1.137,0.829,2.311,1.548,3.484,2.165c1.171,0.635,2.383,1.145,3.558,1.578
								c-0.712-1.607-1.268-3.272-1.672-4.983c-0.387-1.704-0.618-3.455-0.656-5.195c-0.904,0.905-1.751,1.886-2.538,2.963
								C1403.016,848.776,1402.284,849.93,1401.61,851.161z"/>
						</g>
						<g>
							<path fill="#3A002F" d="M1406.787,862.648c1.364,0.307,2.715,0.539,4.04,0.654c1.326,0.135,2.636,0.154,3.886,0.097
								c-1.268-1.204-2.425-2.521-3.443-3.945c-1.019-1.423-1.886-2.953-2.617-4.55c-0.46,1.164-0.863,2.414-1.191,3.704
								C1407.153,859.906,1406.922,861.253,1406.787,862.648z"/>
						</g>
						<g>
							<path fill="#3A002F" d="M1415.966,871.268c1.385-0.229,2.711-0.539,3.981-0.923c1.271-0.383,2.501-0.884,3.637-1.423
								c-1.637-0.617-3.232-1.385-4.714-2.309s-2.866-2.001-4.157-3.213c0.021,1.25,0.135,2.559,0.328,3.887
								C1415.251,868.614,1415.562,869.921,1415.966,871.268z"/>
						</g>
						<g>
							<path fill="#3A002F" d="M1427.721,875.734c1.213-0.732,2.311-1.522,3.347-2.368c1.022-0.865,1.965-1.751,2.812-2.694
								c-1.751,0.057-3.502-0.077-5.235-0.366c-1.73-0.289-3.423-0.75-5.06-1.385c0.501,1.174,1.077,2.346,1.771,3.483
								C1426.046,873.539,1426.837,874.655,1427.721,875.734z"/>
						</g>
						<g>
							<path fill="#3A002F" d="M1440.326,875.368c0.825-1.137,1.536-2.291,2.154-3.483c0.632-1.155,1.153-2.367,1.575-3.54
								c-1.596,0.692-3.271,1.269-4.963,1.654c-1.713,0.404-3.464,0.614-5.214,0.673c0.904,0.886,1.885,1.732,2.963,2.521
								C1437.919,873.982,1439.072,874.693,1440.326,875.368z"/>
						</g>
					</g>
					<path fill="#FBFAF6" d="M1444.652,858.28c3.619-2.635,4.504-7.639,1.982-11.111c-2.559-3.502-7.58-4.205-11.199-1.578
						c-3.653,2.666-4.541,7.649-1.981,11.161C1435.975,860.214,1440.999,860.936,1444.652,858.28z"/>
					<path fill="#FBFAF6" d="M1433.34,864.361c-0.846,0.673-2.059,0.577-2.715-0.212c-0.652-0.808-0.518-2.029,0.328-2.723
						c0.847-0.673,2.059-0.566,2.715,0.231C1434.32,862.465,1434.186,863.688,1433.34,864.361z"/>
					<path fill="#FBFAF6" d="M1427.027,863.322c1.657-0.27,2.772-1.789,2.521-3.367c-0.27-1.597-1.806-2.664-3.464-2.395
						c-1.671,0.278-2.79,1.779-2.521,3.376C1423.815,862.514,1425.373,863.572,1427.027,863.322z"/>
				</g>
				<path fill="#3A002F" d="M1494.875,827.264c0,0,14.39,1.732,22.453,13.306c-2.311,5.465-3.637,28.487-3.637,28.487
					s-18.126-14.268-23.724-16.183C1486.639,839.183,1494.875,827.264,1494.875,827.264z"/>
				<g opacity="0.25">
					<path fill="#1D1D1B" d="M1494.875,827.264L1494.875,827.264l18.816,41.792l0,0c0,0-18.126-14.268-23.724-16.183
						C1486.639,839.183,1494.875,827.264,1494.875,827.264z"/>
				</g>
				<g>
					<path fill="#EAE5D3" d="M1528.026,919.815c-0.135-0.673,0.211-1.347,0.847-1.616l0,0c0.635-0.252,1.363-0.021,1.729,0.556
						c1.04,1.692,2.677,2.58,3.868,2.096c1.174-0.48,1.713-2.269,1.271-4.213c-0.135-0.691,0.211-1.347,0.847-1.616l0,0
						c0.635-0.27,1.367-0.018,1.733,0.577l0.189,0.27c0.193,0.307,0.404,0.635,0.56,1.001c1.52,3.712,0.366,7.697-2.58,8.927
						c-2.941,1.195-6.561-0.808-8.08-4.521c-0.173-0.425-0.249-0.829-0.328-1.153L1528.026,919.815z"/>
					<path fill="#EAE5D3" d="M1566.317,904.017c-0.155-0.652,0.189-1.326,0.825-1.578v-0.017c0.636-0.252,1.367-0.021,1.733,0.556
						c1.057,1.713,2.673,2.58,3.868,2.117c1.17-0.501,1.709-2.269,1.288-4.234c-0.155-0.673,0.231-1.461,0.846-1.616
						c0.636-0.27,1.367,0,1.713,0.577l0.193,0.29c0.211,0.308,0.404,0.635,0.556,1.001c1.541,3.712,0.366,7.677-2.576,8.91
						c-2.925,1.191-6.561-0.812-8.084-4.524c-0.173-0.442-0.248-0.825-0.324-1.174L1566.317,904.017z"/>
					<path fill="#EAE5D3" d="M1498.221,941.558c-2.942,1.212-6.561-0.808-8.102-4.523c-0.172-0.421-0.248-0.846-0.307-1.154
						l-0.059-0.307c-0.152-0.673,0.269-1.385,0.849-1.616c0.632-0.231,1.347,0,1.71,0.577c1.06,1.692,2.697,2.58,3.867,2.096
						c1.195-0.48,1.734-2.269,1.292-4.213c-0.155-0.694,0.097-1.423,0.846-1.637c0.636-0.249,1.364,0,1.73,0.597l0.173,0.269
						c0.214,0.308,0.425,0.636,0.58,1.002C1502.32,936.343,1501.163,940.346,1498.221,941.558z"/>
					<path fill="#EAE5D3" d="M1546.457,964.512c-0.152-0.694,0.193-1.347,0.829-1.616l0,0c0.635-0.27,1.367-0.021,1.729,0.556
						c1.061,1.713,2.677,2.6,3.868,2.1c1.194-0.501,1.733-2.272,1.271-4.234c-0.135-0.656,0.328-1.347,0.847-1.599
						c0.655-0.249,1.367-0.017,1.733,0.56l0.193,0.29c0.211,0.325,0.404,0.632,0.556,1.019c1.52,3.695,0.366,7.698-2.579,8.889
						c-2.922,1.233-6.562-0.808-8.081-4.503c-0.173-0.421-0.249-0.846-0.325-1.153L1546.457,964.512z"/>
					<path fill="#EAE5D3" d="M1584.73,948.734c-0.155-0.673,0.189-1.347,0.825-1.616h0.021c0.615-0.231,1.347,0,1.713,0.577
						c1.057,1.692,2.693,2.58,3.868,2.079c1.174-0.48,1.729-2.272,1.288-4.213c-0.155-0.673,0.231-1.443,0.846-1.616
						c0.636-0.252,1.367,0,1.713,0.576l0.193,0.287c0.211,0.307,0.422,0.635,0.577,1.001c1.52,3.695,0.366,7.698-2.58,8.91
						c-2.942,1.212-6.562-0.809-8.098-4.524c-0.177-0.421-0.252-0.846-0.328-1.191L1584.73,948.734z"/>
					<path fill="#EAE5D3" d="M1508.17,980.27c-0.135-0.673,0.308-1.288,0.846-1.595c0.636-0.27,1.364-0.021,1.713,0.556
						c1.078,1.695,2.694,2.579,3.868,2.1c1.191-0.501,1.73-2.272,1.288-4.234c-0.155-0.673,0.097-1.385,0.846-1.616
						c0.636-0.252,1.368,0,1.734,0.577l0.172,0.287c0.211,0.328,0.422,0.635,0.577,1.022c1.52,3.695,0.366,7.677-2.58,8.889
						c-2.942,1.212-6.562-0.808-8.102-4.503c-0.172-0.442-0.248-0.846-0.307-1.191L1508.17,980.27z"/>
					<path fill="#EAE5D3" d="M1503.512,903.613c-0.152-0.673,0.155-1.288,0.828-1.596c0.653-0.269,1.364-0.038,1.73,0.556
						c1.061,1.713,2.693,2.58,3.868,2.1c1.174-0.501,1.713-2.272,1.291-4.234c-0.155-0.673,0.173-1.426,0.847-1.616
						c0.635-0.252,1.363,0,1.729,0.577l0.173,0.287c0.214,0.311,0.425,0.635,0.56,1.001c1.54,3.716,0.366,7.698-2.56,8.91
						c-2.945,1.212-6.582-0.808-8.101-4.503c-0.173-0.442-0.249-0.846-0.308-1.174L1503.512,903.613z"/>
					<path fill="#EAE5D3" d="M1534.028,891.049c-0.135-0.673,0.211-1.347,0.847-1.616l0,0c0.635-0.252,1.367-0.021,1.713,0.556
						c1.077,1.713,2.693,2.58,3.867,2.1c1.195-0.501,1.733-2.272,1.309-4.234c-0.172-0.656,0.193-1.347,0.809-1.599l0,0
						c0.652-0.249,1.385-0.018,1.751,0.559l0.173,0.27c0.21,0.328,0.424,0.653,0.576,1.04c1.52,3.695,0.366,7.697-2.576,8.889
						c-2.925,1.233-6.562-0.808-8.081-4.503c-0.176-0.421-0.252-0.826-0.328-1.154L1534.028,891.049z"/>
					<path fill="#EAE5D3" d="M1521.811,948.04c-0.155-0.673,0.211-1.347,0.829-1.616h0.017c0.636-0.27,1.348-0.018,1.713,0.576
						c1.057,1.696,2.694,2.58,3.868,2.079c1.191-0.48,1.73-2.269,1.288-4.234c-0.152-0.652,0.214-1.326,0.846-1.595
						c0.636-0.249,1.368-0.021,1.713,0.577l0.193,0.29c0.211,0.307,0.425,0.635,0.577,0.998c1.52,3.695,0.366,7.698-2.576,8.892
						c-2.946,1.229-6.582-0.808-8.102-4.503c-0.173-0.425-0.252-0.846-0.308-1.157L1521.811,948.04z"/>
					<path fill="#EAE5D3" d="M1583.249,924.336c-0.193-0.425-0.27-0.808-0.328-1.153l-0.059-0.311
						c-0.152-0.653,0.214-1.347,0.829-1.596c0.69-0.249,1.385-0.021,1.729,0.56c1.061,1.692,2.693,2.576,3.868,2.096
						c1.194-0.48,1.733-2.272,1.291-4.234c-0.155-0.653,0.19-1.326,0.825-1.596c0.021,0,0.021,0,0.021,0
						c0.635-0.269,1.363-0.021,1.729,0.556l0.173,0.29c0.214,0.308,0.425,0.635,0.577,1.001c1.522,3.692,0.365,7.694-2.576,8.906
						C1588.384,930.068,1584.769,928.048,1583.249,924.336z"/>
					<path fill="#EAE5D3" d="M1552.328,935.456c-0.135-0.653,0.21-1.347,0.846-1.616l0,0c0.636-0.249,1.367-0.018,1.73,0.58
						c1.06,1.692,2.676,2.576,3.867,2.075c1.174-0.48,1.733-2.251,1.292-4.213c-0.173-0.673,0.21-1.309,0.825-1.596
						c0.635-0.269,1.367-0.041,1.733,0.556l0.173,0.29c0.231,0.308,0.421,0.615,0.576,0.998c1.52,3.695,0.366,7.698-2.579,8.91
						c-2.942,1.212-6.562-0.825-8.081-4.521c-0.173-0.425-0.248-0.808-0.308-1.153L1552.328,935.456z"/>
					<path fill="#EAE5D3" d="M1491.332,960.931l-0.038-0.308c-0.152-0.673,0.193-1.347,0.828-1.616l0,0
						c0.636-0.27,1.364-0.038,1.73,0.559c1.06,1.713,2.677,2.576,3.868,2.096c1.174-0.501,1.713-2.269,1.271-4.234
						c-0.155-0.653,0.21-1.347,0.846-1.595l0,0c0.636-0.27,1.368-0.021,1.73,0.56l0.155,0.269c0.231,0.325,0.442,0.653,0.598,1.036
						c1.52,3.695,0.366,7.68-2.58,8.892c-2.925,1.212-6.562-0.808-8.08-4.503C1491.487,961.663,1491.411,961.259,1491.332,960.931z"
						/>
				</g>
				<g>
					<path fill="#3A002F" d="M1675.104,849.103c24.612,20.126,52.184,20.05,52.184,20.05s-45.467,57.452-110.752,26.358
						c-37.714-17.989-27.571-57.328-4.751-66.968C1627.6,821.857,1645.626,824.984,1675.104,849.103z"/>
				</g>
				<g>
					<path fill="#3A002F" d="M1355.816,915.637c-29.322,12.297-55.724,4.369-55.724,4.369s27.209,68.02,98.651,56.8
						c41.271-6.485,42.773-47.083,23.628-62.823C1409.114,903.057,1390.95,900.939,1355.816,915.637z"/>
				</g>
			</g>
			<path opacity="0.15" fill="#1D1D1B" d="M1429.278,958.393c24.495,45.256,62.688,70.02,108.387,61.764
				c-0.173,2.482,0.404,5.504,1.771,8.581c2.828,6.254,7.735,9.929,11.199,8.392c1.864-0.846,2.846-3.08,2.921-5.908
				c3.157,4.713,6.89,7.176,9.584,5.984c2.693-1.233,3.328-5.656,1.906-11.162c2.154,1.831,4.461,2.58,6.347,1.734
				c3.446-1.541,3.947-7.677,1.136-13.931c-0.77-1.733-1.729-3.232-2.731-4.503c1.886-0.922,3.792-1.886,5.694-2.904
				c0.021-0.021,0.021-0.021,0.021-0.021l-117.275-260.652c0,0,0,0-0.021,0c-0.422,0.213-0.825,0.434-1.25,0.636
				c-17.74-4.676-40.908-4.636-61.263,9.928c-28.228,20.204-31.19,33.884-51.762,40.273c-3.615,0.972-8.792,0.798-11.389-1.549
				c-1.33-1.212-2.483-2.311-3.232-3.647c-0.346-0.673-0.598-1.404-0.75-2.212l-0.079-0.608c-0.038,0,0-0.461-0.018-0.663
				c0.018-0.347,0.056-0.655,0.152-1.067c0.366-1.481,1.426-2.8,2.849-3.369c0.732-0.288,1.481-0.404,2.328-0.316
				c0.693,0.067,1.502,0.394,2.138,0.914c1.347,1,2.23,2.906,2.02,4.724c-0.193,1.789-1.751,3.319-3.657,3.251l-0.021,0.442
				c2.079,0.423,4.31-0.952,4.928-3.3c0.615-2.29-0.155-5.042-1.981-6.831c-3.906-3.801-10.046-1.896-11.853,3.011
				c-0.231,0.558-0.403,1.271-0.521,1.963c-0.017,0.326-0.075,0.385-0.097,0.913l-0.017,0.972c0,1.328,0.403,2.683,0.846,3.983
				c3.771,10.918,16.145,12.083,21.145,12.66c2.828,0.221,7.197,0.134,12.411-0.27c-0.135,0.231-0.307,0.423-0.441,0.663
				c-1.654,3.118-1.771,6.582-0.694,9.352c1.099,2.801,3.35,4.888,6.274,5.85c-2.925-0.981-5.984-0.673-8.522,0.924
				c-2.542,1.557-4.503,4.415-5.062,7.897c-0.556,3.483,0.442,6.812,2.365,9.083c1.927,2.3,4.755,3.55,7.815,3.512h0.017
				c0,0,0,0,0,0.008l-0.017-0.008c-3.061,0.019-5.871,1.307-7.757,3.636c-1.886,2.308-2.828,5.656-2.214,9.128
				c0.619,3.475,2.639,6.312,5.197,7.822c2.598,1.54,5.657,1.81,8.544,0.77l0.018-0.019l0,0l-0.018,0.019
				c-2.907,1.021-5.118,3.135-6.14,5.945c-1.04,2.81-0.863,6.272,0.846,9.353c1.713,3.098,4.541,5.118,7.466,5.715
				c2.946,0.632,5.927-0.135,8.312-2.041h0.021l0,0h-0.021c-2.403,1.906-3.809,4.638-3.868,7.639
				c-0.075,2.984,1.254,6.195,3.868,8.543c2.639,2.386,5.968,3.347,8.931,2.963c2.904-0.345,5.442-2.003,7.1-4.503c0,0,0,0,0.018,0
				c-1.499,2.407-1.924,5.156-1.229,7.812c-9.275,1.077-20.399,4.216-34.136,9.966c-29.322,12.297-55.724,4.369-55.724,4.369
				s27.209,68.02,98.651,56.8C1414.118,974.402,1423.968,967.244,1429.278,958.393z M1548.439,1017.677c0,0.113,0,0.21,0.021,0.324
				c-0.076-0.076-0.155-0.19-0.231-0.27C1548.287,1017.714,1548.363,1017.693,1548.439,1017.677z"/>
		</g>
		<g>
			<path fill="#82074A" d="M1008.445,1033.357c-114.302,0-226.719-38.888-316.547-109.522c-0.74-0.577-0.865-1.654-0.289-2.386
				c0.587-0.75,1.655-0.884,2.396-0.308c185.141,145.616,443.75,145.616,628.87,0c0.752-0.577,1.809-0.463,2.406,0.29
				c0.577,0.729,0.442,1.789-0.29,2.383C1235.174,994.449,1122.747,1033.357,1008.445,1033.357z"/>
			<g>
				<g>
					<path fill="#EA3D4E" d="M804.921,969.495c-8.88-9.911-23.851-4.831-30.66-2.348c-1.492-7.08-5.099-22.492-18.213-24.802
						c-18.472-3.464-28.736,17.491-25.523,38.522c1.338,9.234,4.263,30.593,10.343,46.389c16.614-3.194,36.298-11.986,44.822-15.736
						c9.736-4.138,17.799-11.259,21.733-18.994C811.356,984.79,811.262,976.499,804.921,969.495z"/>
				</g>
				<g>
					<path fill="#EA3D4E" d="M917.752,1006.919c-11.094-7.369-24.312,1.347-30.277,5.426c-3.232-6.465-10.602-20.493-23.867-19.415
						c-9.419,0.711-15.2,6.641-17.683,14.991c-2.473,8.312-1.53,19.011,2.674,28.725c3.617,8.581,11.814,28.534,21.665,42.275
						c15.277-7.255,32.124-20.706,39.427-26.497c8.379-6.444,14.4-15.333,16.269-23.821
						C927.823,1020.118,925.651,1012.113,917.752,1006.919z"/>
				</g>
				<g>
					<path fill="#EA3D4E" d="M1036.413,1014.886c-12.583-4.351-23.225,7.37-27.968,12.833c-4.743-5.463-15.392-17.184-27.986-12.833
						c-17.826,5.943-16.613,29.246-3.57,46.081c5.649,7.408,18.579,24.65,31.557,35.521c12.96-10.871,25.909-28.113,31.546-35.521
						C1053.018,1044.132,1054.25,1020.829,1036.413,1014.886z"/>
				</g>
				<g>
					<path fill="#EA3D4E" d="M1153.264,992.93c-13.275-1.078-20.605,12.95-23.838,19.415c-5.966-4.1-19.204-12.774-30.307-5.426
						c-7.888,5.194-10.063,13.199-8.196,21.684c1.867,8.488,7.868,17.377,16.26,23.821c7.33,5.773,24.146,19.242,39.444,26.497
						c9.832-13.741,18.047-33.694,21.646-42.275c4.195-9.714,5.155-20.413,2.675-28.725
						C1168.466,999.57,1162.691,993.641,1153.264,992.93z"/>
				</g>
				<g>
					<path fill="#EA3D4E" d="M1260.821,942.345c-13.102,2.31-16.7,17.702-18.2,24.785c-6.793-2.466-21.801-7.546-30.671,2.365
						c-6.351,7.003-6.427,15.295-2.5,23.03c3.943,7.735,12.005,14.856,21.722,18.994c8.543,3.75,28.227,12.542,44.852,15.719
						c6.061-15.778,9.006-37.137,10.314-46.354C1289.57,959.836,1279.294,938.881,1260.821,942.345z"/>
				</g>
			</g>
		</g>
	</g>
</g>
</svg>
