<?xml version="1.0" encoding="utf-8"?>
<!-- Generator: Adobe Illustrator 16.0.0, SVG Export Plug-In . SVG Version: 6.00 Build 0)  -->
<!DOCTYPE svg PUBLIC "-//W3C//DTD SVG 1.1//EN" "http://www.w3.org/Graphics/SVG/1.1/DTD/svg11.dtd">
<svg version="1.1" id="Layer_1" xmlns="http://www.w3.org/2000/svg" xmlns:xlink="http://www.w3.org/1999/xlink" x="0px" y="0px"
   width="501.17999"
   height="360.99191"
   viewBox="0 0 501.17999 360.99191"
   xml:space="preserve">
<g transform="translate(-758,-727.95209)">
	<g>
		<g>
			<g>
				<path fill="#3A002F" d="M820.574,919.814C786.842,940.903,758,933.129,758,933.129s39.985,72.078,128.819,34.692
					c47.314-19.915,33.155-72.061,13.838-85.297C881.298,869.247,859.749,895.319,820.574,919.814z"/>
			</g>
			<g>
				<path fill="#3A002F" d="M1196.587,919.814c33.729,21.089,62.592,13.315,62.592,13.315s-39.986,72.078-128.841,34.692
					c-47.313-19.915-33.135-72.061-13.816-85.297C1135.86,869.247,1157.409,895.319,1196.587,919.814z"/>
			</g>
		</g>
		<path fill="#82074A" d="M1131.146,899.823c-13.585-97.727-40.869-146.791-122.565-149.178l0,0l0,0l0,0l0,0
			c-81.698,2.387-108.983,51.451-122.568,149.178c-13.527,97.359,28.017,170.939,122.568,163.953
			C1103.129,1070.762,1144.69,997.182,1131.146,899.823z"/>
		<path fill="#3A002F" d="M1022.28,1083.25c-4.138,0-7.391-5.889-7.391-13.414c0-7.504,3.253-13.391,7.391-13.391
			c4.154,0,7.407,5.887,7.407,13.391C1029.688,1077.361,1026.435,1083.25,1022.28,1083.25z"/>
		<path fill="#3A002F" d="M1047.233,1083.25c-4.154,0-7.407-5.889-7.407-13.414c0-7.504,3.253-13.391,7.407-13.391
			c4.158,0,7.411,5.887,7.411,13.391C1054.645,1077.361,1051.392,1083.25,1047.233,1083.25z"/>
		<path fill="#3A002F" d="M1034.767,1088.943c-4.213,0-7.407-6.982-7.407-16.236c0-9.275,3.194-16.262,7.407-16.262
			c4.214,0,7.387,6.986,7.387,16.262C1042.153,1081.961,1038.98,1088.943,1034.767,1088.943z"/>
		<path fill="#3A002F" d="M969.924,1083.25c-4.137,0-7.407-5.889-7.407-13.414c0-7.504,3.271-13.391,7.407-13.391
			s7.39,5.887,7.39,13.391C977.313,1077.361,974.061,1083.25,969.924,1083.25z"/>
		<path fill="#3A002F" d="M994.86,1083.25c-4.137,0-7.407-5.889-7.407-13.414c0-7.504,3.271-13.391,7.407-13.391
			c4.158,0,7.391,5.887,7.391,13.391C1002.251,1077.361,999.019,1083.25,994.86,1083.25z"/>
		<path fill="#3A002F" d="M982.391,1088.943c-4.23,0-7.407-6.982-7.407-16.236c0-9.275,3.177-16.262,7.407-16.262
			c4.216,0,7.41,6.986,7.41,16.262C989.801,1081.961,986.606,1088.943,982.391,1088.943z"/>
		<g>
			<path fill="#82074A" d="M934.769,905.075c-39.789,0-72.171-32.382-72.171-72.174c0-39.79,32.382-72.172,72.171-72.172
				c39.793,0,72.175,32.382,72.175,72.172C1006.943,872.693,974.562,905.075,934.769,905.075z"/>
			<g>
				<g>
					<path fill="#82074A" d="M911.335,901.169c1.115-3.174,3.308-5.618,5.732-7.214c2.462-1.6,5.139-2.331,7.832-1.886
						c5.193,0.922,9.68,6.251,9.869,13.005c0.021,3.367-1.385,6.447-3.905,8.523c-2.5,2.1-6.157,3.177-9.967,2.521
						c-3.829-0.614-6.944-2.828-8.64-5.618C910.544,907.709,910.236,904.343,911.335,901.169z"/>
				</g>
				<g>
					<path fill="#82074A" d="M890.459,889.835c4.31-5.194,11.141-6.675,15.796-4.175c2.386,1.291,4.061,3.539,5.004,6.292
						c0.942,2.752,1.171,6.022,0.076,9.217c-1.078,3.194-3.388,5.64-6.465,6.792c-3.06,1.154-6.869,0.961-10.257-0.884
						c-3.404-1.847-5.618-4.928-6.312-8.122C887.59,895.745,888.397,892.474,890.459,889.835z"/>
				</g>
				<g>
					<path fill="#82074A" d="M874.374,872.365c5.732-3.539,12.677-2.731,16.296,1.137c3.561,3.923,3.788,10.888-0.211,16.334
						c-2.062,2.655-5.042,4.233-8.333,4.331c-3.253,0.096-6.792-1.31-9.39-4.138c-2.617-2.849-3.732-6.485-3.35-9.718
						C869.735,877.042,871.542,874.192,874.374,872.365z"/>
				</g>
				<g>
					<path fill="#82074A" d="M864.808,850.623c3.274-0.828,6.506-0.327,9.18,0.847c2.676,1.174,4.751,3.021,5.85,5.504
						c2.096,4.849,0.059,11.524-5.463,15.392c-2.812,1.848-6.141,2.387-9.276,1.405c-3.118-0.963-6.022-3.425-7.58-6.965
						c-1.561-3.539-1.426-7.352-0.021-10.295C858.902,853.527,861.538,851.431,864.808,850.623z"/>
				</g>
				<g>
					<path fill="#82074A" d="M862.847,826.936c6.717,0.75,11.679,5.657,12.159,10.93c0.214,2.715-0.75,5.329-2.538,7.64
						c-1.771,2.289-4.386,4.271-7.66,5.117c-3.27,0.829-6.578,0.249-9.234-1.692c-2.635-1.926-4.562-5.214-4.869-9.082
						c-0.328-3.85,1.04-7.369,3.329-9.717C856.323,827.783,859.5,826.667,862.847,826.936z"/>
				</g>
				<g>
					<path fill="#82074A" d="M868.676,803.923c3.098,1.368,5.349,3.754,6.733,6.312c1.368,2.577,1.869,5.312,1.213,7.946
						c-0.674,2.635-2.425,4.79-4.849,6.406c-2.441,1.578-5.56,2.617-8.927,2.348c-3.347-0.248-6.292-1.885-8.178-4.578
						c-1.886-2.674-2.635-6.406-1.675-10.16c0.942-3.75,3.388-6.676,6.312-8.14C862.231,802.577,865.616,802.559,868.676,803.923z"
						/>
				</g>
				<g>
					<path fill="#82074A" d="M881.701,784.049c4.831,4.714,5.736,11.642,2.87,16.086c-2.925,4.406-9.642,6.33-15.896,3.788
						c-3.077-1.347-5.329-3.868-6.213-7.021c-0.904-3.139-0.425-6.91,1.71-10.143c2.116-3.232,5.369-5.193,8.623-5.618
						C876.027,780.7,879.239,781.76,881.701,784.049z"/>
				</g>
				<g>
					<path fill="#82074A" d="M900.426,769.424c1.616,2.984,1.923,6.254,1.46,9.121c-0.5,2.865-1.768,5.349-3.923,7.023
						c-4.195,3.25-11.182,2.904-16.262-1.52c-2.479-2.271-3.809-5.369-3.636-8.66c0.173-3.25,1.848-6.658,4.907-9.041
						c3.039-2.369,6.755-3.178,9.948-2.542C896.153,764.442,898.848,766.483,900.426,769.424z"/>
				</g>
				<g>
					<path fill="#82074A" d="M922.899,761.709c0.539,3.33-0.23,6.523-1.615,9.083c-1.389,2.559-3.409,4.482-5.968,5.366
						c-2.576,0.904-5.35,0.598-8.043-0.556c-2.655-1.157-5.231-3.216-6.848-6.179c-1.599-2.941-1.848-6.291-0.618-9.352
						c1.194-3.039,3.905-5.694,7.562-6.965c3.657-1.271,7.445-0.809,10.273,0.828C920.493,755.59,922.361,758.381,922.899,761.709z"
						/>
				</g>
				<g>
					<path fill="#82074A" d="M946.662,761.709c-0.577,3.33-2.327,6.1-4.465,8.081c-2.155,1.962-4.693,3.136-7.429,3.136
						c-2.731,0-5.27-1.174-7.407-3.136c-2.134-1.981-3.905-4.772-4.462-8.081c-0.559-3.312,0.308-6.582,2.463-9.044
						c2.116-2.482,5.56-4.116,9.406-4.116c3.851,0,7.294,1.634,9.432,4.116C946.354,755.127,947.218,758.398,946.662,761.709z"/>
				</g>
				<g>
					<path fill="#82074A" d="M969.116,769.446c-1.616,2.941-4.196,5-6.852,6.157c-2.673,1.153-5.442,1.46-8.022,0.556
						c-2.579-0.884-4.579-2.808-5.984-5.366c-1.364-2.56-2.135-5.753-1.596-9.083c0.539-3.312,2.403-6.119,5.253-7.756
						c2.808-1.654,6.599-2.096,10.256-0.846c3.654,1.271,6.368,3.926,7.58,6.965C970.98,763.133,970.731,766.5,969.116,769.446z"/>
				</g>
				<g>
					<path fill="#82074A" d="M987.836,784.049c-5.079,4.424-12.062,4.77-16.258,1.537c-2.155-1.672-3.426-4.176-3.906-7.041
						c-0.479-2.867-0.151-6.137,1.444-9.1c1.595-2.963,4.271-5.004,7.504-5.64c3.211-0.636,6.906,0.193,9.966,2.559
						c3.039,2.366,4.734,5.774,4.887,9.045C991.648,778.68,990.34,781.778,987.836,784.049z"/>
				</g>
				<g>
					<path fill="#82074A" d="M1000.862,803.923c-6.251,2.542-12.946,0.618-15.871-3.788c-2.888-4.444-1.982-11.372,2.845-16.086
						c2.483-2.289,5.678-3.35,8.931-2.907c3.232,0.425,6.503,2.386,8.599,5.618c2.138,3.232,2.618,7.004,1.733,10.143
						C1006.194,800.077,1003.942,802.577,1000.862,803.923z"/>
				</g>
				<g>
					<path fill="#82074A" d="M1006.695,826.936c-3.351,0.27-6.485-0.749-8.91-2.348c-2.444-1.616-4.195-3.771-4.849-6.406
						c-0.673-2.635-0.172-5.369,1.213-7.946c1.385-2.541,3.636-4.944,6.713-6.312c3.08-1.364,6.447-1.347,9.372,0.135
						c2.925,1.464,5.388,4.39,6.33,8.14c0.942,3.754,0.193,7.486-1.692,10.16C1012.987,825.051,1010.041,826.688,1006.695,826.936z"
						/>
				</g>
				<g>
					<path fill="#82074A" d="M1004.751,850.623c-3.271-0.828-5.889-2.828-7.677-5.117c-1.789-2.311-2.753-4.925-2.521-7.64
						c0.463-5.272,5.446-10.18,12.143-10.93c3.346-0.269,6.52,0.867,8.812,3.216c2.29,2.327,3.675,5.867,3.325,9.714
						c-0.307,3.851-2.21,7.139-4.865,9.064C1011.312,850.872,1008.004,851.469,1004.751,850.623z"/>
				</g>
				<g>
					<path fill="#82074A" d="M995.168,872.365c-5.522-3.867-7.563-10.543-5.464-15.392c1.116-2.482,3.194-4.33,5.851-5.504
						c2.673-1.153,5.926-1.654,9.196-0.847c3.253,0.809,5.888,2.925,7.293,5.888c1.402,2.943,1.537,6.756-0.021,10.295
						c-1.558,3.54-4.465,6.002-7.58,6.965C1001.308,874.751,997.979,874.212,995.168,872.365z"/>
				</g>
				<g>
					<path fill="#82074A" d="M979.082,889.835c-4.003-5.446-3.771-12.411-0.211-16.334c3.616-3.868,10.564-4.659,16.297-1.137
						c2.828,1.827,4.638,4.677,5.004,7.946c0.366,3.232-0.732,6.869-3.367,9.718c-2.618,2.828-6.14,4.233-9.41,4.138
						C984.124,894.069,981.141,892.491,979.082,889.835z"/>
				</g>
				<g>
					<path fill="#82074A" d="M958.207,901.169c-1.099-3.194-0.867-6.465,0.075-9.217c0.964-2.753,2.618-5.001,5.004-6.292
						c4.676-2.5,11.486-1.02,15.796,4.175c2.059,2.655,2.866,5.926,2.155,9.12c-0.674,3.194-2.904,6.275-6.31,8.14
						c-3.388,1.827-7.196,2.021-10.257,0.866C961.591,906.809,959.284,904.364,958.207,901.169z"/>
				</g>
				<g>
					<path fill="#82074A" d="M934.769,905.075c0.193-6.754,4.676-12.083,9.873-13.005c2.694-0.445,5.367,0.286,7.829,1.886
						c2.424,1.596,4.62,4.04,5.736,7.214c1.095,3.174,0.787,6.54-0.926,9.331c-1.692,2.79-4.811,5.004-8.637,5.618
						c-3.812,0.656-7.466-0.421-9.97-2.521C936.137,911.522,934.752,908.442,934.769,905.075z"/>
				</g>
			</g>
		</g>
		<g>
			<path fill="#82074A" d="M1083.39,905.075c39.811,0,72.175-32.382,72.175-72.174c0-39.79-32.364-72.172-72.175-72.172
				c-39.793,0-72.174,32.382-72.174,72.172C1011.216,872.693,1043.597,905.075,1083.39,905.075z"/>
			<g>
				<g>
					<path fill="#82074A" d="M1106.824,901.169c1.115,3.174,0.791,6.54-0.922,9.331c-1.695,2.79-4.811,4.982-8.62,5.618
						c-3.829,0.656-7.486-0.421-9.97-2.521c-2.538-2.076-3.923-5.156-3.923-8.523c0.018-3.367,1.309-6.405,3.098-8.695
						c1.789-2.289,4.1-3.851,6.793-4.31c2.693-0.445,5.366,0.286,7.812,1.886C1103.516,895.551,1105.729,897.996,1106.824,901.169z"
						/>
				</g>
				<g>
					<path fill="#82074A" d="M1127.703,889.835c2.096,2.639,2.884,5.926,2.172,9.12c-0.69,3.194-2.925,6.275-6.309,8.122
						c-3.409,1.845-7.197,2.038-10.257,0.884c-3.08-1.152-5.387-3.618-6.485-6.792c-1.077-3.194-0.846-6.485,0.076-9.217
						c0.963-2.753,2.617-5.001,5.024-6.292c2.387-1.309,5.177-1.481,8.005-0.787C1122.758,885.584,1125.624,887.18,1127.703,889.835
						z"/>
				</g>
				<g>
					<path fill="#82074A" d="M1143.806,872.365c2.812,1.827,4.617,4.677,4.983,7.929c0.366,3.25-0.729,6.887-3.347,9.735
						c-2.617,2.828-6.14,4.233-9.41,4.116c-3.27-0.076-6.271-1.654-8.329-4.31c-2.062-2.655-2.907-5.829-2.925-8.754
						c0.018-2.904,0.884-5.581,2.731-7.58c1.848-2.021,4.424-3.081,7.331-3.329C1137.745,869.941,1140.978,870.518,1143.806,872.365
						z"/>
				</g>
				<g>
					<path fill="#82074A" d="M1153.368,850.623c3.253,0.809,5.908,2.904,7.293,5.888c1.424,2.943,1.541,6.756-0.021,10.274
						c-1.536,3.561-4.444,6.022-7.559,6.985c-3.136,0.961-6.465,0.442-9.276-1.405c-2.808-1.864-4.638-4.6-5.598-7.349
						c-0.926-2.752-0.963-5.542,0.114-8.043c1.115-2.482,3.194-4.33,5.85-5.521C1146.849,850.316,1150.098,849.794,1153.368,850.623
						z"/>
				</g>
				<g>
					<path fill="#82074A" d="M1155.312,826.936c3.35-0.286,6.544,0.847,8.834,3.195c2.269,2.327,3.653,5.867,3.325,9.717
						c-0.324,3.868-2.23,7.156-4.887,9.062c-2.655,1.943-5.964,2.541-9.217,1.712c-3.271-0.846-5.888-2.828-7.677-5.117
						c-1.789-2.311-2.752-4.925-2.521-7.64c0.231-2.714,1.599-5.155,3.732-7.138
						C1149.059,828.747,1151.966,827.227,1155.312,826.936z"/>
				</g>
				<g>
					<path fill="#82074A" d="M1149.483,803.907c3.077-1.348,6.443-1.33,9.369,0.151c2.925,1.464,5.387,4.368,6.33,8.122
						c0.942,3.75,0.193,7.504-1.672,10.178c-1.906,2.676-4.849,4.33-8.198,4.578c-3.347,0.27-6.485-0.77-8.909-2.348
						c-2.425-1.616-4.192-3.771-4.849-6.406c-0.674-2.635-0.173-5.369,1.212-7.946
						C1144.151,807.677,1146.403,805.27,1149.483,803.907z"/>
				</g>
				<g>
					<path fill="#82074A" d="M1136.475,784.049c2.466-2.289,5.656-3.367,8.909-2.907c3.232,0.425,6.503,2.386,8.62,5.618
						c2.116,3.215,2.597,7.004,1.713,10.143c-0.905,3.152-3.156,5.656-6.233,7.004c-3.098,1.363-6.368,1.401-9.196,0.69
						c-2.832-0.712-5.177-2.193-6.679-4.482c-1.499-2.269-1.903-5.042-1.443-7.908
						C1132.648,789.319,1133.995,786.339,1136.475,784.049z"/>
				</g>
				<g>
					<path fill="#82074A" d="M1117.733,769.424c1.599-2.941,4.292-4.982,7.504-5.618c3.215-0.636,6.928,0.173,9.97,2.542
						c3.039,2.383,4.731,5.791,4.887,9.041c0.173,3.273-1.136,6.389-3.619,8.66c-2.5,2.27-5.598,3.367-8.485,3.616
						c-2.925,0.231-5.636-0.404-7.773-2.097c-2.172-1.675-3.426-4.158-3.923-7.023
						C1115.831,775.678,1116.138,772.409,1117.733,769.424z"/>
				</g>
				<g>
					<path fill="#82074A" d="M1095.28,761.709c0.538-3.328,2.406-6.119,5.252-7.773c2.811-1.637,6.6-2.1,10.257-0.828
						c3.656,1.25,6.367,3.926,7.58,6.965c1.232,3.061,0.98,6.41-0.636,9.352c-1.616,2.963-4.192,5.021-6.848,6.179
						c-2.677,1.153-5.446,1.439-8.025,0.556c-2.577-0.884-4.58-2.808-5.981-5.366C1095.49,768.233,1094.741,765.018,1095.28,761.709
						z"/>
				</g>
				<g>
					<path fill="#82074A" d="M1071.518,761.709c-0.577-3.312,0.308-6.582,2.462-9.044c2.138-2.482,5.56-4.116,9.41-4.137
						c3.848,0.021,7.29,1.654,9.428,4.116c2.155,2.482,3.021,5.753,2.463,9.064c-0.577,3.309-2.349,6.1-4.466,8.061
						c-2.155,1.982-4.672,3.156-7.425,3.139c-2.731,0.018-5.252-1.156-7.407-3.118
						C1073.845,767.809,1072.077,765.018,1071.518,761.709z"/>
				</g>
				<g>
					<path fill="#82074A" d="M1049.063,769.424c-1.637-2.925-1.868-6.291-0.656-9.352c1.213-3.039,3.927-5.694,7.584-6.965
						c3.653-1.271,7.445-0.809,10.273,0.846c2.85,1.637,4.714,4.444,5.253,7.756c0.538,3.33-0.231,6.523-1.616,9.083
						c-1.385,2.559-3.405,4.482-5.964,5.366c-2.58,0.884-5.35,0.598-8.043-0.556C1053.239,774.446,1050.68,772.387,1049.063,769.424
						z"/>
				</g>
				<g>
					<path fill="#82074A" d="M1030.322,784.049c-2.482-2.271-3.809-5.369-3.636-8.64c0.172-3.271,1.848-6.679,4.907-9.045
						c3.038-2.365,6.751-3.194,9.945-2.559c3.232,0.636,5.926,2.677,7.524,5.618c1.596,2.984,1.903,6.254,1.443,9.121
						c-0.5,2.865-1.771,5.369-3.926,7.041c-2.155,1.675-4.869,2.311-7.773,2.079S1032.806,786.319,1030.322,784.049z"/>
				</g>
				<g>
					<path fill="#82074A" d="M1017.297,803.923c-3.081-1.347-5.332-3.868-6.216-7.021c-0.905-3.139-0.425-6.91,1.713-10.143
						c2.116-3.232,5.366-5.193,8.619-5.618c3.232-0.442,6.447,0.618,8.909,2.907c2.463,2.29,3.83,5.291,4.31,8.157
						c0.463,2.887,0.038,5.64-1.443,7.929c-1.52,2.269-3.867,3.75-6.695,4.482C1023.686,805.308,1020.395,805.27,1017.297,803.923z"
						/>
				</g>
				<g>
					<path fill="#82074A" d="M1022.991,872.365c-2.811,1.848-6.137,2.387-9.275,1.405c-3.115-0.963-6.023-3.425-7.56-6.965
						c-1.578-3.539-1.443-7.352-0.042-10.295c1.406-2.963,4.044-5.079,7.314-5.888c3.271-0.808,6.523-0.307,9.179,0.847
						c2.652,1.194,4.752,3.021,5.868,5.504c1.077,2.501,1.039,5.291,0.096,8.043
						C1027.629,867.765,1025.799,870.518,1022.991,872.365z"/>
				</g>
				<g>
					<path fill="#82074A" d="M1039.098,889.835c-2.062,2.655-5.042,4.233-8.333,4.31c-3.253,0.117-6.793-1.288-9.41-4.116
						c-2.614-2.849-3.713-6.485-3.347-9.718c0.366-3.27,2.173-6.119,4.983-7.946c2.828-1.847,6.061-2.424,8.965-2.192
						c2.908,0.248,5.484,1.326,7.331,3.329c1.848,1.999,2.715,4.676,2.715,7.58C1042.002,884.006,1041.155,887.18,1039.098,889.835z
						"/>
				</g>
				<g>
					<path fill="#82074A" d="M1059.973,901.169c-1.098,3.194-3.405,5.64-6.485,6.792c-3.06,1.154-6.848,0.961-10.235-0.884
						c-3.405-1.847-5.636-4.928-6.33-8.122s0.097-6.481,2.176-9.12c2.075-2.655,4.962-4.251,7.773-4.962
						c2.828-0.694,5.615-0.521,8.001,0.787c2.407,1.291,4.062,3.539,5.025,6.292C1060.819,894.684,1061.05,897.975,1059.973,901.169
						z"/>
				</g>
				<g>
					<path fill="#82074A" d="M1083.39,905.075c0.018,3.367-1.367,6.447-3.905,8.523c-2.504,2.1-6.14,3.177-9.967,2.521
						c-3.812-0.636-6.927-2.828-8.623-5.618c-1.729-2.791-2.037-6.157-0.922-9.331c1.099-3.174,3.309-5.618,5.732-7.214
						c2.445-1.6,5.139-2.331,7.812-1.886c2.697,0.459,4.986,2.021,6.793,4.31C1082.099,898.669,1083.39,901.708,1083.39,905.075z"/>
				</g>
			</g>
		</g>
		<g>
			<path fill="#82074A" d="M941.389,733.099c-37.289,7.483-46.409,19.815-69.806,16.97c-4.082-0.674-9.161-3.156-10.698-6.679
				c-0.771-1.789-1.443-3.423-1.578-5.076c-0.038-0.85,0.018-1.696,0.231-2.562l0.189-0.632c-0.037-0.021,0.215-0.463,0.312-0.674
				c0.151-0.349,0.324-0.635,0.614-1.001c1.04-1.33,2.693-2.176,4.369-2.097c0.846,0.056,1.671,0.27,2.441,0.729
				c0.673,0.387,1.347,1.078,1.733,1.886c0.904,1.599,0.922,3.905-0.097,5.64c-1.002,1.691-3.253,2.521-5.118,1.596l-0.214,0.424
				c1.886,1.348,4.734,1.002,6.409-1.077c1.634-2.003,2.097-5.118,1.095-7.715c-2.21-5.563-9.196-6.409-13.198-2.331
				c-0.48,0.463-0.981,1.099-1.406,1.734c-0.172,0.307-0.248,0.345-0.518,0.866l-0.463,0.96c-0.577,1.347-0.787,2.866-0.922,4.369
				c-1.136,12.601,10.698,19.338,15.43,22.166c10.912,5.926,48.374,18.203,70.213,15.316c47.255-6.234,86.316,10.408,87.587,4.73
				C1030.437,769.811,992.608,722.805,941.389,733.099z"/>
			<path fill="#82074A" d="M1075.789,733.099c37.289,7.483,46.389,19.815,69.806,16.97c4.062-0.674,9.162-3.156,10.698-6.679
				c0.771-1.789,1.427-3.423,1.578-5.076c0.038-0.85-0.017-1.696-0.248-2.562l-0.193-0.632c0.038-0.021-0.193-0.463-0.29-0.674
				c-0.173-0.349-0.346-0.635-0.615-1.001c-1.039-1.33-2.673-2.176-4.368-2.097c-0.847,0.056-1.672,0.27-2.462,0.729
				c-0.653,0.387-1.326,1.078-1.73,1.886c-0.888,1.599-0.926,3.905,0.114,5.64c0.98,1.691,3.231,2.521,5.101,1.596l0.228,0.424
				c-1.886,1.348-4.731,1.002-6.406-1.077c-1.637-2.003-2.116-5.118-1.098-7.715c2.196-5.563,9.179-6.409,13.202-2.331
				c0.479,0.463,0.98,1.099,1.401,1.734c0.177,0.307,0.231,0.345,0.501,0.866l0.463,0.96c0.598,1.347,0.791,2.866,0.942,4.369
				c1.137,12.601-10.698,19.338-15.429,22.166c-10.913,5.926-48.396,18.203-70.23,15.316c-47.259-6.234-86.299,10.408-87.587,4.73
				C986.741,769.811,1024.569,722.805,1075.789,733.099z"/>
		</g>
		<path fill="#EAE5D3" d="M1152.118,836.848c-2.096-2.58-5.135-3.965-8.506-3.947l0,0l0,0l0,0c3.371,0.021,6.41-1.364,8.506-3.961
			c2.041-2.542,3.08-6.293,2.289-10.16c-0.787-3.867-3.098-6.965-6.022-8.526c-2.887-1.596-6.271-1.692-9.368-0.404l0,0
			c3.135-1.267,5.404-3.712,6.347-6.906c0.905-3.136,0.404-7.003-1.789-10.273c-2.21-3.271-5.539-5.215-8.812-5.543
			c-3.309-0.345-6.444,0.829-8.81,3.215l0,0l0,0l0,0c2.383-2.368,3.578-5.505,3.212-8.812c-0.328-3.253-2.29-6.6-5.543-8.813
			c-3.271-2.192-7.138-2.693-10.273-1.788c-3.194,0.942-5.636,3.211-6.928,6.347l0,0c1.31-3.098,1.212-6.481-0.383-9.369
			c-1.562-2.925-4.659-5.234-8.526-6.022c-3.864-0.79-7.618,0.249-10.177,2.29c-2.58,2.096-3.965,5.156-3.944,8.506l0,0l0,0l0,0
			c0.018-3.35-1.367-6.41-3.943-8.506c-2.559-2.041-6.312-3.08-10.181-2.29c-3.867,0.788-6.965,3.098-8.522,6.022
			c-1.6,2.888-1.695,6.271-0.387,9.369l0,0c-1.288-3.136-3.733-5.387-6.924-6.33c-3.14-0.904-7.007-0.421-10.277,1.771
			c-3.25,2.214-5.194,5.561-5.539,8.83c-0.349,3.291,0.825,6.448,3.211,8.796l0,0c-2.365-2.386-5.504-3.56-8.812-3.215
			c-3.253,0.346-6.6,2.29-8.812,5.543c-2.193,3.271-2.673,7.138-1.789,10.273c0.963,3.194,3.215,5.64,6.351,6.927l0,0
			c-3.098-1.287-6.485-1.212-9.372,0.384c-2.904,1.578-5.232,4.659-6.023,8.544c-0.787,3.867,0.253,7.621,2.29,10.159
			c2.1,2.58,5.159,3.965,8.506,3.944c-3.347-0.018-6.406,1.367-8.506,3.964c-2.037,2.542-3.077,6.292-2.29,10.16
			c0.791,3.867,3.119,6.965,6.023,8.522c2.887,1.599,6.274,1.695,9.372,0.404l0,0c-3.136,1.291-5.388,3.716-6.351,6.91
			c-0.884,3.135-0.404,7.003,1.789,10.273c2.213,3.271,5.56,5.215,8.833,5.56c3.288,0.349,6.427-0.846,8.792-3.232l0,0
			c-2.365,2.366-3.56,5.505-3.211,8.813c0.345,3.27,2.289,6.6,5.56,8.812c3.271,2.193,7.117,2.693,10.257,1.789
			c3.19-0.96,5.636-3.212,6.924-6.33l0,0c-1.309,3.077-1.213,6.465,0.404,9.352c1.561,2.925,4.658,5.232,8.505,6.022
			c3.889,0.788,7.639-0.252,10.181-2.289c2.576-2.1,3.961-5.156,3.943-8.506c0,3.35,1.385,6.406,3.965,8.506
			c2.538,2.037,6.292,3.077,10.156,2.289c3.867-0.79,6.965-3.118,8.543-6.022c1.578-2.887,1.676-6.274,0.387-9.372l0,0
			c1.271,3.139,3.713,5.391,6.928,6.351c3.136,0.884,7.004,0.404,10.253-1.789c3.274-2.213,5.215-5.56,5.563-8.812
			c0.346-3.309-0.85-6.447-3.215-8.813l0,0l0,0l0,0c2.348,2.387,5.504,3.561,8.792,3.216c3.273-0.328,6.62-2.29,8.812-5.543
			c2.214-3.271,2.694-7.139,1.789-10.273c-0.942-3.194-3.212-5.64-6.33-6.928l0,0l0,0l0,0c3.081,1.309,6.465,1.212,9.372-0.387
			c2.904-1.558,5.215-4.676,6.002-8.522C1155.198,843.157,1154.159,839.407,1152.118,836.848z"/>
		<path fill="#EAE5D3" d="M994.995,832.901c3.367,0.021,6.406-1.364,8.506-3.944c2.037-2.559,3.076-6.31,2.289-10.159
			c-0.791-3.885-3.098-6.982-6.022-8.544c-2.887-1.596-6.274-1.671-9.372-0.384l0,0c3.139-1.287,5.407-3.732,6.351-6.927
			c0.904-3.136,0.403-7.003-1.789-10.273c-2.214-3.253-5.543-5.197-8.812-5.543c-3.309-0.345-6.448,0.829-8.813,3.215l0,0
			c2.387-2.348,3.578-5.505,3.215-8.812c-0.328-3.253-2.271-6.6-5.542-8.813c-3.271-2.192-7.139-2.676-10.274-1.771
			c-3.193,0.943-5.639,3.194-6.91,6.33l0,0c1.292-3.098,1.195-6.481-0.403-9.369c-1.558-2.925-4.655-5.234-8.522-6.022
			c-3.868-0.79-7.618,0.249-10.16,2.29c-2.597,2.096-3.965,5.156-3.965,8.506l0,0l0,0l0,0c0.021-3.35-1.363-6.41-3.943-8.506
			c-2.559-2.041-6.31-3.08-10.177-2.29c-3.851,0.788-6.966,3.098-8.526,6.022c-1.596,2.888-1.672,6.271-0.384,9.369l0,0l0,0l0,0
			c-1.288-3.136-3.732-5.404-6.927-6.347c-3.136-0.905-7.004-0.404-10.257,1.788c-3.271,2.214-5.214,5.561-5.56,8.813
			c-0.346,3.308,0.828,6.444,3.215,8.812l0,0l0,0l0,0c-2.369-2.386-5.505-3.56-8.796-3.215c-3.271,0.346-6.616,2.29-8.83,5.543
			c-2.192,3.271-2.676,7.138-1.788,10.273c0.96,3.194,3.211,5.64,6.347,6.906l0,0c-3.077-1.288-6.481-1.191-9.369,0.404
			c-2.904,1.562-5.235,4.659-6.022,8.526c-0.791,3.867,0.249,7.618,2.29,10.177c2.096,2.58,5.155,3.965,8.505,3.944l0,0l0,0l0,0
			c-3.35-0.018-6.409,1.367-8.505,3.947c-2.041,2.559-3.081,6.309-2.29,10.177c0.787,3.867,3.118,6.965,6.022,8.522
			c2.888,1.599,6.271,1.695,9.369,0.387l0,0l0,0l0,0c-3.136,1.288-5.387,3.733-6.347,6.928c-0.888,3.135-0.404,7.003,1.788,10.273
			c2.214,3.253,5.56,5.215,8.813,5.543c3.308,0.345,6.443-0.829,8.812-3.216l0,0l0,0l0,0c-2.387,2.366-3.561,5.505-3.215,8.813
			c0.328,3.27,2.289,6.6,5.543,8.812c3.27,2.193,7.138,2.693,10.273,1.789c3.194-0.96,5.639-3.212,6.927-6.351l0,0
			c-1.309,3.098-1.212,6.485,0.384,9.372c1.561,2.925,4.676,5.232,8.526,6.022c3.867,0.788,7.618-0.252,10.177-2.289
			c2.559-2.1,3.965-5.156,3.943-8.506c-0.017,3.35,1.368,6.406,3.947,8.506c2.56,2.037,6.31,3.077,10.178,2.289
			c3.867-0.79,6.965-3.118,8.522-6.022c1.599-2.887,1.695-6.274,0.387-9.352l0,0c1.288,3.118,3.733,5.37,6.927,6.33
			c3.136,0.904,7.004,0.404,10.274-1.789c3.253-2.213,5.214-5.543,5.542-8.812c0.346-3.309-0.828-6.447-3.215-8.813l0,0
			c2.365,2.387,5.505,3.581,8.813,3.216c3.27-0.328,6.599-2.272,8.812-5.543c2.192-3.271,2.693-7.139,1.789-10.273
			c-0.943-3.194-3.212-5.64-6.351-6.91l0,0c3.098,1.291,6.485,1.194,9.372-0.404c2.925-1.558,5.231-4.655,6.022-8.522
			c0.787-3.868-0.252-7.618-2.289-10.16C1001.401,834.268,998.362,832.883,994.995,832.901z"/>
		<path fill="#FBFAF6" d="M980.66,832.901c0,25.34-20.551,45.891-45.892,45.891c-25.34,0-45.888-20.551-45.888-45.891
			c0-25.341,20.548-45.889,45.888-45.889C960.109,787.012,980.66,807.56,980.66,832.901z"/>
		<path fill="#3A002F" d="M1008.58,848.543c0,0-13.585,8.199-16.435,23.38c4.756,4.423,16.435,26.821,16.435,26.821
			s11.696-22.398,16.432-26.821C1022.183,856.743,1008.58,848.543,1008.58,848.543z"/>
		<g>
			<g>
				<path fill="#3A002F" d="M932.345,872.079c-0.943-1.232-1.769-2.466-2.5-3.733c-0.712-1.271-1.326-2.559-1.81-3.851
					c1.751,0.732,3.599,1.292,5.483,1.654c1.868,0.387,3.792,0.58,5.716,0.58c-0.964,0.98-2.021,1.941-3.174,2.846
					C934.925,870.479,933.674,871.308,932.345,872.079z"/>
			</g>
			<g>
				<path fill="#3A002F" d="M919.588,866.767c-0.383-1.481-0.673-2.945-0.866-4.389c-0.173-1.461-0.229-2.884-0.211-4.272
					c1.367,1.368,2.849,2.601,4.444,3.657c1.599,1.077,3.291,1.982,5.08,2.731c-1.288,0.539-2.618,1.022-4.041,1.427
					C922.589,866.284,921.128,866.574,919.588,866.767z"/>
			</g>
			<g>
				<path fill="#3A002F" d="M909.854,857.011c0.193-1.519,0.5-2.983,0.884-4.389c0.387-1.423,0.867-2.749,1.423-4.02
					c0.731,1.751,1.637,3.464,2.714,5.059c1.061,1.599,2.29,3.098,3.637,4.444c-1.385,0.042-2.808-0.037-4.251-0.211
					C912.816,857.702,911.335,857.416,909.854,857.011z"/>
			</g>
			<g>
				<path fill="#3A002F" d="M904.58,844.254c0.753-1.329,1.599-2.559,2.482-3.715c0.905-1.133,1.886-2.211,2.866-3.153
					c0,1.903,0.193,3.826,0.56,5.712s0.943,3.732,1.672,5.505c-1.306-0.519-2.597-1.116-3.848-1.827
					C907.042,846.043,905.792,845.198,904.58,844.254z"/>
			</g>
			<g>
				<path fill="#3A002F" d="M904.58,830.476c1.212-0.942,2.462-1.769,3.732-2.479c1.271-0.732,2.56-1.329,3.848-1.83
					c-0.729,1.751-1.288,3.619-1.672,5.484c-0.366,1.885-0.56,3.809-0.56,5.735c-0.98-0.964-1.961-2.021-2.866-3.177
					C906.179,833.056,905.35,831.805,904.58,830.476z"/>
			</g>
			<g>
				<path fill="#3A002F" d="M909.87,817.741c1.481-0.404,2.946-0.694,4.39-0.885c1.461-0.155,2.887-0.231,4.271-0.214
					c-1.367,1.368-2.579,2.849-3.657,4.444c-1.057,1.6-1.982,3.291-2.714,5.08c-0.556-1.268-1.036-2.617-1.423-4.041
					C910.354,820.72,910.063,819.26,909.87,817.741z"/>
			</g>
			<g>
				<path fill="#3A002F" d="M919.608,807.985c1.52,0.193,3.001,0.479,4.407,0.866c1.401,0.384,2.748,0.864,4.02,1.423
					c-1.769,0.732-3.464,1.654-5.06,2.715c-1.599,1.077-3.098,2.289-4.444,3.653c-0.021-1.385,0.038-2.808,0.211-4.251
					C918.936,810.926,919.222,809.466,919.608,807.985z"/>
			</g>
			<g>
				<path fill="#3A002F" d="M932.365,802.694c1.326,0.75,2.576,1.596,3.713,2.479c1.156,0.905,2.213,1.868,3.177,2.87
					c-1.927,0-3.83,0.189-5.736,0.556c-1.864,0.366-3.712,0.942-5.483,1.675c0.501-1.288,1.115-2.579,1.83-3.867
					C930.576,805.157,931.423,803.907,932.365,802.694z"/>
			</g>
			<g>
				<path fill="#3A002F" d="M946.141,802.694c0.942,1.213,1.771,2.463,2.504,3.733c0.711,1.268,1.326,2.559,1.827,3.847
					c-1.772-0.732-3.619-1.288-5.505-1.675c-1.886-0.366-3.81-0.556-5.712-0.556c0.96-1.002,2.021-1.944,3.152-2.87
					C943.564,804.29,944.814,803.464,946.141,802.694z"/>
			</g>
			<g>
				<path fill="#3A002F" d="M958.897,807.985c0.387,1.481,0.673,2.963,0.85,4.406c0.173,1.461,0.248,2.887,0.228,4.271
					c-1.364-1.367-2.846-2.579-4.444-3.656c-1.596-1.078-3.287-1.982-5.059-2.732c1.271-0.539,2.617-1.019,4.02-1.405
					C955.896,808.485,957.36,808.196,958.897,807.985z"/>
			</g>
			<g>
				<path fill="#3A002F" d="M968.636,817.757c-0.193,1.523-0.501,2.983-0.888,4.39c-0.383,1.402-0.863,2.752-1.423,4.02
					c-0.731-1.769-1.637-3.464-2.714-5.06c-1.057-1.599-2.29-3.097-3.637-4.444c1.368-0.021,2.812,0.038,4.255,0.211
					C965.673,817.067,967.154,817.354,968.636,817.757z"/>
			</g>
			<g>
				<path fill="#3A002F" d="M973.905,830.497c-0.749,1.326-1.596,2.58-2.479,3.713c-0.904,1.174-1.868,2.213-2.869,3.177
					c0-1.927-0.19-3.829-0.557-5.715s-0.925-3.733-1.675-5.505c1.309,0.521,2.598,1.115,3.868,1.83
					C971.443,828.725,972.693,829.554,973.905,830.497z"/>
			</g>
			<g>
				<path fill="#3A002F" d="M973.905,844.293c-1.212,0.922-2.462,1.768-3.712,2.482c-1.288,0.729-2.58,1.326-3.868,1.827
					c0.732-1.772,1.288-3.599,1.675-5.484c0.366-1.886,0.557-3.809,0.557-5.732c1.001,0.96,1.965,2.021,2.869,3.174
					C972.31,841.713,973.156,842.963,973.905,844.293z"/>
			</g>
			<g>
				<path fill="#3A002F" d="M968.615,857.029c-1.481,0.387-2.942,0.673-4.386,0.866c-1.465,0.194-2.887,0.253-4.271,0.232
					c1.363-1.368,2.576-2.867,3.653-4.466c1.077-1.578,1.982-3.271,2.714-5.059c0.56,1.271,1.04,2.617,1.423,4.02
					C968.135,854.048,968.422,855.509,968.615,857.029z"/>
			</g>
			<g>
				<path fill="#3A002F" d="M958.88,866.785c-1.52-0.19-3.001-0.501-4.406-0.863c-1.405-0.404-2.752-0.888-4.023-1.427
					c1.771-0.749,3.464-1.654,5.062-2.731c1.596-1.057,3.098-2.289,4.445-3.636c0.017,1.367-0.038,2.807-0.211,4.251
					C959.554,863.822,959.264,865.303,958.88,866.785z"/>
			</g>
			<g>
				<path fill="#3A002F" d="M946.123,872.079c-1.329-0.771-2.559-1.6-3.716-2.504c-1.153-0.904-2.21-1.865-3.173-2.846
					c1.923,0,3.847-0.193,5.715-0.58c1.886-0.362,3.733-0.922,5.501-1.654c-0.5,1.292-1.115,2.58-1.826,3.851
					C947.912,869.613,947.066,870.846,946.123,872.079z"/>
			</g>
		</g>
		<path fill="#3A002F" d="M914.815,837.386c0,13.485,10.93,24.453,24.419,24.453c13.488,0,24.436-10.968,24.436-24.453
			c0-13.489-10.947-24.456-24.436-24.456C925.745,812.93,914.815,823.897,914.815,837.386z"/>
		<path fill="#FBFAF6" d="M941.907,856.953c-4.79-1.019-7.926-5.618-6.966-10.218c0.964-4.635,5.678-7.598,10.488-6.6
			c4.831,1.002,7.967,5.602,6.985,10.256C951.452,854.971,946.759,857.955,941.907,856.953z"/>
		<path fill="#FBFAF6" d="M1036.421,832.901c0,25.34,20.551,45.891,45.892,45.891s45.888-20.551,45.888-45.891
			c0-25.341-20.547-45.889-45.888-45.889S1036.421,807.56,1036.421,832.901z"/>
		<path fill="#3A002F" d="M1102.266,837.386c0,13.485-10.93,24.453-24.418,24.453c-13.489,0-24.437-10.968-24.437-24.453
			c0-13.489,10.947-24.456,24.437-24.456C1091.336,812.93,1102.266,823.897,1102.266,837.386z"/>
		<g>
			<g>
				<path fill="#3A002F" d="M1070.92,872.079c-0.922-1.232-1.751-2.466-2.479-3.733c-0.715-1.271-1.329-2.559-1.83-3.851
					c1.771,0.732,3.619,1.292,5.504,1.654c1.886,0.387,3.789,0.58,5.716,0.58c-0.964,0.98-2.023,1.941-3.177,2.846
					S1072.267,871.308,1070.92,872.079z"/>
			</g>
			<g>
				<path fill="#3A002F" d="M1058.185,866.767c-0.388-1.481-0.674-2.945-0.847-4.389c-0.176-1.461-0.252-2.884-0.231-4.272
					c1.364,1.368,2.846,2.601,4.444,3.657c1.596,1.077,3.291,1.982,5.06,2.731c-1.271,0.539-2.618,1.022-4.02,1.427
					C1061.185,866.284,1059.703,866.574,1058.185,866.767z"/>
			</g>
			<g>
				<path fill="#3A002F" d="M1048.445,857.011c0.193-1.519,0.501-2.983,0.888-4.389c0.384-1.423,0.863-2.749,1.423-4.02
					c0.732,1.751,1.637,3.464,2.714,5.059c1.058,1.599,2.29,3.098,3.637,4.444c-1.385,0.042-2.811-0.037-4.254-0.211
					C1051.392,857.702,1049.927,857.416,1048.445,857.011z"/>
			</g>
			<g>
				<path fill="#3A002F" d="M1043.176,844.254c0.749-1.329,1.596-2.559,2.483-3.715c0.901-1.133,1.864-2.211,2.866-3.153
					c0,1.903,0.189,3.826,0.556,5.712s0.942,3.732,1.675,5.505c-1.309-0.519-2.579-1.116-3.868-1.827
					C1045.638,846.043,1044.388,845.198,1043.176,844.254z"/>
			</g>
			<g>
				<path fill="#3A002F" d="M1043.176,830.476c1.212-0.942,2.462-1.769,3.733-2.479c1.268-0.732,2.559-1.329,3.847-1.83
					c-0.732,1.751-1.288,3.619-1.675,5.484c-0.366,1.885-0.556,3.809-0.556,5.735c-1.002-0.964-1.965-2.021-2.866-3.177
					C1044.771,833.056,1043.946,831.805,1043.176,830.476z"/>
			</g>
			<g>
				<path fill="#3A002F" d="M1048.445,817.741c1.503-0.404,2.963-0.694,4.407-0.885c1.464-0.155,2.887-0.231,4.271-0.214
					c-1.364,1.368-2.576,2.849-3.654,4.444c-1.06,1.6-1.981,3.291-2.714,5.08c-0.56-1.268-1.039-2.617-1.423-4.041
					C1048.946,820.72,1048.66,819.26,1048.445,817.741z"/>
			</g>
			<g>
				<path fill="#3A002F" d="M1058.201,807.985c1.52,0.193,2.983,0.479,4.406,0.866c1.406,0.384,2.753,0.864,4.023,1.423
					c-1.771,0.732-3.464,1.654-5.08,2.715c-1.578,1.077-3.08,2.289-4.427,3.653c-0.038-1.385,0.038-2.808,0.214-4.251
					C1057.511,810.926,1057.818,809.466,1058.201,807.985z"/>
			</g>
			<g>
				<path fill="#3A002F" d="M1070.94,802.694c1.347,0.75,2.576,1.596,3.733,2.479c1.153,0.905,2.214,1.868,3.174,2.87
					c-1.924,0-3.848,0.189-5.733,0.556c-1.885,0.366-3.715,0.942-5.483,1.675c0.501-1.288,1.115-2.579,1.827-3.867
					C1069.169,805.157,1070.015,803.907,1070.94,802.694z"/>
			</g>
			<g>
				<path fill="#3A002F" d="M1084.736,802.694c0.943,1.213,1.769,2.463,2.501,3.733c0.711,1.268,1.309,2.559,1.81,3.847
					c-1.751-0.732-3.599-1.288-5.484-1.675c-1.886-0.366-3.792-0.556-5.715-0.556c0.963-1.002,2.02-1.944,3.156-2.87
					C1082.157,804.29,1083.407,803.464,1084.736,802.694z"/>
			</g>
			<g>
				<path fill="#3A002F" d="M1097.473,807.985c0.404,1.481,0.694,2.963,0.866,4.406c0.173,1.461,0.249,2.887,0.211,4.271
					c-1.347-1.367-2.828-2.579-4.424-3.656c-1.616-1.078-3.312-1.982-5.079-2.732c1.271-0.539,2.617-1.019,4.04-1.405
					C1094.492,808.485,1095.953,808.196,1097.473,807.985z"/>
			</g>
			<g>
				<path fill="#3A002F" d="M1107.229,817.757c-0.211,1.523-0.501,2.983-0.884,4.39c-0.388,1.402-0.867,2.752-1.423,4.02
					c-0.732-1.769-1.658-3.464-2.715-5.06c-1.077-1.599-2.289-3.097-3.657-4.444c1.406-0.021,2.812,0.038,4.271,0.211
					C1104.266,817.067,1105.747,817.354,1107.229,817.757z"/>
			</g>
			<g>
				<path fill="#3A002F" d="M1112.501,830.497c-0.77,1.326-1.599,2.58-2.482,3.713c-0.904,1.174-1.865,2.213-2.866,3.177
					c0-1.927-0.193-3.829-0.577-5.715c-0.365-1.886-0.925-3.733-1.653-5.505c1.288,0.521,2.576,1.115,3.847,1.83
					C1110.039,828.725,1111.289,829.554,1112.501,830.497z"/>
			</g>
			<g>
				<path fill="#3A002F" d="M1112.501,844.293c-1.212,0.922-2.462,1.768-3.732,2.482c-1.271,0.729-2.559,1.326-3.847,1.827
					c0.729-1.772,1.288-3.599,1.653-5.484c0.384-1.886,0.577-3.809,0.577-5.732c1.001,0.96,1.962,2.021,2.866,3.174
					C1110.902,841.713,1111.731,842.963,1112.501,844.293z"/>
			</g>
			<g>
				<path fill="#3A002F" d="M1107.211,857.029c-1.481,0.387-2.963,0.673-4.39,0.866c-1.46,0.194-2.883,0.253-4.271,0.232
					c1.347-1.368,2.58-2.867,3.657-4.466c1.057-1.578,1.982-3.271,2.715-5.059c0.556,1.271,1.019,2.617,1.423,4.02
					C1106.728,854.048,1107.018,855.509,1107.211,857.029z"/>
			</g>
			<g>
				<path fill="#3A002F" d="M1097.455,866.785c-1.52-0.19-2.983-0.501-4.389-0.863c-1.402-0.404-2.749-0.888-4.02-1.427
					c1.768-0.749,3.463-1.654,5.059-2.731c1.599-1.057,3.081-2.289,4.444-3.636c0.021,1.367-0.038,2.807-0.211,4.251
					C1098.146,863.822,1097.859,865.303,1097.455,866.785z"/>
			</g>
			<g>
				<path fill="#3A002F" d="M1084.716,872.079c-1.326-0.771-2.576-1.6-3.732-2.504c-1.133-0.904-2.193-1.865-3.153-2.846
					c1.924,0,3.826-0.193,5.712-0.58c1.886-0.362,3.732-0.922,5.505-1.654c-0.501,1.292-1.116,2.58-1.827,3.851
					C1086.487,869.613,1085.659,870.846,1084.716,872.079z"/>
			</g>
		</g>
		<path fill="#FBFAF6" d="M1072.709,856.953c-4.79-1.019-7.926-5.618-6.966-10.218c0.964-4.635,5.678-7.598,10.488-6.6
			c4.831,1.002,7.945,5.602,6.986,10.256C1082.254,854.971,1077.561,857.955,1072.709,856.953z"/>
		<path fill="#FBFAF6" d="M1086.757,857.934c1.137,0.307,2.307-0.346,2.597-1.424c0.308-1.115-0.383-2.271-1.54-2.579
			c-1.153-0.286-2.307,0.349-2.614,1.464C1084.909,856.491,1085.604,857.626,1086.757,857.934z"/>
		<path fill="#FBFAF6" d="M931.789,857.934c-1.137,0.307-2.311-0.346-2.598-1.424c-0.29-1.115,0.404-2.271,1.537-2.579
			c1.157-0.286,2.327,0.349,2.617,1.464C933.636,856.491,932.942,857.626,931.789,857.934z"/>
		<path fill="#FBFAF6" d="M927.555,854.066c-1.771,0.463-3.577-0.539-4.022-2.252c-0.46-1.692,0.597-3.46,2.386-3.943
			c1.771-0.459,3.581,0.539,4.023,2.251C930.404,851.814,929.326,853.586,927.555,854.066z"/>
		<path fill="#FBFAF6" d="M1092.586,854.066c-1.771,0.463-3.577-0.539-4.02-2.252c-0.463-1.692,0.594-3.46,2.383-3.943
			c1.771-0.459,3.581,0.539,4.023,2.251C1095.436,851.814,1094.357,853.586,1092.586,854.066z"/>
		<g opacity="0.25">
			<path fill="#1D1D1B" d="M1008.58,848.543L1008.58,848.543v50.201l0,0c0,0,11.696-22.398,16.432-26.821
				C1022.183,856.743,1008.58,848.543,1008.58,848.543z"/>
		</g>
		<g>
			<path fill="#C66AA1" d="M1013.888,957.182c-0.113-0.635-0.673-1.119-1.325-1.119l0,0c-0.653,0-1.213,0.484-1.326,1.119
				c-0.312,1.903-1.427,3.271-2.639,3.271c-1.229,0-2.365-1.367-2.673-3.271c-0.117-0.635-0.674-1.119-1.33-1.119l0,0
				c-0.673,0-1.229,0.484-1.325,1.137l-0.06,0.308c-0.075,0.366-0.134,0.711-0.134,1.115c0,3.812,2.462,6.927,5.521,6.927
				c3.021,0,5.505-3.114,5.505-6.927c0-0.442-0.097-0.825-0.155-1.133L1013.888,957.182z"/>
			<path fill="#C66AA1" d="M974.33,957.182c-0.117-0.656-0.656-1.119-1.309-1.119c0,0,0,0-0.021,0c-0.632,0-1.191,0.484-1.306,1.119
				c-0.328,1.903-1.426,3.271-2.655,3.271c-1.213,0-2.349-1.385-2.677-3.271c-0.097-0.635-0.731-1.194-1.326-1.119
				c-0.656,0-1.212,0.501-1.309,1.137l-0.059,0.328c-0.076,0.346-0.135,0.711-0.135,1.095c0,3.812,2.462,6.927,5.505,6.927
				c3.039,0,5.501-3.114,5.501-6.927c0-0.46-0.076-0.847-0.152-1.171L974.33,957.182z"/>
			<path fill="#C66AA1" d="M1048.139,965.549c3.042,0,5.504-3.114,5.504-6.927c0-0.46-0.075-0.847-0.155-1.171l-0.055-0.27
				c-0.118-0.656-0.732-1.119-1.33-1.119c-0.652,0-1.191,0.484-1.309,1.119c-0.328,1.903-1.443,3.271-2.655,3.271
				c-1.229,0-2.345-1.385-2.673-3.271c-0.118-0.635-0.598-1.194-1.33-1.119c-0.673,0-1.212,0.501-1.326,1.137l-0.059,0.328
				c-0.059,0.346-0.135,0.711-0.135,1.095C1042.616,962.435,1045.1,965.549,1048.139,965.549z"/>
			<path fill="#C66AA1" d="M1013.888,1003.359c-0.113-0.635-0.673-1.115-1.325-1.115l0,0c-0.653,0.018-1.213,0.48-1.326,1.133
				c-0.312,1.887-1.427,3.254-2.639,3.254c-1.229,0-2.365-1.367-2.673-3.271c-0.117-0.635-0.791-1.076-1.33-1.115
				c-0.673,0.018-1.229,0.502-1.325,1.133l-0.06,0.328c-0.075,0.346-0.134,0.711-0.134,1.098c0,3.811,2.462,6.928,5.521,6.928
				c3.021,0,5.505-3.117,5.505-6.928c0-0.441-0.097-0.828-0.155-1.156L1013.888,1003.359z"/>
			<path fill="#C66AA1" d="M974.33,1003.359c-0.097-0.635-0.656-1.115-1.309-1.115c0,0,0,0-0.021,0
				c-0.632,0.018-1.191,0.48-1.306,1.133c-0.328,1.887-1.426,3.254-2.655,3.254c-1.213,0-2.349-1.367-2.677-3.271
				c-0.097-0.635-0.731-1.193-1.326-1.115c-0.656,0.018-1.212,0.502-1.309,1.154l-0.059,0.307c-0.076,0.346-0.135,0.711-0.135,1.098
				c0,3.811,2.462,6.928,5.505,6.928c3.039,0,5.501-3.117,5.501-6.928c0-0.461-0.076-0.846-0.152-1.174L974.33,1003.359z"/>
			<path fill="#C66AA1" d="M1053.433,1003.359c-0.118-0.635-0.732-1.039-1.33-1.115c-0.652,0.018-1.191,0.48-1.309,1.133
				c-0.328,1.887-1.443,3.254-2.655,3.254c-1.229,0-2.345-1.367-2.673-3.271c-0.118-0.635-0.598-1.193-1.33-1.115
				c-0.673,0.018-1.212,0.502-1.326,1.154l-0.059,0.307c-0.059,0.346-0.135,0.711-0.135,1.098c0,3.811,2.483,6.928,5.522,6.928
				c3.042,0,5.504-3.117,5.504-6.928c0-0.461-0.075-0.846-0.155-1.156L1053.433,1003.359z"/>
			<path fill="#C66AA1" d="M1029.649,933.956c-0.117-0.633-0.618-1.095-1.33-1.115c-0.652,0-1.191,0.482-1.309,1.136
				c-0.308,1.886-1.423,3.253-2.652,3.253c-1.232,0-2.348-1.389-2.676-3.273c-0.097-0.633-0.674-1.171-1.326-1.115
				c-0.656,0.021-1.212,0.5-1.309,1.136l-0.08,0.328c-0.055,0.345-0.135,0.711-0.135,1.095c0,3.809,2.483,6.928,5.525,6.928
				c3.039,0,5.502-3.119,5.502-6.928c0-0.459-0.076-0.846-0.135-1.153L1029.649,933.956z"/>
			<path fill="#C66AA1" d="M998.113,933.956c-0.097-0.633-0.673-1.115-1.309-1.115c0,0,0,0-0.021,0c-0.653,0-1.213,0.482-1.31,1.115
				c-0.324,1.906-1.443,3.273-2.655,3.273c-1.229,0-2.345-1.367-2.673-3.273c-0.117-0.633-0.673-1.115-1.309-1.115h-0.021
				c-0.653,0-1.213,0.482-1.306,1.136l-0.059,0.29c-0.076,0.362-0.155,0.729-0.155,1.133c0,3.809,2.482,6.928,5.521,6.928
				c3.043,0,5.505-3.119,5.505-6.928c0-0.442-0.076-0.825-0.155-1.153L998.113,933.956z"/>
			<path fill="#C66AA1" d="M1029.649,979.846c-0.097-0.635-0.674-1.115-1.309-1.115l0,0c-0.674,0.018-1.213,0.48-1.33,1.137
				c-0.308,1.885-1.423,3.249-2.652,3.249c-1.232,0-2.348-1.385-2.676-3.271c-0.097-0.635-0.674-1.098-1.326-1.115
				c-0.656,0.018-1.212,0.501-1.309,1.153l-0.08,0.328c-0.055,0.346-0.135,0.694-0.135,1.077c0,3.81,2.483,6.928,5.525,6.928
				c3.039,0,5.502-3.118,5.502-6.928c0-0.441-0.076-0.846-0.135-1.152L1029.649,979.846z"/>
			<path fill="#C66AA1" d="M966.788,981.29c0-0.441-0.079-0.828-0.155-1.152l-0.059-0.291c-0.114-0.635-0.674-1.115-1.326-1.115
				c-0.694,0.038-1.212,0.48-1.326,1.137c-0.311,1.885-1.426,3.249-2.639,3.249c-1.229,0-2.348-1.364-2.673-3.271
				c-0.117-0.635-0.673-1.115-1.329-1.115l0,0c-0.652,0.018-1.229,0.48-1.326,1.137l-0.059,0.307
				c-0.076,0.366-0.135,0.732-0.135,1.115c0,3.81,2.483,6.928,5.521,6.928C964.306,988.217,966.788,985.099,966.788,981.29z"/>
			<path fill="#C66AA1" d="M998.113,979.846c-0.097-0.635-0.656-1.115-1.309-1.115l0,0c-0.674,0-1.233,0.48-1.33,1.137
				c-0.324,1.885-1.443,3.249-2.655,3.249c-1.229,0-2.345-1.364-2.673-3.271c-0.117-0.635-0.673-1.077-1.329-1.115
				c-0.653,0.018-1.213,0.48-1.326,1.137l-0.059,0.307c-0.056,0.366-0.135,0.732-0.135,1.115c0,3.81,2.482,6.928,5.521,6.928
				c3.043,0,5.505-3.118,5.505-6.928c0-0.441-0.076-0.828-0.135-1.136L998.113,979.846z"/>
			<path fill="#C66AA1" d="M1061.261,980.154l-0.055-0.308c-0.118-0.635-0.677-1.115-1.33-1.115l0,0
				c-0.652,0-1.212,0.48-1.326,1.137c-0.311,1.885-1.426,3.249-2.655,3.249c-1.212,0-2.349-1.364-2.655-3.271
				c-0.118-0.635-0.674-1.115-1.33-1.115l0,0c-0.652,0-1.212,0.48-1.326,1.137l-0.059,0.286c-0.076,0.366-0.135,0.753-0.135,1.136
				c0,3.81,2.463,6.928,5.505,6.928c3.039,0,5.521-3.118,5.521-6.928C1061.416,980.848,1061.319,980.461,1061.261,980.154z"/>
		</g>
		<path fill="#FBFAF6" d="M1002.306,982.253c-75.096,0-150.217-16.03-220.291-48.104c-0.48-0.231-0.694-0.809-0.48-1.309
			c0.231-0.48,0.809-0.712,1.309-0.48c140.73,64.439,301.911,63.9,442.22-1.52c0.501-0.214,1.078,0,1.31,0.48
			c0.23,0.479,0.017,1.077-0.484,1.309C1154.929,965.706,1078.617,982.253,1002.306,982.253z"/>
		<g>
			<g>
				<path fill="#FF6B80" d="M863.423,938.151c-7.925-7.079-19.377-2.23-24.512,0.097c-1.83-5.349-6.119-17.011-16.721-17.933
					c-7.525-0.694-12.681,3.076-15.509,9.12c-2.812,6.043-3.194,14.313-0.943,22.264c1.906,7.003,6.12,23.224,12.218,34.92
					c12.719-3.558,27.438-11.583,33.847-14.987C866.503,963.955,874.736,948.042,863.423,938.151z"/>
			</g>
			<g>
				<path fill="#FF6B80" d="M945.989,959.741c-9.2-5.331-19.415,1.73-23.994,5.06c-2.85-4.869-9.448-15.412-20.012-14.179
					c-14.912,1.595-17.357,19.355-9.735,34.073c3.309,6.485,10.736,21.493,19.065,31.729c11.721-6.08,24.516-16.914,30.096-21.548
					c6.386-5.197,10.851-12.201,12.004-18.741C954.588,969.552,952.529,963.492,945.989,959.741z"/>
			</g>
			<g>
				<path fill="#FF6B80" d="M1031.055,962.608c-10.104-3.35-18.665,5.636-22.457,9.831c-3.788-4.195-12.391-13.181-22.491-9.831
					c-7.159,2.365-10.392,7.87-10.585,14.545c-0.189,6.638,2.753,14.394,7.967,20.782c4.541,5.674,14.853,18.893,25.109,27.206
					c10.235-8.312,20.551-21.531,25.071-27.206c5.215-6.389,8.16-14.145,7.987-20.782
					C1041.463,970.478,1038.23,964.973,1031.055,962.608z"/>
			</g>
			<g>
				<path fill="#FF6B80" d="M1112.615,949.409c-10.563-1.232-17.125,9.293-19.991,14.18c-4.579-3.35-14.794-10.408-24.011-5.08
					c-6.544,3.75-8.582,9.832-7.429,16.393c1.175,6.545,5.619,13.548,12.025,18.742c5.58,4.638,18.357,15.47,30.096,21.548
					c8.329-10.215,15.774-25.244,19.048-31.726C1129.972,968.745,1127.548,950.984,1112.615,949.409z"/>
			</g>
			<g>
				<path fill="#FF6B80" d="M1185.809,920.315c-10.602,0.922-14.891,12.584-16.7,17.933c-5.156-2.327-16.604-7.176-24.532-0.097
					c-11.313,9.891-3.077,25.804,11.62,33.48c6.427,3.404,21.128,11.43,33.847,14.987c6.099-11.696,10.314-27.938,12.218-34.92
					c2.234-7.95,1.868-16.221-0.96-22.264C1198.489,923.391,1193.334,919.621,1185.809,920.315z"/>
			</g>
		</g>
	</g>
	<path opacity="0.2" fill="#1D1D1B" d="M1226.254,932.284c0.215-0.27,0.27-0.635,0.118-0.963c-0.231-0.48-0.809-0.694-1.31-0.48
		c-0.538,0.27-1.098,0.501-1.637,0.75c-8.194-2.176-17.336-5.83-26.839-11.776c-20.265-12.681-35.791-25.745-48.758-33.594
		c0.825-1.944,1.174-4.003,0.96-5.927c-0.346-3.193-2.096-5.967-4.828-7.794c0-0.017,0.018-0.038,0.018-0.038
		c2.773,1.751,6.022,2.252,9.104,1.309c3.114-0.963,6.022-3.425,7.559-6.985c1.562-3.519,1.444-7.331,0.021-10.274
		c-1.385-2.983-4.04-5.079-7.293-5.888l0,0l0,0l0,0c3.253,0.829,6.562,0.231,9.217-1.712c2.656-1.906,4.562-5.194,4.887-9.062
		c0.328-3.85-1.057-7.39-3.325-9.717c-2.29-2.349-5.484-3.481-8.834-3.195c0,0,0,0-0.018,0l0,0c0.018,0,0.018,0,0.018,0
		c3.35-0.248,6.292-1.902,8.198-4.578c1.865-2.674,2.614-6.428,1.672-10.178c-0.943-3.754-3.405-6.658-6.33-8.122
		c-2.926-1.481-6.292-1.499-9.369-0.151c0,0.017,0,0.017-0.021,0.017l0,0c0.021,0,0.021,0,0.021-0.017
		c3.077-1.348,5.328-3.852,6.233-7.004c0.884-3.139,0.403-6.928-1.713-10.143c-2.117-3.232-5.388-5.193-8.62-5.618
		c-3.253-0.46-6.443,0.618-8.909,2.907c-0.018,0-0.018,0-0.018,0l0,0c0,0,0,0,0.018,0c2.483-2.271,3.792-5.387,3.619-8.66
		c-0.155-3.25-1.848-6.658-4.887-9.041c-0.252-0.177-0.501-0.291-0.753-0.445c5.408-1.941,9.794-3.827,12.529-5.309
		c4.73-2.828,16.565-9.565,15.429-22.166c-0.151-1.503-0.345-3.022-0.942-4.369l-0.463-0.96c-0.27-0.521-0.324-0.56-0.501-0.866
		c-0.421-0.636-0.922-1.271-1.401-1.734c-4.023-4.078-11.006-3.232-13.202,2.331c-1.019,2.597-0.539,5.712,1.098,7.715
		c1.675,2.079,4.521,2.425,6.406,1.077l-0.228-0.424c-1.869,0.925-4.12,0.096-5.101-1.596c-1.04-1.734-1.002-4.041-0.114-5.64
		c0.404-0.808,1.077-1.499,1.73-1.886c0.79-0.459,1.615-0.673,2.462-0.729c1.695-0.079,3.329,0.767,4.368,2.097
		c0.27,0.366,0.442,0.652,0.615,1.001c0.097,0.211,0.328,0.652,0.29,0.674l0.193,0.632c0.231,0.866,0.286,1.713,0.248,2.562
		c-0.151,1.653-0.808,3.287-1.578,5.076c-1.536,3.522-6.637,6.005-10.698,6.679c-23.417,2.846-32.517-9.486-69.806-16.97
		c-26.881-5.408-50.046,4.983-65.672,17.622c-0.519-0.018-0.998-0.055-1.537-0.076v313.13c2.387,0.174,4.714,0.27,7.021,0.328
		c-0.441,1.752-0.711,3.676-0.711,5.732c0,7.525,3.253,13.414,7.391,13.414c2.269,0,4.233-1.771,5.56-4.562
		c1.057,6.119,3.674,10.256,6.927,10.256c3.232,0,5.851-4.137,6.89-10.256c1.347,2.791,3.325,4.562,5.577,4.562
		c4.158,0,7.411-5.889,7.411-13.414c0-3.674-0.791-6.943-2.079-9.352c43.927-10.945,70.192-45.348,78.332-92.452
		c13.737,5.732,26.301,8.83,37.731,10.005c6.561,3.193,14.296,6.582,21.414,8.581c1.502-2.866,2.887-6.022,4.137-9.234
		c44.41-7.176,64.999-44.255,64.999-44.255S1245.631,936.766,1226.254,932.284z M1040.807,1063.162
		c-0.038-0.117-0.075-0.211-0.093-0.328c0.055-0.018,0.135-0.018,0.211-0.018C1040.887,1062.93,1040.849,1063.045,1040.807,1063.162
		z"/>
</g>
</svg>
