<?xml version="1.0" encoding="utf-8"?>
<!-- Generator: Adobe Illustrator 16.0.0, SVG Export Plug-In . SVG Version: 6.00 Build 0)  -->
<!DOCTYPE svg PUBLIC "-//W3C//DTD SVG 1.1//EN" "http://www.w3.org/Graphics/SVG/1.1/DTD/svg11.dtd">
<svg version="1.1" id="Layer_1" xmlns="http://www.w3.org/2000/svg" xmlns:xlink="http://www.w3.org/1999/xlink" x="0px" y="0px"
   width="418.36322"
   height="361.00992"
   viewBox="0 0 418.36322 361.00992"
   xml:space="preserve">
<g transform="translate(-799.23045,-703.76607)">
	<g>
		<path fill="#FF6B80" d="M871.359,951.966c-33.48,46.872-38.021,69.805-38.021,69.805s-42.648-48.737-32.565-97.014
			c10.062-48.273,27.265-63.379,51.758-58.261C877.036,871.597,901.077,910.406,871.359,951.966z"/>
		<path fill="#FF6B80" d="M1127.999,861.724c26.764,10.584,45.986,15.585,58.521,17.953c12.555,2.366,0.192,28.229-27.669,44.486
			c-11.871,6.928-25.504,12.083-40.224,12.622c-49.267,1.902-68.075-11.141-69.027-36.156
			C1048.628,875.617,1080.482,842.927,1127.999,861.724z"/>
		<path fill="#82074A" d="M1088.092,875.637c-13.594-97.726-40.878-146.773-122.575-149.177l0,0l0,0l0,0l0,0
			c-81.698,2.403-108.992,51.451-122.567,149.177c-13.526,97.36,28.016,170.957,122.576,163.954
			C1060.058,1046.594,1101.619,972.998,1088.092,875.637z"/>
		<path fill="#EAE5D3" d="M971.567,936.516c-0.115-0.732-0.76-1.271-1.51-1.271c-0.684,0.076-1.377,0.521-1.502,1.271
			c-0.365,2.155-1.635,3.712-3.03,3.712c-1.395,0-2.675-1.557-3.04-3.712c-0.125-0.749-0.759-1.271-1.511-1.271l0,0
			c-0.75,0-1.385,0.538-1.5,1.271l-0.067,0.345c-0.086,0.426-0.153,0.829-0.153,1.271c0,4.368,2.809,7.908,6.271,7.908
			c3.454,0,6.273-3.54,6.273-7.908c0-0.48-0.087-0.904-0.164-1.25L971.567,936.516z"/>
		<path fill="#EAE5D3" d="M926.505,936.496c-0.125-0.729-0.771-1.288-1.511-1.25c-0.741,0-1.376,0.538-1.501,1.271
			c-0.355,2.155-1.635,3.712-3.021,3.712c-1.396,0-2.675-1.557-3.05-3.712c-0.125-0.749-0.674-1.194-1.52-1.271
			c-0.751,0-1.377,0.538-1.492,1.288l-0.067,0.366c-0.086,0.403-0.153,0.808-0.153,1.232c0,4.368,2.818,7.908,6.282,7.908
			s6.272-3.54,6.272-7.908c0-0.501-0.097-0.943-0.173-1.309L926.505,936.496z"/>
		<path fill="#EAE5D3" d="M1010.579,946.041c3.454,0,6.272-3.54,6.272-7.908c0-0.501-0.096-0.943-0.173-1.309l-0.067-0.328
			c-0.125-0.729-0.761-1.25-1.501-1.25c-0.722-0.059-1.386,0.538-1.51,1.271c-0.366,2.155-1.637,3.712-3.021,3.712
			s-2.674-1.557-3.04-3.712c-0.125-0.749-0.76-1.194-1.53-1.271c-0.74,0-1.375,0.538-1.491,1.288l-0.058,0.366
			c-0.086,0.403-0.153,0.808-0.153,1.232C1004.307,942.5,1007.116,946.041,1010.579,946.041z"/>
		<path fill="#EAE5D3" d="M971.558,989.103c-0.125-0.715-0.76-1.253-1.5-1.253c-0.848-0.018-1.386,0.538-1.511,1.271
			c-0.365,2.155-1.636,3.713-3.021,3.713c-1.395,0-2.675-1.558-3.04-3.713c-0.125-0.732-0.759-1.271-1.511-1.271l0,0
			c-0.75,0-1.385,0.538-1.5,1.271l-0.067,0.366c-0.086,0.404-0.153,0.829-0.153,1.271c0,4.348,2.809,7.888,6.271,7.888
			c3.454,0,6.273-3.54,6.273-7.888c0-0.521-0.097-0.942-0.174-1.309L971.558,989.103z"/>
		<path fill="#EAE5D3" d="M926.505,989.103c-0.125-0.715-0.76-1.253-1.501-1.253c-0.837-0.056-1.386,0.538-1.511,1.271
			c-0.355,2.155-1.635,3.713-3.021,3.713c-1.396,0-2.675-1.558-3.05-3.713c-0.125-0.732-0.674-1.191-1.52-1.271
			c-0.751,0.021-1.377,0.56-1.492,1.291l-0.067,0.366c-0.086,0.422-0.153,0.809-0.153,1.25c0,4.348,2.818,7.888,6.282,7.888
			c3.453,0,6.263-3.54,6.263-7.888c0-0.521-0.087-0.963-0.163-1.329L926.505,989.103z"/>
		<path fill="#EAE5D3" d="M1016.611,989.103c-0.125-0.715-0.761-1.253-1.501-1.253c-0.722-0.018-1.386,0.538-1.51,1.271
			c-0.366,2.155-1.637,3.713-3.021,3.713s-2.674-1.558-3.04-3.713c-0.125-0.732-0.76-1.191-1.53-1.271
			c-0.74,0.021-1.375,0.56-1.491,1.291l-0.058,0.366c-0.086,0.422-0.153,0.809-0.153,1.25c0,4.348,2.81,7.888,6.272,7.888
			c3.454,0,6.272-3.54,6.272-7.888c0-0.521-0.096-0.963-0.173-1.329L1016.611,989.103z"/>
		<path fill="#EAE5D3" d="M989.529,910.04c-0.125-0.732-0.702-1.309-1.52-1.25c-0.741,0-1.377,0.538-1.492,1.271
			c-0.355,2.155-1.635,3.713-3.021,3.713c-1.405,0-2.675-1.558-3.05-3.713c-0.125-0.753-0.847-1.174-1.521-1.271
			c-0.75,0-1.385,0.556-1.5,1.288l-0.067,0.365c-0.077,0.404-0.154,0.809-0.154,1.251c0,4.348,2.819,7.891,6.292,7.891
			c3.454,0,6.263-3.543,6.263-7.891c0-0.519-0.086-0.96-0.163-1.31L989.529,910.04z"/>
		<path fill="#EAE5D3" d="M953.605,910.06c-0.125-0.732-0.76-1.271-1.51-1.271l0,0c-0.75,0-1.386,0.538-1.511,1.271
			c-0.365,2.155-1.626,3.713-3.021,3.713c-1.396,0-2.685-1.558-3.05-3.713c-0.125-0.753-0.761-1.271-1.501-1.271l0,0
			c-0.751,0-1.385,0.538-1.511,1.271l-0.066,0.346c-0.077,0.421-0.155,0.825-0.155,1.288c0,4.348,2.819,7.891,6.283,7.891
			c3.454,0,6.263-3.543,6.263-7.891c0-0.501-0.077-0.923-0.154-1.288L953.605,910.06z"/>
		<path fill="#EAE5D3" d="M989.529,962.32c-0.125-0.715-0.77-1.254-1.511-1.254c0,0,0,0-0.009,0c-0.741,0-1.377,0.539-1.492,1.291
			c-0.355,2.135-1.635,3.695-3.021,3.695c-1.405,0-2.675-1.561-3.05-3.716c-0.125-0.731-0.847-1.326-1.521-1.271
			c-0.75,0-1.385,0.56-1.5,1.309l-0.067,0.349c-0.077,0.422-0.154,0.809-0.154,1.251c0,4.348,2.819,7.887,6.292,7.887
			c3.454,0,6.263-3.539,6.263-7.887c0-0.521-0.086-0.964-0.163-1.31L989.529,962.32z"/>
		<path fill="#EAE5D3" d="M917.894,963.974c0-0.521-0.086-0.943-0.163-1.33l-0.067-0.324c-0.125-0.715-0.77-1.254-1.5-1.254
			c-0.713-0.114-1.386,0.539-1.511,1.291c-0.356,2.135-1.636,3.695-3.021,3.695c-1.395,0-2.684-1.561-3.05-3.716
			c-0.124-0.731-0.808-1.326-1.52-1.271c-0.75,0-1.386,0.56-1.491,1.309l-0.077,0.349c-0.077,0.422-0.145,0.809-0.145,1.251
			c0,4.348,2.819,7.887,6.282,7.887C915.085,971.861,917.894,968.322,917.894,963.974z"/>
		<path fill="#EAE5D3" d="M953.605,962.357c-0.125-0.752-0.76-1.291-1.51-1.291l0,0c-0.75,0-1.386,0.539-1.511,1.291
			c-0.365,2.135-1.626,3.695-3.021,3.695c-1.396,0-2.685-1.561-3.05-3.716c-0.125-0.731-0.761-1.271-1.501-1.271l0,0
			c-0.751,0-1.385,0.539-1.511,1.291l-0.066,0.346c-0.077,0.404-0.155,0.829-0.155,1.271c0,4.348,2.819,7.887,6.283,7.887
			c3.454,0,6.263-3.539,6.263-7.887c0-0.501-0.077-0.926-0.154-1.271L953.605,962.357z"/>
		<path fill="#EAE5D3" d="M1025.53,962.665l-0.067-0.345c-0.135-0.715-0.771-1.254-1.511-1.254c0,0,0,0-0.01,0
			c-0.731,0-1.366,0.539-1.491,1.291c-0.366,2.135-1.636,3.695-3.021,3.695c-1.396,0-2.675-1.561-3.051-3.716
			c-0.125-0.731-0.75-1.271-1.5-1.271l0,0c-0.751,0-1.396,0.539-1.511,1.291l-0.067,0.346c-0.077,0.404-0.154,0.829-0.154,1.271
			c0,4.348,2.819,7.887,6.283,7.887c3.453,0,6.263-3.539,6.263-7.887C1025.693,963.453,1025.606,963.01,1025.53,962.665z"/>
		<path fill="#FF6B80" d="M979.226,1059.081c-4.146,0-7.398-5.905-7.398-13.409c0-7.524,3.252-13.413,7.398-13.413
			s7.389,5.889,7.389,13.413C986.614,1053.176,983.372,1059.081,979.226,1059.081z"/>
		<path fill="#FF6B80" d="M1004.162,1059.081c-4.146,0-7.408-5.905-7.408-13.409c0-7.524,3.262-13.413,7.408-13.413
			c4.156,0,7.407,5.889,7.407,13.413C1011.569,1053.176,1008.318,1059.081,1004.162,1059.081z"/>
		<path fill="#FF6B80" d="M991.703,1064.776c-4.214,0-7.408-6.983-7.408-16.259c0-9.255,3.194-16.259,7.408-16.259
			c4.205,0,7.379,7.004,7.379,16.259C999.082,1057.793,995.908,1064.776,991.703,1064.776z"/>
		<path fill="#FF6B80" d="M926.86,1059.081c-4.146,0-7.397-5.905-7.397-13.409c0-7.524,3.251-13.413,7.397-13.413
			s7.398,5.889,7.398,13.413C934.259,1053.176,931.007,1059.081,926.86,1059.081z"/>
		<path fill="#FF6B80" d="M951.807,1059.081c-4.156,0-7.407-5.905-7.407-13.409c0-7.524,3.251-13.413,7.407-13.413
			c4.137,0,7.389,5.889,7.389,13.413C959.195,1053.176,955.943,1059.081,951.807,1059.081z"/>
		<path fill="#FF6B80" d="M939.319,1064.776c-4.214,0-7.389-6.983-7.389-16.259c0-9.255,3.175-16.259,7.389-16.259
			c4.224,0,7.418,7.004,7.418,16.259C946.737,1057.793,943.543,1064.776,939.319,1064.776z"/>
		<path fill="#82074A" d="M891.707,880.908c-39.801,0-72.164-32.383-72.164-72.192c0-39.789,32.363-72.175,72.164-72.175
			c39.79,0,72.174,32.386,72.174,72.175C963.881,848.525,931.497,880.908,891.707,880.908z"/>
		<g>
			<g>
				<path fill="#82074A" d="M868.28,876.984c1.107-3.177,3.3-5.618,5.734-7.217c2.453-1.578,5.128-2.308,7.812-1.865
					c5.205,0.904,9.698,6.233,9.881,13.006c0.01,3.35-1.376,6.426-3.906,8.505c-2.501,2.097-6.157,3.174-9.977,2.521
					c-3.81-0.614-6.927-2.807-8.62-5.598C867.482,883.525,867.175,880.158,868.28,876.984z"/>
			</g>
			<g>
				<path fill="#82074A" d="M847.404,865.65c4.301-5.193,11.121-6.658,15.777-4.175c2.405,1.309,4.061,3.54,5.022,6.292
					c0.933,2.752,1.154,6.04,0.076,9.217c-1.087,3.194-3.396,5.636-6.475,6.793c-3.059,1.153-6.859,0.96-10.265-0.867
					c-3.387-1.848-5.619-4.945-6.312-8.118C844.527,871.576,845.326,868.285,847.404,865.65z"/>
			</g>
			<g>
				<path fill="#82074A" d="M831.309,848.18c5.734-3.522,12.681-2.731,16.298,1.136c3.55,3.923,3.8,10.909-0.202,16.334
					c-2.059,2.656-5.042,4.234-8.332,4.331c-3.261,0.114-6.792-1.31-9.408-4.138c-2.617-2.828-3.715-6.484-3.339-9.717
					C826.681,852.856,828.489,850.006,831.309,848.18z"/>
			</g>
			<g>
				<path fill="#82074A" d="M821.735,826.438c3.271-0.829,6.523-0.328,9.188,0.846c2.665,1.175,4.743,3.021,5.85,5.501
					c2.106,4.849,0.067,11.545-5.465,15.396c-2.81,1.847-6.138,2.386-9.274,1.405c-3.117-0.964-6.022-3.426-7.571-6.965
					c-1.567-3.544-1.433-7.353-0.028-10.295C815.838,829.342,818.475,827.246,821.735,826.438z"/>
			</g>
			<g>
				<path fill="#82074A" d="M819.783,802.769c6.705,0.731,11.689,5.639,12.151,10.912c0.23,2.711-0.741,5.328-2.521,7.639
					c-1.779,2.289-4.406,4.269-7.678,5.118c-3.251,0.825-6.57,0.248-9.216-1.696c-2.655-1.923-4.569-5.214-4.887-9.061
					c-0.318-3.848,1.049-7.391,3.338-9.719C813.261,803.597,816.435,802.482,819.783,802.769z"/>
			</g>
			<g>
				<path fill="#82074A" d="M825.613,779.738c3.088,1.368,5.34,3.751,6.725,6.31c1.386,2.58,1.886,5.312,1.222,7.95
					c-0.663,2.655-2.424,4.789-4.858,6.405c-2.424,1.596-5.551,2.618-8.918,2.366c-3.349-0.27-6.292-1.903-8.178-4.597
					c-1.876-2.677-2.626-6.409-1.674-10.16c0.933-3.753,3.387-6.679,6.312-8.118C819.177,778.409,822.545,778.371,825.613,779.738z"
					/>
			</g>
			<g>
				<path fill="#82074A" d="M838.64,759.861c4.83,4.714,5.724,11.642,2.867,16.086c-2.925,4.406-9.64,6.33-15.894,3.791
					c-3.079-1.346-5.33-3.847-6.215-7.023c-0.904-3.136-0.414-6.906,1.722-10.139c2.107-3.232,5.358-5.194,8.602-5.619
					C832.973,756.515,836.167,757.572,838.64,759.861z"/>
			</g>
			<g>
				<path fill="#82074A" d="M857.371,745.257c1.606,2.963,1.924,6.236,1.443,9.103c-0.491,2.866-1.761,5.366-3.916,7.041
					c-4.194,3.232-11.169,2.888-16.259-1.54c-2.481-2.269-3.8-5.366-3.627-8.657c0.163-3.253,1.847-6.658,4.897-9.023
					c3.039-2.387,6.743-3.194,9.956-2.56C853.09,740.256,855.773,742.294,857.371,745.257z"/>
			</g>
			<g>
				<path fill="#82074A" d="M879.825,737.521c0.549,3.329-0.221,6.523-1.597,9.082c-1.404,2.56-3.405,4.486-5.984,5.371
					c-2.568,0.904-5.339,0.614-8.023-0.539c-2.655-1.174-5.233-3.232-6.85-6.178c-1.616-2.963-1.867-6.31-0.635-9.369
					c1.202-3.039,3.915-5.695,7.571-6.966c3.665-1.271,7.446-0.808,10.265,0.825C877.42,731.406,879.296,734.196,879.825,737.521z"
					/>
			</g>
			<g>
				<path fill="#82074A" d="M903.589,737.521c-0.559,3.329-2.329,6.103-4.465,8.084c-2.155,1.962-4.686,3.137-7.417,3.137
					c-2.732,0-5.263-1.175-7.418-3.137c-2.126-1.981-3.896-4.755-4.464-8.084c-0.558-3.308,0.309-6.578,2.463-9.041
					c2.136-2.482,5.57-4.119,9.429-4.119c3.848,0,7.282,1.637,9.408,4.119C903.29,730.943,904.155,734.213,903.589,737.521z"/>
			</g>
			<g>
				<path fill="#82074A" d="M926.053,745.257c-1.626,2.963-4.194,5.004-6.851,6.178c-2.684,1.153-5.454,1.443-8.033,0.539
					c-2.568-0.885-4.579-2.791-5.974-5.371c-1.376-2.559-2.146-5.753-1.606-9.082c0.548-3.308,2.414-6.115,5.262-7.752
					c2.819-1.654,6.6-2.097,10.256-0.847c3.665,1.271,6.369,3.927,7.581,6.983C927.919,738.948,927.669,742.314,926.053,745.257z"/>
			</g>
			<g>
				<path fill="#82074A" d="M944.784,759.861c-5.08,4.428-12.074,4.772-16.26,1.54c-2.164-1.675-3.425-4.175-3.925-7.041
					c-0.472-2.866-0.154-6.14,1.453-9.103c1.587-2.963,4.281-5.001,7.504-5.619c3.213-0.652,6.917,0.173,9.957,2.542
					c3.05,2.365,4.733,5.771,4.897,9.044C948.584,754.495,947.267,757.592,944.784,759.861z"/>
			</g>
			<g>
				<path fill="#82074A" d="M957.801,779.738c-6.244,2.539-12.959,0.615-15.884-3.791c-2.867-4.444-1.963-11.372,2.867-16.086
					c2.473-2.289,5.666-3.346,8.918-2.904c3.232,0.425,6.494,2.387,8.61,5.619c2.126,3.232,2.616,7.003,1.713,10.159
					C963.141,775.891,960.879,778.392,957.801,779.738z"/>
			</g>
			<g>
				<path fill="#82074A" d="M963.64,802.769c-3.366,0.269-6.484-0.771-8.918-2.366c-2.434-1.616-4.194-3.75-4.858-6.405
					c-0.663-2.639-0.163-5.37,1.223-7.95c1.375-2.538,3.636-4.941,6.715-6.31c3.078-1.367,6.445-1.329,9.38,0.156
					c2.925,1.439,5.378,4.365,6.32,8.118c0.942,3.751,0.192,7.483-1.684,10.16C969.932,800.866,966.988,802.5,963.64,802.769z"/>
			</g>
			<g>
				<path fill="#82074A" d="M961.678,826.438c-3.262-0.829-5.888-2.829-7.668-5.118c-1.779-2.311-2.752-4.928-2.521-7.639
					c0.462-5.273,5.436-10.181,12.15-10.912c3.349-0.287,6.522,0.85,8.813,3.193c2.28,2.328,3.655,5.871,3.328,9.719
					c-0.317,3.847-2.231,7.138-4.878,9.061C968.249,826.686,964.938,827.284,961.678,826.438z"/>
			</g>
			<g>
				<path fill="#82074A" d="M952.114,848.18c-5.531-3.851-7.571-10.547-5.474-15.374c1.106-2.501,3.185-4.348,5.859-5.522
					c2.654-1.153,5.906-1.654,9.178-0.846c3.261,0.808,5.907,2.925,7.302,5.888c1.414,2.942,1.549,6.751-0.029,10.295
					c-1.539,3.557-4.444,6.019-7.562,6.965C958.253,850.566,954.924,850.027,952.114,848.18z"/>
			</g>
			<g>
				<path fill="#82074A" d="M936.01,865.65c-3.993-5.425-3.752-12.411-0.192-16.334c3.608-3.867,10.554-4.658,16.297-1.136
					c2.819,1.847,4.628,4.676,4.983,7.946c0.366,3.232-0.73,6.889-3.348,9.717c-2.617,2.846-6.138,4.252-9.409,4.138
					C941.061,869.884,938.068,868.324,936.01,865.65z"/>
			</g>
			<g>
				<path fill="#82074A" d="M915.133,876.984c-1.077-3.177-0.846-6.465,0.077-9.217c0.962-2.752,2.616-4.983,5.021-6.292
					c4.657-2.5,11.487-1.019,15.778,4.175c2.078,2.656,2.877,5.926,2.165,9.142c-0.684,3.173-2.915,6.271-6.302,8.118
					c-3.406,1.827-7.206,2.021-10.266,0.867C918.539,882.62,916.22,880.178,915.133,876.984z"/>
			</g>
			<g>
				<path fill="#82074A" d="M891.707,880.908c0.192-6.772,4.675-12.102,9.88-13.006c2.694-0.442,5.368,0.287,7.812,1.865
					c2.434,1.599,4.637,4.04,5.733,7.217c1.106,3.174,0.799,6.541-0.913,9.352c-1.704,2.791-4.82,4.983-8.63,5.598
					c-3.819,0.653-7.476-0.424-9.977-2.521C893.082,887.333,891.697,884.257,891.707,880.908z"/>
			</g>
		</g>
		<path fill="#82074A" d="M1040.336,880.908c39.79,0,72.163-32.383,72.163-72.192c0-39.789-32.373-72.175-72.163-72.175
			c-39.791,0-72.174,32.386-72.174,72.175C968.162,848.525,1000.545,880.908,1040.336,880.908z"/>
		<g>
			<g>
				<path fill="#82074A" d="M1063.762,877.001c1.116,3.156,0.799,6.523-0.924,9.334c-1.693,2.77-4.81,4.983-8.629,5.598
					c-3.819,0.653-7.466-0.424-9.967-2.521c-2.531-2.079-3.917-5.155-3.906-8.505c0.01-3.385,1.299-6.428,3.079-8.696
					c1.808-2.31,4.107-3.867,6.801-4.33c2.685-0.442,5.368,0.308,7.812,1.886C1060.452,871.366,1062.665,873.807,1063.762,877.001z"
					/>
			</g>
			<g>
				<path fill="#82074A" d="M1084.639,865.65c2.088,2.635,2.877,5.926,2.164,9.142c-0.683,3.173-2.915,6.25-6.311,8.118
					c-3.396,1.827-7.196,2.021-10.246,0.867c-3.078-1.157-5.397-3.619-6.484-6.775c-1.087-3.212-0.856-6.482,0.086-9.234
					c0.953-2.752,2.607-5.004,5.013-6.292c2.396-1.309,5.166-1.481,8.005-0.791C1079.685,861.399,1082.561,862.995,1084.639,865.65z
					"/>
			</g>
			<g>
				<path fill="#82074A" d="M1100.734,848.18c2.828,1.826,4.637,4.676,4.992,7.946c0.366,3.232-0.731,6.868-3.348,9.717
					c-2.617,2.828-6.147,4.252-9.409,4.138c-3.28-0.097-6.263-1.675-8.331-4.331c-2.059-2.655-2.906-5.829-2.915-8.754
					c0.009-2.908,0.865-5.56,2.723-7.58c1.857-2.003,4.416-3.08,7.33-3.329C1094.673,845.755,1097.915,846.349,1100.734,848.18z"/>
			</g>
			<g>
				<path fill="#82074A" d="M1110.297,826.438c3.261,0.808,5.907,2.904,7.302,5.888c1.415,2.942,1.549,6.751-0.01,10.273
					c-1.559,3.561-4.464,6.022-7.581,6.986c-3.126,0.96-6.465,0.441-9.273-1.405c-2.81-1.868-4.638-4.601-5.58-7.353
					c-0.934-2.749-0.981-5.539,0.114-8.043c1.098-2.479,3.186-4.326,5.851-5.521C1103.783,826.13,1107.035,825.609,1110.297,826.438
					z"/>
			</g>
			<g>
				<path fill="#82074A" d="M1112.26,802.751c3.348-0.29,6.531,0.846,8.812,3.194c2.28,2.327,3.656,5.888,3.339,9.735
					c-0.318,3.847-2.231,7.138-4.878,9.044c-2.655,1.961-5.975,2.538-9.235,1.713c-3.252-0.85-5.888-2.829-7.668-5.118
					c-1.779-2.311-2.751-4.928-2.521-7.639c0.231-2.715,1.587-5.159,3.742-7.142C1105.986,804.578,1108.902,803.038,1112.26,802.751
					z"/>
			</g>
			<g>
				<path fill="#82074A" d="M1106.42,779.738c3.078-1.367,6.455-1.329,9.38,0.156c2.924,1.439,5.378,4.365,6.32,8.118
					c0.943,3.751,0.202,7.483-1.684,10.16c-1.885,2.693-4.829,4.327-8.177,4.579c-3.357,0.27-6.494-0.771-8.919-2.349
					c-2.435-1.616-4.194-3.771-4.858-6.405c-0.674-2.639-0.153-5.37,1.222-7.95C1101.09,783.489,1103.351,781.106,1106.42,779.738z"
					/>
			</g>
			<g>
				<path fill="#82074A" d="M1093.402,759.861c2.473-2.289,5.667-3.346,8.919-2.904c3.242,0.425,6.493,2.387,8.61,5.619
					c2.126,3.211,2.617,7.003,1.713,10.139c-0.886,3.156-3.146,5.678-6.225,7.023c-3.088,1.348-6.369,1.385-9.188,0.674
					c-2.839-0.711-5.187-2.193-6.687-4.465c-1.502-2.29-1.915-5.042-1.453-7.926C1089.573,765.155,1090.931,762.15,1093.402,759.861
					z"/>
			</g>
			<g>
				<path fill="#82074A" d="M1074.672,745.257c1.597-2.963,4.281-5.001,7.504-5.637c3.213-0.635,6.917,0.173,9.958,2.56
					c3.049,2.365,4.732,5.771,4.896,9.023c0.173,3.291-1.145,6.389-3.628,8.657c-2.482,2.272-5.579,3.388-8.476,3.619
					c-2.925,0.231-5.637-0.404-7.782-2.079c-2.155-1.675-3.425-4.175-3.926-7.041
					C1072.757,751.494,1073.065,748.22,1074.672,745.257z"/>
			</g>
			<g>
				<path fill="#82074A" d="M1052.208,737.521c0.538-3.325,2.414-6.115,5.252-7.773c2.828-1.633,6.61-2.096,10.266-0.825
					c3.656,1.25,6.368,3.927,7.581,6.966c1.222,3.06,0.981,6.406-0.635,9.369c-1.626,2.945-4.195,5.004-6.85,6.156
					c-2.685,1.157-5.456,1.444-8.033,0.561c-2.569-0.885-4.579-2.812-5.975-5.371
					C1052.438,744.044,1051.669,740.85,1052.208,737.521z"/>
			</g>
			<g>
				<path fill="#82074A" d="M1028.444,737.521c-0.558-3.308,0.309-6.578,2.463-9.041c2.136-2.482,5.57-4.119,9.418-4.119
					c3.858,0,7.293,1.637,9.419,4.119c2.165,2.463,3.031,5.733,2.464,9.041c-0.559,3.329-2.329,6.103-4.465,8.084
					c-2.146,1.962-4.676,3.137-7.407,3.137c-2.742,0-5.263-1.175-7.427-3.137C1030.782,743.624,1029.013,740.85,1028.444,737.521z"
					/>
			</g>
			<g>
				<path fill="#82074A" d="M1005.99,745.257c-1.616-2.943-1.867-6.31-0.635-9.369c1.212-3.039,3.925-5.695,7.571-6.966
					c3.665-1.271,7.446-0.808,10.266,0.847c2.847,1.637,4.713,4.444,5.252,7.752c0.548,3.329-0.221,6.523-1.597,9.082
					c-1.396,2.58-3.406,4.486-5.984,5.371c-2.568,0.884-5.349,0.597-8.023-0.561C1010.185,750.261,1007.606,748.203,1005.99,745.257
					z"/>
			</g>
			<g>
				<path fill="#82074A" d="M987.259,759.861c-2.482-2.269-3.8-5.366-3.627-8.637c0.164-3.273,1.847-6.679,4.896-9.044
					c3.041-2.369,6.744-3.194,9.948-2.56c3.232,0.636,5.926,2.674,7.514,5.637c1.597,2.963,1.924,6.236,1.453,9.103
					c-0.501,2.866-1.762,5.366-3.926,7.041c-2.155,1.675-4.867,2.311-7.773,2.097C992.839,763.249,989.741,762.133,987.259,759.861z
					"/>
			</g>
			<g>
				<path fill="#82074A" d="M974.242,779.738c-3.079-1.346-5.339-3.847-6.225-7.023c-0.895-3.115-0.414-6.906,1.703-10.139
					c2.126-3.232,5.387-5.194,8.619-5.619c3.243-0.441,6.446,0.615,8.919,2.904c2.472,2.311,3.829,5.294,4.311,8.16
					c0.462,2.884,0.048,5.636-1.444,7.926c-1.51,2.271-3.857,3.771-6.686,4.485C980.62,781.123,977.33,781.085,974.242,779.738z"/>
			</g>
			<g>
				<path fill="#82074A" d="M979.938,848.18c-2.819,1.864-6.147,2.386-9.274,1.405c-3.127-0.946-6.032-3.426-7.571-6.965
					c-1.568-3.544-1.443-7.353-0.029-10.295c1.404-2.963,4.041-5.08,7.302-5.888c3.262-0.809,6.523-0.308,9.179,0.846
					c2.665,1.191,4.752,3.021,5.859,5.501c1.087,2.504,1.048,5.294,0.115,8.063C984.574,843.58,982.737,846.333,979.938,848.18z"/>
			</g>
			<g>
				<path fill="#82074A" d="M996.022,865.65c-2.058,2.656-5.041,4.234-8.321,4.331c-3.262,0.114-6.792-1.292-9.399-4.138
					c-2.626-2.828-3.724-6.484-3.357-9.717c0.355-3.271,2.174-6.12,4.993-7.946c2.818-1.831,6.052-2.425,8.957-2.193
					c2.905,0.249,5.475,1.326,7.33,3.329c1.857,2.021,2.704,4.672,2.724,7.58C998.938,859.821,998.092,862.995,996.022,865.65z"/>
			</g>
			<g>
				<path fill="#82074A" d="M1016.9,877.001c-1.078,3.177-3.396,5.618-6.476,6.775c-3.049,1.153-6.859,0.96-10.246-0.867
					c-3.396-1.848-5.618-4.945-6.311-8.118c-0.712-3.216,0.076-6.507,2.154-9.142c2.088-2.655,4.965-4.251,7.783-4.966
					c2.829-0.69,5.609-0.518,8.005,0.791c2.396,1.288,4.06,3.54,5.013,6.292C1017.757,870.519,1017.987,873.79,1016.9,877.001z"/>
			</g>
			<g>
				<path fill="#82074A" d="M1040.336,880.908c0.01,3.35-1.376,6.426-3.906,8.505c-2.501,2.097-6.157,3.174-9.977,2.521
					c-3.819-0.614-6.927-2.828-8.62-5.598c-1.722-2.811-2.04-6.178-0.933-9.334c1.115-3.194,3.309-5.636,5.733-7.234
					c2.453-1.578,5.138-2.328,7.831-1.886c2.675,0.463,4.983,2.021,6.793,4.33C1039.046,874.48,1040.325,877.523,1040.336,880.908z"
					/>
			</g>
		</g>
		<path fill="#82074A" d="M898.325,708.911c-37.289,7.504-46.399,19.839-69.815,16.973c-4.061-0.673-9.149-3.156-10.68-6.679
			c-0.778-1.789-1.442-3.426-1.598-5.08c-0.037-0.846,0.03-1.691,0.241-2.559l0.192-0.635c-0.029-0.018,0.212-0.46,0.298-0.674
			c0.174-0.346,0.347-0.615,0.626-0.998c1.029-1.33,2.685-2.158,4.358-2.079c0.855,0.038,1.674,0.27,2.462,0.712
			c0.674,0.383,1.328,1.077,1.732,1.885c0.895,1.596,0.924,3.906-0.105,5.637c-1.001,1.695-3.243,2.521-5.119,1.599l-0.202,0.425
			c1.876,1.363,4.715,0.998,6.389-1.081c1.636-1.999,2.106-5.097,1.106-7.715c-2.203-5.56-9.188-6.406-13.199-2.327
			c-0.481,0.479-0.991,1.098-1.396,1.75c-0.173,0.308-0.26,0.346-0.519,0.867l-0.462,0.96c-0.597,1.329-0.799,2.849-0.934,4.368
			c-1.136,12.584,10.697,19.318,15.44,22.146c10.91,5.926,48.373,18.203,70.202,15.315c47.266-6.233,86.316,10.412,87.596,4.735
			C987.364,745.644,949.537,698.617,898.325,708.911z"/>
		<path fill="#82074A" d="M1032.716,708.911c37.289,7.504,46.4,19.839,69.817,16.973c4.06-0.673,9.148-3.156,10.688-6.679
			c0.78-1.789,1.444-3.426,1.588-5.08c0.038-0.846-0.029-1.691-0.24-2.559l-0.202-0.635c0.038-0.018-0.202-0.46-0.289-0.674
			c-0.173-0.346-0.346-0.615-0.615-0.998c-1.03-1.33-2.684-2.158-4.367-2.079c-0.856,0.038-1.665,0.27-2.464,0.712
			c-0.663,0.383-1.327,1.077-1.731,1.885c-0.885,1.596-0.924,3.906,0.106,5.637c1,1.695,3.251,2.521,5.117,1.599l0.212,0.425
			c-1.876,1.363-4.724,0.998-6.397-1.081c-1.636-1.999-2.107-5.097-1.097-7.715c2.203-5.56,9.178-6.406,13.189-2.327
			c0.481,0.479,0.991,1.098,1.405,1.75c0.173,0.308,0.25,0.346,0.51,0.867l0.462,0.96c0.596,1.329,0.799,2.849,0.934,4.368
			c1.134,12.584-10.699,19.318-15.433,22.146c-10.91,5.926-48.382,18.203-70.221,15.315c-47.256-6.233-86.307,10.412-87.576,4.735
			C943.678,745.644,981.506,698.617,1032.716,708.911z"/>
		<path fill="#FF6B80" d="M1109.056,812.659c-2.097-2.576-5.147-3.964-8.505-3.943l0,0l0,0l0,0c3.357,0.021,6.408-1.368,8.505-3.944
			c2.039-2.559,3.078-6.312,2.289-10.18c-0.789-3.868-3.106-6.966-6.022-8.523c-2.886-1.595-6.271-1.691-9.36-0.383l0,0
			c3.127-1.292,5.388-3.733,6.34-6.928c0.896-3.136,0.413-7.003-1.789-10.277c-2.203-3.249-5.551-5.214-8.822-5.539
			c-3.29-0.349-6.437,0.826-8.803,3.212l0,0l0,0l0,0c2.386-2.365,3.569-5.501,3.214-8.812c-0.338-3.25-2.281-6.6-5.542-8.792
			c-3.271-2.214-7.13-2.694-10.275-1.811c-3.193,0.964-5.628,3.216-6.917,6.352l0,0c1.299-3.077,1.202-6.486-0.395-9.369
			c-1.559-2.908-4.665-5.235-8.523-6.022c-3.878-0.791-7.63,0.248-10.179,2.307c-2.568,2.1-3.964,5.139-3.945,8.484l0,0l0,0l0,0
			c0.021-3.346-1.365-6.385-3.943-8.484c-2.55-2.059-6.302-3.098-10.179-2.307c-3.858,0.787-6.965,3.114-8.524,6.022
			c-1.597,2.883-1.684,6.271-0.384,9.369l0,0c-1.29-3.136-3.733-5.388-6.938-6.33c-3.126-0.905-6.993-0.425-10.255,1.789
			c-3.262,2.192-5.215,5.542-5.552,8.812c-0.355,3.291,0.838,6.447,3.214,8.792l0,0c-2.357-2.386-5.503-3.561-8.803-3.212
			c-3.262,0.346-6.61,2.29-8.813,5.539c-2.202,3.274-2.693,7.142-1.788,10.277c0.942,3.194,3.213,5.636,6.339,6.928l0,0
			c-3.088-1.292-6.483-1.212-9.369,0.404c-2.916,1.557-5.225,4.654-6.023,8.522c-0.779,3.868,0.26,7.618,2.3,10.159
			c2.097,2.576,5.138,3.965,8.504,3.944c-3.366,0-6.407,1.385-8.504,3.964c-2.04,2.539-3.079,6.293-2.3,10.16
			c0.799,3.867,3.107,6.965,6.023,8.522c2.896,1.616,6.281,1.692,9.369,0.404l0,0c-3.126,1.288-5.387,3.733-6.339,6.928
			c-0.896,3.118-0.404,6.982,1.788,10.256c2.203,3.271,5.552,5.215,8.813,5.56c3.3,0.346,6.445-0.846,8.803-3.231l0,0
			c-2.376,2.365-3.56,5.521-3.204,8.812c0.337,3.271,2.29,6.616,5.551,8.813c3.262,2.192,7.13,2.693,10.256,1.788
			c3.194-0.942,5.647-3.215,6.928-6.329l0,0c-1.3,3.076-1.203,6.464,0.395,9.352c1.558,2.921,4.665,5.231,8.523,6.039
			c3.877,0.771,7.619-0.27,10.169-2.311c2.578-2.096,3.964-5.155,3.954-8.502c-0.02,3.347,1.366,6.406,3.943,8.502
			c2.55,2.041,6.312,3.081,10.179,2.311c3.868-0.808,6.956-3.118,8.525-6.039c1.596-2.888,1.692-6.275,0.394-9.352l0,0
			c1.279,3.114,3.724,5.387,6.918,6.329c3.135,0.905,7.003,0.404,10.265-1.788c3.271-2.214,5.215-5.543,5.551-8.813
			c0.356-3.312-0.837-6.447-3.213-8.812l0,0l0,0l0,0c2.366,2.386,5.503,3.577,8.803,3.211c3.271-0.324,6.609-2.289,8.812-5.539
			c2.213-3.273,2.685-7.138,1.789-10.276c-0.952-3.195-3.204-5.637-6.34-6.907l0,0l0,0l0,0c3.089,1.288,6.475,1.191,9.37-0.404
			c2.906-1.558,5.234-4.655,6.013-8.522C1112.144,818.972,1111.095,815.218,1109.056,812.659z"/>
		<path fill="#FF6B80" d="M951.932,808.715c3.357,0.021,6.407-1.368,8.505-3.944c2.04-2.559,3.078-6.291,2.289-10.159
			c-0.788-3.868-3.098-6.986-6.021-8.544c-2.887-1.595-6.282-1.675-9.361-0.383l0,0c3.127-1.292,5.388-3.733,6.34-6.928
			c0.904-3.136,0.414-7.003-1.789-10.277c-2.203-3.249-5.551-5.193-8.822-5.539c-3.29-0.349-6.437,0.826-8.793,3.212l0,0
			c2.376-2.345,3.56-5.501,3.213-8.792c-0.346-3.271-2.289-6.62-5.551-8.812c-3.271-2.214-7.129-2.694-10.266-1.789
			c-3.194,0.942-5.637,3.194-6.927,6.33l0,0c1.299-3.077,1.213-6.486-0.394-9.369c-1.55-2.908-4.657-5.235-8.524-6.022
			c-3.867-0.791-7.619,0.248-10.169,2.307c-2.579,2.1-3.964,5.139-3.944,8.484l0,0l0,0l0,0c0.01-3.346-1.376-6.385-3.954-8.484
			c-2.55-2.059-6.302-3.098-10.169-2.307c-3.868,0.787-6.966,3.114-8.524,6.022c-1.606,2.883-1.692,6.292-0.395,9.369l0,0l0,0l0,0
			c-1.288-3.136-3.724-5.388-6.926-6.352c-3.137-0.884-7.005-0.403-10.267,1.811c-3.27,2.192-5.213,5.542-5.55,8.792
			c-0.356,3.312,0.836,6.447,3.213,8.812l0,0l0,0l0,0c-2.357-2.386-5.504-3.561-8.794-3.212c-3.271,0.346-6.618,2.29-8.821,5.539
			c-2.203,3.274-2.694,7.142-1.79,10.277c0.952,3.194,3.214,5.636,6.341,6.928l0,0c-3.089-1.309-6.476-1.212-9.371,0.383
			c-2.915,1.558-5.224,4.655-6.022,8.523c-0.779,3.889,0.26,7.621,2.299,10.18c2.098,2.576,5.138,3.965,8.505,3.944l0,0l0,0l0,0
			c-3.367-0.021-6.407,1.367-8.505,3.943c-2.039,2.56-3.078,6.313-2.299,10.181c0.799,3.867,3.107,6.965,6.014,8.522
			c2.896,1.596,6.291,1.692,9.369,0.404h0.011l0,0h-0.011c-3.126,1.271-5.387,3.712-6.33,6.907
			c-0.904,3.139-0.423,7.003,1.79,10.276c2.203,3.271,5.541,5.215,8.812,5.539c3.29,0.366,6.436-0.825,8.803-3.211l0,0l0,0l0,0
			c-2.386,2.365-3.569,5.501-3.213,8.812c0.337,3.271,2.28,6.616,5.55,8.813c3.262,2.192,7.13,2.693,10.267,1.788
			c3.193-0.942,5.638-3.215,6.917-6.329l0,0c-1.3,3.076-1.203,6.464,0.395,9.352c1.558,2.921,4.665,5.231,8.523,6.039
			c3.877,0.771,7.629-0.27,10.179-2.311c2.568-2.096,3.964-5.155,3.944-8.502c-0.02,3.347,1.375,6.406,3.954,8.502
			c2.54,2.041,6.302,3.081,10.169,2.311c3.867-0.808,6.965-3.118,8.524-6.039c1.596-2.888,1.692-6.275,0.394-9.352l0,0
			c1.28,3.114,3.724,5.387,6.927,6.329c3.137,0.905,6.994,0.404,10.256-1.788c3.271-2.197,5.215-5.543,5.552-8.813
			c0.355-3.291-0.838-6.447-3.204-8.812l0,0c2.356,2.386,5.503,3.577,8.793,3.211c3.271-0.324,6.619-2.269,8.822-5.539
			c2.203-3.273,2.693-7.138,1.789-10.276c-0.952-3.195-3.213-5.619-6.34-6.907l0,0c3.079,1.288,6.475,1.212,9.361-0.404
			c2.924-1.558,5.233-4.655,6.021-8.522c0.789-3.867-0.249-7.621-2.289-10.16C958.339,810.1,955.289,808.715,951.932,808.715z"/>
		<path fill="#FBFAF6" d="M937.597,808.715c0,25.361-20.549,45.908-45.89,45.908s-45.891-20.547-45.891-45.908
			c0-25.341,20.55-45.892,45.891-45.892S937.597,783.375,937.597,808.715z"/>
		<path fill="#351E1E" d="M965.525,824.359c0,0-13.594,8.194-16.432,23.379c4.743,4.424,16.432,26.822,16.432,26.822
			s11.68-22.398,16.432-26.822C979.129,832.553,965.525,824.359,965.525,824.359z"/>
		<g>
			<path fill="#351E1E" d="M889.282,847.89c-0.943-1.213-1.779-2.463-2.492-3.733c-0.721-1.268-1.327-2.559-1.827-3.847
				c1.77,0.731,3.617,1.288,5.483,1.654c1.886,0.387,3.801,0.576,5.725,0.576c-0.952,1.002-2.011,1.965-3.165,2.85
				C891.852,846.294,890.61,847.12,889.282,847.89z"/>
		</g>
		<g>
			<path fill="#351E1E" d="M876.535,842.599c-0.404-1.502-0.683-2.963-0.866-4.406c-0.173-1.443-0.24-2.887-0.221-4.271
				c1.365,1.367,2.857,2.597,4.454,3.656c1.587,1.078,3.291,1.982,5.061,2.732c-1.27,0.556-2.617,1.019-4.031,1.422
				C879.527,842.099,878.056,842.406,876.535,842.599z"/>
		</g>
		<g>
			<path fill="#351E1E" d="M866.799,832.823c0.193-1.52,0.491-2.979,0.876-4.386c0.385-1.405,0.856-2.752,1.424-4.02
				c0.73,1.768,1.646,3.464,2.703,5.059c1.078,1.596,2.3,3.098,3.646,4.445c-1.376,0.037-2.8-0.038-4.252-0.211
				C869.743,833.517,868.28,833.227,866.799,832.823z"/>
		</g>
		<g>
			<path fill="#351E1E" d="M861.508,820.087c0.77-1.326,1.606-2.58,2.501-3.713c0.896-1.156,1.866-2.234,2.857-3.177
				c0,1.923,0.192,3.829,0.567,5.715c0.366,1.886,0.934,3.733,1.665,5.505c-1.299-0.501-2.588-1.119-3.857-1.83
				C863.98,821.859,862.729,821.03,861.508,820.087z"/>
		</g>
		<g>
			<path fill="#351E1E" d="M861.508,806.291c1.222-0.942,2.473-1.75,3.742-2.482c1.271-0.729,2.56-1.326,3.849-1.827
				c-0.722,1.771-1.289,3.616-1.665,5.484c-0.365,1.886-0.567,3.809-0.567,5.732c-0.991-0.96-1.962-2.021-2.857-3.174
				C863.124,808.871,862.287,807.617,861.508,806.291z"/>
		</g>
		<g>
			<path fill="#351E1E" d="M866.799,793.551c1.491-0.403,2.954-0.69,4.407-0.863c1.452-0.173,2.876-0.252,4.261-0.231
				c-1.356,1.364-2.587,2.85-3.646,4.445c-1.068,1.595-1.982,3.291-2.723,5.079c-0.549-1.271-1.039-2.617-1.424-4.04
				C867.29,796.556,867.001,795.075,866.799,793.551z"/>
		</g>
		<g>
			<path fill="#351E1E" d="M876.555,783.799c1.52,0.19,2.991,0.48,4.396,0.863c1.404,0.404,2.751,0.867,4.021,1.427
				c-1.761,0.729-3.464,1.654-5.061,2.711c-1.597,1.077-3.088,2.31-4.445,3.656c-0.028-1.385,0.039-2.811,0.212-4.251
				C875.861,786.762,876.15,785.281,876.555,783.799z"/>
		</g>
		<g>
			<path fill="#351E1E" d="M889.292,778.505c1.338,0.771,2.578,1.599,3.732,2.483c1.145,0.904,2.203,1.886,3.155,2.866
				c-1.913,0-3.828,0.193-5.714,0.576c-1.876,0.366-3.723,0.926-5.493,1.658c0.5-1.292,1.106-2.58,1.827-3.851
				C887.521,780.971,888.359,779.717,889.292,778.505z"/>
		</g>
		<g>
			<path fill="#351E1E" d="M903.088,778.505c0.933,1.232,1.771,2.466,2.492,3.733c0.702,1.271,1.317,2.579,1.818,3.867
				c-1.761-0.749-3.608-1.309-5.493-1.675c-1.876-0.383-3.801-0.576-5.726-0.576c0.973-0.98,2.021-1.941,3.176-2.866
				C900.51,780.104,901.751,779.276,903.088,778.505z"/>
		</g>
		<g>
			<path fill="#351E1E" d="M915.826,783.817c0.404,1.464,0.692,2.963,0.865,4.389c0.173,1.461,0.24,2.884,0.212,4.269
				c-1.356-1.364-2.848-2.576-4.436-3.653c-1.597-1.077-3.3-1.982-5.069-2.715c1.279-0.556,2.616-1.039,4.03-1.423
				C912.834,784.296,914.306,784.01,915.826,783.817z"/>
		</g>
		<g>
			<path fill="#351E1E" d="M925.571,793.572c-0.202,1.52-0.49,2.984-0.875,4.387c-0.395,1.426-0.866,2.772-1.424,4.022
				c-0.731-1.771-1.655-3.464-2.714-5.059c-1.067-1.599-2.299-3.102-3.655-4.448c1.385-0.018,2.81,0.041,4.271,0.214
				C922.618,792.878,924.09,793.168,925.571,793.572z"/>
		</g>
		<g>
			<path fill="#351E1E" d="M930.854,806.312c-0.771,1.326-1.606,2.576-2.492,3.729c-0.904,1.157-1.866,2.196-2.867,3.177
				c0-1.944-0.183-3.851-0.567-5.736c-0.365-1.885-0.923-3.712-1.654-5.501c1.289,0.519,2.578,1.116,3.848,1.848
				C928.391,804.541,929.642,805.369,930.854,806.312z"/>
		</g>
		<g>
			<path fill="#351E1E" d="M930.854,820.108c-1.222,0.942-2.463,1.769-3.733,2.479c-1.27,0.732-2.568,1.329-3.857,1.83
				c0.73-1.771,1.289-3.599,1.664-5.484c0.385-1.885,0.567-3.812,0.567-5.715c1.001,0.943,1.963,2,2.867,3.156
				C929.247,817.528,930.083,818.779,930.854,820.108z"/>
		</g>
		<g>
			<path fill="#351E1E" d="M925.562,832.843c-1.49,0.404-2.963,0.694-4.396,0.867c-1.452,0.193-2.886,0.248-4.271,0.231
				c1.356-1.368,2.588-2.849,3.656-4.444c1.067-1.6,1.981-3.291,2.713-5.08c0.558,1.268,1.039,2.614,1.424,4.02
				C925.071,829.86,925.36,831.324,925.562,832.843z"/>
		</g>
		<g>
			<path fill="#351E1E" d="M915.807,842.599c-1.52-0.193-2.982-0.479-4.396-0.867c-1.404-0.403-2.751-0.866-4.021-1.422
				c1.77-0.75,3.463-1.654,5.061-2.715c1.597-1.077,3.088-2.307,4.444-3.653c0.029,1.385-0.038,2.808-0.222,4.271
				C916.5,839.636,916.21,841.118,915.807,842.599z"/>
		</g>
		<g>
			<path fill="#351E1E" d="M903.068,847.89c-1.337-0.771-2.577-1.596-3.732-2.5c-1.146-0.885-2.203-1.848-3.165-2.85
				c1.924,0,3.839-0.189,5.725-0.576c1.886-0.366,3.723-0.923,5.493-1.654c-0.501,1.288-1.106,2.579-1.828,3.847
				C904.839,845.427,904.012,846.677,903.068,847.89z"/>
		</g>
		<path fill="#351E1E" d="M871.754,813.198c0,13.509,10.938,24.456,24.417,24.456c13.498,0,24.437-10.947,24.437-24.456
			c0-13.489-10.938-24.453-24.437-24.453C882.692,788.745,871.754,799.708,871.754,813.198z"/>
		<path fill="#FBFAF6" d="M898.846,832.767c-4.791-1.021-7.928-5.618-6.966-10.218c0.972-4.638,5.677-7.601,10.478-6.6
			c4.849,1.002,7.965,5.599,6.994,10.257C908.398,830.802,903.694,833.769,898.846,832.767z"/>
		<path fill="#FBFAF6" d="M993.358,808.715c0,25.361,20.54,45.908,45.899,45.908c25.331,0,45.881-20.547,45.881-45.908
			c0-25.341-20.55-45.892-45.881-45.892C1013.898,762.824,993.358,783.375,993.358,808.715z"/>
		<path fill="#351E1E" d="M1059.201,813.198c0,13.509-10.938,24.456-24.416,24.456c-13.499,0-24.438-10.947-24.438-24.456
			c0-13.489,10.938-24.453,24.438-24.453C1048.263,788.745,1059.201,799.708,1059.201,813.198z"/>
		<g>
			<path fill="#351E1E" d="M1027.857,847.89c-0.934-1.213-1.761-2.463-2.482-3.733c-0.721-1.268-1.326-2.559-1.827-3.847
				c1.77,0.731,3.607,1.288,5.503,1.654c1.876,0.387,3.8,0.576,5.705,0.576c-0.953,1.002-2.011,1.965-3.156,2.85
				C1030.445,846.294,1029.204,847.12,1027.857,847.89z"/>
		</g>
		<g>
			<path fill="#351E1E" d="M1015.129,842.599c-0.403-1.502-0.692-2.963-0.864-4.406c-0.174-1.443-0.251-2.887-0.213-4.271
				c1.357,1.367,2.839,2.597,4.436,3.656c1.597,1.078,3.3,1.982,5.061,2.732c-1.271,0.556-2.607,1.019-4.021,1.422
				C1018.122,842.099,1016.649,842.406,1015.129,842.599z"/>
		</g>
		<g>
			<path fill="#351E1E" d="M1005.384,832.823c0.202-1.52,0.49-2.979,0.876-4.386c0.395-1.405,0.865-2.752,1.433-4.02
				c0.722,1.768,1.646,3.464,2.704,5.059c1.068,1.596,2.29,3.098,3.655,4.445c-1.395,0.037-2.818-0.038-4.271-0.211
				C1008.338,833.517,1006.865,833.227,1005.384,832.823z"/>
		</g>
		<g>
			<path fill="#351E1E" d="M1000.111,820.087c0.761-1.326,1.598-2.58,2.482-3.713c0.904-1.156,1.866-2.234,2.867-3.177
				c0,1.923,0.183,3.829,0.568,5.715c0.365,1.886,0.923,3.733,1.663,5.505c-1.298-0.501-2.587-1.119-3.857-1.83
				C1002.565,821.859,1001.323,821.03,1000.111,820.087z"/>
		</g>
		<g>
			<path fill="#351E1E" d="M1000.111,806.291c1.212-0.942,2.463-1.75,3.733-2.482c1.261-0.729,2.559-1.326,3.848-1.827
				c-0.74,1.771-1.289,3.616-1.663,5.484c-0.386,1.886-0.568,3.809-0.568,5.732c-1.001-0.96-1.963-2.021-2.867-3.174
				C1001.709,808.871,1000.872,807.617,1000.111,806.291z"/>
		</g>
		<g>
			<path fill="#351E1E" d="M1005.394,793.551c1.491-0.403,2.963-0.69,4.396-0.863c1.452-0.173,2.887-0.252,4.262-0.231
				c-1.356,1.364-2.578,2.85-3.646,4.445c-1.059,1.595-1.982,3.291-2.714,5.079c-0.558-1.271-1.029-2.617-1.424-4.04
				C1005.884,796.556,1005.596,795.075,1005.394,793.551z"/>
		</g>
		<g>
			<path fill="#351E1E" d="M1015.14,783.799c1.529,0.19,2.991,0.48,4.405,0.863c1.405,0.404,2.752,0.867,4.012,1.427
				c-1.76,0.729-3.462,1.654-5.06,2.711c-1.597,1.077-3.078,2.31-4.445,3.656c-0.019-1.385,0.049-2.811,0.213-4.251
				C1014.456,786.762,1014.745,785.281,1015.14,783.799z"/>
		</g>
		<g>
			<path fill="#351E1E" d="M1027.887,778.505c1.328,0.771,2.578,1.599,3.723,2.483c1.155,0.904,2.203,1.886,3.166,2.866
				c-1.925,0-3.84,0.193-5.725,0.576c-1.876,0.366-3.714,0.926-5.494,1.658c0.511-1.292,1.117-2.58,1.839-3.851
				C1026.106,780.971,1026.944,779.717,1027.887,778.505z"/>
		</g>
		<g>
			<path fill="#351E1E" d="M1041.673,778.505c0.943,1.232,1.771,2.466,2.492,3.733c0.721,1.271,1.328,2.579,1.827,3.867
				c-1.77-0.749-3.617-1.309-5.493-1.675c-1.886-0.383-3.791-0.576-5.724-0.576c0.962-0.98,2.021-1.941,3.175-2.866
				C1039.095,780.104,1040.346,779.276,1041.673,778.505z"/>
		</g>
		<g>
			<path fill="#351E1E" d="M1054.421,783.817c0.395,1.464,0.683,2.963,0.865,4.389c0.163,1.461,0.23,2.884,0.212,4.269
				c-1.356-1.364-2.849-2.576-4.445-3.653s-3.29-1.982-5.061-2.715c1.271-0.556,2.607-1.039,4.021-1.423
				C1051.428,784.296,1052.9,784.01,1054.421,783.817z"/>
		</g>
		<g>
			<path fill="#351E1E" d="M1064.156,793.572c-0.192,1.52-0.49,2.984-0.875,4.387c-0.395,1.426-0.866,2.772-1.424,4.022
				c-0.731-1.771-1.646-3.464-2.704-5.059c-1.077-1.599-2.299-3.102-3.655-4.448c1.385-0.018,2.81,0.041,4.261,0.214
				C1061.203,792.878,1062.675,793.168,1064.156,793.572z"/>
		</g>
		<g>
			<path fill="#351E1E" d="M1069.438,806.312c-0.76,1.326-1.598,2.576-2.492,3.729c-0.896,1.157-1.866,2.196-2.857,3.177
				c0-1.944-0.192-3.851-0.567-5.736c-0.366-1.885-0.933-3.712-1.664-5.501c1.298,0.519,2.578,1.116,3.857,1.848
				C1066.975,804.541,1068.226,805.369,1069.438,806.312z"/>
		</g>
		<g>
			<path fill="#351E1E" d="M1069.438,820.108c-1.222,0.942-2.464,1.769-3.724,2.479c-1.279,0.732-2.568,1.329-3.857,1.83
				c0.731-1.771,1.298-3.599,1.664-5.484c0.375-1.885,0.567-3.812,0.567-5.715c0.991,0.943,1.962,2,2.857,3.156
				C1067.841,817.528,1068.679,818.779,1069.438,820.108z"/>
		</g>
		<g>
			<path fill="#351E1E" d="M1064.146,832.843c-1.481,0.404-2.953,0.694-4.396,0.867c-1.452,0.193-2.887,0.248-4.262,0.231
				c1.356-1.368,2.578-2.849,3.646-4.444c1.078-1.6,1.982-3.291,2.724-5.08c0.548,1.268,1.02,2.614,1.414,4.02
				C1063.656,829.86,1063.954,831.324,1064.146,832.843z"/>
		</g>
		<g>
			<path fill="#351E1E" d="M1054.4,842.599c-1.52-0.193-2.991-0.479-4.396-0.867c-1.405-0.403-2.762-0.866-4.021-1.422
				c1.76-0.75,3.463-1.654,5.06-2.715c1.598-1.077,3.088-2.307,4.445-3.653c0.02,1.385-0.039,2.808-0.212,4.271
				C1055.084,839.636,1054.795,841.118,1054.4,842.599z"/>
		</g>
		<g>
			<path fill="#351E1E" d="M1041.653,847.89c-1.328-0.771-2.568-1.596-3.723-2.5c-1.145-0.885-2.203-1.848-3.175-2.85
				c1.934,0,3.849-0.189,5.725-0.576c1.885-0.366,3.723-0.923,5.503-1.654c-0.511,1.288-1.116,2.579-1.838,3.847
				C1043.434,845.427,1042.597,846.677,1041.653,847.89z"/>
		</g>
		<path fill="#FBFAF6" d="M1029.647,832.767c-4.791-1.021-7.928-5.618-6.966-10.218c0.962-4.638,5.667-7.601,10.477-6.6
			c4.84,1.002,7.956,5.599,6.995,10.257C1039.19,830.802,1034.486,833.769,1029.647,832.767z"/>
		<path fill="#FBFAF6" d="M1043.693,833.769c1.136,0.287,2.309-0.366,2.597-1.443c0.299-1.119-0.394-2.272-1.539-2.58
			c-1.145-0.29-2.318,0.366-2.606,1.461C1041.855,832.305,1042.538,833.441,1043.693,833.769z"/>
		<path fill="#FBFAF6" d="M888.733,833.769c-1.135,0.287-2.317-0.366-2.606-1.443c-0.298-1.119,0.395-2.272,1.539-2.58
			c1.155-0.29,2.328,0.366,2.616,1.461C890.572,832.305,889.889,833.441,888.733,833.769z"/>
		<path fill="#FBFAF6" d="M884.491,829.88c-1.76,0.463-3.578-0.538-4.021-2.23c-0.462-1.713,0.606-3.484,2.376-3.965
			c1.78-0.463,3.589,0.539,4.042,2.252C887.339,827.629,886.262,829.401,884.491,829.88z"/>
		<path fill="#FBFAF6" d="M1049.523,829.88c-1.771,0.463-3.579-0.538-4.021-2.23c-0.462-1.713,0.606-3.484,2.376-3.965
			c1.78-0.463,3.589,0.539,4.041,2.252C1052.361,827.629,1051.293,829.401,1049.523,829.88z"/>
		<path fill="#1D1D1B" d="M965.525,824.359L965.525,824.359v50.201l0,0c0,0,11.68-22.398,16.432-26.822
			C979.129,832.553,965.525,824.359,965.525,824.359z"/>
		<polygon fill="#3A002F" points="1178.334,932.686 1171.253,932.493 1174.071,832.747 1181.143,832.941 		"/>
		<path fill="#EA3D4E" d="M1179.748,755.534c-7.697-0.214-15.316,1.364-21.473,5.038c5.069-1.671,10.88-1.844,16.248-0.959
			c7.678,1.174,15.115,5.041,20.271,11.254c5.244,6.254,7.495,14.971,5.812,23.109c-1.684,8.14-6.639,15.547-14.643,19.395
			c-7.841,3.771-17.75,2.504-24.476-3.001c-1.73-1.423-3.116-2.829-4.405-4.772c-1.318-1.979-2.175-3.982-2.742-6.175
			c-1.087-4.331-0.605-9.007,1.347-12.988c2.001-3.981,5.041-7.234,9.477-8.985c4.223-1.637,9.072-1.271,12.979,0.825
			c1.924,1.022,3.724,2.562,4.925,4.196c1.453,2.058,2.193,4.099,2.387,6.389c0.433,4.465-1.761,8.947-5.407,11.275
			c-3.829,2.521-9.033,1.729-11.91-1.31c-3.223-2.963-2.886-8.464,0.308-10.833l0.462,0.483c-2.424,2.635-1.896,6.907,0.703,8.716
			c2.501,2.038,6.225,1.903,8.446,0.135c2.415-1.868,3.55-5.079,2.982-7.929c-0.202-1.385-0.991-2.828-1.732-3.694
			c-1.105-1.213-2.222-2.059-3.56-2.674c-2.645-1.232-5.791-1.25-8.36-0.079c-2.404,1.04-4.685,3.561-5.743,6.216
			c-1.087,2.715-1.317,5.736-0.559,8.523c0.386,1.347,1.059,2.752,1.8,3.791c0.731,1.137,1.973,2.349,3.127,3.216
			c4.676,3.847,11.507,4.634,17.047,2.21c5.436-2.27,9.948-8.081,11.295-14.256c1.443-6.254,0.116-13.181-3.79-18.434
			c-4.031-5.29-9.986-9.39-16.739-10.95c-6.716-1.537-13.133-1.807-19.329,1.657c-1.26,0.674-3.29,2-4.655,3.385
			c-6.032,6.641-9.842,15.356-10.111,25.054c-0.606,21.49,16.325,39.405,37.818,40.021c21.512,0.598,39.425-16.334,40.03-37.828
			C1218.182,774.061,1201.25,756.149,1179.748,755.534z"/>
		<path fill="#E04B5A" d="M1172.234,790.167l-0.462-0.48c-0.914,0.691-1.568,1.634-2.001,2.711c0.173,0.75,0.49,1.443,0.933,2.059
			C1170.656,792.958,1171.118,791.379,1172.234,790.167z"/>
		<path fill="#E04B5A" d="M1143.776,795.226c0.241-8.599,3.627-16.354,8.985-22.26c1.203-1.232,3.012-2.407,4.137-3.004
			c5.503-3.077,11.199-2.829,17.163-1.461c6.004,1.367,11.296,5.021,14.874,9.717c0.895,1.213,1.635,2.521,2.222,3.886
			c-0.625-2.425-1.683-4.752-3.193-6.793c-3.569-4.676-8.861-8.329-14.863-9.714c-1.481-0.328-2.944-0.598-4.388-0.771
			c-7.446-0.252-12.872,1.212-16.913,5.231c-5.368,5.909-8.745,13.662-8.985,22.264c-0.135,4.655,0.674,9.121,2.223,13.199
			C1144.122,802.25,1143.681,798.787,1143.776,795.226z"/>
		<path fill="#E04B5A" d="M1210.408,782.815c0.924,2.138,1.646,4.407,2.156,6.737c2.886,12.909-2.579,25.703-12.777,32.824
			c11.709-6.695,18.222-20.471,15.134-34.326c-1.356-6.119-4.118-11.797-8.245-15.913
			C1208.678,775.255,1209.86,779.044,1210.408,782.815z"/>
		<path fill="#3A002F" d="M1164.364,857.818c9.159,8.351,9.929,22.416,9.929,22.416s-14.095,0.58-23.253-7.753
			c-9.159-8.333-9.919-22.415-9.919-22.415S1155.206,849.505,1164.364,857.818z"/>
		<path fill="#3A002F" d="M1188.84,848.622c-9.4,8.562-10.188,23.014-10.188,23.014s14.459,0.576,23.868-7.968
			c9.399-8.561,10.179-23.013,10.179-23.013S1198.248,840.058,1188.84,848.622z"/>
		<path opacity="0.45" fill="#E28F9F" d="M1184.471,879.274l-12.083,13.025l5.591,17.837c0,0,11.688-4.369,15.786-20.357
			c2.155-8.426-0.452-8.83-0.452-8.83L1184.471,879.274z"/>
		<path fill="#FF6B80" d="M1184.404,879.253l-10.169,13.143l3.743,17.74c0,0,12.747-4.369,16.845-20.357
			c2.155-8.426-0.452-8.83-0.452-8.83L1184.404,879.253z"/>
	</g>
	<g opacity="0.2">
		<path fill="#1D1D1B" d="M1112.26,802.751h-0.029l0,0H1112.26c3.348-0.252,6.292-1.886,8.177-4.579
			c1.886-2.677,2.627-6.409,1.684-10.16c-0.942-3.753-3.396-6.679-6.32-8.118c-2.925-1.485-6.302-1.523-9.38-0.156h-0.01l0,0h0.01
			c3.078-1.346,5.339-3.867,6.225-7.023c0.904-3.136,0.413-6.928-1.713-10.139c-2.117-3.232-5.368-5.194-8.61-5.619
			c-3.252-0.441-6.446,0.615-8.919,2.904h-0.01l0,0h0.01c2.483-2.269,3.801-5.366,3.628-8.657c-0.164-3.253-1.848-6.658-4.896-9.023
			c-0.231-0.193-0.491-0.308-0.731-0.463c5.387-1.944,9.784-3.83,12.506-5.312c4.733-2.828,16.566-9.562,15.433-22.146
			c-0.135-1.52-0.338-3.039-0.934-4.368l-0.462-0.96c-0.26-0.521-0.337-0.56-0.51-0.867c-0.414-0.652-0.924-1.271-1.405-1.75
			c-4.012-4.079-10.986-3.232-13.189,2.327c-1.011,2.618-0.539,5.716,1.097,7.715c1.674,2.079,4.521,2.444,6.397,1.081l-0.212-0.425
			c-1.866,0.922-4.117,0.097-5.117-1.599c-1.03-1.73-0.991-4.041-0.106-5.637c0.404-0.808,1.068-1.502,1.731-1.885
			c0.799-0.442,1.607-0.674,2.464-0.712c1.684-0.079,3.337,0.749,4.367,2.079c0.27,0.383,0.442,0.652,0.615,0.998
			c0.087,0.214,0.327,0.656,0.289,0.674l0.202,0.635c0.211,0.867,0.278,1.713,0.24,2.559c-0.144,1.654-0.808,3.291-1.588,5.08
			c-1.539,3.522-6.628,6.006-10.688,6.679c-23.417,2.866-32.528-9.469-69.817-16.973c-26.87-5.404-50.037,4.983-65.651,17.626
			c-0.52-0.021-1.02-0.059-1.539-0.076v313.13c2.377,0.173,4.704,0.27,7.014,0.346c-0.442,1.733-0.712,3.656-0.712,5.735
			c0,7.504,3.252,13.409,7.398,13.409c2.251,0,4.214-1.789,5.561-4.579c1.039,6.137,3.675,10.274,6.917,10.274
			c3.232,0,5.85-4.155,6.898-10.274c1.347,2.79,3.31,4.579,5.561,4.579c4.156,0,7.407-5.905,7.407-13.409
			c0-3.695-0.788-6.966-2.068-9.372c46.43-11.565,73.137-49.333,79.554-100.591c2.318-18.473,2-38.695-0.963-60.071
			c-0.374-2.638-0.75-5.235-1.145-7.794c1.751,1.288,3.81,2.079,6.022,2.138c3.262,0.114,6.792-1.31,9.409-4.138
			c2.549-2.772,3.637-6.291,3.348-9.469c-0.01-0.097,0.011-0.173,0-0.248c-0.347-3.195-2.106-5.985-4.829-7.812
			c0.009-0.02,0.009-0.037,0.02-0.037c2.771,1.75,6.021,2.251,9.091,1.309c3.117-0.964,6.022-3.426,7.581-6.986
			c1.559-3.522,1.425-7.331,0.01-10.273c-1.395-2.983-4.041-5.08-7.302-5.888l0,0l0,0l0,0c3.261,0.825,6.58,0.248,9.235-1.713
			c2.646-1.906,4.56-5.197,4.878-9.044c0.317-3.848-1.059-7.408-3.339-9.735C1118.791,803.597,1115.607,802.461,1112.26,802.751z
			 M997.755,1038.976c-0.038-0.097-0.077-0.214-0.116-0.328c0.067,0,0.146,0,0.213-0.021
			C997.822,1038.745,997.784,1038.858,997.755,1038.976z"/>
	</g>
</g>
</svg>
