<?xml version="1.0" encoding="utf-8"?>
<!-- Generator: Adobe Illustrator 16.0.0, SVG Export Plug-In . SVG Version: 6.00 Build 0)  -->
<!DOCTYPE svg PUBLIC "-//W3C//DTD SVG 1.1//EN" "http://www.w3.org/Graphics/SVG/1.1/DTD/svg11.dtd">
<svg version="1.1" id="Layer_1" xmlns="http://www.w3.org/2000/svg" xmlns:xlink="http://www.w3.org/1999/xlink" x="0px" y="0px"
	width="100.49825" height="140.82384" viewBox="0 0 100.49825 140.82384" enable-background="new 0 0 198.43 198.43" xml:space="preserve">
<g transform="translate(-48.654726,-31.581186)">
	<g>
		<g>
			<defs>
				<path id="SVGID_1_" d="M53.154,142.43c1.705,7.635,4.901,17.729,10.381,23.508c10.862,11.461,10.729-16.626,21.483-11.891
					c3.416,1.504,6.087,3.688,9.91,4.488c2.932,0.61,5.968,0.627,8.876,0.085c6.16-1.148,11.412-9.301,17.09-2.902
					c2.803,3.158,3.865,11.039,8.656,11.938c6.125,1.152,10.268-11.082,12.016-15.183c13.339-31.324,6.111-75.165-3.104-106.567
					c-0.582-1.988-3.099-8.756-0.246-10.265c-4.646,2.459-9.779,4.027-14.99,4.693c-1.279,0.164-15.17,0.431-14.985-0.783
					c0.239-1.421,1.163-2.775,1.116-4.293c-1.391,1.552-5.51,3.134-7.545,3.034c1.226-1.509,2.146-3.392,2.388-5.362
					c-2.544,3.028-8.517,5.646-12.324,5.547c0.658-1.172,1.209-2.65,1.436-4C88,37.74,81.261,40.296,74.978,40.43
					c-2.771,0.06-14.545,1.306-15.893-1.611c0.156,0.339,0.357,0.729,0.516,1.07c-0.824-0.61-1.947-0.822-2.834-1.112
					c4.74,1.553,0.866,14.922-0.04,18.063c-5.621,19.489-9.062,42.612-7.028,63.735c0.347,3.604,0.882,7.188,1.409,10.769
					C51.654,135.062,52.335,138.762,53.154,142.43z"/>
			</defs>
			<clipPath id="SVGID_2_">
				<use xlink:href="#SVGID_1_"  overflow="visible"/>
			</clipPath>
		</g>
	</g>
	<path fill="#FFFFFF" stroke="#000000" stroke-width="0.5" stroke-miterlimit="10" d="M52.95,142.427
		c1.704,7.635,4.901,17.728,10.381,23.509c10.861,11.46,10.728-16.627,21.482-11.893c3.417,1.505,6.087,3.688,9.911,4.489
		c2.932,0.611,5.969,0.627,8.877,0.085c6.158-1.148,11.41-9.302,17.09-2.902c2.802,3.158,3.865,11.039,8.656,11.938
		c6.125,1.152,10.271-11.081,12.017-15.182c13.337-31.324,6.11-75.166-3.105-106.569c-0.584-1.986-3.098-8.756-0.248-10.264
		c-4.646,2.459-9.779,4.027-14.988,4.693c-1.278,0.163-15.17,0.431-14.985-0.783c0.239-1.421,1.164-2.775,1.116-4.293
		c-1.391,1.552-5.512,3.133-7.545,3.034c1.226-1.509,2.146-3.392,2.39-5.362c-2.545,3.029-8.52,5.646-12.326,5.547
		c0.657-1.172,1.209-2.65,1.436-4c-5.309,3.26-12.048,5.818-18.332,5.951c-2.771,0.059-14.545,1.306-15.893-1.611
		c0.156,0.337,0.358,0.729,0.515,1.069c-0.823-0.61-1.945-0.822-2.834-1.113c4.74,1.554,0.866,14.921-0.041,18.063
		c-5.62,19.489-9.062,42.611-7.028,63.733c0.348,3.605,0.883,7.188,1.41,10.771C51.452,135.059,52.131,138.758,52.95,142.427z"/>
	<path opacity="0.18" d="M142.887,81.36c0.131-6.892-0.396-13.847-0.904-20.729
		c0.599,8.082,4.029,16.484,4.951,24.719c2.231,19.945,3.571,41.551-2.793,60.905c-1.317,4.017-2.877,7.88-4.639,11.722
		c-1.594,3.479-3.303,7.709-7.125,9.254c-4.408,1.781-6.851-1.762-8.383-5.339c-1.468-3.425-3.548-8.381-8.031-8.208
		c-4.447,0.174-8.139,4.273-12.558,5.109c-4.849,0.92-10.081-0.289-14.488-2.359c-2.314-1.086-4.48-3.346-7.333-2.586
		c-6.077,1.617-6.602,16.213-13.757,15.001c-5.635-0.954-9.557-10.056-11.342-14.711c-4.535-11.826-5.94-25.33-6.991-37.888
		c-1.565-18.703,1.183-38.237,6.83-56.124c0.39,20.681-2.848,39.361,6.445,59.011c7.651,16.178,22.673,25.745,40.704,22.608
		c11.103-1.932,24.101-6.444,30.008-16.692C140.66,112.601,142.625,95.435,142.887,81.36z"/>
	<path opacity="0.18" d="M138.455,132.633c7.407-11.166,8.723-27.119,9.11-40.174
		c0.004-0.093,0.002-0.091-0.002,0.003c2.647,17.198,1.989,36.806-3.471,53.439c-1.32,4.018-2.879,7.881-4.641,11.723
		c-1.595,3.479-3.304,7.709-7.125,9.255c-4.41,1.782-6.851-1.763-8.384-5.34c-1.467-3.425-3.549-8.38-8.032-8.206
		c-4.445,0.172-8.138,4.271-12.556,5.108c-4.849,0.917-10.082-0.289-14.489-2.358c-2.314-1.088-4.48-3.349-7.332-2.588
		c-6.079,1.616-6.603,16.213-13.758,15.002c-5.634-0.955-9.556-10.058-11.341-14.711c-4.536-11.827-5.94-25.33-6.992-37.888
		c-0.677-8.09-1.146-16.92,0.742-24.89c0-0.093-0.003-0.096-0.007-0.01c-0.419,11.091,2.917,24.65,9.382,33.729
		c6.816,9.568,16.961,19.133,29.377,19.503c9.707,0.289,19.725,0.394,29.246-1.81C125.891,140.638,133.773,139.689,138.455,132.633z
		"/>
	<g>
		<g>
			<path d="M54.667,36.332c2.666-5.995,9.074-6.054,12.986-1.651c0.917,1.031,3.623,4.451,2.741,5.98
				c-0.896,1.551-7.42-0.326-7.785,0.896c-0.54,1.714-0.255,6.882-2.668,7.228c-4.21,0.591-6.065-6.781-5.925-9.735
				C54.062,38.091,54.291,37.176,54.667,36.332z"/>
			<path opacity="0.12" fill="#F5F5F5" d="M56.7,45.67c1.262,1.378,2.973,2.524,4.146,0.254
				c0.392-0.76,0.93-2.137,0.739-3.024c-0.23-1.071-0.947-1.088-1.896-1.068c-1.059,0.02-1.905-0.239-2.35-1.257
				c-0.65-1.493,0.159-2.867-0.2-4.322c-0.543-2.196-2.395,2.255-2.496,2.812C54.198,41.539,55.015,43.829,56.7,45.67z"/>
		</g>
		<g>
			<path d="M137.037,32.565c6.506,0.861,8.375,6.991,5.26,11.99c-0.73,1.17-3.244,4.734-4.961,4.32
				c-1.742-0.42-1.787-7.21-3.062-7.212c-1.797-0.035-6.674,1.702-7.688-0.516c-1.758-3.872,4.787-7.737,7.66-8.438
				C135.18,32.483,136.121,32.444,137.037,32.565z"/>
			<path opacity="0.12" fill="#F5F5F5" d="M140.955,45.512c-1.367,1.285-3.199,2.337-4.379,0.142
				c-0.396-0.735-0.931-2.062-0.707-2.903c0.271-1.018,1.026-1.016,2.024-0.975c1.117,0.045,2.019-0.179,2.51-1.141
				c0.726-1.409-0.096-2.738,0.318-4.118c0.627-2.081,2.471,2.21,2.562,2.745C143.697,41.634,142.779,43.798,140.955,45.512z"/>
		</g>
	</g>
	
		<ellipse transform="matrix(-0.0016 -1 1 -0.0016 -70.4195 267.3039)" opacity="0.17" cx="98.225" cy="168.804" rx="3.6" ry="49.205"/>
	<path d="M101.104,76.928c0.082-0.073,0.168-0.143,0.252-0.208c0.291-0.229,0.658-0.472,0.838-0.807
		c0.363-0.676-0.555-1.005-1.032-1.208c-0.802-0.337-1.716-0.418-2.575-0.338c-0.792,0.072-3.277,0.664-2.141,1.942
		c0.476,0.534,1.165,0.821,1.636,1.358c0.319,0.368,0.498,1.269,1.022,1.391c0.482,0.114,0.746-0.412,0.937-0.756
		C100.311,77.81,100.666,77.305,101.104,76.928z"/>
	<g>
		<path d="M73.866,163.827c0.5-0.858,0.907-1.769,1.411-2.622c0.5-0.851,1.666-2.104,1.122-3.146
			c-0.977-1.873-3.65-0.207-4.646,0.662c-0.632,0.554-1.189,1.188-1.826,1.736c-1.827,1.57-3.749,0.584-5.436-0.644
			c-1.136-0.827-3.806-4.549-5.297-2.692c-0.941,1.172,0.59,3.332,1.204,4.354c0.954,1.584,2.142,3.086,3.353,4.479
			c1.082,1.246,2.401,2.498,4.087,2.801c1.452,0.264,2.898-0.684,3.747-1.777c0.597-0.773,1.213-1.534,1.768-2.34
			C73.537,164.375,73.705,164.104,73.866,163.827z"/>
		<path d="M128.783,167.328c2.903,1.096,5.256-0.516,6.952-2.793c1.369-1.84,3.604-5.138,3.904-7.461
			c0.201-1.562-0.623-2.699-2.283-2.195c-1.33,0.405-2.59,2.148-3.522,3.123c-1.408,1.467-3.574,2.735-5.51,1.518
			c-1.541-0.971-2.007-3.157-3.64-4.069c-2.75-1.54-1.653,3.209-1.309,4.332C124.244,162.596,125.838,166.219,128.783,167.328z"/>
		<path opacity="0.12" fill="#F5F5F5" d="M71.992,162.532c0.606-0.645,1.7-2.959,2.69-3.071
			c0.894-0.103,0.431,1.223,0.1,1.829c-0.368,0.675-6.173,9.575-7.114,6.546c-0.338-1.091,1.264-1.907,1.888-2.424
			C70.524,164.611,71.131,163.443,71.992,162.532z"/>
		<path opacity="0.12" fill="#F5F5F5" d="M135.525,160.928c0.607-0.643,1.701-2.958,2.691-3.071
			c0.893-0.102,0.432,1.225,0.1,1.831c-0.366,0.674-6.172,9.574-7.112,6.544c-0.338-1.091,1.262-1.907,1.887-2.423
			C134.057,163.008,134.666,161.84,135.525,160.928z"/>
	</g>
	<g>
		<path d="M103.018,90.383c24.478,1.512,39.756,19.916,37.642,44.078c-0.318,3.63-0.187,7.895-2.654,10.858
			c-2.24,2.693-5.955,3.649-9.312,2.896c-3.989-0.898-7.909-4.278-12.08-3.812c-0.006,0-0.012,0.001-0.02,0.002
			c-3.752,0.351-6.041,3.275-9.336,4.625c-3.564,1.457-7.51,1.535-11.236,0.712c-4.587-1.017-8.155-4.945-13.14-4.493
			c-3.156,0.286-5.278,2.171-8.008,3.462c-1.904,0.897-4.418,1.173-6.495,1.313c-11.091,0.752-10.74-14.712-10.325-22.127
			c0.314-5.621,1.518-11.504,4.141-16.541c7.655-14.702,24.736-21.963,40.815-20.973C103.01,90.383,103.012,90.383,103.018,90.383z"
			/>
		<path opacity="0.07" fill="#F5F5F5" d="M74.071,100.674c-2.98,2.373-5.412,5.321-7.044,8.775
			c-0.375,0.79-2.725,5.727-1.061,6.17c1.541,0.409,4.841-4.843,5.593-5.768c2.068-2.546,4.215-5.032,6.924-6.917
			c4.352-3.027,9.329-4.803,14.318-6.438c0.886-0.291,4.001-1.124,3.12-2.577c-0.85-1.398-3.751-1.087-5.095-0.943
			C84.454,93.659,79,96.751,74.071,100.674z"/>
	</g>
	<g>
		<path d="M77.432,49.56c-3.498,1.614-7.079,1.504-10.68,3.344c0.019,0.311,0.024,3.665-0.154,3.652
			c-0.737-0.056-1.381-0.571-1.837-1.335c-1.129,6.161-4.181,11.96-4.509,18.297c-0.335,6.46,3.081,15.23,10.66,16.84
			c10.156,2.159,19.483-3.507,20.767-15.659c0.848-8.032,2.487-15.25,0.598-23.3c-1.474-6.28-6.395-8.478-11.711-3.864
			C79.529,48.432,78.485,49.074,77.432,49.56z"/>
		<path opacity="0.12" fill="#F5F5F5" d="M68.982,83.597c2.573,1.417,5.864,1.679,8.649,1.153
			c2.207-0.417,4.02-1.733,5.698-3.155c1.265-1.072,2.876-3.458,4.538-3.795c2.352-0.478,0.501,3.693,0.029,4.519
			c-1.335,2.336-3.104,4.718-5.425,6.159c-1.861,1.157-3.53,1.618-5.697,1.792c-3.716,0.295-7.172-0.503-10.07-2.934
			c-2.627-2.204-4.271-5.43-5.19-8.688c-0.838-2.969-1.661-7.566-0.75-10.6c0.951-3.164,1.676,0.729,1.805,1.823
			c0.207,1.763,0.551,3.518,1.103,5.207c0.86,2.635,1.662,5.663,3.87,7.529C67.985,82.986,68.468,83.315,68.982,83.597z"/>
		<path fill="#F2F3F3" d="M70.503,69.913c2.199,5.842,9.822,2.771,10.752-2.312c0,0,0.006-0.126-0.001-0.051
			c0.042,0.462,0.093,0.945,0.185,1.4c0.58,2.854,0.26,5.812-2.231,7.646c-1.932,1.422-4.631,1.729-6.866,0.866
			c-4.236-1.634-4.584-6.729-2.571-10.373C69.943,68.028,70.164,69.014,70.503,69.913z"/>
		<path fill="#F2F3F3" d="M78.125,64.876c0.564,0.656,0.812,1.479,0.71,2.433c-0.185-0.458-0.379-0.935-0.683-1.33
			c-0.729-0.951-2.024-1.042-3.059-0.514c-1.099,0.562-1.388,1.768-1.229,2.908c-0.075-0.541-0.386-0.993-0.429-1.553
			c-0.085-1.088,0.157-2.194,1.146-2.762c0.854-0.49,1.878-0.417,2.703,0.104C77.617,64.373,77.897,64.611,78.125,64.876z"/>
	</g>
	<g>
		<path d="M118.936,48.761c3.613,1.402,7.209,1.076,10.941,2.698c0,0.31,0.192,3.659,0.373,3.635c0.737-0.1,1.354-0.653,1.768-1.443
			c1.506,6.083,4.924,11.688,5.635,17.993c0.726,6.43-2.186,15.389-9.711,17.45c-10.086,2.764-19.809-2.332-21.825-14.386
			c-1.334-7.967-3.416-15.074-2-23.222c1.104-6.358,5.924-8.848,11.547-4.561C116.758,47.761,117.848,48.34,118.936,48.761z"/>
		<path opacity="0.12" fill="#F5F5F5" d="M128.484,82.735c-2.657,1.354-6.024,1.533-8.854,0.939
			c-2.24-0.471-4.058-1.833-5.734-3.295c-1.266-1.104-2.85-3.528-4.537-3.907c-2.387-0.536-0.602,3.68-0.141,4.518
			c1.303,2.366,3.051,4.793,5.381,6.292c1.871,1.201,3.562,1.704,5.771,1.93c3.782,0.389,7.33-0.323,10.348-2.684
			c2.736-2.137,4.492-5.322,5.512-8.555c0.928-2.947,1.883-7.522,1.027-10.578c-0.894-3.187-1.729,0.688-1.887,1.778
			c-0.257,1.757-0.648,3.502-1.255,5.177c-0.942,2.613-1.836,5.621-4.135,7.433C129.516,82.148,129.014,82.466,128.484,82.735z"/>
		<path fill="#F2F3F3" d="M116.174,69.141c2.326,6.18,10.389,2.934,11.375-2.445c0,0,0.006-0.134-0.002-0.054
			c0.045,0.489,0.098,0.999,0.195,1.479c0.612,3.019,0.274,6.147-2.361,8.089c-2.043,1.503-4.898,1.827-7.262,0.917
			c-4.48-1.729-4.851-7.117-2.722-10.973C115.582,67.147,115.816,68.189,116.174,69.141z"/>
		<path fill="#F2F3F3" d="M123.486,65.458c0.252,0.83,0.144,1.682-0.338,2.511c0.021-0.492,0.033-1.009-0.084-1.492
			c-0.28-1.165-1.428-1.773-2.588-1.708c-1.231,0.068-1.983,1.054-2.305,2.158c0.152-0.525,0.053-1.062,0.238-1.591
			c0.362-1.031,1.034-1.944,2.17-2.062c0.979-0.102,1.885,0.38,2.428,1.19C123.225,64.792,123.387,65.124,123.486,65.458z"/>
	</g>
	<path fill="none" stroke="#000000" stroke-miterlimit="10" d="M93.779,86.605c0.187-1.535,0.655-2.812,1.782-3.943
		c2.987-2.993,8.794-1.307,9.184,3.542"/>
	<g>
		<path fill="#CD2027" d="M97.532,151.311c0.437-4.098,1.753-15.974,3.747-15.84c-2.31-0.155-4.577-0.57-6.768-1.226
			c2.42-2.661,5.749-6.324,8.491-8.339c-1.457-0.431-10.811-2.998-11.759-1.894c2.835-3.303,7.507-6.542,9.605-10.283
			c-2.076-0.326-4.163-0.396-6.236-0.776c-1.363-0.252-2.866-0.347-4.252-0.363c-1.213-0.016-2.489,0.264-3.696-0.048
			c0.461,0.118,2.222-1.435,2.661-1.741c2.407-1.688,4.768-3.87,7.352-5.222c-1.923-1.501-3.789-3.252-5.888-4.518
			c-4.153-2.5-10.053-3.821-14.6-1.742c-8.143,3.724-13.893,14.045-12.11,22.889c1.623,8.04,7.81,13.215,14.531,17.289
			c3.763,2.278,7.688,4.5,11.423,6.522c2.915,1.582,4.324,5.071,7.382,6.382C97.442,152.17,97.48,151.794,97.532,151.311z"/>
		<path fill="#CD2027" d="M119.439,138.217c-4.653,2.914-8.938,5.295-12.78,9.379c-0.371,0.391-5.556,5.024-5.418,3.957
			c0.782-6.172,3.604-11.947,4.008-18.159c-1.771-0.194-3.502,0.036-5.271-0.089c0.838-0.863,9.051-8.614,9.326-8.491
			c-1.039-0.479-10.771-2.829-11.194-2.034c0.831-1.562,2.56-2.737,3.681-4.122c1.17-1.443,2.395-2.783,3.477-4.312
			c0.539-0.756,1.023-1.688,1.701-2.291c-0.254,0.227-2.416-0.313-2.824-0.359c-1.029-0.108-2.061-0.194-3.092-0.27
			c-2.029-0.145-4.097-0.131-6.115-0.362c1.604-0.902,3.007-2.279,4.496-3.395c3.068-2.294,5.627-5.315,8.855-7.367
			c3.151-2.003,6.741-3.259,10.514-3.093c2.123,0.093,4.252,0.775,6.09,1.846c7.484,4.359,9.846,14.473,8.273,22.482
			C131.615,129.441,125.941,134.148,119.439,138.217z"/>
		<path opacity="0.79" fill="#F5F5F5" d="M77.084,102.195c1.222-0.686,2.577-1.133,4.144-1.216
			c1.062-0.057,4.847,0.766,2.779-1.043c-0.634-0.554-2.336-0.706-3.145-0.673c-1.541,0.063-3.163,0.508-4.589,1.123
			c-2.656,1.146-5.473,3.229-6.707,6.021c-1.079,2.44-0.659,3.7,1.379,1.436C72.88,105.693,74.737,103.509,77.084,102.195z"/>
		<path opacity="0.94" fill="#7A1315" d="M104.477,105.475c-2.926,2.564-5.688,4.065-9.191,5.713
			c3.523-3.022,7.208-5.89,10.535-9.099c2.525-2.435,10.38-6.526,13.863-4.416c-6.244,0.131-10.199,3.059-14.539,7.189
			C104.922,105.075,104.699,105.277,104.477,105.475z"/>
	</g>
	<g>
		<g>
			<path d="M63.684,103.941c0.392,1.578,0.859,3.109,2.213,4.479c1.706,1.729,7.754,2.922,6.052,6.447
				c-1.852,3.827-9.654,2.898-13.05,1.901c-1.386-0.403-2.789-1.027-4.016-1.793c-2.788-1.733-4.012-2.524-4.326-5.845
				c-0.233-2.477-0.079-21.328,5.554-16.846c2.593,2.064,4.745,4.718,6.28,7.654C63.084,101.266,63.357,102.621,63.684,103.941z"/>
		</g>
		<path opacity="0.12" fill="#F5F5F5" d="M55.465,113.988c1.901,1.234,4.197,1.979,6.325,2.438
			c1.297,0.279,8.689,1.438,7.587-1.431c-0.757-1.967-4.651-1.317-6.178-1.876c-4.333-1.582-7.855-4.338-8.916-8.959
			c-0.213-0.927-0.615-3.831-2.206-3.245c-1.208,0.444-1.014,4.185-1.032,5.238c-0.042,2.321,0.911,4.583,2.544,6.296
			C54.146,113.031,54.78,113.542,55.465,113.988z"/>
	</g>
	<g>
		<g>
			<path d="M133.715,103.869c-0.34,1.586-0.756,3.133-2.057,4.637c-1.642,1.896-7.603,3.822-5.806,7.035
				c1.953,3.487,9.666,1.601,13,0.203c1.363-0.57,2.736-1.354,3.931-2.252c2.709-2.041,3.899-2.966,4.108-6.232
				c0.158-2.438-0.576-20.755-6.024-15.684c-2.507,2.336-4.562,5.188-5.992,8.238C134.227,101.191,133.998,102.543,133.715,103.869z
				"/>
		</g>
		<path opacity="0.12" fill="#F5F5F5" d="M142.146,113.229c-1.86,1.288-4.133,2.104-6.246,2.631
			c-1.289,0.32-8.645,1.719-7.637-1.164c0.695-1.978,4.611-1.465,6.119-2.068c4.283-1.716,7.717-4.569,8.627-9.19
			c0.182-0.926,0.49-3.82,2.102-3.293c1.224,0.401,1.15,4.117,1.203,5.163c0.117,2.303-0.764,4.579-2.342,6.333
			C143.436,112.235,142.816,112.762,142.146,113.229z"/>
	</g>
	<g>
		<path fill="#23B2B9" d="M72.616,77.438c-0.785-0.146-0.547-0.633-0.903-1.791c-0.108-0.354-0.432-0.847-0.787-0.981
			c-0.292-0.11-0.489,0.385-0.802,0.22c-0.797-0.423,0.019-1.38-0.577-1.817c-1.06-0.776-2.458,1.958-0.773,2.869
			c0.214,0.117,1.059,0.241,1.165,0.454c0.099,0.198-0.303,0.585-0.382,0.767c-0.18,0.407-0.146,0.8,0.143,1.146
			c0.314,0.377,0.704,0.416,0.36,0.923c-0.272,0.404-0.645,0.734-0.9,1.151c-0.381,0.623-0.853,1.89-0.156,2.485
			c0.631,0.542,1.567-0.169,1.777-0.799c0.15-0.452,0.412-0.731,0.89-0.804c0.196-0.029,0.533-0.06,0.722-0.009
			c0.27,0.07,0.435,0.345,0.744,0.317c0.394-0.034,0.787-0.503,0.925-0.842c0.157-0.384,0.275-1,0.824-0.909
			c0.434,0.071,0.604,0.362,1.105,0.222c0.63-0.178,0.889-0.705,1.202-1.238c0.358-0.607,1.03-1.057,1.524-1.552
			c0.294-0.295,0.604-0.57,0.903-0.862c0.403-0.393,0.648-0.938,1.022-1.365c-0.298,0.34-0.56,0.804-0.98,1.008
			c-0.438,0.213-0.896,0.446-1.355,0.644c-1.591,0.683-3.191,0.812-4.89,0.816C73.068,77.49,72.811,77.475,72.616,77.438z"/>
		<path fill="#23B2B9" d="M122.66,76.292c0.075-0.072,0.149-0.151,0.217-0.237c0.496-0.614,0.793-1.616,1.719-1.796
			c1.031-0.201,0.928,0.515,1.715-0.355c0.412-0.457,0.849-1.637,1.701-0.974c0.898,0.698,0.103,2.479-0.719,2.863
			c-0.229,0.105-1.117,0.203-1.232,0.403c-0.106,0.187,0.303,0.564,0.381,0.738c0.179,0.393,0.136,0.767-0.176,1.088
			c-0.34,0.351-0.748,0.377-0.399,0.87c0.274,0.392,0.655,0.714,0.911,1.118c0.386,0.601,0.847,1.819,0.105,2.37
			c-0.674,0.5-1.639-0.2-1.842-0.804c-0.146-0.435-0.414-0.708-0.91-0.787c-0.205-0.032-0.557-0.07-0.756-0.027
			c-0.283,0.061-0.463,0.318-0.785,0.284c-0.41-0.042-0.812-0.499-0.949-0.823c-0.154-0.37-0.262-0.959-0.84-0.886
			c-0.457,0.058-0.641,0.329-1.162,0.184c-0.656-0.184-0.914-0.692-1.229-1.208c-0.359-0.586-1.054-1.03-1.558-1.514
			c-0.301-0.289-0.617-0.558-0.924-0.842c-0.412-0.385-0.656-0.911-1.037-1.325c0.303,0.331,0.568,0.779,1.002,0.984
			c0.453,0.213,0.926,0.446,1.404,0.645C118.791,76.883,121.32,77.555,122.66,76.292z"/>
	</g>
</g>
</svg>
