<?xml version="1.0" encoding="utf-8"?>
<!-- Generator: Adobe Illustrator 16.0.0, SVG Export Plug-In . SVG Version: 6.00 Build 0)  -->
<!DOCTYPE svg PUBLIC "-//W3C//DTD SVG 1.1//EN" "http://www.w3.org/Graphics/SVG/1.1/DTD/svg11.dtd">
<svg version="1.1" id="Layer_1" xmlns="http://www.w3.org/2000/svg" xmlns:xlink="http://www.w3.org/1999/xlink" x="0px" y="0px"
   width="334.79364"
   height="360.9939"
   viewBox="0 0 334.79364 360.9939"
   xml:space="preserve">
<g transform="translate(-841.92485,-704.67809)">
	<g>
		<path fill="#82074A" d="M1133.871,876.551c-13.586-97.727-40.869-146.791-122.567-149.178l0,0l0,0l0,0l0,0
			c-81.698,2.387-108.991,51.451-122.566,149.178c-13.536,97.359,28.006,170.939,122.566,163.953
			C1105.846,1047.49,1147.406,973.91,1133.871,876.551z"/>
		<path fill="#3A002F" d="M1025.004,1059.978c-4.137,0-7.389-5.908-7.389-13.413c0-7.504,3.252-13.392,7.389-13.392
			c4.155,0,7.398,5.888,7.398,13.392C1032.402,1054.069,1029.159,1059.978,1025.004,1059.978z"/>
		<path fill="#3A002F" d="M1049.95,1059.978c-4.146,0-7.408-5.908-7.408-13.413c0-7.504,3.262-13.392,7.408-13.392
			c4.155,0,7.407,5.888,7.407,13.392C1057.357,1054.069,1054.105,1059.978,1049.95,1059.978z"/>
		<path fill="#3A002F" d="M1037.482,1065.672c-4.215,0-7.408-6.982-7.408-16.258c0-9.255,3.193-16.241,7.408-16.241
			c4.213,0,7.388,6.986,7.388,16.241C1044.87,1058.689,1041.695,1065.672,1037.482,1065.672z"/>
		<path fill="#3A002F" d="M972.648,1059.978c-4.146,0-7.407-5.908-7.407-13.413c0-7.504,3.261-13.392,7.407-13.392
			c4.137,0,7.389,5.888,7.389,13.392C980.037,1054.069,976.785,1059.978,972.648,1059.978z"/>
		<path fill="#3A002F" d="M997.584,1059.978c-4.146,0-7.407-5.908-7.407-13.413c0-7.504,3.261-13.392,7.407-13.392
			c4.147,0,7.388,5.888,7.388,13.392C1004.973,1054.069,1001.731,1059.978,997.584,1059.978z"/>
		<path fill="#3A002F" d="M985.107,1065.672c-4.224,0-7.398-6.982-7.398-16.258c0-9.255,3.174-16.241,7.398-16.241
			c4.214,0,7.408,6.986,7.408,16.241C992.515,1058.689,989.321,1065.672,985.107,1065.672z"/>
		<g>
			<path fill="#82074A" d="M937.495,881.803c-39.801,0-72.174-32.382-72.174-72.174c0-39.79,32.373-72.172,72.174-72.172
				c39.79,0,72.174,32.382,72.174,72.172C1009.669,849.421,977.285,881.803,937.495,881.803z"/>
			<g>
				<g>
					<path fill="#82074A" d="M914.059,877.897c1.106-3.174,3.309-5.618,5.733-7.214c2.454-1.6,5.128-2.331,7.822-1.886
						c5.195,0.922,9.688,6.251,9.881,13.005c0.009,3.367-1.376,6.447-3.907,8.523c-2.511,2.1-6.157,3.177-9.977,2.521
						c-3.819-0.614-6.936-2.828-8.629-5.618C913.27,884.438,912.952,881.071,914.059,877.897z"/>
				</g>
				<g>
					<path fill="#82074A" d="M893.182,866.563c4.3-5.194,11.131-6.675,15.788-4.175c2.396,1.291,4.059,3.539,5.012,6.292
						c0.934,2.752,1.164,6.022,0.077,9.217c-1.078,3.174-3.396,5.64-6.475,6.792c-3.059,1.154-6.859,0.961-10.255-0.884
						c-3.396-1.847-5.619-4.928-6.311-8.122C890.314,872.473,891.113,869.202,893.182,866.563z"/>
				</g>
				<g>
					<path fill="#82074A" d="M877.096,849.093c5.734-3.539,12.68-2.752,16.288,1.137c3.56,3.923,3.8,10.888-0.202,16.334
						c-2.058,2.655-5.041,4.233-8.331,4.331c-3.262,0.096-6.792-1.31-9.399-4.138c-2.617-2.849-3.724-6.485-3.339-9.718
						C872.459,853.77,874.268,850.92,877.096,849.093z"/>
				</g>
				<g>
					<path fill="#82074A" d="M867.523,827.351c3.271-0.828,6.523-0.327,9.178,0.847c2.675,1.174,4.752,3.021,5.859,5.504
						c2.097,4.849,0.058,11.524-5.465,15.392c-2.819,1.848-6.147,2.366-9.283,1.405c-3.108-0.963-6.023-3.425-7.562-6.965
						c-1.569-3.539-1.444-7.352-0.029-10.295C861.617,830.255,864.263,828.159,867.523,827.351z"/>
				</g>
				<g>
					<path fill="#82074A" d="M865.571,803.664c6.706,0.75,11.68,5.657,12.151,10.93c0.221,2.715-0.741,5.329-2.53,7.64
						c-1.78,2.289-4.397,4.271-7.668,5.117c-3.251,0.829-6.571,0.249-9.226-1.712c-2.646-1.906-4.56-5.194-4.878-9.062
						c-0.327-3.85,1.049-7.369,3.339-9.717C859.048,804.511,862.223,803.378,865.571,803.664z"/>
				</g>
				<g>
					<path fill="#82074A" d="M871.401,780.651c3.088,1.368,5.34,3.754,6.725,6.312c1.375,2.577,1.876,5.312,1.212,7.946
						c-0.664,2.635-2.415,4.79-4.85,6.406c-2.434,1.578-5.561,2.617-8.918,2.348c-3.348-0.248-6.292-1.885-8.178-4.578
						c-1.885-2.674-2.636-6.406-1.684-10.16c0.943-3.75,3.396-6.676,6.321-8.14C864.955,779.305,868.332,779.287,871.401,780.651z"
						/>
				</g>
				<g>
					<path fill="#82074A" d="M884.428,760.777c4.82,4.714,5.724,11.642,2.866,16.086c-2.934,4.386-9.639,6.33-15.893,3.788
						c-3.079-1.347-5.33-3.868-6.225-7.021c-0.895-3.139-0.414-6.91,1.722-10.143c2.107-3.232,5.368-5.193,8.611-5.618
						C878.751,757.428,881.955,758.488,884.428,760.777z"/>
				</g>
				<g>
					<path fill="#82074A" d="M903.159,746.152c1.597,2.984,1.915,6.254,1.443,9.121c-0.491,2.865-1.761,5.349-3.916,7.023
						c-4.194,3.25-11.179,2.904-16.258-1.52c-2.482-2.271-3.81-5.387-3.637-8.66c0.164-3.25,1.847-6.658,4.896-9.041
						c3.041-2.369,6.754-3.178,9.958-2.542C898.868,741.17,901.562,743.211,903.159,746.152z"/>
				</g>
				<g>
					<path fill="#82074A" d="M925.613,738.438c0.548,3.33-0.23,6.523-1.606,9.083c-1.395,2.559-3.406,4.482-5.975,5.366
						c-2.578,0.904-5.349,0.598-8.023-0.556c-2.665-1.157-5.233-3.216-6.85-6.179c-1.616-2.941-1.867-6.291-0.635-9.352
						c1.203-3.039,3.915-5.694,7.571-6.965c3.655-1.271,7.446-0.809,10.265,0.828C923.208,732.318,925.074,735.109,925.613,738.438z
						"/>
				</g>
				<g>
					<path fill="#82074A" d="M949.376,738.438c-0.568,3.33-2.328,6.1-4.464,8.081c-2.155,1.962-4.685,3.136-7.417,3.118
						c-2.742,0.018-5.263-1.156-7.418-3.118c-2.136-1.981-3.896-4.772-4.464-8.081c-0.558-3.312,0.308-6.582,2.463-9.064
						c2.126-2.462,5.561-4.096,9.419-4.116c3.857,0.021,7.282,1.654,9.418,4.137C949.068,731.855,949.943,735.126,949.376,738.438z"
						/>
				</g>
				<g>
					<path fill="#82074A" d="M971.831,746.152c-1.616,2.963-4.186,5.021-6.85,6.179c-2.675,1.153-5.446,1.46-8.024,0.556
						c-2.579-0.884-4.579-2.808-5.984-5.366c-1.367-2.56-2.136-5.753-1.597-9.083c0.539-3.312,2.405-6.119,5.252-7.773
						c2.819-1.637,6.61-2.1,10.265-0.828c3.656,1.271,6.369,3.926,7.582,6.965C973.697,739.861,973.447,743.228,971.831,746.152z"/>
				</g>
				<g>
					<path fill="#82074A" d="M990.562,760.777c-5.079,4.424-12.064,4.77-16.258,1.537c-2.155-1.672-3.425-4.176-3.916-7.041
						c-0.472-2.867-0.154-6.137,1.443-9.121c1.597-2.941,4.281-4.982,7.514-5.618c3.204-0.636,6.907,0.173,9.958,2.559
						c3.049,2.366,4.733,5.774,4.887,9.045C994.372,755.408,993.054,758.506,990.562,760.777z"/>
				</g>
				<g>
					<path fill="#82074A" d="M1003.588,780.651c-6.253,2.542-12.959,0.618-15.883-3.788c-2.876-4.444-1.973-11.372,2.857-16.086
						c2.473-2.289,5.667-3.35,8.919-2.907c3.242,0.425,6.504,2.386,8.609,5.618c2.137,3.232,2.617,7.004,1.723,10.143
						C1008.928,776.805,1006.667,779.305,1003.588,780.651z"/>
				</g>
				<g>
					<path fill="#82074A" d="M1009.418,803.664c-3.357,0.27-6.484-0.77-8.908-2.348c-2.444-1.616-4.195-3.771-4.859-6.406
						c-0.673-2.635-0.163-5.369,1.223-7.946c1.375-2.541,3.636-4.944,6.714-6.312c3.069-1.364,6.445-1.347,9.371,0.135
						c2.924,1.464,5.377,4.39,6.32,8.14c0.952,3.754,0.202,7.486-1.684,10.16C1015.711,801.779,1012.766,803.416,1009.418,803.664z"
						/>
				</g>
				<g>
					<path fill="#82074A" d="M1007.465,827.351c-3.262-0.828-5.887-2.828-7.677-5.117c-1.78-2.311-2.742-4.925-2.52-7.64
						c0.471-5.272,5.445-10.18,12.15-10.93c3.348-0.269,6.523,0.867,8.812,3.216c2.289,2.327,3.666,5.867,3.329,9.714
						c-0.308,3.851-2.222,7.139-4.868,9.045C1014.036,827.6,1010.717,828.197,1007.465,827.351z"/>
				</g>
				<g>
					<path fill="#82074A" d="M997.893,849.093c-5.532-3.867-7.562-10.543-5.465-15.392c1.106-2.482,3.185-4.33,5.85-5.504
						c2.665-1.153,5.917-1.654,9.187-0.847c3.262,0.809,5.898,2.925,7.303,5.888c1.404,2.943,1.539,6.756-0.029,10.295
						c-1.549,3.54-4.454,6.002-7.571,6.965C1004.03,851.459,1000.702,850.94,997.893,849.093z"/>
				</g>
				<g>
					<path fill="#82074A" d="M981.798,866.563c-3.993-5.446-3.762-12.411-0.202-16.334c3.617-3.889,10.553-4.676,16.297-1.137
						c2.818,1.827,4.627,4.677,4.993,7.946c0.366,3.232-0.731,6.869-3.358,9.718c-2.607,2.828-6.137,4.233-9.408,4.138
						C986.848,870.797,983.856,869.219,981.798,866.563z"/>
				</g>
				<g>
					<path fill="#82074A" d="M960.92,877.897c-1.087-3.194-0.856-6.465,0.077-9.217c0.962-2.753,2.617-5.001,5.022-6.292
						c4.657-2.5,11.477-1.02,15.778,4.175c2.078,2.655,2.866,5.926,2.164,9.12c-0.683,3.194-2.915,6.275-6.311,8.122
						c-3.396,1.845-7.197,2.038-10.256,0.884C964.317,883.537,961.998,881.071,960.92,877.897z"/>
				</g>
				<g>
					<path fill="#82074A" d="M937.495,881.803c0.191-6.754,4.675-12.083,9.87-13.005c2.694-0.445,5.369,0.286,7.822,1.886
						c2.424,1.596,4.628,4.04,5.733,7.214c1.107,3.174,0.789,6.54-0.923,9.331c-1.693,2.79-4.81,5.004-8.629,5.618
						c-3.81,0.656-7.466-0.421-9.967-2.521C938.861,888.25,937.475,885.17,937.495,881.803z"/>
				</g>
			</g>
		</g>
		<g>
			<path fill="#82074A" d="M1086.113,881.803c39.801,0,72.174-32.382,72.174-72.174c0-39.79-32.373-72.172-72.174-72.172
				c-39.79,0-72.174,32.382-72.174,72.172C1013.939,849.421,1046.323,881.803,1086.113,881.803z"/>
			<g>
				<g>
					<path fill="#82074A" d="M1109.549,877.897c1.117,3.174,0.789,6.54-0.924,9.331c-1.701,2.79-4.811,4.982-8.629,5.618
						c-3.82,0.656-7.475-0.421-9.967-2.521c-2.53-2.076-3.916-5.156-3.916-8.523c0.02-3.367,1.299-6.405,3.088-8.695
						c1.799-2.289,4.109-3.851,6.803-4.31c2.684-0.445,5.368,0.286,7.811,1.886C1106.24,872.279,1108.443,874.724,1109.549,877.897z
						"/>
				</g>
				<g>
					<path fill="#82074A" d="M1130.427,866.563c2.087,2.639,2.876,5.926,2.164,9.12c-0.683,3.194-2.925,6.275-6.312,8.122
						c-3.396,1.845-7.196,2.038-10.246,0.884c-3.088-1.152-5.396-3.618-6.484-6.792c-1.086-3.194-0.855-6.485,0.087-9.217
						c0.953-2.77,2.607-5.001,5.003-6.292c2.396-1.309,5.176-1.481,8.015-0.787C1125.472,862.312,1128.349,863.908,1130.427,866.563
						z"/>
				</g>
				<g>
					<path fill="#82074A" d="M1146.521,849.076c2.818,1.844,4.627,4.693,4.992,7.945c0.367,3.232-0.73,6.887-3.357,9.735
						c-2.607,2.828-6.137,4.233-9.398,4.116c-3.281-0.076-6.264-1.654-8.331-4.31c-2.06-2.655-2.906-5.85-2.925-8.754
						c0.019-2.904,0.875-5.581,2.723-7.58c1.855-2.021,4.426-3.081,7.34-3.329C1140.461,846.669,1143.703,847.246,1146.521,849.076z
						"/>
				</g>
				<g>
					<path fill="#82074A" d="M1156.084,827.351c3.262,0.809,5.908,2.904,7.303,5.888c1.414,2.943,1.549,6.756-0.02,10.274
						c-1.549,3.561-4.454,6.022-7.572,6.965c-3.136,0.981-6.464,0.463-9.273-1.401c-2.809-1.848-4.637-4.583-5.59-7.332
						c-0.923-2.752-0.971-5.542,0.115-8.043c1.107-2.482,3.186-4.33,5.85-5.521C1149.562,827.044,1152.813,826.522,1156.084,827.351
						z"/>
				</g>
				<g>
					<path fill="#82074A" d="M1158.037,803.664c3.357-0.286,6.533,0.847,8.822,3.195c2.279,2.327,3.656,5.867,3.338,9.717
						c-0.326,3.868-2.231,7.139-4.877,9.062c-2.655,1.943-5.975,2.541-9.236,1.712c-3.261-0.846-5.887-2.828-7.668-5.117
						c-1.789-2.311-2.751-4.925-2.52-7.659c0.23-2.694,1.587-5.136,3.732-7.118C1151.774,805.475,1154.68,803.955,1158.037,803.664z
						"/>
				</g>
				<g>
					<path fill="#82074A" d="M1152.207,780.635c3.068-1.348,6.446-1.33,9.37,0.151c2.925,1.464,5.379,4.368,6.331,8.122
						c0.943,3.75,0.192,7.504-1.684,10.156c-1.896,2.697-4.83,4.331-8.188,4.6c-3.357,0.27-6.484-0.77-8.908-2.348
						c-2.435-1.616-4.195-3.771-4.859-6.406c-0.673-2.635-0.153-5.369,1.223-7.946
						C1146.877,784.405,1149.129,781.998,1152.207,780.635z"/>
				</g>
				<g>
					<path fill="#82074A" d="M1139.19,760.777c2.463-2.289,5.667-3.367,8.909-2.907c3.242,0.425,6.503,2.386,8.619,5.618
						c2.127,3.215,2.607,7.004,1.713,10.143c-0.895,3.152-3.146,5.656-6.225,7.004c-3.098,1.363-6.379,1.401-9.197,0.69
						c-2.838-0.712-5.176-2.193-6.686-4.482c-1.502-2.29-1.906-5.042-1.443-7.908
						C1135.361,766.047,1136.718,763.067,1139.19,760.777z"/>
				</g>
				<g>
					<path fill="#82074A" d="M1120.459,746.152c1.588-2.941,4.281-4.982,7.504-5.618c3.205-0.636,6.918,0.173,9.957,2.542
						c3.051,2.383,4.734,5.791,4.896,9.041c0.174,3.273-1.145,6.389-3.626,8.66c-2.491,2.27-5.589,3.367-8.476,3.616
						c-2.925,0.231-5.638-0.404-7.783-2.097c-2.165-1.675-3.424-4.158-3.926-7.023
						C1118.545,752.406,1118.853,749.115,1120.459,746.152z"/>
				</g>
				<g>
					<path fill="#82074A" d="M1097.996,738.438c0.538-3.328,2.404-6.14,5.252-7.773c2.818-1.637,6.6-2.1,10.266-0.828
						c3.656,1.25,6.368,3.926,7.58,6.965c1.223,3.043,0.982,6.41-0.635,9.352c-1.625,2.963-4.194,5.021-6.859,6.179
						c-2.674,1.153-5.445,1.439-8.023,0.556c-2.568-0.884-4.58-2.808-5.984-5.366
						C1098.217,744.961,1097.457,741.746,1097.996,738.438z"/>
				</g>
				<g>
					<path fill="#82074A" d="M1074.232,738.438c-0.567-3.312,0.309-6.582,2.463-9.044c2.136-2.482,5.561-4.116,9.418-4.137
						c3.85,0.021,7.283,1.654,9.419,4.116c2.165,2.482,3.021,5.753,2.464,9.064c-0.568,3.309-2.329,6.1-4.465,8.061
						c-2.154,1.982-4.676,3.156-7.418,3.139c-2.731,0.018-5.262-1.156-7.417-3.118
						C1076.57,744.537,1074.799,741.746,1074.232,738.438z"/>
				</g>
				<g>
					<path fill="#82074A" d="M1051.777,746.152c-1.625-2.925-1.866-6.291-0.645-9.352c1.213-3.039,3.926-5.694,7.581-6.965
						c3.656-1.271,7.447-0.809,10.266,0.828c2.848,1.654,4.714,4.462,5.253,7.773c0.539,3.33-0.23,6.523-1.607,9.083
						c-1.395,2.559-3.405,4.482-5.974,5.366c-2.579,0.884-5.349,0.598-8.033-0.556
						C1055.963,751.174,1053.395,749.115,1051.777,746.152z"/>
				</g>
				<g>
					<path fill="#82074A" d="M1033.046,760.777c-2.491-2.271-3.81-5.369-3.636-8.64c0.164-3.271,1.848-6.679,4.896-9.045
						c3.041-2.386,6.754-3.194,9.957-2.559c3.232,0.636,5.917,2.677,7.514,5.618c1.598,2.963,1.916,6.254,1.443,9.121
						c-0.49,2.865-1.761,5.369-3.925,7.041c-2.146,1.675-4.858,2.311-7.773,2.079
						C1038.627,764.162,1035.528,763.047,1033.046,760.777z"/>
				</g>
				<g>
					<path fill="#82074A" d="M1020.02,780.651c-3.078-1.347-5.33-3.868-6.215-7.021c-0.904-3.139-0.423-6.91,1.703-10.143
						c2.117-3.232,5.379-5.193,8.62-5.618c3.243-0.442,6.446,0.618,8.918,2.907c2.464,2.29,3.819,5.291,4.302,8.157
						c0.471,2.887,0.047,5.64-1.435,7.929c-1.52,2.269-3.857,3.75-6.696,4.482C1026.408,782.036,1023.108,781.998,1020.02,780.651z"
						/>
				</g>
				<g>
					<path fill="#82074A" d="M1025.715,849.093c-2.809,1.848-6.138,2.387-9.273,1.405c-3.117-0.963-6.022-3.425-7.571-6.965
						c-1.569-3.539-1.435-7.352-0.029-10.295c1.405-2.963,4.041-5.079,7.302-5.888c3.271-0.808,6.523-0.307,9.188,0.847
						c2.666,1.174,4.744,3.021,5.859,5.504c1.088,2.501,1.049,5.291,0.105,8.043
						C1030.353,844.493,1028.525,847.229,1025.715,849.093z"/>
				</g>
				<g>
					<path fill="#82074A" d="M1041.811,866.563c-2.059,2.655-5.041,4.233-8.322,4.31c-3.262,0.117-6.791-1.288-9.408-4.116
						c-2.617-2.849-3.723-6.485-3.357-9.718c0.365-3.27,2.174-6.119,4.992-7.946c2.819-1.847,6.061-2.424,8.957-2.192
						c2.916,0.248,5.484,1.326,7.331,3.329c1.857,1.999,2.714,4.676,2.724,7.58C1044.727,860.714,1043.869,863.908,1041.811,866.563
						z"/>
				</g>
				<g>
					<path fill="#82074A" d="M1062.688,877.897c-1.077,3.174-3.396,5.64-6.475,6.792c-3.061,1.154-6.859,0.961-10.246-0.884
						c-3.406-1.847-5.629-4.928-6.32-8.122c-0.703-3.194,0.086-6.481,2.164-9.12c2.088-2.655,4.965-4.251,7.773-4.962
						c2.839-0.694,5.619-0.521,8.005,0.787c2.405,1.291,4.069,3.522,5.022,6.292
						C1063.544,871.412,1063.775,874.703,1062.688,877.897z"/>
				</g>
				<g>
					<path fill="#82074A" d="M1086.113,881.803c0.02,3.367-1.365,6.447-3.906,8.523c-2.5,2.1-6.146,3.177-9.967,2.521
						c-3.819-0.636-6.926-2.828-8.619-5.618c-1.732-2.791-2.04-6.157-0.934-9.331c1.105-3.174,3.31-5.618,5.733-7.214
						c2.454-1.6,5.138-2.331,7.821-1.886c2.686,0.459,4.984,2.021,6.793,4.31C1084.824,875.397,1086.113,878.436,1086.113,881.803z"
						/>
				</g>
			</g>
		</g>
		<g>
			<path fill="#82074A" d="M944.113,709.827c-37.298,7.483-46.4,19.815-69.817,16.97c-4.069-0.674-9.158-3.156-10.688-6.679
				c-0.78-1.806-1.443-3.423-1.588-5.097c-0.038-0.829,0.02-1.676,0.231-2.542l0.202-0.632c-0.039-0.021,0.202-0.463,0.298-0.674
				c0.164-0.349,0.336-0.635,0.616-1.001c1.039-1.33,2.694-2.176,4.368-2.097c0.846,0.056,1.674,0.27,2.462,0.729
				c0.664,0.387,1.328,1.078,1.722,1.886c0.895,1.599,0.924,3.905-0.096,5.64c-1,1.691-3.252,2.521-5.119,1.578l-0.211,0.441
				c1.885,1.348,4.724,1.002,6.398-1.077c1.635-2.021,2.106-5.118,1.097-7.715c-2.204-5.563-9.188-6.409-13.2-2.331
				c-0.481,0.463-0.981,1.099-1.395,1.734c-0.174,0.307-0.25,0.345-0.52,0.866l-0.462,0.96c-0.586,1.33-0.788,2.866-0.923,4.369
				c-1.145,12.601,10.698,19.317,15.431,22.166c10.91,5.926,48.373,18.203,70.211,15.316c47.256-6.234,86.317,10.408,87.586,4.73
				C1033.152,746.539,995.325,699.533,944.113,709.827z"/>
			<path fill="#82074A" d="M1078.504,709.827c37.289,7.483,46.4,19.815,69.807,16.97c4.061-0.674,9.159-3.156,10.698-6.679
				c0.771-1.806,1.433-3.423,1.588-5.097c0.038-0.829-0.029-1.676-0.241-2.542l-0.201-0.632c0.038-0.021-0.203-0.463-0.289-0.674
				c-0.174-0.349-0.346-0.635-0.625-1.001c-1.029-1.33-2.674-2.176-4.357-2.097c-0.857,0.056-1.675,0.27-2.464,0.729
				c-0.663,0.387-1.337,1.078-1.731,1.886c-0.895,1.599-0.924,3.905,0.105,5.64c0.99,1.691,3.242,2.521,5.109,1.578l0.221,0.441
				c-1.886,1.348-4.724,1.002-6.408-1.077c-1.625-2.021-2.106-5.118-1.086-7.715c2.193-5.563,9.178-6.409,13.189-2.331
				c0.48,0.463,0.99,1.099,1.404,1.734c0.174,0.307,0.241,0.345,0.51,0.866l0.461,0.96c0.588,1.33,0.79,2.866,0.934,4.369
				c1.136,12.601-10.697,19.317-15.431,22.166c-10.91,5.926-48.382,18.203-70.222,15.316c-47.256-6.234-86.306,10.408-87.585,4.73
				C989.465,746.539,1027.293,699.533,1078.504,709.827z"/>
		</g>
		<path fill="#EAE5D3" d="M997.719,809.629c3.357,0.021,6.398-1.364,8.496-3.944c2.049-2.559,3.088-6.31,2.299-10.177
			c-0.799-3.867-3.107-6.965-6.022-8.526c-2.896-1.596-6.282-1.692-9.37-0.384l0,0c3.136-1.287,5.397-3.732,6.349-6.927
			c0.895-3.136,0.415-7.003-1.798-10.273c-2.203-3.253-5.542-5.197-8.813-5.543c-3.3-0.345-6.445,0.829-8.802,3.215l0,0
			c2.385-2.368,3.569-5.505,3.213-8.812c-0.336-3.253-2.28-6.6-5.542-8.813c-3.271-2.192-7.139-2.676-10.274-1.788
			c-3.194,0.942-5.628,3.211-6.918,6.347l0,0c1.29-3.098,1.203-6.481-0.404-9.369c-1.549-2.925-4.656-5.234-8.514-6.022
			c-3.877-0.79-7.619,0.249-10.168,2.29c-2.588,2.096-3.965,5.156-3.954,8.506l0,0l0,0l0,0c0.019-3.35-1.367-6.41-3.954-8.506
			c-2.55-2.041-6.302-3.08-10.169-2.29c-3.858,0.788-6.965,3.098-8.523,6.022c-1.597,2.888-1.685,6.271-0.385,9.352l0,0l0,0l0,0
			c-1.299-3.118-3.733-5.387-6.927-6.329c-3.136-0.905-7.003-0.404-10.265,1.788c-3.271,2.214-5.214,5.561-5.551,8.813
			c-0.355,3.308,0.828,6.444,3.213,8.812l0,0l0,0l0,0c-2.366-2.386-5.512-3.56-8.803-3.215c-3.271,0.328-6.609,2.29-8.822,5.543
			c-2.202,3.271-2.684,7.138-1.789,10.273c0.952,3.194,3.213,5.64,6.339,6.906l0,0c-3.079-1.288-6.474-1.191-9.36,0.404
			c-2.916,1.562-5.233,4.659-6.022,8.526s0.25,7.618,2.29,10.177c2.097,2.58,5.147,3.944,8.504,3.944l0,0l0,0l0,0
			c-3.357-0.018-6.407,1.367-8.504,3.947c-2.04,2.559-3.079,6.309-2.29,10.177c0.789,3.867,3.107,6.965,6.012,8.522
			c2.896,1.599,6.282,1.695,9.371,0.387l0,0l0,0l0,0c-3.136,1.288-5.387,3.733-6.339,6.928c-0.896,3.135-0.414,7.003,1.789,10.273
			c2.203,3.253,5.551,5.215,8.813,5.543c3.3,0.345,6.446-0.829,8.803-3.216l0,0l0,0l0,0c-2.376,2.366-3.56,5.505-3.213,8.813
			c0.336,3.253,2.29,6.6,5.551,8.812c3.271,2.193,7.129,2.693,10.265,1.789c3.194-0.96,5.638-3.212,6.928-6.351l0,0
			c-1.299,3.08-1.203,6.485,0.395,9.372c1.558,2.904,4.666,5.232,8.514,6.022c3.876,0.788,7.628-0.252,10.179-2.289
			c2.578-2.1,3.963-5.156,3.954-8.506c-0.02,3.35,1.366,6.406,3.943,8.506c2.55,2.037,6.302,3.077,10.169,2.289
			c3.868-0.79,6.975-3.118,8.523-6.022c1.607-2.887,1.694-6.292,0.395-9.372l0,0c1.289,3.139,3.733,5.391,6.928,6.351
			c3.136,0.904,7.003,0.404,10.265-1.789c3.261-2.213,5.215-5.56,5.551-8.812c0.346-3.309-0.837-6.447-3.213-8.813l0,0
			c2.357,2.387,5.502,3.581,8.802,3.216c3.271-0.328,6.61-2.272,8.813-5.543c2.213-3.271,2.693-7.139,1.798-10.273
			c-0.952-3.194-3.213-5.64-6.349-6.928l0,0c3.088,1.309,6.474,1.212,9.37-0.387c2.915-1.558,5.224-4.655,6.022-8.522
			c0.789-3.868-0.25-7.618-2.299-10.16C1004.117,810.996,1001.076,809.611,997.719,809.629z"/>
		<path fill="#FBFAF6" d="M983.385,809.629c0,25.34-20.549,45.891-45.89,45.891c-25.341,0-45.9-20.551-45.9-45.891
			c0-25.341,20.559-45.889,45.9-45.889C962.835,763.74,983.385,784.288,983.385,809.629z"/>
		<g>
			<g>
				<path fill="#3A002F" d="M935.061,848.807c-0.934-1.232-1.77-2.466-2.492-3.733c-0.722-1.271-1.328-2.559-1.818-3.867
					c1.76,0.749,3.608,1.309,5.484,1.671c1.876,0.387,3.8,0.56,5.724,0.58c-0.962,0.98-2.021,1.941-3.175,2.846
					C937.639,847.19,936.397,848.036,935.061,848.807z"/>
			</g>
			<g>
				<path fill="#3A002F" d="M922.313,843.495c-0.395-1.481-0.683-2.945-0.856-4.389c-0.183-1.461-0.25-2.884-0.221-4.272
					c1.366,1.368,2.847,2.58,4.444,3.657s3.29,1.982,5.07,2.715c-1.279,0.556-2.617,1.039-4.031,1.423
					C925.315,843.012,923.843,843.302,922.313,843.495z"/>
			</g>
			<g>
				<path fill="#3A002F" d="M912.578,833.739c0.192-1.519,0.49-2.983,0.875-4.389c0.395-1.423,0.866-2.749,1.434-4.02
					c0.722,1.751,1.636,3.464,2.704,5.059c1.067,1.599,2.299,3.098,3.646,4.444c-1.386,0.042-2.81-0.037-4.262-0.211
					C915.531,834.43,914.059,834.144,912.578,833.739z"/>
			</g>
			<g>
				<path fill="#3A002F" d="M907.295,820.982c0.76-1.329,1.607-2.559,2.492-3.715c0.905-1.154,1.876-2.211,2.867-3.153
					c0,1.903,0.183,3.826,0.558,5.712c0.375,1.886,0.933,3.732,1.674,5.505c-1.299-0.519-2.598-1.137-3.857-1.827
					C909.759,822.771,908.517,821.926,907.295,820.982z"/>
			</g>
			<g>
				<path fill="#3A002F" d="M907.295,807.204c1.222-0.942,2.473-1.769,3.733-2.5c1.27-0.712,2.568-1.309,3.857-1.81
					c-0.731,1.751-1.289,3.619-1.674,5.484c-0.365,1.885-0.558,3.809-0.558,5.735c-0.991-0.984-1.962-2.021-2.867-3.177
					C908.902,809.784,908.065,808.533,907.295,807.204z"/>
			</g>
			<g>
				<path fill="#3A002F" d="M912.587,794.469c1.491-0.404,2.954-0.694,4.396-0.885c1.453-0.176,2.887-0.231,4.262-0.214
					c-1.356,1.368-2.578,2.849-3.636,4.444c-1.077,1.6-1.992,3.291-2.723,5.08c-0.558-1.268-1.039-2.617-1.424-4.041
					C913.077,797.448,912.779,795.988,912.587,794.469z"/>
			</g>
			<g>
				<path fill="#3A002F" d="M922.332,784.713c1.521,0.193,2.993,0.479,4.407,0.866c1.405,0.384,2.751,0.864,4.012,1.423
					c-1.76,0.732-3.463,1.654-5.05,2.715c-1.607,1.057-3.099,2.289-4.455,3.653c-0.019-1.385,0.048-2.808,0.212-4.271
					C921.649,787.654,921.938,786.194,922.332,784.713z"/>
			</g>
			<g>
				<path fill="#3A002F" d="M935.08,779.422c1.327,0.75,2.578,1.596,3.723,2.479c1.145,0.905,2.213,1.868,3.165,2.87
					c-1.923,0-3.829,0.189-5.724,0.556c-1.876,0.366-3.714,0.942-5.494,1.675c0.5-1.288,1.116-2.579,1.837-3.867
					C933.3,781.885,934.137,780.635,935.08,779.422z"/>
			</g>
			<g>
				<path fill="#3A002F" d="M948.866,779.422c0.943,1.213,1.78,2.463,2.492,3.733c0.712,1.268,1.328,2.559,1.829,3.847
					c-1.771-0.732-3.617-1.288-5.493-1.675c-1.886-0.366-3.801-0.556-5.725-0.556c0.963-1.002,2.021-1.965,3.166-2.87
					C946.288,781.018,947.538,780.192,948.866,779.422z"/>
			</g>
			<g>
				<path fill="#3A002F" d="M961.613,784.713c0.395,1.481,0.684,2.963,0.866,4.406c0.164,1.461,0.231,2.887,0.212,4.271
					c-1.357-1.367-2.848-2.579-4.445-3.656c-1.587-1.078-3.29-1.982-5.06-2.732c1.27-0.559,2.617-1.019,4.021-1.423
					C958.622,785.213,960.084,784.924,961.613,784.713z"/>
			</g>
			<g>
				<path fill="#3A002F" d="M971.35,794.485c-0.192,1.523-0.491,2.983-0.875,4.39c-0.385,1.402-0.866,2.752-1.424,4.02
					c-0.73-1.769-1.645-3.464-2.712-5.06c-1.068-1.599-2.29-3.097-3.646-4.444c1.375-0.038,2.808,0.038,4.261,0.211
					C968.396,793.795,969.868,794.082,971.35,794.485z"/>
			</g>
			<g>
				<path fill="#3A002F" d="M976.631,807.225c-0.76,1.326-1.597,2.58-2.492,3.713c-0.904,1.174-1.866,2.213-2.857,3.177
					c0-1.927-0.192-3.829-0.568-5.715c-0.365-1.886-0.924-3.733-1.665-5.505c1.299,0.501,2.588,1.115,3.858,1.83
					C974.168,805.453,975.418,806.282,976.631,807.225z"/>
			</g>
			<g>
				<path fill="#3A002F" d="M976.631,821c-1.222,0.943-2.463,1.789-3.723,2.504c-1.28,0.711-2.569,1.326-3.868,1.827
					c0.741-1.772,1.299-3.619,1.674-5.484c0.375-1.886,0.568-3.809,0.568-5.732c0.991,0.96,1.953,2.021,2.857,3.174
					C975.035,818.441,975.871,819.691,976.631,821z"/>
			</g>
			<g>
				<path fill="#3A002F" d="M971.34,833.757c-1.482,0.387-2.954,0.673-4.397,0.866c-1.453,0.174-2.886,0.253-4.262,0.211
					c1.357-1.347,2.588-2.846,3.646-4.444c1.078-1.578,1.981-3.287,2.713-5.059c0.559,1.271,1.049,2.617,1.424,4.02
					C970.858,830.756,971.147,832.237,971.34,833.757z"/>
			</g>
			<g>
				<path fill="#3A002F" d="M961.594,843.513c-1.521-0.19-2.992-0.501-4.396-0.884c-1.404-0.384-2.752-0.867-4.021-1.423
					c1.76-0.732,3.462-1.638,5.06-2.715c1.588-1.057,3.088-2.289,4.445-3.657c0.02,1.389-0.038,2.828-0.221,4.272
					C962.277,840.55,961.998,842.031,961.594,843.513z"/>
			</g>
			<g>
				<path fill="#3A002F" d="M948.847,848.807c-1.328-0.771-2.569-1.616-3.724-2.504c-1.154-0.904-2.203-1.865-3.165-2.846
					c1.924-0.021,3.838-0.193,5.714-0.58c1.886-0.362,3.724-0.922,5.504-1.671c-0.51,1.309-1.117,2.597-1.829,3.867
					C950.627,846.341,949.79,847.574,948.847,848.807z"/>
			</g>
		</g>
		<path fill="#3A002F" d="M917.542,814.114c0,13.485,10.929,24.436,24.417,24.436s24.437-10.95,24.437-24.436
			c0-13.489-10.949-24.456-24.437-24.456S917.542,800.625,917.542,814.114z"/>
		<path fill="#FBFAF6" d="M944.633,833.664c-4.801-1.002-7.927-5.602-6.975-10.201c0.971-4.635,5.686-7.598,10.486-6.6
			c4.84,1.002,7.966,5.602,6.995,10.256C954.176,831.699,949.481,834.683,944.633,833.664z"/>
		<path fill="#FBFAF6" d="M934.512,834.662c-1.135,0.307-2.319-0.346-2.598-1.424c-0.298-1.115,0.395-2.271,1.539-2.579
			c1.154-0.286,2.319,0.349,2.617,1.464C936.349,833.219,935.667,834.354,934.512,834.662z"/>
		<path fill="#FBFAF6" d="M930.27,830.794c-1.761,0.463-3.579-0.539-4.012-2.252c-0.462-1.692,0.597-3.46,2.376-3.943
			c1.78-0.459,3.589,0.539,4.031,2.251C933.126,828.542,932.049,830.314,930.27,830.794z"/>
		<path fill="#EAE5D3" d="M1154.834,813.576c-2.088-2.58-5.138-3.965-8.495-3.947l0,0l0,0l0,0c3.357,0,6.407-1.364,8.495-3.961
			c2.049-2.542,3.088-6.293,2.299-10.16s-3.107-6.965-6.022-8.526c-2.896-1.596-6.282-1.692-9.37-0.404l0,0
			c3.136-1.267,5.396-3.712,6.35-6.906c0.895-3.136,0.404-7.003-1.79-10.273c-2.213-3.271-5.55-5.215-8.821-5.543
			c-3.3-0.345-6.445,0.829-8.804,3.215l0,0l0,0l0,0c2.386-2.368,3.569-5.505,3.214-8.812c-0.338-3.271-2.29-6.6-5.541-8.813
			c-3.271-2.192-7.139-2.693-10.275-1.788c-3.193,0.942-5.638,3.211-6.927,6.329l0,0c1.309-3.08,1.212-6.464-0.386-9.352
			c-1.567-2.925-4.665-5.234-8.523-6.022c-3.877-0.79-7.629,0.249-10.178,2.29c-2.578,2.096-3.965,5.156-3.945,8.506l0,0l0,0l0,0
			c0.01-3.35-1.375-6.41-3.954-8.506c-2.55-2.041-6.302-3.08-10.168-2.29c-3.868,0.788-6.966,3.098-8.524,6.022
			c-1.597,2.888-1.684,6.271-0.395,9.369l0,0c-1.289-3.136-3.723-5.404-6.927-6.347c-3.137-0.888-6.994-0.404-10.265,1.788
			c-3.262,2.214-5.205,5.561-5.552,8.83c-0.347,3.291,0.837,6.428,3.223,8.796l0,0c-2.366-2.386-5.513-3.56-8.812-3.215
			c-3.262,0.346-6.601,2.29-8.812,5.543c-2.204,3.271-2.686,7.138-1.791,10.273c0.953,3.194,3.214,5.64,6.341,6.906l0,0
			c-3.079-1.288-6.476-1.191-9.37,0.404c-2.906,1.562-5.225,4.659-6.013,8.526c-0.789,3.867,0.249,7.618,2.3,10.177
			c2.087,2.58,5.137,3.965,8.494,3.944c-3.357-0.018-6.407,1.367-8.494,3.964c-2.051,2.542-3.089,6.292-2.3,10.16
			c0.788,3.867,3.106,6.965,6.022,8.522c2.885,1.599,6.281,1.695,9.36,0.404l0,0c-3.127,1.271-5.388,3.716-6.341,6.91
			c-0.895,3.135-0.403,7.003,1.791,10.273c2.212,3.271,5.561,5.215,8.822,5.56c3.299,0.349,6.436-0.846,8.802-3.232l0,0
			c-2.376,2.366-3.56,5.505-3.214,8.813c0.338,3.253,2.291,6.6,5.552,8.812c3.271,2.193,7.129,2.693,10.265,1.789
			c3.195-0.96,5.639-3.212,6.928-6.351l0,0c-1.299,3.08-1.203,6.485,0.395,9.372c1.559,2.904,4.656,5.232,8.515,6.022
			c3.876,0.788,7.628-0.252,10.178-2.289c2.579-2.1,3.964-5.156,3.944-8.506c-0.01,3.35,1.377,6.406,3.954,8.506
			c2.55,2.037,6.302,3.077,10.179,2.289c3.858-0.79,6.956-3.118,8.523-6.022c1.598-2.887,1.685-6.292,0.385-9.372l0,0
			c1.28,3.139,3.725,5.391,6.928,6.351c3.136,0.884,7.004,0.404,10.266-1.789c3.26-2.213,5.215-5.56,5.551-8.812
			c0.346-3.309-0.838-6.447-3.213-8.813l0,0l0,0l0,0c2.356,2.387,5.502,3.561,8.803,3.216c3.271-0.35,6.609-2.29,8.812-5.543
			c2.203-3.271,2.685-7.139,1.79-10.273c-0.953-3.194-3.214-5.64-6.34-6.928l0,0l0,0l0,0c3.088,1.309,6.475,1.212,9.369-0.387
			c2.906-1.558,5.225-4.676,6.014-8.522C1157.922,819.885,1156.883,816.113,1154.834,813.576z"/>
		<g>
			<path fill="#FBFAF6" d="M1039.137,809.629c0,25.34,20.549,45.891,45.899,45.891c25.341,0,45.89-20.551,45.89-45.891
				c0-25.341-20.549-45.889-45.89-45.889C1059.686,763.74,1039.137,784.288,1039.137,809.629z"/>
			<path fill="#3A002F" d="M1104.98,814.114c0,13.485-10.93,24.436-24.408,24.436c-13.498,0-24.445-10.95-24.445-24.436
				c0-13.489,10.947-24.456,24.445-24.456C1094.051,789.658,1104.98,800.625,1104.98,814.114z"/>
			<g>
				<g>
					<path fill="#3A002F" d="M1073.645,848.807c-0.933-1.232-1.76-2.466-2.481-3.733c-0.722-1.271-1.337-2.559-1.827-3.867
						c1.77,0.749,3.607,1.309,5.492,1.671c1.887,0.387,3.801,0.56,5.715,0.58c-0.952,0.98-2.01,1.941-3.164,2.846
						C1076.233,847.19,1074.982,848.036,1073.645,848.807z"/>
				</g>
				<g>
					<path fill="#3A002F" d="M1060.908,843.495c-0.395-1.481-0.684-2.945-0.857-4.389c-0.172-1.461-0.249-2.884-0.221-4.272
						c1.356,1.368,2.848,2.58,4.444,3.657c1.588,1.077,3.291,1.982,5.062,2.715c-1.271,0.556-2.617,1.039-4.021,1.423
						C1063.909,843.012,1062.438,843.302,1060.908,843.495z"/>
				</g>
				<g>
					<path fill="#3A002F" d="M1051.172,833.739c0.192-1.519,0.49-2.983,0.875-4.389c0.385-1.423,0.866-2.749,1.424-4.02
						c0.731,1.751,1.646,3.464,2.713,5.059c1.068,1.599,2.29,3.098,3.646,4.444c-1.386,0.042-2.818-0.037-4.262-0.211
						C1054.115,834.43,1052.653,834.144,1051.172,833.739z"/>
				</g>
				<g>
					<path fill="#3A002F" d="M1045.89,820.982c0.76-1.329,1.606-2.559,2.491-3.715c0.905-1.154,1.867-2.211,2.858-3.153
						c0,1.903,0.192,3.826,0.567,5.712c0.365,1.886,0.934,3.732,1.664,5.505c-1.299-0.519-2.578-1.137-3.857-1.827
						C1048.354,822.771,1047.111,821.926,1045.89,820.982z"/>
				</g>
				<g>
					<path fill="#3A002F" d="M1045.89,807.204c1.222-0.942,2.464-1.769,3.733-2.5c1.27-0.712,2.559-1.309,3.848-1.81
						c-0.73,1.751-1.289,3.619-1.664,5.484c-0.375,1.885-0.567,3.809-0.567,5.735c-0.991-0.984-1.953-2.021-2.858-3.177
						C1047.496,809.784,1046.66,808.533,1045.89,807.204z"/>
				</g>
				<g>
					<path fill="#3A002F" d="M1051.182,794.469c1.48-0.404,2.953-0.694,4.396-0.885c1.452-0.176,2.887-0.231,4.262-0.214
						c-1.356,1.368-2.578,2.849-3.656,4.444c-1.058,1.6-1.973,3.291-2.713,5.08c-0.549-1.268-1.029-2.617-1.424-4.041
						C1051.672,797.448,1051.373,795.988,1051.182,794.469z"/>
				</g>
				<g>
					<path fill="#3A002F" d="M1060.917,784.713c1.53,0.193,2.992,0.479,4.407,0.866c1.404,0.384,2.75,0.864,4.021,1.423
						c-1.761,0.732-3.464,1.654-5.07,2.715c-1.587,1.057-3.079,2.289-4.435,3.653c-0.02-1.385,0.039-2.808,0.211-4.271
						C1060.234,787.654,1060.533,786.194,1060.917,784.713z"/>
				</g>
				<g>
					<path fill="#3A002F" d="M1073.665,779.422c1.337,0.75,2.577,1.596,3.731,2.479c1.154,0.905,2.204,1.868,3.166,2.87
						c-1.924,0-3.848,0.189-5.725,0.556c-1.875,0.366-3.713,0.942-5.493,1.675c0.511-1.288,1.116-2.579,1.827-3.867
						C1071.895,781.885,1072.732,780.635,1073.665,779.422z"/>
				</g>
				<g>
					<path fill="#3A002F" d="M1087.461,779.422c0.941,1.213,1.77,2.463,2.492,3.733c0.721,1.268,1.316,2.559,1.818,3.847
						c-1.762-0.732-3.608-1.288-5.494-1.675c-1.876-0.366-3.791-0.556-5.715-0.556c0.963-1.002,2.021-1.965,3.166-2.87
						C1084.883,781.018,1086.123,780.192,1087.461,779.422z"/>
				</g>
				<g>
					<path fill="#3A002F" d="M1100.197,784.713c0.405,1.481,0.693,2.963,0.867,4.406c0.173,1.461,0.24,2.887,0.211,4.271
						c-1.356-1.367-2.838-2.579-4.436-3.656c-1.605-1.078-3.299-1.982-5.068-2.732c1.279-0.559,2.616-1.019,4.03-1.423
						C1097.207,785.213,1098.678,784.924,1100.197,784.713z"/>
				</g>
				<g>
					<path fill="#3A002F" d="M1109.943,794.485c-0.201,1.523-0.49,2.983-0.875,4.39c-0.395,1.402-0.865,2.752-1.434,4.02
						c-0.721-1.769-1.635-3.464-2.703-5.06c-1.068-1.599-2.299-3.097-3.656-4.444c1.395-0.038,2.809,0.038,4.271,0.211
						C1106.98,793.795,1108.463,794.082,1109.943,794.485z"/>
				</g>
				<g>
					<path fill="#3A002F" d="M1115.227,807.225c-0.771,1.326-1.607,2.58-2.492,3.713c-0.904,1.174-1.867,2.213-2.857,3.177
						c-0.01-1.927-0.193-3.829-0.578-5.715c-0.365-1.886-0.934-3.733-1.664-5.505c1.299,0.501,2.588,1.115,3.857,1.83
						C1112.763,805.453,1114.014,806.282,1115.227,807.225z"/>
				</g>
				<g>
					<path fill="#3A002F" d="M1115.227,821c-1.223,0.943-2.464,1.789-3.734,2.504c-1.27,0.711-2.559,1.326-3.857,1.827
						c0.73-1.772,1.299-3.619,1.664-5.484c0.385-1.886,0.568-3.809,0.578-5.732c0.99,0.96,1.953,2.021,2.857,3.174
						C1113.619,818.441,1114.455,819.691,1115.227,821z"/>
				</g>
				<g>
					<path fill="#3A002F" d="M1109.935,833.757c-1.491,0.387-2.963,0.673-4.397,0.866c-1.453,0.174-2.886,0.253-4.262,0.211
						c1.348-1.347,2.578-2.846,3.646-4.444c1.078-1.578,1.982-3.287,2.713-5.059c0.559,1.271,1.029,2.617,1.424,4.02
						C1109.443,830.756,1109.742,832.237,1109.935,833.757z"/>
				</g>
				<g>
					<path fill="#3A002F" d="M1100.179,843.513c-1.52-0.19-2.981-0.501-4.386-0.884c-1.415-0.384-2.762-0.867-4.021-1.423
						c1.76-0.732,3.463-1.638,5.05-2.715c1.606-1.057,3.089-2.289,4.454-3.657c0.02,1.389-0.047,2.828-0.211,4.272
						C1100.872,840.55,1100.583,842.031,1100.179,843.513z"/>
				</g>
				<g>
					<path fill="#3A002F" d="M1087.441,848.807c-1.328-0.771-2.568-1.616-3.733-2.504c-1.136-0.904-2.202-1.865-3.165-2.846
						c1.934-0.021,3.838-0.193,5.725-0.58c1.886-0.362,3.723-0.922,5.504-1.671c-0.511,1.309-1.117,2.597-1.839,3.867
						C1089.212,846.341,1088.384,847.574,1087.441,848.807z"/>
				</g>
			</g>
			<path fill="#FBFAF6" d="M1075.436,833.664c-4.802-1.002-7.928-5.602-6.976-10.201c0.972-4.635,5.677-7.598,10.485-6.6
				c4.84,1.002,7.957,5.602,6.996,10.256C1084.979,831.699,1080.273,834.683,1075.436,833.664z"/>
			<path fill="#FBFAF6" d="M1089.471,834.662c1.146,0.307,2.319-0.346,2.607-1.424c0.299-1.115-0.395-2.271-1.539-2.579
				c-1.154-0.286-2.318,0.349-2.617,1.464C1087.634,833.219,1088.326,834.354,1089.471,834.662z"/>
			<path fill="#FBFAF6" d="M1095.301,830.794c-1.76,0.463-3.578-0.539-4.021-2.252c-0.451-1.692,0.606-3.46,2.387-3.943
				c1.779-0.459,3.578,0.539,4.031,2.251C1098.148,828.542,1097.081,830.314,1095.301,830.794z"/>
		</g>
		<path fill="#3A002F" d="M1011.304,825.271c0,0-13.594,8.199-16.432,23.359c4.752,4.443,16.432,26.842,16.432,26.842
			s11.688-22.398,16.433-26.842C1024.907,833.471,1011.304,825.271,1011.304,825.271z"/>
		<g opacity="0.25">
			<path fill="#1D1D1B" d="M1011.304,825.271L1011.304,825.271v50.201l0,0c0,0,11.688-22.398,16.433-26.842
				C1024.907,833.471,1011.304,825.271,1011.304,825.271z"/>
		</g>
		<path opacity="0.12" fill="#FF6B80" d="M1010.793,1017.954c-6.83-5.177-14.969-10.66-22.838-15.972
			c-13.902-9.348-25.899-17.433-31.286-23.838c-10.573-12.374-14.239-30.055-9.544-46.082c4.079-13.931,13.671-24.111,26.312-27.94
			c3.049-0.942,6.244-1.44,9.448-1.44c12.872,0,23.455,7.639,31.055,14.815c7.61-7.177,18.193-14.815,31.065-14.815
			c3.194,0,6.388,0.498,9.485,1.461c12.594,3.809,22.186,13.989,26.265,27.92c4.705,16.027,1.03,33.708-9.562,46.103
			c-5.368,6.385-17.365,14.47-31.267,23.817c-7.87,5.312-16.01,10.795-22.84,15.972l-3.146,2.365L1010.793,1017.954z"/>
		<path fill="#FF6B80" d="M1050.297,909.782c-17.24-5.408-31.893,8.367-38.993,15.72c-7.091-7.353-21.742-21.128-38.983-15.72
			c-25.378,7.677-32.854,43.943-14.296,65.668c7.927,9.411,34.971,25.147,53.279,39.002c18.317-13.854,45.361-29.591,53.288-39.002
			C1083.15,953.726,1075.676,917.459,1050.297,909.782z"/>
		<g>
			<path opacity="0.3" fill="#3A002F" d="M933.983,943.797c20.675,34.348,46.102,40.294,46.102,40.294s-86.913,36.46-122.663-19.802
				c-27.775-43.695-9.419-88.509,17.269-90.566c5.475-0.425,15.374,0.597,19.492,3.328
				C908.143,886.365,915.444,912.973,933.983,943.797z"/>
			<path fill="#3A002F" d="M928.942,943.625c20.665,34.363,50.69,40.908,50.69,40.908s-88.413,37.482-124.163-18.779
				c-27.775-43.699-8.39-90.281,18.298-92.339c5.474-0.425,15.459,0.308,19.568,3.039
				C907.305,885.768,910.393,912.82,928.942,943.625z"/>
		</g>
		<g>
			<path opacity="0.3" fill="#3A002F" d="M1084.65,943.797c-20.664,34.348-46.092,40.294-46.092,40.294s86.913,36.46,122.663-19.802
				c27.765-43.695,9.419-88.509-17.269-90.566c-5.475-0.425-15.374,0.597-19.491,3.328
				C1110.492,886.365,1103.199,912.973,1084.65,943.797z"/>
			<path fill="#3A002F" d="M1089.702,943.625c-20.665,34.363-50.691,40.908-50.691,40.908s88.414,37.482,124.163-18.779
				c27.775-43.699,8.39-90.281-18.298-92.339c-5.474-0.425-15.46,0.308-19.577,3.039
				C1111.34,885.768,1108.251,912.82,1089.702,943.625z"/>
		</g>
	</g>
	<path opacity="0.2" fill="#1D1D1B" d="M1144.876,873.415c-3.011-0.231-7.369-0.097-11.391,0.501
		c-0.251-1.734-0.49-3.464-0.751-5.177c1.752,1.288,3.811,2.079,6.023,2.134c3.262,0.117,6.791-1.288,9.398-4.116
		c2.627-2.849,3.725-6.503,3.357-9.735c-0.355-3.193-2.105-5.967-4.828-7.811c0,0,0.009-0.021,0.018-0.042
		c2.771,1.771,6.023,2.272,9.092,1.309c3.118-0.942,6.023-3.404,7.572-6.965c1.568-3.519,1.434-7.331,0.02-10.274
		c-1.395-2.983-4.041-5.079-7.303-5.888h-0.01l0,0h0.01c3.262,0.829,6.581,0.231,9.236-1.712c2.646-1.924,4.551-5.194,4.877-9.062
		c0.318-3.85-1.059-7.39-3.338-9.717c-2.289-2.349-5.465-3.481-8.822-3.195c0,0-0.01,0-0.02,0l0,0c0.01,0,0.02,0,0.02,0
		c3.357-0.269,6.291-1.902,8.188-4.6c1.876-2.652,2.627-6.406,1.684-10.156c-0.952-3.754-3.406-6.658-6.331-8.122
		c-2.924-1.481-6.302-1.499-9.37-0.151c-0.01,0.017-0.01,0.017-0.02,0.017l0,0c0.01,0,0.01,0,0.02-0.017
		c3.079-1.348,5.33-3.852,6.225-7.004c0.895-3.139,0.414-6.928-1.713-10.143c-2.116-3.232-5.377-5.193-8.619-5.618
		c-3.242-0.46-6.446,0.618-8.909,2.907c-0.01,0-0.01,0-0.01,0l0,0c0,0,0,0,0.01,0c2.481-2.271,3.8-5.387,3.626-8.66
		c-0.162-3.25-1.846-6.658-4.896-9.041c-0.23-0.177-0.49-0.291-0.74-0.463c5.397-1.924,9.784-3.81,12.517-5.291
		c4.733-2.849,16.566-9.565,15.431-22.166c-0.144-1.503-0.346-3.039-0.934-4.369l-0.461-0.96c-0.269-0.521-0.336-0.56-0.51-0.866
		c-0.414-0.636-0.924-1.271-1.404-1.734c-4.012-4.078-10.996-3.232-13.189,2.331c-1.021,2.597-0.539,5.694,1.086,7.715
		c1.685,2.079,4.522,2.425,6.408,1.077l-0.221-0.441c-1.867,0.942-4.119,0.113-5.109-1.578c-1.029-1.734-1-4.041-0.105-5.64
		c0.395-0.808,1.068-1.499,1.731-1.886c0.789-0.459,1.606-0.673,2.464-0.729c1.684-0.079,3.328,0.767,4.357,2.097
		c0.279,0.366,0.451,0.652,0.625,1.001c0.086,0.211,0.327,0.652,0.289,0.674l0.201,0.632c0.212,0.866,0.279,1.713,0.241,2.542
		c-0.155,1.674-0.817,3.291-1.588,5.097c-1.539,3.522-6.638,6.005-10.698,6.679c-23.406,2.846-32.518-9.486-69.807-16.97
		c-26.87-5.408-50.047,4.983-65.66,17.622c-0.164-0.018-0.328-0.018-0.481-0.018v313.111c2.011,0.134,3.992,0.23,5.965,0.289
		c-0.452,1.751-0.712,3.675-0.712,5.732c0,7.505,3.252,13.413,7.389,13.413c2.26,0,4.223-1.771,5.561-4.562
		c1.049,6.119,3.675,10.256,6.918,10.256c3.241,0,5.857-4.137,6.897-10.256c1.347,2.79,3.319,4.562,5.57,4.562
		c4.155,0,7.407-5.908,7.407-13.413c0-3.674-0.789-6.965-2.078-9.352c25.852-6.443,45.572-21.01,59.09-41.502
		c18.654-2.673,36.731-10.968,48.805-29.957C1190.949,922.055,1171.563,875.473,1144.876,873.415z M1043.533,1039.89
		c-0.039-0.117-0.077-0.231-0.106-0.328c0.067-0.017,0.144-0.017,0.212-0.038C1043.6,1039.638,1043.57,1039.772,1043.533,1039.89z"
		/>
</g>
</svg>
