<svg xmlns="http://www.w3.org/2000/svg" viewBox="0 0 242 311"><path fill="#BABABA" d="M170.689,86.15c0-4.793-10.174-8.706-22.693-8.706H121c-12.52,0-22.692,3.913-22.692,8.706v6.944c0,4.793,10.172,8.706,22.692,8.706h26.996c12.52,0,22.693-3.913,22.693-8.706V86.15z"/><path d="M147.996,102.8H121c-13.286,0-23.692-4.263-23.692-9.706V86.15c0-5.443,10.407-9.706,23.692-9.706h26.996c13.287,0,23.693,4.263,23.693,9.706v6.944C171.689,98.537,161.283,102.8,147.996,102.8z M121,78.444c-12.784,0-21.692,4.061-21.692,7.706v6.944c0,3.645,8.909,7.706,21.692,7.706h26.996c12.785,0,21.693-4.061,21.693-7.706V86.15c0-3.645-8.908-7.706-21.693-7.706H121z"/><polygon fill="#BABABA" points="145.65,253.215 73.854,253.215 73.854,202.646 133.031,202.646 145.65,227.883"/><path d="M145.65,254.215H73.854c-0.552,0-1-0.447-1-1v-50.568c0-0.553,0.448-1,1-1h59.178c0.379,0,0.725,0.213,0.895,0.553l12.619,25.236c0.068,0.139,0.105,0.293,0.105,0.447v25.332C146.65,253.768,146.203,254.215,145.65,254.215z M74.854,252.215h69.797v-24.096l-12.238-24.473H74.854V252.215z"/><path fill="#F96488" d="M157.289,95.442v-78.35h-14.574c0,0,0,26.997,0,29.833S140.172,57,131.662,57s-9.783-7.14-9.783-10.075c0-2.935,0-29.833,0-29.833h-14.574v76.295c-28.366,8.412-48.907,32.572-48.907,61.037c0,35.408,31.789,64.167,70.916,64.167c39.127,0,70.914-28.76,70.914-64.167C200.326,128.014,182.623,105.223,157.289,95.442z"/><path d="M129.314,219.592c-39.655,0-71.916-29.234-71.916-65.167c0-28.052,19.622-52.792,48.907-61.779V17.092c0-0.552,0.448-1,1-1h14.574c0.552,0,1,0.448,1,1v29.833c0,1.515,0.424,9.075,8.783,9.075c8.264,0,10.053-7.274,10.053-9.075V17.092c0-0.552,0.447-1,1-1h14.574c0.553,0,1,0.448,1,1v77.667c26.205,10.387,43.035,33.738,42.939,59.669C201.229,190.357,168.969,219.592,129.314,219.592zM108.306,18.092v75.295c0,0.443-0.291,0.833-0.716,0.958c-28.824,8.548-48.191,32.691-48.191,60.078c0,34.83,31.364,63.167,69.916,63.167c38.551,0,69.914-28.338,69.914-63.167c0.094-25.309-16.51-48.092-42.301-58.049c-0.385-0.149-0.639-0.52-0.639-0.933v-77.35h-12.574v28.833c0,3.469-3.035,11.075-12.053,11.075c-7.959,0-10.782-5.966-10.782-11.075V18.092H108.306z"/><path fill="#F96488" d="M68.962,181.029c-9.879,0.391-20.345,1.957-24.649,6.357c-9.097,9.295-2.641,53.504,1.174,58.885c1.858,2.738,9.782,2.738,17.802,2.738s16.14,0,18.487-2.055c3.521-3.031,8.314-28.561,8.314-28.561"/><path d="M63.29,250.01c-8.839,0-16.474,0-18.63-3.178c-4.483-6.322-10.307-50.697-1.061-60.145c3.817-3.902,12.337-6.143,25.324-6.658c0.553-0.033,1.017,0.408,1.039,0.959c0.022,0.553-0.408,1.018-0.959,1.039c-12.284,0.488-20.574,2.582-23.974,6.059c-8.393,8.574-2.525,52.246,1.275,57.607c1.572,2.316,9.761,2.316,16.986,2.316c7.389,0,15.764,0,17.828-1.807c2.377-2.047,6.162-18.256,7.99-27.994c0.102-0.541,0.623-0.9,1.167-0.797c0.543,0.102,0.9,0.623,0.798,1.166c-0.498,2.648-4.964,25.965-8.645,29.135C79.805,250.01,71.783,250.01,63.29,250.01z"/><path fill="#F96488" d="M77.082,218.688c0,0,5.379-0.391,13.009-0.293c17.411,0.197,46.657,2.738,51.353,16.922c6.65,20.443,7.824,44.994,9.684,51.744c1.859,6.65,26.605,6.748,39.613,2.639c13.012-4.105-13.596-94.193-13.596-94.193"/><path d="M169.879,293.471c-6.777,0-13.064-0.854-16.621-2.777c-1.684-0.912-2.725-2.043-3.094-3.363c-0.637-2.311-1.184-6.555-1.877-11.93c-1.426-11.057-3.377-26.199-7.795-39.773c-1.949-5.891-8.744-10.279-20.192-13.045c-10.22-2.467-22.075-3.096-30.221-3.188c-7.493-0.094-12.872,0.287-12.925,0.291c-0.555,0.041-1.03-0.375-1.07-0.926s0.374-1.029,0.925-1.068c0.055-0.004,5.507-0.395,13.095-0.297c17.416,0.197,47.369,2.746,52.289,17.607c4.477,13.758,6.443,29.008,7.879,40.143c0.682,5.297,1.221,9.48,1.818,11.65c0.217,0.775,0.93,1.496,2.119,2.139c6.383,3.457,25.004,3.357,36.23-0.188c8.797-2.775-4.074-58.49-14.254-92.957c-0.156-0.529,0.146-1.086,0.676-1.242c0.533-0.158,1.086,0.146,1.242,0.676c0.066,0.227,6.721,22.82,11.695,45.627c10.246,46.963,3.469,49.102,1.242,49.805C185.4,292.436,177.344,293.471,169.879,293.471z"/><path fill="#F96488" d="M78.744,196.287l-2.25,13.498l7.531,7.828c0,0,14.673,0,23.28,1.074c8.607,1.076-1.076-19.172-1.076-19.172L78.744,196.287z"/><path fill="#FFE269" d="M84.221,246.174h-0.097l0,0H36.292c-7.531,0-13.596,8.215-13.596,18.389v25.137h13.596h47.832h13.694v-25.137C97.818,254.488,91.753,246.174,84.221,246.174z"/><path d="M97.818,290.699H22.697c-0.552,0-1-0.447-1-1v-25.137c0-10.691,6.547-19.389,14.596-19.389h47.832c8.146,0,14.694,8.697,14.694,19.389v25.137C98.818,290.252,98.371,290.699,97.818,290.699z M23.697,288.699h73.122v-24.137c0-9.588-5.651-17.389-12.597-17.389H36.292c-6.945,0-12.596,7.801-12.596,17.389V288.699z"/><ellipse fill="#FFE269" cx="36.292" cy="264.466" rx="13.597" ry="18.39"/><path d="M36.292,283.855c-8.048,0-14.596-8.699-14.596-19.391s6.547-19.389,14.596-19.389c8.049,0,14.597,8.697,14.597,19.389S44.341,283.855,36.292,283.855z M36.292,247.076c-6.945,0-12.596,7.801-12.596,17.389c0,9.59,5.65,17.391,12.596,17.391c6.946,0,12.597-7.801,12.597-17.391C48.889,254.877,43.238,247.076,36.292,247.076z"/><path fill="#F96488" d="M106.816,174.967v20.441c0,1.955,1.957,3.619,4.304,3.619c2.348,0,4.303-1.664,4.303-3.619v-23.67"/><path d="M111.121,200.027c-2.875,0-5.304-2.115-5.304-4.619v-20.441c0-0.553,0.448-1,1-1s1,0.447,1,1v20.441c0,1.395,1.544,2.619,3.304,2.619c1.76,0,3.303-1.225,3.303-2.619v-23.67c0-0.553,0.448-1,1-1s1,0.447,1,1v23.67C116.424,197.912,113.995,200.027,111.121,200.027z"/><path fill="#F96488" d="M98.308,177.801v20.443c0,1.957,1.956,3.621,4.303,3.621c2.347,0,4.304-1.664,4.304-3.621v-23.67"/><path d="M102.611,202.865c-2.875,0-5.303-2.117-5.303-4.621v-20.443c0-0.553,0.448-1,1-1s1,0.447,1,1v20.443c0,1.396,1.543,2.621,3.303,2.621c1.76,0,3.304-1.225,3.304-2.621v-23.67c0-0.553,0.448-1,1-1s1,0.447,1,1v23.67C107.915,200.748,105.486,202.865,102.611,202.865z"/><path fill="#F96488" d="M89.797,172.225v20.445c0,1.957,1.956,3.617,4.303,3.617c2.348,0,4.304-1.66,4.304-3.617v-23.672"/><path d="M94.101,197.287c-2.875,0-5.303-2.113-5.303-4.617v-20.445c0-0.553,0.448-1,1-1s1,0.447,1,1v20.445c0,1.395,1.543,2.617,3.303,2.617c1.76,0,3.304-1.223,3.304-2.617v-23.672c0-0.553,0.448-1,1-1s1,0.447,1,1v23.672C99.405,195.174,96.976,197.287,94.101,197.287z"/><path fill="#FFE269" d="M151.029,129.482c-0.393-2.935-3.131-5.087-6.066-4.695c-1.955,0.294-3.617,1.564-4.303,3.325c-0.881-0.587-1.955-0.978-3.129-0.978c-2.348,0-4.305,1.467-5.088,3.521c-0.979-1.076-2.346-1.762-3.912-1.762c-1.076,0-2.152,0.296-3.033,0.881c-0.977-1.662-2.641-2.738-4.694-2.738c-0.979,0-1.956,0.294-2.837,0.782c-0.88-1.858-2.738-3.131-4.891-3.131c-3.032,0-5.379,2.447-5.379,5.381c0,3.033,2.445,5.381,5.379,5.381c0.978,0,1.957-0.294,2.836-0.783c0.881,1.858,2.739,3.13,4.891,3.13c1.075,0,2.153-0.292,3.032-0.881c0.979,1.664,2.641,2.74,4.695,2.74c2.348,0,4.305-1.469,5.086-3.523c0.979,1.078,2.348,1.762,3.914,1.762c2.248,0,4.205-1.369,4.988-3.325c1.076,0.684,2.348,1.075,3.715,0.881C149.268,135.155,151.42,132.417,151.029,129.482z"/><path d="M128.531,140.655c-2.002,0-3.781-0.874-5.008-2.43c-0.83,0.371-1.767,0.57-2.719,0.57c-2.157,0-4.111-1.063-5.3-2.831c-0.801,0.318-1.626,0.484-2.428,0.484c-3.518,0-6.379-2.862-6.379-6.381s2.862-6.381,6.379-6.381c2.159,0,4.113,1.063,5.3,2.832c0.802-0.317,1.627-0.483,2.427-0.483c2.002,0,3.782,0.874,5.008,2.429c0.834-0.372,1.77-0.571,2.719-0.571c1.311,0,2.555,0.405,3.609,1.159c1.174-1.808,3.17-2.918,5.391-2.918c0.926,0,1.846,0.205,2.707,0.601c0.977-1.556,2.648-2.647,4.576-2.938c0.293-0.039,0.568-0.057,0.842-0.057c3.201,0,5.938,2.411,6.365,5.608c0.225,1.693-0.242,3.368-1.314,4.718c-1.084,1.364-2.637,2.209-4.375,2.377c-0.242,0.035-0.521,0.055-0.799,0.055l0,0c-0.883,0-1.75-0.19-2.592-0.568c-1.145,1.807-3.199,2.963-5.41,2.963c-1.312,0-2.557-0.404-3.611-1.158C132.748,139.543,130.752,140.655,128.531,140.655z M123.836,135.915c0.074,0,0.148,0.008,0.223,0.025c0.27,0.062,0.5,0.23,0.639,0.468c0.854,1.449,2.215,2.247,3.834,2.247c1.855,0,3.486-1.13,4.152-2.879c0.123-0.325,0.406-0.562,0.748-0.627c0.342-0.063,0.693,0.054,0.926,0.311c0.84,0.925,1.967,1.434,3.174,1.434c1.783,0,3.414-1.084,4.061-2.697c0.111-0.275,0.338-0.488,0.621-0.58c0.281-0.091,0.592-0.052,0.844,0.108c0.809,0.514,1.643,0.774,2.477,0.774l0,0c0.184,0,0.371-0.013,0.561-0.04c1.238-0.121,2.305-0.699,3.047-1.635c0.732-0.921,1.051-2.062,0.898-3.21c-0.316-2.358-2.557-4.161-4.943-3.836c-1.602,0.241-2.951,1.275-3.504,2.696c-0.109,0.282-0.342,0.5-0.629,0.591c-0.289,0.091-0.605,0.046-0.857-0.121c-0.553-0.369-1.451-0.81-2.574-0.81c-1.857,0-3.486,1.129-4.152,2.877c-0.125,0.324-0.408,0.562-0.75,0.626c-0.34,0.064-0.691-0.054-0.926-0.31c-0.84-0.925-1.967-1.435-3.172-1.435c-0.906,0-1.785,0.254-2.479,0.714c-0.23,0.151-0.512,0.202-0.779,0.142c-0.268-0.062-0.498-0.23-0.637-0.468c-0.852-1.447-2.213-2.245-3.833-2.245c-0.764,0-1.577,0.228-2.352,0.657c-0.242,0.134-0.527,0.162-0.791,0.077c-0.263-0.085-0.479-0.274-0.598-0.524c-0.747-1.578-2.275-2.559-3.987-2.559c-2.415,0-4.379,1.965-4.379,4.381s1.964,4.381,4.379,4.381c0.765,0,1.577-0.228,2.351-0.657c0.241-0.133,0.529-0.163,0.791-0.078c0.263,0.084,0.48,0.273,0.598,0.523c0.749,1.578,2.276,2.559,3.988,2.559c0.911,0,1.79-0.253,2.475-0.712C123.445,135.972,123.641,135.915,123.836,135.915z"/><rect x="22.697" y="264.465" fill="#FFE269" width="27.192" height="25.334"/><path d="M49.889,290.799H22.697c-0.552,0-1-0.447-1-1v-25.334c0-0.553,0.448-1,1-1h27.192c0.552,0,1,0.447,1,1v25.334C50.889,290.352,50.441,290.799,49.889,290.799z M23.697,288.799h25.192v-23.334H23.697V288.799z"/><path d="M74.734,273.191c-2.655,0-4.815-2.773-4.815-6.184s2.16-6.184,4.815-6.184c2.654,0,4.814,2.773,4.814,6.184S77.389,273.191,74.734,273.191z M74.734,262.824c-1.526,0-2.815,1.916-2.815,4.184s1.29,4.184,2.815,4.184c1.525,0,2.814-1.916,2.814-4.184S76.26,262.824,74.734,262.824z"/><rect x="70.919" y="267.008" fill="#F96488" width="7.629" height="7.139"/><path d="M78.548,275.146h-7.629c-0.552,0-1-0.447-1-1v-7.139c0-0.553,0.448-1,1-1h7.629c0.552,0,1,0.447,1,1v7.139C79.548,274.699,79.101,275.146,78.548,275.146z M71.919,273.146h5.629v-5.139h-5.629V273.146z"/><path d="M45.096,285.223H26.707c-0.552,0-1-0.447-1-1v-19.268c0-7.807,4.668-14.402,10.195-14.402c5.526,0,10.194,6.596,10.194,14.402v19.268C46.096,284.775,45.648,285.223,45.096,285.223z M27.707,283.223h16.389v-18.268c0-6.607-3.829-12.402-8.194-12.402c-4.365,0-8.195,5.795-8.195,12.402V283.223z"/><path d="M97.818,265.465H49.889c-0.552,0-1-0.447-1-1s0.448-1,1-1h47.929c0.552,0,1,0.447,1,1S98.371,265.465,97.818,265.465z"/><path fill="#BABABA" d="M62.801,176.529c0.684,1.664,1.467,3.326,2.25,4.988h47.146V92.214c-22.888,5.184-41.473,20.443-49.396,40.202V176.529z"/><path d="M112.196,182.518H65.05c-0.387,0-0.74-0.223-0.905-0.574c-0.773-1.641-1.573-3.34-2.27-5.035c-0.05-0.119-0.075-0.248-0.075-0.379v-44.113c0-0.128,0.024-0.254,0.072-0.372c8.134-20.288,26.864-35.542,50.103-40.805c0.297-0.067,0.607,0.004,0.845,0.194c0.238,0.19,0.376,0.477,0.376,0.781v89.303C113.196,182.07,112.749,182.518,112.196,182.518zM65.685,180.518h45.511V93.477c-21.963,5.351-39.611,19.901-47.396,39.133v43.72C64.381,177.727,65.036,179.139,65.685,180.518z"/><path d="M74.734,272.311c-0.552,0-1-0.447-1-1v-2.051c0-0.553,0.448-1,1-1s1,0.447,1,1v2.051C75.734,271.863,75.287,272.311,74.734,272.311z"/><path fill="#BABABA" d="M77.082,137.991c0,0,24.844-4.989,35.115,9c10.271,13.986,5.673,34.527,5.673,34.527s-43.135-0.389-55.754,0c-11.738,0.393-27.389-38.733,6.553-60.35"/><path d="M61.938,182.521c-5.021,0-10.377-6.029-13.085-14.775c-4.394-14.191-1.636-34.102,19.278-47.422c0.466-0.297,1.084-0.16,1.38,0.306c0.297,0.466,0.16,1.084-0.306,1.381c-19.965,12.715-22.617,31.657-18.442,45.143c2.41,7.787,7.086,13.367,11.17,13.367c0.05,0,0.099-0.002,0.148-0.002c11.526-0.357,48.896-0.061,54.963-0.008c0.688-3.857,3.105-21-5.656-32.929c-9.77-13.307-33.87-8.659-34.112-8.611c-0.541,0.112-1.069-0.242-1.177-0.784c-0.108-0.541,0.242-1.068,0.784-1.177c1.04-0.209,25.591-4.95,36.118,9.389c10.419,14.189,6.035,34.48,5.843,35.337c-0.103,0.457-0.508,0.781-0.976,0.781c-0.003,0-0.006,0-0.009,0c-0.431-0.004-43.259-0.385-55.714,0C62.078,182.52,62.008,182.521,61.938,182.521z"/><path fill="#BABABA" d="M147.996,92.507c0,44.603,0,101.239,0,153.764c0,20.834,59.373,17.803,60.449,2.738C209.521,238.643,228.986,103.658,147.996,92.507z"/><path d="M177.639,262.104c-0.002,0-0.002,0-0.004,0c-14.133-0.002-30.639-4.148-30.639-15.832V92.507c0-0.289,0.125-0.564,0.344-0.754c0.217-0.189,0.502-0.278,0.793-0.237c33.162,4.566,53.742,29.766,61.168,74.899c3.826,23.252,3.945,50.445,0.354,80.828c-0.096,0.818-0.17,1.447-0.213,1.869C208.838,257.539,192.605,262.104,177.639,262.104zM148.996,93.664v152.608c0,6.883,8.855,13.83,28.639,13.832h0.004c15.998,0,29.369-5.01,29.811-11.166c0.047-0.459,0.121-1.098,0.221-1.928c3.568-30.195,3.453-57.201-0.342-80.27C200.146,123.096,180.521,98.516,148.996,93.664z"/><rect x="163.842" y="192.572" fill="#BABABA" width="32.377" height="10.074"/><path d="M196.219,203.646h-32.377c-0.553,0-1-0.447-1-1v-10.074c0-0.553,0.447-1,1-1h32.377c0.553,0,1,0.447,1,1v10.074C197.219,203.199,196.771,203.646,196.219,203.646z M164.842,201.646h30.377v-8.074h-30.377V201.646z"/><path fill="#BABABA" d="M169.516,99.355c0,0,33.16,14.378,52.037,53.896c5.869,12.42,10.955,39.321,0.979,39.321c-9.979,0-28.66,0-28.66,0h-22.008c0,0,1.664-32.77,32.67-32.77"/><path d="M222.531,193.572h-50.668c-0.273,0-0.535-0.111-0.725-0.311s-0.287-0.467-0.273-0.74c0.018-0.336,2.078-33.719,33.668-33.719c0.553,0,1,0.447,1,1s-0.447,1-1,1c-12.457,0-21.566,5.332-27.076,15.85c-3.26,6.221-4.232,12.492-4.5,14.92h49.574c1.314,0,2.322-0.58,3.08-1.775c1.762-2.781,2.061-8.803,0.816-16.518c-1.111-6.896-3.324-14.406-5.779-19.601c-18.5-38.728-51.201-53.264-51.529-53.406c-0.508-0.22-0.74-0.809-0.52-1.315c0.219-0.505,0.807-0.74,1.314-0.52c0.334,0.146,33.721,14.983,52.541,54.383c4.924,10.423,9.367,30.91,4.846,38.046C226.18,192.637,224.529,193.572,222.531,193.572z"/><path fill="#BABABA" d="M170.689,99.941c7.141,3.521,13.303,4.695,17.117,7.239c3.814,2.543-7.824,2.445-8.217,1.956"/><path d="M182.4,110.403c-1.689,0-3.209-0.166-3.59-0.643c-0.346-0.431-0.275-1.061,0.154-1.406c0.332-0.263,0.777-0.284,1.121-0.088c1.004,0.247,5.479,0.209,7.119-0.287c-1.904-1.255-4.506-2.194-7.514-3.28c-2.818-1.017-6.012-2.169-9.443-3.861c-0.496-0.244-0.699-0.844-0.455-1.339c0.244-0.495,0.844-0.698,1.34-0.455c3.33,1.643,6.469,2.775,9.236,3.774c3.158,1.139,5.883,2.123,7.992,3.529c0.912,0.607,1.312,1.277,1.193,1.991c-0.191,1.129-1.572,1.488-2.027,1.605C186.664,110.168,184.412,110.403,182.4,110.403z"/><path fill="#BABABA" d="M186.242,110.211c6.455,4.696,12.229,7.043,15.553,10.271c3.326,3.227-8.217,0.977-8.412,0.489"/><path d="M200.322,123.189c-0.01,0-0.02,0-0.029,0c-0.574-0.001-7.289-0.479-7.838-1.845c-0.207-0.513,0.041-1.095,0.555-1.301c0.35-0.141,0.732-0.07,1.006,0.153c0.969,0.412,5.363,1.153,7.053,0.974c-1.723-1.662-4.217-3.134-7.104-4.836c-2.498-1.475-5.33-3.146-8.311-5.314c-0.447-0.325-0.545-0.95-0.221-1.397s0.951-0.547,1.396-0.22c2.902,2.111,5.691,3.757,8.152,5.208c3.012,1.778,5.613,3.313,7.51,5.154c0.812,0.788,1.082,1.54,0.799,2.234C202.863,123.049,201.486,123.189,200.322,123.189z"/><path fill="#BABABA" d="M200.033,122.145c5.576,5.673,10.957,8.901,13.695,12.618s-8.217-0.293-8.414-0.881"/><path d="M213.051,137.327c-0.258,0-0.477-0.021-0.615-0.035c-1.678-0.163-7.65-1.835-8.068-3.093c-0.176-0.523,0.107-1.09,0.631-1.265c0.396-0.134,0.818-0.001,1.076,0.297c0.871,0.573,5.15,2.049,6.838,2.11c-1.406-1.903-3.621-3.739-6.186-5.865c-2.252-1.868-4.807-3.984-7.406-6.63c-0.389-0.394-0.383-1.027,0.012-1.414c0.393-0.388,1.027-0.383,1.414,0.012c2.529,2.573,5.041,4.655,7.258,6.492c2.67,2.215,4.979,4.128,6.529,6.234c0.654,0.889,0.805,1.661,0.443,2.297C214.564,137.193,213.693,137.327,213.051,137.327z"/><path fill="#BABABA" d="M211.283,136.231c4.498,6.651,9.193,10.76,11.15,14.868c2.055,4.108-8.021-1.859-8.119-2.445"/><path d="M222.01,153.533c-0.455,0-0.875-0.11-1.084-0.166c-1.557-0.412-7.375-3.212-7.598-4.549c-0.09-0.544,0.277-1.06,0.822-1.15c0.412-0.072,0.812,0.127,1.02,0.466c0.752,0.711,4.65,2.917,6.332,3.336c-1.02-2.101-2.842-4.278-4.947-6.795c-1.879-2.243-4.006-4.786-6.1-7.883c-0.311-0.458-0.189-1.079,0.268-1.389c0.457-0.311,1.08-0.188,1.389,0.268c2.037,3.013,4.129,5.514,5.977,7.72c2.219,2.652,4.137,4.942,5.248,7.279c0.48,0.959,0.498,1.736,0.045,2.293C223.018,153.409,222.492,153.533,222.01,153.533z"/><path fill="#BABABA" d="M79.038,109.429c-6.553,4.597-12.423,6.749-15.748,9.879s8.119,1.174,8.412,0.587"/><path d="M64.715,122.031c-0.15,0-0.279-0.003-0.384-0.009c-0.921-0.053-2.189-0.241-2.56-1.26c-0.251-0.691,0.029-1.425,0.833-2.182c1.875-1.765,4.465-3.204,7.463-4.869c2.532-1.406,5.402-3,8.396-5.101c0.453-0.318,1.076-0.207,1.393,0.245c0.317,0.452,0.208,1.076-0.245,1.393c-3.08,2.16-5.999,3.781-8.574,5.212c-2.861,1.589-5.334,2.963-7.027,4.543c1.644,0.224,5.994-0.395,7.036-0.864c0.297-0.255,0.729-0.324,1.101-0.138c0.494,0.247,0.695,0.847,0.448,1.341C72.002,121.532,66.641,122.031,64.715,122.031z"/><path fill="#BABABA" d="M211.088,216.633c-0.098,7.924,1.465,14.086,0.781,18.586c-0.684,4.498-5.576-6.064-5.281-6.555"/><path d="M211.172,237.332c-0.941,0-1.738-0.918-2.277-1.646c-0.58-0.787-3.918-6.281-3.164-7.535c0.283-0.475,0.898-0.627,1.371-0.344c0.336,0.203,0.512,0.57,0.482,0.936c0.221,1.02,2.168,5.01,3.305,6.264c0.332-2.268,0.064-5.076-0.246-8.322c-0.281-2.959-0.602-6.311-0.555-10.062c0.006-0.549,0.453-0.988,1-0.988c0.004,0,0.008,0,0.012,0c0.553,0.008,0.994,0.461,0.988,1.014c-0.045,3.645,0.27,6.939,0.547,9.846c0.324,3.41,0.605,6.355,0.223,8.877c-0.166,1.096-0.615,1.742-1.334,1.92C211.404,237.318,211.287,237.332,211.172,237.332z"/><path fill="#BABABA" d="M211.283,203.428c0,8.902,2.543,13.596,2.738,18.096c0.195,4.598-6.555-4.986-6.357-5.477"/><path d="M213.459,223.771c-0.832,0-1.658-0.672-2.32-1.309c-0.418-0.4-4.959-5.406-4.402-6.789c0.207-0.514,0.791-0.758,1.301-0.555c0.35,0.141,0.578,0.457,0.619,0.809c0.408,0.955,3.018,4.486,4.363,5.553c-0.084-1.639-0.502-3.357-0.986-5.34c-0.779-3.197-1.75-7.178-1.75-12.713c0-0.553,0.447-1,1-1s1,0.447,1,1c0,5.295,0.898,8.984,1.693,12.238c0.518,2.121,0.963,3.953,1.045,5.814c0.047,1.127-0.271,1.854-0.951,2.16C213.869,223.73,213.664,223.771,213.459,223.771z"/><path fill="#BABABA" d="M91.069,100.92c-7.141,3.521-13.303,4.695-17.118,7.238c-3.814,2.543,7.825,2.445,8.216,1.956"/><path d="M79.356,111.381c-2.009,0-4.259-0.234-5.122-0.458c-0.455-0.118-1.839-0.477-2.029-1.606c-0.121-0.714,0.28-1.384,1.192-1.991c2.109-1.406,4.834-2.389,7.991-3.528c2.769-0.999,5.908-2.131,9.239-3.774c0.496-0.244,1.095-0.041,1.339,0.455c0.244,0.496,0.041,1.095-0.455,1.339c-3.433,1.692-6.627,2.845-9.445,3.862c-3.008,1.085-5.609,2.024-7.512,3.279c1.637,0.494,6.115,0.534,7.117,0.287c0.345-0.198,0.791-0.176,1.121,0.087c0.431,0.345,0.501,0.974,0.157,1.406C82.567,111.215,81.047,111.381,79.356,111.381z"/><path fill="#BABABA" d="M51.356,139.849c-3.13,7.336-6.945,12.325-8.119,16.727c-1.173,4.4,7.532-3.325,7.435-3.914"/><path d="M43.691,158.928c-0.341,0-0.665-0.088-0.952-0.305c-0.599-0.447-0.756-1.223-0.468-2.305c0.665-2.493,2.106-5.11,3.775-8.14c1.392-2.526,2.969-5.391,4.39-8.722c0.216-0.508,0.805-0.744,1.312-0.527c0.508,0.217,0.744,0.805,0.527,1.312c-1.461,3.423-3.064,6.333-4.478,8.901c-1.592,2.891-2.969,5.39-3.579,7.632c1.544-0.689,4.899-3.567,5.5-4.417c0.111-0.346,0.407-0.619,0.79-0.682c0.541-0.101,1.059,0.279,1.149,0.823c0.26,1.574-5.602,5.526-5.662,5.563C45.287,158.494,44.447,158.928,43.691,158.928z"/><path fill="#BABABA" d="M104.665,94.366c-7.728,2.153-13.988,2.25-18.194,4.011c-4.206,1.858,7.336,3.814,7.728,3.423"/><path d="M93.639,102.807c-2.164,0-6.156-1.138-6.98-1.472c-0.897-0.364-2.092-0.976-2.108-2.082c-0.012-0.739,0.499-1.342,1.516-1.792c2.337-0.979,5.19-1.457,8.495-2.01c2.917-0.489,6.223-1.043,9.835-2.049c0.534-0.147,1.084,0.164,1.232,0.695c0.148,0.532-0.163,1.083-0.695,1.232c-3.715,1.035-7.076,1.598-10.042,2.095c-3.154,0.529-5.881,0.986-7.979,1.852c1.501,0.771,5.915,1.619,6.964,1.577c0.349-0.117,0.751-0.038,1.029,0.241c0.39,0.391,0.39,1.024-0.001,1.414C94.692,102.721,94.235,102.807,93.639,102.807z"/><path fill="#BABABA" d="M175.875,86.15c0-4.793-3.914-8.706-8.707-8.706h-10.369c-4.791,0-8.705,3.913-8.705,8.706v6.944c0,4.793,3.914,8.706,8.705,8.706h10.369c4.793,0,8.707-3.913,8.707-8.706V86.15z"/><path d="M167.168,102.8h-10.369c-5.352,0-9.705-4.354-9.705-9.706V86.15c0-5.352,4.354-9.706,9.705-9.706h10.369c5.352,0,9.707,4.354,9.707,9.706v6.944C176.875,98.446,172.52,102.8,167.168,102.8z M156.799,78.444c-4.248,0-7.705,3.457-7.705,7.706v6.944c0,4.249,3.457,7.706,7.705,7.706h10.369c4.25,0,7.707-3.457,7.707-7.706V86.15c0-4.249-3.457-7.706-7.707-7.706H156.799z"/><path fill="#BABABA" d="M112.099,94.366c0,4.108-3.326,7.434-7.434,7.434l0,0c-4.108,0-7.434-3.326-7.434-7.434V84.78c0-4.108,3.326-7.434,7.434-7.434l0,0c4.108,0,7.434,3.326,7.434,7.434V94.366z"/><path d="M104.665,102.8c-4.65,0-8.434-3.784-8.434-8.434V84.78c0-4.65,3.784-8.434,8.434-8.434s8.434,3.783,8.434,8.434v9.585C113.099,99.016,109.315,102.8,104.665,102.8z M104.665,78.347c-3.548,0-6.434,2.886-6.434,6.434v9.585c0,3.548,2.886,6.434,6.434,6.434s6.434-2.886,6.434-6.434V84.78C111.099,81.233,108.213,78.347,104.665,78.347z"/><ellipse fill="#F96488" cx="113.958" cy="17.092" rx="9.292" ry="15.846"/><path d="M113.958,33.938c-5.771,0-10.292-7.399-10.292-16.846s4.521-16.846,10.292-16.846c5.771,0,10.292,7.399,10.292,16.846S119.729,33.938,113.958,33.938z M113.958,2.247c-4.495,0-8.292,6.798-8.292,14.846s3.797,14.846,8.292,14.846c4.495,0,8.292-6.798,8.292-14.846S118.452,2.247,113.958,2.247z"/><path fill="#FFFFFF" d="M104.762,15.821c0,0,7.239-2.152,18.488-1.173c0,2.348-0.197,5.38-0.197,5.38s-1.173,12.227-9.194,12.813c-2.934,0.196-7.14-4.402-8.705-10.955C104.861,18.951,104.762,15.821,104.762,15.821z"/><path d="M113.676,33.847c-3.69,0-7.95-5.261-9.495-11.729c-0.01-0.044-0.018-0.088-0.022-0.133c-0.293-2.934-0.395-6.101-0.396-6.133c-0.014-0.454,0.279-0.86,0.715-0.99c0.202-0.06,5.037-1.47,12.954-1.47c1.943,0,3.93,0.087,5.904,0.259c0.518,0.045,0.914,0.478,0.914,0.996c0,2.353-0.191,5.319-0.199,5.444c-0.053,0.564-1.357,13.106-10.119,13.747C113.843,33.844,113.76,33.847,113.676,33.847z M106.142,21.719c1.52,6.276,5.406,10.128,7.534,10.128l0.116-0.003c7.09-0.519,8.254-11.798,8.266-11.912l0,0c-0.002,0,0.145-2.267,0.182-4.362c-1.611-0.118-3.225-0.177-4.809-0.177c-5.862,0-10.021,0.816-11.639,1.197C105.841,17.688,105.948,19.753,106.142,21.719z"/><ellipse cx="114.055" cy="17.288" rx="2.348" ry="3.424"/><ellipse fill="#F96488" cx="149.953" cy="17.092" rx="9.293" ry="15.846"/><path d="M149.953,33.938c-5.771,0-10.293-7.399-10.293-16.846s4.521-16.846,10.293-16.846s10.293,7.399,10.293,16.846S155.725,33.938,149.953,33.938z M149.953,2.247c-4.496,0-8.293,6.798-8.293,14.846s3.797,14.846,8.293,14.846c4.494,0,8.293-6.798,8.293-14.846S154.447,2.247,149.953,2.247z"/><path fill="#FFFFFF" d="M159.148,15.821c0,0-7.238-2.152-18.488-1.173c0,2.348,0.195,5.38,0.195,5.38s1.174,12.227,9.195,12.813c2.936,0.196,7.141-4.402,8.707-10.955C159.051,18.951,159.148,15.821,159.148,15.821z"/><path d="M150.234,33.847L150.234,33.847c-0.084,0-0.168-0.002-0.25-0.008c-8.77-0.641-10.072-13.182-10.123-13.715c-0.012-0.157-0.201-3.123-0.201-5.476c0-0.519,0.396-0.951,0.914-0.996c1.975-0.172,3.961-0.259,5.904-0.259c7.918,0,12.752,1.41,12.955,1.47c0.434,0.129,0.729,0.536,0.713,0.99c0,0.032-0.102,3.198-0.395,6.133c-0.004,0.045-0.012,0.089-0.021,0.133C158.184,28.585,153.924,33.847,150.234,33.847z M141.67,15.57c0.037,2.096,0.182,4.367,0.184,4.393c0.01,0.082,1.189,11.363,8.271,11.88l0.109,0.003c2.127,0,6.014-3.851,7.535-10.128c0.193-1.966,0.301-4.03,0.348-5.129c-1.617-0.38-5.775-1.197-11.639-1.197C144.895,15.393,143.281,15.452,141.67,15.57z"/><ellipse cx="149.855" cy="17.288" rx="2.348" ry="3.424"/><path fill="#F96488" d="M117.772,62.478c0,0,3.521,7.63,13.106,7.63"/><path d="M130.879,71.108c-10.109,0-13.86-7.875-14.015-8.211c-0.231-0.501-0.012-1.096,0.489-1.327c0.5-0.23,1.094-0.013,1.326,0.487l0,0c0.135,0.288,3.403,7.051,12.2,7.051c0.553,0,1,0.448,1,1S131.432,71.108,130.879,71.108z"/><path fill="#F96488" d="M118.652,61.892c0,0-2.543-0.489-4.499-0.489"/><path d="M118.653,62.892c-0.062,0-0.126-0.006-0.189-0.018c-0.024-0.004-2.476-0.471-4.311-0.471c-0.552,0-1-0.448-1-1s0.448-1,1-1c2.027,0,4.58,0.486,4.688,0.507c0.542,0.104,0.897,0.628,0.793,1.17C119.542,62.559,119.124,62.892,118.653,62.892z"/><rect x="98.308" y="183.768" fill="#FFE269" width="8.509" height="6.652"/><path d="M106.816,191.42h-8.509c-0.552,0-1-0.447-1-1v-6.652c0-0.553,0.448-1,1-1h8.509c0.552,0,1,0.447,1,1v6.652C107.816,190.973,107.369,191.42,106.816,191.42z M99.308,189.42h6.509v-4.652h-6.509V189.42z"/><path d="M109.066,305.959H85.103c-0.552,0-1-0.447-1-1s0.448-1,1-1h23.964c0.552,0,1,0.447,1,1S109.619,305.959,109.066,305.959z"/><path d="M160.225,293.537h-25.629c-0.553,0-1-0.447-1-1s0.447-1,1-1h25.629c0.553,0,1,0.447,1,1S160.777,293.537,160.225,293.537z"/><path d="M123.053,290.699H90.188c-0.552,0-1-0.447-1-1s0.448-1,1-1h32.865c0.553,0,1,0.447,1,1S123.605,290.699,123.053,290.699z"/><path d="M240.92,264.879h-25.627c-0.553,0-1-0.447-1-1s0.447-1,1-1h25.627c0.553,0,1,0.447,1,1S241.473,264.879,240.92,264.879z"/><path d="M230.846,310.754h-16.238c-0.553,0-1-0.447-1-1s0.447-1,1-1h16.238c0.553,0,1,0.447,1,1S231.398,310.754,230.846,310.754z"/><path d="M17.415,229.762H1.08c-0.552,0-1-0.447-1-1s0.448-1,1-1h16.335c0.552,0,1,0.447,1,1S17.967,229.762,17.415,229.762z"/><path d="M26.707,290.699H9.295c-0.552,0-1-0.447-1-1s0.448-1,1-1h17.412c0.552,0,1,0.447,1,1S27.259,290.699,26.707,290.699z"/></svg>