<?xml version="1.0" encoding="utf-8"?>
<!-- Generator: Adobe Illustrator 16.0.0, SVG Export Plug-In . SVG Version: 6.00 Build 0)  -->
<!DOCTYPE svg PUBLIC "-//W3C//DTD SVG 1.1//EN" "http://www.w3.org/Graphics/SVG/1.1/DTD/svg11.dtd">
<svg version="1.1" id="Layer_1" xmlns="http://www.w3.org/2000/svg" xmlns:xlink="http://www.w3.org/1999/xlink" x="0px" y="0px"
   width="127.711" height="170.5571" viewBox="0 0 127.711 170.5571" enable-background="new 0 0 198.43 198.43" xml:space="preserve">
<g transform="translate(-37.232999,-14.205)">
	<path opacity="0.17" d="M37.233,166.306c0.006,10.228,28.601,18.489,63.867,18.456
		c35.267-0.032,63.852-8.35,63.844-18.577c-0.005-10.225-28.601-18.486-63.865-18.456C65.811,147.763,37.227,156.081,37.233,166.306
		z"/>
	<path fill="#FFFFFF" stroke="#000000" stroke-width="0.5" stroke-miterlimit="10" d="M92.19,169.841
		c1.846-1.266,9.355-3.824,3.599-5.757c-2.114-0.709-4.122-0.308-6.229-1.453c-2.205-1.202-3.873-3.264-6.185-4.306
		c-3.598-1.622-6.803-0.006-10.012,1.799c-4.51,2.536-7.926,5.222-13.212,6.123c-2.708,0.46-11.338,2.039-13.29-1.258
		c-1.466-2.477,2.121-6.092,3.542-7.746c2.444-2.844,4.454-5.876,5.299-9.609c1.854-8.203,0.634-17.791,0.484-26.178
		c-0.26-14.598,1.274-29.214,3.896-43.568c1.354-7.421,2.99-14.791,4.898-22.092c0.544-2.083,2.949-9.187-0.084-10.652
		c5.231,2.531,10.93,4.126,16.756,4.123c1.631-0.002,7.508-1.12,5.637-3.847c0.854,0.896,1.905,1.028,3.053,1.228
		c0.462,0.08,3.324,0.304,3.451,0.534c-0.556-1.009-0.492-2.303-0.935-3.288c2.271,1.158,4.886,2.271,7.55,1.894
		c-1.553-1.39-3.077-2.988-4.404-4.48c10.714,4.152,23.655,6.789,35.216,6.658c2.901-0.033,15.261,0.861,16.574-2.209
		c-0.153,0.354-0.352,0.767-0.503,1.127c0.841-0.661,2.008-0.92,2.927-1.251c-4.906,1.771-0.407,15.503,0.646,18.73
		c4.403,13.499,7.133,27.217,8.84,41.291c1.553,12.804,2.477,30.19-2.691,43.892c-6.905,18.305-27.422,29.538-46.401,30.715
		c-4.28,0.266-20.4,2.595-21.915-3.912C88.054,173.593,90.168,171.227,92.19,169.841z"/>
	<path opacity="0.18" d="M56.463,120.768c-0.188-4.816-0.332-9.632-0.123-14.421
		c0.308-7.051,1.868-14.068,2.669-21.018c-0.376,6.594,3.793,13.729,8.75,17.756c2.246,1.825,4.777,3.647,7.248,5.164
		c10.516,6.453,25.146,6.329,36.937,3.507c17.344-4.15,33.678-14.235,37.729-32.306c0.563-2.513,0.984-5.03,1.221-7.588
		c0.164-1.797,0.583-5.497-0.217-7.146c0.7,1.441,1.463,3.029,1.959,4.555c1.229,3.781,1.474,7.745,2.534,11.537
		c1.703,6.093,2.812,12.239,3.806,18.484c2.57,16.174,4.284,33.849-1.642,49.56c-1.885,4.997-4.898,9.705-8.56,13.572
		c-6.499,6.868-15.321,12.353-24.258,15.354c-1.812,0.608-3.662,0.575-5.463,1.072c-4.192,1.156-8.87,1.168-13.179,1.677
		c-4.605,0.545-9.35,0.558-13.822-0.799c-3.137-0.949-4.69-3.646-3.032-6.756c0.99-1.854,3.123-3.424,5.037-4.209
		c1.31-0.538,4.605-1.305,3.743-3.237c-0.769-1.725-5.117-1.869-6.678-2.346c-2.961-0.905-4.83-4.044-7.895-5.044
		c-7.604-2.475-13.893,6.211-20.71,7.555c-3.569,0.704-12.464,3.053-15.214-0.441c-2.354-2.993,2.295-6.956,3.905-9.001
		c3.087-3.926,4.937-9.227,5.331-14.18C57.104,135.017,56.739,127.89,56.463,120.768z"/>
	<path opacity="0.18" d="M56.062,120.78c0.071-2.53,0.215-5.058,0.248-7.583
		c0.042-3.316,1.213-8.049,0.316-11.238c1.182,4.199,3.229,7.377,6.057,10.728c5.576,6.604,13.127,11.017,20.697,14.963
		c2.806,1.464,5.411,3.355,8.397,4.454c3.047,1.12,6.026,0.596,9.175,0.979c5.737,0.693,11.654,0.064,17.322-0.929
		c6.361-1.114,12.604-3.438,18.424-6.221c10.597-5.062,16.596-14.125,19.594-25.231c0.629-2.326,1.228-4.652,1.796-6.992
		c0.873,3.698,1.058,7.5,1.531,11.278c0.576,4.6,0.48,9.215,0.929,13.801c0.404,4.163,0.622,7.931-0.036,12.019
		c-0.689,4.303-0.364,8.574-1.556,12.854c-1.475,5.293-3.833,11.354-7.185,15.707c-5.688,7.388-14.324,13.432-23.062,16.681
		c-6.146,2.284-12.25,3.388-18.727,4.17c-5.3,0.64-19.364,3.056-21.385-4.391c-0.77-2.845,2.938-5.253,4.86-6.614
		c1.074-0.761,3.778-1.59,4.109-3.007c0.562-2.407-3.353-2.373-4.84-2.723c-1.899-0.443-3.583-1.07-5.153-2.259
		c-1.822-1.377-3.783-3.261-6.119-3.683c-2.405-0.436-4.872,1.116-7.028,2.166c-4.329,2.106-7.35,4.828-12.124,5.832
		c-3.131,0.657-6.081,1.582-9.31,1.674c-2.022,0.059-5.223-0.171-6.098-2.374c-1.314-3.316,2.74-6.271,4.435-8.538
		c2.109-2.821,3.739-6.302,4.483-9.751c0.994-4.609,0.53-9.104,0.866-13.721c0.219-3.008-0.629-5.86-0.657-8.861
		C56.015,122.903,56.032,121.841,56.062,120.78z"/>
	<g>
		<path d="M84.942,26.907c0.004,0.034,0.018,0.032,0.025,0.02c0.082-0.014,0.139-0.035,0.218-0.059
			c0.035-0.007,0.076-0.05,0.127-0.021c0.042,0.041,0.069-0.012,0.128-0.02c0.034-0.008,0.057-0.021,0.103-0.029l0.047-0.008
			c0.055-0.021,0.11-0.054,0.157-0.062c0.056-0.021,0.115-0.02,0.194-0.043c0,0-0.003-0.012,0.008-0.024
			c0.031-0.102,0.086-0.134,0.175-0.102c0.037,0.007,0.04,0.03,0.054,0.04c0.013,0.01,0.053,0.039,0.061,0.002
			c0.078-0.023,0.117-0.008,0.178-0.005c0.062,0.024,0.146,0.024,0.193-0.044c0.029-0.051,0.053-0.056,0.084-0.001
			c0.017,0.021,0.038,0.019,0.06-0.009c0.058-0.01,0.081-0.015,0.09-0.027c0.035-0.006,0.058-0.01,0.068-0.021
			c0.034-0.077,0.08-0.098,0.146-0.049c0.094,0.068,0.15,0.048,0.242,0.033c0.012-0.003,0.018-0.039,0.051-0.057
			c0.074-0.061,0.13-0.081,0.194-0.055c0.114,0.041,0.197,0.039,0.263,0.005c0.009-0.015,0.067-0.022,0.172-0.04
			c0.044-0.019,0.08-0.015,0.162-0.026l0.238-0.073l0.058-0.01c0.062,0.014,0.122,0.017,0.181,0.007
			c0.127-0.021,0.252-0.053,0.38-0.072l0.185-0.029c0.104-0.019,0.17-0.053,0.252-0.065c0.176-0.016,0.292-0.035,0.425-0.021
			l0.046-0.008c0.089-0.05,0.207-0.045,0.307-0.098l0.012-0.001c0.18,0.006,0.315,0.031,0.458,0.044
			c0.038,0.006,0.053,0.027,0.06,0.062l0.1,0.627c0.043,0.195,0.074,0.382,0.109,0.602c0.005,0.034-0.019,0.038-0.023,0.075
			L90.887,27.4c-0.027,0.063-0.04,0.125-0.08,0.168c-0.045,0.092-0.102,0.184-0.145,0.285c-0.068,0.095-0.102,0.184-0.169,0.277
			c-0.09,0.109-0.127,0.246-0.188,0.387l-0.104,0.172c-0.012,0.002-0.032,0.019-0.043,0.031c-0.061,0.141-0.08,0.238-0.192,0.354
			c-0.068,0.095-0.106,0.146-0.15,0.25c-0.025,0.062-0.051,0.127-0.099,0.193c-0.108,0.148-0.196,0.271-0.249,0.457l-0.01,0.013
			c-0.036,0.065-0.056,0.104-0.076,0.19c-0.014,0.062-0.041,0.114-0.07,0.154c-0.041,0.043-0.083,0.073-0.109,0.125
			c-0.089,0.121-0.134,0.213-0.154,0.299c-0.021,0.088-0.078,0.107-0.112,0.197c-0.032,0.088-0.094,0.145-0.128,0.233
			c-0.066,0.096-0.088,0.192-0.079,0.322l-0.039,0.125c-0.074,0.049-0.113,0.174-0.147,0.262c-0.066,0.107-0.091,0.241-0.153,0.383
			c0.008,0.046,0.021,0.056,0.027,0.091c0.002,0.013,0.003,0.022,0.016,0.021c0.016,0.033-0.004,0.049,0.03,0.043
			c0.071,0.072,0.152,0.144,0.233,0.13l1.255-0.202c0.09-0.026,0.188-0.078,0.281-0.094c0.044-0.02,0.095-0.016,0.139-0.022
			c0.091-0.025,0.168-0.062,0.25-0.075c0.093-0.016,0.176-0.018,0.251-0.065c0.01-0.012,0.01-0.012,0.011-0.001
			c0.029,0.031,0.065,0.038,0.106-0.005l0.059-0.01l0.321-0.075c0.104-0.017,0.219-0.048,0.345-0.079
			c0.044-0.02,0.102,0.043,0.103,0.125l0.027,0.162c0.001,0.013-0.002,0.062-0.002,0.143l0.018,0.105
			c0.008,0.047,0.001,0.083,0.011,0.141c-0.01,0.016,0.014,0.082,0.044,0.207l0.015,0.082c0.012,0.08,0.025,0.162,0.05,0.241
			c0.005,0.034,0.027,0.092,0.052,0.171l0.012,0.069c0.013,0.081,0.005,0.105,0.018,0.187c0.021,0.129,0.022,0.142-0.059,0.153
			l-0.046,0.007c-0.062-0.002-0.13,0.01-0.182-0.017c-0.063-0.026-0.125-0.029-0.167,0.002c0.001,0.011-0.02,0.026-0.053,0.044
			c-0.089,0.027-0.206-0.026-0.321,0.076c-0.114,0.018-0.174,0.026-0.187,0.018l-0.047,0.008c-0.054,0.045-0.1-0.02-0.146-0.022
			l-0.046,0.008c-0.049,0.066-0.083,0.072-0.125,0.043c-0.026,0.052-0.135,0.117-0.178,0.076c0.022-0.004,0.035-0.006,0.044-0.021
			c0,0-0.001-0.012-0.017-0.021c-0.009,0.014-0.021,0.016-0.031,0.018c-0.014,0.002-0.014,0.002-0.012,0.015
			c-0.031,0.017-0.055,0.021-0.068,0.012c-0.047-0.004-0.127,0.02-0.156,0.061c-0.025,0.136-0.096,0.146-0.183,0.125
			c-0.063-0.024-0.138-0.037-0.179,0.006c-0.031,0.017-0.048-0.006-0.059-0.004c-0.013,0.002-0.028-0.02-0.039-0.018l-0.174,0.028
			c-0.035,0.006-0.075-0.022-0.101,0.04l-0.048,0.008c-0.011,0.002-0.026-0.021-0.036-0.006c-0.051,0.055-0.112,0.041-0.191,0.065
			c-0.057,0.021-0.089,0.038-0.17,0.051l-0.035,0.007c-0.113,0.043-0.276,0.057-0.492,0.055l-0.024,0.063
			c-0.091-0.045-0.146-0.012-0.227,0c-0.007,0.037-0.018,0.039-0.021,0.089c-0.021-0.045-0.06-0.062-0.076-0.097l-0.01,0.015
			c0.013,0.01,0.018,0.032,0.024,0.08c-0.057,0.02-0.137-0.038-0.146-0.097c-0.135,0.058-0.253,0.124-0.354,0.176
			c-0.078-0.047-0.148-0.048-0.215-0.002c-0.029,0.041-0.073,0.062-0.111,0.043c-0.041-0.028-0.069,0.011-0.115,0.019l-0.003-0.011
			c-0.001-0.013-0.014-0.012-0.016-0.022l-0.063,0.119c-0.082,0.013-0.115,0.019-0.13,0.009l0.03-0.041
			c-0.005-0.034-0.018-0.032-0.02-0.044l-0.003-0.012c-0.04-0.029-0.079-0.047-0.127-0.051c-0.006-0.035-0.023-0.068-0.036-0.078
			c-0.019-0.033-0.042-0.04-0.062-0.074c0.024-0.004,0.043-0.03,0.062-0.069c-0.087-0.021-0.072,0.071-0.111,0.126l-0.017-0.104
			l-0.023,0.004c-0.023,0.005-0.033,0.018-0.031,0.029c-0.011,0.014-0.006,0.036,0.001,0.084l0.003,0.022
			c0.003,0.011,0.003,0.011,0.015,0.008c-0.037,0.066-0.003,0.062,0.043,0.055l0.023-0.005l0.005,0.022l-0.071,0.012
			c0.006,0.035,0.01,0.059,0.022,0.067c0.002,0.012-0.009,0.015-0.003,0.049c0.002,0.011,0.002,0.011,0.014,0.01
			c-0.004,0.049-0.002,0.061-0.029,0.112c-0.029,0.039-0.004,0.047-0.034,0.088c-0.083,0.074-0.198,0.104-0.331,0.09
			c-0.107-0.007-0.145-0.084-0.119-0.219L86.266,34.8c-0.013-0.082-0.048-0.146-0.061-0.229c0.003-0.049-0.027-0.091,0.021-0.157
			c0.036-0.006,0.06-0.081,0.016-0.135l-0.147-0.32l-0.063-0.396c-0.024-0.149,0.017-0.265,0.127-0.316l0.023-0.004
			c0.011-0.002,0.011-0.002,0.01-0.016c0.021-0.086,0.064-0.188,0.121-0.281c-0.003-0.021-0.005-0.032,0.004-0.047
			c0.029-0.11,0.084-0.217,0.106-0.303c0.061-0.141,0.056-0.247,0.087-0.348c0.042-0.104,0.102-0.185,0.096-0.289
			c0.027-0.053,0.001-0.144,0.025-0.207c-0.001-0.012,0.032-0.029,0.03-0.041c0.01-0.001,0.021-0.016,0.032-0.018l0.013-0.001
			l0.003-0.202c-0.005-0.035,0.001-0.062,0.034-0.091c0.031-0.016,0.053-0.03,0.072-0.059c0.068-0.096,0.088-0.192,0.061-0.295
			c-0.021-0.057,0.014-0.134,0.062-0.129c0.06,0.001,0.056-0.021,0.095-0.076c0.006-0.036,0.05-0.066,0.039-0.125
			c-0.015-0.093-0.002-0.166,0.048-0.223c0.05-0.056,0.077-0.107,0.114-0.173l0.125-0.259c0.083-0.144,0.172-0.266,0.26-0.386
			l0.151-0.382l0.228-0.371c0.063-0.117,0.113-0.173,0.005-0.334c-0.044-0.052-0.088-0.104-0.128-0.134
			c-0.041-0.029-0.091-0.045-0.148-0.035c-0.048-0.004-0.08,0.023-0.115,0.029l-0.209,0.033c-0.034,0.005-0.089,0.038-0.145,0.061
			c-0.056,0.021-0.129,0.009-0.187,0.029c-0.079,0.024-0.118,0.066-0.207,0.045c-0.083,0.002-0.128,0.021-0.208,0.034
			c-0.081,0.013-0.139,0.021-0.219,0.048c-0.034,0.004-0.091,0.025-0.17,0.051c-0.079,0.023-0.127,0.021-0.174,0.026l-0.034,0.007
			c-0.137-0.037-0.207,0.046-0.3,0.061l-0.128,0.021c-0.081,0.013-0.124,0.044-0.182,0.054c-0.082,0.012-0.132-0.004-0.179,0.004
			c-0.083,0.003-0.16-0.105-0.163-0.199c0.011-0.014,0.004-0.049-0.009-0.129c-0.024-0.08-0.042-0.125-0.057-0.205
			c-0.015-0.093-0.032-0.198-0.041-0.327c-0.009-0.058-0.007-0.118-0.017-0.176c0.052-0.056,0.079-0.097,0.014-0.146
			c0.044-0.019,0.074-0.048,0.095-0.074c-0.106,0.006-0.191-0.076-0.17-0.163c-0.007-0.047-0.025-0.079-0.027-0.091
			c0-0.082-0.021-0.141-0.071-0.156c-0.014-0.152-0.013-0.294-0.037-0.445C84.859,26.837,84.916,26.827,84.942,26.907z
			 M86.757,34.624l-0.028,0.041c0.012-0.002,0.021-0.017,0.032-0.019L86.757,34.624z M86.978,34.362l-0.016-0.092
			c-0.011,0.002-0.011,0.002-0.012-0.01c-0.002-0.012-0.016-0.01-0.017-0.021c-0.01,0.013-0.02,0.026-0.018,0.037
			c-0.009,0.015-0.005,0.037,0,0.071C86.999,34.348,87.011,34.356,86.978,34.362z M88.172,34.17
			c0.011-0.013,0.011-0.013,0.021-0.016c0.023-0.004,0.048-0.008,0.069-0.022c0.013,0.01,0.013,0.01,0.015,0.021
			c-0.028,0.04-0.036,0.064-0.077,0.108c0.081-0.014,0.113-0.031,0.16-0.039l-0.105-0.137c-0.013-0.011-0.028-0.032-0.034-0.066
			c-0.003-0.012-0.003-0.012-0.014-0.01c-0.023,0.005-0.035,0.005-0.044,0.02l0.002,0.154c0.005,0.034,0.009,0.059,0.021,0.067
			L88.172,34.17z M88.212,33.307c0.06,0.003,0.043,0.052,0.042,0.111c0.083-0.001,0.091-0.098,0.121-0.139
			c-0.021-0.045-0.012-0.058-0.05-0.086c-0.008-0.035-0.043-0.041-0.054-0.027c-0.011,0.002-0.02,0.025-0.052,0.044L88.212,33.307z
			 M88.506,34.175l0.047-0.007c-0.006-0.034-0.018-0.032-0.019-0.044c-0.026-0.009-0.052-0.017-0.078-0.035
			c-0.01,0.013-0.02,0.026-0.019,0.039C88.476,34.134,88.493,34.166,88.506,34.175z M88.542,34.027
			c0.021-0.087-0.03-0.042-0.047-0.075c-0.011,0.015-0.011,0.015-0.022,0.016l-0.022,0.004L88.542,34.027z M88.651,33.379
			l0.023-0.005l-0.03-0.186c-0.017-0.032-0.043-0.042-0.063-0.024l-0.119,0.065l-0.002-0.012l0.029-0.028
			c-0.014-0.01-0.014-0.01-0.015-0.021c-0.033,0.018-0.068,0.022-0.077,0.036l0.003,0.023c0.021,0.043,0.046,0.063,0.093,0.057
			c0.037,0.005,0.043-0.03,0.076-0.036c0.027,0.079,0.042,0.11,0.044,0.124C88.626,33.371,88.639,33.38,88.651,33.379z
			 M88.614,33.373c-0.011,0.001-0.032,0.017-0.044,0.019c0.008,0.047,0.034,0.066,0.093,0.058L88.614,33.373z M89.258,33.817
			c-0.045-0.054-0.048-0.075-0.091-0.116c-0.014,0.145-0.061,0.067-0.101,0.039c-0.029,0.04-0.037,0.065-0.045,0.092
			c-0.013-0.011-0.017-0.033-0.026-0.092l-0.008-0.048c-0.003-0.021,0.007-0.035,0.041-0.041l-0.003-0.022
			c-0.013,0.002-0.014-0.01-0.024-0.008l-0.014,0.001c-0.038-0.028-0.067-0.061-0.061-0.085c0.018-0.109-0.046-0.137-0.104-0.209
			c-0.015-0.011-0.029-0.031-0.034-0.056c-0.005-0.034-0.027-0.02-0.043-0.053c-0.01,0.025-0.005,0.05-0.001,0.072
			c0.001,0.012,0.001,0.012-0.008,0.024l0.013,0.069c0.001,0.012,0.001,0.012-0.012,0.014c-0.012,0.001-0.021,0.016-0.032,0.018
			c0.044,0.053,0.073,0.096,0.07,0.145c-0.032,0.017-0.027,0.039-0.065,0.033c-0.024-0.008-0.035,0.006-0.041,0.043
			c0.005,0.035-0.001,0.071,0.017,0.104c0.042,0.04,0.063,0.097,0.108,0.006c0.012-0.001,0.014,0.01,0.024,0.008
			c0.006,0.034,0.011,0.058,0,0.071c0.04,0.028,0.077,0.034,0.074,0.096c-0.009,0.014,0.021,0.044,0.034,0.054
			c0.034-0.005,0.05,0.018,0.086,0.022l0.054,0.039c-0.002-0.014,0.006-0.037,0.003-0.05c-0.001-0.011-0.001-0.011,0.012-0.014
			c0.075-0.049,0.026-0.052-0.015-0.081l-0.012-0.01c-0.013,0.002-0.013,0.002-0.025-0.008c0.078-0.024,0.117-0.007,0.135,0.024
			C89.205,33.86,89.228,33.856,89.258,33.817z M89.294,33.228c0.002-0.061-0.016-0.093-0.05-0.088
			c-0.013,0.002-0.037-0.006-0.077-0.035l-0.188-0.136c-0.011,0.014-0.011,0.014-0.009,0.025c-0.009,0.013-0.009,0.013-0.007,0.023
			c0.052,0.1,0.098,0.234,0.207,0.252c0.037,0.008,0.053,0.028,0.067,0.062c0.014-0.002,0.026,0.008,0.055,0.026
			C89.29,33.275,89.295,33.24,89.294,33.228z M89.187,33.376c-0.013-0.01-0.024-0.009-0.048-0.004
			c-0.025,0.062-0.039,0.053-0.075,0.059c0.011,0.06,0.015,0.082,0.004,0.096c0.006,0.033,0.02,0.044,0.024,0.078
			c0.024-0.075,0.059-0.082,0.104-0.017c0.017,0.032,0.058,0.062,0.095,0.068c0.033-0.018,0.025-0.053,0.056-0.094
			c-0.04-0.027-0.084-0.01-0.098-0.091c-0.002-0.013-0.037-0.006-0.077-0.036C89.183,33.424,89.19,33.398,89.187,33.376z
			 M89.376,33.965c0.005-0.038,0.012-0.074,0.021-0.088l-0.115,0.09l0.013,0.01L89.376,33.965z M90.26,33.763
			c0.046-0.092,0.103-0.029,0.141-0.022c0.083-0.003,0.115-0.02,0.174-0.028l0.01-0.013c0.082-0.015,0.059-0.081,0.044-0.175
			c-0.003-0.012-0.003-0.012,0.007-0.024c-0.001-0.013,0.007-0.025,0.018-0.039c0.011-0.013,0.021-0.026,0.03-0.028
			c-0.021-0.066-0.051-0.099-0.087-0.104c-0.012,0.002-0.027-0.021-0.065-0.025c-0.001-0.012-0.012-0.01-0.035-0.006
			c-0.012,0.001-0.01,0.014-0.021,0.015l-0.01,0.015l-0.008-0.059c-0.094,0.099-0.181,0.221-0.248,0.313
			C90.217,33.638,90.248,33.681,90.26,33.763z M91.142,33.69l-0.008-0.045l-0.082,0.013c-0.009,0.014-0.007,0.024-0.005,0.036
			C91.061,33.704,91.084,33.7,91.142,33.69z M91.368,33.321c0.046-0.008,0.06,0.003,0.093-0.016
			c0.009-0.013,0.003-0.048,0.033-0.088l-0.128,0.092L91.368,33.321z"/>
		<path d="M98.222,19.407c0,0.063,0.021,0.063,0.042,0.043c0.148,0,0.254-0.022,0.402-0.043c0.063,0,0.148-0.064,0.232,0
			c0.063,0.085,0.128,0,0.234,0c0.062,0,0.105-0.021,0.191-0.021h0.084c0.105-0.021,0.212-0.064,0.297-0.064
			c0.105-0.021,0.212,0,0.36-0.021c0,0,0-0.022,0.021-0.043c0.085-0.169,0.189-0.212,0.339-0.127
			c0.062,0.021,0.062,0.062,0.086,0.085c0.021,0.021,0.084,0.085,0.105,0.021c0.147-0.021,0.213,0.021,0.317,0.042
			c0.106,0.063,0.254,0.086,0.36-0.021c0.062-0.085,0.105-0.085,0.146,0.021c0.021,0.042,0.064,0.042,0.107,0
			c0.104,0,0.147,0,0.169-0.021c0.063,0,0.106,0,0.128-0.021c0.084-0.128,0.169-0.147,0.275-0.043
			c0.146,0.148,0.254,0.127,0.424,0.127c0.021,0,0.042-0.062,0.104-0.084c0.148-0.085,0.254-0.105,0.36-0.043
			c0.19,0.106,0.339,0.127,0.466,0.084c0.021-0.021,0.128-0.021,0.318-0.021c0.085-0.021,0.147,0,0.297,0l0.445-0.063h0.104
			c0.106,0.043,0.212,0.063,0.318,0.063c0.233,0,0.467-0.021,0.699-0.021h0.34c0.189,0,0.317-0.043,0.467-0.043
			c0.317,0.021,0.53,0.021,0.763,0.084h0.086c0.169-0.062,0.38-0.021,0.572-0.084h0.021c0.315,0.063,0.55,0.148,0.806,0.212
			c0.062,0.021,0.083,0.064,0.083,0.129v1.144c0.021,0.361,0.021,0.7,0.021,1.104c0,0.062-0.042,0.062-0.063,0.127l-0.084,0.084
			c-0.063,0.106-0.106,0.213-0.19,0.274c-0.105,0.148-0.232,0.297-0.339,0.467c-0.147,0.148-0.232,0.298-0.382,0.445
			c-0.191,0.17-0.297,0.403-0.444,0.637l-0.233,0.275c-0.021,0-0.063,0.021-0.084,0.043c-0.149,0.232-0.213,0.401-0.446,0.571
			c-0.147,0.147-0.232,0.232-0.339,0.402c-0.064,0.105-0.127,0.211-0.233,0.317c-0.232,0.233-0.425,0.425-0.571,0.742l-0.021,0.021
			c-0.085,0.104-0.128,0.168-0.189,0.316c-0.044,0.105-0.106,0.19-0.171,0.255c-0.085,0.063-0.17,0.105-0.232,0.19
			c-0.189,0.19-0.297,0.34-0.36,0.487c-0.062,0.148-0.169,0.17-0.254,0.318c-0.085,0.147-0.212,0.231-0.297,0.381
			c-0.149,0.148-0.212,0.318-0.233,0.551l-0.104,0.213c-0.148,0.064-0.255,0.275-0.34,0.425c-0.147,0.168-0.232,0.401-0.381,0.637
			c0,0.084,0.021,0.104,0.021,0.168c0,0.021,0,0.043,0.021,0.043c0.021,0.062-0.021,0.084,0.041,0.084
			c0.105,0.147,0.231,0.297,0.382,0.297h2.29c0.169-0.021,0.359-0.084,0.529-0.084c0.084-0.021,0.169,0,0.254,0
			c0.17-0.021,0.317-0.063,0.467-0.063c0.171,0,0.317,0.021,0.468-0.042c0.021-0.021,0.021-0.021,0.021,0
			c0.041,0.063,0.104,0.085,0.189,0.021h0.105l0.595-0.043c0.188,0,0.401-0.021,0.635-0.042c0.085-0.021,0.171,0.104,0.148,0.254
			v0.297c0,0.021-0.021,0.107-0.042,0.255v0.19c0,0.085-0.021,0.147-0.021,0.256c-0.021,0.02,0,0.146,0.021,0.381v0.148
			c0,0.147,0,0.297,0.021,0.444c0,0.062,0.021,0.169,0.043,0.317v0.127c0,0.148-0.021,0.191-0.021,0.34c0,0.233,0,0.254-0.148,0.254
			h-0.085c-0.105-0.021-0.231-0.021-0.317-0.085c-0.104-0.062-0.213-0.084-0.296-0.042c0,0.021-0.044,0.042-0.105,0.063
			c-0.17,0.021-0.361-0.105-0.595,0.043c-0.212,0-0.317,0-0.34-0.021h-0.084c-0.104,0.063-0.17-0.063-0.254-0.085h-0.086
			c-0.104,0.106-0.169,0.106-0.232,0.042c-0.063,0.085-0.274,0.17-0.339,0.085c0.041,0,0.063,0,0.084-0.021c0,0,0-0.021-0.021-0.043
			c-0.022,0.021-0.043,0.021-0.063,0.021s-0.021,0-0.021,0.021c-0.063,0.021-0.106,0.021-0.128,0c-0.084-0.021-0.232,0-0.297,0.062
			c-0.084,0.234-0.212,0.234-0.36,0.17c-0.104-0.062-0.233-0.104-0.317-0.042c-0.063,0.021-0.084-0.021-0.104-0.021
			c-0.022,0-0.043-0.043-0.064-0.043h-0.317c-0.063,0-0.127-0.064-0.19,0.043h-0.085c-0.021,0-0.042-0.043-0.062-0.021
			c-0.105,0.084-0.212,0.042-0.36,0.062c-0.105,0.021-0.17,0.043-0.318,0.043h-0.062c-0.213,0.043-0.51,0.021-0.892-0.043
			l-0.062,0.106c-0.149-0.106-0.255-0.063-0.403-0.063c-0.021,0.063-0.042,0.063-0.062,0.147c-0.023-0.084-0.086-0.127-0.106-0.19
			l-0.021,0.021c0.021,0.021,0.021,0.064,0.021,0.148c-0.105,0.021-0.232-0.105-0.232-0.211c-0.254,0.062-0.488,0.147-0.679,0.211
			c-0.129-0.105-0.256-0.127-0.383-0.062c-0.062,0.062-0.146,0.084-0.211,0.041c-0.063-0.062-0.129,0-0.213,0v-0.021
			c0-0.021-0.021-0.021-0.021-0.042l-0.149,0.188c-0.147,0-0.212,0-0.232-0.02l0.064-0.064c0-0.062-0.021-0.062-0.021-0.084v-0.021
			c-0.063-0.064-0.128-0.106-0.212-0.127c0-0.064-0.021-0.128-0.043-0.149c-0.02-0.062-0.062-0.085-0.083-0.146
			c0.042,0,0.083-0.043,0.127-0.106c-0.147-0.062-0.147,0.106-0.232,0.19v-0.19h-0.042c-0.042,0-0.065,0.021-0.065,0.042
			c-0.02,0.021-0.02,0.064-0.02,0.148v0.043c0,0.021,0,0.021,0.02,0.021c-0.083,0.106-0.02,0.106,0.065,0.106h0.042v0.043H99.24
			c0,0.062,0,0.104,0.02,0.127c0,0.021-0.02,0.021-0.02,0.084c0,0.021,0,0.021,0.02,0.021c-0.02,0.084-0.02,0.105-0.083,0.191
			c-0.064,0.064-0.021,0.084-0.085,0.148c-0.169,0.104-0.381,0.127-0.615,0.062c-0.189-0.042-0.231-0.189-0.146-0.424v-0.084
			c0-0.148-0.042-0.276-0.042-0.424c0.021-0.086-0.021-0.17,0.083-0.275c0.063,0,0.128-0.128,0.063-0.234l-0.169-0.614v-0.722
			c0-0.274,0.105-0.466,0.318-0.528h0.042c0.021,0,0.021,0,0.021-0.021c0.063-0.148,0.168-0.318,0.297-0.468
			c0-0.042,0-0.062,0.021-0.084c0.085-0.191,0.213-0.361,0.277-0.508c0.146-0.234,0.169-0.426,0.253-0.595
			c0.105-0.171,0.233-0.298,0.255-0.487c0.063-0.085,0.042-0.254,0.106-0.361c0-0.021,0.063-0.041,0.063-0.062
			c0.021,0,0.042-0.021,0.062-0.021h0.021l0.063-0.361c0-0.062,0.021-0.104,0.085-0.147c0.063-0.021,0.104-0.041,0.147-0.083
			c0.149-0.149,0.213-0.319,0.19-0.51c-0.021-0.106,0.062-0.233,0.148-0.212c0.106,0.021,0.106-0.021,0.191-0.106
			c0.02-0.062,0.104-0.104,0.104-0.212c0-0.17,0.043-0.297,0.147-0.381c0.105-0.086,0.171-0.17,0.256-0.275l0.297-0.424
			c0.19-0.233,0.381-0.425,0.571-0.615l0.382-0.637l0.509-0.594c0.148-0.189,0.254-0.274,0.105-0.594
			c-0.064-0.105-0.127-0.212-0.19-0.273c-0.062-0.064-0.146-0.107-0.254-0.107c-0.085-0.021-0.149,0.021-0.212,0.021h-0.382
			c-0.063,0-0.169,0.042-0.275,0.062c-0.105,0.022-0.233-0.021-0.339,0c-0.148,0.022-0.234,0.085-0.383,0.022
			c-0.148-0.022-0.232,0-0.382,0c-0.147,0-0.253,0-0.401,0.02c-0.064,0-0.17,0.021-0.318,0.043c-0.147,0.022-0.232,0-0.317,0h-0.064
			c-0.232-0.105-0.381,0.021-0.551,0.021h-0.234c-0.147,0-0.232,0.043-0.338,0.043c-0.147,0-0.232-0.043-0.317-0.043
			c-0.148-0.021-0.255-0.232-0.233-0.403c0.021-0.021,0.021-0.085,0.021-0.232c-0.021-0.147-0.042-0.232-0.042-0.382
			c0-0.17,0-0.359,0.021-0.594c0-0.105,0.021-0.212,0.021-0.317c0.105-0.084,0.17-0.148,0.063-0.256
			c0.084-0.021,0.148-0.062,0.191-0.104c-0.191-0.022-0.318-0.191-0.254-0.34c0-0.086-0.021-0.148-0.021-0.17
			c0.021-0.148,0-0.254-0.085-0.297c0.021-0.275,0.063-0.529,0.063-0.806C98.095,19.259,98.2,19.259,98.222,19.407z M99.24,33.675
			l-0.064,0.062c0.021,0,0.043-0.021,0.064-0.021V33.675z M99.706,33.271v-0.169c-0.021,0-0.021,0-0.021-0.021
			c0-0.021-0.021-0.021-0.021-0.043c-0.021,0.021-0.042,0.043-0.042,0.063C99.6,33.123,99.6,33.166,99.6,33.229
			C99.748,33.251,99.77,33.271,99.706,33.271z M101.89,33.271c0.021-0.021,0.021-0.021,0.042-0.021c0.041,0,0.085,0,0.127-0.021
			c0.021,0.021,0.021,0.021,0.021,0.042c-0.063,0.063-0.084,0.106-0.17,0.17c0.147,0,0.213-0.021,0.297-0.021l-0.148-0.275
			c-0.021-0.021-0.042-0.063-0.042-0.128c0-0.021,0-0.021-0.021-0.021c-0.043,0-0.064,0-0.086,0.021l-0.042,0.275
			c0,0.062,0,0.105,0.021,0.128L101.89,33.271L101.89,33.271z M102.207,31.745c0.104,0.021,0.062,0.104,0.043,0.213
			c0.147,0.021,0.189-0.148,0.254-0.213c-0.021-0.084,0-0.105-0.063-0.17c0-0.062-0.062-0.084-0.085-0.062
			c-0.021,0-0.043,0.043-0.104,0.062L102.207,31.745z M102.483,33.378h0.085c0-0.063-0.021-0.063-0.021-0.085
			c-0.043-0.021-0.085-0.042-0.127-0.085c-0.021,0.021-0.043,0.043-0.043,0.062C102.44,33.293,102.462,33.356,102.483,33.378z
			 M102.589,33.123c0.062-0.148-0.042-0.085-0.063-0.148c-0.021,0.021-0.021,0.021-0.042,0.021h-0.043L102.589,33.123z
			 M102.971,31.999h0.042v-0.338c-0.021-0.064-0.062-0.086-0.105-0.064l-0.232,0.086v-0.021l0.062-0.043
			c-0.021-0.021-0.021-0.021-0.021-0.043c-0.063,0.021-0.127,0.021-0.147,0.043v0.043c0.021,0.084,0.063,0.127,0.147,0.127
			c0.062,0.021,0.085-0.043,0.149-0.043c0.021,0.147,0.04,0.213,0.04,0.232C102.928,31.979,102.949,31.999,102.971,31.999z
			 M102.906,31.979c-0.021,0-0.062,0.021-0.084,0.021c0,0.086,0.044,0.128,0.148,0.128L102.906,31.979z M103.924,32.954
			c-0.063-0.106-0.063-0.148-0.127-0.233c-0.064,0.254-0.127,0.105-0.19,0.042c-0.062,0.063-0.085,0.106-0.105,0.148
			c-0.021-0.021-0.021-0.063-0.021-0.17v-0.084c0-0.042,0.021-0.064,0.086-0.064v-0.042c-0.021,0-0.021-0.021-0.043-0.021H103.5
			c-0.064-0.063-0.105-0.128-0.084-0.17c0.062-0.19-0.043-0.254-0.128-0.401c-0.021-0.021-0.042-0.064-0.042-0.107
			c0-0.062-0.043-0.041-0.063-0.104c-0.021,0.043-0.021,0.085-0.021,0.127c0,0.021,0,0.021-0.022,0.043v0.127
			c0,0.021,0,0.021-0.02,0.021c-0.021,0-0.043,0.021-0.063,0.021c0.063,0.104,0.105,0.189,0.083,0.274
			c-0.062,0.021-0.062,0.063-0.126,0.042c-0.042-0.021-0.062,0-0.085,0.063c0,0.063-0.021,0.127,0,0.191
			c0.064,0.084,0.085,0.189,0.191,0.042c0.02,0,0.02,0.021,0.042,0.021c0,0.063,0,0.105-0.022,0.127
			c0.064,0.063,0.129,0.085,0.107,0.19c-0.021,0.021,0.021,0.085,0.042,0.106c0.062,0,0.085,0.041,0.146,0.062l0.086,0.085
			c0-0.021,0.021-0.063,0.021-0.085c0-0.022,0-0.021,0.021-0.021c0.147-0.062,0.062-0.084,0-0.147l-0.021-0.021
			c-0.021,0-0.021,0-0.043-0.021c0.147-0.021,0.212,0.021,0.231,0.085C103.818,33.018,103.86,33.018,103.924,32.954z
			 M104.157,31.915c0.021-0.105,0-0.17-0.063-0.17c-0.021,0-0.064-0.021-0.127-0.084l-0.297-0.297
			c-0.021,0.021-0.021,0.021-0.021,0.042c-0.021,0.021-0.021,0.021-0.021,0.042c0.063,0.19,0.104,0.444,0.297,0.51
			c0.063,0.021,0.085,0.062,0.104,0.127c0.022,0,0.043,0.021,0.087,0.062C104.136,31.999,104.157,31.937,104.157,31.915z
			 M103.924,32.147c-0.021-0.021-0.042-0.021-0.084-0.021c-0.063,0.105-0.085,0.085-0.148,0.085c0,0.104,0,0.147-0.021,0.17
			c0,0.062,0.021,0.084,0.021,0.147c0.063-0.128,0.127-0.128,0.19,0c0.021,0.062,0.085,0.128,0.146,0.148
			c0.064-0.021,0.064-0.086,0.129-0.148c-0.063-0.063-0.148-0.043-0.148-0.19c0-0.021-0.063-0.021-0.127-0.085
			C103.903,32.233,103.924,32.19,103.924,32.147z M104.094,33.251c0.021-0.064,0.042-0.128,0.063-0.148l-0.233,0.127l0.021,0.021
			H104.094z M105.727,33.146c0.105-0.148,0.19-0.021,0.254,0c0.148,0.021,0.212,0,0.318,0l0.021-0.021
			c0.148,0,0.126-0.127,0.126-0.297c0-0.021,0-0.021,0.022-0.042c0-0.021,0.021-0.043,0.042-0.063s0.042-0.042,0.063-0.042
			c-0.021-0.128-0.063-0.19-0.129-0.213c-0.021,0-0.041-0.042-0.104-0.063c0-0.021-0.021-0.021-0.063-0.021
			c-0.021,0-0.021,0.021-0.043,0.021l-0.021,0.021v-0.106c-0.19,0.148-0.382,0.341-0.53,0.488
			C105.684,32.911,105.727,32.996,105.727,33.146z M107.317,33.271v-0.085h-0.148c-0.021,0.021-0.021,0.043-0.021,0.064
			C107.168,33.271,107.211,33.271,107.317,33.271z M107.825,32.679c0.085,0,0.104,0.021,0.17,0c0.021-0.021,0.021-0.086,0.084-0.147
			l-0.254,0.127V32.679z"/>
		<path d="M118.665,14.587c-0.033,0.082-0.004,0.092,0.033,0.076c0.19,0.072,0.339,0.098,0.539,0.144
			c0.082,0.032,0.225-0.008,0.303,0.117c0.039,0.14,0.164,0.062,0.301,0.115c0.082,0.031,0.146,0.024,0.257,0.067l0.109,0.042
			c0.146,0.025,0.306,0.023,0.415,0.065c0.146,0.025,0.271,0.104,0.476,0.151c0,0,0.011-0.027,0.048-0.045
			c0.193-0.177,0.353-0.179,0.501,0.005c0.071,0.059,0.052,0.112,0.067,0.15c0.018,0.038,0.067,0.151,0.125,0.08
			c0.203,0.046,0.265,0.133,0.391,0.213c0.105,0.134,0.286,0.235,0.478,0.151c0.123-0.078,0.178-0.058,0.179,0.101
			c0.008,0.065,0.062,0.086,0.137,0.054c0.139,0.053,0.192,0.073,0.23,0.057c0.083,0.031,0.137,0.052,0.175,0.035
			c0.173-0.122,0.293-0.107,0.376,0.082c0.118,0.265,0.266,0.291,0.484,0.375c0.026,0.01,0.086-0.062,0.179-0.058
			c0.233-0.037,0.381-0.011,0.486,0.123c0.193,0.232,0.375,0.333,0.56,0.341c0.039-0.016,0.175,0.036,0.421,0.132
			c0.12,0.015,0.192,0.072,0.383,0.146l0.607,0.139l0.136,0.053c0.115,0.107,0.242,0.187,0.38,0.24
			c0.301,0.115,0.611,0.203,0.912,0.318l0.438,0.168c0.245,0.095,0.431,0.104,0.623,0.177c0.397,0.186,0.672,0.29,0.941,0.488
			l0.109,0.042c0.25,0.001,0.502,0.161,0.781,0.174l0.025,0.011c0.379,0.239,0.638,0.465,0.935,0.673
			c0.071,0.059,0.078,0.125,0.048,0.207l-0.568,1.477c-0.15,0.478-0.318,0.914-0.519,1.435c-0.031,0.082-0.087,0.061-0.146,0.133
			l-0.15,0.067c-0.137,0.104-0.242,0.221-0.384,0.261c-0.21,0.139-0.447,0.268-0.669,0.434c-0.266,0.118-0.447,0.268-0.713,0.387
			c-0.331,0.123-0.582,0.371-0.89,0.6l-0.438,0.238c-0.025-0.01-0.093-0.004-0.13,0.015c-0.307,0.228-0.473,0.415-0.856,0.518
			c-0.268,0.119-0.417,0.187-0.639,0.353c-0.135,0.104-0.27,0.211-0.459,0.295c-0.417,0.186-0.757,0.336-1.105,0.674l-0.037,0.018
			c-0.163,0.095-0.249,0.155-0.404,0.315c-0.106,0.114-0.231,0.192-0.345,0.243c-0.142,0.041-0.271,0.053-0.396,0.132
			c-0.342,0.151-0.551,0.29-0.706,0.449c-0.156,0.161-0.304,0.136-0.485,0.285c-0.185,0.148-0.39,0.194-0.572,0.345
			c-0.266,0.119-0.433,0.307-0.574,0.596l-0.241,0.221c-0.225,0.01-0.466,0.23-0.648,0.379c-0.275,0.146-0.501,0.404-0.807,0.633
			c-0.043,0.109-0.025,0.146-0.058,0.229c-0.011,0.027-0.021,0.055,0.005,0.064c-0.004,0.094-0.067,0.1,0.015,0.131
			c0.062,0.244,0.152,0.498,0.346,0.572l2.953,1.136c0.229,0.056,0.508,0.068,0.727,0.153c0.12,0.014,0.219,0.084,0.327,0.126
			c0.229,0.057,0.443,0.074,0.634,0.148c0.221,0.083,0.401,0.186,0.623,0.176c0.038-0.017,0.038-0.017,0.028,0.012
			c0.023,0.104,0.095,0.16,0.234,0.122l0.137,0.053l0.788,0.24c0.245,0.094,0.529,0.172,0.841,0.259
			c0.12,0.015,0.166,0.222,0.065,0.401l-0.146,0.384c-0.011,0.027-0.08,0.126-0.181,0.308l-0.096,0.246
			c-0.042,0.109-0.102,0.182-0.153,0.317c-0.037,0.017-0.073,0.191-0.161,0.503l-0.073,0.191c-0.074,0.191-0.146,0.384-0.192,0.585
			c-0.031,0.082-0.059,0.229-0.104,0.432l-0.062,0.164c-0.074,0.191-0.122,0.235-0.196,0.428c-0.115,0.301-0.127,0.327-0.317,0.255
			l-0.108-0.043c-0.126-0.078-0.29-0.144-0.368-0.268c-0.105-0.134-0.232-0.214-0.361-0.201c-0.011,0.026-0.076,0.034-0.168,0.029
			c-0.23-0.058-0.414-0.314-0.788-0.239c-0.272-0.104-0.41-0.157-0.428-0.195l-0.108-0.042c-0.169,0.029-0.188-0.166-0.286-0.235
			l-0.109-0.042c-0.189,0.084-0.271,0.054-0.321-0.061c-0.124,0.076-0.438,0.082-0.479-0.061c0.056,0.021,0.082,0.032,0.119,0.016
			c0,0,0.012-0.027-0.006-0.064c-0.037,0.018-0.065,0.006-0.093-0.004c-0.026-0.012-0.026-0.012-0.037,0.017
			c-0.094-0.005-0.147-0.024-0.165-0.062c-0.099-0.069-0.301-0.115-0.414-0.064c-0.226,0.26-0.39,0.195-0.55,0.039
			c-0.104-0.135-0.249-0.252-0.389-0.213c-0.093-0.003-0.101-0.067-0.126-0.078c-0.029-0.012-0.034-0.075-0.062-0.087l-0.411-0.156
			c-0.08-0.031-0.132-0.146-0.268-0.04l-0.108-0.042c-0.027-0.011-0.033-0.076-0.071-0.06c-0.179,0.058-0.293-0.051-0.496-0.098
			c-0.147-0.024-0.24-0.029-0.433-0.104l-0.082-0.029c-0.294-0.051-0.666-0.227-1.127-0.496l-0.135,0.105
			c-0.14-0.213-0.298-0.21-0.488-0.283c-0.059,0.072-0.086,0.062-0.155,0.16c0.015-0.119-0.047-0.207-0.041-0.299l-0.038,0.019
			c0.017,0.036-0.005,0.092-0.047,0.2c-0.147-0.023-0.249-0.252-0.196-0.389c-0.358-0.045-0.703-0.051-0.979-0.063
			c-0.11-0.198-0.267-0.289-0.462-0.271c-0.111,0.051-0.231,0.035-0.294-0.051c-0.051-0.113-0.164-0.063-0.273-0.105l0.011-0.026
			c0.011-0.027-0.016-0.037-0.006-0.064l-0.286,0.172c-0.191-0.073-0.273-0.104-0.29-0.143l0.114-0.051
			c0.029-0.082,0.004-0.093,0.015-0.119l0.01-0.027c-0.051-0.113-0.11-0.201-0.211-0.27c0.032-0.082,0.036-0.177,0.021-0.215
			c0.004-0.093-0.041-0.14-0.036-0.232c0.055,0.021,0.131-0.013,0.218-0.072c-0.161-0.156-0.244,0.062-0.396,0.129l0.094-0.245
			l-0.055-0.021c-0.055-0.021-0.094-0.003-0.104,0.023c-0.038,0.017-0.06,0.07-0.102,0.181l-0.021,0.055
			c-0.01,0.027-0.01,0.027,0.018,0.037c-0.161,0.096-0.08,0.127,0.029,0.17l0.056,0.021l-0.021,0.056l-0.165-0.064
			c-0.031,0.083-0.052,0.138-0.036,0.177c-0.01,0.026-0.037,0.016-0.068,0.1c-0.012,0.026-0.012,0.026,0.017,0.037
			c-0.069,0.098-0.079,0.126-0.203,0.204c-0.114,0.05-0.069,0.099-0.183,0.148c-0.272,0.054-0.557-0.024-0.825-0.223
			c-0.226-0.15-0.206-0.361,0.02-0.62l0.041-0.11c0.074-0.19,0.082-0.377,0.154-0.567c0.07-0.099,0.058-0.229,0.247-0.312
			c0.082,0.031,0.227-0.102,0.197-0.271l0.086-0.876l0.357-0.933c0.137-0.354,0.367-0.549,0.674-0.524l0.055,0.02
			c0.028,0.012,0.028,0.012,0.038-0.016c0.155-0.16,0.376-0.326,0.613-0.455c0.021-0.055,0.031-0.082,0.068-0.099
			c0.204-0.204,0.452-0.36,0.608-0.521c0.308-0.227,0.429-0.463,0.622-0.64c0.222-0.166,0.448-0.268,0.569-0.503
			c0.124-0.078,0.182-0.308,0.316-0.412c0.01-0.027,0.102-0.023,0.112-0.051c0.026,0.01,0.064-0.007,0.094,0.004l0.026,0.012
			l0.261-0.437c0.032-0.081,0.081-0.125,0.183-0.147c0.094,0.004,0.158-0.002,0.234-0.036c0.265-0.118,0.432-0.306,0.499-0.562
			c0.023-0.147,0.196-0.271,0.296-0.201c0.126,0.082,0.146,0.024,0.299-0.041c0.059-0.071,0.188-0.084,0.241-0.223
			c0.085-0.219,0.202-0.36,0.381-0.419c0.18-0.057,0.305-0.134,0.466-0.229l0.592-0.4c0.362-0.207,0.704-0.356,1.043-0.51
			l0.81-0.631l0.951-0.514c0.286-0.174,0.464-0.23,0.431-0.715c-0.03-0.168-0.059-0.337-0.109-0.449
			c-0.05-0.113-0.139-0.211-0.274-0.264c-0.1-0.068-0.202-0.047-0.284-0.077l-0.492-0.189c-0.082-0.032-0.24-0.028-0.388-0.055
			c-0.147-0.024-0.29-0.144-0.438-0.167c-0.203-0.048-0.343-0.007-0.504-0.162c-0.181-0.103-0.302-0.116-0.493-0.189
			c-0.189-0.074-0.326-0.127-0.528-0.172c-0.082-0.031-0.229-0.057-0.434-0.104c-0.2-0.047-0.3-0.114-0.407-0.156l-0.084-0.032
			c-0.248-0.251-0.503-0.162-0.723-0.246l-0.3-0.115c-0.192-0.073-0.323-0.061-0.459-0.112c-0.191-0.073-0.278-0.171-0.389-0.213
			c-0.183-0.101-0.214-0.427-0.103-0.636c0.037-0.017,0.068-0.099,0.144-0.29c0.047-0.202,0.061-0.321,0.135-0.514
			c0.083-0.218,0.178-0.464,0.321-0.755c0.053-0.137,0.132-0.264,0.186-0.401c0.178-0.057,0.291-0.106,0.208-0.295
			c0.119,0.015,0.223-0.009,0.298-0.042c-0.234-0.122-0.313-0.404-0.16-0.563c0.042-0.11,0.047-0.202,0.059-0.229
			c0.1-0.182,0.126-0.33,0.037-0.426c0.164-0.344,0.345-0.652,0.48-1.008C118.574,14.333,118.711,14.384,118.665,14.587z
			 M112.904,33.501l-0.111,0.051c0.024,0.011,0.063-0.006,0.092,0.004L112.904,33.501z M113.707,33.212l0.084-0.218
			c-0.028-0.012-0.028-0.012-0.019-0.038c0.011-0.027-0.017-0.037-0.007-0.064c-0.037,0.017-0.075,0.033-0.086,0.062
			c-0.037,0.018-0.059,0.07-0.09,0.153C113.771,33.208,113.789,33.245,113.707,33.212z M116.524,34.296
			c0.037-0.019,0.037-0.019,0.065-0.006c0.054,0.021,0.109,0.041,0.175,0.035c0.016,0.037,0.016,0.037,0.006,0.063
			c-0.112,0.051-0.162,0.095-0.303,0.135c0.191,0.074,0.283,0.078,0.393,0.119l-0.055-0.428c-0.017-0.038-0.021-0.104,0.009-0.187
			c0.012-0.026,0.012-0.026-0.017-0.036c-0.055-0.021-0.083-0.033-0.12-0.016l-0.191,0.335c-0.03,0.08-0.053,0.137-0.034,0.174
			L116.524,34.296z M117.69,32.483c0.127,0.08,0.03,0.168-0.05,0.295c0.182,0.103,0.32-0.098,0.434-0.146
			c0.016-0.12,0.054-0.138,0.003-0.25c0.031-0.083-0.041-0.142-0.078-0.124c-0.027-0.012-0.075,0.033-0.168,0.029L117.69,32.483z
			 M117.237,34.726l0.11,0.043c0.031-0.082,0.004-0.092,0.014-0.119c-0.044-0.05-0.088-0.098-0.12-0.173
			c-0.038,0.018-0.077,0.034-0.088,0.062C117.225,34.597,117.222,34.688,117.237,34.726z M117.5,34.45
			c0.154-0.159-0.013-0.13-0.008-0.224c-0.038,0.019-0.038,0.019-0.064,0.008l-0.056-0.021L117.5,34.45z M118.549,33.19l0.055,0.021
			l0.169-0.438c0.004-0.093-0.041-0.142-0.104-0.135l-0.344-0.006l0.012-0.027l0.103-0.022c-0.018-0.038-0.018-0.038-0.007-0.065
			c-0.093-0.004-0.175-0.035-0.212-0.02l-0.021,0.057c-0.016,0.119,0.019,0.195,0.129,0.236c0.069,0.059,0.129-0.013,0.212,0.02
			c-0.047,0.201-0.051,0.294-0.062,0.322C118.505,33.142,118.522,33.179,118.549,33.19z M118.478,33.132
			c-0.025-0.01-0.092-0.005-0.119-0.016c-0.042,0.108-0.009,0.186,0.128,0.237L118.478,33.132z M119.308,34.895
			c-0.029-0.169-0.009-0.224-0.048-0.363c-0.208,0.297-0.217,0.073-0.268-0.04c-0.113,0.05-0.162,0.095-0.211,0.139
			c-0.018-0.038,0.004-0.092,0.058-0.229l0.041-0.107c0.021-0.057,0.06-0.071,0.142-0.041l0.021-0.056
			c-0.027-0.011-0.018-0.036-0.045-0.048l-0.026-0.01c-0.052-0.113-0.074-0.218-0.026-0.262c0.178-0.215,0.072-0.351,0.036-0.583
			c-0.017-0.038-0.022-0.104-0.003-0.157c0.032-0.082-0.033-0.076-0.028-0.168c-0.05,0.043-0.069,0.1-0.091,0.152
			c-0.011,0.026-0.011,0.026-0.049,0.045l-0.062,0.164c-0.012,0.026-0.012,0.026-0.038,0.017c-0.028-0.011-0.065,0.007-0.093-0.004
			c0.028,0.169,0.042,0.299-0.027,0.397c-0.093-0.005-0.114,0.051-0.185-0.009c-0.046-0.049-0.082-0.031-0.143,0.039
			c-0.031,0.082-0.09,0.154-0.095,0.247c0.04,0.141,0.016,0.288,0.226,0.148c0.027,0.011,0.019,0.038,0.044,0.049
			c-0.031,0.082-0.053,0.136-0.091,0.154c0.052,0.111,0.123,0.171,0.043,0.298c-0.037,0.018-0.015,0.121,0.002,0.158
			c0.082,0.03,0.089,0.097,0.16,0.155l0.067,0.151c0.011-0.028,0.06-0.072,0.068-0.1c0.012-0.026,0.012-0.026,0.037-0.018
			c0.225-0.009,0.124-0.078,0.074-0.19l-0.017-0.038c-0.027-0.012-0.027-0.012-0.044-0.049c0.2,0.046,0.262,0.133,0.258,0.226
			C119.14,34.923,119.194,34.944,119.308,34.895z M120.123,33.669c0.08-0.125,0.085-0.219,0.002-0.25
			c-0.026-0.01-0.071-0.061-0.121-0.172l-0.236-0.531c-0.038,0.018-0.038,0.018-0.048,0.044c-0.039,0.018-0.039,0.018-0.05,0.046
			c-0.012,0.277-0.083,0.626,0.132,0.803c0.071,0.061,0.078,0.124,0.074,0.218c0.026,0.012,0.044,0.048,0.078,0.125
			C120.054,33.769,120.112,33.696,120.123,33.669z M119.707,33.854c-0.017-0.037-0.044-0.049-0.1-0.069
			c-0.135,0.105-0.149,0.067-0.232,0.036c-0.054,0.138-0.073,0.191-0.111,0.209c-0.031,0.081-0.015,0.119-0.047,0.201
			c0.146-0.133,0.228-0.102,0.246,0.095c-0.003,0.094,0.047,0.207,0.118,0.266c0.093,0.006,0.125-0.078,0.237-0.128
			c-0.052-0.113-0.171-0.128-0.098-0.319c0.011-0.027-0.071-0.059-0.122-0.173C119.638,33.954,119.687,33.909,119.707,33.854z
			 M119.38,35.361c0.06-0.07,0.117-0.144,0.155-0.16l-0.364,0.049l0.017,0.039L119.38,35.361z M121.538,36.034
			c0.211-0.14,0.258,0.065,0.329,0.125c0.181,0.102,0.272,0.104,0.409,0.157l0.037-0.018c0.192,0.074,0.229-0.1,0.312-0.318
			c0.011-0.027,0.011-0.027,0.05-0.045c0.011-0.026,0.048-0.045,0.085-0.062c0.039-0.018,0.076-0.034,0.103-0.023
			c0.037-0.174,0.014-0.276-0.059-0.336c-0.027-0.011-0.033-0.075-0.104-0.135c0.01-0.026-0.019-0.038-0.072-0.06
			c-0.027-0.011-0.038,0.018-0.064,0.008l-0.038,0.016l0.053-0.137c-0.319,0.098-0.66,0.249-0.927,0.367
			C121.6,35.712,121.611,35.843,121.538,36.034z M123.528,36.986l0.041-0.108l-0.19-0.073c-0.038,0.016-0.049,0.043-0.061,0.071
			C123.336,36.912,123.39,36.933,123.528,36.986z M124.478,36.472c0.11,0.043,0.127,0.08,0.221,0.084
			c0.037-0.016,0.068-0.098,0.182-0.147l-0.392,0.037L124.478,36.472z"/>
	</g>
	<path d="M62.034,156.013c1.629,1.355,4.023,2.121,6.84,2.029c3.145-0.103,6.083-2.805,9.257-3.418
		c7.862-1.52,9.401,5.826,15.945,6.98c1.759,0.311,3.784-0.503,5.544,0.252c4.686,2.012-1.272,6.724,0.349,9.497
		c1.373,2.354,6.529,1.667,8.729,1.525c8.798-0.569,19.671-10.204,23.937-17.584c5.765-9.975,6.442-22.156,0.782-32.335
		c-4.402-7.918-12.81-13.551-21.347-16.124c-8.837-2.664-19.26-3.858-28.051-0.415c-3.503,1.374-7.531,3.41-10.281,5.972
		c-3.482,3.241-6.444,7.669-7.714,12.278c-0.943,3.432,0.338,6.716,0.153,10.089c-0.288,5.248-2.575,7.705-5.016,11.814
		C58.842,150.479,59.543,153.937,62.034,156.013z"/>
	<g>
		<path d="M97.63,88.875c-0.08-0.085-0.161-0.164-0.242-0.24c-0.28-0.269-0.638-0.557-0.791-0.92
			c-0.308-0.733,0.681-0.979,1.199-1.141c0.868-0.271,1.83-0.261,2.718-0.091c0.818,0.156,3.347,1.019,2.031,2.225
			c-0.548,0.503-1.297,0.729-1.84,1.235c-0.372,0.35-0.649,1.26-1.209,1.334c-0.514,0.068-0.735-0.502-0.897-0.877
			C98.366,89.865,98.046,89.308,97.63,88.875z"/>
		<path fill="none" stroke="#000000" stroke-miterlimit="10" d="M95.55,90.353c0.02,1.417,0.453,2.853,1.186,3.792
			c2.095,2.688,6.315,1.088,6.69-3.327"/>
	</g>
	<path fill="none" d="M127.545,125.957c-6.551-2.905-13.804-3.009-20.765-4.173c-2.168-0.362-5.271-1.595-7.489-1.007
		c-2.467,0.651-2.856,2.098-0.458,3.483c4.025,2.328,8.488,1.345,12.812,1.973c4.58,0.663,9.238,2.56,13.555,4.204
		c1.971,0.752,8.933,5.083,8.621,0.736C133.654,128.854,129.491,126.819,127.545,125.957z"/>
	<g>
		<path d="M83.069,62.501c-4.51-0.217-10.551,0.17-11.525-3.356c0.305,1.098,0.657,2.192,0.906,3.309
			c-0.67-0.19-1.621,0.106-2.288-0.105c-0.958,6.34-3.408,11.916-3.623,18.653c-0.639,20.105,22.561,25.517,25.779,4.32
			c1.115-7.342,2.014-17.816-5.056-22.021C86.36,62.763,84.832,62.587,83.069,62.501z"/>
		<path opacity="0.12" fill="#F5F5F5" d="M74.666,92.612c2.147,0.97,4.83,1.02,7.064,0.489
			c1.771-0.419,3.184-1.511,4.48-2.676c0.979-0.88,2.181-2.781,3.514-3.115c1.885-0.473,0.568,2.809,0.224,3.46
			c-0.98,1.854-2.311,3.756-4.129,4.966c-1.458,0.972-2.792,1.4-4.541,1.633c-3.001,0.395-5.839-0.06-8.297-1.788
			c-2.228-1.567-3.703-3.965-4.591-6.417c-0.811-2.236-1.681-5.721-1.076-8.085c0.633-2.466,1.393,0.482,1.544,1.314
			c0.246,1.34,0.603,2.669,1.123,3.938c0.813,1.979,1.599,4.262,3.472,5.593C73.83,92.19,74.237,92.42,74.666,92.612z"/>
		<g>
			<path fill="#F5F5F5" d="M73.149,85.293c0.878,0.557,1.747,1.036,2.663,1.396c0.914,0.353,1.854,0.608,2.808,0.711
				c0.949,0.109,1.916,0.076,2.833-0.156c0.919-0.229,1.784-0.684,2.47-1.437l0.019-0.021l0.002-0.001
				c0.041-0.013,0.05-0.026,0.114-0.034c0.019,0.003,0.029-0.005,0.048,0.012c0.025,0.02,0.031,0.066,0.023,0.065
				c-0.007,0.02-0.016,0.04-0.024,0.051c-0.034,0.056-0.076,0.098-0.1,0.153c0.001-0.062,0.025-0.122,0.036-0.18
				c0.005-0.016,0.002-0.023,0.002-0.034c-0.013,0.001,0.032,0.042,0.021,0.035c0.006,0.003-0.031,0.032-0.045,0.046l0.021-0.021
				c-0.406,0.979-1.314,1.752-2.33,2.142c-1.021,0.401-2.138,0.492-3.206,0.365C76.368,88.122,74.354,86.99,73.149,85.293z"/>
		</g>
		<path opacity="0.16" fill="#F2F3F3" d="M73.482,81.972c0.125-0.366,0.301-0.731,0.527-1.092
			c1.537-2.435,3.595-4.269,6.82-3.604c4.863,1,5.979,7.812,1.146,10.309C76.732,90.287,72.059,86.087,73.482,81.972z"/>
	</g>
	<g>
		<path d="M121.931,60.336c5.854-0.55,12.12,0.089,13.587-3.679c-0.157,0.404-1.015,3.431-1.274,3.476
			c0.804-0.139,1.916,0.267,2.718,0.103c0.793,6.884,3.399,13.09,3.282,20.336c-0.165,10.306-3.586,18.643-13.254,20.347
			c-17.857,3.146-24.224-24.069-14.28-36.787C114.772,61.487,118.271,60.679,121.931,60.336z"/>
		<path opacity="0.12" fill="#F5F5F5" d="M129.622,93.252c-0.684,0.644-1.405,1.183-2.148,1.564
			c-3.819,1.969-7.745,0.186-11.493-1.054c-2.902-0.962-2.651,0.981-1.227,2.743c2.05,2.533,5.379,3.29,8.48,3.392
			c3.582,0.117,6.888-0.646,9.614-2.714c3.683-2.791,6.88-8.393,6.371-13.092c-0.628-5.798-3.779-2.746-4.761,1.007
			C133.767,87.748,131.915,91.095,129.622,93.252z"/>
		<g>
			<path fill="#F5F5F5" d="M127.618,87.159c-0.359,1.021-1.096,1.888-1.978,2.551c-0.895,0.652-1.969,1.086-3.094,1.236
				c-1.122,0.15-2.312,0.027-3.366-0.463c-1.049-0.479-1.944-1.366-2.273-2.418l0.042,0.038c-0.014-0.021-0.041-0.049-0.03-0.058
				c0.004-0.009,0.025,0.014,0.079-0.041c0.028-0.054,0.006-0.063,0.009-0.062c-0.007-0.001-0.006,0.019-0.006,0.031
				c0.003,0.062,0.023,0.13,0.02,0.198c-0.041-0.051-0.097-0.082-0.147-0.133c-0.015-0.016-0.026-0.023-0.041-0.056
				c-0.002-0.011-0.028-0.039,0.01-0.104c0.061-0.069,0.104-0.041,0.122-0.048c0.071,0.007,0.096,0.015,0.137,0.022l-0.021-0.005
				l0.062,0.043c0.854,0.585,1.704,0.871,2.562,1.023c0.857,0.143,1.725,0.15,2.594,0.05c0.869-0.104,1.739-0.309,2.611-0.615
				C125.792,88.058,126.646,87.645,127.618,87.159z"/>
		</g>
		<path opacity="0.16" fill="#F2F3F3" d="M127.768,83.521c-0.17-2.281-0.771-4.3-2.971-4.98
			c-2.28-0.706-5.688-0.717-7.508,1.084c-2.449,2.423-1.86,7.19,0.547,9.392C122.418,93.204,128.163,88.814,127.768,83.521z"/>
	</g>
	<g>
		<path d="M48.584,166.636c3.018,1.74,8.017,0.322,11.049-0.144c2.229-0.344,7.139-2.766,3.809-5.276
			c-1.812-1.366-4.218-0.281-6.249-0.219c-1.274,0.041-2.581,0.431-2.783-0.998c-0.274-1.926,1.982-3.167,0.865-5.299
			c-1.434-2.734-4.107,2.144-4.852,3.101c-1.582,2.038-5.431,5.454-2.797,8.103C47.915,166.193,48.236,166.438,48.584,166.636z"/>
		<path opacity="0.12" fill="#F5F5F5" d="M57.338,164.433c0.892-0.06,3.29-1.022,4.101-0.429
			c0.731,0.538-0.521,1.202-1.182,1.424c-0.735,0.247-11.141,2.855-9.759-0.034c0.497-1.039,2.244-0.545,3.06-0.499
			C54.823,164.966,56.075,164.518,57.338,164.433z"/>
	</g>
	<g>
		<path d="M90.018,172.094c1.167-1.459,2.936-2.634,4.245-3.354c0.522-0.286,2.177-1.007,2.711-0.366
			c0.495,0.592-0.403,1.083-0.558,1.645c-0.531,1.917-1.579,2.807,0.722,4.178c2.228,1.329,5.593,1.054,7.419,3.053
			c2.805,3.069-1.975,3.826-4.345,3.854c-3.562,0.039-10.05-0.882-11.262-4.913C88.501,174.694,89.055,173.297,90.018,172.094z"/>
		<path opacity="0.12" fill="#F5F5F5" d="M97.174,178.408c0.831,0.327,3.41,0.484,3.889,1.37
			c0.432,0.799-0.984,0.862-1.679,0.779c-0.771-0.093-11.289-2.193-8.802-4.212c0.894-0.727,2.261,0.469,2.979,0.86
			C94.674,177.812,95.997,177.944,97.174,178.408z"/>
	</g>
	<g>
		<g>
			<path fill="#159FC4" stroke="#000000" stroke-width="2" stroke-miterlimit="10" d="M71.746,152.144
				c-6.368,2.775-3.727-14.021-3.894-17.036c-0.208-3.762,0.01-7.612,0.577-11.34c1.078-7.08,3.462-14.966,8.539-19.545
				c-2.941-0.938-5.185-5.583-1.565-7.804c3.124-1.918,5.374,2.114,7.79,3.456c3.424,1.9,7.781,0.234,11.405,0.052
				c4.281-0.218,8.82,0.53,13.031,1.313c4.021,0.747,7.463,3.285,11.466,4.132c1.845-3.333,9.822-7.769,10.202-1.091
				c0.176,3.094-2.054,4.309-3.681,6.073c-1.782,1.936-2.175,3.856-2.745,6.57c-1.281,6.088-2.019,12.076-1.85,18.296
				c0.136,4.904-1.107,6.257-2.964,10.278c-1.836,3.979,2.32,4.52,3.143,8.019c0.796,3.391-2.917,7.006-6.213,4.923
				c-4.201-2.657-0.794-8.089-6.765-9.371c-10.542-2.259-21.205-1.864-31.667-3.928C68.642,143.583,75.471,150.52,71.746,152.144z"
				/>
			<path opacity="0.55" fill="#F5F5F5" d="M96.544,104.571c-2.721,0.007-5.413,0.076-8.1,0.562
				c-1.333,0.241-2.615,0.567-3.823,1.193c-1.541,0.799-4.82,4.491-6.576,3.174c-0.708-0.53-0.779-1.097-0.362-1.857
				c0.673-1.23,2.933-1.188,2.364-2.989c-0.382-1.211-2.882-1.456-1.636-3.005c1.589-1.979,5.229-0.063,7.062,0.521
				c3.282,1.044,6.575-0.281,9.983,0.24c3.891,0.595,7.569,1.83,11.53,1.976c-1.66,0.642-2.993,0.678-4.688,0.364
				C100.365,104.391,98.505,104.567,96.544,104.571z"/>
			<path opacity="0.46" fill="#0F5E70" d="M71.863,152.144c-6.366,2.775-3.725-14.021-3.893-17.036
				c-0.208-3.762,0.009-7.612,0.577-11.339c0.286-1.878,0.284-3.893,0.957-5.688c0.628-1.677,1.182-3.362,1.822-5.057
				c0.508-1.346,1.148-2.704,1.828-3.976c0.854-1.595,2.397-3.572,4.041-4.431c-3.991,2.084-2.501,9.287-1.024,12.207
				c7.732,15.287,31.059,15.558,39.961,1.33c0.969-1.55,1.879-3.133,2.824-4.694c1.887-3.122,4.178-6.027,6.176-9.087
				c0.6-0.917,2.689-2.669,3.866-1.631c1.053,0.927,0.394,2.673-0.194,3.677c-0.668,1.143-1.278,2.573-2.185,3.529
				c-0.972,1.021-1.926,1.682-2.469,3.042c-1.688,4.234-2.166,9.438-2.657,13.943c-0.301,2.753-0.429,5.519-0.353,8.287
				c0.134,4.904-1.109,6.257-2.966,10.278c-1.836,3.979,2.32,4.52,3.143,8.019c0.796,3.391-2.917,7.006-6.212,4.923
				c-4.201-2.657-0.794-8.089-6.766-9.371c-10.541-2.259-21.204-1.864-31.667-3.928C68.76,143.583,75.589,150.52,71.863,152.144z"/>
		</g>
		<path fill="none" stroke="#000000" stroke-width="2" stroke-miterlimit="10" d="M71.607,152.202
			c-6.366,2.773-3.725-14.021-3.892-17.038c-0.208-3.761,0.009-7.611,0.576-11.339c1.078-7.079,3.462-14.966,8.539-19.547
			c-2.94-0.938-5.186-5.579-1.565-7.802c3.125-1.918,5.374,2.113,7.79,3.455c3.424,1.902,7.781,0.234,11.405,0.051
			c4.282-0.217,8.82,0.531,13.031,1.315c4.021,0.748,7.463,3.286,11.467,4.131c1.843-3.333,9.821-7.769,10.202-1.09
			c0.176,3.093-2.056,4.308-3.683,6.073c-1.782,1.935-2.174,3.855-2.745,6.57c-1.281,6.087-2.019,12.075-1.848,18.296
			c0.133,4.903-1.109,6.258-2.966,10.279c-1.835,3.979,2.319,4.52,3.143,8.018c0.796,3.39-2.917,7.006-6.212,4.923
			c-4.201-2.659-0.795-8.089-6.766-9.37c-10.541-2.26-21.204-1.865-31.667-3.929C68.505,143.64,75.333,150.577,71.607,152.202z"/>
	</g>
	<g>
		<g>
			<g>
				<path d="M123.681,115.121c-0.729,1.533-1.536,3.001-3.306,4.103c-2.435,1.517-5.691,1.117-8.474,1.529
					c-0.919,0.138-1.562,0.279-1.875,1.14c-0.464,1.266,0.336,2.578,1.469,3.38c1.079,0.768,2.318,1.697,3.561,2.223
					c2.374,1.004,5.144,1.646,7.69,1.837c1.311,0.099,2.632,0.14,3.933,0.058c5.83-0.378,11.384-2.207,11.046-8.027
					c-0.179-3.067-0.44-6.133-0.629-9.199c-0.104-1.734-0.13-3.745-1.062-5.329c-1.485-2.526-3.425-1.481-5.613-0.226
					c-1.915,1.099-3.216,3.119-4.552,4.695C124.847,112.508,124.292,113.839,123.681,115.121z"/>
			</g>
			<path opacity="0.12" fill="#F5F5F5" d="M131.035,127.342c-2.986,0.799-6.483,1.336-9.611,0.902
				c-1.42-0.197-6.607-1.053-5.751-3.187c0.733-1.828,5.286-0.199,6.859-0.396c2.048-0.259,4.072-0.74,5.9-1.588
				c1.784-0.827,3.458-2.193,4.53-3.665c0.552-0.759,1.627-3.38,2.885-1.622c0.598,0.835,0.262,2.484,0.191,3.396
				C135.804,124.252,134.571,126.396,131.035,127.342z"/>
		</g>
		<g>
			<g>
				<path d="M70.887,111.299c0.438,1.599,0.933,3.135,2.123,4.4c1.636,1.737,3.941,1.644,5.875,2.312
					c0.638,0.221,1.084,0.424,1.262,1.312c0.266,1.306-0.36,2.539-1.191,3.234c-0.794,0.665-1.71,1.478-2.607,1.885
					c-1.714,0.781-3.688,1.163-5.487,1.117c-0.924-0.023-1.854-0.104-2.764-0.31c-7.343-1.646-6.939-7.91-6.521-14.144
					c0.184-2.736-0.081-5.991,1.188-8.514c2.081-4.134,5.908,2.99,6.771,4.691C70.193,108.583,70.519,109.962,70.887,111.299z"/>
			</g>
			<path opacity="0.12" fill="#F5F5F5" d="M65.135,122.805c2.059,1.075,4.489,1.938,6.705,1.795
				c1.007-0.063,4.688-0.434,4.189-2.644c-0.428-1.893-3.699-0.689-4.796-1.033c-1.426-0.446-2.823-1.116-4.065-2.133
				c-1.213-0.99-2.323-2.511-3.005-4.077c-0.352-0.807-0.979-3.521-1.947-1.887c-0.46,0.777-0.304,2.455-0.298,3.368
				C61.937,119.278,62.699,121.532,65.135,122.805z"/>
		</g>
	</g>
	<g>
		<path d="M153.746,45.419c-2.348-6.394-9.033-6.906-13.44-2.626c-1.032,1.003-4.109,4.353-3.299,5.997
			c0.821,1.67,7.771,0.186,8.062,1.479c0.439,1.812-0.235,7.143,2.26,7.669c4.354,0.909,6.831-6.592,6.898-9.658
			C154.25,47.284,154.077,46.319,153.746,45.419z"/>
		<path opacity="0.12" fill="#F5F5F5" d="M149.099,53.245c-1.275,1.473-3.027,2.721-4.329,0.403
			c-0.436-0.774-1.046-2.184-0.875-3.11c0.205-1.119,0.955-1.16,1.946-1.173c1.108-0.016,1.986-0.312,2.417-1.384
			c0.632-1.57-0.263-2.969,0.065-4.488c0.494-2.295,2.58,2.258,2.703,2.832C151.579,48.876,150.799,51.279,149.099,53.245z"/>
	</g>
	<g>
		<path d="M66.796,41.815c-6.779,1.074-8.543,7.191-5.128,12.021c0.8,1.131,3.542,4.562,5.325,4.093
			c1.81-0.474,1.644-7.18,2.979-7.226c1.878-0.097,7.036,1.448,8.026-0.773c1.718-3.884-5.25-7.477-8.278-8.068
			C68.737,41.669,67.75,41.663,66.796,41.815z"/>
		<path opacity="0.12" fill="#F5F5F5" d="M63.615,54.89c1.473,1.287,3.426,2.314,4.587-0.002
			c0.39-0.775,0.903-2.168,0.643-3.034c-0.316-1.046-1.109-1.018-2.152-0.939c-1.167,0.085-2.115-0.118-2.665-1.099
			c-0.804-1.438,0.012-2.844-0.47-4.261c-0.726-2.136-2.511,2.376-2.59,2.933C60.616,50.962,61.65,53.175,63.615,54.89z"/>
	</g>
</g>
</svg>
