<?xml version="1.0" standalone="no"?>
<!DOCTYPE svg PUBLIC "-//W3C//DTD SVG 1.1//EN" "http://www.w3.org/Graphics/SVG/1.1/DTD/svg11.dtd">
<!--Generator: Xara Designer (www.xara.com), SVG filter version: 5.0.0.2-->
<svg stroke-width="0.501" stroke-linejoin="bevel" fill-rule="evenodd" xmlns:xlink="http://www.w3.org/1999/xlink" xmlns="http://www.w3.org/2000/svg" version="1.1" overflow="visible" height="182.72" viewBox="0 0 142.76342 146.17847" width="178.45">
 <defs>
  <marker id="DefaultArrow2" markerUnits="strokeWidth" viewBox="0 0 1 1" markerWidth="1" markerHeight="1" overflow="visible" orient="auto">
   <!-- REF_ARROW_STRAIGHT (-2) -->
   <g transform="scale(0.0092592592)">
    <!-- 1/108 -->
    <path d="M -9 54 L -9 -54 L 117 0 z"/>
   </g>
  </marker>
  <marker id="DefaultArrow3" markerUnits="strokeWidth" viewBox="0 0 1 1" markerWidth="1" markerHeight="1" overflow="visible" orient="auto">
   <!-- REF_ARROW_ANGLED -->
   <g transform="scale(0.0092592592)">
    <path d="M -27 54 L -9 0 L -27 -54 L 135 0 z"/>
   </g>
  </marker>
  <marker id="DefaultArrow4" markerUnits="strokeWidth" viewBox="0 0 1 1" markerWidth="1" markerHeight="1" overflow="visible" orient="auto">
   <!-- REF_ARROW_ROUNDED -->
   <g transform="scale(0.0092592592)">
    <path d="M -9,0 L -9,-45 C -9,-51.708 2.808,-56.580 9,-54 L 117,-9 C 120.916,-7.369 126.000,-4.242 126,0 C 126,4.242 120.916,7.369 117,9 L 9,54 C 2.808,56.580 -9,51.708 -9,45 z"/>
   </g>
  </marker>
  <marker id="DefaultArrow5" markerUnits="strokeWidth" viewBox="0 0 1 1" markerWidth="1" markerHeight="1" overflow="visible" orient="auto">
   <!-- REF_ARROW_SPOT -->
   <g transform="scale(0.0092592592)">
    <path d="M -54, 0 C -54,29.807 -29.807,54 0,54 C 29.807,54 54,29.807 54,0 C 54,-29.807 29.807,-54 0,-54 C -29.807,-54 -54,-29.807 -54,0 z"/>
   </g>
  </marker>
  <marker id="DefaultArrow6" markerUnits="strokeWidth" viewBox="0 0 1 1" markerWidth="1" markerHeight="1" overflow="visible" orient="auto">
   <!-- REF_ARROW_DIAMOND -->
   <g transform="scale(0.0092592592)">
    <path d="M -63,0 L 0,63 L 63,0 L 0,-63 z"/>
   </g>
  </marker>
  <marker id="DefaultArrow7" markerUnits="strokeWidth" viewBox="0 0 1 1" markerWidth="1" markerHeight="1" overflow="visible" orient="auto">
   <!-- REF_ARROW_FEATHER -->
   <g transform="scale(0.0092592592)">
    <path d="M 18,-54 L 108,-54 L 63,0 L 108,54 L 18, 54 L -36,0 z"/>
   </g>
  </marker>
  <marker id="DefaultArrow8" markerUnits="strokeWidth" viewBox="0 0 1 1" markerWidth="1" markerHeight="1" overflow="visible" orient="auto">
   <!-- REF_ARROW_FEATHER2 -->
   <g transform="scale(0.0092592592)">
    <path d="M -36,0 L 18,-54 L 54,-54 L 18,-18 L 27,-18 L 63,-54 L 99,-54 L 63,-18 L 72,-18 L 108,-54 L 144,-54 L 90,0 L 144,54 L 108,54 L 72,18 L 63,18 L 99,54 L 63,54 L 27,18 L 18,18 L 54,54 L 18,54 z"/>
   </g>
  </marker>
  <marker id="DefaultArrow9" markerUnits="strokeWidth" viewBox="0 0 1 1" markerWidth="1" markerHeight="1" overflow="visible" orient="auto">
   <!-- REF_ARROW_HOLLOWDIAMOND -->
   <g transform="scale(0.0092592592)">
    <path d="M 0,45 L -45,0 L 0, -45 L 45, 0 z M 0, 63 L-63, 0 L 0, -63 L 63, 0 z"/>
   </g>
  </marker>
  <filter id="StainedFilter">
   <feBlend mode="multiply" in2="BackgroundImage" in="SourceGraphic" result="blend"/>
   <feComposite in="blend" in2="SourceAlpha" operator="in" result="comp"/>
  </filter>
  <filter id="BleachFilter">
   <feBlend mode="screen" in2="BackgroundImage" in="SourceGraphic" result="blend"/>
   <feComposite in="blend" in2="SourceAlpha" operator="in" result="comp"/>
  </filter>
  <filter id="InvertTransparencyBitmapFilter">
   <feComponentTransfer>
    <feFuncR type="gamma" amplitude="1.055" exponent=".416666666" offset="-0.055"/>
    <feFuncG type="gamma" amplitude="1.055" exponent=".416666666" offset="-0.055"/>
    <feFuncB type="gamma" amplitude="1.055" exponent=".416666666" offset="-0.055"/>
   </feComponentTransfer>
   <feComponentTransfer>
    <feFuncR type="linear" slope="-1" intercept="1"/>
    <feFuncG type="linear" slope="-1" intercept="1"/>
    <feFuncB type="linear" slope="-1" intercept="1"/>
    <feFuncA type="linear" slope="1" intercept="0"/>
   </feComponentTransfer>
   <feComponentTransfer>
    <feFuncR type="gamma" amplitude="1" exponent="2.4" offset="0"/>
    <feFuncG type="gamma" amplitude="1" exponent="2.4" offset="0"/>
    <feFuncB type="gamma" amplitude="1" exponent="2.4" offset="0"/>
   </feComponentTransfer>
  </filter>
 </defs>
 <g id="Document" fill="none" stroke="black" font-family="Times New Roman" font-size="16" transform="matrix(1,0,0,-1,-3.2442893,-2.3760078)">
  <g id="Spread" transform="translate(0 -150)">
   <g id="Layer 1">
    <path d="M 22.997,112.674 C 26.605,117.009 35.617,128.983 41.652,127.706 C 45.608,124.53 42.656,111.928 40.311,109.453 C 33.452,108.998 28.597,110.61 22.997,112.674 Z" stroke-linejoin="round" stroke-linecap="round" fill="#e59130" stroke-width="1.5" stroke="#964b11" marker-start="none" marker-end="none" stroke-miterlimit="79.8403193612775"/>
    <path d="M 29.408,117.257 C 31.423,118.879 34.764,123.114 37.139,123.538 C 39.136,117.48 31.536,114.635 29.408,117.257 Z" stroke-linejoin="round" stroke-linecap="round" fill="#ffc581" stroke="none" stroke-width="0.75" marker-start="none" marker-end="none" stroke-miterlimit="79.8403193612775"/>
    <path d="M 43.026,44.254 C 40.446,39.458 38.554,34.609 38.338,30.148 C 35.084,27.45 36.568,20.403 41.668,20.772 C 41.618,20.487 41.734,20.384 41.903,20.403 C 43.356,18.682 46.072,18.495 47.772,19.641 C 48.342,20.025 48.914,21.352 48.915,22.004 C 55.137,25.268 50.38,29.775 48.305,29.473 C 50.498,35.46 59.465,34.225 61.007,36.896 C 63.473,45.242 49.934,46.787 43.895,45.957 C 43.62,45.383 43.328,44.817 43.026,44.254 Z" stroke-linejoin="round" stroke-linecap="round" fill="#e59130" stroke-width="1.5" stroke="#964b11" marker-start="none" marker-end="none" stroke-miterlimit="79.8403193612775"/>
    <path d="M 42.476,20.886 L 42.385,20.951 L 42.381,21.002 C 42.278,21.317 41.97,21.545 41.613,21.52 C 39.505,21.367 38.119,22.712 37.589,24.52 C 37.047,26.37 37.481,28.463 38.816,29.57 C 38.978,29.705 39.076,29.901 39.087,30.111 L 39.204,31.369 L 39.808,31.479 C 41.946,31.758 44.947,31.437 47.538,30.823 L 48.044,30.679 L 47.6,29.73 C 47.405,29.198 47.851,28.649 48.413,28.73 C 49.028,28.82 50.46,28.055 51.036,26.769 C 51.508,25.716 51.425,24.167 48.566,22.668 C 48.32,22.538 48.165,22.283 48.165,22.005 C 48.164,21.545 47.662,20.471 47.352,20.262 C 45.938,19.309 43.658,19.486 42.476,20.886 Z" stroke-linejoin="round" stroke-linecap="round" stroke-width="0" stroke="none" fill="#ffc581" marker-start="none" marker-end="none" stroke-miterlimit="79.8403193612775"/>
    <path d="M 27.964,52.136 C 12.335,69.409 3.973,93.117 20.742,111.788 C 24.159,115.594 33.668,117.654 38.458,118.231 C 48.627,119.458 55.241,117.754 60.483,114.687 C 66.642,117.517 75.512,124.212 80.736,119.036 C 81.334,114.831 78.58,107.013 75.614,101.797 C 76.601,100.947 77.631,100.113 78.723,99.306 C 83.718,95.613 93.809,93.263 101.723,92.132 C 120.889,89.394 131.48,77.156 134.288,62.666 C 135.732,55.209 135.079,48.283 132.793,42.229 L 131.841,42.043 C 131.257,35.587 130.056,28.918 123.949,25.132 C 118.704,21.88 116.218,20.783 111.064,20.623 C 107.482,20.511 104.058,19.168 100.466,18.777 C 78.892,16.437 46.734,31.389 27.964,52.136 Z" stroke-linejoin="round" stroke-linecap="round" fill="#e59130" stroke-width="1.5" stroke="#964b11" marker-start="none" marker-end="none" stroke-miterlimit="79.8403193612775"/>
    <path d="M 66.612,35.762 C 68.709,32.487 72.836,25.58 70.21,21.885 C 68.061,22.017 64.271,18.694 64.539,16.211 C 64.738,14.366 66.093,13.34 67.607,12.915 C 67.203,10.922 69.952,10.062 71.322,9.809 C 72.289,9.631 73.063,11.204 73.518,11.663 C 78.074,12.671 82.833,16.552 84.49,19.978 C 87.099,25.373 90.119,36.611 83.04,40.11 C 78.567,42.322 68.614,40.427 67.74,36.487 L 66.612,35.762 Z" stroke-linejoin="round" stroke-linecap="round" fill="#e59130" stroke-width="1.5" stroke="#964b11" marker-start="none" marker-end="none" stroke-miterlimit="79.8403193612775"/>
    <path d="M 68.342,12.765 C 68.42,13.15 68.187,13.53 67.809,13.637 C 66.473,14.012 65.439,14.856 65.284,16.291 C 65.072,18.256 68.429,21.242 70.164,21.136 C 70.422,21.12 70.671,21.239 70.821,21.45 L 70.878,21.546 L 71.558,21.147 C 72.343,20.721 73.176,20.365 74.295,20.098 C 75.831,19.73 77.743,20.04 79.172,19.489 C 80.273,19.064 80.903,18.104 81.306,17.05 L 81.318,17.006 L 80.967,16.644 C 78.87,14.681 76.069,12.995 73.355,12.395 C 73.215,12.364 73.086,12.293 72.985,12.191 C 72.726,11.929 72.299,11.282 72.045,10.988 C 71.667,10.553 71.491,10.54 71.457,10.546 C 69.904,10.833 68.107,11.611 68.342,12.765 Z" stroke-linejoin="round" stroke-linecap="round" stroke-width="0" stroke="none" fill="#ffc581" marker-start="none" marker-end="none" stroke-miterlimit="79.8403193612775"/>
    <path d="M 72.588,6.808 C 72.332,8.956 72.767,10.944 73.667,12.659 C 76.341,17.757 82.782,19.823 85.88,20.558 C 89.074,21.315 92.554,21.321 95.819,21.156 C 99.062,20.993 102.612,20.623 106.042,20.401 C 113.021,19.951 119.588,20.115 125.422,22.801 C 131.339,25.528 133.956,29.31 134.609,33.012 C 135.288,36.861 134.053,41.798 129.877,47.033 C 128.385,48.903 124.873,51.258 121.893,52.663 C 119.28,53.893 118.158,57.015 119.39,59.629 C 120.621,62.242 123.743,63.363 126.357,62.131 C 129.878,60.471 135.083,57.293 138.06,53.562 C 143.537,46.698 146.262,38.799 144.919,31.192 C 143.55,23.438 138.161,17.143 129.802,13.294 C 121.467,9.454 112.663,9.484 105.368,9.955 C 99.281,10.347 92.298,11.32 88.295,10.371 C 85.522,9.715 83.707,8.633 83.114,8.024 L 82.986,7.86 L 83.002,6.991 C 82.8,4.565 80.917,2.532 78.407,2.233 C 75.539,1.89 72.931,3.94 72.588,6.808 Z" stroke-linejoin="round" stroke-linecap="round" fill="#e59130" stroke-width="1.5" stroke="#964b11" marker-start="none" marker-end="none" stroke-miterlimit="79.8403193612775"/>
    <path d="M 33.357,91.134 C 33.568,91.143 35.518,89.889 35.726,89.901 C 39.487,87.724 39.486,82.407 36.358,79.626 C 34.25,77.753 30.763,77.205 27.526,77.688 C 27.09,69.211 16.189,78.209 21.099,80.653 C 20.361,81.442 19.879,82.364 19.762,83.399 C 18.831,91.611 26.927,90.855 33.357,91.134 Z" stroke-linejoin="round" stroke-linecap="round" fill="#ffc581" stroke="none" stroke-width="0.736" marker-start="none" marker-end="none" stroke-miterlimit="79.8403193612775"/>
    <path d="M 29.578,88.352 C 26.75,88.503 23.776,89.72 24.415,91.568 C 25.264,94.022 33.319,93.575 34.283,91.847 C 35.831,89.072 32.702,88.187 29.578,88.352 Z" stroke-linejoin="round" stroke-linecap="round" fill="#964b11" stroke="none" stroke-width="0.75" marker-start="none" marker-end="none" stroke-miterlimit="79.8403193612775"/>
    <path d="M 39.115,94.746 C 41.45,90.318 50.066,89.512 54.21,93.42" fill="none" stroke-linejoin="round" stroke-linecap="round" stroke-width="1.5" stroke="#964b11" stroke-miterlimit="79.8403193612775"/>
    <path d="M 13.383,98.655 C 11.729,91.768 22.365,93.538 24.458,95.391" fill="none" stroke-linejoin="round" stroke-linecap="round" stroke-width="1.5" stroke="#964b11" stroke-miterlimit="79.8403193612775"/>
    <path d="M 21.869,85.278 C 19.934,85.368 16.288,84.979 14.631,84.026" fill="none" stroke-linejoin="round" stroke-linecap="round" stroke-width="1.125" stroke="#ffc581" stroke-miterlimit="79.8403193612775"/>
    <path d="M 20.69,87.065 C 19.005,88.075 15.862,88.164 13.996,87.683" fill="none" stroke-linejoin="round" stroke-linecap="round" stroke-width="1.125" stroke="#ffc581" stroke-miterlimit="79.8403193612775"/>
    <path d="M 27.637,88.75 C 28.008,87.304 28.448,86.635 28.361,85.126 C 26.76,84.793 23.702,88.65 20.389,86.656 C 17.401,84.858 21.364,82.306 24.254,82.469 C 21.884,82.797 19.459,80.942 19.745,78.443 C 20.095,75.38 24.688,73.739 26.831,75.382 C 27.756,76.091 27.877,78.687 27.797,79.892 C 28.4,79.918 29.647,80.662 30.535,79.892" fill="none" stroke-linejoin="round" stroke-linecap="round" stroke-width="1.5" stroke="#964b11" stroke-miterlimit="79.8403193612775"/>
    <path d="M 11.36,121.92 C 7.699,124.12 1.369,127.616 5.447,131.971 C 7.722,134.402 10.508,132.315 11.526,130.591 C 10.694,133.334 13.337,137.314 16.455,136.057 C 23.471,133.226 15.05,123.473 13.497,120.394 C 13.091,120.45 12.47,121.034 12.347,121.311 C 12.052,121.499 11.718,121.703 11.36,121.92 Z" stroke-linejoin="round" stroke-linecap="round" fill="#ed8261" stroke-width="1.763" stroke="#a92e2e" marker-start="none" marker-end="none" stroke-miterlimit="79.8403193612775"/>
    <path d="M 59.562,129.789 C 56.662,133.559 50.966,137.822 52.733,142.488 C 55.264,149.181 62.423,147.453 63.225,141.401 C 64.067,145.188 71.941,147.782 74.262,143.106 C 74.3,143.03 75.038,140.71 74.746,139.564 C 72.813,131.993 64.253,129.328 60.511,128.468 C 60.222,128.907 59.901,129.347 59.562,129.789 Z" stroke-linejoin="round" stroke-linecap="round" stroke="#a92e2e" stroke-width="1.685" fill="#ed8261" marker-start="none" marker-end="none" stroke-miterlimit="79.8403193612775"/>
    <path d="M 91.586,114.115 C 91.494,116.075 91.612,118.37 92.03,120.089 C 94.165,128.819 102.957,122.976 99.709,118.979 C 102.993,122.022 109.272,118.194 107.478,115.303 C 105.213,111.655 94.716,110.54 91.686,112.823 C 91.643,113.229 91.609,113.664 91.586,114.115 Z" stroke-linejoin="round" stroke-linecap="round" stroke="#a92e2e" stroke-width="1.5" fill="#ed8261" marker-start="none" marker-end="none" stroke-miterlimit="79.8403193612775"/>
    <path d="M 133.227,60.472 C 136.236,53.124 133.9,41.529 127.975,40.11 C 125.964,39.63 123.705,40.903 122.177,42.043 C 112.74,49.09 117.934,66.534 125.076,66.523 C 129.137,66.518 131.79,63.979 133.227,60.472 Z" stroke-linejoin="round" stroke-linecap="round" fill="#e59130" stroke="none" stroke-width="0.75" marker-start="none" marker-end="none" stroke-miterlimit="79.8403193612775"/>
    <path d="M 60.815,44.751 C 62.197,35.298 70.935,30.625 80.015,30.962 C 90.18,31.337 93.217,38.752 86.124,46.147 C 81.366,51.107 70.914,52.685 65.004,48.939 C 63.361,47.899 61.368,45.058 60.815,44.751 Z" stroke-linejoin="round" stroke-linecap="round" fill="#e59130" stroke="none" stroke-width="0.813" marker-start="none" marker-end="none" stroke-miterlimit="79.8403193612775"/>
    <path d="M 63.193,111.577 C 64.774,112.258 74.465,117.745 75.03,114.234 C 75.478,111.454 71.564,105.191 68.991,104.813 C 66.817,104.493 63.4,110.013 63.193,111.577 Z" stroke-linejoin="round" stroke-linecap="round" fill="#ffc581" stroke="none" stroke-width="0.75" marker-start="none" marker-end="none" stroke-miterlimit="79.8403193612775"/>
    <path d="M 50.316,35.054 C 43.625,38.161 31.022,49.05 26.993,54.445 C 25.574,56.343 24.641,59.271 24.415,61.531 C 23.446,71.253 42.742,69.542 47.929,64.752 C 54.21,58.954 59.489,42.781 59.848,37.855 C 60.126,34.046 52.892,32.309 51.312,34.634 C 50.997,34.752 50.665,34.893 50.316,35.054 Z" stroke-linejoin="round" stroke-linecap="round" fill="#ffc581" stroke="none" stroke-width="0.75" marker-start="none" marker-end="none" stroke-miterlimit="79.8403193612775"/>
    <path d="M 77.559,14.26 C 78.942,14.355 79.249,13.758 80.785,12.731 C 85.308,9.708 80.871,2.07 75.793,4.677 C 71.962,6.645 74.598,12.346 76.115,14.018 C 76.711,14.157 77.177,14.235 77.559,14.26 Z" stroke-linejoin="round" stroke-linecap="round" fill="#ffc581" stroke="none" stroke-width="0.75" marker-start="none" marker-end="none" stroke-miterlimit="79.8403193612775"/>
    <path d="M 95.764,21.105 C 93.796,28.693 107.55,27.776 108.004,36.084" fill="none" stroke-linejoin="round" stroke-linecap="round" stroke-width="1.5" stroke="#964b11" stroke-miterlimit="79.8403193612775"/>
    <path d="M 36.94,82.667 C 39.951,82.24 42.656,80.499 44.832,78.319" fill="none" stroke-linejoin="round" stroke-linecap="round" stroke-width="1.125" stroke="#ffc581" stroke-miterlimit="79.8403193612775"/>
    <path d="M 36.86,84.68 C 40.706,84.958 43.904,84.6 47.329,82.667" fill="none" stroke-linejoin="round" stroke-linecap="round" stroke-width="1.125" stroke="#ffc581" stroke-miterlimit="79.8403193612775"/>
    <path d="M 44.801,105.374 C 45.075,107.123 46.141,108.702 47.802,109.811" fill="none" stroke-linejoin="round" stroke-linecap="round" stroke-width="1.125" stroke="#ffc581" stroke-miterlimit="79.8403193612775"/>
    <path d="M 48.467,104.888 C 49.137,106.437 49.894,107.766 51.729,108.595" fill="none" stroke-linejoin="round" stroke-linecap="round" stroke-width="1.125" stroke="#ffc581" stroke-miterlimit="79.8403193612775"/>
    <path d="M 22.365,106.903 C 22.46,108.429 23.064,110.21 24.458,111.196" fill="none" stroke-linejoin="round" stroke-linecap="round" stroke-width="1.125" stroke="#ffc581" stroke-miterlimit="79.8403193612775"/>
    <path d="M 25.747,106.656 C 25.963,108.007 27.154,110.105 28.404,111.017" fill="none" stroke-linejoin="round" stroke-linecap="round" stroke-width="1.125" stroke="#ffc581" stroke-miterlimit="79.8403193612775"/>
    <path d="M 131.68,41.559 C 132.464,43.395 132.69,46.554 132.646,48.646" fill="none" stroke-linejoin="round" stroke-linecap="round" stroke-width="1.5" stroke="#964b11" stroke-miterlimit="79.8403193612775"/>
    <path d="M 28.649,90.435 C 27.623,90.489 26.543,90.931 26.775,91.6 C 27.082,92.491 30.007,92.33 30.356,91.703 C 30.918,90.695 29.782,90.375 28.649,90.435 Z" stroke-linejoin="round" stroke-linecap="round" fill="#ffc581" stroke="none" stroke-width="0.272" marker-start="none" marker-end="none" stroke-miterlimit="79.8403193612775"/>
    <path d="M 57.353,144.066 C 58.427,144.066 59.301,143.192 59.301,142.118 C 59.301,141.043 58.427,140.169 57.353,140.169 C 56.278,140.169 55.404,141.043 55.404,142.118 C 55.404,143.192 56.278,144.066 57.353,144.066 Z" stroke-linejoin="round" stroke-linecap="round" fill="#ffd6c0" stroke="none" stroke-width="0.842" marker-start="none" marker-end="none" stroke-miterlimit="79.8403193612775"/>
    <path d="M 67.347,142.167 C 68.097,142.167 68.708,141.557 68.708,140.807 C 68.708,140.056 68.097,139.446 67.347,139.446 C 66.596,139.446 65.985,140.056 65.985,140.807 C 65.985,141.557 66.596,142.167 67.347,142.167 Z" stroke-linejoin="round" stroke-linecap="round" fill="#ffd6c0" stroke="none" stroke-width="0.589" marker-start="none" marker-end="none" stroke-miterlimit="79.8403193612775"/>
    <path d="M 96.543,122.426 C 97.144,122.055 97.331,121.267 96.961,120.667 C 96.591,120.067 95.803,119.881 95.202,120.251 C 94.602,120.622 94.414,121.41 94.784,122.01 C 95.154,122.61 95.943,122.796 96.543,122.426 Z" stroke-linejoin="round" stroke-linecap="round" fill="#ffd6c0" stroke="none" stroke-width="0.75" marker-start="none" marker-end="none" stroke-miterlimit="79.8403193612775"/>
    <path d="M 102.627,117.769 C 103.047,117.51 103.177,116.958 102.919,116.54 C 102.661,116.121 102.11,115.991 101.691,116.25 C 101.271,116.509 101.14,117.06 101.399,117.479 C 101.657,117.898 102.208,118.027 102.627,117.769 Z" stroke-linejoin="round" stroke-linecap="round" fill="#ffd6c0" stroke="none" stroke-width="0.524" marker-start="none" marker-end="none" stroke-miterlimit="79.8403193612775"/>
    <path d="M 7.673,130.981 C 8.446,130.98 9.074,130.397 9.074,129.681 C 9.074,128.966 8.446,128.387 7.673,128.388 C 6.899,128.389 6.271,128.972 6.271,129.687 C 6.271,130.403 6.899,130.982 7.673,130.981 Z" stroke-linejoin="round" stroke-linecap="round" fill="#ffd6c0" stroke="none" stroke-width="0.697" marker-start="none" marker-end="none" stroke-miterlimit="79.8403193612775"/>
    <path d="M 14.861,134.161 C 15.521,134.16 16.056,133.663 16.056,133.052 C 16.056,132.441 15.521,131.946 14.861,131.948 C 14.202,131.949 13.666,132.445 13.666,133.056 C 13.666,133.667 14.202,134.162 14.861,134.161 Z" stroke-linejoin="round" stroke-linecap="round" fill="#ffd6c0" stroke="none" stroke-width="0.595" marker-start="none" marker-end="none" stroke-miterlimit="79.8403193612775"/>
    <path d="M 68.121,11.791 C 67.709,13.877 67.965,16.628 70.179,17.583" fill="none" stroke-linejoin="round" stroke-linecap="round" stroke="#964b11" stroke-width="1.125" stroke-miterlimit="79.8403193612775"/>
    <path d="M 42.437,20.403 C 41.206,21.79 40.676,22.972 40.836,24.976" fill="none" stroke-linejoin="round" stroke-linecap="round" stroke-width="1.125" stroke="#964b11" stroke-miterlimit="79.8403193612775"/>
    <path d="M 48.534,22.69 C 47.612,22.566 47.068,23.573 46.629,24.214" fill="none" stroke-linejoin="round" stroke-linecap="round" stroke-width="1.125" stroke="#964b11" stroke-miterlimit="79.8403193612775"/>
   </g>
  </g>
 </g>
</svg>
