<?xml version="1.0" encoding="UTF-8" ?>
<!DOCTYPE svg PUBLIC "-//W3C//DTD SVG 1.1//EN" "http://www.w3.org/Graphics/SVG/1.1/DTD/svg11.dtd">
<svg width="256pt" height="256pt" viewBox="0 0 256 256" version="1.1" xmlns="http://www.w3.org/2000/svg">
<g id="#ab9e89ff">
<path fill="#ab9e89" opacity="1.00" d=" M 103.83 5.79 C 107.09 3.18 111.71 3.90 115.10 5.86 C 121.32 9.43 126.50 14.74 130.07 20.96 C 134.96 19.34 139.66 16.92 144.82 16.31 C 153.58 15.24 162.68 16.06 170.79 19.70 C 176.71 13.91 185.00 11.41 193.04 10.41 C 196.92 10.24 198.23 14.79 199.18 17.78 C 201.44 28.35 199.55 39.66 195.00 49.39 C 201.90 51.57 206.95 57.61 208.06 64.73 C 209.72 65.17 212.12 64.78 212.57 66.97 C 212.19 69.23 209.72 68.82 208.04 69.27 C 207.19 73.53 205.22 77.48 202.21 80.62 C 202.86 85.44 203.58 90.25 204.29 95.06 C 208.42 95.86 212.65 96.22 216.71 97.38 C 216.90 98.03 217.26 99.34 217.45 99.99 C 213.17 99.77 208.96 98.92 204.75 98.19 C 205.18 100.67 205.65 103.15 206.17 105.61 C 207.13 106.63 208.16 107.59 209.32 108.39 C 208.74 108.80 207.58 109.62 206.99 110.03 C 208.50 116.05 209.49 122.51 213.33 127.59 C 218.50 134.71 225.35 140.36 231.03 147.04 C 234.19 150.83 238.15 153.88 241.22 157.77 C 251.37 170.34 256.78 186.94 254.89 203.08 C 253.69 213.71 248.80 223.82 241.32 231.45 C 235.19 237.78 227.57 242.53 219.42 245.78 C 211.10 248.33 202.34 249.56 193.66 248.46 C 190.11 247.55 186.90 244.95 183.07 245.64 C 170.22 246.76 157.15 246.26 144.52 243.52 C 142.76 245.73 140.93 247.90 138.75 249.72 C 133.33 253.88 125.25 253.37 120.34 248.64 C 120.22 244.07 120.12 239.50 120.07 234.94 C 114.58 232.23 109.24 229.18 104.42 225.39 C 93.48 217.01 84.61 205.91 78.97 193.33 C 76.58 187.09 74.68 180.67 72.43 174.38 C 70.69 175.64 68.62 176.78 68.02 179.02 C 65.36 185.71 63.19 194.10 55.66 196.86 C 55.34 194.30 54.87 191.75 54.21 189.26 C 54.67 189.57 55.59 190.20 56.05 190.51 C 59.39 185.81 60.66 180.12 63.21 175.04 C 65.14 171.16 69.13 169.10 72.72 167.03 C 72.07 161.94 70.85 156.76 72.18 151.67 C 76.11 152.60 75.35 156.92 75.88 160.05 C 77.58 174.26 81.59 188.65 89.89 200.47 C 97.40 212.31 108.20 222.04 120.74 228.28 C 121.16 221.16 119.64 214.14 119.25 207.05 C 118.55 200.85 118.84 194.62 118.64 188.40 C 120.00 188.96 121.41 189.46 122.71 190.16 C 123.30 194.44 122.90 198.77 123.23 203.06 C 124.23 217.37 126.40 231.62 126.30 245.99 C 128.73 246.18 131.36 246.86 133.62 245.57 C 138.60 242.89 141.46 237.67 143.83 232.76 C 148.83 221.53 151.59 209.27 151.74 196.97 C 151.54 195.02 153.79 194.66 155.03 193.81 C 156.52 201.62 154.93 209.57 153.17 217.20 C 151.74 224.54 148.40 231.25 144.91 237.80 C 157.25 240.10 169.92 240.75 182.43 239.71 C 180.20 235.03 180.53 229.61 183.34 225.26 C 185.75 222.59 188.67 220.40 191.92 218.86 C 202.95 213.55 215.59 211.87 225.77 204.78 C 229.01 202.47 232.78 200.24 234.33 196.37 C 236.26 191.68 236.24 186.48 237.86 181.69 C 238.81 183.02 240.79 184.08 240.62 185.97 C 240.50 190.11 239.44 194.18 237.97 198.03 C 236.09 202.84 231.46 205.64 227.42 208.47 C 217.41 215.34 205.12 217.19 194.24 222.19 C 191.03 223.78 187.58 225.67 185.95 229.03 C 184.50 232.37 184.69 236.85 187.63 239.35 C 190.20 241.58 193.67 242.35 196.97 242.74 C 216.61 244.46 236.91 233.18 245.31 215.25 C 253.93 196.49 247.96 173.48 234.35 158.68 C 229.70 164.61 222.80 169.56 215.03 169.62 C 212.10 169.80 209.31 166.09 211.80 163.77 C 216.55 159.27 222.90 156.31 225.98 150.20 C 224.49 148.73 223.01 147.27 221.54 145.78 C 217.02 151.15 210.06 155.93 202.74 154.35 C 199.68 154.05 199.80 150.16 201.50 148.39 C 204.92 144.97 210.54 144.26 213.13 139.95 C 214.98 137.20 211.21 135.14 209.94 133.02 C 206.88 135.56 203.29 138.18 199.07 137.64 C 196.84 137.67 194.70 135.30 195.87 133.12 C 197.98 129.76 201.66 127.86 204.64 125.37 C 205.41 126.70 206.21 128.03 206.98 129.38 C 203.49 122.26 201.90 114.47 200.15 106.81 C 195.56 104.42 190.31 103.26 186.17 100.07 C 186.44 99.62 186.98 98.73 187.26 98.29 C 191.48 99.37 195.33 101.51 199.37 103.11 C 199.13 101.15 198.90 99.20 198.66 97.24 C 195.13 96.52 191.46 96.26 188.05 95.02 C 187.86 94.40 187.49 93.16 187.30 92.54 C 190.89 92.86 194.46 93.34 198.00 93.99 C 197.59 90.72 197.16 87.45 196.73 84.19 C 190.68 85.51 183.88 85.24 178.94 81.07 C 171.21 75.39 169.68 63.28 175.87 55.92 C 178.91 51.75 183.97 50.10 188.65 48.52 C 185.63 42.14 183.66 34.73 177.77 30.27 C 164.79 20.06 146.10 19.54 131.44 26.33 C 131.06 27.79 130.94 29.30 130.57 30.75 C 129.64 30.67 128.71 30.59 127.78 30.52 C 126.16 22.88 120.51 17.07 114.69 12.28 C 112.68 10.80 109.86 9.03 107.39 10.50 C 104.80 12.61 103.98 16.08 103.12 19.16 C 101.00 28.28 99.87 37.63 99.57 46.99 C 99.43 52.53 98.85 58.25 96.18 63.22 C 84.49 84.35 77.64 108.05 75.55 132.07 C 75.31 134.23 74.76 136.61 72.92 137.99 C 64.98 143.10 57.87 149.86 52.98 157.99 C 48.96 164.60 49.06 172.50 49.29 179.96 C 47.41 177.98 45.41 176.12 43.23 174.48 C 43.15 167.96 44.39 161.35 47.56 155.60 C 52.85 145.69 61.96 138.79 69.79 131.04 C 71.63 107.70 78.29 84.73 89.05 63.94 C 90.70 60.36 93.83 57.17 93.49 52.97 C 93.53 41.55 94.59 30.11 97.09 18.96 C 98.20 14.15 99.81 8.98 103.83 5.79 M 175.07 23.48 C 178.02 25.41 180.83 27.53 183.43 29.90 C 184.89 33.01 186.52 36.05 188.61 38.80 C 189.56 40.02 189.54 42.97 191.47 42.80 C 193.94 34.35 195.86 24.78 192.35 16.35 C 186.20 17.55 179.96 19.37 175.07 23.48 M 180.15 57.15 C 177.89 59.19 176.89 62.13 175.90 64.92 C 185.29 65.07 194.69 65.04 204.09 64.93 C 203.14 61.87 202.07 58.65 199.53 56.52 C 194.25 51.51 185.17 52.03 180.15 57.15 M 175.94 69.10 C 176.95 72.10 178.15 75.21 180.66 77.30 C 185.84 82.12 194.71 82.31 199.76 77.19 C 202.98 75.78 204.65 72.24 202.92 68.98 C 199.57 69.00 196.22 69.00 192.87 69.01 C 187.22 69.01 181.58 68.92 175.94 69.10 Z" />
<path fill="#ab9e89" opacity="1.00" d=" M 150.68 31.85 C 151.25 31.87 152.40 31.90 152.97 31.92 C 153.46 35.35 154.04 38.75 154.88 42.11 C 155.74 43.66 154.29 44.44 153.13 44.96 C 151.07 40.97 149.93 36.33 150.68 31.85 Z" />
<path fill="#ab9e89" opacity="1.00" d=" M 174.36 33.21 C 175.02 33.17 176.33 33.10 176.99 33.06 C 177.18 36.91 177.08 40.97 175.34 44.49 C 174.50 44.66 173.67 44.61 172.84 44.33 C 173.56 40.66 174.05 36.94 174.36 33.21 Z" />
<path fill="#ab9e89" opacity="1.00" d=" M 144.87 38.97 C 144.20 37.72 145.07 35.62 146.68 36.28 C 148.19 38.79 149.13 41.59 150.44 44.20 C 150.02 44.66 149.17 45.59 148.75 46.05 C 146.95 44.00 145.44 41.67 144.87 38.97 Z" />
<path fill="#ab9e89" opacity="1.00" d=" M 177.98 46.01 C 178.59 43.29 178.25 39.94 180.04 37.71 C 180.50 37.77 181.43 37.90 181.89 37.96 C 182.34 40.62 181.43 43.22 180.74 45.75 C 180.05 45.81 178.67 45.94 177.98 46.01 Z" />
<path fill="#ab9e89" opacity="1.00" d=" M 124.29 64.37 C 126.26 55.84 134.18 49.21 142.97 49.04 C 151.65 48.45 160.05 54.54 162.28 62.94 C 162.58 65.36 166.79 65.08 165.91 67.87 C 165.01 68.43 164.10 68.97 163.18 69.50 C 162.23 74.84 159.95 80.22 155.28 83.34 C 147.15 89.39 134.58 87.66 128.23 79.81 C 125.67 76.92 124.67 73.11 123.81 69.45 C 122.70 68.76 120.95 68.53 120.69 66.98 C 121.13 65.32 122.99 65.09 124.29 64.37 M 133.61 56.63 C 130.89 58.67 129.43 61.83 128.13 64.87 C 138.38 65.08 148.63 65.09 158.88 64.87 C 157.66 61.75 156.24 58.52 153.49 56.44 C 147.93 51.74 139.13 51.99 133.61 56.63 M 127.85 69.12 C 128.67 75.91 134.08 81.73 140.90 82.74 C 146.36 83.89 151.85 81.60 155.75 77.84 C 154.11 77.71 152.37 78.02 150.79 77.45 C 155.63 78.79 161.04 73.72 158.05 68.97 C 154.31 69.00 150.56 68.99 146.82 69.06 C 140.49 69.09 134.17 69.01 127.85 69.12 Z" />
<path fill="#ab9e89" opacity="1.00" d=" M 127.45 99.83 C 136.91 96.99 146.22 93.68 155.78 91.16 C 155.89 91.85 156.11 93.23 156.23 93.92 C 147.48 96.69 138.74 99.51 129.96 102.14 C 128.23 103.04 126.99 101.39 127.45 99.83 Z" />
<path fill="#ab9e89" opacity="1.00" d=" M 157.70 96.68 C 159.06 95.57 160.93 97.20 159.72 98.69 C 156.20 101.32 152.21 103.23 148.53 105.62 C 145.73 107.20 143.19 109.36 140.05 110.22 C 139.70 109.72 139.02 108.72 138.67 108.22 C 144.93 104.24 151.26 100.35 157.70 96.68 Z" />
</g>
<g id="#dcd5c6ff">
<path fill="#dcd5c6" opacity="1.00" d=" M 107.39 10.50 C 109.86 9.03 112.68 10.80 114.69 12.28 C 120.51 17.07 126.16 22.88 127.78 30.52 C 128.71 30.59 129.64 30.67 130.57 30.75 C 130.94 29.30 131.06 27.79 131.44 26.33 C 146.10 19.54 164.79 20.06 177.77 30.27 C 183.66 34.73 185.63 42.14 188.65 48.52 C 183.97 50.10 178.91 51.75 175.87 55.92 C 169.68 63.28 171.21 75.39 178.94 81.07 C 183.88 85.24 190.68 85.51 196.73 84.19 C 197.16 87.45 197.59 90.72 198.00 93.99 C 194.46 93.34 190.89 92.86 187.30 92.54 C 187.49 93.16 187.86 94.40 188.05 95.02 C 191.46 96.26 195.13 96.52 198.66 97.24 C 198.90 99.20 199.13 101.15 199.37 103.11 C 195.33 101.51 191.48 99.37 187.26 98.29 C 186.98 98.73 186.44 99.62 186.17 100.07 C 190.31 103.26 195.56 104.42 200.15 106.81 C 201.90 114.47 203.49 122.26 206.98 129.38 C 206.21 128.03 205.41 126.70 204.64 125.37 C 201.66 127.86 197.98 129.76 195.87 133.12 C 194.70 135.30 196.84 137.67 199.07 137.64 C 203.29 138.18 206.88 135.56 209.94 133.02 C 211.21 135.14 214.98 137.20 213.13 139.95 C 210.54 144.26 204.92 144.97 201.50 148.39 C 199.80 150.16 199.68 154.05 202.74 154.35 C 210.06 155.93 217.02 151.15 221.54 145.78 C 223.01 147.27 224.49 148.73 225.98 150.20 C 222.90 156.31 216.55 159.27 211.80 163.77 C 209.31 166.09 212.10 169.80 215.03 169.62 C 222.80 169.56 229.70 164.61 234.35 158.68 C 247.96 173.48 253.93 196.49 245.31 215.25 C 236.91 233.18 216.61 244.46 196.97 242.74 C 193.67 242.35 190.20 241.58 187.63 239.35 C 184.69 236.85 184.50 232.37 185.95 229.03 C 187.58 225.67 191.03 223.78 194.24 222.19 C 205.12 217.19 217.41 215.34 227.42 208.47 C 231.46 205.64 236.09 202.84 237.97 198.03 C 239.44 194.18 240.50 190.11 240.62 185.97 C 240.79 184.08 238.81 183.02 237.86 181.69 C 236.24 186.48 236.26 191.68 234.33 196.37 C 232.78 200.24 229.01 202.47 225.77 204.78 C 215.59 211.87 202.95 213.55 191.92 218.86 C 188.67 220.40 185.75 222.59 183.34 225.26 C 173.03 224.15 162.08 222.92 153.17 217.20 C 154.93 209.57 156.52 201.62 155.03 193.81 C 153.79 194.66 151.54 195.02 151.74 196.97 C 151.59 209.27 148.83 221.53 143.83 232.76 C 141.46 237.67 138.60 242.89 133.62 245.57 C 131.36 246.86 128.73 246.18 126.30 245.99 C 126.40 231.62 124.23 217.37 123.23 203.06 C 122.90 198.77 123.30 194.44 122.71 190.16 C 121.41 189.46 120.00 188.96 118.64 188.40 C 118.20 181.19 118.35 173.78 120.83 166.91 C 123.90 157.29 129.51 148.28 130.05 137.99 C 130.59 131.91 126.55 126.21 121.07 123.87 C 114.57 120.87 107.02 122.86 101.03 126.13 C 92.66 130.86 85.07 138.28 82.77 147.89 C 79.50 161.12 80.39 175.29 84.87 188.14 C 86.47 192.28 88.56 196.22 89.89 200.47 C 81.59 188.65 77.58 174.26 75.88 160.05 C 75.35 156.92 76.11 152.60 72.18 151.67 C 70.85 156.76 72.07 161.94 72.72 167.03 C 69.13 169.10 65.14 171.16 63.21 175.04 C 60.66 180.12 59.39 185.81 56.05 190.51 C 55.59 190.20 54.67 189.57 54.21 189.26 C 53.11 185.91 51.37 182.79 49.29 179.96 C 49.06 172.50 48.96 164.60 52.98 157.99 C 57.87 149.86 64.98 143.10 72.92 137.99 C 74.76 136.61 75.31 134.23 75.55 132.07 C 77.64 108.05 84.49 84.35 96.18 63.22 C 98.85 58.25 99.43 52.53 99.57 46.99 C 99.87 37.63 101.00 28.28 103.12 19.16 C 103.98 16.08 104.80 12.61 107.39 10.50 M 109.30 25.97 C 107.74 32.93 106.81 40.05 106.80 47.18 C 112.65 45.62 117.99 42.49 122.64 38.68 C 125.48 36.53 124.33 32.56 123.31 29.76 C 121.44 25.50 118.92 20.48 114.02 19.24 C 110.98 19.97 109.97 23.31 109.30 25.97 M 150.68 31.85 C 149.93 36.33 151.07 40.97 153.13 44.96 C 154.29 44.44 155.74 43.66 154.88 42.11 C 154.04 38.75 153.46 35.35 152.97 31.92 C 152.40 31.90 151.25 31.87 150.68 31.85 M 174.36 33.21 C 174.05 36.94 173.56 40.66 172.84 44.33 C 173.67 44.61 174.50 44.66 175.34 44.49 C 177.08 40.97 177.18 36.91 176.99 33.06 C 176.33 33.10 175.02 33.17 174.36 33.21 M 144.87 38.97 C 145.44 41.67 146.95 44.00 148.75 46.05 C 149.17 45.59 150.02 44.66 150.44 44.20 C 149.13 41.59 148.19 38.79 146.68 36.28 C 145.07 35.62 144.20 37.72 144.87 38.97 M 177.98 46.01 C 178.67 45.94 180.05 45.81 180.74 45.75 C 181.43 43.22 182.34 40.62 181.89 37.96 C 181.43 37.90 180.50 37.77 180.04 37.71 C 178.25 39.94 178.59 43.29 177.98 46.01 M 124.29 64.37 C 122.99 65.09 121.13 65.32 120.69 66.98 C 120.95 68.53 122.70 68.76 123.81 69.45 C 124.67 73.11 125.67 76.92 128.23 79.81 C 134.58 87.66 147.15 89.39 155.28 83.34 C 159.95 80.22 162.23 74.84 163.18 69.50 C 164.10 68.97 165.01 68.43 165.91 67.87 C 166.79 65.08 162.58 65.36 162.28 62.94 C 160.05 54.54 151.65 48.45 142.97 49.04 C 134.18 49.21 126.26 55.84 124.29 64.37 M 161.13 86.12 C 160.24 89.91 161.38 94.06 164.62 96.38 C 170.97 100.85 180.68 99.41 185.82 93.72 C 187.83 91.48 188.56 86.06 184.69 85.52 C 176.98 83.80 168.72 83.80 161.13 86.12 M 127.45 99.83 C 126.99 101.39 128.23 103.04 129.96 102.14 C 138.74 99.51 147.48 96.69 156.23 93.92 C 156.11 93.23 155.89 91.85 155.78 91.16 C 146.22 93.68 136.91 96.99 127.45 99.83 M 157.70 96.68 C 151.26 100.35 144.93 104.24 138.67 108.22 C 139.02 108.72 139.70 109.72 140.05 110.22 C 143.19 109.36 145.73 107.20 148.53 105.62 C 152.21 103.23 156.20 101.32 159.72 98.69 C 160.93 97.20 159.06 95.57 157.70 96.68 Z" />
<path fill="#dcd5c6" opacity="1.00" d=" M 175.07 23.48 C 179.96 19.37 186.20 17.55 192.35 16.35 C 195.86 24.78 193.94 34.35 191.47 42.80 C 189.54 42.97 189.56 40.02 188.61 38.80 C 193.45 34.06 192.46 26.72 191.88 20.61 C 187.49 21.95 185.31 26.07 183.43 29.90 C 180.83 27.53 178.02 25.41 175.07 23.48 Z" />
<path fill="#dcd5c6" opacity="1.00" d=" M 133.61 56.63 C 139.13 51.99 147.93 51.74 153.49 56.44 C 156.24 58.52 157.66 61.75 158.88 64.87 C 148.63 65.09 138.38 65.08 128.13 64.87 C 129.43 61.83 130.89 58.67 133.61 56.63 Z" />
<path fill="#dcd5c6" opacity="1.00" d=" M 180.15 57.15 C 185.17 52.03 194.25 51.51 199.53 56.52 C 202.07 58.65 203.14 61.87 204.09 64.93 C 194.69 65.04 185.29 65.07 175.90 64.92 C 176.89 62.13 177.89 59.19 180.15 57.15 Z" />
</g>
<g id="#f6f1e7ff">
<path fill="#f6f1e7" opacity="1.00" d=" M 109.30 25.97 C 109.97 23.31 110.98 19.97 114.02 19.24 C 118.92 20.48 121.44 25.50 123.31 29.76 C 124.33 32.56 125.48 36.53 122.64 38.68 C 117.99 42.49 112.65 45.62 106.80 47.18 C 106.81 40.05 107.74 32.93 109.30 25.97 Z" />
<path fill="#f6f1e7" opacity="1.00" d=" M 183.43 29.90 C 185.31 26.07 187.49 21.95 191.88 20.61 C 192.46 26.72 193.45 34.06 188.61 38.80 C 186.52 36.05 184.89 33.01 183.43 29.90 Z" />
<path fill="#f6f1e7" opacity="1.00" d=" M 101.03 126.13 C 107.02 122.86 114.57 120.87 121.07 123.87 C 126.55 126.21 130.59 131.91 130.05 137.99 C 129.51 148.28 123.90 157.29 120.83 166.91 C 118.35 173.78 118.20 181.19 118.64 188.40 C 118.84 194.62 118.55 200.85 119.25 207.05 C 119.64 214.14 121.16 221.16 120.74 228.28 C 108.20 222.04 97.40 212.31 89.89 200.47 C 88.56 196.22 86.47 192.28 84.87 188.14 C 80.39 175.29 79.50 161.12 82.77 147.89 C 85.07 138.28 92.66 130.86 101.03 126.13 Z" />
<path fill="#f6f1e7" opacity="1.00" d=" M 153.17 217.20 C 162.08 222.92 173.03 224.15 183.34 225.26 C 180.53 229.61 180.20 235.03 182.43 239.71 C 169.92 240.75 157.25 240.10 144.91 237.80 C 148.40 231.25 151.74 224.54 153.17 217.20 Z" />
</g>
<g id="#6b92c7ff">
<path fill="#6b92c7" opacity="1.00" d=" M 23.13 70.09 C 24.52 68.50 27.12 69.04 28.43 70.45 C 30.95 72.98 32.86 76.03 35.06 78.83 C 37.63 75.85 39.35 71.68 43.11 70.04 C 48.02 69.57 47.25 75.92 47.21 79.12 C 50.19 77.73 55.15 74.50 57.31 78.65 C 58.26 83.20 54.83 87.29 53.50 91.46 C 57.60 92.41 63.26 91.16 65.93 95.16 C 66.46 99.06 62.01 100.43 59.39 102.13 C 62.04 104.02 67.28 106.66 64.80 110.65 C 61.32 113.73 56.09 112.82 51.81 113.76 C 53.08 117.66 56.46 121.63 55.06 125.85 C 52.35 129.22 48.21 125.61 45.46 124.08 C 45.16 127.31 45.61 133.12 40.98 133.12 C 36.47 131.79 34.62 126.66 31.63 123.40 C 29.21 126.84 26.75 130.34 23.34 132.88 C 18.94 131.52 19.37 126.78 19.48 123.09 C 19.31 123.18 18.97 123.35 18.80 123.43 C 16.11 124.87 11.31 127.49 9.39 123.61 C 8.49 119.05 11.85 114.98 13.20 110.79 C 9.26 109.92 4.18 110.93 1.22 107.72 C -0.72 103.75 4.61 101.81 7.22 100.19 C 4.71 98.16 -0.34 95.73 1.78 91.79 C 5.15 88.43 10.61 89.48 14.92 88.52 C 13.59 84.81 10.87 81.21 11.32 77.13 C 13.34 72.69 18.47 76.42 21.20 78.13 C 21.64 75.45 21.13 72.21 23.13 70.09 M 25.47 73.83 C 25.35 76.19 25.29 78.55 25.23 80.91 C 27.40 81.96 29.79 82.32 32.19 82.02 C 30.23 79.09 28.49 75.83 25.47 73.83 M 32.04 85.90 C 25.75 87.61 21.11 82.01 15.80 79.79 C 17.13 84.91 21.32 89.82 19.33 95.33 C 17.11 101.12 10.34 102.45 5.75 105.78 C 11.01 106.98 17.68 105.83 21.43 110.56 C 25.25 115.09 22.99 121.38 23.70 126.73 C 27.60 123.35 29.50 117.32 35.07 116.23 C 41.22 114.90 45.66 120.39 50.98 122.35 C 49.59 117.45 45.60 112.78 47.29 107.44 C 49.08 101.13 56.39 99.93 61.03 96.39 C 55.28 95.78 49.27 95.46 44.37 92.00 C 44.27 91.89 44.07 91.68 43.97 91.58 C 42.84 86.24 43.16 80.78 43.05 75.36 C 39.32 78.79 37.38 84.58 32.04 85.90 M 47.42 83.51 C 46.21 85.97 47.87 88.43 49.17 90.45 C 51.11 87.53 52.39 84.26 53.27 80.88 C 51.28 81.66 49.23 82.35 47.42 83.51 M 5.72 93.93 C 7.61 95.54 9.70 96.88 11.88 98.06 C 13.82 96.63 15.43 94.81 16.06 92.43 C 12.59 92.70 9.13 93.17 5.72 93.93 M 55.30 104.42 C 52.75 105.07 51.23 107.34 50.80 109.82 C 54.23 109.47 57.66 109.02 61.09 108.56 C 59.27 107.05 57.52 105.33 55.30 104.42 M 17.28 111.81 C 15.73 114.85 14.37 118.00 13.21 121.21 C 15.39 120.52 17.71 119.96 19.50 118.44 C 20.37 115.92 18.86 113.62 17.28 111.81 M 34.75 120.13 C 36.24 123.33 38.48 126.07 40.97 128.55 C 41.18 126.29 41.75 124.01 41.38 121.74 C 39.71 119.81 37.03 120.14 34.75 120.13 Z" />
</g>
<g id="#ffffffff">
<path fill="#ffffff" opacity="1.00" d=" M 127.85 69.12 C 134.17 69.01 140.49 69.09 146.82 69.06 C 146.44 72.34 147.18 76.33 150.79 77.45 C 152.37 78.02 154.11 77.71 155.75 77.84 C 151.85 81.60 146.36 83.89 140.90 82.74 C 134.08 81.73 128.67 75.91 127.85 69.12 Z" />
<path fill="#ffffff" opacity="1.00" d=" M 175.94 69.10 C 181.58 68.92 187.22 69.01 192.87 69.01 C 192.96 71.06 192.35 73.45 193.91 75.12 C 195.23 77.02 197.67 77.14 199.76 77.19 C 194.71 82.31 185.84 82.12 180.66 77.30 C 178.15 75.21 176.95 72.10 175.94 69.10 Z" />
</g>
<g id="#6e5642ff">
<path fill="#6e5642" opacity="1.00" d=" M 146.82 69.06 C 150.56 68.99 154.31 69.00 158.05 68.97 C 161.04 73.72 155.63 78.79 150.79 77.45 C 147.18 76.33 146.44 72.34 146.82 69.06 Z" />
<path fill="#6e5642" opacity="1.00" d=" M 192.87 69.01 C 196.22 69.00 199.57 69.00 202.92 68.98 C 204.65 72.24 202.98 75.78 199.76 77.19 C 197.67 77.14 195.23 77.02 193.91 75.12 C 192.35 73.45 192.96 71.06 192.87 69.01 Z" />
</g>
<g id="#9cbae4ff">
<path fill="#9cbae4" opacity="1.00" d=" M 25.47 73.83 C 28.49 75.83 30.23 79.09 32.19 82.02 C 29.79 82.32 27.40 81.96 25.23 80.91 C 25.29 78.55 25.35 76.19 25.47 73.83 Z" />
<path fill="#9cbae4" opacity="1.00" d=" M 32.04 85.90 C 37.38 84.58 39.32 78.79 43.05 75.36 C 43.16 80.78 42.84 86.24 43.97 91.58 C 38.58 86.04 28.86 85.75 23.59 91.59 C 17.53 97.45 18.84 108.54 26.01 112.92 C 32.48 117.46 42.34 114.95 45.94 107.94 C 48.88 102.91 47.80 96.50 44.37 92.00 C 49.27 95.46 55.28 95.78 61.03 96.39 C 56.39 99.93 49.08 101.13 47.29 107.44 C 45.60 112.78 49.59 117.45 50.98 122.35 C 45.66 120.39 41.22 114.90 35.07 116.23 C 29.50 117.32 27.60 123.35 23.70 126.73 C 22.99 121.38 25.25 115.09 21.43 110.56 C 17.68 105.83 11.01 106.98 5.75 105.78 C 10.34 102.45 17.11 101.12 19.33 95.33 C 21.32 89.82 17.13 84.91 15.80 79.79 C 21.11 82.01 25.75 87.61 32.04 85.90 Z" />
<path fill="#9cbae4" opacity="1.00" d=" M 47.42 83.51 C 49.23 82.35 51.28 81.66 53.27 80.88 C 52.39 84.26 51.11 87.53 49.17 90.45 C 47.87 88.43 46.21 85.97 47.42 83.51 Z" />
<path fill="#9cbae4" opacity="1.00" d=" M 5.72 93.93 C 9.13 93.17 12.59 92.70 16.06 92.43 C 15.43 94.81 13.82 96.63 11.88 98.06 C 9.70 96.88 7.61 95.54 5.72 93.93 Z" />
<path fill="#9cbae4" opacity="1.00" d=" M 55.30 104.42 C 57.52 105.33 59.27 107.05 61.09 108.56 C 57.66 109.02 54.23 109.47 50.80 109.82 C 51.23 107.34 52.75 105.07 55.30 104.42 Z" />
<path fill="#9cbae4" opacity="1.00" d=" M 17.28 111.81 C 18.86 113.62 20.37 115.92 19.50 118.44 C 17.71 119.96 15.39 120.52 13.21 121.21 C 14.37 118.00 15.73 114.85 17.28 111.81 Z" />
<path fill="#9cbae4" opacity="1.00" d=" M 34.75 120.13 C 37.03 120.14 39.71 119.81 41.38 121.74 C 41.75 124.01 41.18 126.29 40.97 128.55 C 38.48 126.07 36.24 123.33 34.75 120.13 Z" />
</g>
<g id="#dc1b6cff">
<path fill="#dc1b6c" opacity="1.00" d=" M 161.13 86.12 C 168.72 83.80 176.98 83.80 184.69 85.52 C 188.56 86.06 187.83 91.48 185.82 93.72 C 180.68 99.41 170.97 100.85 164.62 96.38 C 161.38 94.06 160.24 89.91 161.13 86.12 M 167.60 89.94 C 171.45 92.27 177.73 93.14 180.68 89.04 C 176.86 86.61 170.49 85.77 167.60 89.94 Z" />
</g>
<g id="#cd681fff">
<path fill="#cd681f" opacity="1.00" d=" M 23.59 91.59 C 28.86 85.75 38.58 86.04 43.97 91.58 C 44.07 91.68 44.27 91.89 44.37 92.00 C 47.80 96.50 48.88 102.91 45.94 107.94 C 42.34 114.95 32.48 117.46 26.01 112.92 C 18.84 108.54 17.53 97.45 23.59 91.59 M 31.35 91.54 C 24.29 92.93 21.16 102.59 26.19 107.79 C 30.63 113.39 40.47 111.69 42.90 105.01 C 46.25 97.97 38.83 89.31 31.35 91.54 Z" />
</g>
<g id="#fa99c2ff">
<path fill="#fa99c2" opacity="1.00" d=" M 167.60 89.94 C 170.49 85.77 176.86 86.61 180.68 89.04 C 177.73 93.14 171.45 92.27 167.60 89.94 Z" />
</g>
<g id="#f6c934ff">
<path fill="#f6c934" opacity="1.00" d=" M 31.35 91.54 C 38.83 89.31 46.25 97.97 42.90 105.01 C 40.47 111.69 30.63 113.39 26.19 107.79 C 21.16 102.59 24.29 92.93 31.35 91.54 Z" />
</g>
<g id="#18763dff">
<path fill="#18763d" opacity="1.00" d=" M 18.80 123.43 C 18.97 123.35 19.31 123.18 19.48 123.09 C 19.37 126.78 18.94 131.52 23.34 132.88 C 22.98 139.76 23.21 146.68 24.50 153.46 C 24.82 155.61 25.40 157.78 25.18 159.97 C 24.44 161.93 21.47 162.55 20.18 160.79 C 19.52 159.41 19.14 157.91 18.65 156.46 C 17.68 156.50 16.71 156.54 15.74 156.58 C 6.74 154.09 2.18 144.30 1.15 135.71 C 7.79 135.13 13.87 138.83 17.38 144.30 C 16.80 137.31 17.43 130.29 18.80 123.43 Z" />
</g>
<g id="#a75214ff">
<path fill="#a75214" opacity="1.00" d=" M 24.50 153.46 C 29.24 153.12 35.80 152.95 38.14 158.02 C 38.10 162.20 36.01 166.11 35.21 170.19 C 37.99 171.42 40.75 172.72 43.23 174.48 C 45.41 176.12 47.41 177.98 49.29 179.96 C 51.37 182.79 53.11 185.91 54.21 189.26 C 54.87 191.75 55.34 194.30 55.66 196.86 C 56.15 204.24 55.76 211.64 56.00 219.03 C 60.75 221.07 65.88 221.81 70.83 223.15 C 73.81 224.90 72.30 228.97 71.08 231.42 C 66.19 238.13 58.49 242.03 50.90 244.91 C 46.46 246.58 41.47 247.48 36.89 245.77 C 35.77 244.25 34.30 242.27 35.40 240.35 C 37.26 236.25 39.29 232.21 40.47 227.85 C 32.70 221.90 24.15 216.67 17.91 208.99 C 11.71 201.27 10.54 190.56 13.04 181.19 C 9.81 179.83 6.42 178.93 3.11 177.81 C 0.88 177.29 0.42 174.78 0.00 172.89 L 0.00 172.24 C 1.49 164.39 8.94 159.58 15.74 156.58 C 16.71 156.54 17.68 156.50 18.65 156.46 C 19.14 157.91 19.52 159.41 20.18 160.79 C 21.47 162.55 24.44 161.93 25.18 159.97 C 25.40 157.78 24.82 155.61 24.50 153.46 M 5.76 171.44 C 6.70 172.98 8.63 173.14 10.18 173.74 C 13.22 174.61 15.98 176.18 18.73 177.69 C 19.09 178.33 19.81 179.60 20.17 180.24 C 16.69 187.17 17.02 195.84 20.88 202.55 C 21.19 203.90 22.32 204.82 23.13 205.88 C 24.43 207.27 25.72 208.66 27.10 209.98 C 27.54 210.33 28.41 211.02 28.84 211.37 C 33.67 216.36 40.61 219.01 44.71 224.67 L 45.17 225.84 L 46.77 226.05 C 46.11 231.29 43.96 236.13 41.95 240.95 C 50.93 239.32 59.94 235.35 66.02 228.34 C 61.30 227.15 56.61 225.82 52.14 223.87 C 51.89 222.96 51.64 222.06 51.39 221.16 C 51.03 220.91 50.32 220.41 49.96 220.16 C 49.98 213.51 49.79 206.86 50.01 200.22 C 49.85 199.07 49.68 197.93 49.52 196.79 C 49.15 193.43 48.30 190.17 47.37 186.93 L 47.48 186.06 C 46.89 185.74 45.71 185.12 45.12 184.81 C 41.61 179.74 36.05 176.45 30.10 175.11 C 29.82 174.41 29.25 173.03 28.97 172.34 C 29.02 167.78 31.82 163.50 31.22 159.01 C 24.52 166.05 15.13 169.65 5.76 171.44 Z" />
</g>
<g id="#f68634ff">
<path fill="#f68634" opacity="1.00" d=" M 5.76 171.44 C 15.13 169.65 24.52 166.05 31.22 159.01 C 31.82 163.50 29.02 167.78 28.97 172.34 C 25.19 173.34 21.68 175.11 18.73 177.69 C 15.98 176.18 13.22 174.61 10.18 173.74 C 8.63 173.14 6.70 172.98 5.76 171.44 Z" />
<path fill="#f68634" opacity="1.00" d=" M 20.17 180.24 C 23.72 179.03 27.04 177.27 30.10 175.11 C 36.05 176.45 41.61 179.74 45.12 184.81 C 44.19 186.40 43.27 188.00 42.35 189.60 C 39.96 189.26 37.21 187.41 34.93 188.81 C 33.63 191.03 32.94 193.55 32.09 195.97 C 29.89 195.36 27.72 194.32 25.40 194.41 C 22.20 195.67 21.93 199.72 20.88 202.55 C 17.02 195.84 16.69 187.17 20.17 180.24 Z" />
<path fill="#f68634" opacity="1.00" d=" M 47.37 186.93 C 48.30 190.17 49.15 193.43 49.52 196.79 C 43.25 199.10 37.57 202.65 31.59 205.56 C 29.58 206.43 27.96 207.94 27.10 209.98 C 25.72 208.66 24.43 207.27 23.13 205.88 C 24.48 203.49 25.71 201.04 26.78 198.52 C 29.38 199.46 31.93 200.90 34.76 200.91 C 36.49 198.57 36.61 195.33 37.57 192.60 C 40.25 193.18 42.99 194.40 45.76 193.76 C 46.91 191.67 47.02 189.23 47.37 186.93 Z" />
<path fill="#f68634" opacity="1.00" d=" M 28.84 211.37 C 36.07 207.99 43.15 204.27 50.01 200.22 C 49.79 206.86 49.98 213.51 49.96 220.16 C 48.33 220.84 46.73 221.61 45.12 222.34 C 45.02 222.92 44.81 224.09 44.71 224.67 C 40.61 219.01 33.67 216.36 28.84 211.37 Z" />
<path fill="#f68634" opacity="1.00" d=" M 51.39 221.16 C 51.64 222.06 51.89 222.96 52.14 223.87 C 56.61 225.82 61.30 227.15 66.02 228.34 C 59.94 235.35 50.93 239.32 41.95 240.95 C 43.96 236.13 46.11 231.29 46.77 226.05 C 48.25 225.39 49.67 224.62 51.11 223.89 C 51.18 223.21 51.32 221.85 51.39 221.16 Z" />
</g>
<g id="#feb761ff">
<path fill="#feb761" opacity="1.00" d=" M 18.73 177.69 C 21.68 175.11 25.19 173.34 28.97 172.34 C 29.25 173.03 29.82 174.41 30.10 175.11 C 27.04 177.27 23.72 179.03 20.17 180.24 C 19.81 179.60 19.09 178.33 18.73 177.69 Z" />
<path fill="#feb761" opacity="1.00" d=" M 45.12 184.81 C 45.71 185.12 46.89 185.74 47.48 186.06 L 47.37 186.93 C 47.02 189.23 46.91 191.67 45.76 193.76 C 42.99 194.40 40.25 193.18 37.57 192.60 C 36.61 195.33 36.49 198.57 34.76 200.91 C 31.93 200.90 29.38 199.46 26.78 198.52 C 25.71 201.04 24.48 203.49 23.13 205.88 C 22.32 204.82 21.19 203.90 20.88 202.55 C 21.93 199.72 22.20 195.67 25.40 194.41 C 27.72 194.32 29.89 195.36 32.09 195.97 C 32.94 193.55 33.63 191.03 34.93 188.81 C 37.21 187.41 39.96 189.26 42.35 189.60 C 43.27 188.00 44.19 186.40 45.12 184.81 Z" />
<path fill="#feb761" opacity="1.00" d=" M 31.59 205.56 C 37.57 202.65 43.25 199.10 49.52 196.79 C 49.68 197.93 49.85 199.07 50.01 200.22 C 43.15 204.27 36.07 207.99 28.84 211.37 C 28.41 211.02 27.54 210.33 27.10 209.98 C 27.96 207.94 29.58 206.43 31.59 205.56 Z" />
<path fill="#feb761" opacity="1.00" d=" M 45.12 222.34 C 46.73 221.61 48.33 220.84 49.96 220.16 C 50.32 220.41 51.03 220.91 51.39 221.16 C 51.32 221.85 51.18 223.21 51.11 223.89 C 49.67 224.62 48.25 225.39 46.77 226.05 L 45.17 225.84 L 44.71 224.67 C 44.81 224.09 45.02 222.92 45.12 222.34 Z" />
</g>
<g id="#0000004c">
<path fill="#000000" opacity="0.30" d=" M 104.42 225.39 C 109.24 229.18 114.58 232.23 120.07 234.94 C 120.12 239.50 120.22 244.07 120.34 248.64 C 110.90 248.63 101.56 246.80 92.17 246.36 C 83.69 251.32 73.64 251.75 64.05 251.83 C 56.61 251.78 49.05 251.41 41.88 249.24 C 39.85 248.72 38.16 247.40 36.89 245.77 C 41.47 247.48 46.46 246.58 50.90 244.91 C 58.49 242.03 66.19 238.13 71.08 231.42 C 81.97 228.27 93.22 226.89 104.42 225.39 Z" />
<path fill="#000000" opacity="0.30" d=" M 219.42 245.78 C 227.57 242.53 235.19 237.78 241.32 231.45 C 243.86 232.39 246.86 233.02 248.51 235.39 C 249.81 238.28 246.00 239.93 243.90 240.88 C 236.06 243.71 227.77 245.62 219.42 245.78 Z" />
<path fill="#000000" opacity="0.30" d=" M 138.75 249.72 C 140.93 247.90 142.76 245.73 144.52 243.52 C 157.15 246.26 170.22 246.76 183.07 245.64 C 186.90 244.95 190.11 247.55 193.66 248.46 C 175.43 250.39 157.05 249.77 138.75 249.72 Z" />
</g>
</svg>
