<?xml version="1.0" encoding="UTF-8" ?>
<!DOCTYPE svg PUBLIC "-//W3C//DTD SVG 1.1//EN" "http://www.w3.org/Graphics/SVG/1.1/DTD/svg11.dtd">
<svg width="256pt" height="256pt" viewBox="0 0 256 256" version="1.1" xmlns="http://www.w3.org/2000/svg">
<g id="#baac95ff">
<path fill="#baac95" opacity="1.00" d=" M 212.08 15.96 C 214.33 8.76 220.63 2.98 228.04 1.48 C 234.50 0.04 241.56 1.91 246.51 6.28 C 251.87 10.85 254.70 18.16 253.85 25.14 C 253.12 32.03 248.73 38.39 242.56 41.53 C 236.60 44.67 229.18 44.81 223.11 41.89 C 221.85 41.20 220.60 40.51 219.40 39.73 C 218.37 38.84 217.35 37.93 216.39 36.97 C 215.62 35.99 214.89 34.98 214.21 33.95 C 210.88 28.65 210.11 21.88 212.08 15.96 M 229.30 7.35 C 221.42 8.90 215.75 17.21 217.19 25.11 C 218.25 32.98 226.18 38.91 234.02 37.91 C 242.67 37.37 249.57 28.49 247.75 19.97 C 246.53 11.57 237.60 5.35 229.30 7.35 Z" />
</g>
<g id="#dcd5c6ff">
<path fill="#dcd5c6" opacity="1.00" d=" M 229.30 7.35 C 237.60 5.35 246.53 11.57 247.75 19.97 C 249.57 28.49 242.67 37.37 234.02 37.91 C 226.18 38.91 218.25 32.98 217.19 25.11 C 215.75 17.21 221.42 8.90 229.30 7.35 M 228.36 12.39 C 222.91 14.51 222.27 22.76 227.39 25.60 C 231.92 28.58 238.45 24.91 238.57 19.58 C 239.06 14.36 233.09 10.30 228.36 12.39 Z" />
</g>
<g id="#f6f1e7ff">
<path fill="#f6f1e7" opacity="1.00" d=" M 228.36 12.39 C 233.09 10.30 239.06 14.36 238.57 19.58 C 238.45 24.91 231.92 28.58 227.39 25.60 C 222.27 22.76 222.91 14.51 228.36 12.39 Z" />
</g>
<g id="#829bbcff">
<path fill="#829bbc" opacity="1.00" d=" M 214.21 33.95 C 214.89 34.98 215.62 35.99 216.39 36.97 C 210.31 43.33 204.00 49.46 197.88 55.78 C 196.69 55.14 195.48 54.56 194.28 53.96 C 200.91 47.28 207.52 40.58 214.21 33.95 Z" />
<path fill="#829bbc" opacity="1.00" d=" M 219.40 39.73 C 220.60 40.51 221.85 41.20 223.11 41.89 C 217.17 48.08 211.04 54.09 204.96 60.14 C 203.71 59.30 202.45 58.46 201.16 57.68 C 207.67 52.16 213.31 45.70 219.40 39.73 Z" />
<path fill="#829bbc" opacity="1.00" d=" M 56.70 191.36 C 59.22 189.14 61.28 185.50 65.06 185.55 C 69.35 185.40 72.49 190.59 70.31 194.31 C 68.49 196.96 65.90 198.96 63.72 201.31 C 62.55 202.48 61.38 203.65 60.20 204.82 C 57.71 207.34 55.18 209.83 52.68 212.35 C 43.79 221.24 34.91 230.14 26.01 239.02 C 23.81 241.19 21.68 243.43 19.43 245.54 C 16.68 247.79 12.03 246.66 10.50 243.45 C 9.17 241.01 9.91 237.85 11.98 236.07 C 22.60 225.47 33.17 214.82 43.83 204.26 C 46.83 201.16 49.92 198.14 52.97 195.08 C 54.21 193.83 55.45 192.59 56.70 191.36 M 63.24 190.21 C 48.71 204.68 34.23 219.22 19.71 233.71 C 17.89 235.55 15.90 237.25 14.35 239.34 C 13.55 240.92 15.33 242.82 16.94 241.93 C 18.91 240.61 20.40 238.72 22.09 237.10 C 36.74 222.40 51.40 207.73 66.06 193.05 C 67.31 192.14 67.39 190.62 66.70 189.33 C 65.45 188.94 64.08 189.09 63.24 190.21 Z" />
</g>
<g id="#acbdd3ff">
<path fill="#acbdd3" opacity="1.00" d=" M 216.39 36.97 C 217.35 37.93 218.37 38.84 219.40 39.73 C 213.31 45.70 207.67 52.16 201.16 57.68 C 200.08 57.02 198.99 56.38 197.88 55.78 C 204.00 49.46 210.31 43.33 216.39 36.97 Z" />
<path fill="#acbdd3" opacity="1.00" d=" M 63.24 190.21 C 64.08 189.09 65.45 188.94 66.70 189.33 C 67.39 190.62 67.31 192.14 66.06 193.05 C 51.40 207.73 36.74 222.40 22.09 237.10 C 20.40 238.72 18.91 240.61 16.94 241.93 C 15.33 242.82 13.55 240.92 14.35 239.34 C 15.90 237.25 17.89 235.55 19.71 233.71 C 34.23 219.22 48.71 204.68 63.24 190.21 Z" />
</g>
<g id="#aa024eff">
<path fill="#aa024e" opacity="1.00" d=" M 38.28 62.27 C 57.16 47.47 83.48 43.06 106.19 50.73 C 112.24 52.51 117.50 56.09 123.06 58.96 C 126.97 56.91 130.77 54.68 134.70 52.70 C 153.56 44.72 175.77 45.19 194.28 53.96 C 195.48 54.56 196.69 55.14 197.88 55.78 C 198.99 56.38 200.08 57.02 201.16 57.68 C 202.45 58.46 203.71 59.30 204.96 60.14 C 222.37 72.14 234.14 91.96 236.14 113.03 C 237.58 130.16 233.90 147.47 227.27 163.23 C 215.27 190.92 193.63 214.11 167.45 228.96 C 158.00 230.63 148.63 233.08 139.03 233.71 C 136.85 234.03 134.89 232.90 132.99 232.04 C 118.87 225.37 106.41 215.58 95.64 204.34 C 82.16 190.30 71.24 173.96 62.46 156.63 C 48.79 129.12 40.33 98.41 42.17 67.50 C 40.48 68.56 37.91 69.56 38.08 71.98 C 36.36 94.48 41.11 117.04 48.80 138.11 C 56.52 158.84 67.38 178.47 81.31 195.68 C 94.21 211.74 110.34 225.51 129.28 233.87 C 119.84 234.06 110.25 231.07 102.83 225.16 C 93.57 218.33 85.73 209.86 77.98 201.45 C 75.80 201.87 73.62 201.53 71.50 200.95 C 74.22 205.01 77.75 208.43 81.04 212.02 C 87.79 218.90 94.64 225.90 103.01 230.83 C 109.80 235.32 118.02 236.93 125.97 237.93 C 133.49 238.91 140.96 237.04 148.46 237.43 C 140.34 240.25 131.61 242.20 122.99 241.12 C 118.52 241.83 113.98 241.33 109.54 240.67 C 97.66 238.70 86.31 234.22 75.81 228.42 C 67.55 223.92 59.86 218.42 52.68 212.35 C 55.18 209.83 57.71 207.34 60.20 204.82 C 65.77 211.52 70.85 219.30 78.98 223.14 C 81.95 224.76 84.95 226.41 88.24 227.31 C 79.46 219.24 71.12 210.69 63.72 201.31 C 65.90 198.96 68.49 196.96 70.31 194.31 C 72.49 190.59 69.35 185.40 65.06 185.55 C 61.28 185.50 59.22 189.14 56.70 191.36 C 37.80 162.90 24.92 130.03 21.83 95.88 C 21.73 95.37 21.53 94.34 21.43 93.83 C 19.74 97.96 17.36 102.33 18.28 106.93 C 22.81 138.47 34.96 168.82 52.97 195.08 C 49.92 198.14 46.83 201.16 43.83 204.26 C 37.23 196.74 30.68 189.01 25.69 180.26 C 13.68 160.18 8.08 136.34 10.00 113.01 C 11.90 93.15 22.45 74.38 38.28 62.27 M 79.11 53.32 C 80.46 54.32 82.41 53.64 83.98 53.98 C 94.15 55.03 104.47 57.37 113.24 62.84 C 116.41 64.74 119.14 67.27 122.08 69.49 C 126.56 66.90 130.64 63.66 135.22 61.23 C 137.58 59.74 140.42 58.88 142.35 56.79 C 135.17 57.97 129.19 62.54 122.96 65.96 C 110.25 57.12 94.66 52.06 79.11 53.32 M 157.68 57.61 C 139.76 63.44 123.91 74.40 110.35 87.31 C 98.62 99.12 87.73 112.15 80.50 127.25 C 80.96 129.33 81.68 131.49 83.05 133.15 C 84.74 131.69 85.46 129.46 86.69 127.63 C 97.62 109.55 112.39 93.84 129.47 81.43 C 147.39 68.65 168.72 59.49 191.04 59.59 C 185.84 56.63 179.90 55.12 174.03 54.21 C 168.44 54.45 163.00 55.99 157.68 57.61 M 59.49 57.59 C 56.22 78.25 59.56 99.40 65.70 119.21 C 72.96 141.92 84.18 163.40 98.91 182.15 C 114.13 201.27 133.47 218.34 157.21 225.67 C 158.43 226.24 160.57 226.53 161.13 224.93 C 160.20 224.05 158.93 223.74 157.81 223.24 C 143.17 217.39 130.28 207.90 118.95 197.07 C 104.30 182.59 92.17 165.65 82.80 147.34 C 70.40 122.83 62.02 95.69 62.45 68.03 C 62.38 64.09 63.23 60.16 62.89 56.23 C 61.73 56.61 60.61 57.09 59.49 57.59 M 68.98 59.74 C 68.69 61.91 68.50 64.09 68.63 66.28 C 83.73 65.62 99.74 67.94 111.94 77.54 C 113.66 76.34 115.29 75.02 116.89 73.67 C 116.18 71.70 114.17 70.66 112.61 69.42 C 100.00 60.71 83.90 58.93 68.98 59.74 M 49.27 62.25 C 47.87 68.40 47.98 74.78 48.04 81.06 C 48.93 107.52 57.22 133.31 69.26 156.73 C 78.44 174.34 90.07 190.78 104.36 204.62 C 115.24 214.97 127.69 223.99 141.86 229.22 C 144.44 230.06 147.13 231.92 149.89 230.64 C 149.85 230.34 149.76 229.76 149.71 229.47 C 128.46 221.29 110.68 206.02 96.37 188.59 C 82.95 172.09 72.18 153.44 64.44 133.64 C 55.49 110.54 50.29 85.51 52.88 60.68 C 51.61 61.04 50.42 61.60 49.27 62.25 M 134.40 85.33 C 114.17 99.35 97.79 118.57 86.29 140.28 C 86.64 142.42 88.01 144.25 89.07 146.10 C 90.30 145.70 90.59 144.24 91.29 143.30 C 103.78 121.06 122.14 102.18 143.80 88.74 C 163.20 76.60 186.30 69.56 209.30 71.96 C 207.03 69.44 204.43 66.54 200.78 66.40 C 177.16 62.86 153.52 71.92 134.40 85.33 M 68.29 72.25 C 68.35 74.54 68.51 76.82 68.87 79.08 C 80.53 78.36 92.60 80.28 102.56 86.66 C 104.09 85.21 105.60 83.73 106.94 82.09 L 106.75 81.33 C 95.86 73.01 81.51 71.91 68.29 72.25 M 27.43 85.96 C 27.98 117.15 38.29 147.53 53.39 174.59 C 55.23 177.54 56.63 180.85 59.12 183.34 C 59.14 181.91 59.16 180.48 59.18 179.05 C 60.15 179.21 61.12 179.37 62.09 179.53 C 61.89 179.08 61.49 178.17 61.29 177.72 C 43.32 147.67 31.30 113.15 31.71 77.84 C 29.09 79.67 26.84 82.57 27.43 85.96 M 156.42 88.56 C 130.19 101.94 108.47 123.77 94.54 149.65 C 93.89 150.59 93.20 151.49 92.50 152.39 C 93.67 154.23 94.16 157.38 96.55 157.87 C 109.14 134.20 128.55 114.37 151.46 100.51 C 171.65 88.31 195.49 81.39 219.18 83.87 C 218.29 82.02 217.26 79.59 215.02 79.17 C 195.14 74.87 174.29 79.44 156.42 88.56 M 69.29 85.14 C 69.49 87.35 69.82 89.54 70.23 91.71 C 77.73 91.41 85.35 92.42 92.12 95.81 C 92.58 95.88 93.50 96.01 93.96 96.08 C 95.42 94.55 96.84 92.97 97.96 91.16 C 89.60 85.60 79.08 84.54 69.29 85.14 M 140.92 114.93 C 127.43 125.39 115.62 138.09 106.51 152.56 C 104.13 156.32 102.22 160.36 99.72 164.04 C 100.81 165.84 101.64 168.19 103.74 169.01 C 114.64 148.56 130.94 131.21 149.97 118.09 C 171.90 102.97 198.47 93.82 225.29 95.26 C 224.53 93.50 224.23 90.55 221.79 90.43 C 192.79 85.80 163.65 97.45 140.92 114.93 M 71.73 97.85 C 71.54 100.03 72.23 102.17 72.95 104.19 C 77.29 104.50 81.50 105.53 85.64 106.80 C 86.98 105.19 88.21 103.50 89.41 101.80 L 88.99 101.10 C 83.77 98.30 77.60 97.42 71.73 97.85 M 175.65 110.65 C 146.55 123.50 122.01 146.46 107.39 174.74 C 108.38 176.45 109.63 177.99 111.04 179.36 C 111.39 178.87 112.08 177.90 112.42 177.41 C 124.20 156.97 141.36 139.77 161.36 127.34 C 181.57 114.72 205.08 107.03 229.00 106.85 C 228.64 105.26 228.28 103.67 227.71 102.14 C 226.81 101.12 225.24 101.63 224.06 101.36 C 207.46 100.37 190.82 104.02 175.65 110.65 M 75.05 110.35 C 75.00 113.45 76.11 116.60 77.70 119.25 C 79.26 116.95 80.74 114.58 81.96 112.07 C 79.73 111.24 77.40 110.70 75.05 110.35 M 209.08 114.99 C 211.48 127.84 211.77 141.17 208.76 153.95 C 203.65 176.67 190.03 196.46 174.22 213.14 C 172.04 215.53 169.46 217.56 167.59 220.22 C 167.95 220.34 168.66 220.59 169.02 220.71 C 172.76 218.81 176.22 216.27 179.15 213.25 C 188.92 203.21 198.22 192.59 205.52 180.59 C 216.37 163.40 222.27 142.80 220.41 122.43 C 220.01 119.42 220.13 116.24 218.84 113.44 C 215.56 113.72 212.25 114.05 209.08 114.99 M 225.27 113.19 C 226.93 123.04 227.26 133.16 225.78 143.07 C 225.44 145.50 224.85 147.93 225.11 150.41 C 226.74 147.14 227.32 143.48 228.14 139.96 C 229.90 131.11 230.89 121.99 229.89 112.99 C 228.35 112.94 226.80 113.00 225.27 113.19 M 192.25 119.16 C 195.02 124.65 194.82 131.04 195.21 137.03 C 195.81 164.03 182.46 189.30 164.83 208.96 C 162.66 211.73 159.71 213.89 157.91 216.93 C 158.87 217.28 159.84 217.59 160.83 217.87 C 175.33 204.37 188.44 188.87 196.73 170.72 C 204.57 153.87 207.30 134.33 202.90 116.18 C 199.28 116.92 195.77 118.07 192.25 119.16 M 177.27 125.33 C 179.75 134.34 179.91 143.85 178.80 153.09 C 176.15 173.25 166.29 191.89 153.24 207.25 C 151.92 209.04 149.77 210.39 149.15 212.61 C 150.01 213.05 150.90 213.43 151.81 213.77 C 168.02 198.30 181.59 179.08 186.98 157.07 C 190.12 145.28 189.50 132.94 187.63 121.01 C 184.07 122.17 180.66 123.76 177.27 125.33 M 162.62 133.96 C 167.21 159.76 157.33 186.22 141.28 206.25 C 141.26 206.62 141.23 207.36 141.22 207.73 C 142.01 208.25 142.86 208.61 143.77 208.81 C 154.38 197.78 162.98 184.73 168.36 170.37 C 173.25 157.00 175.11 142.16 171.83 128.19 C 168.69 129.99 165.34 131.54 162.62 133.96 M 16.28 128.95 C 16.48 139.36 19.07 149.63 22.59 159.40 C 28.06 173.73 36.24 187.23 47.12 198.09 C 46.59 196.39 45.62 194.88 44.64 193.41 C 31.73 173.65 22.62 151.62 16.28 128.95 M 149.84 142.88 C 148.93 143.70 147.48 144.54 147.85 146.02 C 149.25 165.39 142.75 184.47 132.89 200.90 C 133.35 202.21 134.67 202.89 135.94 203.20 C 143.20 194.50 148.90 184.51 152.81 173.88 C 156.84 162.42 159.05 149.95 156.99 137.87 C 154.32 139.08 152.15 141.10 149.84 142.88 M 132.33 160.26 C 131.37 171.75 128.64 183.04 124.23 193.69 C 125.23 194.78 126.28 195.81 127.37 196.80 C 129.08 196.05 129.66 194.07 130.64 192.62 C 137.75 179.63 142.39 164.86 141.89 149.95 C 138.53 153.18 134.82 156.29 132.33 160.26 M 115.70 184.09 C 115.94 186.24 118.20 187.50 119.68 188.90 C 121.99 182.68 124.10 176.29 124.95 169.69 C 121.07 173.88 118.34 179.06 115.70 184.09 Z" />
</g>
<g id="#d9045fff">
<path fill="#d9045f" opacity="1.00" d=" M 79.11 53.32 C 94.66 52.06 110.25 57.12 122.96 65.96 C 129.19 62.54 135.17 57.97 142.35 56.79 C 140.42 58.88 137.58 59.74 135.22 61.23 C 130.64 63.66 126.56 66.90 122.08 69.49 C 119.14 67.27 116.41 64.74 113.24 62.84 C 104.47 57.37 94.15 55.03 83.98 53.98 C 82.41 53.64 80.46 54.32 79.11 53.32 Z" />
</g>
<g id="#e40563ff">
<path fill="#e40563" opacity="1.00" d=" M 157.68 57.61 C 163.00 55.99 168.44 54.45 174.03 54.21 C 179.90 55.12 185.84 56.63 191.04 59.59 C 168.72 59.49 147.39 68.65 129.47 81.43 C 112.39 93.84 97.62 109.55 86.69 127.63 C 85.46 129.46 84.74 131.69 83.05 133.15 C 81.68 131.49 80.96 129.33 80.50 127.25 C 87.73 112.15 98.62 99.12 110.35 87.31 C 123.91 74.40 139.76 63.44 157.68 57.61 Z" />
<path fill="#e40563" opacity="1.00" d=" M 59.49 57.59 C 60.61 57.09 61.73 56.61 62.89 56.23 C 63.23 60.16 62.38 64.09 62.45 68.03 C 62.02 95.69 70.40 122.83 82.80 147.34 C 92.17 165.65 104.30 182.59 118.95 197.07 C 130.28 207.90 143.17 217.39 157.81 223.24 C 158.93 223.74 160.20 224.05 161.13 224.93 C 160.57 226.53 158.43 226.24 157.21 225.67 C 133.47 218.34 114.13 201.27 98.91 182.15 C 84.18 163.40 72.96 141.92 65.70 119.21 C 59.56 99.40 56.22 78.25 59.49 57.59 Z" />
<path fill="#e40563" opacity="1.00" d=" M 68.98 59.74 C 83.90 58.93 100.00 60.71 112.61 69.42 C 114.17 70.66 116.18 71.70 116.89 73.67 C 115.29 75.02 113.66 76.34 111.94 77.54 C 99.74 67.94 83.73 65.62 68.63 66.28 C 68.50 64.09 68.69 61.91 68.98 59.74 Z" />
<path fill="#e40563" opacity="1.00" d=" M 49.27 62.25 C 50.42 61.60 51.61 61.04 52.88 60.68 C 50.29 85.51 55.49 110.54 64.44 133.64 C 72.18 153.44 82.95 172.09 96.37 188.59 C 110.68 206.02 128.46 221.29 149.71 229.47 C 149.76 229.76 149.85 230.34 149.89 230.64 C 147.13 231.92 144.44 230.06 141.86 229.22 C 127.69 223.99 115.24 214.97 104.36 204.62 C 90.07 190.78 78.44 174.34 69.26 156.73 C 57.22 133.31 48.93 107.52 48.04 81.06 C 47.98 74.78 47.87 68.40 49.27 62.25 Z" />
<path fill="#e40563" opacity="1.00" d=" M 134.40 85.33 C 153.52 71.92 177.16 62.86 200.78 66.40 C 204.43 66.54 207.03 69.44 209.30 71.96 C 186.30 69.56 163.20 76.60 143.80 88.74 C 122.14 102.18 103.78 121.06 91.29 143.30 C 90.59 144.24 90.30 145.70 89.07 146.10 C 88.01 144.25 86.64 142.42 86.29 140.28 C 97.79 118.57 114.17 99.35 134.40 85.33 Z" />
<path fill="#e40563" opacity="1.00" d=" M 38.08 71.98 C 37.91 69.56 40.48 68.56 42.17 67.50 C 40.33 98.41 48.79 129.12 62.46 156.63 C 71.24 173.96 82.16 190.30 95.64 204.34 C 106.41 215.58 118.87 225.37 132.99 232.04 C 134.89 232.90 136.85 234.03 139.03 233.71 C 148.63 233.08 158.00 230.63 167.45 228.96 C 175.22 227.47 183.18 226.78 191.08 227.47 C 200.47 228.08 209.59 230.91 219.03 231.08 C 227.20 231.30 235.30 229.71 243.13 227.51 C 245.30 226.47 247.02 230.08 244.83 231.12 C 236.46 233.64 227.75 235.27 218.98 235.08 C 208.52 234.90 198.42 231.57 187.97 231.29 C 177.49 230.67 167.18 233.04 156.98 235.07 C 154.08 235.62 151.24 236.46 148.46 237.43 C 140.96 237.04 133.49 238.91 125.97 237.93 C 118.02 236.93 109.80 235.32 103.01 230.83 C 94.64 225.90 87.79 218.90 81.04 212.02 C 77.75 208.43 74.22 205.01 71.50 200.95 C 73.62 201.53 75.80 201.87 77.98 201.45 C 85.73 209.86 93.57 218.33 102.83 225.16 C 110.25 231.07 119.84 234.06 129.28 233.87 C 110.34 225.51 94.21 211.74 81.31 195.68 C 67.38 178.47 56.52 158.84 48.80 138.11 C 41.11 117.04 36.36 94.48 38.08 71.98 Z" />
<path fill="#e40563" opacity="1.00" d=" M 68.29 72.25 C 81.51 71.91 95.86 73.01 106.75 81.33 L 106.94 82.09 C 105.60 83.73 104.09 85.21 102.56 86.66 C 92.60 80.28 80.53 78.36 68.87 79.08 C 68.51 76.82 68.35 74.54 68.29 72.25 Z" />
<path fill="#e40563" opacity="1.00" d=" M 27.43 85.96 C 26.84 82.57 29.09 79.67 31.71 77.84 C 31.30 113.15 43.32 147.67 61.29 177.72 C 61.49 178.17 61.89 179.08 62.09 179.53 C 61.12 179.37 60.15 179.21 59.18 179.05 C 59.16 180.48 59.14 181.91 59.12 183.34 C 56.63 180.85 55.23 177.54 53.39 174.59 C 38.29 147.53 27.98 117.15 27.43 85.96 Z" />
<path fill="#e40563" opacity="1.00" d=" M 156.42 88.56 C 174.29 79.44 195.14 74.87 215.02 79.17 C 217.26 79.59 218.29 82.02 219.18 83.87 C 195.49 81.39 171.65 88.31 151.46 100.51 C 128.55 114.37 109.14 134.20 96.55 157.87 C 94.16 157.38 93.67 154.23 92.50 152.39 C 93.20 151.49 93.89 150.59 94.54 149.65 C 108.47 123.77 130.19 101.94 156.42 88.56 Z" />
<path fill="#e40563" opacity="1.00" d=" M 69.29 85.14 C 79.08 84.54 89.60 85.60 97.96 91.16 C 96.84 92.97 95.42 94.55 93.96 96.08 C 93.50 96.01 92.58 95.88 92.12 95.81 C 85.35 92.42 77.73 91.41 70.23 91.71 C 69.82 89.54 69.49 87.35 69.29 85.14 Z" />
<path fill="#e40563" opacity="1.00" d=" M 140.92 114.93 C 163.65 97.45 192.79 85.80 221.79 90.43 C 224.23 90.55 224.53 93.50 225.29 95.26 C 198.47 93.82 171.90 102.97 149.97 118.09 C 130.94 131.21 114.64 148.56 103.74 169.01 C 101.64 168.19 100.81 165.84 99.72 164.04 C 102.22 160.36 104.13 156.32 106.51 152.56 C 115.62 138.09 127.43 125.39 140.92 114.93 Z" />
<path fill="#e40563" opacity="1.00" d=" M 21.43 93.83 C 21.53 94.34 21.73 95.37 21.83 95.88 C 24.92 130.03 37.80 162.90 56.70 191.36 C 55.45 192.59 54.21 193.83 52.97 195.08 C 34.96 168.82 22.81 138.47 18.28 106.93 C 17.36 102.33 19.74 97.96 21.43 93.83 Z" />
<path fill="#e40563" opacity="1.00" d=" M 71.73 97.85 C 77.60 97.42 83.77 98.30 88.99 101.10 L 89.41 101.80 C 88.21 103.50 86.98 105.19 85.64 106.80 C 81.50 105.53 77.29 104.50 72.95 104.19 C 72.23 102.17 71.54 100.03 71.73 97.85 Z" />
<path fill="#e40563" opacity="1.00" d=" M 175.65 110.65 C 190.82 104.02 207.46 100.37 224.06 101.36 C 225.24 101.63 226.81 101.12 227.71 102.14 C 228.28 103.67 228.64 105.26 229.00 106.85 C 205.08 107.03 181.57 114.72 161.36 127.34 C 141.36 139.77 124.20 156.97 112.42 177.41 C 112.08 177.90 111.39 178.87 111.04 179.36 C 109.63 177.99 108.38 176.45 107.39 174.74 C 122.01 146.46 146.55 123.50 175.65 110.65 Z" />
<path fill="#e40563" opacity="1.00" d=" M 75.05 110.35 C 77.40 110.70 79.73 111.24 81.96 112.07 C 80.74 114.58 79.26 116.95 77.70 119.25 C 76.11 116.60 75.00 113.45 75.05 110.35 Z" />
<path fill="#e40563" opacity="1.00" d=" M 209.08 114.99 C 212.25 114.05 215.56 113.72 218.84 113.44 C 220.13 116.24 220.01 119.42 220.41 122.43 C 222.27 142.80 216.37 163.40 205.52 180.59 C 198.22 192.59 188.92 203.21 179.15 213.25 C 176.22 216.27 172.76 218.81 169.02 220.71 C 168.66 220.59 167.95 220.34 167.59 220.22 C 169.46 217.56 172.04 215.53 174.22 213.14 C 190.03 196.46 203.65 176.67 208.76 153.95 C 211.77 141.17 211.48 127.84 209.08 114.99 Z" />
<path fill="#e40563" opacity="1.00" d=" M 225.27 113.19 C 226.80 113.00 228.35 112.94 229.89 112.99 C 230.89 121.99 229.90 131.11 228.14 139.96 C 227.32 143.48 226.74 147.14 225.11 150.41 C 224.85 147.93 225.44 145.50 225.78 143.07 C 227.26 133.16 226.93 123.04 225.27 113.19 Z" />
<path fill="#e40563" opacity="1.00" d=" M 192.25 119.16 C 195.77 118.07 199.28 116.92 202.90 116.18 C 207.30 134.33 204.57 153.87 196.73 170.72 C 188.44 188.87 175.33 204.37 160.83 217.87 C 159.84 217.59 158.87 217.28 157.91 216.93 C 159.71 213.89 162.66 211.73 164.83 208.96 C 182.46 189.30 195.81 164.03 195.21 137.03 C 194.82 131.04 195.02 124.65 192.25 119.16 Z" />
<path fill="#e40563" opacity="1.00" d=" M 177.27 125.33 C 180.66 123.76 184.07 122.17 187.63 121.01 C 189.50 132.94 190.12 145.28 186.98 157.07 C 181.59 179.08 168.02 198.30 151.81 213.77 C 150.90 213.43 150.01 213.05 149.15 212.61 C 149.77 210.39 151.92 209.04 153.24 207.25 C 166.29 191.89 176.15 173.25 178.80 153.09 C 179.91 143.85 179.75 134.34 177.27 125.33 Z" />
<path fill="#e40563" opacity="1.00" d=" M 162.62 133.96 C 165.34 131.54 168.69 129.99 171.83 128.19 C 175.11 142.16 173.25 157.00 168.36 170.37 C 162.98 184.73 154.38 197.78 143.77 208.81 C 142.86 208.61 142.01 208.25 141.22 207.73 C 141.23 207.36 141.26 206.62 141.28 206.25 C 157.33 186.22 167.21 159.76 162.62 133.96 Z" />
<path fill="#e40563" opacity="1.00" d=" M 16.28 128.95 C 22.62 151.62 31.73 173.65 44.64 193.41 C 45.62 194.88 46.59 196.39 47.12 198.09 C 36.24 187.23 28.06 173.73 22.59 159.40 C 19.07 149.63 16.48 139.36 16.28 128.95 Z" />
<path fill="#e40563" opacity="1.00" d=" M 149.84 142.88 C 152.15 141.10 154.32 139.08 156.99 137.87 C 159.05 149.95 156.84 162.42 152.81 173.88 C 148.90 184.51 143.20 194.50 135.94 203.20 C 134.67 202.89 133.35 202.21 132.89 200.90 C 142.75 184.47 149.25 165.39 147.85 146.02 C 147.48 144.54 148.93 143.70 149.84 142.88 Z" />
<path fill="#e40563" opacity="1.00" d=" M 132.33 160.26 C 134.82 156.29 138.53 153.18 141.89 149.95 C 142.39 164.86 137.75 179.63 130.64 192.62 C 129.66 194.07 129.08 196.05 127.37 196.80 C 126.28 195.81 125.23 194.78 124.23 193.69 C 128.64 183.04 131.37 171.75 132.33 160.26 Z" />
<path fill="#e40563" opacity="1.00" d=" M 115.70 184.09 C 118.34 179.06 121.07 173.88 124.95 169.69 C 124.10 176.29 121.99 182.68 119.68 188.90 C 118.20 187.50 115.94 186.24 115.70 184.09 Z" />
<path fill="#e40563" opacity="1.00" d=" M 60.20 204.82 C 61.38 203.65 62.55 202.48 63.72 201.31 C 71.12 210.69 79.46 219.24 88.24 227.31 C 84.95 226.41 81.95 224.76 78.98 223.14 C 70.85 219.30 65.77 211.52 60.20 204.82 Z" />
</g>
<g id="#0000004c">
<path fill="#000000" opacity="0.30" d=" M 75.81 228.42 C 86.31 234.22 97.66 238.70 109.54 240.67 C 113.98 241.33 118.52 241.83 122.99 241.12 C 131.61 242.20 140.34 240.25 148.46 237.43 C 151.24 236.46 154.08 235.62 156.98 235.07 C 167.18 233.04 177.49 230.67 187.97 231.29 C 198.42 231.57 208.52 234.90 218.98 235.08 C 227.75 235.27 236.46 233.64 244.83 231.12 C 246.38 231.82 246.41 234.11 244.70 234.59 C 233.58 238.07 221.64 239.64 210.08 237.61 C 199.85 235.91 189.53 233.86 179.11 234.84 C 173.03 235.46 166.96 236.39 161.01 237.79 C 147.52 242.25 133.17 243.37 119.03 243.07 C 107.15 242.66 94.99 241.62 83.87 237.12 C 81.58 236.39 79.61 234.02 77.05 234.90 C 58.25 238.64 39.48 242.59 20.65 246.22 L 19.43 245.54 C 21.68 243.43 23.81 241.19 26.01 239.02 C 41.05 236.14 56.04 233.04 71.06 230.12 C 72.74 229.84 74.32 229.23 75.81 228.42 Z" />
</g>
</svg>
