<?xml version="1.0" encoding="UTF-8" ?>
<!DOCTYPE svg PUBLIC "-//W3C//DTD SVG 1.1//EN" "http://www.w3.org/Graphics/SVG/1.1/DTD/svg11.dtd">
<svg width="256pt" height="256pt" viewBox="0 0 256 256" version="1.1" xmlns="http://www.w3.org/2000/svg">
<g id="#ffffffff">
<path fill="#ffffff" opacity="1.00" d=" M 90.50 70.50 C 92.84 70.43 95.17 70.41 97.51 70.44 C 99.44 74.04 104.36 73.33 107.01 70.94 C 109.45 70.02 112.07 70.35 114.60 70.61 C 113.16 74.49 110.32 78.25 106.06 79.14 C 99.63 80.99 92.18 77.09 90.50 70.50 Z" />
<path fill="#ffffff" opacity="1.00" d=" M 137.51 70.58 C 140.10 70.33 142.71 70.29 145.31 70.47 C 147.34 74.13 153.18 73.65 155.05 70.07 C 157.22 70.22 159.39 70.39 161.56 70.59 C 160.24 74.21 157.77 77.78 153.89 78.91 C 147.32 81.12 139.42 77.37 137.51 70.58 Z" />
</g>
<g id="#01684eff">
<path fill="#01684e" opacity="1.00" d=" M 86.25 6.22 C 88.26 2.85 91.73 -0.72 96.06 0.62 C 101.85 2.68 105.38 8.09 109.20 12.56 C 121.08 11.90 132.97 12.10 144.86 12.53 C 148.06 8.56 151.16 4.27 155.63 1.62 C 158.35 -0.07 162.30 -0.13 164.57 2.35 C 169.27 6.91 171.14 13.39 173.71 19.23 C 176.77 26.57 181.88 32.85 184.66 40.33 C 189.52 51.69 187.47 64.81 193.14 75.92 C 194.64 79.57 197.78 82.95 197.32 87.11 C 195.80 90.71 191.94 92.36 188.36 93.11 C 185.57 93.37 182.70 93.79 179.94 93.11 C 178.49 91.30 177.87 89.01 177.16 86.84 C 175.21 80.29 173.42 73.69 171.69 67.08 C 168.65 67.05 165.61 66.98 162.58 67.04 C 160.45 67.11 158.32 67.29 156.27 67.87 C 155.96 68.42 155.36 69.52 155.05 70.07 C 153.18 73.65 147.34 74.13 145.31 70.47 C 143.89 67.64 140.85 67.07 137.95 67.18 C 130.29 66.93 122.62 66.87 114.96 67.13 C 112.78 67.27 110.62 67.51 108.47 67.81 C 108.00 68.86 107.51 69.90 107.01 70.94 C 104.36 73.33 99.44 74.04 97.51 70.44 C 96.26 67.89 93.80 66.78 91.04 66.96 C 88.15 66.93 85.27 67.03 82.39 67.09 C 80.58 73.76 78.96 80.49 77.04 87.13 C 76.24 89.38 75.61 91.99 73.61 93.52 C 70.24 94.01 66.86 93.06 63.56 92.46 C 60.10 91.63 55.66 88.70 56.74 84.59 C 58.37 79.83 61.49 75.73 62.92 70.89 C 66.14 60.54 65.43 49.35 69.27 39.15 C 71.02 33.74 74.49 29.18 77.53 24.45 C 81.22 18.76 82.59 11.93 86.25 6.22 M 161.02 7.66 C 163.74 21.54 172.25 33.44 175.80 47.08 C 178.82 58.87 180.40 71.20 185.74 82.26 C 186.56 84.26 188.13 85.81 190.25 86.39 C 190.10 81.53 187.69 77.22 186.34 72.65 C 183.70 64.60 182.14 56.26 180.06 48.06 C 177.82 38.89 172.24 31.11 168.14 22.73 C 165.41 17.87 163.99 12.39 161.02 7.66 M 85.20 23.07 C 81.84 29.38 77.44 35.20 75.18 42.05 C 71.69 52.99 70.25 64.49 66.25 75.28 C 65.11 78.98 62.78 82.66 63.72 86.67 C 65.16 85.42 66.65 84.13 67.52 82.40 C 72.81 72.37 74.75 61.08 76.77 50.05 C 79.28 35.78 88.47 23.85 91.71 9.81 C 89.25 14.08 87.61 18.76 85.20 23.07 M 115.32 20.37 C 109.33 21.48 103.22 23.47 98.61 27.61 C 95.27 30.65 92.97 35.40 93.99 39.95 C 95.47 44.22 100.36 45.64 104.33 46.56 C 112.12 47.88 120.08 47.66 127.96 47.64 C 135.45 47.27 143.47 47.94 150.30 44.26 C 153.24 42.75 155.62 39.45 154.85 36.02 C 153.56 30.18 148.63 25.97 143.42 23.54 C 134.69 19.53 124.72 18.91 115.32 20.37 M 86.61 60.55 C 90.56 62.19 94.90 62.07 99.09 62.23 C 112.73 62.56 126.37 62.33 140.01 62.21 C 149.19 61.97 158.42 62.17 167.55 61.00 C 165.92 60.01 164.02 59.80 162.16 59.70 C 152.45 59.23 142.74 58.85 133.02 59.00 C 117.55 59.16 101.97 58.42 86.61 60.55 Z" />
</g>
<g id="#459e70ff">
<path fill="#459e70" opacity="1.00" d=" M 161.02 7.66 C 163.99 12.39 165.41 17.87 168.14 22.73 C 172.24 31.11 177.82 38.89 180.06 48.06 C 182.14 56.26 183.70 64.60 186.34 72.65 C 187.69 77.22 190.10 81.53 190.25 86.39 C 188.13 85.81 186.56 84.26 185.74 82.26 C 180.40 71.20 178.82 58.87 175.80 47.08 C 172.25 33.44 163.74 21.54 161.02 7.66 Z" />
<path fill="#459e70" opacity="1.00" d=" M 85.20 23.07 C 87.61 18.76 89.25 14.08 91.71 9.81 C 88.47 23.85 79.28 35.78 76.77 50.05 C 74.75 61.08 72.81 72.37 67.52 82.40 C 66.65 84.13 65.16 85.42 63.72 86.67 C 62.78 82.66 65.11 78.98 66.25 75.28 C 70.25 64.49 71.69 52.99 75.18 42.05 C 77.44 35.20 81.84 29.38 85.20 23.07 Z" />
<path fill="#459e70" opacity="1.00" d=" M 115.32 20.37 C 124.72 18.91 134.69 19.53 143.42 23.54 C 148.63 25.97 153.56 30.18 154.85 36.02 C 155.62 39.45 153.24 42.75 150.30 44.26 C 143.47 47.94 135.45 47.27 127.96 47.64 C 120.08 47.66 112.12 47.88 104.33 46.56 C 100.36 45.64 95.47 44.22 93.99 39.95 C 92.97 35.40 95.27 30.65 98.61 27.61 C 103.22 23.47 109.33 21.48 115.32 20.37 Z" />
<path fill="#459e70" opacity="1.00" d=" M 86.61 60.55 C 101.97 58.42 117.55 59.16 133.02 59.00 C 142.74 58.85 152.45 59.23 162.16 59.70 C 164.02 59.80 165.92 60.01 167.55 61.00 C 158.42 62.17 149.19 61.97 140.01 62.21 C 126.37 62.33 112.73 62.56 99.09 62.23 C 94.90 62.07 90.56 62.19 86.61 60.55 Z" />
</g>
<g id="#44546aff">
<path fill="#44546a" opacity="1.00" d=" M 82.39 67.09 C 85.27 67.03 88.15 66.93 91.04 66.96 C 90.77 67.53 90.25 68.67 89.98 69.24 C 90.11 69.55 90.37 70.18 90.50 70.50 C 92.18 77.09 99.63 80.99 106.06 79.14 C 110.32 78.25 113.16 74.49 114.60 70.61 C 114.76 69.45 114.85 68.29 114.96 67.13 C 122.62 66.87 130.29 66.93 137.95 67.18 C 137.70 67.69 137.19 68.71 136.94 69.22 C 137.08 69.56 137.37 70.24 137.51 70.58 C 139.42 77.37 147.32 81.12 153.89 78.91 C 157.77 77.78 160.24 74.21 161.56 70.59 C 161.94 69.42 162.25 68.22 162.58 67.04 C 165.61 66.98 168.65 67.05 171.69 67.08 C 173.42 73.69 175.21 80.29 177.16 86.84 C 177.87 89.01 178.49 91.30 179.94 93.11 C 182.70 93.79 185.57 93.37 188.36 93.11 C 187.21 93.64 184.63 94.02 185.61 95.91 C 186.77 100.91 188.82 105.64 190.51 110.48 C 188.14 110.74 185.75 110.62 183.45 109.98 C 179.92 99.85 176.65 89.62 173.82 79.27 C 173.23 77.60 172.93 75.70 171.70 74.36 C 167.01 72.70 163.63 76.84 160.69 79.73 C 156.69 83.90 150.26 85.13 144.88 83.20 C 140.24 81.95 137.24 78.10 133.87 75.00 C 130.19 73.33 125.85 73.93 121.91 74.13 C 118.01 74.26 115.90 77.96 113.18 80.20 C 107.63 85.56 98.33 85.07 92.47 80.46 C 89.81 78.56 87.94 75.55 84.89 74.22 C 82.52 73.51 81.86 76.52 81.16 78.14 C 78.00 88.42 74.95 98.75 71.59 108.98 C 71.42 109.50 71.07 110.54 70.90 111.07 C 64.61 110.57 58.29 110.37 51.99 110.83 C 50.06 110.81 47.63 111.45 46.21 109.72 C 38.72 101.65 30.45 94.33 23.06 86.16 C 29.80 92.70 36.48 99.30 43.09 105.96 C 44.65 107.45 45.97 109.32 48.00 110.19 C 53.43 110.82 58.91 110.20 64.33 109.72 C 66.02 104.73 68.35 99.92 69.33 94.72 C 67.68 93.40 65.51 93.11 63.56 92.46 C 66.86 93.06 70.24 94.01 73.61 93.52 C 75.61 91.99 76.24 89.38 77.04 87.13 C 78.96 80.49 80.58 73.76 82.39 67.09 Z" />
<path fill="#44546a" opacity="1.00" d=" M 119.43 80.55 C 124.21 79.59 129.24 79.56 134.06 80.32 C 136.40 80.54 136.20 83.27 135.82 85.00 C 133.77 89.90 126.98 92.79 122.36 89.63 C 120.25 88.16 118.16 86.28 117.29 83.79 C 116.60 82.22 118.09 81.00 119.43 80.55 Z" />
<path fill="#44546a" opacity="1.00" d=" M 139.51 85.87 C 144.53 86.45 149.45 87.85 154.06 89.91 C 155.53 90.33 155.87 91.87 156.47 93.07 C 151.45 92.58 146.52 91.22 141.94 89.12 C 140.46 88.66 140.13 87.08 139.51 85.87 Z" />
<path fill="#44546a" opacity="1.00" d=" M 97.90 91.05 C 103.31 88.22 109.42 85.95 115.61 86.67 C 111.16 90.81 104.65 91.55 99.01 93.24 C 98.74 92.70 98.18 91.60 97.90 91.05 Z" />
<path fill="#44546a" opacity="1.00" d=" M 105.69 95.75 C 109.41 93.67 113.11 91.17 117.49 90.79 C 116.57 92.67 115.06 94.15 113.24 95.17 C 108.93 97.70 104.60 100.57 99.53 101.24 C 100.54 98.44 103.31 97.16 105.69 95.75 Z" />
<path fill="#44546a" opacity="1.00" d=" M 137.92 91.32 C 143.00 92.49 147.70 94.98 152.03 97.83 C 153.33 98.56 153.77 100.01 154.38 101.27 C 148.93 100.28 144.13 97.28 139.56 94.31 C 138.80 93.57 136.83 92.59 137.92 91.32 Z" />
<path fill="#44546a" opacity="1.00" d=" M 107.39 152.53 C 109.53 151.96 111.78 152.06 113.99 152.00 C 124.66 152.03 135.33 151.94 146.01 152.04 C 148.60 152.05 151.70 152.46 153.15 154.92 C 155.22 158.74 154.07 165.23 148.95 165.71 C 136.98 166.37 124.94 165.83 112.95 165.99 C 110.09 165.86 106.25 166.36 104.61 163.39 C 102.60 159.92 103.10 153.99 107.39 152.53 Z" />
</g>
<g id="#a8aaa5ff">
<path fill="#a8aaa5" opacity="1.00" d=" M 91.04 66.96 C 93.80 66.78 96.26 67.89 97.51 70.44 C 95.17 70.41 92.84 70.43 90.50 70.50 C 90.37 70.18 90.11 69.55 89.98 69.24 C 90.25 68.67 90.77 67.53 91.04 66.96 Z" />
</g>
<g id="#b2b1aeff">
<path fill="#b2b1ae" opacity="1.00" d=" M 108.47 67.81 C 110.62 67.51 112.78 67.27 114.96 67.13 C 114.85 68.29 114.76 69.45 114.60 70.61 C 112.07 70.35 109.45 70.02 107.01 70.94 C 107.51 69.90 108.00 68.86 108.47 67.81 Z" />
<path fill="#b2b1ae" opacity="1.00" d=" M 137.95 67.18 C 140.85 67.07 143.89 67.64 145.31 70.47 C 142.71 70.29 140.10 70.33 137.51 70.58 C 137.37 70.24 137.08 69.56 136.94 69.22 C 137.19 68.71 137.70 67.69 137.95 67.18 Z" />
<path fill="#b2b1ae" opacity="1.00" d=" M 10.61 84.46 C 13.13 84.77 15.05 86.49 16.83 88.14 C 24.92 95.74 33.06 103.29 40.84 111.20 C 42.15 112.47 43.39 113.88 44.98 114.83 C 48.31 115.23 51.68 114.95 55.02 115.00 C 106.02 115.01 157.02 114.98 208.02 115.01 C 209.38 114.88 211.02 115.16 212.02 114.00 C 221.34 104.98 230.25 95.52 240.09 87.06 C 241.39 85.85 243.10 85.32 244.75 84.81 C 238.41 93.92 229.84 101.17 222.21 109.16 C 218.92 112.20 216.18 115.85 212.56 118.51 C 208.15 119.62 203.48 118.81 198.96 119.00 C 149.64 119.10 100.31 118.75 50.99 118.96 C 47.68 118.83 43.64 119.69 41.25 116.77 C 33.02 108.65 24.52 100.81 16.37 92.61 C 13.97 90.27 12.08 87.46 10.61 84.46 Z" />
<path fill="#b2b1ae" opacity="1.00" d=" M 31.11 124.88 C 35.20 127.60 33.67 132.83 33.91 136.96 C 33.94 170.96 33.69 204.97 33.97 238.97 C 33.49 243.27 37.04 246.57 40.39 248.61 C 45.51 249.69 50.82 249.13 56.02 249.38 C 97.35 249.69 138.69 249.49 180.02 249.55 C 191.03 249.41 202.07 249.92 213.03 248.64 C 215.98 248.34 219.43 247.93 221.23 245.26 C 223.90 241.25 223.71 236.16 223.92 231.54 C 231.03 233.02 238.37 234.05 245.05 237.05 C 246.83 238.03 249.58 239.31 248.98 241.81 C 247.37 244.10 244.63 245.15 242.10 246.08 C 235.74 248.18 229.12 249.35 222.52 250.42 C 197.35 254.18 171.88 255.05 146.48 256.00 L 111.39 256.00 C 84.40 255.05 57.28 254.08 30.61 249.47 C 24.29 248.19 17.73 247.19 11.99 244.13 C 10.71 243.21 8.57 242.19 9.16 240.28 C 10.79 238.00 13.52 236.92 16.05 235.97 C 21.57 234.04 27.33 232.96 33.05 231.80 C 33.07 199.53 33.08 167.26 33.17 134.99 C 33.09 131.55 33.75 127.58 31.11 124.88 Z" />
<path fill="#b2b1ae" opacity="1.00" d=" M 103.76 148.59 C 118.52 148.40 133.29 147.86 148.06 148.38 C 151.04 148.56 154.61 148.90 156.39 151.65 C 158.33 155.07 158.14 159.25 157.73 163.03 C 157.40 165.96 155.01 167.96 153.15 170.00 C 138.46 169.88 123.76 170.32 109.08 169.62 C 106.13 169.23 102.28 169.47 100.44 166.65 C 99.17 163.60 99.17 160.19 99.17 156.93 C 98.98 153.47 101.78 151.05 103.76 148.59 M 107.39 152.53 C 103.10 153.99 102.60 159.92 104.61 163.39 C 106.25 166.36 110.09 165.86 112.95 165.99 C 124.94 165.83 136.98 166.37 148.95 165.71 C 154.07 165.23 155.22 158.74 153.15 154.92 C 151.70 152.46 148.60 152.05 146.01 152.04 C 135.33 151.94 124.66 152.03 113.99 152.00 C 111.78 152.06 109.53 151.96 107.39 152.53 Z" />
</g>
<g id="#abadaaff">
<path fill="#abadaa" opacity="1.00" d=" M 156.27 67.87 C 158.32 67.29 160.45 67.11 162.58 67.04 C 162.25 68.22 161.94 69.42 161.56 70.59 C 159.39 70.39 157.22 70.22 155.05 70.07 C 155.36 69.52 155.96 68.42 156.27 67.87 Z" />
</g>
<g id="#6e85a1ff">
<path fill="#6e85a1" opacity="1.00" d=" M 81.16 78.14 C 81.86 76.52 82.52 73.51 84.89 74.22 C 87.94 75.55 89.81 78.56 92.47 80.46 C 98.33 85.07 107.63 85.56 113.18 80.20 C 115.90 77.96 118.01 74.26 121.91 74.13 C 125.85 73.93 130.19 73.33 133.87 75.00 C 137.24 78.10 140.24 81.95 144.88 83.20 C 150.26 85.13 156.69 83.90 160.69 79.73 C 163.63 76.84 167.01 72.70 171.70 74.36 C 172.93 75.70 173.23 77.60 173.82 79.27 C 176.65 89.62 179.92 99.85 183.45 109.98 C 172.33 110.92 161.15 110.77 150.00 111.00 C 123.85 110.96 97.69 111.09 71.55 110.35 L 71.59 108.98 C 74.95 98.75 78.00 88.42 81.16 78.14 M 119.43 80.55 C 118.09 81.00 116.60 82.22 117.29 83.79 C 118.16 86.28 120.25 88.16 122.36 89.63 C 126.98 92.79 133.77 89.90 135.82 85.00 C 136.20 83.27 136.40 80.54 134.06 80.32 C 129.24 79.56 124.21 79.59 119.43 80.55 M 139.51 85.87 C 140.13 87.08 140.46 88.66 141.94 89.12 C 146.52 91.22 151.45 92.58 156.47 93.07 C 155.87 91.87 155.53 90.33 154.06 89.91 C 149.45 87.85 144.53 86.45 139.51 85.87 M 97.90 91.05 C 98.18 91.60 98.74 92.70 99.01 93.24 C 104.65 91.55 111.16 90.81 115.61 86.67 C 109.42 85.95 103.31 88.22 97.90 91.05 M 105.69 95.75 C 103.31 97.16 100.54 98.44 99.53 101.24 C 104.60 100.57 108.93 97.70 113.24 95.17 C 115.06 94.15 116.57 92.67 117.49 90.79 C 113.11 91.17 109.41 93.67 105.69 95.75 M 137.92 91.32 C 136.83 92.59 138.80 93.57 139.56 94.31 C 144.13 97.28 148.93 100.28 154.38 101.27 C 153.77 100.01 153.33 98.56 152.03 97.83 C 147.70 94.98 143.00 92.49 137.92 91.32 Z" />
</g>
<g id="#865c34ff">
<path fill="#865c34" opacity="1.00" d=" M 1.83 95.10 C -3.04 88.68 3.39 80.40 9.96 78.65 C 15.61 77.50 19.41 82.79 23.06 86.16 C 30.45 94.33 38.72 101.65 46.21 109.72 C 47.63 111.45 50.06 110.81 51.99 110.83 C 58.29 110.37 64.61 110.57 70.90 111.07 C 71.07 110.54 71.42 109.50 71.59 108.98 L 71.55 110.35 C 97.69 111.09 123.85 110.96 150.00 111.00 C 161.15 110.77 172.33 110.92 183.45 109.98 C 185.75 110.62 188.14 110.74 190.51 110.48 C 196.45 110.26 202.39 110.69 208.33 110.54 C 217.52 101.34 226.73 92.15 236.00 83.04 C 238.80 80.24 242.69 77.33 246.87 78.88 C 252.20 81.04 257.41 86.84 255.36 92.97 C 253.90 96.11 251.12 98.32 248.82 100.81 C 240.66 109.33 232.23 117.59 224.00 126.04 C 223.97 161.21 224.07 196.37 223.92 231.54 C 223.71 236.16 223.90 241.25 221.23 245.26 C 219.43 247.93 215.98 248.34 213.03 248.64 C 202.07 249.92 191.03 249.41 180.02 249.55 C 138.69 249.49 97.35 249.69 56.02 249.38 C 50.82 249.13 45.51 249.69 40.39 248.61 C 37.04 246.57 33.49 243.27 33.97 238.97 C 33.69 204.97 33.94 170.96 33.91 136.96 C 33.67 132.83 35.20 127.60 31.11 124.88 C 21.17 115.15 11.12 105.47 1.83 95.10 M 6.11 89.29 C 6.33 90.65 7.37 91.67 8.18 92.73 C 17.42 103.16 27.48 112.83 37.34 122.67 C 38.64 123.73 39.11 125.32 39.01 126.97 C 39.01 164.31 38.96 201.65 39.03 238.99 C 40.68 240.67 42.35 242.34 44.03 243.99 C 96.35 243.88 148.68 244.30 201.00 243.70 C 205.78 243.42 210.76 243.94 215.35 242.38 C 217.82 240.45 217.21 236.77 217.57 234.00 C 218.40 197.09 217.76 160.16 218.07 123.24 C 228.05 113.17 238.39 103.43 247.78 92.79 C 248.61 91.70 249.68 90.66 249.90 89.24 C 249.00 86.99 246.75 85.89 244.75 84.81 C 243.10 85.32 241.39 85.85 240.09 87.06 C 230.25 95.52 221.34 104.98 212.02 114.00 C 211.02 115.16 209.38 114.88 208.02 115.01 C 157.02 114.98 106.02 115.01 55.02 115.00 C 51.68 114.95 48.31 115.23 44.98 114.83 C 43.39 113.88 42.15 112.47 40.84 111.20 C 33.06 103.29 24.92 95.74 16.83 88.14 C 15.05 86.49 13.13 84.77 10.61 84.46 C 9.06 86.01 7.31 87.42 6.11 89.29 Z" />
</g>
<g id="#ae8d59ff">
<path fill="#ae8d59" opacity="1.00" d=" M 6.11 89.29 C 7.31 87.42 9.06 86.01 10.61 84.46 C 12.08 87.46 13.97 90.27 16.37 92.61 C 24.52 100.81 33.02 108.65 41.25 116.77 C 43.64 119.69 47.68 118.83 50.99 118.96 C 100.31 118.75 149.64 119.10 198.96 119.00 C 203.48 118.81 208.15 119.62 212.56 118.51 C 216.18 115.85 218.92 112.20 222.21 109.16 C 229.84 101.17 238.41 93.92 244.75 84.81 C 246.75 85.89 249.00 86.99 249.90 89.24 C 249.68 90.66 248.61 91.70 247.78 92.79 C 238.39 103.43 228.05 113.17 218.07 123.24 C 217.76 160.16 218.40 197.09 217.57 234.00 C 217.21 236.77 217.82 240.45 215.35 242.38 C 210.76 243.94 205.78 243.42 201.00 243.70 C 148.68 244.30 96.35 243.88 44.03 243.99 C 42.35 242.34 40.68 240.67 39.03 238.99 C 38.96 201.65 39.01 164.31 39.01 126.97 C 39.11 125.32 38.64 123.73 37.34 122.67 C 27.48 112.83 17.42 103.16 8.18 92.73 C 7.37 91.67 6.33 90.65 6.11 89.29 M 103.76 148.59 C 101.78 151.05 98.98 153.47 99.17 156.93 C 99.17 160.19 99.17 163.60 100.44 166.65 C 102.28 169.47 106.13 169.23 109.08 169.62 C 123.76 170.32 138.46 169.88 153.15 170.00 C 155.01 167.96 157.40 165.96 157.73 163.03 C 158.14 159.25 158.33 155.07 156.39 151.65 C 154.61 148.90 151.04 148.56 148.06 148.38 C 133.29 147.86 118.52 148.40 103.76 148.59 Z" />
</g>
</svg>
