<?xml version="1.0" encoding="UTF-8" ?>
<!DOCTYPE svg PUBLIC "-//W3C//DTD SVG 1.1//EN" "http://www.w3.org/Graphics/SVG/1.1/DTD/svg11.dtd">
<svg width="256pt" height="256pt" viewBox="0 0 256 256" version="1.1" xmlns="http://www.w3.org/2000/svg">
<g id="#4c5d6eff">
<path fill="#4c5d6e" opacity="1.00" d=" M 38.94 19.98 C 42.03 17.39 46.41 17.86 49.98 19.05 C 57.26 21.54 63.64 26.06 69.48 30.98 C 82.88 25.51 99.13 24.08 112.00 31.72 C 118.38 26.13 125.64 21.24 133.86 18.89 C 137.36 17.87 141.70 17.67 144.37 20.59 C 148.27 24.66 148.30 30.77 147.97 36.04 C 146.99 45.15 146.64 54.38 144.38 63.31 C 148.77 69.62 152.49 76.54 158.13 81.87 C 162.07 85.77 166.73 88.86 171.73 91.21 C 188.79 99.72 206.67 106.81 222.62 117.39 C 232.72 124.06 241.92 132.57 247.71 143.34 C 253.36 153.89 255.95 166.14 254.73 178.07 C 253.13 194.53 245.81 210.48 233.98 222.10 C 226.54 229.29 217.41 234.82 207.41 237.60 C 194.60 241.11 181.02 243.52 167.78 241.14 C 162.87 240.42 158.85 237.38 155.17 234.26 C 149.81 234.59 144.44 234.99 139.07 234.95 C 135.55 235.01 131.69 234.46 128.66 236.68 C 121.43 241.13 112.17 243.00 104.06 239.97 C 101.57 239.22 100.77 236.58 99.69 234.53 C 97.78 234.42 95.87 234.32 93.96 234.23 C 90.93 239.33 84.38 239.71 79.08 239.36 C 67.47 238.21 58.04 230.19 50.65 221.73 C 38.69 207.96 31.84 190.47 28.28 172.76 C 23.73 150.12 23.04 126.69 26.43 103.85 C 28.20 92.67 30.73 81.52 35.14 71.07 C 36.36 67.89 38.85 64.75 37.82 61.17 C 35.85 51.90 35.34 42.41 34.83 32.98 C 34.67 28.42 35.05 23.03 38.94 19.98 M 40.82 30.01 C 40.76 38.42 41.74 46.82 42.78 55.15 C 43.22 59.58 44.82 64.37 42.56 68.58 C 36.63 81.71 33.40 95.90 31.64 110.15 C 29.14 131.74 30.18 153.77 34.91 175.00 C 38.43 191.55 45.43 207.85 57.37 220.07 C 60.32 222.98 63.44 225.75 66.84 228.14 C 72.84 232.34 80.58 234.43 87.77 232.41 C 87.77 225.25 82.29 219.87 79.09 213.90 C 76.16 208.15 72.69 202.49 71.79 195.97 C 73.20 196.14 74.62 196.35 76.02 196.60 C 79.70 207.80 86.99 217.25 92.09 227.78 C 95.67 228.18 99.27 228.43 102.87 228.48 C 106.68 220.33 113.24 213.79 116.77 205.50 C 119.20 202.73 120.30 199.15 121.93 195.91 C 122.95 196.77 123.77 197.78 124.38 198.96 C 123.32 204.74 119.36 209.32 116.93 214.52 C 112.74 220.71 107.38 226.63 106.15 234.25 C 117.79 237.84 128.86 230.30 136.74 222.45 L 137.12 222.45 C 142.30 216.99 146.86 210.86 149.90 203.95 C 150.73 201.69 152.57 200.12 154.51 198.81 C 154.68 200.58 155.09 202.43 154.24 204.10 C 150.33 213.71 143.62 221.86 136.22 229.00 C 142.08 228.94 147.93 228.69 153.79 228.45 C 153.95 225.08 153.47 221.34 155.44 218.37 C 157.85 214.60 162.16 212.64 166.33 211.50 C 174.07 209.48 182.14 209.60 190.08 209.56 C 199.95 209.54 209.70 206.40 218.00 201.13 C 227.28 195.18 235.53 186.30 237.60 175.14 C 238.23 175.13 239.50 175.12 240.13 175.11 C 241.60 180.15 238.73 184.96 236.17 189.09 C 224.69 206.16 203.40 215.40 183.07 213.46 C 176.96 212.77 170.65 213.48 164.95 215.83 C 162.32 216.97 159.60 218.64 158.46 221.41 C 157.08 225.74 159.20 230.67 163.18 232.82 C 170.51 236.93 179.31 236.41 187.42 236.10 C 197.02 233.92 207.03 232.62 215.82 227.87 C 235.67 217.75 248.17 195.98 249.00 173.98 C 249.51 165.36 247.00 156.94 244.23 148.88 C 241.98 142.39 236.91 137.61 232.28 132.78 C 227.53 127.95 221.97 124.03 216.27 120.43 C 214.41 128.05 211.75 135.64 207.04 141.99 C 204.69 145.30 201.20 147.92 197.02 148.08 C 197.02 145.53 197.21 142.93 198.46 140.66 C 202.30 132.77 207.67 125.06 207.70 115.94 C 205.73 113.86 202.87 113.01 200.37 111.76 C 198.33 121.07 194.97 130.39 188.84 137.83 C 186.40 140.54 183.09 143.64 179.13 142.86 C 177.79 141.20 178.90 139.02 179.37 137.25 C 183.54 127.31 190.58 118.22 190.86 107.00 C 188.62 105.95 186.39 104.90 184.15 103.86 C 182.03 112.47 179.04 121.29 172.94 127.93 C 170.73 130.14 167.26 132.84 164.19 130.54 C 166.95 119.87 175.41 111.21 175.59 99.77 C 169.83 96.85 163.77 94.35 158.68 90.28 C 151.22 84.38 145.26 76.80 140.24 68.77 C 138.30 65.92 139.01 62.32 139.05 59.09 C 139.64 55.89 140.00 52.65 140.23 49.40 C 141.44 42.98 142.01 36.41 141.89 29.87 C 141.92 27.16 140.46 23.11 136.97 24.18 C 129.45 25.86 122.95 30.60 117.19 35.55 C 119.17 38.61 123.20 39.92 125.39 42.98 C 123.36 43.30 121.02 44.32 119.29 42.65 C 111.90 37.19 103.26 32.95 93.94 32.49 C 85.33 32.15 76.59 33.97 68.90 37.89 C 65.78 39.42 63.11 41.73 59.99 43.26 C 58.38 43.32 57.57 42.55 57.55 40.97 C 59.59 38.53 62.47 37.06 65.11 35.37 C 59.64 30.41 53.26 25.98 46.00 24.21 C 42.39 22.97 40.69 27.14 40.82 30.01 Z" />
<path fill="#4c5d6e" opacity="1.00" d=" M 51.41 75.50 C 56.54 73.24 62.39 74.67 67.32 76.77 C 70.95 78.45 74.83 80.62 76.55 84.41 C 77.64 86.87 73.88 88.94 72.45 86.61 C 68.57 82.22 62.87 79.51 57.02 79.39 C 54.44 79.36 51.45 81.95 49.22 79.78 C 48.38 77.88 49.64 76.15 51.41 75.50 Z" />
<path fill="#4c5d6e" opacity="1.00" d=" M 113.28 75.39 C 118.06 74.18 123.98 73.64 127.98 77.08 C 129.39 78.35 128.50 80.40 127.00 81.12 C 124.01 80.61 121.11 79.14 118.02 79.57 C 114.74 79.96 111.52 80.99 108.67 82.67 C 106.39 83.96 105.10 86.44 102.91 87.83 C 100.95 88.34 99.29 85.93 100.31 84.22 C 102.72 79.26 108.29 76.91 113.28 75.39 Z" />
<path fill="#4c5d6e" opacity="1.00" d=" M 75.47 94.62 C 80.43 91.54 86.51 91.69 92.12 92.10 C 95.19 92.27 98.19 93.17 100.81 94.79 C 99.46 97.10 98.51 99.73 96.55 101.62 C 94.86 103.03 92.79 103.87 90.86 104.88 C 91.63 107.80 92.73 111.27 96.08 112.06 C 100.61 113.94 104.58 110.48 108.65 109.14 C 109.23 109.28 110.39 109.56 110.97 109.69 C 109.60 114.35 104.23 116.09 99.90 116.53 C 95.73 117.01 92.05 114.74 89.06 112.11 C 85.18 116.05 79.27 117.79 74.01 115.68 C 71.12 114.56 66.75 112.69 67.91 108.79 C 72.63 109.79 76.92 113.93 81.95 112.10 C 85.28 111.37 86.40 107.92 87.44 105.12 C 85.05 104.08 82.51 103.24 80.47 101.58 C 78.25 99.70 76.95 97.05 75.47 94.62 M 81.92 96.89 C 85.81 99.30 90.70 98.68 94.69 96.86 C 92.72 94.00 88.98 93.94 85.88 94.31 C 84.29 94.56 82.17 94.96 81.92 96.89 Z" />
</g>
<g id="#85919eff">
<path fill="#85919e" opacity="1.00" d=" M 40.82 30.01 C 40.69 27.14 42.39 22.97 46.00 24.21 C 53.26 25.98 59.64 30.41 65.11 35.37 C 62.47 37.06 59.59 38.53 57.55 40.97 C 57.57 42.55 58.38 43.32 59.99 43.26 C 63.11 41.73 65.78 39.42 68.90 37.89 C 76.59 33.97 85.33 32.15 93.94 32.49 C 103.26 32.95 111.90 37.19 119.29 42.65 C 121.02 44.32 123.36 43.30 125.39 42.98 C 123.20 39.92 119.17 38.61 117.19 35.55 C 122.95 30.60 129.45 25.86 136.97 24.18 C 140.46 23.11 141.92 27.16 141.89 29.87 C 142.01 36.41 141.44 42.98 140.23 49.40 C 140.12 42.60 140.31 35.75 139.35 28.99 C 135.16 33.00 131.45 37.51 128.37 42.43 C 127.24 44.28 125.99 46.60 127.36 48.69 C 129.88 53.47 133.08 57.91 136.51 62.09 C 137.73 61.49 138.34 60.19 139.05 59.09 C 139.01 62.32 138.30 65.92 140.24 68.77 C 145.26 76.80 151.22 84.38 158.68 90.28 C 163.77 94.35 169.83 96.85 175.59 99.77 C 175.41 111.21 166.95 119.87 164.19 130.54 C 167.26 132.84 170.73 130.14 172.94 127.93 C 179.04 121.29 182.03 112.47 184.15 103.86 C 186.39 104.90 188.62 105.95 190.86 107.00 C 190.58 118.22 183.54 127.31 179.37 137.25 C 178.90 139.02 177.79 141.20 179.13 142.86 C 183.09 143.64 186.40 140.54 188.84 137.83 C 194.97 130.39 198.33 121.07 200.37 111.76 C 202.87 113.01 205.73 113.86 207.70 115.94 C 207.67 125.06 202.30 132.77 198.46 140.66 C 197.21 142.93 197.02 145.53 197.02 148.08 C 201.20 147.92 204.69 145.30 207.04 141.99 C 211.75 135.64 214.41 128.05 216.27 120.43 C 221.97 124.03 227.53 127.95 232.28 132.78 C 236.91 137.61 241.98 142.39 244.23 148.88 C 247.00 156.94 249.51 165.36 249.00 173.98 C 248.17 195.98 235.67 217.75 215.82 227.87 C 207.03 232.62 197.02 233.92 187.42 236.10 C 183.85 233.92 179.68 231.48 178.84 227.00 C 177.33 222.04 179.39 216.88 183.07 213.46 C 203.40 215.40 224.69 206.16 236.17 189.09 C 238.73 184.96 241.60 180.15 240.13 175.11 C 239.50 175.12 238.23 175.13 237.60 175.14 C 235.53 186.30 227.28 195.18 218.00 201.13 C 209.70 206.40 199.95 209.54 190.08 209.56 C 182.14 209.60 174.07 209.48 166.33 211.50 C 162.16 212.64 157.85 214.60 155.44 218.37 C 153.47 221.34 153.95 225.08 153.79 228.45 C 147.93 228.69 142.08 228.94 136.22 229.00 C 143.62 221.86 150.33 213.71 154.24 204.10 C 155.09 202.43 154.68 200.58 154.51 198.81 C 152.57 200.12 150.73 201.69 149.90 203.95 C 146.86 210.86 142.30 216.99 137.12 222.45 L 136.74 222.45 C 131.59 222.36 125.99 223.36 121.28 220.72 C 118.92 219.47 117.94 216.82 116.93 214.52 C 119.36 209.32 123.32 204.74 124.38 198.96 C 123.77 197.78 122.95 196.77 121.93 195.91 C 120.30 199.15 119.20 202.73 116.77 205.50 C 118.62 198.72 121.27 192.07 121.70 184.99 C 122.38 174.37 122.19 163.21 117.66 153.37 C 113.94 145.53 106.82 138.61 97.91 137.52 C 90.67 136.68 82.44 137.71 76.97 142.96 C 72.28 148.14 70.25 155.22 69.67 162.06 C 68.67 173.92 71.76 185.64 76.02 196.60 C 74.62 196.35 73.20 196.14 71.79 195.97 C 72.69 202.49 76.16 208.15 79.09 213.90 C 77.08 215.98 75.13 218.29 72.39 219.43 C 67.67 221.54 62.31 220.95 57.37 220.07 C 45.43 207.85 38.43 191.55 34.91 175.00 C 30.18 153.77 29.14 131.74 31.64 110.15 C 33.40 95.90 36.63 81.71 42.56 68.58 C 44.82 64.37 43.22 59.58 42.78 55.15 C 41.74 46.82 40.76 38.42 40.82 30.01 M 44.09 28.90 C 42.78 36.21 43.38 43.66 43.92 51.01 C 44.35 55.01 44.36 59.31 46.63 62.80 C 49.36 58.84 52.25 54.99 54.86 50.96 C 55.87 49.11 57.51 46.84 56.26 44.72 C 53.15 38.82 48.76 33.64 44.09 28.90 M 67.05 57.63 C 70.92 60.71 72.89 65.16 74.97 69.48 C 75.43 69.30 76.35 68.93 76.81 68.74 C 76.62 64.03 73.87 59.50 70.10 56.75 C 69.01 55.81 67.93 57.08 67.05 57.63 M 107.31 56.33 C 102.84 59.10 100.14 64.23 99.82 69.42 C 102.99 69.80 103.10 66.24 104.32 64.24 C 105.39 61.40 108.59 59.83 109.25 56.87 C 108.76 56.73 107.79 56.46 107.31 56.33 M 62.63 58.76 C 63.63 62.55 66.62 65.33 68.51 68.68 C 69.34 68.34 70.16 67.97 70.99 67.63 C 69.24 63.95 67.34 59.16 62.63 58.76 M 111.39 59.44 C 108.74 61.43 106.74 64.42 106.17 67.71 C 106.86 68.15 107.57 68.57 108.29 68.97 C 109.64 65.95 111.77 63.43 113.70 60.79 C 114.73 59.06 112.48 58.55 111.39 59.44 M 51.41 75.50 C 49.64 76.15 48.38 77.88 49.22 79.78 C 51.45 81.95 54.44 79.36 57.02 79.39 C 62.87 79.51 68.57 82.22 72.45 86.61 C 73.88 88.94 77.64 86.87 76.55 84.41 C 74.83 80.62 70.95 78.45 67.32 76.77 C 62.39 74.67 56.54 73.24 51.41 75.50 M 113.28 75.39 C 108.29 76.91 102.72 79.26 100.31 84.22 C 99.29 85.93 100.95 88.34 102.91 87.83 C 105.10 86.44 106.39 83.96 108.67 82.67 C 111.52 80.99 114.74 79.96 118.02 79.57 C 121.11 79.14 124.01 80.61 127.00 81.12 C 128.50 80.40 129.39 78.35 127.98 77.08 C 123.98 73.64 118.06 74.18 113.28 75.39 M 46.83 92.83 C 44.53 92.57 44.84 96.05 46.97 95.59 C 53.97 94.82 61.03 95.86 67.54 98.56 C 67.17 99.44 66.78 100.32 66.39 101.19 C 59.06 99.51 50.62 98.89 44.03 103.17 C 44.10 103.58 44.25 104.41 44.32 104.82 L 45.01 105.20 C 50.17 103.59 55.45 102.44 60.89 103.14 C 62.42 103.52 63.95 103.88 65.48 104.26 C 66.26 105.69 66.14 108.19 67.91 108.79 C 66.75 112.69 71.12 114.56 74.01 115.68 C 79.27 117.79 85.18 116.05 89.06 112.11 C 92.05 114.74 95.73 117.01 99.90 116.53 C 104.23 116.09 109.60 114.35 110.97 109.69 C 111.57 108.22 112.39 106.79 112.63 105.20 C 120.14 103.98 127.96 103.92 135.03 107.09 C 135.30 106.22 135.56 105.35 135.82 104.48 C 128.61 100.70 120.20 100.82 112.42 102.46 C 112.02 101.32 111.32 100.32 110.52 99.44 C 117.86 96.12 125.97 95.32 133.93 95.91 C 135.86 96.25 134.67 92.82 133.09 93.18 C 124.71 91.81 115.93 93.57 108.35 97.30 C 106.34 95.64 103.21 94.32 100.81 94.79 C 98.19 93.17 95.19 92.27 92.12 92.10 C 86.51 91.69 80.43 91.54 75.47 94.62 C 73.58 95.26 71.68 95.87 69.77 96.44 C 62.71 93.12 54.56 91.36 46.83 92.83 Z" />
<path fill="#85919e" opacity="1.00" d=" M 12.37 52.36 C 13.65 51.09 15.98 51.70 16.47 53.42 C 17.66 56.33 16.53 59.48 14.79 61.89 C 12.85 64.58 13.27 68.49 10.58 70.68 C 9.13 72.19 6.26 73.17 5.04 70.86 C 3.99 68.14 7.80 67.40 8.11 64.99 C 8.81 62.57 9.79 60.25 11.14 58.12 C 12.37 56.42 11.22 54.05 12.37 52.36 Z" />
<path fill="#85919e" opacity="1.00" d=" M 23.10 52.97 C 23.75 51.17 26.46 50.67 27.51 52.38 C 28.78 55.20 29.13 58.51 28.27 61.50 C 27.49 64.00 24.79 65.18 23.66 67.47 C 22.58 70.59 23.22 74.32 21.05 77.05 C 19.48 78.90 17.39 80.45 15.00 81.03 C 13.14 81.50 11.57 78.99 12.54 77.41 C 14.01 75.97 16.13 75.24 17.34 73.55 C 18.27 70.63 17.93 67.35 19.49 64.62 C 20.42 62.74 22.12 61.42 23.65 60.06 C 23.66 57.68 23.25 55.33 23.10 52.97 Z" />
<path fill="#85919e" opacity="1.00" d=" M 154.43 52.25 C 155.56 50.76 158.22 51.11 158.75 52.99 C 158.67 55.35 157.96 57.67 158.14 60.04 C 159.65 62.12 161.94 63.62 162.95 66.07 C 164.29 68.87 163.86 72.12 164.93 74.99 C 166.25 76.72 168.40 77.54 170.00 78.98 C 171.13 80.78 169.06 83.42 167.06 82.52 C 163.67 81.29 160.34 78.66 159.65 74.93 C 158.98 71.73 159.37 67.80 156.36 65.66 C 152.15 62.62 152.45 56.51 154.43 52.25 Z" />
<path fill="#85919e" opacity="1.00" d=" M 167.16 52.06 C 168.57 51.08 171.03 52.16 170.73 54.01 C 170.11 58.44 174.13 61.43 174.63 65.66 C 174.88 68.35 179.14 69.03 177.97 72.04 C 176.50 74.14 173.87 73.16 172.36 71.66 C 169.45 69.29 169.98 65.04 167.80 62.18 C 165.70 59.39 164.41 54.82 167.16 52.06 Z" />
<path fill="#85919e" opacity="1.00" d=" M 0.00 57.56 C 0.98 55.86 2.11 54.07 4.03 53.32 C 5.48 53.42 7.21 54.81 6.50 56.38 C 5.01 59.30 4.20 63.84 0.00 63.52 L 0.00 57.56 Z" />
<path fill="#85919e" opacity="1.00" d=" M 177.24 54.25 C 179.52 52.36 181.93 55.07 182.86 57.06 C 183.90 59.17 185.08 63.00 181.89 63.71 C 179.43 64.18 179.15 61.14 178.26 59.60 C 177.60 57.87 175.49 56.02 177.24 54.25 Z" />
</g>
<g id="#aab7c5ff">
<path fill="#aab7c5" opacity="1.00" d=" M 44.09 28.90 C 48.76 33.64 53.15 38.82 56.26 44.72 C 57.51 46.84 55.87 49.11 54.86 50.96 C 52.25 54.99 49.36 58.84 46.63 62.80 C 44.36 59.31 44.35 55.01 43.92 51.01 C 43.38 43.66 42.78 36.21 44.09 28.90 Z" />
<path fill="#aab7c5" opacity="1.00" d=" M 128.37 42.43 C 131.45 37.51 135.16 33.00 139.35 28.99 C 140.31 35.75 140.12 42.60 140.23 49.40 C 140.00 52.65 139.64 55.89 139.05 59.09 C 138.34 60.19 137.73 61.49 136.51 62.09 C 133.08 57.91 129.88 53.47 127.36 48.69 C 125.99 46.60 127.24 44.28 128.37 42.43 Z" />
<path fill="#aab7c5" opacity="1.00" d=" M 81.92 96.89 C 82.17 94.96 84.29 94.56 85.88 94.31 C 88.98 93.94 92.72 94.00 94.69 96.86 C 90.70 98.68 85.81 99.30 81.92 96.89 Z" />
<path fill="#aab7c5" opacity="1.00" d=" M 69.77 96.44 C 71.68 95.87 73.58 95.26 75.47 94.62 C 76.95 97.05 78.25 99.70 80.47 101.58 C 82.51 103.24 85.05 104.08 87.44 105.12 C 86.40 107.92 85.28 111.37 81.95 112.10 C 76.92 113.93 72.63 109.79 67.91 108.79 C 66.14 108.19 66.26 105.69 65.48 104.26 C 63.95 103.88 62.42 103.52 60.89 103.14 C 62.44 103.14 63.98 103.10 65.53 102.99 C 65.74 102.54 66.17 101.64 66.39 101.19 C 66.78 100.32 67.17 99.44 67.54 98.56 C 68.08 98.42 68.63 98.28 69.18 98.15 C 69.38 97.58 69.57 97.01 69.77 96.44 Z" />
<path fill="#aab7c5" opacity="1.00" d=" M 100.81 94.79 C 103.21 94.32 106.34 95.64 108.35 97.30 C 109.09 97.99 109.82 98.70 110.52 99.44 C 111.32 100.32 112.02 101.32 112.42 102.46 C 112.54 103.37 112.59 104.28 112.63 105.20 C 112.39 106.79 111.57 108.22 110.97 109.69 C 110.39 109.56 109.23 109.28 108.65 109.14 C 104.58 110.48 100.61 113.94 96.08 112.06 C 92.73 111.27 91.63 107.80 90.86 104.88 C 92.79 103.87 94.86 103.03 96.55 101.62 C 98.51 99.73 99.46 97.10 100.81 94.79 Z" />
<path fill="#aab7c5" opacity="1.00" d=" M 76.97 142.96 C 82.44 137.71 90.67 136.68 97.91 137.52 C 106.82 138.61 113.94 145.53 117.66 153.37 C 122.19 163.21 122.38 174.37 121.70 184.99 C 121.27 192.07 118.62 198.72 116.77 205.50 C 113.24 213.79 106.68 220.33 102.87 228.48 C 99.27 228.43 95.67 228.18 92.09 227.78 C 86.99 217.25 79.70 207.80 76.02 196.60 C 71.76 185.64 68.67 173.92 69.67 162.06 C 70.25 155.22 72.28 148.14 76.97 142.96 Z" />
<path fill="#aab7c5" opacity="1.00" d=" M 164.95 215.83 C 170.65 213.48 176.96 212.77 183.07 213.46 C 179.39 216.88 177.33 222.04 178.84 227.00 C 179.68 231.48 183.85 233.92 187.42 236.10 C 179.31 236.41 170.51 236.93 163.18 232.82 C 159.20 230.67 157.08 225.74 158.46 221.41 C 159.60 218.64 162.32 216.97 164.95 215.83 Z" />
<path fill="#aab7c5" opacity="1.00" d=" M 72.39 219.43 C 75.13 218.29 77.08 215.98 79.09 213.90 C 82.29 219.87 87.77 225.25 87.77 232.41 C 80.58 234.43 72.84 232.34 66.84 228.14 C 63.44 225.75 60.32 222.98 57.37 220.07 C 62.31 220.95 67.67 221.54 72.39 219.43 Z" />
<path fill="#aab7c5" opacity="1.00" d=" M 106.15 234.25 C 107.38 226.63 112.74 220.71 116.93 214.52 C 117.94 216.82 118.92 219.47 121.28 220.72 C 125.99 223.36 131.59 222.36 136.74 222.45 C 128.86 230.30 117.79 237.84 106.15 234.25 Z" />
</g>
<g id="#c6d0daff">
<path fill="#c6d0da" opacity="1.00" d=" M 67.05 57.63 C 67.93 57.08 69.01 55.81 70.10 56.75 C 73.87 59.50 76.62 64.03 76.81 68.74 C 76.35 68.93 75.43 69.30 74.97 69.48 C 72.89 65.16 70.92 60.71 67.05 57.63 Z" />
<path fill="#c6d0da" opacity="1.00" d=" M 107.31 56.33 C 107.79 56.46 108.76 56.73 109.25 56.87 C 108.59 59.83 105.39 61.40 104.32 64.24 C 103.10 66.24 102.99 69.80 99.82 69.42 C 100.14 64.23 102.84 59.10 107.31 56.33 Z" />
<path fill="#c6d0da" opacity="1.00" d=" M 62.63 58.76 C 67.34 59.16 69.24 63.95 70.99 67.63 C 70.16 67.97 69.34 68.34 68.51 68.68 C 66.62 65.33 63.63 62.55 62.63 58.76 Z" />
<path fill="#c6d0da" opacity="1.00" d=" M 111.39 59.44 C 112.48 58.55 114.73 59.06 113.70 60.79 C 111.77 63.43 109.64 65.95 108.29 68.97 C 107.57 68.57 106.86 68.15 106.17 67.71 C 106.74 64.42 108.74 61.43 111.39 59.44 Z" />
<path fill="#c6d0da" opacity="1.00" d=" M 46.83 92.83 C 54.56 91.36 62.71 93.12 69.77 96.44 C 69.57 97.01 69.38 97.58 69.18 98.15 C 68.63 98.28 68.08 98.42 67.54 98.56 C 61.03 95.86 53.97 94.82 46.97 95.59 C 44.84 96.05 44.53 92.57 46.83 92.83 Z" />
<path fill="#c6d0da" opacity="1.00" d=" M 108.35 97.30 C 115.93 93.57 124.71 91.81 133.09 93.18 C 134.67 92.82 135.86 96.25 133.93 95.91 C 125.97 95.32 117.86 96.12 110.52 99.44 C 109.82 98.70 109.09 97.99 108.35 97.30 Z" />
<path fill="#c6d0da" opacity="1.00" d=" M 44.03 103.17 C 50.62 98.89 59.06 99.51 66.39 101.19 C 66.17 101.64 65.74 102.54 65.53 102.99 C 63.98 103.10 62.44 103.14 60.89 103.14 C 55.45 102.44 50.17 103.59 45.01 105.20 L 44.32 104.82 C 44.25 104.41 44.10 103.58 44.03 103.17 Z" />
<path fill="#c6d0da" opacity="1.00" d=" M 112.42 102.46 C 120.20 100.82 128.61 100.70 135.82 104.48 C 135.56 105.35 135.30 106.22 135.03 107.09 C 127.96 103.92 120.14 103.98 112.63 105.20 C 112.59 104.28 112.54 103.37 112.42 102.46 Z" />
</g>
<g id="#0000004c">
<path fill="#000000" opacity="0.30" d=" M 27.84 226.84 C 35.13 224.00 42.92 222.68 50.65 221.73 C 58.04 230.19 67.47 238.21 79.08 239.36 C 84.38 239.71 90.93 239.33 93.96 234.23 C 95.87 234.32 97.78 234.42 99.69 234.53 C 100.77 236.58 101.57 239.22 104.06 239.97 C 112.17 243.00 121.43 241.13 128.66 236.68 C 131.69 234.46 135.55 235.01 139.07 234.95 C 144.44 234.99 149.81 234.59 155.17 234.26 C 158.85 237.38 162.87 240.42 167.78 241.14 C 181.02 243.52 194.60 241.11 207.41 237.60 C 217.41 234.82 226.54 229.29 233.98 222.10 C 241.46 223.80 249.20 225.01 256.00 228.80 L 256.00 233.00 C 249.44 236.93 241.77 238.16 234.36 239.52 C 218.32 242.16 202.09 243.42 185.87 244.32 C 155.91 245.85 125.87 245.86 95.91 244.42 C 76.23 243.29 56.45 241.98 37.13 237.87 C 32.23 236.57 26.66 235.68 23.07 231.76 C 22.87 229.03 25.79 227.78 27.84 226.84 Z" />
</g>
</svg>
