<?xml version="1.0" encoding="UTF-8" ?>
<!DOCTYPE svg PUBLIC "-//W3C//DTD SVG 1.1//EN" "http://www.w3.org/Graphics/SVG/1.1/DTD/svg11.dtd">
<svg width="256pt" height="256pt" viewBox="0 0 256 256" version="1.1" xmlns="http://www.w3.org/2000/svg">
<g id="#a75214ff">
<path fill="#a75214" opacity="1.00" d=" M 57.72 13.84 C 79.32 3.97 104.56 1.09 127.40 8.31 C 146.10 14.34 162.39 26.11 176.54 39.50 C 194.42 57.02 209.42 78.04 217.76 101.78 C 217.90 101.75 218.19 101.69 218.34 101.66 C 224.86 86.00 228.53 69.01 228.07 52.00 C 227.79 45.44 226.83 38.79 224.25 32.71 C 221.75 29.07 214.76 26.34 212.14 31.11 C 207.13 35.95 198.39 37.98 192.55 33.48 C 186.53 28.14 186.46 17.76 191.96 11.99 C 197.84 5.26 207.56 4.10 215.99 4.54 C 226.59 4.88 237.17 9.89 243.16 18.81 C 251.85 31.68 252.83 47.94 252.04 62.98 C 250.08 89.56 242.15 115.86 228.58 138.79 C 232.68 156.54 232.98 174.92 231.59 193.02 C 230.46 206.13 228.62 219.28 224.60 231.85 C 222.98 236.33 221.36 241.41 216.99 243.98 C 211.71 247.14 204.19 247.77 199.21 243.72 C 196.96 240.85 197.58 236.84 198.46 233.58 C 198.82 231.69 200.90 230.67 201.10 228.78 C 200.92 226.69 199.81 224.86 198.84 223.05 C 194.26 215.21 188.24 208.30 183.96 200.28 C 175.47 209.31 166.65 218.03 157.42 226.30 C 150.66 232.34 143.73 238.25 136.05 243.09 C 132.13 245.52 127.80 247.82 123.03 247.56 C 117.48 247.88 110.92 245.66 109.03 239.90 C 107.38 235.94 110.79 232.59 112.43 229.30 C 119.86 217.39 128.98 204.88 128.16 190.12 C 127.94 181.13 122.99 173.27 117.23 166.71 C 111.66 159.93 105.68 153.52 99.71 147.09 C 95.71 154.92 92.87 163.43 87.63 170.57 C 85.01 172.97 81.10 172.95 77.81 172.26 C 74.33 171.53 72.23 168.15 71.47 164.90 C 70.07 154.24 70.31 143.31 72.88 132.84 C 65.75 142.37 61.87 153.71 57.72 164.72 C 54.87 170.79 45.52 171.59 41.18 166.73 C 39.62 164.88 38.78 162.49 38.59 160.09 C 37.61 150.38 37.55 140.43 40.06 130.94 C 32.17 129.02 25.03 124.68 18.98 119.33 C 17.55 120.55 14.30 123.72 13.65 120.10 C 14.41 118.84 15.78 118.15 16.84 117.19 C 15.71 115.97 14.72 114.60 13.49 113.46 C 12.17 114.23 10.84 115.91 9.25 114.66 C 8.11 112.62 10.66 111.96 11.88 110.95 C 7.86 104.81 5.02 97.74 4.56 90.37 C 2.25 85.60 1.97 79.72 4.56 75.00 C 5.14 72.31 6.15 69.76 6.92 67.13 C 6.55 66.72 5.80 65.90 5.43 65.49 C 3.50 57.19 1.69 48.64 2.47 40.09 C 2.72 35.59 6.28 31.42 10.90 31.16 C 16.30 30.84 21.46 33.42 25.72 36.54 C 34.51 26.67 45.74 19.29 57.72 13.84 M 69.35 15.45 C 53.22 20.95 38.61 30.56 26.88 42.89 C 21.89 41.95 18.34 37.30 13.03 37.13 C 10.32 36.36 7.65 38.83 8.27 41.57 C 7.13 47.42 8.00 53.40 10.00 58.96 C 9.96 61.65 9.98 64.73 12.53 66.32 C 12.38 67.22 12.22 68.12 12.04 69.01 C 19.45 64.59 29.64 67.99 33.29 75.69 C 37.39 82.97 33.70 92.79 26.34 96.33 C 21.77 98.92 16.20 98.18 11.68 95.88 C 12.37 100.14 14.42 104.17 16.92 107.65 C 21.02 105.92 24.22 102.01 28.64 101.25 C 28.77 101.67 29.04 102.51 29.17 102.93 C 26.60 106.14 22.13 107.45 18.97 110.14 C 19.40 111.45 20.44 112.97 21.95 113.04 C 24.48 111.23 26.76 109.11 29.26 107.27 C 30.68 106.22 32.28 107.89 31.41 109.26 C 29.10 111.43 26.44 113.18 24.05 115.26 C 24.09 116.47 25.48 116.95 26.21 117.71 C 37.59 126.42 53.06 129.91 66.95 126.05 C 72.13 124.85 75.90 120.84 80.52 118.48 C 82.74 114.40 83.44 109.64 85.61 105.52 C 86.82 105.29 88.35 104.88 89.34 105.87 C 87.04 112.82 85.01 120.00 81.21 126.33 C 78.86 132.03 76.52 138.38 77.45 144.57 C 76.72 149.34 76.55 154.20 77.04 159.01 C 77.44 161.55 77.31 164.56 79.49 166.36 C 80.75 167.12 83.10 167.82 83.86 166.03 C 87.29 160.38 89.92 154.29 92.28 148.12 C 93.20 147.35 93.48 146.13 94.01 145.11 C 98.84 134.50 105.21 124.38 113.97 116.63 C 115.40 118.00 115.70 120.80 114.11 122.15 C 110.94 125.45 107.60 128.67 105.41 132.74 C 103.89 135.11 102.25 137.45 101.11 140.02 C 110.02 149.76 119.21 159.30 126.99 169.98 C 134.50 180.19 135.81 194.11 131.58 205.91 C 127.97 217.64 119.79 227.19 114.41 237.97 C 115.73 240.85 119.10 241.88 122.04 241.81 C 128.42 242.31 133.63 237.92 138.56 234.52 C 155.31 221.71 170.06 206.55 184.57 191.31 L 184.57 191.31 C 190.10 185.14 195.71 179.03 201.05 172.69 C 202.33 172.65 203.57 172.91 204.77 173.48 C 204.75 173.75 204.71 174.28 204.69 174.55 C 200.51 179.81 195.70 184.55 191.54 189.83 C 189.86 191.02 188.64 192.77 187.20 194.25 C 192.28 204.91 201.12 213.35 205.78 224.25 C 206.74 227.12 208.30 231.14 205.38 233.38 C 203.67 234.98 202.97 237.77 203.77 239.96 C 207.70 241.56 212.78 240.72 215.71 237.55 C 218.12 233.89 219.35 229.60 220.60 225.44 C 224.30 211.46 225.91 197.00 226.37 182.58 C 226.75 169.34 226.25 156.00 223.67 142.97 C 222.70 144.14 221.89 145.44 220.84 146.54 C 219.16 146.22 217.54 146.73 215.91 147.04 C 219.98 140.72 224.75 134.77 227.97 127.92 C 239.44 105.46 246.19 80.35 246.29 55.07 C 246.15 43.47 244.41 31.14 237.38 21.54 C 232.28 14.47 223.62 10.56 215.02 10.33 C 208.66 10.14 201.31 10.68 196.63 15.54 C 192.95 19.04 192.63 26.01 196.79 29.22 C 201.68 32.20 208.11 29.04 210.07 24.00 C 217.74 20.15 228.50 24.89 230.71 33.26 C 234.18 43.45 234.43 54.43 233.52 65.07 C 232.04 80.22 228.03 95.09 221.92 109.01 C 221.30 110.30 220.82 111.70 219.82 112.77 C 216.18 113.29 212.05 109.93 212.28 106.11 C 212.12 100.38 210.45 94.64 206.86 90.10 C 203.45 84.18 200.30 78.08 196.48 72.40 C 195.75 71.65 195.48 70.13 194.28 70.05 C 191.18 78.52 184.36 85.12 177.03 90.10 C 173.59 92.11 169.21 94.75 165.25 92.60 C 165.90 88.02 169.36 84.60 172.23 81.22 C 177.67 74.96 183.93 68.92 186.72 60.92 C 187.51 58.80 185.06 57.54 184.10 55.98 C 181.09 52.97 178.74 48.93 175.00 46.88 C 172.42 57.70 166.15 67.58 157.75 74.82 C 154.87 77.15 150.89 79.91 147.13 77.86 C 146.06 73.87 149.21 70.40 151.24 67.28 C 157.99 58.48 165.01 48.79 165.48 37.29 C 161.64 34.05 157.78 30.74 153.45 28.17 C 151.92 36.52 148.33 44.50 143.32 51.33 C 139.97 55.68 135.21 60.15 129.32 59.78 C 128.10 53.84 131.78 48.57 134.46 43.61 C 138.26 36.68 142.76 29.25 141.95 21.04 C 120.20 8.25 92.90 7.11 69.35 15.45 M 16.38 71.54 C 8.18 74.33 6.48 86.57 13.32 91.74 C 19.12 96.81 28.64 92.67 30.52 85.66 C 33.27 77.64 24.45 68.61 16.38 71.54 M 45.91 130.94 C 45.13 133.82 44.19 136.94 44.61 139.91 C 43.04 146.56 42.64 154.02 44.25 160.83 C 45.03 164.43 50.11 164.84 52.14 162.12 C 56.23 156.86 56.84 149.99 59.38 144.02 C 61.96 139.48 64.46 134.83 67.07 130.29 C 60.12 131.91 52.96 131.82 45.91 130.94 Z" />
<path fill="#a75214" opacity="1.00" d=" M 73.94 30.84 C 78.24 29.29 83.58 28.51 87.53 31.35 C 90.68 33.91 91.77 38.13 92.02 42.01 C 92.39 48.56 91.59 55.09 91.52 61.64 C 91.35 61.94 91.01 62.54 90.84 62.84 C 90.17 62.81 88.85 62.75 88.19 62.72 C 87.28 60.87 87.61 58.74 87.54 56.75 C 88.80 50.69 89.00 44.29 87.07 38.36 C 86.90 35.26 84.02 33.07 80.99 33.47 C 72.69 33.85 65.90 39.87 61.32 46.36 C 60.03 48.82 56.29 46.39 58.13 44.19 C 61.85 38.28 67.45 33.47 73.94 30.84 Z" />
<path fill="#a75214" opacity="1.00" d=" M 26.27 55.39 C 28.99 55.45 28.82 59.16 29.66 61.06 C 30.73 62.71 29.95 66.26 27.58 64.41 C 26.76 61.76 25.59 59.10 25.39 56.32 C 25.61 56.09 26.05 55.62 26.27 55.39 Z" />
<path fill="#a75214" opacity="1.00" d=" M 21.11 61.00 C 20.59 59.48 18.79 56.00 21.84 56.24 C 24.29 58.52 25.09 62.63 24.83 65.88 C 21.77 66.99 21.98 62.86 21.11 61.00 Z" />
<path fill="#a75214" opacity="1.00" d=" M 46.25 60.22 C 47.26 58.55 48.22 55.66 50.70 56.30 C 51.76 58.46 49.46 60.06 48.82 61.97 C 47.97 63.30 47.64 66.34 45.42 65.58 C 43.86 63.93 45.67 61.89 46.25 60.22 Z" />
<path fill="#a75214" opacity="1.00" d=" M 54.19 56.09 L 55.08 55.51 C 55.48 55.71 56.29 56.12 56.69 56.32 C 56.22 59.67 54.30 63.33 51.88 65.54 C 51.47 65.34 50.65 64.93 50.25 64.73 C 50.74 61.57 52.91 58.97 54.19 56.09 Z" />
<path fill="#a75214" opacity="1.00" d=" M 62.27 67.35 C 70.81 65.33 80.59 71.91 80.97 80.90 C 81.65 89.94 72.84 98.00 63.92 96.92 C 56.16 96.19 49.47 88.88 50.02 80.99 C 50.26 74.28 55.81 68.59 62.27 67.35 M 61.49 71.70 C 57.58 73.07 54.36 76.66 54.03 80.88 C 53.48 86.65 58.24 92.11 63.89 92.88 C 70.98 94.07 78.29 87.12 76.82 79.93 C 75.60 73.30 67.67 69.27 61.49 71.70 Z" />
<path fill="#a75214" opacity="1.00" d=" M 20.28 80.26 C 23.31 78.12 27.78 81.44 26.64 84.94 C 26.05 87.83 22.07 89.23 19.87 87.20 C 17.53 85.55 17.84 81.66 20.28 80.26 Z" />
<path fill="#a75214" opacity="1.00" d=" M 64.34 80.36 C 67.00 78.30 71.22 80.69 70.99 83.99 C 71.07 87.14 67.08 89.32 64.48 87.50 C 61.88 86.07 61.81 81.90 64.34 80.36 Z" />
<path fill="#a75214" opacity="1.00" d=" M 34.34 98.65 C 33.58 95.39 37.15 93.23 39.96 93.09 C 42.86 92.97 45.84 92.74 48.68 93.45 C 51.01 94.05 53.43 96.56 52.30 99.08 C 51.13 101.77 47.95 102.29 45.36 102.49 C 44.62 104.53 45.04 106.86 45.10 109.00 C 46.65 112.04 52.99 113.75 50.80 117.74 C 47.31 118.86 45.83 114.19 43.00 113.10 C 40.33 113.96 38.29 120.02 35.16 116.86 C 34.50 112.54 41.57 111.47 41.02 107.07 C 40.88 105.57 41.35 103.88 40.67 102.50 C 38.18 102.11 35.25 101.33 34.34 98.65 M 38.91 95.13 C 39.01 95.49 39.22 96.21 39.32 96.57 C 42.09 97.25 45.60 97.83 48.01 95.98 L 47.84 95.12 C 45.03 93.90 41.72 93.97 38.91 95.13 Z" />
<path fill="#a75214" opacity="1.00" d=" M 56.16 102.24 C 57.46 101.51 58.62 102.75 59.69 103.29 C 65.14 106.87 70.80 110.16 76.17 113.87 C 77.89 115.04 75.47 117.43 74.12 115.97 C 68.50 112.54 63.02 108.89 57.41 105.45 C 56.26 104.95 54.91 103.38 56.16 102.24 Z" />
<path fill="#a75214" opacity="1.00" d=" M 54.08 107.99 C 55.79 107.39 57.08 108.78 58.29 109.71 C 61.94 112.74 65.72 115.60 69.36 118.64 C 71.04 119.44 69.76 122.41 68.03 121.28 C 63.28 117.63 58.54 113.94 54.01 110.02 C 54.03 109.52 54.06 108.50 54.08 107.99 Z" />
</g>
<g id="#f68634ff">
<path fill="#f68634" opacity="1.00" d=" M 69.35 15.45 C 92.90 7.11 120.20 8.25 141.95 21.04 C 142.76 29.25 138.26 36.68 134.46 43.61 C 131.78 48.57 128.10 53.84 129.32 59.78 C 135.21 60.15 139.97 55.68 143.32 51.33 C 148.33 44.50 151.92 36.52 153.45 28.17 C 157.78 30.74 161.64 34.05 165.48 37.29 C 165.01 48.79 157.99 58.48 151.24 67.28 C 149.21 70.40 146.06 73.87 147.13 77.86 C 150.89 79.91 154.87 77.15 157.75 74.82 C 166.15 67.58 172.42 57.70 175.00 46.88 C 178.74 48.93 181.09 52.97 184.10 55.98 C 185.06 57.54 187.51 58.80 186.72 60.92 C 183.93 68.92 177.67 74.96 172.23 81.22 C 169.36 84.60 165.90 88.02 165.25 92.60 C 169.21 94.75 173.59 92.11 177.03 90.10 C 184.36 85.12 191.18 78.52 194.28 70.05 C 195.48 70.13 195.75 71.65 196.48 72.40 C 200.30 78.08 203.45 84.18 206.86 90.10 C 210.45 94.64 212.12 100.38 212.28 106.11 C 212.05 109.93 216.18 113.29 219.82 112.77 C 220.82 111.70 221.30 110.30 221.92 109.01 C 228.03 95.09 232.04 80.22 233.52 65.07 C 234.43 54.43 234.18 43.45 230.71 33.26 C 228.50 24.89 217.74 20.15 210.07 24.00 C 208.11 29.04 201.68 32.20 196.79 29.22 C 192.63 26.01 192.95 19.04 196.63 15.54 C 201.31 10.68 208.66 10.14 215.02 10.33 C 223.62 10.56 232.28 14.47 237.38 21.54 C 244.41 31.14 246.15 43.47 246.29 55.07 C 246.19 80.35 239.44 105.46 227.97 127.92 C 224.75 134.77 219.98 140.72 215.91 147.04 C 217.54 146.73 219.16 146.22 220.84 146.54 C 221.89 145.44 222.70 144.14 223.67 142.97 C 226.25 156.00 226.75 169.34 226.37 182.58 C 221.01 186.24 216.27 191.35 209.73 192.80 C 203.54 193.51 197.38 191.69 191.54 189.83 C 195.70 184.55 200.51 179.81 204.69 174.55 C 204.71 174.28 204.75 173.75 204.77 173.48 C 203.57 172.91 202.33 172.65 201.05 172.69 C 195.71 179.03 190.10 185.14 184.57 191.31 L 184.57 191.31 C 177.47 192.73 170.27 195.17 162.93 193.69 C 155.73 192.80 150.09 187.78 145.19 182.84 C 130.37 167.42 119.31 148.93 105.41 132.74 C 107.60 128.67 110.94 125.45 114.11 122.15 C 115.70 120.80 115.40 118.00 113.97 116.63 C 105.21 124.38 98.84 134.50 94.01 145.11 C 93.48 146.13 93.20 147.35 92.28 148.12 C 92.42 146.88 93.01 145.63 92.73 144.37 C 89.13 141.73 84.60 139.34 80.03 140.15 C 77.89 140.51 77.95 142.95 77.45 144.57 C 76.52 138.38 78.86 132.03 81.21 126.33 C 85.01 120.00 87.04 112.82 89.34 105.87 C 88.35 104.88 86.82 105.29 85.61 105.52 C 83.44 109.64 82.74 114.40 80.52 118.48 C 75.90 120.84 72.13 124.85 66.95 126.05 C 53.06 129.91 37.59 126.42 26.21 117.71 C 25.48 116.95 24.09 116.47 24.05 115.26 C 26.44 113.18 29.10 111.43 31.41 109.26 C 32.28 107.89 30.68 106.22 29.26 107.27 C 26.76 109.11 24.48 111.23 21.95 113.04 C 20.44 112.97 19.40 111.45 18.97 110.14 C 22.13 107.45 26.60 106.14 29.17 102.93 C 29.04 102.51 28.77 101.67 28.64 101.25 C 24.22 102.01 21.02 105.92 16.92 107.65 C 14.42 104.17 12.37 100.14 11.68 95.88 C 16.20 98.18 21.77 98.92 26.34 96.33 C 33.70 92.79 37.39 82.97 33.29 75.69 C 29.64 67.99 19.45 64.59 12.04 69.01 C 12.22 68.12 12.38 67.22 12.53 66.32 C 9.98 64.73 9.96 61.65 10.00 58.96 C 12.02 61.44 16.05 58.79 16.09 56.04 C 16.34 50.50 13.03 45.56 9.72 41.40 C 9.36 41.44 8.63 41.53 8.27 41.57 C 7.65 38.83 10.32 36.36 13.03 37.13 C 18.34 37.30 21.89 41.95 26.88 42.89 C 38.61 30.56 53.22 20.95 69.35 15.45 M 73.94 30.84 C 67.45 33.47 61.85 38.28 58.13 44.19 C 56.29 46.39 60.03 48.82 61.32 46.36 C 65.90 39.87 72.69 33.85 80.99 33.47 C 84.02 33.07 86.90 35.26 87.07 38.36 C 84.68 35.10 80.58 37.02 78.30 39.34 C 74.14 43.34 70.28 48.28 69.30 54.11 C 72.67 57.53 77.19 60.13 81.97 60.94 C 84.79 61.52 86.68 59.08 87.54 56.75 C 87.61 58.74 87.28 60.87 88.19 62.72 C 88.85 62.75 90.17 62.81 90.84 62.84 C 91.01 62.54 91.35 61.94 91.52 61.64 C 91.59 55.09 92.39 48.56 92.02 42.01 C 91.77 38.13 90.68 33.91 87.53 31.35 C 83.58 28.51 78.24 29.29 73.94 30.84 M 26.27 55.39 C 26.05 55.62 25.61 56.09 25.39 56.32 C 25.59 59.10 26.76 61.76 27.58 64.41 C 29.95 66.26 30.73 62.71 29.66 61.06 C 28.82 59.16 28.99 55.45 26.27 55.39 M 21.11 61.00 C 21.98 62.86 21.77 66.99 24.83 65.88 C 25.09 62.63 24.29 58.52 21.84 56.24 C 18.79 56.00 20.59 59.48 21.11 61.00 M 46.25 60.22 C 45.67 61.89 43.86 63.93 45.42 65.58 C 47.64 66.34 47.97 63.30 48.82 61.97 C 49.46 60.06 51.76 58.46 50.70 56.30 C 48.22 55.66 47.26 58.55 46.25 60.22 M 54.19 56.09 C 52.91 58.97 50.74 61.57 50.25 64.73 C 50.65 64.93 51.47 65.34 51.88 65.54 C 54.30 63.33 56.22 59.67 56.69 56.32 C 56.29 56.12 55.48 55.71 55.08 55.51 L 54.19 56.09 M 62.27 67.35 C 55.81 68.59 50.26 74.28 50.02 80.99 C 49.47 88.88 56.16 96.19 63.92 96.92 C 72.84 98.00 81.65 89.94 80.97 80.90 C 80.59 71.91 70.81 65.33 62.27 67.35 M 34.34 98.65 C 35.25 101.33 38.18 102.11 40.67 102.50 C 41.35 103.88 40.88 105.57 41.02 107.07 C 41.57 111.47 34.50 112.54 35.16 116.86 C 38.29 120.02 40.33 113.96 43.00 113.10 C 45.83 114.19 47.31 118.86 50.80 117.74 C 52.99 113.75 46.65 112.04 45.10 109.00 C 45.04 106.86 44.62 104.53 45.36 102.49 C 47.95 102.29 51.13 101.77 52.30 99.08 C 53.43 96.56 51.01 94.05 48.68 93.45 C 45.84 92.74 42.86 92.97 39.96 93.09 C 37.15 93.23 33.58 95.39 34.34 98.65 M 56.16 102.24 C 54.91 103.38 56.26 104.95 57.41 105.45 C 63.02 108.89 68.50 112.54 74.12 115.97 C 75.47 117.43 77.89 115.04 76.17 113.87 C 70.80 110.16 65.14 106.87 59.69 103.29 C 58.62 102.75 57.46 101.51 56.16 102.24 M 54.08 107.99 C 54.06 108.50 54.03 109.52 54.01 110.02 C 58.54 113.94 63.28 117.63 68.03 121.28 C 69.76 122.41 71.04 119.44 69.36 118.64 C 65.72 115.60 61.94 112.74 58.29 109.71 C 57.08 108.78 55.79 107.39 54.08 107.99 Z" />
<path fill="#f68634" opacity="1.00" d=" M 45.91 130.94 C 52.96 131.82 60.12 131.91 67.07 130.29 C 64.46 134.83 61.96 139.48 59.38 144.02 C 59.27 143.57 59.05 142.68 58.94 142.23 C 54.35 140.66 49.51 139.27 44.61 139.91 C 44.19 136.94 45.13 133.82 45.91 130.94 Z" />
</g>
<g id="#f8dab6ff">
<path fill="#f8dab6" opacity="1.00" d=" M 78.30 39.34 C 80.58 37.02 84.68 35.10 87.07 38.36 C 89.00 44.29 88.80 50.69 87.54 56.75 C 86.68 59.08 84.79 61.52 81.97 60.94 C 77.19 60.13 72.67 57.53 69.30 54.11 C 70.28 48.28 74.14 43.34 78.30 39.34 Z" />
<path fill="#f8dab6" opacity="1.00" d=" M 8.27 41.57 C 8.63 41.53 9.36 41.44 9.72 41.40 C 13.03 45.56 16.34 50.50 16.09 56.04 C 16.05 58.79 12.02 61.44 10.00 58.96 C 8.00 53.40 7.13 47.42 8.27 41.57 Z" />
<path fill="#f8dab6" opacity="1.00" d=" M 105.41 132.74 C 119.31 148.93 130.37 167.42 145.19 182.84 C 150.09 187.78 155.73 192.80 162.93 193.69 C 170.27 195.17 177.47 192.73 184.57 191.31 C 170.06 206.55 155.31 221.71 138.56 234.52 C 133.63 237.92 128.42 242.31 122.04 241.81 C 119.10 241.88 115.73 240.85 114.41 237.97 C 119.79 227.19 127.97 217.64 131.58 205.91 C 135.81 194.11 134.50 180.19 126.99 169.98 C 119.21 159.30 110.02 149.76 101.11 140.02 C 102.25 137.45 103.89 135.11 105.41 132.74 Z" />
<path fill="#f8dab6" opacity="1.00" d=" M 44.25 160.83 C 42.64 154.02 43.04 146.56 44.61 139.91 C 49.51 139.27 54.35 140.66 58.94 142.23 C 59.05 142.68 59.27 143.57 59.38 144.02 C 56.84 149.99 56.23 156.86 52.14 162.12 C 50.11 164.84 45.03 164.43 44.25 160.83 Z" />
<path fill="#f8dab6" opacity="1.00" d=" M 77.45 144.57 C 77.95 142.95 77.89 140.51 80.03 140.15 C 84.60 139.34 89.13 141.73 92.73 144.37 C 93.01 145.63 92.42 146.88 92.28 148.12 C 89.92 154.29 87.29 160.38 83.86 166.03 C 83.10 167.82 80.75 167.12 79.49 166.36 C 77.31 164.56 77.44 161.55 77.04 159.01 C 76.55 154.20 76.72 149.34 77.45 144.57 Z" />
<path fill="#f8dab6" opacity="1.00" d=" M 209.73 192.80 C 216.27 191.35 221.01 186.24 226.37 182.58 C 225.91 197.00 224.30 211.46 220.60 225.44 C 219.35 229.60 218.12 233.89 215.71 237.55 C 212.78 240.72 207.70 241.56 203.77 239.96 C 202.97 237.77 203.67 234.98 205.38 233.38 C 208.30 231.14 206.74 227.12 205.78 224.25 C 201.12 213.35 192.28 204.91 187.20 194.25 C 188.64 192.77 189.86 191.02 191.54 189.83 C 197.38 191.69 203.54 193.51 209.73 192.80 Z" />
</g>
<g id="#ffffffff">
<path fill="#ffffff" opacity="1.00" d=" M 16.38 71.54 C 24.45 68.61 33.27 77.64 30.52 85.66 C 28.64 92.67 19.12 96.81 13.32 91.74 C 6.48 86.57 8.18 74.33 16.38 71.54 M 20.28 80.26 C 17.84 81.66 17.53 85.55 19.87 87.20 C 22.07 89.23 26.05 87.83 26.64 84.94 C 27.78 81.44 23.31 78.12 20.28 80.26 Z" />
<path fill="#ffffff" opacity="1.00" d=" M 61.49 71.70 C 67.67 69.27 75.60 73.30 76.82 79.93 C 78.29 87.12 70.98 94.07 63.89 92.88 C 58.24 92.11 53.48 86.65 54.03 80.88 C 54.36 76.66 57.58 73.07 61.49 71.70 M 64.34 80.36 C 61.81 81.90 61.88 86.07 64.48 87.50 C 67.08 89.32 71.07 87.14 70.99 83.99 C 71.22 80.69 67.00 78.30 64.34 80.36 Z" />
</g>
<g id="#feb761ff">
<path fill="#feb761" opacity="1.00" d=" M 38.91 95.13 C 41.72 93.97 45.03 93.90 47.84 95.12 L 48.01 95.98 C 45.60 97.83 42.09 97.25 39.32 96.57 C 39.22 96.21 39.01 95.49 38.91 95.13 Z" />
</g>
<g id="#0000004c">
<path fill="#000000" opacity="0.30" d=" M 136.05 243.09 C 143.73 238.25 150.66 232.34 157.42 226.30 C 171.94 227.36 186.63 226.71 201.10 228.78 C 200.90 230.67 198.82 231.69 198.46 233.58 C 197.58 236.84 196.96 240.85 199.21 243.72 C 204.19 247.77 211.71 247.14 216.99 243.98 C 221.36 241.41 222.98 236.33 224.60 231.85 C 230.21 232.91 235.92 234.20 240.96 236.96 C 242.64 237.77 244.41 240.02 242.92 241.79 C 240.76 244.35 237.34 245.30 234.29 246.37 C 222.00 249.96 209.19 251.10 196.50 252.37 C 169.65 254.34 142.64 254.34 115.79 252.28 C 103.64 251.05 91.37 249.92 79.60 246.49 C 76.34 245.33 72.56 244.54 70.29 241.72 C 68.69 239.04 71.96 237.03 74.02 236.06 C 84.09 231.73 95.16 230.64 105.93 229.23 C 108.06 229.20 110.46 228.12 112.43 229.30 C 110.79 232.59 107.38 235.94 109.03 239.90 C 110.92 245.66 117.48 247.88 123.03 247.56 C 127.80 247.82 132.13 245.52 136.05 243.09 Z" />
</g>
</svg>
