<?xml version="1.0" encoding="UTF-8" ?>
<!DOCTYPE svg PUBLIC "-//W3C//DTD SVG 1.1//EN" "http://www.w3.org/Graphics/SVG/1.1/DTD/svg11.dtd">
<svg width="256pt" height="256pt" viewBox="0 0 256 256" version="1.1" xmlns="http://www.w3.org/2000/svg">
<g id="#4c5d6eff">
<path fill="#4c5d6e" opacity="1.00" d=" M 80.07 48.12 C 94.09 38.70 111.23 34.57 128.02 35.43 C 152.59 36.53 176.75 47.38 193.42 65.55 C 202.61 75.64 210.42 86.93 217.15 98.78 C 222.08 107.95 225.63 117.85 231.31 126.62 C 232.88 128.85 234.62 131.17 237.07 132.49 C 240.65 134.11 243.46 129.79 247.06 130.42 C 249.23 130.81 251.39 131.54 253.21 132.80 C 255.44 134.63 255.64 137.76 256.00 140.42 L 256.00 144.45 C 255.05 152.92 249.16 160.82 240.76 163.06 C 244.05 177.33 246.22 191.84 247.13 206.45 C 246.78 209.35 246.71 213.33 243.44 214.52 C 235.52 217.08 227.07 213.86 220.33 209.65 C 215.61 206.88 211.76 202.95 207.39 199.73 C 206.75 199.90 205.47 200.24 204.83 200.41 C 208.64 203.11 212.00 208.07 209.91 212.84 C 207.39 217.66 201.80 219.74 196.75 220.68 C 184.67 222.39 172.37 220.56 160.73 217.22 C 158.55 216.65 156.36 215.84 154.07 215.94 C 129.42 218.36 104.85 222.44 80.01 222.23 C 65.02 222.40 49.77 223.05 35.06 219.59 C 30.46 218.60 26.24 216.42 22.37 213.78 C 20.47 214.70 17.90 217.36 16.21 214.71 C 15.81 212.37 18.64 211.64 20.03 210.40 C 19.61 208.92 19.17 207.44 18.74 205.98 C 15.58 207.11 12.58 209.74 9.06 208.97 C 8.26 204.90 13.26 204.40 15.86 202.81 C 7.93 189.88 4.23 174.64 3.63 159.58 C 2.53 144.46 1.03 129.31 1.41 114.13 C 1.79 108.00 2.14 101.56 5.12 96.05 C 6.71 92.91 10.27 90.70 13.84 91.48 C 18.59 92.58 21.99 96.42 25.29 99.76 C 41.02 80.15 59.00 61.99 80.07 48.12 M 97.89 45.75 C 87.55 49.55 78.50 56.07 69.93 62.84 C 53.89 75.84 39.62 90.94 27.00 107.27 C 28.15 109.15 29.34 111.03 30.51 112.90 C 41.36 108.98 52.80 106.69 64.33 106.40 C 65.18 98.00 66.13 89.39 69.60 81.60 C 71.00 78.63 73.30 75.12 77.01 75.23 C 81.78 75.53 85.53 78.99 88.83 82.10 C 97.76 91.30 104.60 102.31 110.42 113.67 C 112.57 118.26 115.03 122.93 115.37 128.08 L 114.81 128.68 C 108.27 129.86 103.66 124.02 98.17 121.63 C 95.05 114.01 89.96 106.46 81.91 103.49 C 80.33 107.64 80.47 112.11 80.37 116.47 C 75.60 116.92 70.38 117.40 66.01 115.02 C 64.26 114.16 64.08 112.09 63.67 110.42 C 51.07 110.94 38.41 113.50 26.96 118.91 C 23.44 120.47 20.76 123.32 18.16 126.06 C 16.20 122.24 14.48 118.02 11.03 115.28 C 9.08 115.20 8.78 117.65 8.31 119.06 C 6.56 128.26 7.35 137.76 8.81 146.94 C 9.23 150.14 9.11 153.38 9.00 156.59 C 12.57 152.60 17.79 150.74 23.02 150.36 C 21.51 149.15 18.57 147.63 20.41 145.38 C 25.44 143.80 26.82 151.69 31.76 151.79 C 30.06 147.73 27.07 144.50 24.54 140.97 C 24.71 139.53 25.53 138.76 26.99 138.66 C 32.85 143.07 35.31 150.30 38.25 156.73 C 41.17 162.11 39.49 168.49 38.13 174.08 C 35.61 182.33 31.79 191.44 23.73 195.61 C 21.38 197.08 19.32 194.82 17.52 193.61 C 18.72 195.81 19.95 198.00 21.23 200.16 C 23.15 199.25 25.04 198.27 27.06 197.60 C 28.61 197.65 29.66 199.50 28.68 200.79 C 27.30 201.87 25.64 202.49 24.08 203.25 C 24.52 204.58 24.95 205.92 25.38 207.26 C 28.29 205.46 31.21 203.67 34.25 202.09 C 34.79 203.01 36.79 204.37 35.48 205.49 C 33.24 207.50 30.44 208.75 28.00 210.49 C 31.59 212.36 35.42 213.74 39.42 214.44 C 53.13 216.93 67.13 216.41 81.00 216.21 C 102.96 216.44 124.70 212.91 146.49 210.76 C 139.76 207.75 132.09 205.20 127.55 199.02 C 129.04 198.86 130.75 197.82 132.17 198.77 C 146.18 208.32 163.14 212.42 179.70 214.82 C 180.90 207.79 186.57 202.15 193.19 199.91 C 183.38 192.28 173.35 184.87 162.81 178.26 C 160.78 176.80 157.99 176.11 156.60 173.95 C 156.89 171.53 159.73 171.52 161.31 172.73 C 173.87 179.87 185.10 189.05 196.87 197.37 C 199.48 196.42 202.10 195.54 204.74 194.67 C 193.89 183.42 183.35 171.38 177.05 156.91 C 176.41 155.21 175.45 153.53 175.48 151.67 C 176.62 151.27 177.79 150.95 178.98 150.70 C 184.86 167.31 196.66 181.04 209.17 193.12 C 218.88 189.61 229.53 189.20 239.68 190.67 C 237.54 174.79 234.27 159.02 229.01 143.87 C 227.80 140.25 226.05 136.81 225.22 133.07 C 223.87 126.06 220.80 119.56 217.98 113.04 C 211.26 99.67 203.41 86.79 193.87 75.21 C 172.03 47.00 131.82 33.76 97.89 45.75 M 230.49 135.56 C 232.23 141.04 234.17 146.45 235.80 151.97 C 239.37 148.62 238.93 143.33 236.77 139.35 C 234.56 138.28 232.47 137.00 230.49 135.56 M 9.11 165.17 C 9.36 168.09 9.62 171.16 11.26 173.69 C 14.80 179.61 23.61 181.20 29.10 177.11 C 32.25 174.94 33.38 171.00 32.95 167.34 C 31.35 167.23 29.75 167.12 28.14 167.04 C 27.04 168.95 25.44 170.98 22.95 170.75 C 19.74 170.95 17.48 168.33 16.06 165.78 C 13.75 165.57 11.43 165.37 9.11 165.17 Z" />
<path fill="#4c5d6e" opacity="1.00" d=" M 49.44 136.44 C 50.55 135.15 52.21 135.81 52.94 137.12 C 52.16 140.90 50.79 144.58 50.85 148.51 C 53.74 146.68 54.05 142.72 57.11 141.08 C 58.44 142.20 59.11 143.63 58.61 145.38 C 69.03 144.30 79.64 141.66 90.09 143.88 C 97.31 145.34 104.20 149.69 107.51 156.43 C 112.48 166.16 109.64 179.26 100.84 185.82 C 95.06 190.29 87.04 191.20 80.25 188.70 C 69.05 184.93 58.49 178.16 51.57 168.44 C 47.63 163.15 46.99 156.35 46.85 149.97 C 46.82 145.37 47.36 140.60 49.44 136.44 M 82.97 158.01 C 82.14 160.02 81.85 162.59 79.61 163.57 C 76.19 165.72 71.95 164.40 69.18 161.84 C 66.45 162.59 63.73 163.40 61.07 164.37 C 62.51 167.30 63.89 170.40 66.39 172.60 C 73.90 179.70 87.92 178.20 93.26 169.19 C 95.90 164.81 94.56 159.42 92.11 155.28 C 89.08 156.22 85.94 156.86 82.97 158.01 Z" />
<path fill="#4c5d6e" opacity="1.00" d=" M 41.02 180.84 C 47.26 179.46 53.53 177.31 60.00 178.11 C 61.00 183.40 57.87 188.22 53.30 190.62 C 55.57 194.62 60.50 193.92 64.07 195.87 C 68.59 198.16 73.13 200.69 76.84 204.17 C 78.56 205.58 75.73 208.47 74.21 206.83 C 69.11 203.45 64.14 199.42 58.06 198.01 C 56.16 197.73 53.52 197.41 52.44 199.42 C 50.47 202.59 52.33 206.61 50.86 209.80 C 50.15 209.85 48.72 209.97 48.00 210.03 C 46.79 204.79 46.86 198.30 51.45 194.66 C 50.49 193.31 50.03 191.06 48.01 191.00 C 43.14 190.22 38.10 187.65 36.00 182.96 C 37.57 182.02 39.21 181.18 41.02 180.84 Z" />
<path fill="#4c5d6e" opacity="1.00" d=" M 82.06 191.99 C 89.31 192.59 96.47 194.25 103.65 195.44 C 106.02 195.25 106.49 199.17 104.02 199.34 C 97.00 198.48 90.03 197.10 83.06 195.87 C 80.89 195.98 80.16 192.95 82.06 191.99 Z" />
<path fill="#4c5d6e" opacity="1.00" d=" M 81.20 199.04 C 81.64 198.89 82.50 198.60 82.93 198.45 C 88.42 199.62 93.75 201.40 99.20 202.75 C 101.45 203.41 103.88 203.75 105.89 205.04 C 106.70 206.93 104.89 208.84 102.97 207.90 C 96.27 206.16 89.58 204.33 82.92 202.43 C 81.18 202.22 80.53 200.55 81.20 199.04 Z" />
</g>
<g id="#aab7c5ff">
<path fill="#aab7c5" opacity="1.00" d=" M 97.89 45.75 C 131.82 33.76 172.03 47.00 193.87 75.21 C 203.41 86.79 211.26 99.67 217.98 113.04 C 220.80 119.56 223.87 126.06 225.22 133.07 C 226.05 136.81 227.80 140.25 229.01 143.87 C 234.27 159.02 237.54 174.79 239.68 190.67 C 229.53 189.20 218.88 189.61 209.17 193.12 C 196.66 181.04 184.86 167.31 178.98 150.70 C 177.79 150.95 176.62 151.27 175.48 151.67 C 175.45 153.53 176.41 155.21 177.05 156.91 C 183.35 171.38 193.89 183.42 204.74 194.67 C 202.10 195.54 199.48 196.42 196.87 197.37 C 185.10 189.05 173.87 179.87 161.31 172.73 C 159.73 171.52 156.89 171.53 156.60 173.95 C 157.99 176.11 160.78 176.80 162.81 178.26 C 173.35 184.87 183.38 192.28 193.19 199.91 C 186.57 202.15 180.90 207.79 179.70 214.82 C 163.14 212.42 146.18 208.32 132.17 198.77 C 130.75 197.82 129.04 198.86 127.55 199.02 C 132.09 205.20 139.76 207.75 146.49 210.76 C 124.70 212.91 102.96 216.44 81.00 216.21 C 67.13 216.41 53.13 216.93 39.42 214.44 C 35.42 213.74 31.59 212.36 28.00 210.49 C 30.44 208.75 33.24 207.50 35.48 205.49 C 36.79 204.37 34.79 203.01 34.25 202.09 C 31.21 203.67 28.29 205.46 25.38 207.26 C 24.95 205.92 24.52 204.58 24.08 203.25 C 25.64 202.49 27.30 201.87 28.68 200.79 C 29.66 199.50 28.61 197.65 27.06 197.60 C 25.04 198.27 23.15 199.25 21.23 200.16 C 19.95 198.00 18.72 195.81 17.52 193.61 C 19.32 194.82 21.38 197.08 23.73 195.61 C 31.79 191.44 35.61 182.33 38.13 174.08 C 39.49 168.49 41.17 162.11 38.25 156.73 C 35.31 150.30 32.85 143.07 26.99 138.66 C 25.53 138.76 24.71 139.53 24.54 140.97 C 27.07 144.50 30.06 147.73 31.76 151.79 C 26.82 151.69 25.44 143.80 20.41 145.38 C 18.57 147.63 21.51 149.15 23.02 150.36 C 17.79 150.74 12.57 152.60 9.00 156.59 C 9.11 153.38 9.23 150.14 8.81 146.94 C 7.35 137.76 6.56 128.26 8.31 119.06 C 8.78 117.65 9.08 115.20 11.03 115.28 C 14.48 118.02 16.20 122.24 18.16 126.06 C 20.76 123.32 23.44 120.47 26.96 118.91 C 38.41 113.50 51.07 110.94 63.67 110.42 C 64.08 112.09 64.26 114.16 66.01 115.02 C 70.38 117.40 75.60 116.92 80.37 116.47 C 80.47 112.11 80.33 107.64 81.91 103.49 C 89.96 106.46 95.05 114.01 98.17 121.63 C 103.66 124.02 108.27 129.86 114.81 128.68 L 115.37 128.08 C 115.03 122.93 112.57 118.26 110.42 113.67 C 104.60 102.31 97.76 91.30 88.83 82.10 C 85.53 78.99 81.78 75.53 77.01 75.23 C 73.30 75.12 71.00 78.63 69.60 81.60 C 66.13 89.39 65.18 98.00 64.33 106.40 C 52.80 106.69 41.36 108.98 30.51 112.90 C 29.34 111.03 28.15 109.15 27.00 107.27 C 39.62 90.94 53.89 75.84 69.93 62.84 C 78.50 56.07 87.55 49.55 97.89 45.75 M 49.44 136.44 C 47.36 140.60 46.82 145.37 46.85 149.97 C 46.99 156.35 47.63 163.15 51.57 168.44 C 58.49 178.16 69.05 184.93 80.25 188.70 C 87.04 191.20 95.06 190.29 100.84 185.82 C 109.64 179.26 112.48 166.16 107.51 156.43 C 104.20 149.69 97.31 145.34 90.09 143.88 C 79.64 141.66 69.03 144.30 58.61 145.38 C 59.11 143.63 58.44 142.20 57.11 141.08 C 54.05 142.72 53.74 146.68 50.85 148.51 C 50.79 144.58 52.16 140.90 52.94 137.12 C 52.21 135.81 50.55 135.15 49.44 136.44 M 41.02 180.84 C 39.21 181.18 37.57 182.02 36.00 182.96 C 38.10 187.65 43.14 190.22 48.01 191.00 C 50.03 191.06 50.49 193.31 51.45 194.66 C 46.86 198.30 46.79 204.79 48.00 210.03 C 48.72 209.97 50.15 209.85 50.86 209.80 C 52.33 206.61 50.47 202.59 52.44 199.42 C 53.52 197.41 56.16 197.73 58.06 198.01 C 64.14 199.42 69.11 203.45 74.21 206.83 C 75.73 208.47 78.56 205.58 76.84 204.17 C 73.13 200.69 68.59 198.16 64.07 195.87 C 60.50 193.92 55.57 194.62 53.30 190.62 C 57.87 188.22 61.00 183.40 60.00 178.11 C 53.53 177.31 47.26 179.46 41.02 180.84 M 82.06 191.99 C 80.16 192.95 80.89 195.98 83.06 195.87 C 90.03 197.10 97.00 198.48 104.02 199.34 C 106.49 199.17 106.02 195.25 103.65 195.44 C 96.47 194.25 89.31 192.59 82.06 191.99 M 81.20 199.04 C 80.53 200.55 81.18 202.22 82.92 202.43 C 89.58 204.33 96.27 206.16 102.97 207.90 C 104.89 208.84 106.70 206.93 105.89 205.04 C 103.88 203.75 101.45 203.41 99.20 202.75 C 93.75 201.40 88.42 199.62 82.93 198.45 C 82.50 198.60 81.64 198.89 81.20 199.04 Z" />
<path fill="#aab7c5" opacity="1.00" d=" M 230.49 135.56 C 232.47 137.00 234.56 138.28 236.77 139.35 C 238.93 143.33 239.37 148.62 235.80 151.97 C 234.17 146.45 232.23 141.04 230.49 135.56 Z" />
</g>
<g id="#e9d695ff">
<path fill="#e9d695" opacity="1.00" d=" M 82.97 158.01 C 85.94 156.86 89.08 156.22 92.11 155.28 C 94.56 159.42 95.90 164.81 93.26 169.19 C 87.92 178.20 73.90 179.70 66.39 172.60 C 63.89 170.40 62.51 167.30 61.07 164.37 C 63.73 163.40 66.45 162.59 69.18 161.84 C 71.95 164.40 76.19 165.72 79.61 163.57 C 81.85 162.59 82.14 160.02 82.97 158.01 Z" />
<path fill="#e9d695" opacity="1.00" d=" M 9.11 165.17 C 11.43 165.37 13.75 165.57 16.06 165.78 C 17.48 168.33 19.74 170.95 22.95 170.75 C 25.44 170.98 27.04 168.95 28.14 167.04 C 29.75 167.12 31.35 167.23 32.95 167.34 C 33.38 171.00 32.25 174.94 29.10 177.11 C 23.61 181.20 14.80 179.61 11.26 173.69 C 9.62 171.16 9.36 168.09 9.11 165.17 Z" />
</g>
<g id="#0000004c">
<path fill="#000000" opacity="0.30" d=" M 204.83 200.41 C 205.47 200.24 206.75 199.90 207.39 199.73 C 211.76 202.95 215.61 206.88 220.33 209.65 C 227.07 213.86 235.52 217.08 243.44 214.52 C 246.71 213.33 246.78 209.35 247.13 206.45 C 250.02 208.20 252.98 209.81 256.00 211.32 L 256.00 216.96 C 248.10 222.49 238.26 223.87 229.03 225.78 C 206.25 229.72 183.12 231.22 160.04 232.11 C 133.39 232.93 106.69 232.75 80.07 231.08 C 61.83 229.86 43.55 228.23 25.62 224.51 C 19.42 223.07 13.04 221.70 7.45 218.52 C 5.68 217.42 3.39 215.60 4.22 213.22 C 5.25 211.26 7.34 210.23 9.06 208.97 C 12.58 209.74 15.58 207.11 18.74 205.98 C 19.17 207.44 19.61 208.92 20.03 210.40 C 18.64 211.64 15.81 212.37 16.21 214.71 C 17.90 217.36 20.47 214.70 22.37 213.78 C 26.24 216.42 30.46 218.60 35.06 219.59 C 49.77 223.05 65.02 222.40 80.01 222.23 C 104.85 222.44 129.42 218.36 154.07 215.94 C 156.36 215.84 158.55 216.65 160.73 217.22 C 172.37 220.56 184.67 222.39 196.75 220.68 C 201.80 219.74 207.39 217.66 209.91 212.84 C 212.00 208.07 208.64 203.11 204.83 200.41 Z" />
</g>
</svg>
