<?xml version="1.0" encoding="UTF-8" ?>
<!DOCTYPE svg PUBLIC "-//W3C//DTD SVG 1.1//EN" "http://www.w3.org/Graphics/SVG/1.1/DTD/svg11.dtd">
<svg width="256pt" height="256pt" viewBox="0 0 256 256" version="1.1" xmlns="http://www.w3.org/2000/svg">
<g id="#ab9e89ff">
<path fill="#ab9e89" opacity="1.00" d=" M 164.04 6.05 C 167.00 3.11 171.45 1.19 175.58 2.68 C 179.80 4.30 181.56 8.99 182.42 13.07 C 184.83 26.26 182.27 39.65 181.47 52.83 C 188.53 64.96 193.89 77.98 198.81 91.10 C 208.16 116.70 215.90 143.00 220.15 169.95 C 220.95 174.05 220.51 178.42 221.71 182.38 C 227.98 188.59 231.87 197.12 232.17 205.97 C 232.65 214.75 229.44 223.43 224.16 230.35 C 216.79 239.98 205.59 247.86 193.03 247.56 C 189.00 247.61 185.35 245.63 182.71 242.67 C 175.34 244.69 168.00 246.96 160.34 247.56 C 158.37 249.80 156.22 251.89 153.69 253.49 C 150.01 254.36 145.97 254.98 142.36 253.50 C 141.22 252.14 140.20 250.68 139.19 249.22 C 130.36 249.92 121.50 250.06 112.67 249.23 C 111.55 250.72 110.40 252.20 109.04 253.50 C 105.27 255.06 100.84 255.11 97.32 252.88 C 95.33 251.41 93.63 249.59 92.03 247.71 C 75.79 245.81 58.73 241.36 46.85 229.43 C 35.96 218.39 30.71 202.40 31.62 187.04 C 32.46 169.06 36.54 151.43 41.06 134.08 C 45.67 116.92 51.17 100.01 57.64 83.46 C 61.67 73.39 65.92 63.36 71.42 53.98 C 70.26 42.34 68.58 30.63 69.60 18.92 C 70.22 13.84 71.11 7.87 75.59 4.68 C 79.51 2.18 84.32 4.18 88.16 5.84 C 94.31 9.79 97.65 16.56 102.22 22.04 C 107.74 20.24 113.10 17.66 118.95 17.15 C 122.96 16.75 126.99 16.88 131.01 16.97 C 137.70 17.15 143.92 19.82 150.25 21.69 C 154.86 16.49 159.05 10.89 164.04 6.05 M 80.30 9.45 C 77.13 9.88 76.70 13.73 76.03 16.25 C 75.65 22.03 74.89 27.96 76.09 33.69 C 75.07 40.90 77.58 48.05 77.36 55.24 C 69.19 70.09 62.73 85.84 57.26 101.86 C 62.02 106.43 67.50 110.16 72.25 114.73 C 74.27 116.77 76.51 119.52 75.68 122.60 C 74.59 124.62 71.94 124.66 70.01 124.05 C 63.58 122.21 58.54 117.58 53.26 113.72 C 52.26 116.91 51.29 120.10 50.32 123.30 C 54.44 126.93 59.40 129.86 62.40 134.58 C 63.60 136.32 63.53 139.61 60.98 140.01 C 55.73 140.44 51.46 136.64 47.24 134.08 C 46.47 136.98 45.72 139.89 45.02 142.81 C 47.91 145.68 52.75 148.27 52.35 152.95 C 50.27 156.61 45.65 153.39 42.77 152.43 C 40.11 164.11 38.04 175.99 37.57 187.98 C 36.99 200.50 40.92 213.39 49.07 222.99 C 59.15 234.71 74.81 239.35 89.62 241.32 C 84.47 231.41 80.79 220.84 77.86 210.08 C 77.63 208.94 77.09 207.74 77.46 206.58 C 78.56 206.13 79.70 205.86 80.90 205.76 C 83.85 217.73 87.99 229.39 93.54 240.41 C 95.30 244.76 98.72 249.68 103.92 249.65 C 108.80 248.77 109.13 242.84 109.59 238.91 C 110.82 227.58 109.98 216.14 108.14 204.93 C 109.89 205.12 112.06 205.53 112.37 207.64 C 114.80 219.40 114.50 231.59 113.07 243.47 C 121.66 243.98 130.24 243.91 138.83 243.44 C 137.01 230.62 137.34 217.47 140.07 204.81 C 141.36 204.90 142.65 204.89 143.94 204.79 C 141.80 216.55 140.98 228.60 142.40 240.51 C 143.02 244.19 144.18 249.78 148.98 249.69 C 153.80 249.05 156.87 244.60 158.53 240.41 L 158.60 240.43 C 164.16 229.17 168.43 217.31 171.32 205.08 C 172.61 205.31 173.90 205.55 175.19 205.78 C 172.33 218.05 168.33 230.11 162.46 241.28 C 169.12 240.42 175.70 238.95 182.09 236.90 C 182.17 233.67 181.79 230.26 183.27 227.27 C 185.13 223.24 189.15 220.92 192.86 218.84 C 198.14 216.01 203.44 213.04 207.75 208.82 C 213.20 203.81 216.32 196.37 215.96 188.97 C 215.57 176.00 213.19 163.19 210.37 150.56 C 207.45 151.79 204.33 153.25 201.12 152.11 C 200.01 147.00 204.88 143.99 208.09 141.03 C 207.54 138.60 206.82 136.22 206.07 133.85 C 201.73 136.50 197.38 140.43 191.97 140.03 C 189.13 139.37 189.53 135.76 190.98 133.95 C 194.21 129.48 199.03 126.57 203.07 122.91 C 202.08 119.47 201.03 116.04 199.90 112.64 C 194.65 116.60 189.50 121.20 183.01 122.95 C 181.11 123.52 178.28 123.25 177.65 121.01 C 177.04 117.93 179.36 115.33 181.36 113.31 C 185.99 108.90 191.28 105.26 195.92 100.87 C 190.41 84.69 183.81 68.80 175.32 53.96 C 175.34 46.86 177.20 39.85 176.89 32.72 C 177.61 27.25 177.24 21.72 176.89 16.24 C 176.36 13.58 175.97 10.62 173.90 8.66 C 171.61 7.28 169.31 9.26 167.73 10.78 C 162.58 15.99 158.62 22.28 153.29 27.32 C 151.86 29.18 149.75 27.41 148.03 27.01 C 138.57 23.24 128.14 21.89 118.05 23.32 C 111.81 24.07 106.12 26.81 100.24 28.78 C 96.68 25.25 94.48 20.59 91.13 16.86 C 88.26 13.61 85.08 9.38 80.30 9.45 M 217.58 201.65 C 214.13 209.98 206.63 215.72 199.00 220.03 C 195.11 222.36 190.55 224.01 187.67 227.68 C 184.76 231.80 185.44 239.52 191.11 240.84 C 197.49 242.48 204.16 239.92 209.42 236.33 C 218.05 230.16 225.24 220.82 226.10 209.94 C 226.82 202.76 224.45 195.61 220.45 189.71 C 219.87 193.77 219.37 197.91 217.58 201.65 Z" />
<path fill="#ab9e89" opacity="1.00" d=" M 108.74 54.98 C 113.41 56.25 116.15 60.86 118.12 64.95 C 121.97 73.74 119.68 84.51 113.08 91.34 C 106.90 97.51 97.35 99.58 89.14 96.64 C 82.63 94.04 77.36 88.52 75.24 81.83 C 72.81 74.74 74.02 66.55 78.38 60.46 C 79.08 59.30 80.21 58.54 81.40 57.95 C 78.13 63.03 76.86 69.19 78.31 75.10 C 78.10 82.24 82.62 89.04 88.97 92.13 C 94.19 94.71 100.67 94.60 105.77 91.76 C 112.90 87.91 117.40 79.19 115.36 71.17 C 115.72 65.02 113.05 59.25 108.74 54.98 Z" />
<path fill="#ab9e89" opacity="1.00" d=" M 132.54 69.36 C 133.90 63.98 136.87 58.30 142.13 55.89 C 138.54 60.12 136.49 65.44 136.66 71.01 C 133.72 82.16 143.76 93.71 154.93 93.96 C 165.15 94.65 174.83 85.62 174.69 75.35 C 176.03 69.84 175.17 64.09 172.54 59.09 C 175.66 60.46 176.66 64.16 177.86 67.06 C 182.00 78.95 174.78 92.96 162.92 96.91 C 155.48 99.27 147.33 97.54 141.10 92.98 C 134.38 87.30 130.45 78.11 132.54 69.36 Z" />
<path fill="#ab9e89" opacity="1.00" d=" M 98.21 102.49 C 103.49 101.71 108.51 99.73 113.81 99.04 C 113.84 99.72 113.91 101.06 113.94 101.74 C 108.31 103.09 102.78 105.30 96.93 105.42 C 95.55 104.23 96.55 102.44 98.21 102.49 Z" />
<path fill="#ab9e89" opacity="1.00" d=" M 141.90 98.85 C 147.55 100.34 153.25 101.69 158.94 103.00 C 159.43 104.81 158.80 105.60 157.04 105.38 C 151.97 104.83 147.02 103.38 142.19 101.80 C 140.56 101.42 141.68 99.80 141.90 98.85 Z" />
<path fill="#ab9e89" opacity="1.00" d=" M 107.97 107.98 C 110.97 106.44 113.67 104.09 117.15 103.79 C 117.17 105.24 116.80 106.67 115.32 107.24 C 110.98 109.71 106.69 112.44 101.96 114.10 C 100.39 114.30 99.68 112.91 100.63 111.73 C 102.98 110.29 105.58 109.34 107.97 107.98 Z" />
<path fill="#ab9e89" opacity="1.00" d=" M 138.26 104.41 C 140.04 103.07 141.75 104.89 143.36 105.63 C 147.09 108.09 151.29 109.68 155.09 111.99 C 155.76 115.08 152.40 113.99 150.83 113.10 C 146.51 110.87 142.00 108.79 138.17 105.77 C 138.19 105.43 138.23 104.75 138.26 104.41 Z" />
</g>
<g id="#dcd5c6ff">
<path fill="#dcd5c6" opacity="1.00" d=" M 80.30 9.45 C 85.08 9.38 88.26 13.61 91.13 16.86 C 94.48 20.59 96.68 25.25 100.24 28.78 C 106.12 26.81 111.81 24.07 118.05 23.32 C 128.14 21.89 138.57 23.24 148.03 27.01 C 149.75 27.41 151.86 29.18 153.29 27.32 C 158.62 22.28 162.58 15.99 167.73 10.78 C 169.31 9.26 171.61 7.28 173.90 8.66 C 175.97 10.62 176.36 13.58 176.89 16.24 C 168.05 19.81 162.36 31.19 167.04 40.00 C 168.22 42.80 171.80 43.88 174.37 42.31 C 175.78 39.30 176.29 35.97 176.89 32.72 C 177.20 39.85 175.34 46.86 175.32 53.96 C 183.81 68.80 190.41 84.69 195.92 100.87 C 191.28 105.26 185.99 108.90 181.36 113.31 C 179.36 115.33 177.04 117.93 177.65 121.01 C 178.28 123.25 181.11 123.52 183.01 122.95 C 189.50 121.20 194.65 116.60 199.90 112.64 C 201.03 116.04 202.08 119.47 203.07 122.91 C 199.03 126.57 194.21 129.48 190.98 133.95 C 189.53 135.76 189.13 139.37 191.97 140.03 C 197.38 140.43 201.73 136.50 206.07 133.85 C 206.82 136.22 207.54 138.60 208.09 141.03 C 204.88 143.99 200.01 147.00 201.12 152.11 C 204.33 153.25 207.45 151.79 210.37 150.56 C 213.19 163.19 215.57 176.00 215.96 188.97 C 216.32 196.37 213.20 203.81 207.75 208.82 C 203.44 213.04 198.14 216.01 192.86 218.84 C 189.15 220.92 185.13 223.24 183.27 227.27 C 181.79 230.26 182.17 233.67 182.09 236.90 C 175.70 238.95 169.12 240.42 162.46 241.28 C 168.33 230.11 172.33 218.05 175.19 205.78 C 173.90 205.55 172.61 205.31 171.32 205.08 C 168.43 217.31 164.16 229.17 158.60 240.43 L 158.53 240.41 C 153.45 238.95 147.01 237.14 142.40 240.51 C 140.98 228.60 141.80 216.55 143.94 204.79 C 142.65 204.89 141.36 204.90 140.07 204.81 C 137.34 217.47 137.01 230.62 138.83 243.44 C 130.24 243.91 121.66 243.98 113.07 243.47 C 114.50 231.59 114.80 219.40 112.37 207.64 C 112.06 205.53 109.89 205.12 108.14 204.93 C 109.98 216.14 110.82 227.58 109.59 238.91 C 104.21 238.74 98.65 238.40 93.54 240.41 C 87.99 229.39 83.85 217.73 80.90 205.76 C 79.70 205.86 78.56 206.13 77.46 206.58 C 77.09 207.74 77.63 208.94 77.86 210.08 C 80.79 220.84 84.47 231.41 89.62 241.32 C 74.81 239.35 59.15 234.71 49.07 222.99 C 40.92 213.39 36.99 200.50 37.57 187.98 C 38.04 175.99 40.11 164.11 42.77 152.43 C 45.65 153.39 50.27 156.61 52.35 152.95 C 52.75 148.27 47.91 145.68 45.02 142.81 C 45.72 139.89 46.47 136.98 47.24 134.08 C 51.46 136.64 55.73 140.44 60.98 140.01 C 63.53 139.61 63.60 136.32 62.40 134.58 C 59.40 129.86 54.44 126.93 50.32 123.30 C 51.29 120.10 52.26 116.91 53.26 113.72 C 58.54 117.58 63.58 122.21 70.01 124.05 C 71.94 124.66 74.59 124.62 75.68 122.60 C 76.51 119.52 74.27 116.77 72.25 114.73 C 67.50 110.16 62.02 106.43 57.26 101.86 C 62.73 85.84 69.19 70.09 77.36 55.24 C 77.58 48.05 75.07 40.90 76.09 33.69 C 77.02 36.70 77.96 39.70 78.74 42.75 C 81.22 42.91 84.34 43.32 85.69 40.65 C 91.07 31.89 85.32 19.57 76.03 16.25 C 76.70 13.73 77.13 9.88 80.30 9.45 M 103.75 42.74 C 102.35 43.73 102.61 46.78 104.78 45.83 C 107.46 43.34 110.52 40.62 111.21 36.84 C 107.54 36.50 105.90 40.47 103.75 42.74 M 113.49 37.52 C 111.14 40.49 108.61 43.52 107.59 47.25 C 108.19 47.27 109.38 47.29 109.97 47.30 C 112.35 44.83 114.27 41.92 115.90 38.91 C 116.52 37.44 114.25 36.26 113.49 37.52 M 134.78 36.77 C 134.70 41.14 138.22 44.72 141.09 47.67 C 144.09 47.05 141.92 44.51 141.02 42.98 C 139.23 40.69 138.03 37.25 134.78 36.77 M 139.52 38.05 C 140.78 41.23 143.44 43.75 145.95 46.03 C 146.52 45.75 147.67 45.20 148.25 44.92 C 146.61 42.52 144.91 40.13 142.86 38.06 C 142.19 36.93 139.50 35.82 139.52 38.05 M 81.40 57.95 C 80.21 58.54 79.08 59.30 78.38 60.46 C 74.02 66.55 72.81 74.74 75.24 81.83 C 77.36 88.52 82.63 94.04 89.14 96.64 C 86.56 97.15 84.88 99.57 83.55 101.66 C 80.29 107.53 81.31 114.50 81.45 120.91 C 82.52 140.00 86.06 159.87 97.19 175.86 C 103.87 185.59 114.94 193.02 127.06 192.69 C 139.33 192.58 149.93 184.25 156.40 174.37 C 167.21 157.74 170.81 137.58 171.68 118.07 C 171.89 111.90 172.31 104.92 168.14 99.84 C 166.80 98.39 165.22 96.14 162.92 96.91 C 174.78 92.96 182.00 78.95 177.86 67.06 C 176.66 64.16 175.66 60.46 172.54 59.09 C 168.82 53.82 162.51 50.35 156.01 50.39 C 150.90 50.38 145.90 52.50 142.13 55.89 C 136.87 58.30 133.90 63.98 132.54 69.36 C 130.45 78.11 134.38 87.30 141.10 92.98 L 139.98 92.34 C 139.80 93.05 139.43 94.47 139.24 95.18 C 139.69 92.60 137.05 91.24 134.95 90.82 C 129.70 89.59 124.20 89.69 118.89 90.41 C 116.72 90.52 115.23 92.22 113.70 93.54 C 113.54 92.99 113.23 91.89 113.08 91.34 C 119.68 84.51 121.97 73.74 118.12 64.95 C 116.15 60.86 113.41 56.25 108.74 54.98 C 100.68 48.54 87.88 49.93 81.40 57.95 Z" />
<path fill="#dcd5c6" opacity="1.00" d=" M 150.38 58.52 C 154.65 57.19 159.11 61.79 157.59 66.03 C 156.48 70.27 150.41 71.72 147.55 68.37 C 144.41 65.34 146.12 59.44 150.38 58.52 Z" />
<path fill="#dcd5c6" opacity="1.00" d=" M 90.30 59.40 C 94.12 57.02 99.52 60.63 98.85 65.05 C 98.59 69.27 93.16 71.81 89.78 69.20 C 86.30 66.97 86.62 61.25 90.30 59.40 Z" />
<path fill="#dcd5c6" opacity="1.00" d=" M 217.58 201.65 C 219.37 197.91 219.87 193.77 220.45 189.71 C 224.45 195.61 226.82 202.76 226.10 209.94 C 225.24 220.82 218.05 230.16 209.42 236.33 C 204.16 239.92 197.49 242.48 191.11 240.84 C 185.44 239.52 184.76 231.80 187.67 227.68 C 190.55 224.01 195.11 222.36 199.00 220.03 C 206.63 215.72 214.13 209.98 217.58 201.65 Z" />
</g>
<g id="#f6f1e7ff">
<path fill="#f6f1e7" opacity="1.00" d=" M 76.03 16.25 C 85.32 19.57 91.07 31.89 85.69 40.65 C 84.34 43.32 81.22 42.91 78.74 42.75 C 77.96 39.70 77.02 36.70 76.09 33.69 C 74.89 27.96 75.65 22.03 76.03 16.25 Z" />
<path fill="#f6f1e7" opacity="1.00" d=" M 167.04 40.00 C 162.36 31.19 168.05 19.81 176.89 16.24 C 177.24 21.72 177.61 27.25 176.89 32.72 C 176.29 35.97 175.78 39.30 174.37 42.31 C 171.80 43.88 168.22 42.80 167.04 40.00 Z" />
<path fill="#f6f1e7" opacity="1.00" d=" M 89.14 96.64 C 97.35 99.58 106.90 97.51 113.08 91.34 C 113.23 91.89 113.54 92.99 113.70 93.54 C 114.70 98.11 117.62 102.37 122.07 104.15 C 128.91 107.06 138.04 102.76 139.24 95.18 C 139.43 94.47 139.80 93.05 139.98 92.34 L 141.10 92.98 C 147.33 97.54 155.48 99.27 162.92 96.91 C 165.22 96.14 166.80 98.39 168.14 99.84 C 172.31 104.92 171.89 111.90 171.68 118.07 C 170.81 137.58 167.21 157.74 156.40 174.37 C 149.93 184.25 139.33 192.58 127.06 192.69 C 114.94 193.02 103.87 185.59 97.19 175.86 C 86.06 159.87 82.52 140.00 81.45 120.91 C 81.31 114.50 80.29 107.53 83.55 101.66 C 84.88 99.57 86.56 97.15 89.14 96.64 M 98.21 102.49 C 96.55 102.44 95.55 104.23 96.93 105.42 C 102.78 105.30 108.31 103.09 113.94 101.74 C 113.91 101.06 113.84 99.72 113.81 99.04 C 108.51 99.73 103.49 101.71 98.21 102.49 M 141.90 98.85 C 141.68 99.80 140.56 101.42 142.19 101.80 C 147.02 103.38 151.97 104.83 157.04 105.38 C 158.80 105.60 159.43 104.81 158.94 103.00 C 153.25 101.69 147.55 100.34 141.90 98.85 M 107.97 107.98 C 105.58 109.34 102.98 110.29 100.63 111.73 C 99.68 112.91 100.39 114.30 101.96 114.10 C 106.69 112.44 110.98 109.71 115.32 107.24 C 116.80 106.67 117.17 105.24 117.15 103.79 C 113.67 104.09 110.97 106.44 107.97 107.98 M 138.26 104.41 C 138.23 104.75 138.19 105.43 138.17 105.77 C 142.00 108.79 146.51 110.87 150.83 113.10 C 152.40 113.99 155.76 115.08 155.09 111.99 C 151.29 109.68 147.09 108.09 143.36 105.63 C 141.75 104.89 140.04 103.07 138.26 104.41 Z" />
<path fill="#f6f1e7" opacity="1.00" d=" M 93.54 240.41 C 98.65 238.40 104.21 238.74 109.59 238.91 C 109.13 242.84 108.80 248.77 103.92 249.65 C 98.72 249.68 95.30 244.76 93.54 240.41 Z" />
<path fill="#f6f1e7" opacity="1.00" d=" M 142.40 240.51 C 147.01 237.14 153.45 238.95 158.53 240.41 C 156.87 244.60 153.80 249.05 148.98 249.69 C 144.18 249.78 143.02 244.19 142.40 240.51 Z" />
</g>
<g id="#afa28eff">
<path fill="#afa28e" opacity="1.00" d=" M 103.75 42.74 C 105.90 40.47 107.54 36.50 111.21 36.84 C 110.52 40.62 107.46 43.34 104.78 45.83 C 102.61 46.78 102.35 43.73 103.75 42.74 Z" />
<path fill="#afa28e" opacity="1.00" d=" M 134.78 36.77 C 138.03 37.25 139.23 40.69 141.02 42.98 C 141.92 44.51 144.09 47.05 141.09 47.67 C 138.22 44.72 134.70 41.14 134.78 36.77 Z" />
</g>
<g id="#b0a38fff">
<path fill="#b0a38f" opacity="1.00" d=" M 113.49 37.52 C 114.25 36.26 116.52 37.44 115.90 38.91 C 114.27 41.92 112.35 44.83 109.97 47.30 C 109.38 47.29 108.19 47.27 107.59 47.25 C 108.61 43.52 111.14 40.49 113.49 37.52 Z" />
<path fill="#b0a38f" opacity="1.00" d=" M 139.52 38.05 C 139.50 35.82 142.19 36.93 142.86 38.06 C 144.91 40.13 146.61 42.52 148.25 44.92 C 147.67 45.20 146.52 45.75 145.95 46.03 C 143.44 43.75 140.78 41.23 139.52 38.05 Z" />
</g>
<g id="#541e00ff">
<path fill="#541e00" opacity="1.00" d=" M 81.40 57.95 C 87.88 49.93 100.68 48.54 108.74 54.98 C 113.05 59.25 115.72 65.02 115.36 71.17 C 114.77 80.20 107.04 88.07 97.97 88.56 C 89.24 89.44 80.89 83.35 78.31 75.10 C 76.86 69.19 78.13 63.03 81.40 57.95 M 90.30 59.40 C 86.62 61.25 86.30 66.97 89.78 69.20 C 93.16 71.81 98.59 69.27 98.85 65.05 C 99.52 60.63 94.12 57.02 90.30 59.40 M 99.46 77.41 C 97.91 78.62 95.60 80.75 97.09 82.84 C 101.66 84.13 106.19 80.73 108.16 76.77 C 105.86 73.87 101.90 75.67 99.46 77.41 Z" />
<path fill="#541e00" opacity="1.00" d=" M 142.13 55.89 C 145.90 52.50 150.90 50.38 156.01 50.39 C 162.51 50.35 168.82 53.82 172.54 59.09 C 175.17 64.09 176.03 69.84 174.69 75.35 C 172.04 83.62 163.75 89.78 154.96 89.08 C 145.41 88.79 137.21 80.49 136.66 71.01 C 136.49 65.44 138.54 60.12 142.13 55.89 M 150.38 58.52 C 146.12 59.44 144.41 65.34 147.55 68.37 C 150.41 71.72 156.48 70.27 157.59 66.03 C 159.11 61.79 154.65 57.19 150.38 58.52 M 157.13 81.08 C 156.36 83.45 159.26 83.91 160.94 83.38 C 164.57 82.49 168.74 79.87 168.49 75.62 C 164.05 74.67 159.13 77.00 157.13 81.08 Z" />
</g>
<g id="#ffffffff">
<path fill="#ffffff" opacity="1.00" d=" M 115.36 71.17 C 117.40 79.19 112.90 87.91 105.77 91.76 C 100.67 94.60 94.19 94.71 88.97 92.13 C 82.62 89.04 78.10 82.24 78.31 75.10 C 80.89 83.35 89.24 89.44 97.97 88.56 C 107.04 88.07 114.77 80.20 115.36 71.17 Z" />
<path fill="#ffffff" opacity="1.00" d=" M 154.93 93.96 C 143.76 93.71 133.72 82.16 136.66 71.01 C 137.21 80.49 145.41 88.79 154.96 89.08 C 163.75 89.78 172.04 83.62 174.69 75.35 C 174.83 85.62 165.15 94.65 154.93 93.96 Z" />
</g>
<g id="#817f7fff">
<path fill="#817f7f" opacity="1.00" d=" M 99.46 77.41 C 101.90 75.67 105.86 73.87 108.16 76.77 C 106.19 80.73 101.66 84.13 97.09 82.84 C 95.60 80.75 97.91 78.62 99.46 77.41 Z" />
<path fill="#817f7f" opacity="1.00" d=" M 157.13 81.08 C 159.13 77.00 164.05 74.67 168.49 75.62 C 168.74 79.87 164.57 82.49 160.94 83.38 C 159.26 83.91 156.36 83.45 157.13 81.08 Z" />
</g>
<g id="#dc1b6cff">
<path fill="#dc1b6c" opacity="1.00" d=" M 118.89 90.41 C 124.20 89.69 129.70 89.59 134.95 90.82 C 137.05 91.24 139.69 92.60 139.24 95.18 C 138.04 102.76 128.91 107.06 122.07 104.15 C 117.62 102.37 114.70 98.11 113.70 93.54 C 115.23 92.22 116.72 90.52 118.89 90.41 M 119.55 94.17 C 120.74 96.59 123.70 96.51 126.01 96.65 C 128.62 96.57 131.96 96.81 133.44 94.19 C 128.99 92.48 124.01 92.49 119.55 94.17 Z" />
</g>
<g id="#ffafb5ff">
<path fill="#ffafb5" opacity="1.00" d=" M 119.55 94.17 C 124.01 92.49 128.99 92.48 133.44 94.19 C 131.96 96.81 128.62 96.57 126.01 96.65 C 123.70 96.51 120.74 96.59 119.55 94.17 Z" />
</g>
<g id="#0000004c">
<path fill="#000000" opacity="0.30" d=" M 46.85 229.43 C 58.73 241.36 75.79 245.81 92.03 247.71 C 93.63 249.59 95.33 251.41 97.32 252.88 C 91.21 253.24 85.10 252.57 79.01 252.17 C 63.67 250.86 48.22 249.51 33.29 245.59 C 29.51 244.34 25.02 243.43 22.61 239.94 C 22.12 237.85 24.07 236.50 25.63 235.64 C 32.22 232.14 39.80 231.55 46.85 229.43 Z" />
<path fill="#000000" opacity="0.30" d=" M 193.03 247.56 C 205.59 247.86 216.79 239.98 224.16 230.35 C 229.96 232.45 236.41 233.01 241.63 236.54 C 243.22 237.47 243.98 240.11 242.17 241.23 C 238.38 244.36 233.35 245.31 228.72 246.55 C 209.42 250.81 189.62 252.09 169.93 253.21 C 164.52 253.39 159.10 253.90 153.69 253.49 C 156.22 251.89 158.37 249.80 160.34 247.56 C 168.00 246.96 175.34 244.69 182.71 242.67 C 185.35 245.63 189.00 247.61 193.03 247.56 Z" />
<path fill="#000000" opacity="0.30" d=" M 109.04 253.50 C 110.40 252.20 111.55 250.72 112.67 249.23 C 121.50 250.06 130.36 249.92 139.19 249.22 C 140.20 250.68 141.22 252.14 142.36 253.50 C 138.28 254.39 134.09 253.99 129.96 254.03 C 122.99 253.92 116.00 254.13 109.04 253.50 Z" />
</g>
</svg>
