<?xml version="1.0" encoding="UTF-8" ?>
<!DOCTYPE svg PUBLIC "-//W3C//DTD SVG 1.1//EN" "http://www.w3.org/Graphics/SVG/1.1/DTD/svg11.dtd">
<svg width="256pt" height="256pt" viewBox="0 0 256 256" version="1.1" xmlns="http://www.w3.org/2000/svg">
<g id="#f02b66ff">
<path fill="#f02b66" opacity="1.00" d=" M 101.64 9.97 C 101.60 3.59 110.89 -1.69 115.66 3.39 C 117.16 4.66 117.96 6.47 118.45 8.32 C 120.73 6.01 123.70 3.67 127.14 4.02 C 131.51 4.95 134.81 9.45 134.64 13.86 C 134.02 17.74 131.40 21.01 128.33 23.32 C 123.16 27.15 116.27 27.22 111.02 30.91 C 106.35 24.84 101.53 17.96 101.64 9.97 Z" />
<path fill="#f02b66" opacity="1.00" d=" M 53.12 16.80 C 53.47 11.47 62.41 8.85 64.81 13.96 C 66.00 20.45 60.75 25.73 56.81 30.22 C 52.34 27.59 46.89 26.51 43.15 22.76 C 41.02 20.61 41.38 16.66 44.01 15.07 C 46.89 12.97 51.26 13.67 53.12 16.80 Z" />
<path fill="#f02b66" opacity="1.00" d=" M 171.20 20.96 C 171.10 18.03 173.96 14.93 177.00 16.01 C 179.55 16.74 180.73 19.39 180.82 21.86 C 183.36 18.69 188.96 19.22 190.58 23.02 C 191.82 25.62 189.79 28.45 187.29 29.24 C 183.67 30.76 179.68 31.24 176.21 33.14 C 173.76 29.50 171.20 25.50 171.20 20.96 Z" />
</g>
<g id="#ab9e89ff">
<path fill="#ab9e89" opacity="1.00" d=" M 225.54 13.88 C 223.79 6.59 231.80 -0.47 238.82 2.27 C 245.30 5.24 250.82 10.74 253.54 17.37 C 255.57 26.35 254.52 36.45 249.12 44.12 C 242.89 53.03 232.30 57.22 222.36 60.51 C 215.76 62.48 211.48 68.46 208.52 74.33 C 206.47 76.03 204.19 77.43 202.02 78.96 C 201.65 71.60 206.33 65.24 211.26 60.27 C 216.75 54.69 224.96 54.01 231.63 50.50 C 238.81 47.27 245.44 41.60 247.48 33.71 C 248.88 27.59 249.48 20.40 245.54 15.06 C 243.44 11.97 240.75 8.92 236.98 7.99 C 234.35 7.17 231.32 9.24 231.26 12.03 C 232.09 15.93 235.51 18.56 238.91 20.23 C 241.28 26.43 239.92 34.31 234.68 38.66 C 230.34 42.05 224.75 43.03 219.60 44.61 C 213.25 46.31 207.09 48.93 201.76 52.83 C 196.05 57.21 189.78 61.55 186.96 68.48 C 182.54 67.72 178.53 65.56 174.13 64.71 C 167.55 63.29 160.76 63.53 154.12 64.34 C 153.58 69.17 153.13 74.05 151.65 78.70 C 150.10 83.91 147.57 88.73 145.53 93.74 C 156.31 104.50 160.92 120.02 161.09 134.95 C 161.17 143.74 159.98 152.62 156.96 160.91 C 156.18 160.89 154.62 160.85 153.85 160.84 C 153.82 155.95 155.87 151.41 156.37 146.59 C 158.43 131.30 156.30 114.67 147.18 101.85 C 145.40 99.04 142.31 97.08 141.03 94.01 C 145.03 84.46 150.40 74.81 149.73 64.09 C 149.42 61.98 149.18 59.04 146.67 58.46 C 141.11 56.82 135.39 59.05 130.39 61.40 C 123.76 64.70 117.20 68.62 112.35 74.33 C 110.90 75.92 109.55 77.65 107.78 78.90 C 106.41 79.12 104.90 77.75 105.55 76.37 C 107.04 73.81 109.26 71.79 111.19 69.57 C 100.66 65.44 89.03 64.07 77.89 66.26 C 79.05 70.16 80.87 73.89 81.57 77.92 C 80.85 79.35 79.70 80.24 78.26 79.02 C 76.28 75.08 75.64 70.57 73.22 66.83 C 69.77 61.44 65.81 56.24 60.78 52.23 C 59.65 51.61 58.50 50.21 57.09 50.75 C 54.20 52.72 52.61 56.00 51.05 59.02 C 47.33 66.94 44.75 75.35 42.76 83.86 C 42.32 86.06 41.24 88.05 39.76 89.73 C 27.25 104.30 20.98 123.90 22.11 143.02 C 23.25 164.22 33.65 184.48 49.39 198.58 C 51.01 200.03 52.37 201.76 53.29 203.74 C 60.47 219.19 72.73 232.62 88.28 239.85 C 93.04 241.74 98.09 244.69 103.36 243.05 C 102.99 238.92 100.01 235.91 97.87 232.60 C 96.38 230.24 95.05 227.78 93.65 225.37 C 87.96 223.14 81.68 221.38 77.11 217.16 C 77.14 216.67 77.21 215.70 77.24 215.21 C 87.90 220.97 100.02 223.63 112.06 224.06 C 110.28 220.90 105.73 217.56 108.85 213.78 C 118.18 223.37 124.40 236.39 136.56 242.98 C 141.94 246.21 147.67 250.30 154.30 249.18 C 154.52 244.31 151.68 240.18 150.23 235.73 C 147.98 229.57 145.72 223.35 142.15 217.82 C 141.45 216.35 140.15 214.93 140.27 213.24 C 140.23 211.50 142.51 212.24 143.57 212.11 C 145.45 215.30 147.02 218.72 149.39 221.60 C 151.32 222.17 153.36 221.57 155.28 221.19 C 165.86 218.42 176.05 213.86 184.94 207.46 C 182.47 204.61 180.09 201.68 177.88 198.63 C 178.63 197.81 179.37 196.99 180.11 196.15 C 186.31 201.40 190.08 209.04 196.71 213.82 C 201.13 216.69 205.71 219.81 211.05 220.55 C 212.85 220.84 214.94 219.85 215.29 217.93 C 216.10 213.83 213.57 210.20 211.77 206.75 C 209.39 201.02 206.68 195.25 205.85 189.04 C 205.22 185.41 208.09 182.64 209.65 179.67 C 220.06 161.78 226.65 140.91 224.62 120.05 C 224.31 116.56 227.47 114.91 229.82 113.11 C 234.27 139.23 225.77 165.96 211.70 187.87 C 213.28 197.96 219.64 206.75 220.41 217.04 C 220.71 220.79 218.05 225.28 213.98 225.37 C 203.73 226.19 194.27 220.55 187.16 213.65 C 184.31 215.42 181.40 217.07 178.41 218.58 C 179.05 221.40 179.92 225.11 177.08 227.07 C 172.05 231.57 164.73 228.99 159.80 225.66 C 157.68 226.21 155.56 226.75 153.43 227.27 C 156.13 234.04 159.25 240.80 160.22 248.08 C 161.06 252.69 156.03 255.68 151.98 255.25 C 144.37 254.73 137.62 250.67 131.25 246.79 C 124.31 242.69 119.49 236.08 114.27 230.11 C 110.37 229.88 106.49 229.43 102.63 228.86 C 105.36 234.14 110.23 239.47 108.73 245.84 C 105.37 250.00 98.98 250.27 94.19 248.71 C 75.91 242.89 60.72 229.29 51.21 212.82 C 49.04 209.58 48.24 205.41 45.15 202.84 C 31.06 190.08 20.96 172.78 17.43 154.05 C 14.33 137.98 16.26 121.05 22.65 105.99 C 24.28 102.07 26.39 98.38 28.63 94.78 C 30.77 90.94 33.90 87.79 36.25 84.10 C 37.91 79.77 38.50 75.11 40.09 70.74 C 40.74 68.93 41.35 67.10 41.99 65.28 C 44.33 59.00 46.85 52.51 51.50 47.54 C 53.95 44.86 58.12 43.57 61.41 45.55 C 67.69 49.04 72.09 54.97 76.38 60.57 C 88.87 57.71 102.01 59.56 113.86 64.12 C 121.93 59.01 130.27 53.49 139.92 52.07 C 145.37 51.31 152.36 52.56 154.68 58.25 C 164.45 56.99 174.57 57.70 183.78 61.35 C 186.63 57.07 190.76 53.94 194.68 50.71 C 198.99 47.12 203.80 44.12 208.96 41.91 C 214.49 39.51 220.43 38.32 226.13 36.42 C 228.71 35.53 231.47 34.26 232.77 31.71 C 234.13 29.33 233.95 26.48 234.05 23.83 C 230.89 20.83 226.15 18.72 225.54 13.88 M 165.64 222.36 C 167.74 223.07 170.20 224.57 172.39 223.41 C 174.03 222.68 173.00 220.55 173.11 219.21 C 170.60 220.22 168.11 221.26 165.64 222.36 Z" />
<path fill="#ab9e89" opacity="1.00" d=" M 35.04 121.10 C 34.07 111.37 43.62 103.03 53.07 104.06 C 62.32 104.41 69.78 113.92 67.73 123.01 C 66.34 131.68 57.17 137.23 48.77 136.06 C 47.61 135.79 46.45 135.52 45.30 135.23 C 40.10 132.26 35.26 127.45 35.04 121.10 M 49.24 108.24 C 44.66 109.11 40.50 112.59 39.35 117.19 C 37.38 124.06 43.06 131.12 49.89 131.86 C 56.91 133.22 64.26 127.26 63.99 120.03 C 64.30 112.51 56.45 106.48 49.24 108.24 Z" />
<path fill="#ab9e89" opacity="1.00" d=" M 87.08 128.88 C 87.63 120.71 94.58 113.26 102.93 113.04 C 112.30 112.38 120.86 120.69 120.98 129.98 C 121.45 138.56 114.66 146.57 106.24 147.88 C 101.50 146.91 96.64 145.95 92.31 143.72 C 88.79 139.66 86.46 134.34 87.08 128.88 M 100.35 117.48 C 94.16 119.20 90.28 125.91 91.09 132.14 C 91.63 138.18 96.69 143.71 102.90 143.96 C 110.53 144.64 117.49 137.55 116.98 129.97 C 116.84 121.87 108.27 115.01 100.35 117.48 Z" />
<path fill="#ab9e89" opacity="1.00" d=" M 43.67 146.55 C 45.04 146.50 46.41 146.39 47.77 146.30 C 50.14 149.02 53.12 151.57 56.90 151.76 C 62.20 152.53 67.29 149.91 70.62 145.91 C 71.86 146.03 73.11 146.09 74.36 146.10 C 76.82 156.35 89.47 162.20 98.81 157.13 C 99.76 157.42 100.73 157.66 101.71 157.88 L 102.22 157.05 C 102.52 156.59 103.10 155.67 103.39 155.21 C 103.88 156.09 104.38 156.96 104.89 157.82 C 97.79 164.23 86.68 164.44 78.81 159.29 C 73.59 161.88 66.76 161.82 62.35 157.67 C 59.96 154.91 56.08 156.20 53.01 155.00 C 48.78 153.75 45.61 150.40 43.67 146.55 M 65.08 155.06 C 68.06 157.06 71.66 157.36 75.13 156.80 C 74.30 154.68 73.04 152.77 71.75 150.90 C 69.55 152.33 67.31 153.69 65.08 155.06 Z" />
</g>
<g id="#f6f1e7ff">
<path fill="#f6f1e7" opacity="1.00" d=" M 231.26 12.03 C 231.32 9.24 234.35 7.17 236.98 7.99 C 240.75 8.92 243.44 11.97 245.54 15.06 C 243.33 16.78 241.09 18.47 238.91 20.23 C 235.51 18.56 232.09 15.93 231.26 12.03 Z" />
<path fill="#f6f1e7" opacity="1.00" d=" M 55.23 61.11 C 58.66 61.20 60.44 64.40 61.87 67.07 C 63.77 70.90 65.49 74.88 66.39 79.08 C 65.94 80.40 64.35 80.69 63.28 81.34 C 59.32 83.05 55.10 84.50 50.72 84.27 C 50.83 76.41 51.63 68.21 55.23 61.11 Z" />
<path fill="#f6f1e7" opacity="1.00" d=" M 122.05 74.04 C 126.29 70.52 130.63 66.58 136.14 65.28 C 138.13 64.69 140.69 65.76 140.90 68.01 C 141.66 74.45 139.53 80.77 137.86 86.90 C 137.29 89.00 135.89 92.46 133.09 90.96 C 127.19 88.49 122.34 84.13 116.79 81.02 C 116.88 77.75 119.94 76.05 122.05 74.04 Z" />
<path fill="#f6f1e7" opacity="1.00" d=" M 62.80 182.81 C 67.34 177.46 75.44 175.28 81.98 177.99 C 85.98 179.67 89.36 182.56 92.19 185.80 C 99.24 194.16 103.81 204.17 108.85 213.78 C 105.73 217.56 110.28 220.90 112.06 224.06 C 100.02 223.63 87.90 220.97 77.24 215.21 C 71.09 211.80 65.16 207.25 62.16 200.70 C 59.42 195.18 58.72 187.87 62.80 182.81 Z" />
<path fill="#f6f1e7" opacity="1.00" d=" M 161.71 208.83 C 167.62 206.40 173.62 203.56 177.88 198.63 C 180.09 201.68 182.47 204.61 184.94 207.46 C 176.05 213.86 165.86 218.42 155.28 221.19 C 153.36 221.57 151.32 222.17 149.39 221.60 C 147.02 218.72 145.45 215.30 143.57 212.11 C 149.81 212.95 155.97 211.13 161.71 208.83 Z" />
<path fill="#f6f1e7" opacity="1.00" d=" M 196.71 213.82 C 202.02 212.14 207.03 209.67 211.77 206.75 C 213.57 210.20 216.10 213.83 215.29 217.93 C 214.94 219.85 212.85 220.84 211.05 220.55 C 205.71 219.81 201.13 216.69 196.71 213.82 Z" />
<path fill="#f6f1e7" opacity="1.00" d=" M 165.64 222.36 C 168.11 221.26 170.60 220.22 173.11 219.21 C 173.00 220.55 174.03 222.68 172.39 223.41 C 170.20 224.57 167.74 223.07 165.64 222.36 Z" />
<path fill="#f6f1e7" opacity="1.00" d=" M 88.28 239.85 C 91.62 237.63 94.86 235.26 97.87 232.60 C 100.01 235.91 102.99 238.92 103.36 243.05 C 98.09 244.69 93.04 241.74 88.28 239.85 Z" />
<path fill="#f6f1e7" opacity="1.00" d=" M 136.56 242.98 C 141.64 241.69 146.31 239.20 150.23 235.73 C 151.68 240.18 154.52 244.31 154.30 249.18 C 147.67 250.30 141.94 246.21 136.56 242.98 Z" />
</g>
<g id="#dcd5c6ff">
<path fill="#dcd5c6" opacity="1.00" d=" M 245.54 15.06 C 249.48 20.40 248.88 27.59 247.48 33.71 C 245.44 41.60 238.81 47.27 231.63 50.50 C 224.96 54.01 216.75 54.69 211.26 60.27 C 206.33 65.24 201.65 71.60 202.02 78.96 C 195.20 84.32 187.42 88.83 178.90 90.73 C 175.28 91.62 170.43 91.22 168.41 95.05 C 169.83 98.47 174.49 96.96 177.41 97.41 C 176.89 97.54 175.85 97.78 175.33 97.91 C 173.44 98.28 171.52 98.50 169.61 98.72 C 168.67 100.33 167.72 101.95 166.73 103.53 C 165.38 104.21 163.53 104.41 162.84 105.96 C 161.35 108.48 163.83 111.02 164.75 113.30 C 168.81 120.36 173.66 128.49 182.09 130.65 C 187.29 132.01 191.61 128.33 195.04 124.97 C 200.35 126.41 206.63 129.37 211.72 125.77 C 214.72 123.76 213.88 119.79 214.81 116.78 C 217.89 116.56 220.97 116.85 224.05 117.01 C 224.25 118.02 224.44 119.03 224.62 120.05 C 226.65 140.91 220.06 161.78 209.65 179.67 C 208.09 182.64 205.22 185.41 205.85 189.04 C 206.68 195.25 209.39 201.02 211.77 206.75 C 207.03 209.67 202.02 212.14 196.71 213.82 C 190.08 209.04 186.31 201.40 180.11 196.15 C 179.37 196.99 178.63 197.81 177.88 198.63 C 173.62 203.56 167.62 206.40 161.71 208.83 C 155.97 211.13 149.81 212.95 143.57 212.11 C 142.51 212.24 140.23 211.50 140.27 213.24 C 140.15 214.93 141.45 216.35 142.15 217.82 C 145.72 223.35 147.98 229.57 150.23 235.73 C 146.31 239.20 141.64 241.69 136.56 242.98 C 124.40 236.39 118.18 223.37 108.85 213.78 C 103.81 204.17 99.24 194.16 92.19 185.80 C 89.36 182.56 85.98 179.67 81.98 177.99 C 75.44 175.28 67.34 177.46 62.80 182.81 C 58.72 187.87 59.42 195.18 62.16 200.70 C 65.16 207.25 71.09 211.80 77.24 215.21 C 77.21 215.70 77.14 216.67 77.11 217.16 C 81.68 221.38 87.96 223.14 93.65 225.37 C 95.05 227.78 96.38 230.24 97.87 232.60 C 94.86 235.26 91.62 237.63 88.28 239.85 C 72.73 232.62 60.47 219.19 53.29 203.74 C 52.37 201.76 51.01 200.03 49.39 198.58 C 33.65 184.48 23.25 164.22 22.11 143.02 C 20.98 123.90 27.25 104.30 39.76 89.73 C 41.24 88.05 42.32 86.06 42.76 83.86 C 44.75 75.35 47.33 66.94 51.05 59.02 C 52.61 56.00 54.20 52.72 57.09 50.75 C 58.50 50.21 59.65 51.61 60.78 52.23 C 65.81 56.24 69.77 61.44 73.22 66.83 C 75.64 70.57 76.28 75.08 78.26 79.02 C 79.70 80.24 80.85 79.35 81.57 77.92 C 80.87 73.89 79.05 70.16 77.89 66.26 C 89.03 64.07 100.66 65.44 111.19 69.57 C 109.26 71.79 107.04 73.81 105.55 76.37 C 104.90 77.75 106.41 79.12 107.78 78.90 C 109.55 77.65 110.90 75.92 112.35 74.33 C 117.20 68.62 123.76 64.70 130.39 61.40 C 135.39 59.05 141.11 56.82 146.67 58.46 C 149.18 59.04 149.42 61.98 149.73 64.09 C 150.40 74.81 145.03 84.46 141.03 94.01 C 142.31 97.08 145.40 99.04 147.18 101.85 C 156.30 114.67 158.43 131.30 156.37 146.59 C 155.87 151.41 153.82 155.95 153.85 160.84 C 154.62 160.85 156.18 160.89 156.96 160.91 C 159.98 152.62 161.17 143.74 161.09 134.95 C 160.92 120.02 156.31 104.50 145.53 93.74 C 147.57 88.73 150.10 83.91 151.65 78.70 C 153.13 74.05 153.58 69.17 154.12 64.34 C 160.76 63.53 167.55 63.29 174.13 64.71 C 178.53 65.56 182.54 67.72 186.96 68.48 C 189.78 61.55 196.05 57.21 201.76 52.83 C 207.09 48.93 213.25 46.31 219.60 44.61 C 224.75 43.03 230.34 42.05 234.68 38.66 C 239.92 34.31 241.28 26.43 238.91 20.23 C 241.09 18.47 243.33 16.78 245.54 15.06 M 55.23 61.11 C 51.63 68.21 50.83 76.41 50.72 84.27 C 55.10 84.50 59.32 83.05 63.28 81.34 C 64.35 80.69 65.94 80.40 66.39 79.08 C 65.49 74.88 63.77 70.90 61.87 67.07 C 60.44 64.40 58.66 61.20 55.23 61.11 M 122.05 74.04 C 119.94 76.05 116.88 77.75 116.79 81.02 C 122.34 84.13 127.19 88.49 133.09 90.96 C 135.89 92.46 137.29 89.00 137.86 86.90 C 139.53 80.77 141.66 74.45 140.90 68.01 C 140.69 65.76 138.13 64.69 136.14 65.28 C 130.63 66.58 126.29 70.52 122.05 74.04 M 62.93 89.98 C 62.21 94.58 61.98 99.28 62.18 103.93 C 62.24 105.22 64.57 105.08 64.79 103.93 C 65.27 99.27 65.73 94.53 65.29 89.85 C 64.70 89.88 63.52 89.95 62.93 89.98 M 54.29 92.19 C 54.65 95.87 55.02 99.57 56.24 103.08 C 57.06 102.55 58.75 102.41 58.48 101.04 C 58.30 97.92 57.57 94.87 56.98 91.81 C 56.31 91.91 54.96 92.10 54.29 92.19 M 97.16 94.16 C 94.98 99.34 93.07 104.70 91.91 110.20 C 92.43 110.22 93.48 110.26 94.01 110.28 C 96.60 106.75 97.11 101.95 98.84 97.90 C 99.75 96.34 99.89 93.10 97.16 94.16 M 104.50 97.34 C 102.14 101.35 99.88 105.47 98.24 109.83 C 98.74 110.12 99.73 110.68 100.23 110.97 C 103.03 106.64 105.95 102.11 107.05 97.02 C 106.42 97.10 105.14 97.26 104.50 97.34 M 35.04 121.10 C 35.26 127.45 40.10 132.26 45.30 135.23 C 43.42 134.97 41.52 134.94 39.63 134.89 C 39.57 136.46 40.16 138.03 41.98 137.99 C 46.08 138.80 50.12 140.20 54.30 140.48 C 54.54 140.12 55.02 139.40 55.26 139.04 C 54.10 136.83 50.92 136.91 48.77 136.06 C 57.17 137.23 66.34 131.68 67.73 123.01 C 69.78 113.92 62.32 104.41 53.07 104.06 C 43.62 103.03 34.07 111.37 35.04 121.10 M 87.08 128.88 C 86.46 134.34 88.79 139.66 92.31 143.72 C 91.76 144.14 90.66 144.98 90.11 145.41 C 91.07 147.63 93.69 147.74 95.71 148.39 C 99.08 149.16 102.34 150.53 105.82 150.78 C 107.05 150.22 106.31 148.81 106.24 147.88 C 114.66 146.57 121.45 138.56 120.98 129.98 C 120.86 120.69 112.30 112.38 102.93 113.04 C 94.58 113.26 87.63 120.71 87.08 128.88 M 61.82 137.99 C 63.65 141.60 67.17 144.00 70.62 145.91 C 67.29 149.91 62.20 152.53 56.90 151.76 C 53.12 151.57 50.14 149.02 47.77 146.30 C 50.19 146.12 52.63 146.12 55.04 145.83 C 56.70 146.04 56.66 144.35 56.96 143.22 C 51.62 142.76 46.25 143.24 40.93 143.84 C 40.51 145.74 41.87 146.86 43.67 146.55 C 45.61 150.40 48.78 153.75 53.01 155.00 C 56.08 156.20 59.96 154.91 62.35 157.67 C 66.76 161.82 73.59 161.88 78.81 159.29 C 86.68 164.44 97.79 164.23 104.89 157.82 C 104.38 156.96 103.88 156.09 103.39 155.21 C 103.10 155.67 102.52 156.59 102.22 157.05 C 102.11 156.61 101.88 155.72 101.77 155.28 C 98.23 153.04 94.42 151.24 90.69 149.35 C 89.17 148.26 86.69 148.71 87.94 151.02 C 91.38 153.35 95.27 154.94 98.81 157.13 C 89.47 162.20 76.82 156.35 74.36 146.10 C 78.61 145.65 84.02 145.23 86.23 140.93 C 86.49 138.70 84.07 137.50 82.42 136.62 C 76.98 134.27 70.83 133.06 64.93 134.00 C 63.08 134.26 60.65 135.83 61.82 137.99 Z" />
<path fill="#dcd5c6" opacity="1.00" d=" M 65.08 155.06 C 67.31 153.69 69.55 152.33 71.75 150.90 C 73.04 152.77 74.30 154.68 75.13 156.80 C 71.66 157.36 68.06 157.06 65.08 155.06 Z" />
</g>
<g id="#b8af9cff">
<path fill="#b8af9c" opacity="1.00" d=" M 2.41 38.09 C 2.99 33.66 7.72 30.49 12.06 31.45 C 15.61 31.67 17.67 34.92 19.34 37.67 C 22.21 42.11 23.98 47.37 28.00 50.98 C 32.83 55.60 36.81 61.04 41.99 65.28 C 41.35 67.10 40.74 68.93 40.09 70.74 L 39.89 71.13 C 33.50 66.21 28.20 60.13 22.68 54.30 C 18.06 49.31 15.71 42.78 11.65 37.39 C 10.67 37.51 9.68 37.64 8.70 37.78 C 6.21 44.86 16.48 48.46 15.60 55.30 C 12.23 55.82 8.64 56.33 6.20 58.98 C 6.16 59.54 6.08 60.65 6.04 61.21 C 9.20 65.19 14.47 65.47 18.89 67.12 C 21.05 67.70 20.17 70.32 20.44 71.94 C 16.32 71.27 10.22 72.01 10.13 77.39 C 14.07 78.91 18.31 79.33 22.29 80.70 C 23.89 81.29 23.95 83.28 24.66 84.60 C 22.26 84.81 19.88 85.22 17.53 85.72 C 17.30 87.17 17.07 88.62 16.84 90.06 C 20.52 92.22 24.70 93.21 28.63 94.78 C 26.39 98.38 24.28 102.07 22.65 105.99 C 20.91 103.79 19.93 101.15 20.11 98.33 C 16.87 96.99 13.39 95.49 11.39 92.45 C 10.56 89.80 10.90 86.89 11.77 84.30 C 8.97 83.50 5.97 82.11 4.79 79.24 C 3.31 75.96 4.65 72.13 7.19 69.79 C 4.10 67.72 0.09 65.21 0.14 61.00 C -0.13 56.35 3.30 52.53 7.22 50.56 C 4.72 46.88 1.83 42.78 2.41 38.09 Z" />
<path fill="#b8af9c" opacity="1.00" d=" M 235.45 57.52 C 240.89 56.24 247.74 59.06 249.03 64.89 C 249.98 70.65 245.52 75.34 241.48 78.77 C 245.19 81.94 247.83 87.23 245.92 92.08 C 244.02 97.09 238.88 99.73 234.12 101.42 C 234.40 105.64 233.04 110.24 229.82 113.11 C 227.47 114.91 224.31 116.56 224.62 120.05 C 224.44 119.03 224.25 118.02 224.05 117.01 C 220.97 116.85 217.89 116.56 214.81 116.78 C 213.88 119.79 214.72 123.76 211.72 125.77 C 206.63 129.37 200.35 126.41 195.04 124.97 C 191.61 128.33 187.29 132.01 182.09 130.65 C 173.66 128.49 168.81 120.36 164.75 113.30 C 163.83 111.02 161.35 108.48 162.84 105.96 C 163.53 104.41 165.38 104.21 166.73 103.53 C 170.27 110.99 173.88 119.19 181.02 123.89 C 183.50 125.68 186.51 124.62 188.73 122.99 C 188.89 120.87 187.98 117.38 191.06 117.16 C 196.87 118.36 202.19 122.24 208.37 121.24 C 209.24 117.91 207.94 114.66 205.42 112.42 C 206.24 111.48 206.42 109.61 207.94 109.56 C 212.86 109.66 217.74 111.63 222.67 110.63 C 224.87 110.22 226.31 108.37 227.32 106.53 C 227.50 105.58 227.69 104.63 227.87 103.67 C 226.43 102.45 225.01 101.21 223.58 100.00 C 224.16 99.04 224.76 98.08 225.36 97.12 C 230.32 96.18 235.97 95.43 239.47 91.38 C 241.09 89.77 240.38 87.50 239.79 85.63 C 237.72 83.79 235.19 82.61 232.66 81.59 C 232.64 80.16 231.60 78.21 233.15 77.25 C 236.49 74.85 239.95 72.52 242.52 69.24 C 243.06 68.27 244.35 66.90 243.25 65.84 C 241.00 62.70 236.70 63.17 233.52 64.39 C 224.78 67.57 218.47 74.73 211.10 80.08 C 200.94 87.60 189.95 94.73 177.41 97.41 C 174.49 96.96 169.83 98.47 168.41 95.05 C 170.43 91.22 175.28 91.62 178.90 90.73 C 187.42 88.83 195.20 84.32 202.02 78.96 C 204.19 77.43 206.47 76.03 208.52 74.33 C 216.76 67.74 224.70 59.67 235.45 57.52 Z" />
</g>
<g id="#ffffffff">
<path fill="#ffffff" opacity="1.00" d=" M 8.70 37.78 C 9.68 37.64 10.67 37.51 11.65 37.39 C 15.71 42.78 18.06 49.31 22.68 54.30 C 28.20 60.13 33.50 66.21 39.89 71.13 C 38.55 71.81 37.15 73.65 35.54 72.49 C 30.49 69.69 26.71 65.18 22.61 61.20 C 22.06 62.28 21.51 63.36 20.96 64.43 C 18.78 63.45 16.65 62.29 14.32 61.68 C 11.43 61.06 7.36 62.79 6.20 58.98 C 8.64 56.33 12.23 55.82 15.60 55.30 C 16.48 48.46 6.21 44.86 8.70 37.78 Z" />
<path fill="#ffffff" opacity="1.00" d=" M 233.52 64.39 C 236.70 63.17 241.00 62.70 243.25 65.84 C 244.35 66.90 243.06 68.27 242.52 69.24 C 239.50 68.64 236.20 67.74 233.31 69.30 C 226.59 72.55 221.79 78.56 215.57 82.57 C 203.65 90.51 191.43 99.02 177.12 101.87 C 176.52 100.55 175.92 99.23 175.33 97.91 C 175.85 97.78 176.89 97.54 177.41 97.41 C 189.95 94.73 200.94 87.60 211.10 80.08 C 218.47 74.73 224.78 67.57 233.52 64.39 Z" />
<path fill="#ffffff" opacity="1.00" d=" M 10.13 77.39 C 10.22 72.01 16.32 71.27 20.44 71.94 C 22.06 72.69 23.65 73.51 25.26 74.29 C 25.03 75.54 24.99 77.75 23.04 76.96 C 18.75 75.96 14.35 76.10 10.13 77.39 Z" />
<path fill="#ffffff" opacity="1.00" d=" M 214.69 88.80 C 219.75 84.61 226.26 82.63 232.66 81.59 C 235.19 82.61 237.72 83.79 239.79 85.63 C 238.95 87.02 239.29 89.81 237.15 89.88 C 235.33 88.76 233.81 87.17 231.88 86.24 C 225.52 85.78 220.62 90.58 214.87 92.41 C 214.76 91.27 213.56 89.78 214.69 88.80 Z" />
<path fill="#ffffff" opacity="1.00" d=" M 17.53 85.72 C 19.88 85.22 22.26 84.81 24.66 84.60 C 26.39 85.39 29.31 86.34 28.04 88.82 C 24.75 89.33 21.41 89.10 18.09 89.00 C 17.95 88.18 17.67 86.54 17.53 85.72 Z" />
<path fill="#ffffff" opacity="1.00" d=" M 62.93 89.98 C 63.52 89.95 64.70 89.88 65.29 89.85 C 65.73 94.53 65.27 99.27 64.79 103.93 C 64.57 105.08 62.24 105.22 62.18 103.93 C 61.98 99.28 62.21 94.58 62.93 89.98 Z" />
<path fill="#ffffff" opacity="1.00" d=" M 54.29 92.19 C 54.96 92.10 56.31 91.91 56.98 91.81 C 57.57 94.87 58.30 97.92 58.48 101.04 C 58.75 102.41 57.06 102.55 56.24 103.08 C 55.02 99.57 54.65 95.87 54.29 92.19 Z" />
<path fill="#ffffff" opacity="1.00" d=" M 97.16 94.16 C 99.89 93.10 99.75 96.34 98.84 97.90 C 97.11 101.95 96.60 106.75 94.01 110.28 C 93.48 110.26 92.43 110.22 91.91 110.20 C 93.07 104.70 94.98 99.34 97.16 94.16 Z" />
<path fill="#ffffff" opacity="1.00" d=" M 104.50 97.34 C 105.14 97.26 106.42 97.10 107.05 97.02 C 105.95 102.11 103.03 106.64 100.23 110.97 C 99.73 110.68 98.74 110.12 98.24 109.83 C 99.88 105.47 102.14 101.35 104.50 97.34 Z" />
<path fill="#ffffff" opacity="1.00" d=" M 204.17 98.93 C 210.11 95.66 218.03 96.03 223.58 100.00 C 225.01 101.21 226.43 102.45 227.87 103.67 C 227.69 104.63 227.50 105.58 227.32 106.53 C 226.33 106.53 225.35 106.53 224.38 106.54 C 222.27 104.70 220.35 102.47 217.71 101.40 C 214.18 100.27 210.49 101.39 206.90 101.45 C 205.42 101.64 205.05 99.69 204.17 98.93 Z" />
<path fill="#ffffff" opacity="1.00" d=" M 49.24 108.24 C 56.45 106.48 64.30 112.51 63.99 120.03 C 64.26 127.26 56.91 133.22 49.89 131.86 C 43.06 131.12 37.38 124.06 39.35 117.19 C 40.50 112.59 44.66 109.11 49.24 108.24 M 52.27 111.25 C 48.10 113.27 47.89 119.89 51.95 122.15 C 55.82 124.83 61.68 121.68 61.63 116.97 C 61.94 112.29 56.29 108.81 52.27 111.25 Z" />
<path fill="#ffffff" opacity="1.00" d=" M 190.98 107.79 C 196.11 108.01 201.19 109.46 205.42 112.42 C 207.94 114.66 209.24 117.91 208.37 121.24 C 205.59 119.53 203.83 116.72 201.40 114.62 C 197.85 112.65 193.71 112.16 189.89 110.94 C 190.24 109.89 190.61 108.84 190.98 107.79 Z" />
<path fill="#ffffff" opacity="1.00" d=" M 174.87 112.21 C 177.09 108.94 180.54 111.50 182.98 113.02 C 185.44 114.67 187.53 117.09 188.15 120.05 C 189.09 121.82 187.12 122.76 186.02 123.62 C 184.80 121.63 183.77 119.52 182.32 117.68 C 180.11 115.48 176.69 114.86 174.87 112.21 Z" />
<path fill="#ffffff" opacity="1.00" d=" M 100.35 117.48 C 108.27 115.01 116.84 121.87 116.98 129.97 C 117.49 137.55 110.53 144.64 102.90 143.96 C 96.69 143.71 91.63 138.18 91.09 132.14 C 90.28 125.91 94.16 119.20 100.35 117.48 M 104.40 119.52 C 99.22 120.36 96.99 127.51 100.78 131.12 C 104.09 134.87 110.98 133.37 112.37 128.55 C 114.28 123.74 109.38 118.27 104.40 119.52 Z" />
<path fill="#ffffff" opacity="1.00" d=" M 39.63 134.89 C 41.52 134.94 43.42 134.97 45.30 135.23 C 46.45 135.52 47.61 135.79 48.77 136.06 C 50.92 136.91 54.10 136.83 55.26 139.04 C 55.02 139.40 54.54 140.12 54.30 140.48 C 50.12 140.20 46.08 138.80 41.98 137.99 C 40.16 138.03 39.57 136.46 39.63 134.89 Z" />
<path fill="#ffffff" opacity="1.00" d=" M 40.93 143.84 C 46.25 143.24 51.62 142.76 56.96 143.22 C 56.66 144.35 56.70 146.04 55.04 145.83 C 52.63 146.12 50.19 146.12 47.77 146.30 C 46.41 146.39 45.04 146.50 43.67 146.55 C 41.87 146.86 40.51 145.74 40.93 143.84 Z" />
<path fill="#ffffff" opacity="1.00" d=" M 90.11 145.41 C 90.66 144.98 91.76 144.14 92.31 143.72 C 96.64 145.95 101.50 146.91 106.24 147.88 C 106.31 148.81 107.05 150.22 105.82 150.78 C 102.34 150.53 99.08 149.16 95.71 148.39 C 93.69 147.74 91.07 147.63 90.11 145.41 Z" />
<path fill="#ffffff" opacity="1.00" d=" M 87.94 151.02 C 86.69 148.71 89.17 148.26 90.69 149.35 C 94.42 151.24 98.23 153.04 101.77 155.28 C 101.88 155.72 102.11 156.61 102.22 157.05 L 101.71 157.88 C 100.73 157.66 99.76 157.42 98.81 157.13 C 95.27 154.94 91.38 153.35 87.94 151.02 Z" />
</g>
<g id="#f0ebe0ff">
<path fill="#f0ebe0" opacity="1.00" d=" M 6.04 61.21 C 6.08 60.65 6.16 59.54 6.20 58.98 C 7.36 62.79 11.43 61.06 14.32 61.68 C 16.65 62.29 18.78 63.45 20.96 64.43 C 21.51 63.36 22.06 62.28 22.61 61.20 C 26.71 65.18 30.49 69.69 35.54 72.49 C 37.15 73.65 38.55 71.81 39.89 71.13 L 40.09 70.74 C 38.50 75.11 37.91 79.77 36.25 84.10 C 33.90 87.79 30.77 90.94 28.63 94.78 C 24.70 93.21 20.52 92.22 16.84 90.06 C 17.07 88.62 17.30 87.17 17.53 85.72 C 17.67 86.54 17.95 88.18 18.09 89.00 C 21.41 89.10 24.75 89.33 28.04 88.82 C 29.31 86.34 26.39 85.39 24.66 84.60 C 23.95 83.28 23.89 81.29 22.29 80.70 C 18.31 79.33 14.07 78.91 10.13 77.39 C 14.35 76.10 18.75 75.96 23.04 76.96 C 24.99 77.75 25.03 75.54 25.26 74.29 C 23.65 73.51 22.06 72.69 20.44 71.94 C 20.17 70.32 21.05 67.70 18.89 67.12 C 14.47 65.47 9.20 65.19 6.04 61.21 Z" />
<path fill="#f0ebe0" opacity="1.00" d=" M 233.31 69.30 C 236.20 67.74 239.50 68.64 242.52 69.24 C 239.95 72.52 236.49 74.85 233.15 77.25 C 231.60 78.21 232.64 80.16 232.66 81.59 C 226.26 82.63 219.75 84.61 214.69 88.80 C 213.56 89.78 214.76 91.27 214.87 92.41 C 220.62 90.58 225.52 85.78 231.88 86.24 C 233.81 87.17 235.33 88.76 237.15 89.88 C 239.29 89.81 238.95 87.02 239.79 85.63 C 240.38 87.50 241.09 89.77 239.47 91.38 C 235.97 95.43 230.32 96.18 225.36 97.12 C 224.76 98.08 224.16 99.04 223.58 100.00 C 218.03 96.03 210.11 95.66 204.17 98.93 C 205.05 99.69 205.42 101.64 206.90 101.45 C 210.49 101.39 214.18 100.27 217.71 101.40 C 220.35 102.47 222.27 104.70 224.38 106.54 C 225.35 106.53 226.33 106.53 227.32 106.53 C 226.31 108.37 224.87 110.22 222.67 110.63 C 217.74 111.63 212.86 109.66 207.94 109.56 C 206.42 109.61 206.24 111.48 205.42 112.42 C 201.19 109.46 196.11 108.01 190.98 107.79 C 190.61 108.84 190.24 109.89 189.89 110.94 C 193.71 112.16 197.85 112.65 201.40 114.62 C 203.83 116.72 205.59 119.53 208.37 121.24 C 202.19 122.24 196.87 118.36 191.06 117.16 C 187.98 117.38 188.89 120.87 188.73 122.99 C 186.51 124.62 183.50 125.68 181.02 123.89 C 173.88 119.19 170.27 110.99 166.73 103.53 C 167.72 101.95 168.67 100.33 169.61 98.72 C 171.52 98.50 173.44 98.28 175.33 97.91 C 175.92 99.23 176.52 100.55 177.12 101.87 C 191.43 99.02 203.65 90.51 215.57 82.57 C 221.79 78.56 226.59 72.55 233.31 69.30 M 174.87 112.21 C 176.69 114.86 180.11 115.48 182.32 117.68 C 183.77 119.52 184.80 121.63 186.02 123.62 C 187.12 122.76 189.09 121.82 188.15 120.05 C 187.53 117.09 185.44 114.67 182.98 113.02 C 180.54 111.50 177.09 108.94 174.87 112.21 Z" />
</g>
<g id="#6073bbff">
<path fill="#6073bb" opacity="1.00" d=" M 52.27 111.25 C 56.29 108.81 61.94 112.29 61.63 116.97 C 61.68 121.68 55.82 124.83 51.95 122.15 C 47.89 119.89 48.10 113.27 52.27 111.25 Z" />
<path fill="#6073bb" opacity="1.00" d=" M 104.40 119.52 C 109.38 118.27 114.28 123.74 112.37 128.55 C 110.98 133.37 104.09 134.87 100.78 131.12 C 96.99 127.51 99.22 120.36 104.40 119.52 Z" />
</g>
<g id="#dc1b6cff">
<path fill="#dc1b6c" opacity="1.00" d=" M 61.82 137.99 C 60.65 135.83 63.08 134.26 64.93 134.00 C 70.83 133.06 76.98 134.27 82.42 136.62 C 84.07 137.50 86.49 138.70 86.23 140.93 C 84.02 145.23 78.61 145.65 74.36 146.10 C 73.11 146.09 71.86 146.03 70.62 145.91 C 67.17 144.00 63.65 141.60 61.82 137.99 M 65.83 137.88 C 69.08 141.03 74.53 142.12 78.57 139.97 C 79.35 138.26 77.22 137.32 76.00 136.82 C 72.73 135.80 68.37 134.92 65.83 137.88 Z" />
</g>
<g id="#fa99c2ff">
<path fill="#fa99c2" opacity="1.00" d=" M 65.83 137.88 C 68.37 134.92 72.73 135.80 76.00 136.82 C 77.22 137.32 79.35 138.26 78.57 139.97 C 74.53 142.12 69.08 141.03 65.83 137.88 Z" />
</g>
</svg>
