<?xml version="1.0" encoding="UTF-8" ?>
<!DOCTYPE svg PUBLIC "-//W3C//DTD SVG 1.1//EN" "http://www.w3.org/Graphics/SVG/1.1/DTD/svg11.dtd">
<svg width="256pt" height="256pt" viewBox="0 0 256 256" version="1.1" xmlns="http://www.w3.org/2000/svg">
<g id="#982c61ff">
<path fill="#982c61" opacity="1.00" d=" M 159.80 14.74 C 163.18 11.90 169.02 11.07 171.94 14.98 C 175.32 20.54 176.45 27.13 177.33 33.48 C 186.49 34.82 195.62 38.19 202.03 45.14 C 210.81 42.96 220.26 41.22 229.13 43.90 C 233.55 45.22 238.22 49.81 236.63 54.71 C 231.34 61.68 222.64 64.61 216.28 70.35 C 219.38 85.40 218.74 100.93 216.74 116.09 C 215.89 122.73 215.04 129.43 212.81 135.78 C 211.00 140.34 212.34 145.27 212.48 149.99 C 210.38 149.93 208.29 149.90 206.19 149.91 C 206.02 144.98 205.69 139.96 206.94 135.13 C 207.99 130.77 209.29 126.46 209.89 122.01 C 212.11 106.25 213.77 90.13 210.95 74.34 C 210.13 74.16 208.47 73.80 207.64 73.62 C 208.06 71.86 208.09 69.84 209.47 68.49 C 215.72 61.71 224.53 58.16 231.22 51.89 C 225.69 47.77 218.45 48.16 211.97 49.06 C 206.66 49.67 201.70 52.32 196.26 51.96 C 196.46 50.61 196.67 49.27 196.89 47.92 C 187.97 40.82 176.28 37.96 165.02 38.65 C 153.67 39.32 142.26 43.08 133.40 50.36 C 126.73 55.81 122.93 63.72 118.14 70.69 C 117.77 71.30 117.04 72.52 116.67 73.13 C 111.83 81.77 105.09 89.50 96.54 94.62 C 85.41 101.27 72.65 104.36 61.03 109.97 C 52.21 114.21 43.97 120.31 38.83 128.79 C 33.40 138.16 29.80 149.11 31.05 160.05 C 32.05 169.54 34.85 178.97 40.02 187.06 C 42.09 190.30 43.76 194.10 43.10 198.04 C 42.19 201.40 39.41 203.81 36.67 205.76 C 30.16 210.18 22.79 213.55 17.30 219.34 C 15.10 221.63 13.25 224.79 14.01 228.08 C 15.15 232.97 19.59 236.23 24.12 237.78 C 34.03 241.29 44.60 242.46 55.04 242.83 C 60.76 242.87 66.67 243.00 72.15 241.12 C 74.16 240.37 77.02 238.96 75.70 236.36 C 73.63 234.12 70.58 233.20 67.73 232.41 C 58.20 230.08 48.31 229.99 38.65 228.50 C 36.40 228.00 33.75 227.61 32.34 225.57 C 31.58 223.53 33.28 221.84 34.74 220.71 C 41.45 215.58 49.70 212.95 57.96 211.67 C 57.61 210.00 57.27 208.33 56.93 206.67 C 61.80 208.24 66.01 211.22 70.67 213.25 C 79.65 216.93 89.33 218.57 98.96 219.46 C 113.84 220.57 129.51 218.79 142.86 211.82 C 148.92 204.73 147.93 194.68 149.36 186.02 C 149.45 183.76 151.82 181.02 154.12 182.63 C 157.00 189.45 157.40 197.11 156.17 204.35 C 159.69 201.57 163.82 199.29 166.40 195.53 C 167.52 188.07 164.62 180.78 163.80 173.43 C 165.50 173.90 167.66 173.64 168.90 175.15 C 172.08 178.78 172.97 183.70 174.34 188.18 C 176.32 185.74 179.37 183.48 179.21 180.02 C 179.20 173.72 176.27 167.86 176.41 161.54 C 178.51 162.23 181.04 162.62 182.34 164.64 C 185.39 168.97 187.06 174.12 190.32 178.34 C 188.73 180.07 187.25 181.90 185.83 183.77 C 180.36 190.34 174.75 196.87 168.26 202.47 C 153.59 215.43 134.89 223.98 115.28 225.45 C 100.16 226.52 84.67 224.77 70.42 219.53 C 61.51 214.84 51.13 218.86 42.63 222.62 C 52.12 223.67 61.78 224.30 70.94 227.22 C 74.36 228.39 77.91 229.88 80.30 232.72 C 82.75 235.60 82.83 240.35 80.07 243.07 C 76.77 246.48 71.94 247.61 67.46 248.52 C 67.21 248.55 66.72 248.61 66.47 248.63 C 49.47 249.19 31.51 248.46 16.05 240.60 C 11.99 237.56 8.51 233.17 7.86 228.00 C 7.32 223.40 9.57 218.98 12.59 215.65 C 18.11 209.54 25.50 205.66 32.46 201.46 C 35.10 199.99 36.89 197.51 38.39 194.96 C 34.90 189.21 30.63 183.82 28.73 177.26 C 25.07 165.82 22.75 152.95 27.30 141.43 C 18.97 135.98 12.35 128.25 7.14 119.84 C 3.52 113.78 0.51 107.08 0.18 99.93 C 0.06 95.37 1.50 90.22 5.52 87.60 C 8.53 85.84 12.07 87.48 14.65 89.28 C 21.29 93.94 26.41 100.68 33.86 104.21 C 39.04 107.00 44.89 107.97 50.62 108.94 C 58.46 103.85 67.31 100.70 75.99 97.35 C 74.40 95.73 72.82 94.12 71.29 92.44 C 75.05 93.10 78.84 93.78 82.38 95.27 C 82.85 95.45 83.80 95.82 84.28 96.01 C 92.34 93.31 99.64 88.45 105.35 82.16 C 96.51 76.33 86.18 73.39 75.86 71.55 C 76.23 69.62 76.60 67.68 76.99 65.75 C 87.65 67.44 98.44 70.21 107.58 76.16 C 115.27 65.70 120.19 52.84 130.79 44.79 C 135.51 40.96 141.09 38.40 146.84 36.53 C 149.50 28.48 152.41 19.72 159.80 14.74 M 161.34 21.31 C 157.33 25.38 154.91 30.63 153.09 35.98 C 154.68 35.76 156.22 35.38 157.72 34.83 C 162.36 34.90 167.00 34.59 171.65 34.52 C 170.57 28.82 169.61 22.97 166.78 17.82 C 164.81 18.73 162.94 19.84 161.34 21.31 M 8.35 93.20 C 5.02 96.48 6.26 101.78 7.30 105.81 C 11.36 118.18 19.90 128.83 30.31 136.52 C 34.00 128.22 38.92 120.42 45.93 114.51 C 38.74 113.18 31.73 110.58 25.74 106.34 C 21.25 103.20 17.59 99.07 13.34 95.64 C 11.86 94.54 10.29 93.22 8.35 93.20 Z" />
<path fill="#982c61" opacity="1.00" d=" M 62.86 34.67 C 63.55 34.71 64.94 34.81 65.63 34.85 C 67.72 40.34 70.40 45.61 72.11 51.24 C 68.45 46.06 65.89 40.22 62.86 34.67 Z" />
<path fill="#982c61" opacity="1.00" d=" M 74.51 34.81 C 83.50 34.93 92.50 34.76 101.48 35.17 C 92.72 40.82 83.84 46.29 75.19 52.12 C 75.09 46.35 74.63 40.58 74.51 34.81 Z" />
<path fill="#982c61" opacity="1.00" d=" M 129.02 64.02 C 128.79 56.60 135.56 49.93 142.94 50.05 C 150.38 49.87 157.24 56.59 156.98 64.07 C 157.04 67.44 155.20 70.44 153.06 72.91 L 152.03 73.74 C 156.28 75.75 160.67 77.69 164.12 80.99 C 162.15 82.71 160.24 84.78 157.61 85.46 C 155.06 86.04 152.42 85.78 149.82 85.74 C 149.17 87.51 148.52 89.28 147.88 91.06 C 151.82 91.01 156.00 91.40 159.62 89.50 C 161.67 88.83 163.74 86.63 165.95 88.04 C 165.37 92.90 163.97 97.92 160.90 101.82 C 158.93 104.00 155.39 106.29 152.52 104.50 C 150.20 102.05 150.91 98.30 150.52 95.22 C 144.31 94.71 137.69 93.29 132.95 88.97 C 131.44 87.91 133.17 86.35 133.39 85.06 C 136.77 87.07 140.26 88.90 143.93 90.33 C 144.66 88.25 145.38 86.17 146.11 84.10 C 144.41 81.92 142.79 79.67 141.33 77.32 C 138.47 76.20 135.62 74.99 133.03 73.32 C 131.01 70.61 128.96 67.55 129.02 64.02 M 134.47 57.91 C 140.28 60.32 146.02 62.93 151.98 64.98 L 152.57 64.95 C 153.57 63.70 153.56 62.44 152.55 61.18 L 152.94 60.36 C 151.01 57.07 148.14 53.67 143.96 53.70 C 140.22 53.20 136.90 55.28 134.47 57.91 M 133.15 60.83 C 132.77 64.15 133.17 67.87 135.90 70.17 C 140.35 74.63 147.98 72.98 151.90 68.63 C 150.13 67.76 148.35 66.92 146.57 66.10 C 145.07 68.01 142.72 70.20 140.13 68.75 C 137.69 67.74 137.65 64.86 137.88 62.64 C 136.32 62.01 134.74 61.40 133.15 60.83 Z" />
<path fill="#982c61" opacity="1.00" d=" M 171.67 66.68 C 177.03 62.60 185.27 63.33 189.92 68.16 C 194.71 72.83 195.37 81.00 191.30 86.34 C 188.88 89.85 184.68 91.46 180.64 92.22 C 176.79 91.89 172.74 90.90 169.99 88.00 C 167.07 85.19 166.12 81.08 165.70 77.20 C 166.63 73.25 168.17 69.07 171.67 66.68 M 171.03 71.96 C 177.26 75.27 184.01 77.54 190.55 80.19 C 190.66 76.76 190.18 73.01 187.48 70.58 C 183.09 65.79 174.61 66.60 171.03 71.96 M 174.49 86.48 C 179.34 89.60 185.91 87.57 189.03 82.97 C 186.77 82.01 184.51 81.07 182.23 80.16 C 180.68 81.80 178.64 83.79 176.16 82.67 C 173.50 81.87 173.08 78.83 173.26 76.46 C 172.50 76.14 170.98 75.50 170.23 75.18 C 169.54 79.36 170.59 84.21 174.49 86.48 Z" />
<path fill="#982c61" opacity="1.00" d=" M 55.81 67.95 C 57.98 64.61 62.33 65.14 65.76 64.78 C 65.35 66.79 64.95 68.80 64.57 70.82 C 63.50 70.84 61.37 70.89 60.30 70.92 C 60.11 73.58 61.44 75.87 63.05 77.87 C 61.06 78.66 58.96 79.14 56.88 79.64 C 54.26 76.40 52.89 71.45 55.81 67.95 Z" />
<path fill="#982c61" opacity="1.00" d=" M 123.84 120.74 C 126.93 118.39 130.83 115.58 134.90 116.88 C 138.00 118.18 138.56 122.03 138.09 124.99 C 137.08 132.10 133.82 138.60 131.44 145.30 C 127.14 155.45 130.75 166.26 133.14 176.36 C 131.59 175.55 129.47 175.18 128.80 173.33 C 126.32 167.94 125.56 161.91 125.41 156.04 C 125.24 143.40 134.53 132.93 134.33 120.27 C 128.50 121.04 124.27 125.38 120.47 129.48 C 113.61 136.81 109.36 146.04 104.92 154.92 C 101.90 160.75 100.28 167.19 97.02 172.91 C 96.33 171.90 95.66 170.88 95.02 169.85 C 95.58 165.35 97.80 161.29 99.46 157.14 C 105.71 143.94 112.12 130.05 123.84 120.74 Z" />
<path fill="#982c61" opacity="1.00" d=" M 55.14 181.34 C 55.59 181.00 56.50 180.34 56.95 180.00 C 58.24 181.91 59.26 183.97 60.45 185.94 C 61.08 184.68 61.72 183.44 62.35 182.19 C 63.06 182.18 64.47 182.14 65.17 182.13 C 64.51 184.23 63.66 186.26 62.86 188.32 C 65.26 187.90 67.59 187.12 70.04 187.05 C 71.16 190.19 67.03 190.38 65.11 191.27 C 66.15 192.71 68.31 194.07 66.81 195.99 C 64.63 195.29 62.84 193.81 61.05 192.45 C 60.91 193.95 60.77 195.45 60.63 196.95 C 59.95 197.03 58.59 197.17 57.91 197.24 C 57.91 195.18 57.91 193.12 57.91 191.07 C 55.63 190.25 52.51 190.09 52.38 187.02 C 53.98 187.10 55.57 187.20 57.16 187.30 C 56.48 185.31 55.81 183.33 55.14 181.34 Z" />
</g>
<g id="#537098ff">
<path fill="#537098" opacity="1.00" d=" M 50.75 17.75 C 52.83 15.49 56.29 16.02 58.98 16.58 C 75.49 20.33 92.05 23.86 108.54 27.64 C 112.32 28.18 112.49 33.69 109.42 35.33 C 99.36 41.95 89.20 48.43 79.11 55.00 C 78.43 58.59 77.70 62.17 76.99 65.75 C 76.60 67.68 76.23 69.62 75.86 71.55 C 75.23 74.76 74.56 77.97 73.86 81.16 C 77.19 83.83 81.11 85.83 83.96 89.05 C 84.97 91.33 83.65 93.45 82.38 95.27 C 78.84 93.78 75.05 93.10 71.29 92.44 C 63.96 90.38 56.44 89.08 49.08 87.14 C 46.25 86.50 47.08 82.22 49.29 81.26 C 51.73 80.33 54.35 80.15 56.88 79.64 C 58.96 79.14 61.06 78.66 63.05 77.87 C 63.67 75.55 64.13 73.18 64.57 70.82 C 64.95 68.80 65.35 66.79 65.76 64.78 C 66.59 60.78 67.41 56.79 68.23 52.80 C 62.56 42.80 56.85 32.83 51.14 22.86 C 50.32 21.34 49.31 19.23 50.75 17.75 M 54.29 19.87 C 56.70 24.95 59.79 29.67 62.42 34.64 L 62.86 34.67 C 65.89 40.22 68.45 46.06 72.11 51.24 C 70.92 61.38 68.23 71.38 66.49 81.48 C 62.55 82.52 58.57 83.42 54.59 84.32 C 57.21 85.18 59.86 85.89 62.55 86.52 L 62.22 86.71 C 67.92 86.87 73.31 88.88 78.90 89.79 C 75.78 87.05 71.10 85.60 69.57 81.45 C 71.50 71.69 73.78 61.96 75.19 52.12 C 83.84 46.29 92.72 40.82 101.48 35.17 C 103.91 34.93 105.60 32.89 107.40 31.45 C 96.10 28.95 84.81 26.40 73.49 23.97 C 69.94 23.53 66.50 22.48 62.99 21.80 C 60.16 20.87 57.24 20.26 54.29 19.87 Z" />
<path fill="#537098" opacity="1.00" d=" M 196.05 173.22 C 198.36 174.25 200.84 174.84 203.35 175.10 C 199.19 178.67 194.47 181.79 191.41 186.44 C 189.82 188.62 189.99 191.43 189.93 193.98 C 190.07 205.01 189.97 216.03 189.97 227.06 C 190.04 229.36 189.85 232.49 192.60 233.30 C 199.77 236.00 207.69 236.05 215.23 235.31 C 219.07 234.70 223.46 234.31 226.38 231.45 C 227.47 228.40 226.92 225.03 227.06 221.85 C 228.86 220.31 231.24 218.69 231.17 216.03 C 231.57 211.36 231.26 206.67 231.38 201.99 C 231.33 196.60 232.29 191.04 230.37 185.84 C 229.15 186.59 227.95 187.36 226.73 188.10 C 223.05 182.74 217.88 178.79 212.67 175.04 C 215.60 174.73 218.52 173.36 221.50 173.94 C 226.72 178.70 233.78 184.06 233.03 191.98 C 233.00 203.03 232.96 214.08 233.04 225.13 C 233.37 229.85 232.77 235.58 227.93 237.86 C 218.80 242.39 208.03 242.23 198.14 240.96 C 192.66 240.16 185.49 238.28 184.32 231.93 C 183.56 222.93 184.21 213.85 184.00 204.82 C 184.58 197.84 182.44 190.25 185.83 183.77 C 187.25 181.90 188.73 180.07 190.32 178.34 C 192.12 176.51 194.09 174.86 196.05 173.22 Z" />
</g>
<g id="#de6287ff">
<path fill="#de6287" opacity="1.00" d=" M 109.53 21.67 C 112.97 17.60 119.09 15.19 124.01 18.16 C 126.59 19.25 128.96 23.24 126.71 25.56 C 120.62 26.59 115.73 20.82 109.53 21.67 Z" />
<path fill="#de6287" opacity="1.00" d=" M 161.34 21.31 C 162.94 19.84 164.81 18.73 166.78 17.82 C 169.61 22.97 170.57 28.82 171.65 34.52 C 167.00 34.59 162.36 34.90 157.72 34.83 C 158.23 34.61 159.26 34.15 159.78 33.93 C 160.78 29.84 163.77 25.44 161.34 21.31 Z" />
<path fill="#de6287" opacity="1.00" d=" M 116.14 33.09 C 120.37 33.58 124.80 35.84 126.40 40.00 C 127.14 42.93 123.00 45.42 120.81 43.28 C 118.09 40.57 117.26 36.63 116.14 33.09 Z" />
<path fill="#de6287" opacity="1.00" d=" M 133.40 50.36 C 142.26 43.08 153.67 39.32 165.02 38.65 C 176.28 37.96 187.97 40.82 196.89 47.92 C 196.67 49.27 196.46 50.61 196.26 51.96 C 201.70 52.32 206.66 49.67 211.97 49.06 C 218.45 48.16 225.69 47.77 231.22 51.89 C 224.53 58.16 215.72 61.71 209.47 68.49 C 208.09 69.84 208.06 71.86 207.64 73.62 C 208.47 73.80 210.13 74.16 210.95 74.34 C 213.77 90.13 212.11 106.25 209.89 122.01 C 209.29 126.46 207.99 130.77 206.94 135.13 C 205.69 139.96 206.02 144.98 206.19 149.91 C 201.39 149.74 195.48 150.37 193.15 155.28 C 190.77 161.15 191.50 168.54 196.05 173.22 C 194.09 174.86 192.12 176.51 190.32 178.34 C 187.06 174.12 185.39 168.97 182.34 164.64 C 181.04 162.62 178.51 162.23 176.41 161.54 C 176.27 167.86 179.20 173.72 179.21 180.02 C 179.37 183.48 176.32 185.74 174.34 188.18 C 172.97 183.70 172.08 178.78 168.90 175.15 C 167.66 173.64 165.50 173.90 163.80 173.43 C 164.62 180.78 167.52 188.07 166.40 195.53 C 163.82 199.29 159.69 201.57 156.17 204.35 C 157.40 197.11 157.00 189.45 154.12 182.63 C 151.82 181.02 149.45 183.76 149.36 186.02 C 147.93 194.68 148.92 204.73 142.86 211.82 C 129.51 218.79 113.84 220.57 98.96 219.46 C 89.33 218.57 79.65 216.93 70.67 213.25 C 66.01 211.22 61.80 208.24 56.93 206.67 C 57.27 208.33 57.61 210.00 57.96 211.67 C 49.70 212.95 41.45 215.58 34.74 220.71 C 33.28 221.84 31.58 223.53 32.34 225.57 C 33.75 227.61 36.40 228.00 38.65 228.50 C 48.31 229.99 58.20 230.08 67.73 232.41 C 70.58 233.20 73.63 234.12 75.70 236.36 C 77.02 238.96 74.16 240.37 72.15 241.12 C 66.67 243.00 60.76 242.87 55.04 242.83 C 44.60 242.46 34.03 241.29 24.12 237.78 C 19.59 236.23 15.15 232.97 14.01 228.08 C 13.25 224.79 15.10 221.63 17.30 219.34 C 22.79 213.55 30.16 210.18 36.67 205.76 C 39.41 203.81 42.19 201.40 43.10 198.04 C 43.76 194.10 42.09 190.30 40.02 187.06 C 34.85 178.97 32.05 169.54 31.05 160.05 C 29.80 149.11 33.40 138.16 38.83 128.79 C 43.97 120.31 52.21 114.21 61.03 109.97 C 72.65 104.36 85.41 101.27 96.54 94.62 C 105.09 89.50 111.83 81.77 116.67 73.13 C 120.67 74.32 124.70 75.42 128.59 76.93 C 124.06 79.10 119.00 77.58 114.21 77.75 C 115.72 81.86 120.62 80.65 124.03 81.29 C 114.36 90.72 103.93 99.52 92.13 106.18 C 81.69 112.69 71.26 119.86 63.78 129.80 C 59.58 135.47 56.46 142.74 58.09 149.89 C 59.40 155.28 65.06 157.95 70.12 158.61 C 79.90 159.80 89.76 158.44 99.46 157.14 C 97.80 161.29 95.58 165.35 95.02 169.85 C 95.66 170.88 96.33 171.90 97.02 172.91 C 100.28 167.19 101.90 160.75 104.92 154.92 C 109.36 146.04 113.61 136.81 120.47 129.48 C 124.27 125.38 128.50 121.04 134.33 120.27 C 134.53 132.93 125.24 143.40 125.41 156.04 C 125.56 161.91 126.32 167.94 128.80 173.33 C 129.47 175.18 131.59 175.55 133.14 176.36 C 130.75 166.26 127.14 155.45 131.44 145.30 C 140.00 141.71 147.90 136.69 155.44 131.31 C 164.92 124.47 173.34 115.97 178.87 105.58 C 183.29 108.96 187.10 113.28 192.36 115.41 C 191.04 107.98 180.83 107.01 179.52 99.53 C 183.79 100.62 187.63 102.84 191.72 104.39 C 192.53 104.80 195.49 104.49 193.85 103.05 C 190.73 99.30 184.82 99.35 181.41 95.87 C 181.10 94.66 180.85 93.44 180.64 92.22 C 184.68 91.46 188.88 89.85 191.30 86.34 C 195.37 81.00 194.71 72.83 189.92 68.16 C 185.27 63.33 177.03 62.60 171.67 66.68 C 168.17 69.07 166.63 73.25 165.70 77.20 C 161.52 75.70 157.38 74.00 153.06 72.91 C 155.20 70.44 157.04 67.44 156.98 64.07 C 157.24 56.59 150.38 49.87 142.94 50.05 C 135.56 49.93 128.79 56.60 129.02 64.02 C 128.96 67.55 131.01 70.61 133.03 73.32 C 127.90 73.81 123.03 71.90 118.14 70.69 C 122.93 63.72 126.73 55.81 133.40 50.36 M 151.79 51.12 C 152.72 51.37 153.64 51.61 154.57 51.85 C 155.77 49.23 156.72 46.49 157.26 43.65 C 153.05 43.43 153.01 48.24 151.79 51.12 M 155.15 53.80 C 156.41 54.45 157.40 54.21 158.14 53.10 C 160.21 50.28 161.71 47.04 162.36 43.60 C 157.70 44.44 156.58 50.02 155.15 53.80 M 185.49 52.64 C 183.15 54.77 180.31 56.73 179.05 59.73 C 179.32 60.06 179.86 60.73 180.13 61.06 C 183.69 59.07 187.10 56.04 188.86 52.33 C 187.62 51.33 186.50 51.44 185.49 52.64 M 205.90 55.02 C 205.94 58.46 206.70 63.81 210.97 64.16 C 216.12 61.35 221.10 58.01 225.47 54.06 C 219.20 51.21 212.07 52.64 205.90 55.02 M 185.15 62.73 C 185.62 62.93 186.56 63.35 187.03 63.55 C 189.71 61.36 191.06 57.99 191.43 54.62 C 187.60 55.27 186.14 59.48 185.15 62.73 M 55.14 181.34 C 55.81 183.33 56.48 185.31 57.16 187.30 C 55.57 187.20 53.98 187.10 52.38 187.02 C 52.51 190.09 55.63 190.25 57.91 191.07 C 57.91 193.12 57.91 195.18 57.91 197.24 C 58.59 197.17 59.95 197.03 60.63 196.95 C 60.77 195.45 60.91 193.95 61.05 192.45 C 62.84 193.81 64.63 195.29 66.81 195.99 C 68.31 194.07 66.15 192.71 65.11 191.27 C 67.03 190.38 71.16 190.19 70.04 187.05 C 67.59 187.12 65.26 187.90 62.86 188.32 C 63.66 186.26 64.51 184.23 65.17 182.13 C 64.47 182.14 63.06 182.18 62.35 182.19 C 61.72 183.44 61.08 184.68 60.45 185.94 C 59.26 183.97 58.24 181.91 56.95 180.00 C 56.50 180.34 55.59 181.00 55.14 181.34 Z" />
<path fill="#de6287" opacity="1.00" d=" M 134.47 57.91 C 136.90 55.28 140.22 53.20 143.96 53.70 C 148.14 53.67 151.01 57.07 152.94 60.36 L 152.55 61.18 C 151.92 62.32 151.56 63.70 151.98 64.98 C 146.02 62.93 140.28 60.32 134.47 57.91 Z" />
<path fill="#de6287" opacity="1.00" d=" M 171.03 71.96 C 174.61 66.60 183.09 65.79 187.48 70.58 C 190.18 73.01 190.66 76.76 190.55 80.19 C 184.01 77.54 177.26 75.27 171.03 71.96 Z" />
<path fill="#de6287" opacity="1.00" d=" M 73.86 81.16 C 74.56 77.97 75.23 74.76 75.86 71.55 C 86.18 73.39 96.51 76.33 105.35 82.16 C 99.64 88.45 92.34 93.31 84.28 96.01 C 83.80 95.82 82.85 95.45 82.38 95.27 C 83.65 93.45 84.97 91.33 83.96 89.05 C 81.11 85.83 77.19 83.83 73.86 81.16 Z" />
<path fill="#de6287" opacity="1.00" d=" M 8.35 93.20 C 10.29 93.22 11.86 94.54 13.34 95.64 C 17.59 99.07 21.25 103.20 25.74 106.34 C 31.73 110.58 38.74 113.18 45.93 114.51 C 38.92 120.42 34.00 128.22 30.31 136.52 C 19.90 128.83 11.36 118.18 7.30 105.81 C 6.26 101.78 5.02 96.48 8.35 93.20 Z" />
</g>
<g id="#9eb6d8ff">
<path fill="#9eb6d8" opacity="1.00" d=" M 54.29 19.87 C 57.24 20.26 60.16 20.87 62.99 21.80 C 62.33 21.70 61.01 21.51 60.35 21.42 C 61.75 26.03 63.80 30.41 65.63 34.85 C 64.94 34.81 63.55 34.71 62.86 34.67 L 62.42 34.64 C 59.79 29.67 56.70 24.95 54.29 19.87 Z" />
<path fill="#9eb6d8" opacity="1.00" d=" M 73.49 23.97 C 84.81 26.40 96.10 28.95 107.40 31.45 C 105.60 32.89 103.91 34.93 101.48 35.17 C 92.50 34.76 83.50 34.93 74.51 34.81 C 74.38 31.18 74.05 27.56 73.49 23.97 Z" />
<path fill="#9eb6d8" opacity="1.00" d=" M 62.55 86.52 C 65.07 85.09 67.38 83.34 69.57 81.45 C 71.10 85.60 75.78 87.05 78.90 89.79 C 73.31 88.88 67.92 86.87 62.22 86.71 L 62.55 86.52 Z" />
<path fill="#9eb6d8" opacity="1.00" d=" M 203.35 175.10 C 206.46 175.17 209.57 175.19 212.67 175.04 C 217.88 178.79 223.05 182.74 226.73 188.10 C 221.53 191.60 215.06 191.12 209.12 191.83 C 208.94 202.25 208.88 212.67 209.16 223.09 C 215.14 223.96 221.32 223.93 227.06 221.85 C 226.92 225.03 227.47 228.40 226.38 231.45 C 223.46 234.31 219.07 234.70 215.23 235.31 C 207.69 236.05 199.77 236.00 192.60 233.30 C 189.85 232.49 190.04 229.36 189.97 227.06 C 189.97 216.03 190.07 205.01 189.93 193.98 C 189.99 191.43 189.82 188.62 191.41 186.44 C 194.47 181.79 199.19 178.67 203.35 175.10 Z" />
</g>
<g id="#daeaffff">
<path fill="#daeaff" opacity="1.00" d=" M 65.63 34.85 C 63.80 30.41 61.75 26.03 60.35 21.42 C 61.01 21.51 62.33 21.70 62.99 21.80 C 66.50 22.48 69.94 23.53 73.49 23.97 C 74.05 27.56 74.38 31.18 74.51 34.81 C 74.63 40.58 75.09 46.35 75.19 52.12 C 73.78 61.96 71.50 71.69 69.57 81.45 C 67.38 83.34 65.07 85.09 62.55 86.52 C 59.86 85.89 57.21 85.18 54.59 84.32 C 58.57 83.42 62.55 82.52 66.49 81.48 C 68.23 71.38 70.92 61.38 72.11 51.24 C 70.40 45.61 67.72 40.34 65.63 34.85 Z" />
</g>
<g id="#ffa1b4ff">
<path fill="#ffa1b4" opacity="1.00" d=" M 153.09 35.98 C 154.91 30.63 157.33 25.38 161.34 21.31 C 163.77 25.44 160.78 29.84 159.78 33.93 C 159.26 34.15 158.23 34.61 157.72 34.83 C 156.22 35.38 154.68 35.76 153.09 35.98 Z" />
<path fill="#ffa1b4" opacity="1.00" d=" M 155.15 53.80 C 156.58 50.02 157.70 44.44 162.36 43.60 C 161.71 47.04 160.21 50.28 158.14 53.10 C 157.40 54.21 156.41 54.45 155.15 53.80 Z" />
<path fill="#ffa1b4" opacity="1.00" d=" M 185.49 52.64 C 186.50 51.44 187.62 51.33 188.86 52.33 C 187.10 56.04 183.69 59.07 180.13 61.06 C 179.86 60.73 179.32 60.06 179.05 59.73 C 180.31 56.73 183.15 54.77 185.49 52.64 Z" />
<path fill="#ffa1b4" opacity="1.00" d=" M 205.90 55.02 C 212.07 52.64 219.20 51.21 225.47 54.06 C 221.10 58.01 216.12 61.35 210.97 64.16 C 206.70 63.81 205.94 58.46 205.90 55.02 Z" />
<path fill="#ffa1b4" opacity="1.00" d=" M 116.67 73.13 C 117.04 72.52 117.77 71.30 118.14 70.69 C 123.03 71.90 127.90 73.81 133.03 73.32 C 135.62 74.99 138.47 76.20 141.33 77.32 C 142.79 79.67 144.41 81.92 146.11 84.10 C 145.38 86.17 144.66 88.25 143.93 90.33 C 140.26 88.90 136.77 87.07 133.39 85.06 C 133.17 86.35 131.44 87.91 132.95 88.97 C 137.69 93.29 144.31 94.71 150.52 95.22 C 150.91 98.30 150.20 102.05 152.52 104.50 C 155.39 106.29 158.93 104.00 160.90 101.82 C 163.97 97.92 165.37 92.90 165.95 88.04 C 163.74 86.63 161.67 88.83 159.62 89.50 C 156.00 91.40 151.82 91.01 147.88 91.06 C 148.52 89.28 149.17 87.51 149.82 85.74 C 152.42 85.78 155.06 86.04 157.61 85.46 C 160.24 84.78 162.15 82.71 164.12 80.99 C 160.67 77.69 156.28 75.75 152.03 73.74 L 153.06 72.91 C 157.38 74.00 161.52 75.70 165.70 77.20 C 166.12 81.08 167.07 85.19 169.99 88.00 C 172.74 90.90 176.79 91.89 180.64 92.22 C 180.85 93.44 181.10 94.66 181.41 95.87 C 184.82 99.35 190.73 99.30 193.85 103.05 C 195.49 104.49 192.53 104.80 191.72 104.39 C 187.63 102.84 183.79 100.62 179.52 99.53 C 180.83 107.01 191.04 107.98 192.36 115.41 C 187.10 113.28 183.29 108.96 178.87 105.58 C 173.34 115.97 164.92 124.47 155.44 131.31 C 147.90 136.69 140.00 141.71 131.44 145.30 C 133.82 138.60 137.08 132.10 138.09 124.99 C 138.56 122.03 138.00 118.18 134.90 116.88 C 130.83 115.58 126.93 118.39 123.84 120.74 C 112.12 130.05 105.71 143.94 99.46 157.14 C 89.76 158.44 79.90 159.80 70.12 158.61 C 65.06 157.95 59.40 155.28 58.09 149.89 C 56.46 142.74 59.58 135.47 63.78 129.80 C 71.26 119.86 81.69 112.69 92.13 106.18 C 103.93 99.52 114.36 90.72 124.03 81.29 C 120.62 80.65 115.72 81.86 114.21 77.75 C 119.00 77.58 124.06 79.10 128.59 76.93 C 124.70 75.42 120.67 74.32 116.67 73.13 Z" />
</g>
<g id="#fc9bb0ff">
<path fill="#fc9bb0" opacity="1.00" d=" M 151.79 51.12 C 153.01 48.24 153.05 43.43 157.26 43.65 C 156.72 46.49 155.77 49.23 154.57 51.85 C 153.64 51.61 152.72 51.37 151.79 51.12 Z" />
</g>
<g id="#fb9aafff">
<path fill="#fb9aaf" opacity="1.00" d=" M 185.15 62.73 C 186.14 59.48 187.60 55.27 191.43 54.62 C 191.06 57.99 189.71 61.36 187.03 63.55 C 186.56 63.35 185.62 62.93 185.15 62.73 Z" />
</g>
<g id="#ffffffff">
<path fill="#ffffff" opacity="1.00" d=" M 133.15 60.83 C 134.74 61.40 136.32 62.01 137.88 62.64 C 137.65 64.86 137.69 67.74 140.13 68.75 C 142.72 70.20 145.07 68.01 146.57 66.10 C 148.35 66.92 150.13 67.76 151.90 68.63 C 147.98 72.98 140.35 74.63 135.90 70.17 C 133.17 67.87 132.77 64.15 133.15 60.83 Z" />
<path fill="#ffffff" opacity="1.00" d=" M 174.49 86.48 C 170.59 84.21 169.54 79.36 170.23 75.18 C 170.98 75.50 172.50 76.14 173.26 76.46 C 173.08 78.83 173.50 81.87 176.16 82.67 C 178.64 83.79 180.68 81.80 182.23 80.16 C 184.51 81.07 186.77 82.01 189.03 82.97 C 185.91 87.57 179.34 89.60 174.49 86.48 Z" />
<path fill="#ffffff" opacity="1.00" d=" M 198.12 158.28 C 199.29 157.48 200.32 156.17 201.87 156.20 C 207.00 155.85 212.29 155.60 217.29 157.03 C 211.95 161.53 204.30 159.75 198.12 158.28 Z" />
</g>
<g id="#e48da8ff">
<path fill="#e48da8" opacity="1.00" d=" M 151.98 64.98 C 151.56 63.70 151.92 62.32 152.55 61.18 C 153.56 62.44 153.57 63.70 152.57 64.95 L 151.98 64.98 Z" />
</g>
<g id="#d75e85ff">
<path fill="#d75e85" opacity="1.00" d=" M 60.30 70.92 C 61.37 70.89 63.50 70.84 64.57 70.82 C 64.13 73.18 63.67 75.55 63.05 77.87 C 61.44 75.87 60.11 73.58 60.30 70.92 Z" />
</g>
<g id="#8f8f8fff">
<path fill="#8f8f8f" opacity="1.00" d=" M 238.34 135.31 C 239.71 133.06 242.98 133.99 243.63 136.32 C 247.47 144.90 251.83 153.29 255.23 162.05 C 254.27 165.36 251.54 167.83 249.01 170.02 C 241.32 176.10 230.62 176.71 221.50 173.94 C 218.52 173.36 215.60 174.73 212.67 175.04 C 209.57 175.19 206.46 175.17 203.35 175.10 C 200.84 174.84 198.36 174.25 196.05 173.22 C 191.50 168.54 190.77 161.15 193.15 155.28 C 195.48 150.37 201.39 149.74 206.19 149.91 C 208.29 149.90 210.38 149.93 212.48 149.99 C 215.29 149.89 218.24 151.30 220.91 149.91 C 228.04 146.92 233.61 141.26 238.34 135.31 M 223.33 155.45 C 224.18 159.74 224.15 164.13 223.53 168.45 C 232.34 170.91 242.93 169.47 248.83 161.85 C 245.88 155.53 243.00 149.18 240.05 142.86 C 235.18 147.91 229.82 152.62 223.33 155.45 M 198.12 158.28 L 198.08 158.27 C 198.18 161.75 196.83 167.04 200.97 168.71 C 205.82 169.15 210.88 169.46 215.67 168.50 C 219.34 165.93 217.99 160.74 217.29 157.03 C 212.29 155.60 207.00 155.85 201.87 156.20 C 200.32 156.17 199.29 157.48 198.12 158.28 Z" />
<path fill="#8f8f8f" opacity="1.00" d=" M 226.73 188.10 C 227.95 187.36 229.15 186.59 230.37 185.84 C 232.29 191.04 231.33 196.60 231.38 201.99 C 231.26 206.67 231.57 211.36 231.17 216.03 C 231.24 218.69 228.86 220.31 227.06 221.85 C 221.32 223.93 215.14 223.96 209.16 223.09 C 208.88 212.67 208.94 202.25 209.12 191.83 C 215.06 191.12 221.53 191.60 226.73 188.10 M 213.07 195.41 C 212.97 203.52 212.90 211.64 213.12 219.74 C 217.76 219.53 223.11 220.07 226.90 216.79 C 227.75 208.82 227.21 200.74 227.57 192.72 C 222.94 194.48 218.03 195.37 213.07 195.41 Z" />
</g>
<g id="#dadadaff">
<path fill="#dadada" opacity="1.00" d=" M 223.33 155.45 C 229.82 152.62 235.18 147.91 240.05 142.86 C 243.00 149.18 245.88 155.53 248.83 161.85 C 242.93 169.47 232.34 170.91 223.53 168.45 C 224.15 164.13 224.18 159.74 223.33 155.45 Z" />
<path fill="#dadada" opacity="1.00" d=" M 217.29 157.03 C 217.99 160.74 219.34 165.93 215.67 168.50 C 210.88 169.46 205.82 169.15 200.97 168.71 C 196.83 167.04 198.18 161.75 198.08 158.27 L 198.12 158.28 C 204.30 159.75 211.95 161.53 217.29 157.03 Z" />
<path fill="#dadada" opacity="1.00" d=" M 213.07 195.41 C 218.03 195.37 222.94 194.48 227.57 192.72 C 227.21 200.74 227.75 208.82 226.90 216.79 C 223.11 220.07 217.76 219.53 213.12 219.74 C 212.90 211.64 212.97 203.52 213.07 195.41 Z" />
</g>
<g id="#0000004c">
<path fill="#000000" opacity="0.30" d=" M 115.28 225.45 C 134.89 223.98 153.59 215.43 168.26 202.47 C 173.40 203.87 178.72 204.28 184.00 204.82 C 184.21 213.85 183.56 222.93 184.32 231.93 C 185.49 238.28 192.66 240.16 198.14 240.96 C 208.03 242.23 218.80 242.39 227.93 237.86 C 232.77 235.58 233.37 229.85 233.04 225.13 C 238.48 226.22 244.18 227.13 248.94 230.16 C 250.47 231.12 252.29 233.04 251.28 234.97 C 249.43 238.15 245.59 239.26 242.32 240.39 C 230.20 243.84 217.42 244.22 204.91 243.48 C 196.69 242.70 188.17 241.99 180.65 238.30 C 178.42 237.41 177.28 235.24 176.25 233.23 C 147.25 235.82 118.10 236.00 89.02 234.87 C 90.64 236.59 94.04 238.10 92.91 240.97 C 91.29 243.84 87.83 244.91 84.92 245.99 C 79.26 247.61 73.39 249.22 67.46 248.52 C 71.94 247.61 76.77 246.48 80.07 243.07 C 82.83 240.35 82.75 235.60 80.30 232.72 C 77.91 229.88 74.36 228.39 70.94 227.22 C 61.78 224.30 52.12 223.67 42.63 222.62 C 51.13 218.86 61.51 214.84 70.42 219.53 C 84.67 224.77 100.16 226.52 115.28 225.45 Z" />
<path fill="#000000" opacity="0.30" d=" M 16.05 240.60 C 31.51 248.46 49.47 249.19 66.47 248.63 C 65.05 249.21 63.56 249.68 62.01 249.67 C 50.32 250.03 38.46 249.67 27.07 246.81 C 23.03 245.63 18.38 244.48 16.05 240.60 Z" />
</g>
</svg>
