<?xml version="1.0" encoding="UTF-8" standalone="no"?>
<!-- Created with Inkscape (http://www.inkscape.org/) -->

<svg
   xmlns:dc="http://purl.org/dc/elements/1.1/"
   xmlns:cc="http://creativecommons.org/ns#"
   xmlns:rdf="http://www.w3.org/1999/02/22-rdf-syntax-ns#"
   xmlns:svg="http://www.w3.org/2000/svg"
   xmlns="http://www.w3.org/2000/svg"
   xmlns:xlink="http://www.w3.org/1999/xlink"
   xmlns:sodipodi="http://sodipodi.sourceforge.net/DTD/sodipodi-0.dtd"
   xmlns:inkscape="http://www.inkscape.org/namespaces/inkscape"
   id="svg3757"
   version="1.1"
   inkscape:version="0.48.5 r10040"
   width="256"
   height="256"
   sodipodi:docname="cat_fridge.png">
  <metadata
     id="metadata3763">
    <rdf:RDF>
      <cc:Work
         rdf:about="">
        <dc:format>image/svg+xml</dc:format>
        <dc:type
           rdf:resource="http://purl.org/dc/dcmitype/StillImage" />
        <dc:title></dc:title>
      </cc:Work>
    </rdf:RDF>
  </metadata>
  <defs
     id="defs3761" />
  <sodipodi:namedview
     pagecolor="#ffffff"
     bordercolor="#666666"
     borderopacity="1"
     objecttolerance="10"
     gridtolerance="10"
     guidetolerance="10"
     inkscape:pageopacity="0"
     inkscape:pageshadow="2"
     inkscape:window-width="640"
     inkscape:window-height="480"
     id="namedview3759"
     showgrid="false"
     inkscape:zoom="0.921875"
     inkscape:cx="128"
     inkscape:cy="128"
     inkscape:window-x="0"
     inkscape:window-y="0"
     inkscape:window-maximized="0"
     inkscape:current-layer="svg3757" />
  <g
     id="g3767">
    <path
       style="fill:#f4f0e6"
       d="m 112,254.99193 c -1.925,-0.4951 -5.28265,-1.82083 -7.46144,-2.94606 -2.5895,-1.33733 -5.879586,-2.04629 -9.500002,-2.04708 -8.516567,-0.002 -31.529917,-2.8664 -41.345085,-5.14633 -5.474056,-1.27155 -9.822218,-2.9193 -11.490635,-4.35441 -2.633305,-2.26507 -2.648874,-2.3477 -0.822554,-4.36577 1.023855,-1.13134 3.419104,-2.57103 5.322775,-3.1993 2.827779,-0.93325 3.364342,-1.53492 2.931863,-3.28764 C 49.343775,228.4654 48.411609,219.85 47.563441,210.5 42.75696,157.51446 42.744378,106.72113 47.522941,47 49.410388,23.411216 50.300116,18.628714 53.72047,13.686775 58.115291,7.336865 62.795247,5.3522053 76.42323,4.0590664 99.014451,1.9154191 133.16094,1.0393046 157.16094,1.9875366 c 40.42382,1.597132 44.49476,2.1357178 50.59829,6.6941608 6.07285,4.5355266 7.10291,8.1447396 8.71703,30.5433426 4.45568,61.83032 4.46683,141.81561 0.0259,185.85262 l -0.56248,5.57767 5.82814,1.62037 c 3.20548,0.8912 6.6638,2.54375 7.68515,3.67233 1.75007,1.93381 1.7592,2.16005 0.15854,3.92876 -2.91712,3.22337 -17.33641,6.78408 -35.09312,8.66591 -4.57442,0.48479 -7.94675,1.45345 -9.78079,2.80942 -2.70533,2.00014 -2.90751,2.01119 -6.03008,0.32957 -4.25951,-2.2939 -16.23092,-1.41114 -22.70752,1.67443 -4.02374,1.91698 -6.40503,2.16463 -22.5,2.33995 -9.9,0.10783 -19.575,-0.20903 -21.5,-0.70414 z"
       id="path3789"
       inkscape:connector-curvature="0" />
    <path
       style="fill:#dad3c5"
       d="m 113.01098,254.9504 c -2.46896,-0.51025 -5.71324,-1.83282 -7.20951,-2.93906 C 104.00973,250.68665 101.52119,250 98.512052,250 91.577727,250 65.467495,247.10609 57,245.39903 48.281096,243.6413 40.5,240.15205 40.5,238 c 0,-0.825 2.166617,-2.57428 4.814705,-3.88728 4.66869,-2.31488 4.797233,-2.49684 4.238592,-6 C 46.171523,206.9061 43.591027,150.25654 44.355243,114 45.260878,71.034119 48.919423,23.056878 51.713268,17.508689 53.853873,13.257744 57.912966,9.1184317 62,7.0186597 c 6.103296,-3.1356551 29.230412,-4.5236152 74.5,-4.471073 40.28393,0.046755 62.23098,1.2268306 66.8614,3.5950837 3.74517,1.9154831 9.57305,8.1265846 10.59814,11.2950436 1.30832,4.043864 3.68746,38.114449 5.13684,73.562286 1.61704,39.5483 0.52752,93.76878 -2.65615,132.18498 l -0.63688,7.68498 4.34832,1.16984 c 10.03302,2.69922 12.7022,6.43304 6.78588,9.49249 -3.90539,2.01956 -17.72633,4.99515 -29.91148,6.43982 -5.41924,0.64251 -10.16077,1.74481 -11.07874,2.57556 -1.90616,1.72505 -7.53291,1.93189 -8.53302,0.31368 -1.23201,-1.99344 -17.17668,-0.32563 -22.41431,2.34453 -4.09607,2.0882 -5.98108,2.31109 -21,2.48318 -9.075,0.10398 -18.52006,-0.22842 -20.98902,-0.73866 z M 99.234387,215.8095 98.695969,200.619 95.194627,196.0595 c -5.545635,-7.22161 -9.369673,-16.19679 -9.0056,-21.13653 0.567962,-7.70611 4.575764,-7.57092 15.159233,0.51136 2.66655,2.03636 4.99247,3.55827 5.16872,3.38202 0.17625,-0.17625 0.60692,-1.46181 0.95704,-2.85681 0.54823,-2.18434 0.14313,-2.77168 -2.91872,-4.23178 -6.411173,-3.05727 -3.2519,-4.88936 3.9447,-2.28755 2,0.72306 2,0.72306 0,-0.92704 -1.1,-0.90756 -2.63202,-2.01359 -3.40449,-2.45785 -0.82764,-0.47598 -1.13571,-1.50818 -0.75007,-2.51313 0.60291,-1.57118 0.91781,-1.54261 4.00108,0.36295 1.84066,1.13759 3.64069,1.77432 4.00007,1.41494 0.35937,-0.35938 0.65341,-4.08841 0.65341,-8.28675 0,-10.19332 2.51801,-12.56011 8.4219,-7.9161 2.18934,1.72213 4.22056,2.14896 10.88486,2.28728 7.0961,0.14729 8.68644,-0.14809 11.87635,-2.20584 6.97147,-4.49717 9.58798,-1.22338 8.33954,10.43447 l -0.70551,6.58795 2.97996,-1.76031 c 1.85271,-1.09442 3.68412,-1.47945 4.84143,-1.01785 1.78961,0.71378 1.78426,0.7951 -0.13853,2.10621 -1.1,0.75007 -2.9,2.09509 -4,2.98895 -2,1.62518 -2,1.62518 0,0.90212 1.1,-0.39769 3.29483,-0.94391 4.8774,-1.21384 3.7409,-0.63804 3.15792,1.65938 -0.95758,3.77363 -1.6059,0.825 -3.0792,1.58437 -3.27399,1.6875 -0.19479,0.10312 0.0364,1.35928 0.51382,2.79146 l 0.86799,2.60397 5.27665,-3.93691 c 9.35894,-6.9827 14.20921,-7.71599 15.01832,-2.27054 0.68906,4.63747 -5.60524,18.87238 -10.90358,24.65907 -1.61577,1.76469 -1.90939,4.11907 -2.21365,17.75 L 164.35459,231 l 12.68785,0 c 11.33152,0 12.97018,-0.22209 15.32902,-2.07755 1.45265,-1.14266 3.08454,-2.90597 3.62641,-3.91847 1.29241,-2.41488 4.70382,-36.6075 5.98663,-60.00398 0.55789,-10.175 1.0146,-30.70181 1.01492,-45.61514 5.6e-4,-26.301399 -0.0645,-27.197853 -2.16732,-29.871181 C 196.44934,83.941905 197.1753,84 131.93325,84 66.160386,84 67.338936,83.899771 63.308561,89.836153 c -1.656348,2.439651 -1.792516,5.179664 -1.617913,32.556267 0.194391,30.47916 1.206147,51.59082 3.839081,80.10758 1.785248,19.33566 2.611811,22.59987 6.565058,25.9263 2.923414,2.45989 3.602979,2.5737 15.368341,2.5737 l 12.309677,0 -0.538418,-15.1905 z M 66.50571,123.70571 C 63.492624,120.69262 63,119.53955 63,115.5 c 0,-4.01176 0.497872,-5.19787 3.4,-8.1 2.826561,-2.82656 4.133665,-3.39937 7.75,-3.39626 2.566106,0.002 5.678686,0.81386 7.589983,1.97921 1.78199,1.08651 6.28199,2.45949 10,3.05107 3.718009,0.59158 7.825703,1.77116 9.128207,2.62129 2.04719,1.33616 2.29293,2.10675 1.813,5.68496 -0.94466,7.04291 -2.894281,7.81123 -23.42548,9.23161 l -9.24429,0.63954 -3.50571,-3.50571 z m 104.28565,-0.64231 c -3.77143,-1.20901 -8.92916,-5.03142 -8.25687,-6.1192 0.3069,-0.49658 0.10573,-1.74794 -0.44705,-2.78081 -2.33202,-4.35742 3.69158,-13.8803 12.52166,-19.795817 2.33045,-1.56124 5.3909,-0.895872 5.3909,1.172028 0,2.436029 3.78644,2.678169 6.81903,0.436073 1.80522,-1.334656 3.97671,-2.012568 5.78544,-1.806139 2.73139,0.311731 2.88971,0.583972 2.79282,4.802405 -0.0821,3.57655 0.36836,4.84248 2.25,6.32258 2.39631,1.88493 3.1252,5.11002 1.39638,6.17849 -0.52598,0.32507 -0.71607,1.21712 -0.42244,1.98232 0.802,2.08998 -3.3781,3.84062 -7.76539,3.25216 C 188.19018,116.34995 187,116.57014 187,117.42084 c 0,4.31278 -9.75909,7.71011 -16.20864,5.64256 z m 29.1098,-53.512288 C 205.97015,66.412713 206.46925,64.459622 206.81384,42.5 207.30505,11.196078 207.10954,10.930682 182.70487,9.7742081 161.57075,8.7727169 102.94288,8.7663282 82.246138,9.763261 L 65.992275,10.546187 62.746138,13.792324 59.5,17.038462 l 0,23.400205 0,23.400205 2.5,2.689923 c 1.375,1.479457 3.4,3.062187 4.5,3.517177 1.1,0.454991 30.934847,0.855779 66.29966,0.890642 54.28039,0.05351 64.73625,-0.162382 67.1015,-1.385502 z M 128.5,61.417999 c -11.58517,-1.937898 -12.29585,-2.19209 -13.05743,-4.670323 -0.3799,-1.236222 -1.53489,-3.052706 -2.56665,-4.036631 -1.03176,-0.983925 -1.87478,-2.558925 -1.8734,-3.5 0.004,-2.913073 4.9899,-20.496983 6.23792,-22.000761 0.8196,-0.987556 2.49807,-1.274433 5.48603,-0.937647 2.36782,0.266888 4.54958,0.08973 4.84835,-0.393693 C 129.11264,23.390691 137,26.062286 137,29.071429 137,29.582143 137.79987,30 138.77749,30 c 2.93969,0 6.08773,2.85233 7.06855,6.404564 0.93169,3.374325 -1.48731,22.606846 -3.18787,25.345436 -0.93063,1.498694 -3.58614,1.436424 -14.15817,-0.332001 z"
       id="path3787"
       inkscape:connector-curvature="0" />
    <path
       style="fill:#cec6b6"
       d="m 113.1185,254.51504 c -3.50983,-0.79369 -7.10983,-2.08257 -8,-2.86418 -1.08932,-0.95646 -6.522831,-1.80709 -16.6185,-2.60165 -17.618782,-1.38665 -35.155456,-4.21404 -42.077,-6.78395 -4.074272,-1.51275 -4.923,-2.25348 -4.923,-4.29657 0,-2.01476 0.796957,-2.74417 4.334215,-3.96687 l 4.334215,-1.49818 -0.602173,-5.00182 C 45.924644,197.25359 43.563802,145.03062 44.41258,113.5 45.424617,75.904589 48.948755,26.196078 51.084218,19.395494 52.510318,14.853946 58.391375,8.4592231 62.727161,6.7356287 69.528618,4.0318622 96.392365,2.4972046 136,2.5497376 c 41.71666,0.05533 61.98526,1.3817691 67.9997,4.4501069 4.5258,2.3088911 8.4599,6.7851465 9.86525,11.2247515 1.47495,4.659522 3.90456,42.683643 5.27108,82.494254 1.20427,35.08389 0.29148,81.44139 -2.24521,114.02576 -0.60991,7.83453 -0.88673,14.82367 -0.61514,15.53141 0.27158,0.70774 2.68316,1.85756 5.35905,2.55515 17.6993,4.61412 5.52013,11.56943 -26.34017,15.04241 -5.45262,0.59437 -8.77772,1.46673 -9.91126,2.60026 -1.25243,1.25244 -2.52677,1.52058 -4.79456,1.00887 -1.69881,-0.38332 -7.06686,-0.90673 -11.92901,-1.16312 -6.75568,-0.35625 -9.23165,-0.12857 -10.5,0.96551 -3.45704,2.98206 -8.90696,3.97772 -23.65973,4.32248 -10.58997,0.24748 -16.87617,-0.0737 -21.3815,-1.09254 z M 101.59403,237.75 c -1.5761,-10.58115 -2.580245,-21.89453 -2.596147,-29.25 -0.01647,-7.6163 -0.18411,-8.20985 -3.495288,-12.37519 -4.882606,-6.14213 -8.730951,-14.44596 -9.263519,-19.9885 -0.838842,-8.73 3.87212,-9.06768 14.505064,-1.03973 2.97488,2.24605 5.56287,3.92974 5.75108,3.74153 0.18822,-0.18822 0.63557,-1.51103 0.99411,-2.93959 0.55883,-2.22654 0.2135,-2.77897 -2.41871,-3.86927 C 103.38178,171.32971 102,170.13695 102,169.37868 c 0,-1.77634 1.39384,-1.7435 4.99291,0.11765 1.80428,0.93303 3.12325,1.12474 3.50364,0.50924 0.33554,-0.5429 -0.98893,-1.74959 -2.94324,-2.68154 C 105.59899,166.39208 104,165.03792 104,164.31479 c 0,-1.68831 1.84199,-1.62007 5,0.18521 1.375,0.78602 2.8375,1.44508 3.25,1.46456 0.4125,0.0195 0.75,-3.53242 0.75,-7.89313 0,-5.87446 0.40712,-8.33569 1.57143,-9.5 2.05517,-2.05517 2.51645,-2.00101 6.60835,0.77583 2.8911,1.96195 4.36782,2.27187 8.99613,1.88806 3.04549,-0.25256 6.39896,0.002 7.45215,0.56562 1.52599,0.81669 2.7083,0.43324 5.82155,-1.88806 4.75311,-3.544 6.04021,-3.62114 8.09501,-0.48513 1.27375,1.94399 1.44994,3.85643 0.88424,9.59747 l -0.70649,7.16971 3.08916,-1.59747 c 1.69903,-0.8786 3.5615,-1.59746 4.13881,-1.59746 2.13293,0 0.94478,2.55248 -1.95666,4.20349 -4.20789,2.39441 -3.77725,4.13781 0.51633,2.09034 2.62081,-1.24977 3.79789,-1.38593 4.64638,-0.53744 0.84848,0.84848 0.1986,1.58355 -2.56532,2.90157 -3.20627,1.52896 -3.61648,2.10466 -3.06509,4.30158 0.35012,1.395 0.79058,2.69035 0.9788,2.87857 0.18821,0.18821 2.7762,-1.49548 5.75108,-3.74153 9.74698,-7.35905 15.59213,-7.61942 14.43404,-0.64297 -0.94289,5.68006 -4.71969,14.26241 -8.75832,19.9023 l -4.0226,5.61749 -0.36846,16.0133 -0.36845,16.0133 4.9538,0 c 5.64155,0 11.6694,2.65297 14.65668,6.45069 1.94107,2.46766 2.11064,2.49366 10.94663,1.67833 4.93626,-0.45549 9.49477,-1.1494 10.13003,-1.54201 3.08748,-1.90816 4.39473,-7.42972 5.79818,-24.49023 1.59171,-19.34898 3.05448,-115.243611 1.89899,-124.491807 L 211.85609,84 132.06397,84 52.271848,84 51.635924,88.639571 C 50.634984,95.942224 50.9028,161.74021 52.007787,180 c 1.710259,28.26187 3.998214,49.05201 5.814117,52.8316 3.403949,7.08491 2.780774,6.94967 41.54164,9.01576 2.817506,0.15019 2.853366,0.0843 2.230486,-4.09736 z M 68.225074,124.9958 c -3.959831,-2.41431 -5.568708,-6.16852 -4.884798,-11.39838 1.128939,-8.633 10.401501,-12.17721 18.871788,-7.21329 2.455008,1.43873 5.687346,2.61587 7.182973,2.61587 5.071476,0 11.643153,2.20283 12.751833,4.27443 1.64276,3.06952 -0.60355,9.5685 -3.716316,10.75197 -2.090042,0.79464 -20.79122,2.978 -25.430554,2.96903 -0.825,-0.002 -2.973717,-0.90143 -4.774926,-1.99963 z M 96,116.34113 l 2.5,-0.55657 -2.341133,-0.89377 c -3.375255,-1.28856 -15.501542,-2.27258 -18.556544,-1.50583 -3.429582,0.86077 -3.335369,3.36434 0.147677,3.92431 3.065061,0.49277 14.385363,-0.10776 18.25,-0.96814 z m 75.84264,3.68418 c -3.78033,-1.14204 -8.32728,-3.97044 -9.56245,-5.94827 -1.88882,-3.02447 1.13728,-9.08251 7.65613,-15.32704 3.30142,-3.1625 6.38518,-5.75 6.8528,-5.75 0.46761,0 1.82838,1.125 3.02393,2.5 2.62452,3.018463 3.22169,3.059044 7.41278,0.503738 6.14897,-3.749027 9.7643,-1.796913 8.2018,4.428592 -0.51699,2.05984 -0.10843,3.03091 1.9596,4.65763 1.43702,1.13036 2.61277,2.89702 2.61277,3.92592 0,2.52029 -3.74089,4.98412 -7.56752,4.98412 -1.92902,0 -3.85063,0.81719 -5.02749,2.13802 -3.69856,4.15098 -9.71491,5.6538 -15.56235,3.88729 z M 211.49674,66.75 C 209.51976,30.685362 208.40673,20.022489 206.32593,17.213338 201.5722,10.795631 199.78728,10.296076 178.26508,9.3598188 154.06331,8.3069956 99.593622,8.5064008 80.240903,9.7186702 l -14.259098,0.8932008 -4.020111,3.925533 c -2.211061,2.159044 -4.444533,5.508873 -4.963272,7.444065 -0.823368,3.071632 -2.153399,17.40729 -4.571027,49.268531 l -0.663949,8.75 80.229814,0 80.22982,0 -0.72634,-13.25 z M 123.08251,56.483422 c -4.62962,-1.305675 -9.30634,-3.262811 -10.39272,-4.349191 -1.96698,-1.966981 -1.96616,-2.012135 0.19667,-10.804733 1.19455,-4.856224 2.66574,-10.072722 3.26931,-11.592218 1.19607,-3.011106 4.41947,-4.311688 8.28294,-3.342018 1.3413,0.336643 2.71786,0.160427 3.05902,-0.391592 1.18585,-1.91875 6.29162,-1.086925 8.19707,1.335455 1.01197,1.286519 3.18213,2.782248 4.82258,3.323842 5.2142,1.721475 5.78609,4.664028 2.95932,15.226724 -1.3584,5.07592 -2.9372,10.102253 -3.50845,11.169628 -1.39644,2.609274 -6.16902,2.446503 -16.88574,-0.575897 z"
       id="path3785"
       inkscape:connector-curvature="0" />
    <path
       style="fill:#f7d85c"
       d="m 115.65589,252.60047 -3.24435,-3.54201 -20.455769,-1.02486 C 65.525003,246.70938 61.589823,246.20204 57.808633,243.63123 51.538347,239.36811 50.214334,234.24423 47.438709,203.5 45.271796,179.49818 44.365395,106.98482 45.899368,80.350498 48.32694,38.200635 49.960992,22.965772 52.668255,17.241693 55.497243,11.260245 59.690429,7.6426446 65.5,6.1713211 c 13.641745,-3.4548887 85.70281,-4.8738849 118,-2.3236064 18.63796,1.4717064 23.2042,3.0801698 27.87402,9.8186453 2.75278,3.972216 2.94888,4.997375 4.20831,22 2.90588,39.23014 3.66161,66.86573 3.12221,114.17325 -0.29888,26.21322 -1.02594,53.51039 -1.61569,60.66039 -0.58974,7.15 -1.2563,15.52343 -1.48125,18.60763 -0.92428,12.67258 -7.19772,17.72024 -22.18329,17.84882 -4.08788,0.0351 -5.53276,0.53009 -7.42431,2.54355 -2.83991,3.02294 -6.05238,3.20459 -8.51668,0.48157 -1.71084,-1.89046 -2.59059,-1.97526 -13.8754,-1.33751 l -12.04873,0.68093 -3.2161,3.41006 c -4.27128,4.52887 -8.33448,4.32582 -9.70592,-0.48505 -0.90475,-3.17374 -1.05903,-3.25 -6.57503,-3.25 -5.50979,0 -5.67205,0.0798 -6.60534,3.25 -1.43541,4.87571 -5.52209,5.02185 -9.80091,0.35047 z M 102.60377,240.25 c -1.44971,-4.77766 -2.812195,-17.01309 -3.122516,-28.04088 -0.343052,-12.19094 -0.37185,-12.32049 -3.541264,-15.93025 -4.074288,-4.64036 -8.677617,-14.34643 -9.5439,-20.12323 -1.258201,-8.39028 3.757528,-8.61762 14.59585,-0.66156 2.62681,1.92826 5.0092,3.50592 5.29421,3.50592 0.28501,0 0.96724,-1.28811 1.51606,-2.86246 0.92689,-2.65888 0.75605,-2.97777 -2.40218,-4.48382 C 103.53001,170.76197 102,169.57508 102,169.01618 c 0,-1.42204 1.61478,-1.26675 4.99291,0.48015 4.2192,2.18184 4.65474,0.0671 0.51332,-2.49248 -5.64018,-3.48582 -4.15589,-5.68211 1.55871,-2.30642 1.58044,0.93359 3.21339,1.35758 3.62877,0.94219 0.41539,-0.41538 0.62491,-3.6574 0.46562,-7.20448 -0.1593,-3.54707 -0.005,-7.34606 0.34291,-8.44218 0.82103,-2.58686 5.13727,-2.60967 8.4753,-0.0448 1.93746,1.48871 3.49854,1.78278 7.16122,1.34899 2.57602,-0.30509 6.1527,-0.0426 7.94817,0.5833 2.79682,0.97497 3.56168,0.86806 5.33879,-0.74626 3.74258,-3.39975 6.10766,-4.19588 8.11165,-2.73053 1.52667,1.11633 1.78198,2.61341 1.61349,9.46125 -0.11009,4.47429 0.17492,8.13508 0.63336,8.13508 0.45844,0 1.70703,-0.66069 2.77465,-1.4682 1.06762,-0.8075 2.50363,-1.4825 3.19113,-1.5 2.38673,-0.0607 1.23077,2.047 -2.24851,4.09982 -4.36957,2.57811 -3.65458,4.24812 0.98823,2.30823 4.21236,-1.76004 4.51028,-1.77055 4.51028,-0.15909 0,0.70442 -1.35,1.79033 -3,2.41314 -3.01656,1.13862 -3.82403,3.4582 -2.13251,6.12594 0.64068,1.01042 2.33678,0.27798 7.23469,-3.12422 3.5188,-2.44423 7.3629,-4.74093 8.54245,-5.10378 3.15797,-0.97145 5.69668,1.95163 4.94765,5.69677 -0.97048,4.85237 -5.84453,14.89266 -9.56806,19.70967 l -3.4798,4.50172 -0.18206,12.40601 c -0.10013,6.8233 -0.45895,14.25244 -0.79737,16.5092 l -0.61532,4.1032 4.46866,-0.3554 c 6.05414,-0.48151 10.61356,1.20221 14.9217,5.51035 l 3.60605,3.60605 8.77696,-0.70801 c 13.63054,-1.09953 14.53903,-2.53083 16.23114,-25.5714 2.74329,-37.35413 3.64756,-80.47556 2.38536,-113.75 L 212.6852,84 l -80.73191,0 -80.731902,0 -0.749195,21.75 c -1.116076,32.40097 0.476638,76.81944 3.974246,110.83593 1.413428,13.74649 3.614322,20.30585 7.513512,22.39264 2.039407,1.09145 19.918955,2.63471 33.357437,2.8792 7.016122,0.12765 7.762962,-0.0371 7.286382,-1.60777 z M 68.762571,125.43461 c -7.534352,-4.08809 -7.412149,-15.97886 0.204696,-19.91768 4.052934,-2.09586 7.90833,-1.89216 12.032733,0.63574 1.925,1.17986 6.838122,2.7288 10.918049,3.44209 4.767483,0.8335 8.135331,2.01418 9.425481,3.30433 1.84409,1.84408 1.89863,2.33714 0.67024,6.05917 -1.5719,4.76293 -3.066994,5.33598 -18.224356,6.98518 -11.934481,1.29853 -11.680002,1.30715 -15.026843,-0.50883 z m 29.502307,-9.29949 c 2.028592,-2.02859 -18.129928,-4.27534 -22.683091,-2.52813 -2.115736,0.81188 -2.012964,3.11673 0.168213,3.77249 2.745052,0.82529 21.480719,-0.2102 22.514878,-1.24436 z m 70.735632,2.74143 c -6.09864,-2.43186 -8.40553,-7.18966 -5.91161,-12.19229 1.56989,-3.14908 11.99537,-12.687391 13.84515,-12.666983 0.86127,0.0095 2.62568,1.134502 3.92091,2.5 C 183.19189,98.980995 185,99.721824 185,98.215608 185,96.997664 190.57272,94 192.8369,94 c 2.38989,0 3.50824,2.77668 2.59073,6.43233 -0.51699,2.05984 -0.10843,3.03091 1.9596,4.65763 4.98313,3.91973 1.84125,8.91004 -5.60974,8.91004 -2.07762,0 -3.77749,0.45661 -3.77749,1.0147 0,0.55808 -1.4625,1.9064 -3.25,2.99626 -3.5524,2.16594 -11.40599,2.59757 -15.74949,0.86559 z M 212.52174,77.25 C 212.2862,75.7375 211.84491,68.875 211.54111,62 210.52262,38.951854 208.77948,20.55131 207.34877,17.745734 206.57627,16.230888 204.26928,13.896551 202.22211,12.558319 198.70228,10.257401 197.19569,10.059858 174.5,8.9234231 150.65201,7.7292892 97.635089,8.2277237 75.262609,9.8563958 65.875383,10.539767 64.778867,10.837677 62.058744,13.44372 c -1.63156,1.563134 -3.632719,4.24607 -4.447019,5.962081 -1.547763,3.261667 -4.104935,26.707041 -5.250862,48.142416 L 51.695195,80 132.3226,80 212.95,80 212.52174,77.25 z m -89.4032,-21.084846 c -12.56966,-3.570879 -12.74075,-3.871134 -9.49697,-16.666201 3.01824,-11.905414 4.20779,-13.53368 9.78184,-13.389529 2.25313,0.05827 5.30722,-0.214839 6.78688,-0.606904 2.14836,-0.569251 3.23606,-0.167075 5.39964,1.996501 1.49014,1.49014 3.99472,3.157431 5.56574,3.705089 4.16183,1.450824 4.5662,4.756614 1.86923,15.281221 -3.56486,13.911393 -4.09817,14.170727 -19.90636,9.679823 z"
       id="path3783"
       inkscape:connector-curvature="0" />
    <path
       style="fill:#aa9f8e"
       d="m 115.65589,252.60047 -3.24435,-3.54201 -20.455769,-1.02486 C 65.525003,246.70938 61.589823,246.20204 57.808633,243.63123 51.538347,239.36811 50.214334,234.24423 47.438709,203.5 45.271796,179.49818 44.365395,106.98482 45.899368,80.350498 48.32694,38.200635 49.960992,22.965772 52.668255,17.241693 55.497243,11.260245 59.690429,7.6426446 65.5,6.1713211 c 13.641745,-3.4548887 85.70281,-4.8738849 118,-2.3236064 18.63796,1.4717064 23.2042,3.0801698 27.87402,9.8186453 2.75278,3.972216 2.94888,4.997375 4.20831,22 2.90588,39.23014 3.66161,66.86573 3.12221,114.17325 -0.29888,26.21322 -1.02594,53.51039 -1.61569,60.66039 -0.58974,7.15 -1.2563,15.52343 -1.48125,18.60763 -0.92428,12.67258 -7.19772,17.72024 -22.18329,17.84882 -4.08788,0.0351 -5.53276,0.53009 -7.42431,2.54355 -2.83991,3.02294 -6.05238,3.20459 -8.51668,0.48157 -1.71084,-1.89046 -2.59059,-1.97526 -13.8754,-1.33751 l -12.04873,0.68093 -3.2161,3.41006 c -4.27128,4.52887 -8.33448,4.32582 -9.70592,-0.48505 -0.90475,-3.17374 -1.05903,-3.25 -6.57503,-3.25 -5.50979,0 -5.67205,0.0798 -6.60534,3.25 -1.43541,4.87571 -5.52209,5.02185 -9.80091,0.35047 z M 102.60377,240.25 c -1.44971,-4.77766 -2.812195,-17.01309 -3.122516,-28.04088 -0.343052,-12.19094 -0.37185,-12.32049 -3.541264,-15.93025 -4.074288,-4.64036 -8.677617,-14.34643 -9.5439,-20.12323 -1.258201,-8.39028 3.757528,-8.61762 14.59585,-0.66156 2.62681,1.92826 5.0092,3.50592 5.29421,3.50592 0.28501,0 0.96724,-1.28811 1.51606,-2.86246 0.92689,-2.65888 0.75605,-2.97777 -2.40218,-4.48382 C 103.53001,170.76197 102,169.57508 102,169.01618 c 0,-1.42204 1.61478,-1.26675 4.99291,0.48015 4.2192,2.18184 4.65474,0.0671 0.51332,-2.49248 -5.64018,-3.48582 -4.15589,-5.68211 1.55871,-2.30642 1.58044,0.93359 3.21339,1.35758 3.62877,0.94219 0.41539,-0.41538 0.62491,-3.6574 0.46562,-7.20448 -0.1593,-3.54707 -0.005,-7.34606 0.34291,-8.44218 0.82103,-2.58686 5.13727,-2.60967 8.4753,-0.0448 1.93746,1.48871 3.49854,1.78278 7.16122,1.34899 2.57602,-0.30509 6.1527,-0.0426 7.94817,0.5833 2.79682,0.97497 3.56168,0.86806 5.33879,-0.74626 3.74258,-3.39975 6.10766,-4.19588 8.11165,-2.73053 1.52667,1.11633 1.78198,2.61341 1.61349,9.46125 -0.11009,4.47429 0.17492,8.13508 0.63336,8.13508 0.45844,0 1.70703,-0.66069 2.77465,-1.4682 1.06762,-0.8075 2.50363,-1.4825 3.19113,-1.5 2.38673,-0.0607 1.23077,2.047 -2.24851,4.09982 -4.36957,2.57811 -3.65458,4.24812 0.98823,2.30823 4.21236,-1.76004 4.51028,-1.77055 4.51028,-0.15909 0,0.70442 -1.35,1.79033 -3,2.41314 -3.01656,1.13862 -3.82403,3.4582 -2.13251,6.12594 0.64068,1.01042 2.33678,0.27798 7.23469,-3.12422 3.5188,-2.44423 7.3629,-4.74093 8.54245,-5.10378 3.15797,-0.97145 5.69668,1.95163 4.94765,5.69677 -0.97048,4.85237 -5.84453,14.89266 -9.56806,19.70967 l -3.4798,4.50172 -0.18206,12.40601 c -0.10013,6.8233 -0.45895,14.25244 -0.79737,16.5092 l -0.61532,4.1032 4.46866,-0.3554 c 6.05414,-0.48151 10.61356,1.20221 14.9217,5.51035 l 3.60605,3.60605 8.77696,-0.70801 c 13.63054,-1.09953 14.53903,-2.53083 16.23114,-25.5714 2.74329,-37.35413 3.64756,-80.47556 2.38536,-113.75 L 212.6852,84 l -80.73191,0 -80.731902,0 -0.749195,21.75 c -1.116076,32.40097 0.476638,76.81944 3.974246,110.83593 1.413428,13.74649 3.614322,20.30585 7.513512,22.39264 2.039407,1.09145 19.918955,2.63471 33.357437,2.8792 7.016122,0.12765 7.762962,-0.0371 7.286382,-1.60777 z M 68.762571,125.43461 c -7.534352,-4.08809 -7.412149,-15.97886 0.204696,-19.91768 4.052934,-2.09586 7.90833,-1.89216 12.032733,0.63574 1.925,1.17986 6.838122,2.7288 10.918049,3.44209 4.767483,0.8335 8.135331,2.01418 9.425481,3.30433 1.84409,1.84408 1.89863,2.33714 0.67024,6.05917 -1.5719,4.76293 -3.066994,5.33598 -18.224356,6.98518 -11.934481,1.29853 -11.680002,1.30715 -15.026843,-0.50883 z m 29.502307,-9.29949 c 2.028592,-2.02859 -18.129928,-4.27534 -22.683091,-2.52813 -2.115736,0.81188 -2.012964,3.11673 0.168213,3.77249 2.745052,0.82529 21.480719,-0.2102 22.514878,-1.24436 z m 70.735632,2.74143 c -6.09864,-2.43186 -8.40553,-7.18966 -5.91161,-12.19229 1.56989,-3.14908 11.99537,-12.687391 13.84515,-12.666983 0.86127,0.0095 2.62568,1.134502 3.92091,2.5 C 183.19189,98.980995 185,99.721824 185,98.215608 185,96.997664 190.57272,94 192.8369,94 c 2.38989,0 3.50824,2.77668 2.59073,6.43233 -0.51699,2.05984 -0.10843,3.03091 1.9596,4.65763 4.98313,3.91973 1.84125,8.91004 -5.60974,8.91004 -2.07762,0 -3.77749,0.45661 -3.77749,1.0147 0,0.55808 -1.4625,1.9064 -3.25,2.99626 -3.5524,2.16594 -11.40599,2.59757 -15.74949,0.86559 z M 212.52174,77.25 C 212.2862,75.7375 211.84491,68.875 211.54111,62 210.52262,38.951854 208.77948,20.55131 207.34877,17.745734 206.57627,16.230888 204.26928,13.896551 202.22211,12.558319 198.70228,10.257401 197.19569,10.059858 174.5,8.9234231 150.65201,7.7292892 97.635089,8.2277237 75.262609,9.8563958 65.875383,10.539767 64.778867,10.837677 62.058744,13.44372 c -1.63156,1.563134 -3.632719,4.24607 -4.447019,5.962081 -1.547763,3.261667 -4.104935,26.707041 -5.250862,48.142416 L 51.695195,80 132.3226,80 212.95,80 212.52174,77.25 z m -89.4032,-21.084846 c -12.56966,-3.570879 -12.74075,-3.871134 -9.49697,-16.666201 3.01824,-11.905414 4.20779,-13.53368 9.78184,-13.389529 2.25313,0.05827 5.30722,-0.214839 6.78688,-0.606904 2.14836,-0.569251 3.23606,-0.167075 5.39964,1.996501 1.49014,1.49014 3.99472,3.157431 5.56574,3.705089 4.16183,1.450824 4.5662,4.756614 1.86923,15.281221 -3.56486,13.911393 -4.09817,14.170727 -19.90636,9.679823 z m 15.57031,-9.176514 c 1.20387,-4.118752 2.21637,-8.470816 2.25,-9.671252 0.0795,-2.837553 -3.37872,-4.020378 -5.51335,-1.885749 -3.2886,3.288607 -8.95947,1.345035 -10.74212,-3.681639 -0.34133,-0.9625 -1.51739,-1.75 -2.61345,-1.75 -1.46269,0 -2.25245,0.997611 -2.9687,3.75 -3.60136,13.83925 -3.86302,15.279187 -2.88618,15.88291 1.798,1.111225 17.22583,5.255343 18.78495,5.045885 0.9456,-0.127034 2.30901,-2.969341 3.68885,-7.690155 z"
       id="path3781"
       inkscape:connector-curvature="0" />
    <path
       style="fill:#f05b89"
       d="m 117.24344,253.55139 c -5.46399,-4.59765 -11.83163,-19.50717 -14.25349,-33.37385 -0.60733,-3.47735 -1.01783,-10.60625 -0.91223,-15.84201 l 0.19201,-9.51955 -5.52708,-4.33802 C 87.271397,183.0443 82.711898,170 89.584793,170 c 3.044908,0 5.454557,1.20563 11.309007,5.65827 2.41659,1.83795 4.70686,3.34173 5.08949,3.34173 0.72346,0 3.30939,-5.07388 2.80415,-5.50205 -0.15809,-0.13398 -1.74994,-0.98738 -3.53744,-1.89645 -1.7875,-0.90907 -3.25,-2.0913 -3.25,-2.62718 0,-1.31769 0.59518,-1.23502 4.07903,0.56655 2.81023,1.45323 4.92097,1.27536 4.92097,-0.41467 0,-0.41568 -1.59899,-1.51828 -3.55331,-2.45023 -1.95431,-0.93195 -3.26472,-2.16138 -2.91201,-2.73208 0.41071,-0.66455 1.84524,-0.32727 3.98989,0.93811 4.62905,2.7312 5.60193,1.27852 4.81163,-7.18463 -0.67298,-7.20681 0.32313,-9.69737 3.87852,-9.69737 1.0834,0 3.12209,0.90637 4.53042,2.01416 2.09141,1.64511 3.43693,1.89792 7.3433,1.37972 2.70333,-0.35861 6.16651,-0.15205 7.96554,0.47509 2.82777,0.98577 3.51988,0.82594 6.20408,-1.43266 1.92893,-1.62309 3.96499,-2.43268 5.63159,-2.23926 2.57851,0.29925 2.61385,0.41511 2.89714,9.49752 l 0.28679,9.19456 3.37523,-1.99143 c 2.16022,-1.27456 3.60608,-1.61791 4.01651,-0.95381 0.35271,0.5707 -0.9577,1.80013 -2.91201,2.73208 -1.95432,0.93195 -3.55331,2.03455 -3.55331,2.45023 0,1.69003 2.11074,1.8679 4.92097,0.41467 3.48385,-1.80157 4.07903,-1.88424 4.07903,-0.56655 0,0.53588 -1.4625,1.71811 -3.25,2.62718 -1.7875,0.90907 -3.39896,1.78208 -3.58102,1.94003 -0.2782,0.24136 1.52793,4.27013 2.36359,5.27225 0.14392,0.17259 3.26141,-1.73991 6.92776,-4.25 7.03395,-4.81563 11.81727,-5.88871 12.9612,-2.90768 1.70252,4.43671 -5.41853,16.01971 -12.837,20.88047 -2.21923,1.4541 -2.36028,2.2324 -2.85376,15.74657 -0.29184,7.99191 -1.18636,16.62448 -2.04297,19.71551 -0.8381,3.02426 -1.44822,5.55996 -1.35581,5.63489 0.0924,0.0749 2.97878,-0.32375 6.41417,-0.88597 7.90622,-1.29389 13.5351,0.60759 18.69026,6.31374 4.01539,4.44455 4.6599,8.63656 1.73484,11.2837 -2.79645,2.53075 -5.4469,1.99755 -9.17126,-1.84501 -3.82027,-3.94152 -5.84317,-4.19716 -17,-2.14838 -5.60814,1.02985 -7.07804,1.7847 -10.71283,5.50149 -2.52112,2.57798 -4.92041,4.17159 -5.97489,3.96851 -2.25681,-0.43462 -4.27864,-4.42888 -4.29754,-8.49006 -0.0117,-2.51089 -0.71371,-3.60043 -3.38277,-5.25 C 132.77955,240.9367 130.07955,240 128.63197,240 126.09305,240 126,240.20425 126,245.77749 126,251.73112 124.12918,256 121.52002,256 c -0.75161,0 -2.67607,-1.10188 -4.27658,-2.44861 z M 133.5,202 c 0.99549,-1.1 1.58498,-2 1.30998,-2 -0.275,0 -1.31449,0.9 -2.30998,2 -0.99549,1.1 -1.58498,2 -1.30998,2 0.275,0 1.31449,-0.9 2.30998,-2 z M 118,190.5 c 0.68469,-0.825 1.01989,-1.5 0.74489,-1.5 -0.275,0 -1.0602,0.675 -1.74489,1.5 -0.68469,0.825 -1.01989,1.5 -0.74489,1.5 0.275,0 1.0602,-0.675 1.74489,-1.5 z M 69.320985,125.43436 C 66.192282,123.84452 63,118.82737 63,115.5 c 0,-0.93376 0.709773,-3.19348 1.577273,-5.0216 2.98423,-6.2888 11.682151,-8.09606 17.57128,-3.65098 1.293296,0.97618 5.707078,2.32889 9.808405,3.00603 C 99.683834,111.10918 103,113.00058 103,116.13193 c 0,2.77544 -3.814541,4.6621 -11,5.44056 -3.643849,0.39477 -7.644778,1.50687 -9.105273,2.5309 -3.827568,2.6837 -9.765794,3.26598 -13.573742,1.33097 z m 28.721532,-8.96064 c 0.90268,-0.55788 0.809575,-0.97699 -0.362794,-1.63308 -2.381921,-1.33299 -15.42142,-2.75682 -19.373595,-2.11547 -3.779313,0.6133 -5.431925,2.90304 -3.201845,4.43625 1.562262,1.07408 21.03209,0.49036 22.938234,-0.6877 z M 168.5,118.13652 c -5.6356,-2.56358 -6.86825,-4.36007 -6.03589,-8.79688 0.5142,-2.74092 2.25189,-5.17236 6.79728,-9.510961 6.4063,-6.114848 9.00164,-7.074235 10.67565,-3.946328 1.56863,2.93102 4.11893,3.412046 6.46842,1.220048 1.152,-1.074777 3.29507,-2.252002 4.76237,-2.616055 3.51106,-0.871127 5.33308,2.065966 3.79356,6.115216 -0.99475,2.61637 -0.11249,4.33244 2.25343,4.38313 1.24132,0.0266 2.80236,3.80696 2.20974,5.35131 -0.75671,1.97197 -5.90405,4.03338 -8.42512,3.37411 -1.23071,-0.32184 -2.49783,0.13794 -3.25694,1.18179 -3.83561,5.2744 -11.82053,6.6208 -19.2425,3.24462 z M 124,56.105047 c -11.50824,-3.236799 -11.99646,-3.517782 -12.01351,-6.914064 -0.0202,-4.030692 4.12377,-19.475656 5.67922,-21.166828 0.74658,-0.811715 3.26471,-1.558659 5.59585,-1.659875 2.33114,-0.101217 5.47208,-0.501309 6.97986,-0.889093 2.26418,-0.58232 3.24798,-0.162792 5.65121,2.409876 1.60039,1.713215 3.5595,3.114937 4.35359,3.114937 1.99149,0 4.75639,3.253226 4.74136,5.578741 -0.026,4.022594 -5.0564,19.977321 -6.67511,21.171259 C 136.1122,59.372875 135.27746,59.276936 124,56.105047 z m 14.68885,-9.116407 c 1.20387,-4.118752 2.21637,-8.470816 2.25,-9.671252 0.0795,-2.837553 -3.37872,-4.020378 -5.51335,-1.885749 -3.2886,3.288607 -8.95947,1.345035 -10.74212,-3.681639 -0.34133,-0.9625 -1.51739,-1.75 -2.61345,-1.75 -1.46269,0 -2.25245,0.997611 -2.9687,3.75 -3.60136,13.83925 -3.86302,15.279187 -2.88618,15.88291 1.798,1.111225 17.22583,5.255343 18.78495,5.045885 0.9456,-0.127034 2.30901,-2.969341 3.68885,-7.690155 z"
       id="path3779"
       inkscape:connector-curvature="0" />
    <path
       style="fill:#dc8b38"
       d="m 117.24344,253.55139 c -5.46399,-4.59765 -11.83163,-19.50717 -14.25349,-33.37385 -0.60733,-3.47735 -1.01783,-10.60625 -0.91223,-15.84201 l 0.19201,-9.51955 -5.52708,-4.33802 C 87.271397,183.0443 82.711898,170 89.584793,170 c 3.044908,0 5.454557,1.20563 11.309007,5.65827 2.41659,1.83795 4.70686,3.34173 5.08949,3.34173 0.72346,0 3.30939,-5.07388 2.80415,-5.50205 -0.15809,-0.13398 -1.74994,-0.98738 -3.53744,-1.89645 -1.7875,-0.90907 -3.25,-2.0913 -3.25,-2.62718 0,-1.31769 0.59518,-1.23502 4.07903,0.56655 2.81023,1.45323 4.92097,1.27536 4.92097,-0.41467 0,-0.41568 -1.59899,-1.51828 -3.55331,-2.45023 -1.95431,-0.93195 -3.26472,-2.16138 -2.91201,-2.73208 0.41071,-0.66455 1.84524,-0.32727 3.98989,0.93811 4.62905,2.7312 5.60193,1.27852 4.81163,-7.18463 -0.67298,-7.20681 0.32313,-9.69737 3.87852,-9.69737 1.0834,0 3.12209,0.90637 4.53042,2.01416 2.09141,1.64511 3.43693,1.89792 7.3433,1.37972 2.70333,-0.35861 6.16651,-0.15205 7.96554,0.47509 2.82777,0.98577 3.51988,0.82594 6.20408,-1.43266 1.92893,-1.62309 3.96499,-2.43268 5.63159,-2.23926 2.57851,0.29925 2.61385,0.41511 2.89714,9.49752 l 0.28679,9.19456 3.37523,-1.99143 c 2.16022,-1.27456 3.60608,-1.61791 4.01651,-0.95381 0.35271,0.5707 -0.9577,1.80013 -2.91201,2.73208 -1.95432,0.93195 -3.55331,2.03455 -3.55331,2.45023 0,1.69003 2.11074,1.8679 4.92097,0.41467 3.48385,-1.80157 4.07903,-1.88424 4.07903,-0.56655 0,0.53588 -1.4625,1.71811 -3.25,2.62718 -1.7875,0.90907 -3.39896,1.78208 -3.58102,1.94003 -0.2782,0.24136 1.52793,4.27013 2.36359,5.27225 0.14392,0.17259 3.26141,-1.73991 6.92776,-4.25 7.03395,-4.81563 11.81727,-5.88871 12.9612,-2.90768 1.70252,4.43671 -5.41853,16.01971 -12.837,20.88047 -2.21923,1.4541 -2.36028,2.2324 -2.85376,15.74657 -0.29184,7.99191 -1.18636,16.62448 -2.04297,19.71551 -0.8381,3.02426 -1.44822,5.55996 -1.35581,5.63489 0.0924,0.0749 2.97878,-0.32375 6.41417,-0.88597 7.90622,-1.29389 13.5351,0.60759 18.69026,6.31374 4.01539,4.44455 4.6599,8.63656 1.73484,11.2837 -2.79645,2.53075 -5.4469,1.99755 -9.17126,-1.84501 -3.82027,-3.94152 -5.84317,-4.19716 -17,-2.14838 -5.60814,1.02985 -7.07804,1.7847 -10.71283,5.50149 -2.52112,2.57798 -4.92041,4.17159 -5.97489,3.96851 -2.25681,-0.43462 -4.27864,-4.42888 -4.29754,-8.49006 -0.0117,-2.51089 -0.71371,-3.60043 -3.38277,-5.25 C 132.77955,240.9367 130.07955,240 128.63197,240 126.09305,240 126,240.20425 126,245.77749 126,251.73112 124.12918,256 121.52002,256 c -0.75161,0 -2.67607,-1.10188 -4.27658,-2.44861 z m 19.23918,-56.156 c 1.53298,-3.23052 1.53865,-3.71398 0.0699,-5.95566 -1.70834,-2.60725 -6.24393,-3.34827 -8.24511,-1.34709 -0.79019,0.79019 -1.65778,0.79019 -3.13426,0 -2.69132,-1.44035 -6.47635,-1.38939 -7.9731,0.10736 -2.74191,2.74191 -1.36877,7.06622 3.95584,12.4578 l 5.15585,5.2207 4.25125,-3.48359 c 2.33819,-1.91597 5.00204,-5.06575 5.91968,-6.99952 z M 69.320985,125.43436 C 66.192282,123.84452 63,118.82737 63,115.5 c 0,-0.93376 0.709773,-3.19348 1.577273,-5.0216 2.98423,-6.2888 11.682151,-8.09606 17.57128,-3.65098 1.293296,0.97618 5.707078,2.32889 9.808405,3.00603 C 99.683834,111.10918 103,113.00058 103,116.13193 c 0,2.77544 -3.814541,4.6621 -11,5.44056 -3.643849,0.39477 -7.644778,1.50687 -9.105273,2.5309 -3.827568,2.6837 -9.765794,3.26598 -13.573742,1.33097 z m 28.721532,-8.96064 c 0.90268,-0.55788 0.809575,-0.97699 -0.362794,-1.63308 -2.381921,-1.33299 -15.42142,-2.75682 -19.373595,-2.11547 -3.779313,0.6133 -5.431925,2.90304 -3.201845,4.43625 1.562262,1.07408 21.03209,0.49036 22.938234,-0.6877 z M 168.5,118.13652 c -5.6356,-2.56358 -6.86825,-4.36007 -6.03589,-8.79688 0.5142,-2.74092 2.25189,-5.17236 6.79728,-9.510961 6.4063,-6.114848 9.00164,-7.074235 10.67565,-3.946328 1.56863,2.93102 4.11893,3.412046 6.46842,1.220048 1.152,-1.074777 3.29507,-2.252002 4.76237,-2.616055 3.51106,-0.871127 5.33308,2.065966 3.79356,6.115216 -0.99475,2.61637 -0.11249,4.33244 2.25343,4.38313 1.24132,0.0266 2.80236,3.80696 2.20974,5.35131 -0.75671,1.97197 -5.90405,4.03338 -8.42512,3.37411 -1.23071,-0.32184 -2.49783,0.13794 -3.25694,1.18179 -3.83561,5.2744 -11.82053,6.6208 -19.2425,3.24462 z M 124,56.105047 C 118.775,54.635467 113.9375,53.084082 113.25,52.657525 111.44851,51.539797 111.6801,47.65723 114.12428,38 c 2.50934,-9.914662 4.51093,-12.346663 9.4058,-11.428379 1.79263,0.336299 4.20671,0.104429 5.36462,-0.515268 2.41177,-1.290737 5.71301,0.0037 7.912,3.102346 C 137.52539,30.171415 138.91815,31 139.90172,31 c 2.28544,0 5.10195,3.089468 5.08586,5.578741 -0.026,4.022594 -5.0564,19.977321 -6.67511,21.171259 C 136.1122,59.372875 135.27746,59.276936 124,56.105047 z m 14.68885,-9.116407 c 1.20387,-4.118752 2.21637,-8.470816 2.25,-9.671252 0.0795,-2.837553 -3.37872,-4.020378 -5.51335,-1.885749 -3.2886,3.288607 -8.95947,1.345035 -10.74212,-3.681639 -0.34133,-0.9625 -1.51739,-1.75 -2.61345,-1.75 -1.46269,0 -2.25245,0.997611 -2.9687,3.75 -3.60136,13.83925 -3.86302,15.279187 -2.88618,15.88291 1.798,1.111225 17.22583,5.255343 18.78495,5.045885 0.9456,-0.127034 2.30901,-2.969341 3.68885,-7.690155 z"
       id="path3777"
       inkscape:connector-curvature="0" />
    <path
       style="fill:#718191"
       d="m 117.24344,253.55139 c -5.46399,-4.59765 -11.83163,-19.50717 -14.25349,-33.37385 -0.60733,-3.47735 -1.01783,-10.60625 -0.91223,-15.84201 l 0.19201,-9.51955 -5.52708,-4.33802 C 87.271397,183.0443 82.711898,170 89.584793,170 c 3.044908,0 5.454557,1.20563 11.309007,5.65827 2.41659,1.83795 4.70686,3.34173 5.08949,3.34173 0.72346,0 3.30939,-5.07388 2.80415,-5.50205 -0.15809,-0.13398 -1.74994,-0.98738 -3.53744,-1.89645 -1.7875,-0.90907 -3.25,-2.0913 -3.25,-2.62718 0,-1.31769 0.59518,-1.23502 4.07903,0.56655 2.81023,1.45323 4.92097,1.27536 4.92097,-0.41467 0,-0.41568 -1.59899,-1.51828 -3.55331,-2.45023 -1.95431,-0.93195 -3.26472,-2.16138 -2.91201,-2.73208 0.41071,-0.66455 1.84524,-0.32727 3.98989,0.93811 4.62905,2.7312 5.60193,1.27852 4.81163,-7.18463 -0.67298,-7.20681 0.32313,-9.69737 3.87852,-9.69737 1.0834,0 3.12209,0.90637 4.53042,2.01416 2.09141,1.64511 3.43693,1.89792 7.3433,1.37972 2.70333,-0.35861 6.16651,-0.15205 7.96554,0.47509 2.82777,0.98577 3.51988,0.82594 6.20408,-1.43266 1.92893,-1.62309 3.96499,-2.43268 5.63159,-2.23926 2.57851,0.29925 2.61385,0.41511 2.89714,9.49752 l 0.28679,9.19456 3.37523,-1.99143 c 2.16022,-1.27456 3.60608,-1.61791 4.01651,-0.95381 0.35271,0.5707 -0.9577,1.80013 -2.91201,2.73208 -1.95432,0.93195 -3.55331,2.03455 -3.55331,2.45023 0,1.69003 2.11074,1.8679 4.92097,0.41467 3.48385,-1.80157 4.07903,-1.88424 4.07903,-0.56655 0,0.53588 -1.4625,1.71811 -3.25,2.62718 -1.7875,0.90907 -3.39896,1.78208 -3.58102,1.94003 -0.2782,0.24136 1.52793,4.27013 2.36359,5.27225 0.14392,0.17259 3.26141,-1.73991 6.92776,-4.25 7.03395,-4.81563 11.81727,-5.88871 12.9612,-2.90768 1.70252,4.43671 -5.41853,16.01971 -12.837,20.88047 -2.21923,1.4541 -2.36028,2.2324 -2.85376,15.74657 -0.29184,7.99191 -1.18636,16.62448 -2.04297,19.71551 -0.8381,3.02426 -1.44822,5.55996 -1.35581,5.63489 0.0924,0.0749 2.97878,-0.32375 6.41417,-0.88597 7.90622,-1.29389 13.5351,0.60759 18.69026,6.31374 4.01539,4.44455 4.6599,8.63656 1.73484,11.2837 -2.79645,2.53075 -5.4469,1.99755 -9.17126,-1.84501 -3.82027,-3.94152 -5.84317,-4.19716 -17,-2.14838 -5.60814,1.02985 -7.07804,1.7847 -10.71283,5.50149 -2.52112,2.57798 -4.92041,4.17159 -5.97489,3.96851 -2.25681,-0.43462 -4.27864,-4.42888 -4.29754,-8.49006 -0.0117,-2.51089 -0.71371,-3.60043 -3.38277,-5.25 C 132.77955,240.9367 130.07955,240 128.63197,240 126.09305,240 126,240.20425 126,245.77749 126,251.73112 124.12918,256 121.52002,256 c -0.75161,0 -2.67607,-1.10188 -4.27658,-2.44861 z m 19.23918,-56.156 c 1.53298,-3.23052 1.53865,-3.71398 0.0699,-5.95566 -1.70834,-2.60725 -6.24393,-3.34827 -8.24511,-1.34709 -0.79019,0.79019 -1.65778,0.79019 -3.13426,0 -2.69132,-1.44035 -6.47635,-1.38939 -7.9731,0.10736 -2.74191,2.74191 -1.36877,7.06622 3.95584,12.4578 l 5.15585,5.2207 4.25125,-3.48359 c 2.33819,-1.91597 5.00204,-5.06575 5.91968,-6.99952 z M 69.320985,125.43436 C 66.192282,123.84452 63,118.82737 63,115.5 c 0,-0.93376 0.709773,-3.19348 1.577273,-5.0216 2.98423,-6.2888 11.682151,-8.09606 17.57128,-3.65098 1.293296,0.97618 5.707078,2.32889 9.808405,3.00603 C 99.683834,111.10918 103,113.00058 103,116.13193 c 0,2.77544 -3.814541,4.6621 -11,5.44056 -3.643849,0.39477 -7.644778,1.50687 -9.105273,2.5309 -3.827568,2.6837 -9.765794,3.26598 -13.573742,1.33097 z m 28.721532,-8.96064 c 0.90268,-0.55788 0.809575,-0.97699 -0.362794,-1.63308 -2.381921,-1.33299 -15.42142,-2.75682 -19.373595,-2.11547 -3.779313,0.6133 -5.431925,2.90304 -3.201845,4.43625 1.562262,1.07408 21.03209,0.49036 22.938234,-0.6877 z M 170.5,118.97916 c -1.65,-0.52013 -4.327,-2.01723 -5.9489,-3.32689 -2.87796,-2.32391 -2.91848,-2.48271 -1.68441,-6.60167 0.86992,-2.90353 3.03707,-5.91018 6.94514,-9.635541 5.96811,-5.689078 8.65519,-6.669684 9.6539,-3.52303 0.95867,3.020503 4.28164,3.219139 8.29466,0.495828 C 192.89143,92.905842 194.5,93.53192 194.5,99.011 c 0,3.69595 0.51797,4.93422 3,7.17179 l 3,2.70452 -2.22778,2.25635 c -1.51765,1.5371 -3.41198,2.25634 -5.94279,2.25634 -2.84531,0 -4.32759,0.68558 -6.33162,2.92848 -2.10047,2.35083 -3.59112,2.99435 -7.5572,3.26242 -2.71734,0.18368 -6.29061,-0.0916 -7.94061,-0.61174 z m 13.04545,-5.43371 c 1.35,-1.35 2.45455,-2.95257 2.45455,-3.56127 0,-0.74498 1.47087,-0.88616 4.5,-0.43191 5.07714,0.76136 6.30136,-0.9169 1.89178,-2.59341 -2.32903,-0.8855 -2.53826,-1.36453 -1.95468,-4.47525 0.78455,-4.182035 -0.51787,-4.516506 -3.20783,-0.82379 l -1.93754,2.65982 -4.59286,-2.22337 c -5.30882,-2.569955 -6.67169,-2.169134 -11.56173,3.40031 -3.96153,4.51195 -3.94125,6.04254 0.11286,8.51438 4.70296,2.86745 11.17319,2.65676 14.29545,-0.46551 z m -13.07252,-4.58925 c -0.35481,-0.5741 -0.0825,-1.72168 0.60508,-2.55019 1.09379,-1.31794 1.43211,-1.32446 2.70441,-0.0522 0.79983,0.79983 1.14943,1.94741 0.77689,2.55019 -0.85865,1.38931 -3.24118,1.41972 -4.08638,0.0522 z M 126.41282,34.507285 c -2.11435,-3.226895 -1.19882,-6.828129 2.12035,-8.340445 5.95425,-2.712936 11.42275,4.848111 6.63809,9.178172 -2.7481,2.486993 -6.83621,2.095974 -8.75844,-0.837727 z"
       id="path3775"
       inkscape:connector-curvature="0" />
    <path
       style="fill:#657a96"
       d="M 119.31756,254.66018 C 114.41702,252.01523 108.501,240.8834 104.88325,227.5 c -1.63973,-6.06596 -2.18921,-11.08231 -2.27289,-20.74977 -0.0607,-7.01238 -0.39919,-12.74988 -0.75221,-12.75 -1.59592,-5.7e-4 -11.148368,-9.64878 -12.844286,-12.97305 -4.080609,-7.99866 -2.320692,-12.63955 3.827427,-10.09292 1.692779,0.70117 5.454197,3.0479 8.358709,5.21496 l 5.28092,3.9401 0.90141,-2.29466 c 0.49578,-1.26206 2.22533,-4.99466 3.84345,-8.29466 2.51861,-5.13644 2.85109,-6.72806 2.31009,-11.05855 -1.20219,-9.62317 2.2909,-12.98243 8.26899,-7.95219 2.61169,2.19758 3.32779,2.36046 6.11152,1.39004 2.30764,-0.80444 4.36025,-0.79527 7.65438,0.0342 4.17436,1.05112 4.7414,0.95019 7.8096,-1.39004 3.76473,-2.8715 7.12076,-3.26591 8.01265,-0.94167 0.33385,0.86998 0.60699,5.16967 0.60699,9.55486 0,5.51437 0.56219,9.26676 1.82306,12.16821 1.00269,2.30733 2.24019,5.21506 2.75,6.46162 0.91679,2.24166 0.99264,2.21686 6.92694,-2.26508 9.1642,-6.92135 13.5,-7.31593 13.5,-1.22857 0,4.47297 -4.69944,11.67517 -10.68691,16.37838 l -4.81309,3.78073 -0.0833,12.53403 c -0.0538,8.09658 -0.68035,14.97578 -1.76969,19.431 -0.9275,3.79334 -1.55272,7.03062 -1.38938,7.19397 0.16335,0.16334 2.94953,-0.063 6.19151,-0.50291 6.93071,-0.94052 11.2533,-0.14819 15.43462,2.82918 6.99495,4.98084 9.13927,11.71117 4.66523,14.64267 -3.01908,1.97818 -6.02706,1.16627 -8.25037,-2.22692 -2.66059,-4.06058 -5.54126,-4.57882 -15.17987,-2.73089 -7.88865,1.51242 -8.90105,1.98045 -11.95166,5.52516 -2.39897,2.78753 -4.12038,3.87277 -6.14301,3.87277 -3.17373,0 -4.0182,-1.42929 -4.03643,-6.83179 -0.0102,-3.03131 -0.57451,-4.03166 -3.25,-5.76149 -1.78069,-1.15131 -4.98099,-2.41968 -7.11178,-2.81861 l -3.87416,-0.72532 0.69188,3.68804 c 0.93128,4.96415 -0.2411,11.27045 -2.3001,12.37239 -1.05535,0.56481 -2.47262,0.46737 -3.8259,-0.26304 z m 1.96336,-12.84939 -0.57099,-6.81079 3.52719,0 3.5272,0 -1.33827,-3.75 c -1.8906,-5.29771 -1.76382,-6.44051 0.67333,-6.06955 1.43487,0.2184 2.5258,1.58565 3.44658,4.31955 1.92742,5.72273 8.30252,11.09887 14.91631,12.57897 4.43982,0.99359 6.91618,0.909 14.76586,-0.50436 11.02777,-1.9856 13.70311,-1.53544 18.00971,3.03039 2.09384,2.21987 3.52047,3.03669 4.16976,2.3874 1.15836,-1.15836 -1.68123,-5.36094 -5.59833,-8.28548 -2.87553,-2.14689 -10.78363,-2.48999 -16.80267,-0.72899 -11.80343,3.45335 -23.21424,-1.51743 -24.18884,-10.53714 -0.25995,-2.40576 0.0916,-2.99893 1.93224,-3.26034 1.7067,-0.24239 2.25,0.17637 2.25,1.73422 0,3.20377 5.00848,7.91227 9.19283,8.64224 l 3.69283,0.64422 1.53993,-5.35056 c 2.58362,-8.97695 3.72829,-19.88634 3.03865,-28.96026 l -0.65435,-8.60969 3.47379,-2.14693 c 6.31306,-3.90168 14.25626,-13.92708 12.45873,-15.72461 -0.2421,-0.24211 -3.53606,1.8168 -7.31989,4.57536 -7.84117,5.71651 -10.87557,6.33092 -11.86173,2.40176 -0.36081,-1.43759 -1.91708,-5.26144 -3.45838,-8.49745 -2.51739,-5.28536 -2.75483,-6.67201 -2.33494,-13.63621 l 0.46742,-7.75254 -3.55348,3.38417 -3.55349,3.38417 -4.26695,-1.70729 c -3.63207,-1.45327 -4.91174,-1.52677 -8.60034,-0.49403 -3.90762,1.09407 -4.55086,1.01762 -6.547,-0.77811 -4.67107,-4.20209 -4.94927,-4.01509 -4.23288,2.84521 0.6286,6.0197 0.44328,6.83612 -3.408,15.01323 -2.24001,4.75605 -4.07275,9.14355 -4.07275,9.75 0,2.49337 -5.0431,0.7995 -11.806412,-3.9655 C 94.237115,176.14436 91,174.36671 91,174.98151 c 0,3.32325 6.55926,11.08813 13,15.38947 2.44222,1.63099 2.50142,1.96377 2.56133,14.3993 0.0824,17.09406 3.49504,30.6197 10.5211,41.69865 3.86101,6.08818 4.99403,4.83111 4.19849,-4.65814 z m 24.10407,7.3163 c 1.60195,-1.77014 1.58301,-1.90219 -0.34501,-2.40638 C 143.40404,246.2929 143,246.66385 143,248.59362 c 0,2.8966 0.2049,2.94243 2.38499,0.53347 z M 71.64255,125.94714 c -3.881973,-1.12983 -6.355734,-3.54805 -7.654155,-7.4823 -1.366372,-4.14015 0.626198,-9.51098 4.460669,-12.02342 3.563159,-2.33467 10.029413,-2.20312 13.37741,0.27217 1.477647,1.09247 4.933683,2.30302 7.680079,2.69012 C 100.32296,110.92825 104.31475,113.67486 102,118 c -0.5887,1.1 -1.39203,2.01389 -1.78518,2.03088 -6.204126,0.26798 -15.799149,2.31957 -17.968922,3.84209 -3.48895,2.44818 -6.975172,3.13014 -10.603348,2.07417 z m 4.253038,-4.27836 c -7.948688,-3.56713 -7.891069,-9.35444 0.124975,-12.55274 2.444261,-0.97523 2.435242,-0.99017 -0.635704,-1.05265 -1.720632,-0.035 -4.29465,0.86441 -5.75,2.00919 -5.617674,4.41886 -1.757952,13.04195 5.75,12.8462 L 78.5,122.83756 75.895588,121.66878 z m 20.018474,-4.30159 c 1.740235,-0.34805 2.999311,-1.13555 2.797947,-1.75 -0.542345,-1.65495 -11.429608,-3.70945 -17.4972,-3.30185 -5.714448,0.38388 -7.826556,1.64809 -6.878976,4.11744 0.483749,1.26063 2.343712,1.56722 9.507782,1.56722 4.898512,0 10.330213,-0.28477 12.070447,-0.63281 z M 170.5,118.97916 c -1.65,-0.52013 -4.327,-2.01723 -5.9489,-3.32689 -2.87796,-2.32391 -2.91848,-2.48271 -1.68441,-6.60167 0.86992,-2.90353 3.03707,-5.91018 6.94514,-9.635541 5.96811,-5.689078 8.65519,-6.669684 9.6539,-3.52303 0.95867,3.020503 4.28164,3.219139 8.29466,0.495828 C 192.89143,92.905842 194.5,93.53192 194.5,99.011 c 0,3.69595 0.51797,4.93422 3,7.17179 l 3,2.70452 -2.22778,2.25635 c -1.51765,1.5371 -3.41198,2.25634 -5.94279,2.25634 -2.84531,0 -4.32759,0.68558 -6.33162,2.92848 -2.10047,2.35083 -3.59112,2.99435 -7.5572,3.26242 -2.71734,0.18368 -6.29061,-0.0916 -7.94061,-0.61174 z m 13.04545,-5.43371 c 1.35,-1.35 2.45455,-2.95257 2.45455,-3.56127 0,-0.74498 1.47087,-0.88616 4.5,-0.43191 5.07714,0.76136 6.30136,-0.9169 1.89178,-2.59341 -2.32903,-0.8855 -2.53826,-1.36453 -1.95468,-4.47525 0.78455,-4.182035 -0.51787,-4.516506 -3.20783,-0.82379 l -1.93754,2.65982 -4.59286,-2.22337 c -5.30882,-2.569955 -6.67169,-2.169134 -11.56173,3.40031 -3.96153,4.51195 -3.94125,6.04254 0.11286,8.51438 4.70296,2.86745 11.17319,2.65676 14.29545,-0.46551 z m -13.07252,-4.58925 c -0.35481,-0.5741 -0.0825,-1.72168 0.60508,-2.55019 1.09379,-1.31794 1.43211,-1.32446 2.70441,-0.0522 0.79983,0.79983 1.14943,1.94741 0.77689,2.55019 -0.85865,1.38931 -3.24118,1.41972 -4.08638,0.0522 z M 126.41282,34.507285 c -2.11435,-3.226895 -1.19882,-6.828129 2.12035,-8.340445 5.95425,-2.712936 11.42275,4.848111 6.63809,9.178172 -2.7481,2.486993 -6.83621,2.095974 -8.75844,-0.837727 z"
       id="path3773"
       inkscape:connector-curvature="0" />
    <path
       style="fill:#4e5e6e"
       d="m 116.37313,252.3152 c -3.65536,-3.87998 -8.91476,-15.23204 -11.49687,-24.8152 -1.63065,-6.05195 -2.18241,-11.10465 -2.2659,-20.74977 -0.0607,-7.01238 -0.39919,-12.74988 -0.75221,-12.75 -1.4266,-5.1e-4 -11.047559,-9.46583 -12.524467,-12.32185 C 85.847125,174.93612 85.959415,170 89.59935,170 c 2.121121,0 7.146798,2.72645 12.38141,6.71697 l 4.48076,3.41583 0.91901,-2.3164 c 0.50545,-1.27402 2.26352,-5.09924 3.90681,-8.5005 2.561,-5.30069 2.894,-6.89127 2.3311,-11.13458 -1.24733,-9.40287 2.2348,-12.70002 8.15316,-7.72005 2.58458,2.17478 3.34831,2.34441 6.56122,1.45728 2.49779,-0.68967 4.89703,-0.66447 7.66363,0.0805 3.66076,0.98575 4.33091,0.85306 7.35991,-1.45727 3.98308,-3.03805 7.27323,-3.28419 8.12272,-0.60768 0.33762,1.06376 0.51859,5.22626 0.40215,9.25 -0.1585,5.47719 0.28801,8.4469 1.77659,11.81591 1.09357,2.475 2.40543,5.51992 2.91524,6.76648 0.91753,2.24346 0.98788,2.22087 6.92694,-2.22451 5.93143,-4.43966 10.48679,-6.2862 12.4756,-5.05705 1.98706,1.22807 1.02904,7.1162 -1.91251,11.75454 -1.6153,2.54706 -5.1028,6.33235 -7.75,8.41175 l -4.81309,3.78073 -0.0833,12.53403 c -0.0534,8.03794 -0.68118,14.97758 -1.75,19.34608 -0.9167,3.74662 -1.6667,6.9573 -1.6667,7.13484 0,0.17754 2.88196,0.0915 6.40436,-0.19129 9.79554,-0.78629 13.15026,0.20936 18.19512,5.40014 4.88986,5.0313 5.55766,8.18711 2.40052,11.34425 -2.81408,2.81408 -4.75859,2.50255 -8.36513,-1.34016 -1.72418,-1.83709 -3.98621,-3.64747 -5.02674,-4.02306 -1.04053,-0.37559 -5.76553,0.0597 -10.5,0.9674 -7.87718,1.51015 -8.89114,1.97914 -11.94107,5.52305 -2.39897,2.78753 -4.12038,3.87277 -6.14301,3.87277 -3.17373,0 -4.0182,-1.42929 -4.03643,-6.83179 -0.0102,-3.03131 -0.57451,-4.03166 -3.25,-5.76149 -1.78069,-1.15131 -4.95664,-2.41511 -7.05766,-2.80845 l -3.82004,-0.71517 0.57119,4.30845 c 0.31416,2.36965 0.21717,5.88345 -0.21553,7.80845 -1.07267,4.77219 -5.03094,5.36093 -8.84245,1.3152 z m 5.17692,-9.43384 -0.7082,-8.11863 3.61042,0.42149 c 2.96082,0.34566 3.49708,0.14211 2.98053,-1.13136 -0.34642,-0.85407 -0.87589,-3.28594 -1.17659,-5.40416 -0.47712,-3.36097 -0.31049,-3.8058 1.30877,-3.49396 1.16097,0.22358 2.10192,1.56221 2.51384,3.57625 0.98838,4.83264 3.3896,7.87268 8.66377,10.96865 4.1029,2.40843 5.78923,2.78457 12.25741,2.73406 4.125,-0.0322 10.96895,-0.43152 15.20878,-0.88736 l 7.70878,-0.82878 3.64122,3.64122 c 3.96232,3.96232 5.44122,4.5183 5.44122,2.04559 0,-2.80108 -3.7532,-6.98933 -7.96549,-8.88881 -3.95287,-1.78249 -4.39769,-1.78374 -13.90777,-0.0388 -12.37336,2.27028 -16.23887,1.64642 -21.32733,-3.44205 -2.81165,-2.81165 -3.79941,-4.629 -3.79941,-6.99039 0,-4.32425 3.05109,-3.78607 4.22529,0.7453 0.9784,3.77576 5.75459,7.20086 10.04946,7.20664 3.38363,0.005 4.30617,-2.00026 6.44056,-13.99626 0.98618,-5.5427 1.34864,-11.97918 1.0418,-18.5 l -0.47057,-10 5.60673,-4.06377 c 3.7335,-2.70606 6.54637,-5.79651 8.41914,-9.25 1.54683,-2.85243 2.39712,-5.18623 1.88955,-5.18623 -0.50758,0 -2.67316,1.20134 -4.81241,2.66965 -2.13925,1.46831 -5.43884,3.7346 -7.33241,5.03619 -1.89358,1.30159 -4.0459,2.23774 -4.78294,2.08034 -0.73703,-0.1574 -2.94905,-3.88618 -4.91559,-8.28618 -3.21513,-7.19366 -3.5573,-8.79319 -3.39481,-15.86954 l 0.1807,-7.86954 -3.04201,2.1661 c -1.6731,1.19136 -3.30615,2.5935 -3.629,3.11587 -0.34811,0.56325 -1.76459,0.34082 -3.48058,-0.54656 -3.47063,-1.79473 -7.96248,-1.92295 -11.46466,-0.32725 -2.26132,1.03033 -2.8965,0.8523 -5.35177,-1.5 C 119.64423,153.20109 118.01519,152 117.55639,152 c -0.45879,0 -0.58605,2.73623 -0.28281,6.08052 0.48892,5.39189 0.18099,6.89245 -2.71906,13.25 -1.79874,3.94321 -3.7747,8.40698 -4.39104,9.91948 -1.38497,3.39876 -2.86816,3.44804 -7.52393,0.25 -2.00175,-1.375 -5.277346,-3.625 -7.279097,-5 -4.627253,-3.17845 -5.558176,-3.15025 -4.310797,0.13061 1.696358,4.46175 4.918492,8.28277 10.398224,12.33088 l 5.25531,3.88233 -0.47701,9.90612 c -0.74514,15.47433 4.33848,35.74624 11.22988,44.78134 4.13913,5.42668 4.89782,4.56497 4.09399,-4.64992 z m 24.41401,6.18579 c 0.84539,-1.57961 0.65529,-2.05319 -1.04017,-2.59131 -2.62364,-0.83271 -3.28069,-0.17539 -2.44781,2.4488 0.82447,2.59768 2.14514,2.65164 3.48798,0.14251 z M 170.5,118.97916 c -1.65,-0.52013 -4.327,-2.01723 -5.9489,-3.32689 -2.87796,-2.32391 -2.91848,-2.48271 -1.68441,-6.60167 0.86992,-2.90353 3.03707,-5.91018 6.94514,-9.635541 5.96811,-5.689078 8.65519,-6.669684 9.6539,-3.52303 0.95867,3.020503 4.28164,3.219139 8.29466,0.495828 C 192.89143,92.905842 194.5,93.53192 194.5,99.011 c 0,3.69595 0.51797,4.93422 3,7.17179 l 3,2.70452 -2.22778,2.25635 c -1.51765,1.5371 -3.41198,2.25634 -5.94279,2.25634 -2.84531,0 -4.32759,0.68558 -6.33162,2.92848 -2.10047,2.35083 -3.59112,2.99435 -7.5572,3.26242 -2.71734,0.18368 -6.29061,-0.0916 -7.94061,-0.61174 z m 13.04545,-5.43371 c 1.35,-1.35 2.45455,-2.95257 2.45455,-3.56127 0,-0.74498 1.47087,-0.88616 4.5,-0.43191 5.07714,0.76136 6.30136,-0.9169 1.89178,-2.59341 -2.32903,-0.8855 -2.53826,-1.36453 -1.95468,-4.47525 0.78455,-4.182035 -0.51787,-4.516506 -3.20783,-0.82379 l -1.93754,2.65982 -4.59286,-2.22337 c -5.30882,-2.569955 -6.67169,-2.169134 -11.56173,3.40031 -3.96153,4.51195 -3.94125,6.04254 0.11286,8.51438 4.70296,2.86745 11.17319,2.65676 14.29545,-0.46551 z m -13.07252,-4.58925 c -0.35481,-0.5741 -0.0825,-1.72168 0.60508,-2.55019 1.09379,-1.31794 1.43211,-1.32446 2.70441,-0.0522 0.79983,0.79983 1.14943,1.94741 0.77689,2.55019 -0.85865,1.38931 -3.24118,1.41972 -4.08638,0.0522 z M 126.41282,34.507285 c -2.11435,-3.226895 -1.19882,-6.828129 2.12035,-8.340445 5.95425,-2.712936 11.42275,4.848111 6.63809,9.178172 -2.7481,2.486993 -6.83621,2.095974 -8.75844,-0.837727 z"
       id="path3771"
       inkscape:connector-curvature="0" />
    <path
       style="fill:#b24720"
       d="m 170.5,118.97916 c -1.65,-0.52013 -4.327,-2.01723 -5.9489,-3.32689 -2.87796,-2.32391 -2.91848,-2.48271 -1.68441,-6.60167 0.86992,-2.90353 3.03707,-5.91018 6.94514,-9.635541 5.96811,-5.689078 8.65519,-6.669684 9.6539,-3.52303 0.95867,3.020503 4.28164,3.219139 8.29466,0.495828 C 192.89143,92.905842 194.5,93.53192 194.5,99.011 c 0,3.69595 0.51797,4.93422 3,7.17179 l 3,2.70452 -2.22778,2.25635 c -1.51765,1.5371 -3.41198,2.25634 -5.94279,2.25634 -2.84531,0 -4.32759,0.68558 -6.33162,2.92848 -2.10047,2.35083 -3.59112,2.99435 -7.5572,3.26242 -2.71734,0.18368 -6.29061,-0.0916 -7.94061,-0.61174 z m 13.04545,-5.43371 c 1.35,-1.35 2.45455,-2.95257 2.45455,-3.56127 0,-0.74498 1.47087,-0.88616 4.5,-0.43191 5.07714,0.76136 6.30136,-0.9169 1.89178,-2.59341 -2.32903,-0.8855 -2.53826,-1.36453 -1.95468,-4.47525 0.78455,-4.182035 -0.51787,-4.516506 -3.20783,-0.82379 l -1.93754,2.65982 -4.59286,-2.22337 c -5.30882,-2.569955 -6.67169,-2.169134 -11.56173,3.40031 -3.96153,4.51195 -3.94125,6.04254 0.11286,8.51438 4.70296,2.86745 11.17319,2.65676 14.29545,-0.46551 z m -13.07252,-4.58925 c -0.35481,-0.5741 -0.0825,-1.72168 0.60508,-2.55019 1.09379,-1.31794 1.43211,-1.32446 2.70441,-0.0522 0.79983,0.79983 1.14943,1.94741 0.77689,2.55019 -0.85865,1.38931 -3.24118,1.41972 -4.08638,0.0522 z M 126.41282,34.507285 c -2.11435,-3.226895 -1.19882,-6.828129 2.12035,-8.340445 5.95425,-2.712936 11.42275,4.848111 6.63809,9.178172 -2.7481,2.486993 -6.83621,2.095974 -8.75844,-0.837727 z"
       id="path3769"
       inkscape:connector-curvature="0" />
  </g>
</svg>
