<?xml version="1.0" encoding="UTF-8" ?>
<!DOCTYPE svg PUBLIC "-//W3C//DTD SVG 1.1//EN" "http://www.w3.org/Graphics/SVG/1.1/DTD/svg11.dtd">
<svg width="256pt" height="256pt" viewBox="0 0 256 256" version="1.1" xmlns="http://www.w3.org/2000/svg">
<g id="#537098ff">
<path fill="#537098" opacity="1.00" d=" M 26.01 33.96 C 25.76 29.68 28.45 25.01 32.90 24.26 C 36.93 23.73 41.00 24.06 45.05 24.00 C 103.03 23.99 161.01 24.04 218.98 23.97 C 222.51 24.09 226.42 23.47 229.55 25.48 C 232.45 27.25 234.11 30.61 233.98 33.98 C 234.13 77.99 233.77 122.02 234.16 166.03 C 225.09 162.33 218.99 154.26 213.50 146.53 C 204.24 133.19 191.51 122.58 177.61 114.35 C 158.75 103.28 137.03 96.27 115.00 97.06 C 94.06 97.44 73.05 101.94 54.41 111.67 C 50.65 108.94 45.70 104.65 40.96 107.91 C 34.79 112.58 33.78 120.89 31.97 127.89 C 29.99 126.89 28.01 125.88 25.99 124.97 C 26.02 94.64 25.97 64.30 26.01 33.96 M 31.92 31.07 C 32.24 59.81 31.68 88.56 32.20 117.30 C 33.87 112.36 34.88 106.68 38.95 103.04 C 41.07 100.92 44.15 102.08 46.73 102.33 C 46.53 85.57 46.78 68.81 46.59 52.05 C 46.64 49.79 46.56 47.47 47.29 45.30 C 48.46 42.74 51.68 42.96 54.03 42.79 C 101.34 42.86 148.66 42.82 195.98 42.82 C 200.58 42.91 205.28 42.32 209.82 43.35 C 212.90 44.45 212.60 48.27 212.72 50.92 C 212.55 78.94 212.78 106.97 212.59 135.00 C 212.61 137.60 212.71 140.42 214.41 142.55 C 218.32 147.94 222.90 152.83 227.91 157.21 C 228.04 115.54 228.11 73.86 227.87 32.19 C 227.56 31.77 226.93 30.95 226.61 30.53 C 220.78 29.72 214.88 30.01 209.01 30.00 C 155.03 29.99 101.04 30.01 47.06 29.99 C 42.01 30.05 36.81 29.46 31.92 31.07 Z" />
<path fill="#537098" opacity="1.00" d=" M 129.68 33.55 C 131.80 32.39 134.11 32.39 136.24 33.54 C 135.95 34.98 135.70 36.43 135.47 37.89 C 133.69 37.55 131.90 37.28 130.11 37.03 C 129.98 35.87 129.83 34.71 129.68 33.55 Z" />
<path fill="#537098" opacity="1.00" d=" M 176.98 201.91 C 199.35 202.23 221.84 202.23 244.03 198.96 C 247.48 204.51 252.50 209.85 252.23 216.82 C 251.93 222.04 247.41 226.38 242.10 225.98 C 167.05 226.01 91.98 226.03 16.93 225.97 C 11.51 226.34 7.63 221.28 7.79 216.17 C 7.93 215.29 8.09 214.43 8.28 213.57 C 8.73 211.69 9.23 209.82 9.68 207.94 C 11.22 207.78 12.41 206.11 11.83 204.62 C 15.87 202.45 20.40 201.27 25.00 201.35 C 34.65 201.31 44.30 201.84 53.94 201.29 C 62.62 200.76 71.30 201.43 79.97 201.77 C 104.60 202.53 129.27 202.53 153.88 201.33 C 161.59 200.98 169.28 201.81 176.98 201.91 M 19.26 203.90 C 16.72 208.55 12.20 213.71 14.64 219.33 C 18.95 220.60 23.53 219.89 27.95 220.01 C 98.65 220.00 169.34 219.97 240.04 220.03 C 241.91 219.89 244.05 220.02 245.59 218.73 C 247.24 213.93 244.02 209.36 241.28 205.69 C 239.54 203.17 236.05 204.52 233.51 204.38 L 233.10 204.53 C 228.33 203.78 223.41 203.62 218.69 204.78 C 218.22 204.69 217.75 204.69 217.28 204.77 C 212.50 203.64 207.49 203.64 202.71 204.78 C 202.23 204.68 201.76 204.68 201.29 204.78 C 196.51 203.63 191.49 203.64 186.71 204.78 C 186.24 204.69 185.77 204.69 185.30 204.79 C 180.56 203.61 175.62 203.75 170.84 204.60 L 170.46 204.47 C 169.48 204.48 168.50 204.49 167.53 204.50 L 167.17 204.61 C 161.51 203.64 155.75 204.04 150.05 204.00 C 133.02 203.98 116.00 204.04 98.98 203.96 C 96.22 203.95 93.48 204.20 90.77 204.70 C 89.61 204.43 88.39 204.41 87.24 204.70 C 82.46 203.68 77.48 203.62 72.72 204.78 C 72.24 204.68 71.75 204.68 71.27 204.77 C 66.50 203.63 61.48 203.64 56.71 204.77 C 56.23 204.67 55.75 204.67 55.27 204.77 C 50.50 203.64 45.49 203.63 40.71 204.77 C 40.23 204.68 39.76 204.68 39.28 204.78 C 34.51 203.63 29.50 203.64 24.74 204.77 C 22.92 204.40 21.09 204.15 19.26 203.90 Z" />
</g>
<g id="#bbc9dcff">
<path fill="#bbc9dc" opacity="1.00" d=" M 31.92 31.07 C 36.81 29.46 42.01 30.05 47.06 29.99 C 101.04 30.01 155.03 29.99 209.01 30.00 C 214.88 30.01 220.78 29.72 226.61 30.53 C 226.06 31.68 225.52 32.83 225.00 33.99 C 201.66 34.01 178.32 33.99 154.98 34.00 C 148.73 33.98 142.46 34.27 136.24 33.54 C 134.11 32.39 131.80 32.39 129.68 33.55 C 123.13 34.29 116.54 33.96 109.97 34.00 C 89.98 34.01 69.99 33.99 50.00 34.00 C 45.33 33.96 40.62 34.41 35.97 33.81 C 34.28 33.59 33.22 32.01 31.92 31.07 Z" />
<path fill="#bbc9dc" opacity="1.00" d=" M 90.77 204.70 C 93.48 204.20 96.22 203.95 98.98 203.96 C 116.00 204.04 133.02 203.98 150.05 204.00 C 155.75 204.04 161.51 203.64 167.17 204.61 C 160.69 206.93 153.74 205.87 147.02 205.99 C 131.67 206.06 116.33 205.88 100.98 206.11 C 97.53 206.15 94.11 205.53 90.77 204.70 Z" />
<path fill="#bbc9dc" opacity="1.00" d=" M 15.49 211.27 C 19.80 209.54 24.48 209.91 29.01 209.98 C 99.97 210.09 170.94 209.86 241.91 210.10 C 242.17 210.56 242.68 211.49 242.93 211.96 C 242.68 212.45 242.17 213.42 241.91 213.91 C 166.97 214.06 92.02 214.06 17.07 213.91 C 16.67 213.25 15.89 211.93 15.49 211.27 Z" />
</g>
<g id="#829bbcff">
<path fill="#829bbc" opacity="1.00" d=" M 32.20 117.30 C 31.68 88.56 32.24 59.81 31.92 31.07 C 33.22 32.01 34.28 33.59 35.97 33.81 C 40.62 34.41 45.33 33.96 50.00 34.00 C 69.99 33.99 89.98 34.01 109.97 34.00 C 116.54 33.96 123.13 34.29 129.68 33.55 C 129.83 34.71 129.98 35.87 130.11 37.03 C 130.20 37.74 130.37 39.18 130.45 39.90 C 132.61 39.24 134.81 38.79 137.02 38.37 L 135.47 37.89 C 135.70 36.43 135.95 34.98 136.24 33.54 C 142.46 34.27 148.73 33.98 154.98 34.00 C 178.32 33.99 201.66 34.01 225.00 33.99 C 225.52 32.83 226.06 31.68 226.61 30.53 C 226.93 30.95 227.56 31.77 227.87 32.19 C 228.11 73.86 228.04 115.54 227.91 157.21 C 222.90 152.83 218.32 147.94 214.41 142.55 C 212.71 140.42 212.61 137.60 212.59 135.00 C 212.78 106.97 212.55 78.94 212.72 50.92 C 212.60 48.27 212.90 44.45 209.82 43.35 C 205.28 42.32 200.58 42.91 195.98 42.82 C 148.66 42.82 101.34 42.86 54.03 42.79 C 51.68 42.96 48.46 42.74 47.29 45.30 C 46.56 47.47 46.64 49.79 46.59 52.05 C 46.78 68.81 46.53 85.57 46.73 102.33 C 44.15 102.08 41.07 100.92 38.95 103.04 C 34.88 106.68 33.87 112.36 32.20 117.30 Z" />
<path fill="#829bbc" opacity="1.00" d=" M 19.26 203.90 C 21.09 204.15 22.92 204.40 24.74 204.77 C 29.48 206.38 34.52 206.33 39.28 204.78 C 39.76 204.68 40.23 204.68 40.71 204.77 C 45.47 206.36 50.51 206.36 55.27 204.77 C 55.75 204.67 56.23 204.67 56.71 204.77 C 61.47 206.38 66.51 206.33 71.27 204.77 C 71.75 204.68 72.24 204.68 72.72 204.78 C 77.47 206.31 82.52 206.46 87.24 204.70 C 88.39 204.41 89.61 204.43 90.77 204.70 C 94.11 205.53 97.53 206.15 100.98 206.11 C 116.33 205.88 131.67 206.06 147.02 205.99 C 153.74 205.87 160.69 206.93 167.17 204.61 L 167.53 204.50 C 168.50 204.49 169.48 204.48 170.46 204.47 L 170.84 204.60 C 175.45 206.79 180.56 206.17 185.30 204.79 C 185.77 204.69 186.24 204.69 186.71 204.78 C 191.48 206.36 196.52 206.34 201.29 204.78 C 201.76 204.68 202.23 204.68 202.71 204.78 C 207.48 206.34 212.52 206.36 217.28 204.77 C 217.75 204.69 218.22 204.69 218.69 204.78 C 223.42 206.14 228.54 206.86 233.10 204.53 L 233.51 204.38 C 236.05 204.52 239.54 203.17 241.28 205.69 C 244.02 209.36 247.24 213.93 245.59 218.73 C 244.05 220.02 241.91 219.89 240.04 220.03 C 169.34 219.97 98.65 220.00 27.95 220.01 C 23.53 219.89 18.95 220.60 14.64 219.33 C 12.20 213.71 16.72 208.55 19.26 203.90 M 15.49 211.27 C 15.89 211.93 16.67 213.25 17.07 213.91 C 92.02 214.06 166.97 214.06 241.91 213.91 C 242.17 213.42 242.68 212.45 242.93 211.96 C 242.68 211.49 242.17 210.56 241.91 210.10 C 170.94 209.86 99.97 210.09 29.01 209.98 C 24.48 209.91 19.80 209.54 15.49 211.27 Z" />
</g>
<g id="#b0c0d6ff">
<path fill="#b0c0d6" opacity="1.00" d=" M 130.45 39.90 C 130.37 39.18 130.20 37.74 130.11 37.03 C 131.90 37.28 133.69 37.55 135.47 37.89 L 137.02 38.37 C 134.81 38.79 132.61 39.24 130.45 39.90 Z" />
</g>
<g id="#948772ff">
<path fill="#948772" opacity="1.00" d=" M 54.41 111.67 C 73.05 101.94 94.06 97.44 115.00 97.06 C 137.03 96.27 158.75 103.28 177.61 114.35 C 191.51 122.58 204.24 133.19 213.50 146.53 C 218.99 154.26 225.09 162.33 234.16 166.03 C 235.48 165.15 237.10 164.47 237.94 163.05 C 239.21 160.47 239.15 157.34 240.94 155.01 C 242.59 153.06 245.53 151.67 247.98 152.99 C 252.83 154.98 255.21 160.23 256.00 165.11 L 256.00 173.60 C 255.26 178.53 252.96 183.15 249.12 186.39 C 250.99 188.70 253.67 191.64 252.01 194.81 C 250.76 198.02 246.92 198.28 244.03 198.96 C 221.84 202.23 199.35 202.23 176.98 201.91 C 169.28 201.81 161.59 200.98 153.88 201.33 C 129.27 202.53 104.60 202.53 79.97 201.77 C 71.30 201.43 62.62 200.76 53.94 201.29 C 44.30 201.84 34.65 201.31 25.00 201.35 C 20.40 201.27 15.87 202.45 11.83 204.62 C 10.41 205.07 9.86 206.60 9.68 207.94 C 9.23 209.82 8.73 211.69 8.28 213.57 C 2.85 212.96 -0.28 207.97 0.00 202.79 L 0.00 200.00 C 0.55 194.13 3.70 188.88 8.09 185.06 C 12.29 181.64 17.28 179.30 22.48 177.88 C 31.25 175.24 40.53 178.66 49.24 176.04 C 53.05 175.06 56.05 171.10 60.20 171.81 C 60.05 175.97 55.60 177.75 52.37 179.23 C 42.76 183.30 32.11 179.08 22.30 182.11 C 15.52 184.08 8.86 188.13 5.58 194.60 C 3.39 198.88 4.20 203.85 4.76 208.42 C 7.05 204.97 9.10 200.79 13.27 199.30 C 22.16 196.00 31.79 197.83 41.02 197.82 C 55.09 197.82 69.15 197.71 83.22 197.77 C 100.13 198.07 117.05 198.51 133.96 197.94 C 150.82 197.81 167.69 197.93 184.55 197.93 C 202.42 198.33 220.32 197.76 238.08 195.79 C 241.82 195.34 245.61 194.75 249.05 193.13 C 247.76 191.10 246.11 189.29 243.99 188.13 C 238.26 184.94 231.87 183.27 225.68 181.23 C 218.66 178.92 212.69 174.41 206.65 170.29 C 198.65 164.56 190.57 158.85 183.41 152.08 C 184.80 151.79 186.28 150.51 187.70 151.31 C 191.12 153.09 193.86 155.88 196.92 158.18 C 203.92 163.55 211.08 168.73 218.56 173.43 C 223.14 176.40 228.42 177.91 233.57 179.58 C 237.42 180.80 241.06 182.71 245.04 183.49 C 249.98 182.12 251.35 176.44 252.25 172.04 C 252.65 166.69 251.64 161.12 248.12 156.91 C 247.02 156.82 245.91 156.81 244.81 156.88 C 242.37 160.51 242.32 165.83 238.30 168.30 C 234.51 170.73 229.80 169.02 226.52 166.54 C 216.64 159.32 210.85 148.22 202.67 139.39 C 188.29 123.80 169.49 112.72 149.50 105.95 C 148.05 113.58 147.38 122.62 140.99 127.94 C 136.08 120.60 139.19 111.43 140.46 103.45 C 136.56 102.77 132.66 102.11 128.75 101.47 C 127.79 109.06 128.40 117.15 125.26 124.28 C 124.15 126.95 120.91 126.50 119.99 123.94 C 117.05 116.69 118.12 108.60 117.63 100.96 C 113.68 101.14 109.73 101.32 105.77 101.51 C 106.73 108.09 108.06 114.86 106.64 121.48 C 106.27 123.50 105.06 125.19 103.24 126.13 C 98.00 119.46 97.40 110.53 97.16 102.38 C 83.20 104.49 69.37 108.28 56.92 115.06 C 61.58 121.22 66.31 127.54 68.81 134.95 C 62.54 133.73 60.97 126.98 57.55 122.58 C 54.10 117.99 50.69 112.52 44.98 110.59 C 42.12 111.18 40.55 113.93 39.43 116.37 C 36.33 123.17 35.90 130.74 35.03 138.06 C 34.94 140.62 32.98 142.41 31.50 144.27 C 31.25 141.21 31.11 138.14 31.01 135.06 C 26.44 140.64 21.82 146.38 19.13 153.14 C 16.91 158.67 16.85 164.73 16.84 170.60 C 15.48 170.71 14.13 170.86 12.79 171.05 C 12.65 163.44 13.32 155.66 16.54 148.66 C 13.57 142.67 9.76 136.80 8.98 130.02 C 8.54 127.05 10.11 123.76 13.11 122.87 C 17.47 121.64 21.97 123.32 25.99 124.97 C 28.01 125.88 29.99 126.89 31.97 127.89 C 33.78 120.89 34.79 112.58 40.96 107.91 C 45.70 104.65 50.65 108.94 54.41 111.67 M 13.22 127.10 C 13.01 129.20 13.28 131.31 13.56 133.39 L 13.61 132.45 C 14.58 136.63 16.73 140.41 18.98 144.02 C 20.11 142.68 21.27 141.28 21.81 139.59 C 24.45 136.86 26.85 133.93 29.28 131.01 C 24.33 128.73 18.85 125.16 13.22 127.10 Z" />
<path fill="#948772" opacity="1.00" d=" M 26.11 147.18 C 26.59 147.16 27.56 147.13 28.05 147.11 C 27.12 151.01 25.75 154.84 23.99 158.44 C 23.51 158.34 22.55 158.13 22.06 158.03 C 22.19 154.16 23.12 149.87 26.11 147.18 Z" />
<path fill="#948772" opacity="1.00" d=" M 26.87 159.59 C 25.28 154.55 30.00 150.27 33.55 147.42 C 33.82 147.96 34.35 149.05 34.61 149.60 C 31.76 152.72 30.25 156.96 26.87 159.59 Z" />
<path fill="#948772" opacity="1.00" d=" M 47.53 161.42 C 49.60 159.18 51.42 163.12 49.78 164.85 C 44.91 173.26 31.23 174.25 24.65 167.35 C 23.05 165.87 21.45 162.12 24.71 161.68 C 27.23 163.64 29.12 166.69 32.41 167.44 C 35.74 168.14 39.37 167.97 42.46 166.46 C 44.57 165.26 45.86 163.11 47.53 161.42 Z" />
</g>
<g id="#dcd5c6ff">
<path fill="#dcd5c6" opacity="1.00" d=" M 105.77 101.51 C 109.73 101.32 113.68 101.14 117.63 100.96 C 118.12 108.60 117.05 116.69 119.99 123.94 C 120.91 126.50 124.15 126.95 125.26 124.28 C 128.40 117.15 127.79 109.06 128.75 101.47 C 132.66 102.11 136.56 102.77 140.46 103.45 C 139.19 111.43 136.08 120.60 140.99 127.94 C 147.38 122.62 148.05 113.58 149.50 105.95 C 169.49 112.72 188.29 123.80 202.67 139.39 C 210.85 148.22 216.64 159.32 226.52 166.54 C 229.80 169.02 234.51 170.73 238.30 168.30 C 242.32 165.83 242.37 160.51 244.81 156.88 C 245.91 156.81 247.02 156.82 248.12 156.91 C 247.03 157.48 245.94 158.06 244.86 158.64 C 243.95 161.66 243.04 164.67 242.07 167.67 C 244.88 170.27 248.38 171.91 252.25 172.04 C 251.35 176.44 249.98 182.12 245.04 183.49 C 241.06 182.71 237.42 180.80 233.57 179.58 C 228.42 177.91 223.14 176.40 218.56 173.43 C 211.08 168.73 203.92 163.55 196.92 158.18 C 193.86 155.88 191.12 153.09 187.70 151.31 C 186.28 150.51 184.80 151.79 183.41 152.08 C 190.57 158.85 198.65 164.56 206.65 170.29 C 212.69 174.41 218.66 178.92 225.68 181.23 C 231.87 183.27 238.26 184.94 243.99 188.13 C 246.11 189.29 247.76 191.10 249.05 193.13 C 245.61 194.75 241.82 195.34 238.08 195.79 C 220.32 197.76 202.42 198.33 184.55 197.93 C 169.81 191.27 155.80 182.28 139.63 179.40 C 122.38 176.30 103.79 176.06 87.58 183.55 C 77.99 188.02 68.93 193.61 58.83 196.96 C 66.96 197.32 75.10 197.32 83.22 197.77 C 69.15 197.71 55.09 197.82 41.02 197.82 C 31.79 197.83 22.16 196.00 13.27 199.30 C 9.10 200.79 7.05 204.97 4.76 208.42 C 4.20 203.85 3.39 198.88 5.58 194.60 C 8.86 188.13 15.52 184.08 22.30 182.11 C 32.11 179.08 42.76 183.30 52.37 179.23 C 55.60 177.75 60.05 175.97 60.20 171.81 C 56.05 171.10 53.05 175.06 49.24 176.04 C 40.53 178.66 31.25 175.24 22.48 177.88 C 21.13 175.09 19.57 172.26 16.84 170.60 C 16.85 164.73 16.91 158.67 19.13 153.14 C 21.82 146.38 26.44 140.64 31.01 135.06 C 31.11 138.14 31.25 141.21 31.50 144.27 C 32.98 142.41 34.94 140.62 35.03 138.06 C 35.90 130.74 36.33 123.17 39.43 116.37 C 40.55 113.93 42.12 111.18 44.98 110.59 C 50.69 112.52 54.10 117.99 57.55 122.58 C 60.97 126.98 62.54 133.73 68.81 134.95 C 66.31 127.54 61.58 121.22 56.92 115.06 C 69.37 108.28 83.20 104.49 97.16 102.38 C 97.40 110.53 98.00 119.46 103.24 126.13 C 105.06 125.19 106.27 123.50 106.64 121.48 C 108.06 114.86 106.73 108.09 105.77 101.51 M 41.04 122.07 C 39.11 127.05 38.48 132.57 38.95 137.88 C 42.95 140.32 47.76 139.67 52.17 139.20 C 51.01 132.76 49.73 125.77 45.20 120.76 C 43.99 118.78 41.53 120.32 41.04 122.07 M 26.11 147.18 C 23.12 149.87 22.19 154.16 22.06 158.03 C 22.55 158.13 23.51 158.34 23.99 158.44 C 25.75 154.84 27.12 151.01 28.05 147.11 C 27.56 147.13 26.59 147.16 26.11 147.18 M 26.87 159.59 C 30.25 156.96 31.76 152.72 34.61 149.60 C 34.35 149.05 33.82 147.96 33.55 147.42 C 30.00 150.27 25.28 154.55 26.87 159.59 M 47.53 161.42 C 45.86 163.11 44.57 165.26 42.46 166.46 C 39.37 167.97 35.74 168.14 32.41 167.44 C 29.12 166.69 27.23 163.64 24.71 161.68 C 21.45 162.12 23.05 165.87 24.65 167.35 C 31.23 174.25 44.91 173.26 49.78 164.85 C 51.42 163.12 49.60 159.18 47.53 161.42 Z" />
<path fill="#dcd5c6" opacity="1.00" d=" M 13.22 127.10 C 18.85 125.16 24.33 128.73 29.28 131.01 C 26.85 133.93 24.45 136.86 21.81 139.59 C 22.21 138.19 22.58 136.80 22.96 135.40 C 19.88 133.83 16.79 132.27 13.68 130.78 C 13.66 131.20 13.63 132.03 13.61 132.45 L 13.56 133.39 C 13.28 131.31 13.01 129.20 13.22 127.10 Z" />
</g>
<g id="#f6f1e7ff">
<path fill="#f6f1e7" opacity="1.00" d=" M 41.04 122.07 C 41.53 120.32 43.99 118.78 45.20 120.76 C 49.73 125.77 51.01 132.76 52.17 139.20 C 47.76 139.67 42.95 140.32 38.95 137.88 C 38.48 132.57 39.11 127.05 41.04 122.07 Z" />
<path fill="#f6f1e7" opacity="1.00" d=" M 13.68 130.78 C 16.79 132.27 19.88 133.83 22.96 135.40 C 22.58 136.80 22.21 138.19 21.81 139.59 C 21.27 141.28 20.11 142.68 18.98 144.02 C 16.73 140.41 14.58 136.63 13.61 132.45 C 13.63 132.03 13.66 131.20 13.68 130.78 Z" />
<path fill="#f6f1e7" opacity="1.00" d=" M 244.86 158.64 C 245.94 158.06 247.03 157.48 248.12 156.91 C 251.64 161.12 252.65 166.69 252.25 172.04 C 248.38 171.91 244.88 170.27 242.07 167.67 C 243.04 164.67 243.95 161.66 244.86 158.64 Z" />
<path fill="#f6f1e7" opacity="1.00" d=" M 87.58 183.55 C 103.79 176.06 122.38 176.30 139.63 179.40 C 155.80 182.28 169.81 191.27 184.55 197.93 C 167.69 197.93 150.82 197.81 133.96 197.94 C 117.05 198.51 100.13 198.07 83.22 197.77 C 75.10 197.32 66.96 197.32 58.83 196.96 C 68.93 193.61 77.99 188.02 87.58 183.55 Z" />
</g>
<g id="#dc1b6cff">
<path fill="#dc1b6c" opacity="1.00" d=" M 6.16 177.11 C 6.99 173.98 10.02 172.24 12.79 171.05 C 14.13 170.86 15.48 170.71 16.84 170.60 C 19.57 172.26 21.13 175.09 22.48 177.88 C 17.28 179.30 12.29 181.64 8.09 185.06 C 7.13 182.53 5.48 179.92 6.16 177.11 Z" />
</g>
<g id="#b9c8dbff">
<path fill="#b9c8db" opacity="1.00" d=" M 24.74 204.77 C 29.50 203.64 34.51 203.63 39.28 204.78 C 34.52 206.33 29.48 206.38 24.74 204.77 Z" />
<path fill="#b9c8db" opacity="1.00" d=" M 40.71 204.77 C 45.49 203.63 50.50 203.64 55.27 204.77 C 50.51 206.36 45.47 206.36 40.71 204.77 Z" />
<path fill="#b9c8db" opacity="1.00" d=" M 56.71 204.77 C 61.48 203.64 66.50 203.63 71.27 204.77 C 66.51 206.33 61.47 206.38 56.71 204.77 Z" />
<path fill="#b9c8db" opacity="1.00" d=" M 72.72 204.78 C 77.48 203.62 82.46 203.68 87.24 204.70 C 82.52 206.46 77.47 206.31 72.72 204.78 Z" />
<path fill="#b9c8db" opacity="1.00" d=" M 170.84 204.60 C 175.62 203.75 180.56 203.61 185.30 204.79 C 180.56 206.17 175.45 206.79 170.84 204.60 Z" />
<path fill="#b9c8db" opacity="1.00" d=" M 186.71 204.78 C 191.49 203.64 196.51 203.63 201.29 204.78 C 196.52 206.34 191.48 206.36 186.71 204.78 Z" />
<path fill="#b9c8db" opacity="1.00" d=" M 202.71 204.78 C 207.49 203.64 212.50 203.64 217.28 204.77 C 212.52 206.36 207.48 206.34 202.71 204.78 Z" />
<path fill="#b9c8db" opacity="1.00" d=" M 218.69 204.78 C 223.41 203.62 228.33 203.78 233.10 204.53 C 228.54 206.86 223.42 206.14 218.69 204.78 Z" />
</g>
<g id="#566270cf">
<path fill="#566270" opacity="0.81" d=" M 9.68 207.94 C 9.86 206.60 10.41 205.07 11.83 204.62 C 12.41 206.11 11.22 207.78 9.68 207.94 Z" />
</g>
<g id="#0000004c">
<path fill="#000000" opacity="0.30" d=" M 1.97 220.25 C 3.70 218.61 5.78 217.41 7.79 216.17 C 7.63 221.28 11.51 226.34 16.93 225.97 C 91.98 226.03 167.05 226.01 242.10 225.98 C 247.41 226.38 251.93 222.04 252.23 216.82 C 253.48 217.20 254.74 217.58 256.00 217.96 L 256.00 223.74 C 247.54 227.63 238.22 228.95 229.10 230.34 C 207.56 233.31 185.83 234.54 164.12 235.28 C 124.43 236.36 84.61 235.96 45.07 232.06 C 32.74 230.64 20.25 229.38 8.37 225.59 C 5.90 224.51 2.19 223.45 1.97 220.25 Z" />
</g>
</svg>
