<?xml version="1.0" encoding="UTF-8" ?>
<!DOCTYPE svg PUBLIC "-//W3C//DTD SVG 1.1//EN" "http://www.w3.org/Graphics/SVG/1.1/DTD/svg11.dtd">
<svg width="256pt" height="256pt" viewBox="0 0 256 256" version="1.1" xmlns="http://www.w3.org/2000/svg">
<g id="#a75214ff">
<path fill="#a75214" opacity="1.00" d=" M 97.17 2.19 C 100.86 -0.35 105.64 0.94 109.45 2.48 C 115.50 4.80 120.39 9.15 125.40 13.10 C 138.03 6.34 153.31 4.70 167.09 8.55 C 171.13 9.55 174.53 12.01 177.93 14.29 C 186.72 9.23 196.16 3.08 206.77 4.21 C 213.30 5.04 215.91 12.22 215.93 17.98 C 216.17 30.86 212.37 43.44 207.89 55.39 C 215.42 70.91 220.39 87.57 223.73 104.46 C 226.70 120.12 228.03 136.14 227.02 152.06 C 226.49 160.43 223.36 168.57 224.23 177.03 C 224.82 191.16 232.93 203.81 233.00 218.00 C 232.75 227.79 229.23 238.05 221.41 244.36 C 211.20 253.31 196.35 254.85 183.60 251.40 C 176.46 249.57 170.35 245.35 164.67 240.81 C 155.06 245.96 144.80 249.87 134.24 252.51 C 125.33 254.16 116.14 255.56 107.09 254.17 C 103.37 253.58 99.70 252.18 96.77 249.77 C 94.14 247.03 93.20 243.27 92.95 239.58 C 77.68 237.34 63.32 230.48 51.70 220.35 C 42.19 222.82 32.23 224.24 22.45 222.69 C 17.61 221.78 12.45 219.45 10.28 214.74 C 8.43 210.51 8.34 205.11 11.25 201.32 C 13.29 198.58 16.33 196.89 19.21 195.19 C 24.22 192.27 29.01 188.96 33.61 185.44 C 30.36 169.81 35.50 153.88 43.31 140.42 C 45.07 138.01 43.47 135.08 43.32 132.44 C 42.60 124.89 45.54 117.22 50.69 111.72 C 56.50 105.25 63.86 100.31 71.73 96.71 C 72.75 96.14 73.98 95.78 74.67 94.78 C 81.73 84.51 86.39 72.88 91.55 61.60 C 93.06 58.63 93.14 55.22 94.24 52.12 C 95.08 49.69 96.96 47.86 98.67 46.02 C 95.83 35.55 93.18 24.87 93.12 13.97 C 93.28 9.85 93.62 4.92 97.17 2.19 M 99.33 10.91 C 98.60 20.93 101.32 30.78 103.38 40.50 C 105.54 36.58 107.85 32.72 109.53 28.56 C 111.61 26.33 113.61 24.03 115.75 21.88 C 117.69 20.38 119.56 18.80 121.46 17.26 C 115.48 13.06 109.47 7.90 101.99 6.92 C 99.67 6.59 99.65 9.33 99.33 10.91 M 176.52 22.41 C 174.72 23.85 172.36 22.91 170.30 22.91 C 171.72 21.46 173.16 20.02 174.58 18.57 C 166.16 13.18 155.80 11.76 146.01 12.94 C 133.80 14.41 121.40 19.83 114.01 30.00 C 110.16 35.69 107.23 41.95 104.25 48.13 C 109.44 49.31 114.76 49.86 119.89 51.27 C 122.08 51.63 121.95 54.38 122.32 56.05 C 123.09 61.47 120.15 66.52 116.05 69.81 C 122.19 68.38 128.99 67.48 134.94 70.12 C 137.40 71.16 138.73 74.18 137.50 76.64 C 135.68 80.61 131.06 81.66 127.27 82.79 C 127.68 84.50 128.07 86.23 128.45 87.96 C 132.62 87.42 137.27 86.36 141.05 88.86 C 147.46 92.33 149.14 100.94 146.26 107.27 C 143.38 115.01 132.94 118.39 125.96 114.15 C 122.98 112.48 122.10 107.95 124.59 105.50 C 126.49 103.60 129.42 103.86 131.88 104.01 C 129.89 104.53 127.85 105.02 126.06 106.06 C 125.88 107.41 125.39 109.23 126.93 109.99 C 131.84 113.69 139.12 111.24 142.45 106.56 C 145.99 101.43 143.04 93.58 137.26 91.54 L 137.92 92.77 C 134.80 89.40 129.90 93.25 126.28 91.61 C 124.19 89.20 123.99 85.79 123.14 82.84 C 117.73 81.49 111.99 78.11 111.46 71.97 C 108.56 72.07 105.52 72.45 102.75 71.36 C 100.13 70.35 98.04 68.41 95.92 66.64 C 89.16 81.98 81.99 97.40 71.45 110.57 C 70.17 112.52 68.19 114.40 68.43 116.93 C 68.60 123.62 70.04 130.47 68.15 137.05 C 66.66 142.51 61.80 147.30 55.98 147.61 C 52.79 147.75 50.52 145.28 48.37 143.30 C 42.05 154.75 37.32 167.69 38.88 180.99 C 39.56 195.26 46.23 209.45 58.14 217.70 C 59.95 219.97 62.64 221.32 65.01 222.92 C 74.69 228.84 85.38 233.88 96.87 234.64 C 103.03 228.66 110.65 224.56 117.44 219.38 C 122.96 215.05 129.09 211.32 133.87 206.15 C 136.02 204.43 138.14 202.68 140.20 200.84 C 141.09 201.81 141.96 202.80 142.81 203.81 C 133.20 212.56 123.11 220.80 112.37 228.13 C 108.38 230.90 103.50 232.59 100.36 236.44 C 97.80 239.57 99.11 244.60 102.66 246.38 C 108.63 249.66 115.92 249.97 122.43 248.30 C 136.25 246.78 149.41 241.85 161.79 235.69 C 156.35 229.27 151.94 221.58 151.12 213.08 C 150.60 208.27 151.88 202.84 155.91 199.81 C 159.87 196.66 165.53 197.10 169.92 199.07 C 177.36 202.49 182.42 209.20 188.09 214.84 C 188.99 215.53 189.73 216.77 190.95 216.85 C 198.37 212.26 202.61 204.40 207.84 197.71 C 208.66 197.89 210.31 198.24 211.13 198.42 C 209.69 201.95 207.73 205.21 205.54 208.32 C 207.17 212.44 208.88 217.32 206.37 221.47 C 203.90 225.73 198.03 225.80 193.95 224.10 C 188.13 221.53 184.23 216.28 179.70 212.03 C 174.74 207.20 169.40 201.43 162.03 200.97 C 157.60 200.55 154.67 205.08 154.51 209.04 C 154.47 215.79 157.43 222.05 160.75 227.77 C 169.41 240.29 184.65 248.69 200.08 246.93 C 209.76 246.05 219.24 240.49 223.62 231.62 C 227.57 224.04 227.77 214.97 225.29 206.90 C 222.77 198.89 220.60 190.79 218.39 182.70 C 216.06 174.99 219.67 167.34 220.27 159.66 C 215.72 161.16 210.88 163.10 206.04 161.93 C 203.76 161.48 201.70 158.48 203.40 156.45 C 207.68 150.83 216.05 151.67 220.86 146.74 C 221.41 144.59 221.27 142.35 221.36 140.16 C 216.58 141.81 211.45 143.98 206.33 142.57 C 204.17 141.99 202.36 139.04 204.05 137.13 C 208.11 131.95 215.58 132.29 220.51 128.35 C 220.90 125.91 220.36 123.45 220.16 121.02 C 215.01 123.19 209.39 125.79 203.69 124.38 C 201.19 123.86 199.36 120.37 201.53 118.46 C 205.62 113.81 212.53 113.93 217.34 110.36 C 218.93 109.42 217.94 107.36 217.89 105.95 C 215.39 93.04 211.80 80.32 206.94 68.09 C 205.40 64.18 203.11 60.37 203.22 56.02 C 202.68 49.46 206.07 43.55 207.36 37.28 C 209.05 29.68 211.06 21.68 209.34 13.91 C 208.80 10.39 204.94 9.44 201.95 10.18 C 192.55 11.88 184.36 17.25 176.52 22.41 M 101.69 66.28 C 107.42 70.73 116.75 67.08 118.14 60.02 C 118.43 57.82 119.23 53.85 115.73 54.44 C 113.77 56.07 111.90 58.65 108.97 58.01 C 105.87 57.74 104.48 54.70 103.68 52.11 C 102.10 51.81 100.51 51.52 98.93 51.21 C 96.08 56.09 96.73 63.01 101.69 66.28 M 117.87 73.98 C 121.07 76.91 126.06 76.90 129.26 73.96 C 126.30 70.59 120.81 70.58 117.87 73.98 M 52.78 118.84 C 50.40 122.11 49.75 126.17 48.91 130.02 C 49.49 134.37 50.02 139.32 53.50 142.42 C 56.26 144.72 60.29 142.70 62.31 140.32 C 65.76 136.04 64.71 130.18 64.87 125.08 C 64.80 121.13 63.86 117.05 64.82 113.16 C 66.54 109.82 69.13 107.03 71.11 103.85 C 64.00 107.39 57.43 112.35 52.78 118.84 M 27.56 197.18 C 23.91 199.62 19.64 201.28 16.62 204.57 C 14.08 207.34 14.43 212.26 17.68 214.34 C 23.17 218.07 30.28 218.14 36.61 217.07 C 40.73 216.52 44.85 215.92 48.93 215.14 C 42.69 208.40 38.27 200.12 36.24 191.15 C 33.36 193.17 30.47 195.18 27.56 197.18 M 197.76 219.27 C 200.20 219.37 201.68 218.01 202.17 215.67 C 200.63 216.78 199.16 217.98 197.76 219.27 Z" />
<path fill="#a75214" opacity="1.00" d=" M 120.07 30.78 C 124.13 31.76 123.93 36.64 124.10 39.94 C 123.88 42.44 124.50 47.62 120.54 46.60 C 121.42 41.33 120.74 36.02 120.07 30.78 Z" />
<path fill="#a75214" opacity="1.00" d=" M 157.19 34.23 C 158.55 33.84 159.15 34.37 159.00 35.84 C 157.49 38.02 155.48 39.80 153.88 41.91 C 151.39 45.07 150.20 49.00 148.01 52.34 C 147.52 52.22 146.55 51.98 146.06 51.86 C 147.28 44.94 151.70 38.51 157.19 34.23 Z" />
<path fill="#a75214" opacity="1.00" d=" M 115.00 35.94 C 115.54 35.68 116.64 35.16 117.19 34.89 C 118.56 38.37 118.73 42.12 118.75 45.81 C 118.06 45.85 116.67 45.91 115.98 45.95 C 115.65 42.61 115.32 39.28 115.00 35.94 Z" />
<path fill="#a75214" opacity="1.00" d=" M 160.28 41.32 C 160.98 41.23 162.40 41.06 163.10 40.97 C 163.21 43.48 160.64 44.55 159.27 46.24 C 157.47 47.79 156.55 50.49 154.11 51.16 C 153.25 50.42 153.10 49.60 153.66 48.70 C 155.13 45.71 157.40 43.03 160.28 41.32 Z" />
<path fill="#a75214" opacity="1.00" d=" M 145.17 56.27 C 152.17 56.93 158.98 58.92 165.94 59.96 C 168.05 60.57 171.37 60.32 171.83 63.12 C 174.67 71.84 168.68 81.91 159.71 83.65 C 151.40 85.67 142.37 79.90 140.48 71.62 C 139.24 66.25 140.66 59.74 145.17 56.27 M 146.21 60.63 C 142.99 65.40 143.36 72.33 147.60 76.37 C 152.13 81.28 160.75 81.18 165.14 76.13 C 168.29 73.13 168.81 68.56 168.21 64.45 C 166.57 64.18 164.94 63.90 163.30 63.61 C 161.71 66.14 159.33 68.87 155.97 68.12 C 152.37 67.75 150.77 64.13 150.46 60.95 C 149.05 60.78 147.63 60.60 146.21 60.63 Z" />
<path fill="#a75214" opacity="1.00" d=" M 94.85 86.98 C 99.70 83.83 105.79 82.54 111.53 82.90 C 111.78 83.47 112.30 84.61 112.55 85.17 C 106.97 85.87 101.37 86.76 96.28 89.30 C 94.79 90.62 93.31 87.79 94.85 86.98 Z" />
<path fill="#a75214" opacity="1.00" d=" M 157.02 89.84 C 156.57 87.13 159.64 88.16 161.02 88.96 C 164.82 91.02 168.39 93.53 171.61 96.41 C 172.95 97.39 173.21 99.08 173.54 100.59 C 169.46 99.36 166.76 95.93 163.20 93.82 C 161.14 92.50 158.91 91.41 157.02 89.84 Z" />
<path fill="#a75214" opacity="1.00" d=" M 94.62 98.86 C 100.02 94.01 106.43 89.89 113.79 88.98 C 113.84 89.64 113.95 90.97 114.01 91.63 C 107.30 93.11 101.57 96.93 96.17 100.99 C 95.78 100.46 95.00 99.39 94.62 98.86 Z" />
<path fill="#a75214" opacity="1.00" d=" M 151.07 93.85 C 150.41 91.54 153.07 91.81 154.26 92.82 C 160.07 96.80 163.35 103.29 167.03 109.09 C 166.46 109.28 165.32 109.67 164.74 109.86 C 161.88 107.41 160.44 103.79 158.15 100.87 C 156.26 98.08 153.38 96.23 151.07 93.85 Z" />
<path fill="#a75214" opacity="1.00" d=" M 148.65 124.43 C 149.22 122.28 151.54 123.63 153.09 123.49 C 149.39 132.90 145.11 142.48 137.78 149.68 C 133.02 154.37 127.39 158.02 122.44 162.48 C 121.00 163.97 119.15 165.61 119.16 167.84 C 119.90 170.93 122.97 172.87 125.98 173.23 C 130.82 173.88 135.68 172.63 140.25 171.10 C 155.94 164.81 171.55 155.16 179.96 139.99 C 180.92 140.69 181.89 141.37 182.88 142.04 C 180.78 146.62 178.00 150.89 174.29 154.32 C 164.48 163.69 152.65 171.04 139.82 175.46 C 134.53 177.02 128.80 178.23 123.35 176.75 C 119.33 175.63 115.64 172.26 115.17 167.97 C 114.94 164.33 117.65 161.46 120.13 159.17 C 125.53 154.43 131.61 150.48 136.54 145.21 C 142.13 139.28 145.05 131.59 148.65 124.43 Z" />
</g>
<g id="#f68634ff">
<path fill="#f68634" opacity="1.00" d=" M 99.33 10.91 C 99.65 9.33 99.67 6.59 101.99 6.92 C 109.47 7.90 115.48 13.06 121.46 17.26 C 119.56 18.80 117.69 20.38 115.75 21.88 C 112.11 18.45 107.88 15.54 102.84 14.74 C 102.20 20.71 104.00 26.46 106.19 31.93 C 107.31 30.81 108.43 29.69 109.53 28.56 C 107.85 32.72 105.54 36.58 103.38 40.50 C 101.32 30.78 98.60 20.93 99.33 10.91 Z" />
<path fill="#f68634" opacity="1.00" d=" M 176.52 22.41 C 184.36 17.25 192.55 11.88 201.95 10.18 C 204.94 9.44 208.80 10.39 209.34 13.91 C 211.06 21.68 209.05 29.68 207.36 37.28 C 206.07 43.55 202.68 49.46 203.22 56.02 C 203.11 60.37 205.40 64.18 206.94 68.09 C 211.80 80.32 215.39 93.04 217.89 105.95 C 217.94 107.36 218.93 109.42 217.34 110.36 C 212.53 113.93 205.62 113.81 201.53 118.46 C 199.36 120.37 201.19 123.86 203.69 124.38 C 209.39 125.79 215.01 123.19 220.16 121.02 C 220.36 123.45 220.90 125.91 220.51 128.35 C 215.58 132.29 208.11 131.95 204.05 137.13 C 202.36 139.04 204.17 141.99 206.33 142.57 C 211.45 143.98 216.58 141.81 221.36 140.16 C 221.27 142.35 221.41 144.59 220.86 146.74 C 216.05 151.67 207.68 150.83 203.40 156.45 C 201.70 158.48 203.76 161.48 206.04 161.93 C 210.88 163.10 215.72 161.16 220.27 159.66 C 219.67 167.34 216.06 174.99 218.39 182.70 C 220.60 190.79 222.77 198.89 225.29 206.90 C 227.77 214.97 227.57 224.04 223.62 231.62 C 219.24 240.49 209.76 246.05 200.08 246.93 C 184.65 248.69 169.41 240.29 160.75 227.77 C 169.46 226.64 176.47 219.95 179.70 212.03 C 184.23 216.28 188.13 221.53 193.95 224.10 C 198.03 225.80 203.90 225.73 206.37 221.47 C 208.88 217.32 207.17 212.44 205.54 208.32 C 207.73 205.21 209.69 201.95 211.13 198.42 C 210.31 198.24 208.66 197.89 207.84 197.71 C 202.61 204.40 198.37 212.26 190.95 216.85 C 189.73 216.77 188.99 215.53 188.09 214.84 C 182.42 209.20 177.36 202.49 169.92 199.07 C 165.53 197.10 159.87 196.66 155.91 199.81 C 151.88 202.84 150.60 208.27 151.12 213.08 C 151.94 221.58 156.35 229.27 161.79 235.69 C 149.41 241.85 136.25 246.78 122.43 248.30 C 122.91 240.44 119.91 231.70 112.37 228.13 C 123.11 220.80 133.20 212.56 142.81 203.81 C 141.96 202.80 141.09 201.81 140.20 200.84 C 138.14 202.68 136.02 204.43 133.87 206.15 C 138.22 196.58 140.16 185.95 139.82 175.46 C 152.65 171.04 164.48 163.69 174.29 154.32 C 178.00 150.89 180.78 146.62 182.88 142.04 C 181.89 141.37 180.92 140.69 179.96 139.99 C 171.55 155.16 155.94 164.81 140.25 171.10 C 140.12 163.89 139.32 156.72 137.78 149.68 C 145.11 142.48 149.39 132.90 153.09 123.49 C 151.54 123.63 149.22 122.28 148.65 124.43 C 145.05 131.59 142.13 139.28 136.54 145.21 C 133.47 136.95 128.72 128.22 120.01 124.91 C 113.70 122.17 106.64 123.83 100.61 126.45 C 87.98 131.91 77.82 141.84 69.74 152.78 C 61.49 163.86 55.81 177.12 54.97 191.02 C 54.27 200.03 55.89 209.01 58.14 217.70 C 46.23 209.45 39.56 195.26 38.88 180.99 C 37.32 167.69 42.05 154.75 48.37 143.30 C 50.52 145.28 52.79 147.75 55.98 147.61 C 61.80 147.30 66.66 142.51 68.15 137.05 C 70.04 130.47 68.60 123.62 68.43 116.93 C 68.19 114.40 70.17 112.52 71.45 110.57 C 81.99 97.40 89.16 81.98 95.92 66.64 C 98.04 68.41 100.13 70.35 102.75 71.36 C 105.52 72.45 108.56 72.07 111.46 71.97 C 111.99 78.11 117.73 81.49 123.14 82.84 C 123.99 85.79 124.19 89.20 126.28 91.61 C 129.90 93.25 134.80 89.40 137.92 92.77 C 138.98 94.79 140.63 97.23 139.40 99.54 C 137.90 102.26 134.70 103.28 131.88 104.01 C 129.42 103.86 126.49 103.60 124.59 105.50 C 122.10 107.95 122.98 112.48 125.96 114.15 C 132.94 118.39 143.38 115.01 146.26 107.27 C 149.14 100.94 147.46 92.33 141.05 88.86 C 137.27 86.36 132.62 87.42 128.45 87.96 C 128.07 86.23 127.68 84.50 127.27 82.79 C 131.06 81.66 135.68 80.61 137.50 76.64 C 138.73 74.18 137.40 71.16 134.94 70.12 C 128.99 67.48 122.19 68.38 116.05 69.81 C 120.15 66.52 123.09 61.47 122.32 56.05 C 121.95 54.38 122.08 51.63 119.89 51.27 C 114.76 49.86 109.44 49.31 104.25 48.13 C 107.23 41.95 110.16 35.69 114.01 30.00 C 121.40 19.83 133.80 14.41 146.01 12.94 C 155.80 11.76 166.16 13.18 174.58 18.57 C 173.16 20.02 171.72 21.46 170.30 22.91 C 172.36 22.91 174.72 23.85 176.52 22.41 M 188.88 24.75 C 185.96 27.26 182.74 29.44 180.07 32.23 C 180.58 33.83 182.32 34.46 183.52 35.45 C 187.94 38.34 191.42 42.37 195.28 45.93 C 198.66 40.16 200.83 33.70 201.70 27.08 C 201.83 24.58 202.29 21.37 200.09 19.59 C 195.75 19.48 192.07 22.11 188.88 24.75 M 120.07 30.78 C 120.74 36.02 121.42 41.33 120.54 46.60 C 124.50 47.62 123.88 42.44 124.10 39.94 C 123.93 36.64 124.13 31.76 120.07 30.78 M 157.19 34.23 C 151.70 38.51 147.28 44.94 146.06 51.86 C 146.55 51.98 147.52 52.22 148.01 52.34 C 150.20 49.00 151.39 45.07 153.88 41.91 C 155.48 39.80 157.49 38.02 159.00 35.84 C 159.15 34.37 158.55 33.84 157.19 34.23 M 115.00 35.94 C 115.32 39.28 115.65 42.61 115.98 45.95 C 116.67 45.91 118.06 45.85 118.75 45.81 C 118.73 42.12 118.56 38.37 117.19 34.89 C 116.64 35.16 115.54 35.68 115.00 35.94 M 160.28 41.32 C 157.40 43.03 155.13 45.71 153.66 48.70 C 153.10 49.60 153.25 50.42 154.11 51.16 C 156.55 50.49 157.47 47.79 159.27 46.24 C 160.64 44.55 163.21 43.48 163.10 40.97 C 162.40 41.06 160.98 41.23 160.28 41.32 M 145.17 56.27 C 140.66 59.74 139.24 66.25 140.48 71.62 C 142.37 79.90 151.40 85.67 159.71 83.65 C 168.68 81.91 174.67 71.84 171.83 63.12 C 171.37 60.32 168.05 60.57 165.94 59.96 C 158.98 58.92 152.17 56.93 145.17 56.27 M 94.85 86.98 C 93.31 87.79 94.79 90.62 96.28 89.30 C 101.37 86.76 106.97 85.87 112.55 85.17 C 112.30 84.61 111.78 83.47 111.53 82.90 C 105.79 82.54 99.70 83.83 94.85 86.98 M 157.02 89.84 C 158.91 91.41 161.14 92.50 163.20 93.82 C 166.76 95.93 169.46 99.36 173.54 100.59 C 173.21 99.08 172.95 97.39 171.61 96.41 C 168.39 93.53 164.82 91.02 161.02 88.96 C 159.64 88.16 156.57 87.13 157.02 89.84 M 94.62 98.86 C 95.00 99.39 95.78 100.46 96.17 100.99 C 101.57 96.93 107.30 93.11 114.01 91.63 C 113.95 90.97 113.84 89.64 113.79 88.98 C 106.43 89.89 100.02 94.01 94.62 98.86 M 151.07 93.85 C 153.38 96.23 156.26 98.08 158.15 100.87 C 160.44 103.79 161.88 107.41 164.74 109.86 C 165.32 109.67 166.46 109.28 167.03 109.09 C 163.35 103.29 160.07 96.80 154.26 92.82 C 153.07 91.81 150.41 91.54 151.07 93.85 Z" />
<path fill="#f68634" opacity="1.00" d=" M 52.78 118.84 C 57.43 112.35 64.00 107.39 71.11 103.85 C 69.13 107.03 66.54 109.82 64.82 113.16 C 63.86 117.05 64.80 121.13 64.87 125.08 C 61.67 125.22 58.28 124.86 55.31 126.29 C 53.07 127.34 51.01 128.72 48.91 130.02 C 49.75 126.17 50.40 122.11 52.78 118.84 Z" />
<path fill="#f68634" opacity="1.00" d=" M 27.56 197.18 C 30.47 195.18 33.36 193.17 36.24 191.15 C 38.27 200.12 42.69 208.40 48.93 215.14 C 44.85 215.92 40.73 216.52 36.61 217.07 C 37.98 209.42 34.75 200.76 27.56 197.18 Z" />
</g>
<g id="#feb761ff">
<path fill="#feb761" opacity="1.00" d=" M 102.84 14.74 C 107.88 15.54 112.11 18.45 115.75 21.88 C 113.61 24.03 111.61 26.33 109.53 28.56 C 108.43 29.69 107.31 30.81 106.19 31.93 C 104.00 26.46 102.20 20.71 102.84 14.74 Z" />
<path fill="#feb761" opacity="1.00" d=" M 188.88 24.75 C 192.07 22.11 195.75 19.48 200.09 19.59 C 202.29 21.37 201.83 24.58 201.70 27.08 C 200.83 33.70 198.66 40.16 195.28 45.93 C 191.42 42.37 187.94 38.34 183.52 35.45 C 182.32 34.46 180.58 33.83 180.07 32.23 C 182.74 29.44 185.96 27.26 188.88 24.75 Z" />
<path fill="#feb761" opacity="1.00" d=" M 100.61 126.45 C 106.64 123.83 113.70 122.17 120.01 124.91 C 128.72 128.22 133.47 136.95 136.54 145.21 C 131.61 150.48 125.53 154.43 120.13 159.17 C 117.65 161.46 114.94 164.33 115.17 167.97 C 115.64 172.26 119.33 175.63 123.35 176.75 C 128.80 178.23 134.53 177.02 139.82 175.46 C 140.16 185.95 138.22 196.58 133.87 206.15 C 129.09 211.32 122.96 215.05 117.44 219.38 C 110.65 224.56 103.03 228.66 96.87 234.64 C 85.38 233.88 74.69 228.84 65.01 222.92 C 62.64 221.32 59.95 219.97 58.14 217.70 C 55.89 209.01 54.27 200.03 54.97 191.02 C 55.81 177.12 61.49 163.86 69.74 152.78 C 77.82 141.84 87.98 131.91 100.61 126.45 Z" />
<path fill="#feb761" opacity="1.00" d=" M 55.31 126.29 C 58.28 124.86 61.67 125.22 64.87 125.08 C 64.71 130.18 65.76 136.04 62.31 140.32 C 60.29 142.70 56.26 144.72 53.50 142.42 C 50.02 139.32 49.49 134.37 48.91 130.02 C 51.01 128.72 53.07 127.34 55.31 126.29 Z" />
<path fill="#feb761" opacity="1.00" d=" M 122.44 162.48 C 127.39 158.02 133.02 154.37 137.78 149.68 C 139.32 156.72 140.12 163.89 140.25 171.10 C 135.68 172.63 130.82 173.88 125.98 173.23 C 122.97 172.87 119.90 170.93 119.16 167.84 C 119.15 165.61 121.00 163.97 122.44 162.48 Z" />
<path fill="#feb761" opacity="1.00" d=" M 16.62 204.57 C 19.64 201.28 23.91 199.62 27.56 197.18 C 34.75 200.76 37.98 209.42 36.61 217.07 C 30.28 218.14 23.17 218.07 17.68 214.34 C 14.43 212.26 14.08 207.34 16.62 204.57 Z" />
<path fill="#feb761" opacity="1.00" d=" M 154.51 209.04 C 154.67 205.08 157.60 200.55 162.03 200.97 C 169.40 201.43 174.74 207.20 179.70 212.03 C 176.47 219.95 169.46 226.64 160.75 227.77 C 157.43 222.05 154.47 215.79 154.51 209.04 Z" />
<path fill="#feb761" opacity="1.00" d=" M 100.36 236.44 C 103.50 232.59 108.38 230.90 112.37 228.13 C 119.91 231.70 122.91 240.44 122.43 248.30 C 115.92 249.97 108.63 249.66 102.66 246.38 C 99.11 244.60 97.80 239.57 100.36 236.44 Z" />
</g>
<g id="#ffffffff">
<path fill="#ffffff" opacity="1.00" d=" M 101.69 66.28 C 96.73 63.01 96.08 56.09 98.93 51.21 C 100.51 51.52 102.10 51.81 103.68 52.11 C 104.48 54.70 105.87 57.74 108.97 58.01 C 111.90 58.65 113.77 56.07 115.73 54.44 C 119.23 53.85 118.43 57.82 118.14 60.02 C 116.75 67.08 107.42 70.73 101.69 66.28 Z" />
<path fill="#ffffff" opacity="1.00" d=" M 146.21 60.63 C 147.63 60.60 149.05 60.78 150.46 60.95 C 150.77 64.13 152.37 67.75 155.97 68.12 C 159.33 68.87 161.71 66.14 163.30 63.61 C 164.94 63.90 166.57 64.18 168.21 64.45 C 168.81 68.56 168.29 73.13 165.14 76.13 C 160.75 81.18 152.13 81.28 147.60 76.37 C 143.36 72.33 142.99 65.40 146.21 60.63 Z" />
</g>
<g id="#f8dab6ff">
<path fill="#f8dab6" opacity="1.00" d=" M 117.87 73.98 C 120.81 70.58 126.30 70.59 129.26 73.96 C 126.06 76.90 121.07 76.91 117.87 73.98 Z" />
</g>
<g id="#502c11ff">
<path fill="#502c11" opacity="1.00" d=" M 137.26 91.54 C 143.04 93.58 145.99 101.43 142.45 106.56 C 139.12 111.24 131.84 113.69 126.93 109.99 C 125.39 109.23 125.88 107.41 126.06 106.06 C 127.85 105.02 129.89 104.53 131.88 104.01 C 134.70 103.28 137.90 102.26 139.40 99.54 C 140.63 97.23 138.98 94.79 137.92 92.77 L 137.26 91.54 Z" />
</g>
<g id="#0000004c">
<path fill="#000000" opacity="0.30" d=" M 197.76 219.27 C 199.16 217.98 200.63 216.78 202.17 215.67 C 201.68 218.01 200.20 219.37 197.76 219.27 Z" />
<path fill="#000000" opacity="0.30" d=" M 22.45 222.69 C 32.23 224.24 42.19 222.82 51.70 220.35 C 63.32 230.48 77.68 237.34 92.95 239.58 C 93.20 243.27 94.14 247.03 96.77 249.77 C 89.45 249.42 82.26 247.95 75.06 246.69 C 61.68 244.05 48.23 240.92 35.80 235.16 C 30.30 232.47 24.12 229.10 22.45 222.69 Z" />
<path fill="#000000" opacity="0.30" d=" M 134.24 252.51 C 144.80 249.87 155.06 245.96 164.67 240.81 C 170.35 245.35 176.46 249.57 183.60 251.40 C 173.21 253.33 162.56 253.04 152.04 253.35 C 146.10 253.32 140.10 253.64 134.24 252.51 Z" />
</g>
</svg>
