<?xml version="1.0" encoding="UTF-8" ?>
<!DOCTYPE svg PUBLIC "-//W3C//DTD SVG 1.1//EN" "http://www.w3.org/Graphics/SVG/1.1/DTD/svg11.dtd">
<svg width="256pt" height="256pt" viewBox="0 0 256 256" version="1.1" xmlns="http://www.w3.org/2000/svg">
<g id="#ab9e89ff">
<path fill="#ab9e89" opacity="1.00" d=" M 118.93 17.49 C 127.45 14.24 134.09 7.12 143.05 4.83 C 148.70 3.46 154.14 7.48 156.74 12.25 C 161.63 21.03 161.55 31.38 164.16 40.88 C 169.28 64.47 173.92 88.31 182.47 110.96 C 186.68 121.83 191.68 132.65 199.38 141.53 C 204.60 147.53 211.78 152.56 220.00 152.75 C 222.58 153.12 225.27 151.80 227.76 152.82 C 229.42 154.53 228.94 157.03 229.21 159.19 C 229.94 167.73 230.62 176.43 228.78 184.88 C 227.73 188.65 226.27 192.52 223.30 195.20 C 220.87 197.59 217.53 198.69 214.96 200.88 C 209.09 207.06 209.54 217.23 202.52 222.53 C 197.81 226.33 191.65 227.56 185.76 228.03 C 183.97 228.08 182.17 228.17 180.38 228.28 C 180.89 233.36 179.09 238.80 174.73 241.74 C 167.82 246.55 159.06 246.59 151.05 247.87 C 145.51 248.54 140.65 251.50 135.47 253.34 C 133.42 253.97 131.24 254.03 129.11 253.88 C 121.66 253.32 115.62 248.25 108.42 246.89 C 107.77 249.67 106.22 252.17 103.85 253.80 C 95.03 258.15 84.96 254.88 75.94 252.93 C 66.00 249.74 55.15 253.05 45.27 249.58 C 40.37 247.58 37.94 242.28 38.11 237.20 C 31.10 238.23 23.77 237.00 17.55 233.59 C 9.64 229.26 1.66 220.80 3.77 211.07 C 9.89 165.09 18.50 119.35 21.12 72.96 C 22.53 55.90 23.59 38.70 27.54 22.00 C 28.87 17.33 30.28 11.40 35.52 9.72 C 42.33 7.41 49.26 10.75 55.40 13.48 C 60.76 15.76 66.02 19.14 72.02 19.15 C 82.57 17.40 93.23 14.32 104.01 15.94 C 108.97 16.41 113.92 18.59 118.93 17.49 M 114.80 24.22 C 109.29 22.84 103.60 22.30 97.98 21.59 C 90.00 22.23 81.90 22.98 74.18 25.23 C 63.55 26.01 54.99 18.68 45.22 16.00 C 43.30 15.15 41.15 13.97 39.02 14.83 C 36.38 15.20 35.31 17.83 34.47 20.00 C 32.86 24.47 32.05 29.17 31.24 33.84 C 28.84 48.72 27.81 63.79 26.71 78.82 C 25.58 98.93 22.92 118.92 20.25 138.87 C 18.98 149.63 16.84 160.31 15.95 171.09 C 14.91 176.02 14.51 181.11 13.21 186.00 C 10.72 195.11 9.74 204.56 9.47 213.98 C 9.25 217.20 11.14 219.94 13.08 222.31 C 19.28 230.08 30.28 233.12 39.79 230.74 C 45.89 192.77 46.86 154.21 49.96 115.95 L 51.43 115.83 C 51.92 120.55 51.39 125.31 51.43 130.05 C 50.76 163.46 48.79 196.89 44.09 229.99 C 43.85 231.20 44.12 232.27 44.91 233.20 C 44.00 237.04 43.41 242.68 48.01 244.35 C 57.23 246.39 66.92 243.96 76.01 246.73 C 83.22 248.45 90.65 250.82 98.14 249.49 C 100.19 248.84 102.41 247.58 102.24 245.07 C 102.63 242.59 104.91 240.68 104.39 238.06 C 102.66 199.41 102.27 160.71 102.60 122.02 C 102.68 121.50 102.83 120.48 102.91 119.96 C 103.33 120.07 104.17 120.28 104.58 120.39 C 106.06 160.45 106.74 200.53 108.40 240.59 C 115.67 241.77 121.69 246.59 128.92 247.78 C 133.39 248.64 137.33 245.90 141.33 244.42 C 150.40 240.16 161.31 242.45 170.07 237.41 C 171.37 236.50 172.55 235.44 173.53 234.20 C 175.02 230.94 173.90 227.43 173.88 224.03 C 173.96 222.44 173.10 221.04 172.52 219.63 C 159.86 191.45 151.56 161.00 150.85 130.00 C 150.83 126.39 150.62 122.76 151.22 119.18 C 152.52 118.99 153.10 119.57 152.95 120.94 C 153.78 155.97 163.36 190.42 178.04 222.10 C 184.63 222.43 191.78 222.12 197.61 218.68 C 201.42 216.57 202.75 212.14 203.94 208.25 C 206.36 206.59 207.86 203.95 207.28 200.95 C 208.34 199.58 209.38 198.19 210.40 196.80 C 207.43 193.99 203.74 192.03 200.78 189.19 C 185.32 175.23 175.43 155.53 172.15 135.08 C 172.57 135.06 173.43 135.02 173.86 135.01 C 179.87 156.68 191.03 178.04 209.82 191.22 C 211.40 192.09 212.83 193.83 214.74 193.75 C 217.69 192.25 220.67 190.21 221.77 186.93 C 224.86 179.01 223.92 170.30 223.51 162.01 C 223.34 157.11 217.26 158.20 213.92 157.92 C 202.00 155.48 193.57 145.47 187.44 135.61 C 179.62 122.77 174.34 108.50 170.86 93.90 C 167.02 78.14 163.58 62.27 159.14 46.65 C 158.36 41.38 156.70 36.27 156.03 30.96 C 154.98 25.51 154.35 19.66 151.17 14.95 C 150.58 14.12 149.90 13.40 149.12 12.76 C 147.96 10.67 145.13 10.20 143.05 11.12 C 133.23 14.63 125.76 23.89 114.80 24.22 Z" />
</g>
<g id="#dcd5c6ff">
<path fill="#dcd5c6" opacity="1.00" d=" M 114.80 24.22 C 125.76 23.89 133.23 14.63 143.05 11.12 C 145.13 10.20 147.96 10.67 149.12 12.76 C 147.53 12.50 145.92 11.94 144.30 12.21 C 140.38 13.23 138.58 18.66 141.13 21.81 C 142.98 24.85 147.99 24.79 149.88 21.84 C 151.48 19.92 151.09 17.26 151.17 14.95 C 154.35 19.66 154.98 25.51 156.03 30.96 C 156.70 36.27 158.36 41.38 159.14 46.65 C 158.63 46.80 157.60 47.08 157.09 47.23 C 162.92 66.75 165.41 87.02 168.75 107.06 C 171.26 119.42 175.40 131.52 181.51 142.59 C 187.31 152.61 195.20 162.37 206.39 166.49 C 210.85 167.92 215.85 168.81 220.42 167.40 C 222.80 166.68 223.22 164.13 223.51 162.01 C 223.92 170.30 224.86 179.01 221.77 186.93 C 220.67 190.21 217.69 192.25 214.74 193.75 C 212.83 193.83 211.40 192.09 209.82 191.22 C 191.03 178.04 179.87 156.68 173.86 135.01 C 173.43 135.02 172.57 135.06 172.15 135.08 C 175.43 155.53 185.32 175.23 200.78 189.19 C 203.74 192.03 207.43 193.99 210.40 196.80 C 209.38 198.19 208.34 199.58 207.28 200.95 C 204.20 197.61 200.39 195.02 197.52 191.48 C 181.21 173.83 172.02 150.92 166.21 127.92 C 163.50 116.44 161.56 104.78 160.26 93.05 C 159.78 89.09 159.91 85.04 158.92 81.14 C 157.41 81.16 157.14 82.74 157.41 83.90 C 159.36 108.35 161.24 133.08 168.32 156.70 C 173.42 173.94 181.98 190.49 194.97 203.11 C 197.55 205.46 200.18 208.18 203.94 208.25 C 202.75 212.14 201.42 216.57 197.61 218.68 C 191.78 222.12 184.63 222.43 178.04 222.10 C 163.36 190.42 153.78 155.97 152.95 120.94 C 153.10 119.57 152.52 118.99 151.22 119.18 C 150.62 122.76 150.83 126.39 150.85 130.00 C 151.56 161.00 159.86 191.45 172.52 219.63 C 173.10 221.04 173.96 222.44 173.88 224.03 C 173.90 227.43 175.02 230.94 173.53 234.20 C 173.47 229.85 171.41 225.97 170.11 221.92 C 164.19 205.33 158.97 188.49 154.64 171.41 C 149.30 150.44 146.11 128.63 148.29 106.98 C 148.65 102.66 149.93 98.44 149.87 94.08 C 148.23 94.46 147.92 96.21 147.63 97.63 C 144.27 114.85 144.26 132.53 145.36 149.98 C 147.16 174.52 152.21 198.77 159.73 222.18 C 160.99 226.19 162.25 230.22 164.02 234.03 C 165.03 236.45 167.85 236.82 170.07 237.41 C 161.31 242.45 150.40 240.16 141.33 244.42 C 137.33 245.90 133.39 248.64 128.92 247.78 C 121.69 246.59 115.67 241.77 108.40 240.59 C 106.74 200.53 106.06 160.45 104.58 120.39 C 104.17 120.28 103.33 120.07 102.91 119.96 C 102.83 120.48 102.68 121.50 102.60 122.02 C 102.27 160.71 102.66 199.41 104.39 238.06 C 104.91 240.68 102.63 242.59 102.24 245.07 C 102.83 218.34 99.24 191.71 100.25 164.97 C 100.35 160.60 100.94 156.25 100.89 151.87 C 100.45 151.91 99.57 151.99 99.13 152.03 C 96.86 177.34 93.76 202.59 92.75 228.00 C 92.51 233.64 91.89 239.29 92.28 244.93 C 92.70 247.76 95.98 248.42 98.14 249.49 C 90.65 250.82 83.22 248.45 76.01 246.73 C 66.92 243.96 57.23 246.39 48.01 244.35 C 51.15 245.00 54.10 242.79 54.53 239.65 C 59.90 203.95 55.41 167.86 55.20 131.99 C 55.02 126.60 55.56 121.20 54.98 115.82 C 53.92 116.24 53.37 116.99 53.33 118.07 C 52.88 128.69 53.17 139.37 51.91 149.95 C 52.06 156.99 51.79 164.02 50.89 171.01 C 51.24 177.37 49.97 183.64 49.82 189.99 C 48.81 198.98 48.44 208.02 47.24 217.00 C 46.40 222.39 46.59 227.97 44.91 233.20 C 44.12 232.27 43.85 231.20 44.09 229.99 C 48.79 196.89 50.76 163.46 51.43 130.05 C 51.39 125.31 51.92 120.55 51.43 115.83 L 49.96 115.95 C 46.86 154.21 45.89 192.77 39.79 230.74 C 30.28 233.12 19.28 230.08 13.08 222.31 C 14.58 221.90 16.77 222.28 17.53 220.57 C 19.54 216.58 19.81 212.02 20.50 207.68 C 23.61 185.27 25.15 162.68 25.97 140.09 C 26.98 120.30 31.32 100.82 31.82 81.00 C 31.86 75.39 31.87 69.70 30.57 64.21 C 30.26 64.19 29.63 64.15 29.32 64.13 C 28.98 76.11 27.48 88.02 26.66 99.98 C 24.76 120.19 22.51 140.42 18.33 160.31 C 17.57 163.91 17.48 167.69 15.95 171.09 C 16.84 160.31 18.98 149.63 20.25 138.87 C 22.92 118.92 25.58 98.93 26.71 78.82 C 27.81 63.79 28.84 48.72 31.24 33.84 C 32.05 29.17 32.86 24.47 34.47 20.00 C 35.14 22.50 36.39 25.05 38.92 26.11 C 41.11 27.43 43.85 26.03 45.26 24.21 C 46.93 21.72 46.07 18.62 45.22 16.00 C 54.99 18.68 63.55 26.01 74.18 25.23 C 70.23 26.93 65.46 28.45 63.52 32.66 C 62.04 36.59 66.36 39.25 69.27 40.80 C 80.58 46.02 93.39 46.23 105.59 45.43 C 112.24 44.54 119.03 43.25 124.99 40.03 C 127.47 38.68 130.02 36.12 129.27 33.04 C 129.04 31.15 127.40 29.99 125.97 28.99 C 122.56 26.74 118.62 25.55 114.80 24.22 M 45.95 62.01 C 40.45 67.74 38.52 76.47 40.97 84.01 L 39.92 83.76 C 40.04 91.75 44.77 99.47 51.94 103.04 C 58.77 106.68 67.59 106.41 74.06 102.09 C 78.65 99.00 82.39 94.40 83.75 88.97 C 83.76 87.65 85.08 85.13 83.16 84.67 C 87.58 73.29 80.62 59.43 68.96 56.03 C 60.97 53.38 51.63 55.82 45.95 62.01 M 104.10 63.04 C 99.27 68.74 97.74 76.89 100.03 83.99 L 99.07 83.84 C 98.92 94.37 107.58 104.00 117.97 105.32 C 129.87 107.45 142.40 98.07 143.32 85.93 C 143.03 85.66 142.45 85.14 142.16 84.87 C 146.72 73.48 139.76 59.43 128.02 56.03 C 119.59 53.22 109.68 56.14 104.10 63.04 M 87.33 98.49 C 84.54 99.28 81.13 99.75 79.39 102.35 C 78.40 104.66 80.53 106.61 82.40 107.54 C 87.16 109.72 92.64 109.67 97.68 108.62 C 100.21 108.00 103.13 106.70 103.89 103.97 C 104.04 102.13 102.43 100.85 100.98 100.08 C 96.75 98.11 91.90 97.83 87.33 98.49 Z" />
</g>
<g id="#f6f1e7ff">
<path fill="#f6f1e7" opacity="1.00" d=" M 144.30 12.21 C 145.92 11.94 147.53 12.50 149.12 12.76 C 149.90 13.40 150.58 14.12 151.17 14.95 C 151.09 17.26 151.48 19.92 149.88 21.84 C 147.99 24.79 142.98 24.85 141.13 21.81 C 138.58 18.66 140.38 13.23 144.30 12.21 Z" />
<path fill="#f6f1e7" opacity="1.00" d=" M 34.47 20.00 C 35.31 17.83 36.38 15.20 39.02 14.83 C 41.15 13.97 43.30 15.15 45.22 16.00 C 46.07 18.62 46.93 21.72 45.26 24.21 C 43.85 26.03 41.11 27.43 38.92 26.11 C 36.39 25.05 35.14 22.50 34.47 20.00 Z" />
<path fill="#f6f1e7" opacity="1.00" d=" M 74.18 25.23 C 81.90 22.98 90.00 22.23 97.98 21.59 C 103.60 22.30 109.29 22.84 114.80 24.22 C 118.62 25.55 122.56 26.74 125.97 28.99 C 127.40 29.99 129.04 31.15 129.27 33.04 C 130.02 36.12 127.47 38.68 124.99 40.03 C 119.03 43.25 112.24 44.54 105.59 45.43 C 93.39 46.23 80.58 46.02 69.27 40.80 C 66.36 39.25 62.04 36.59 63.52 32.66 C 65.46 28.45 70.23 26.93 74.18 25.23 Z" />
<path fill="#f6f1e7" opacity="1.00" d=" M 157.09 47.23 C 157.60 47.08 158.63 46.80 159.14 46.65 C 163.58 62.27 167.02 78.14 170.86 93.90 C 174.34 108.50 179.62 122.77 187.44 135.61 C 193.57 145.47 202.00 155.48 213.92 157.92 C 217.26 158.20 223.34 157.11 223.51 162.01 C 223.22 164.13 222.80 166.68 220.42 167.40 C 215.85 168.81 210.85 167.92 206.39 166.49 C 195.20 162.37 187.31 152.61 181.51 142.59 C 175.40 131.52 171.26 119.42 168.75 107.06 C 165.41 87.02 162.92 66.75 157.09 47.23 Z" />
<path fill="#f6f1e7" opacity="1.00" d=" M 29.32 64.13 C 29.63 64.15 30.26 64.19 30.57 64.21 C 31.87 69.70 31.86 75.39 31.82 81.00 C 31.32 100.82 26.98 120.30 25.97 140.09 C 25.15 162.68 23.61 185.27 20.50 207.68 C 19.81 212.02 19.54 216.58 17.53 220.57 C 16.77 222.28 14.58 221.90 13.08 222.31 C 11.14 219.94 9.25 217.20 9.47 213.98 C 9.74 204.56 10.72 195.11 13.21 186.00 C 14.51 181.11 14.91 176.02 15.95 171.09 C 17.48 167.69 17.57 163.91 18.33 160.31 C 22.51 140.42 24.76 120.19 26.66 99.98 C 27.48 88.02 28.98 76.11 29.32 64.13 Z" />
<path fill="#f6f1e7" opacity="1.00" d=" M 157.41 83.90 C 157.14 82.74 157.41 81.16 158.92 81.14 C 159.91 85.04 159.78 89.09 160.26 93.05 C 161.56 104.78 163.50 116.44 166.21 127.92 C 172.02 150.92 181.21 173.83 197.52 191.48 C 200.39 195.02 204.20 197.61 207.28 200.95 C 207.86 203.95 206.36 206.59 203.94 208.25 C 200.18 208.18 197.55 205.46 194.97 203.11 C 181.98 190.49 173.42 173.94 168.32 156.70 C 161.24 133.08 159.36 108.35 157.41 83.90 Z" />
<path fill="#f6f1e7" opacity="1.00" d=" M 39.92 83.76 L 40.97 84.01 C 43.60 92.67 51.97 99.16 61.02 99.50 C 70.61 100.15 80.15 93.81 83.16 84.67 C 85.08 85.13 83.76 87.65 83.75 88.97 C 82.39 94.40 78.65 99.00 74.06 102.09 C 67.59 106.41 58.77 106.68 51.94 103.04 C 44.77 99.47 40.04 91.75 39.92 83.76 Z" />
<path fill="#f6f1e7" opacity="1.00" d=" M 99.07 83.84 L 100.03 83.99 C 102.73 92.97 111.62 99.57 121.01 99.53 C 130.22 99.76 139.16 93.60 142.16 84.87 C 142.45 85.14 143.03 85.66 143.32 85.93 C 142.40 98.07 129.87 107.45 117.97 105.32 C 107.58 104.00 98.92 94.37 99.07 83.84 Z" />
<path fill="#f6f1e7" opacity="1.00" d=" M 147.63 97.63 C 147.92 96.21 148.23 94.46 149.87 94.08 C 149.93 98.44 148.65 102.66 148.29 106.98 C 146.11 128.63 149.30 150.44 154.64 171.41 C 158.97 188.49 164.19 205.33 170.11 221.92 C 171.41 225.97 173.47 229.85 173.53 234.20 C 172.55 235.44 171.37 236.50 170.07 237.41 C 167.85 236.82 165.03 236.45 164.02 234.03 C 162.25 230.22 160.99 226.19 159.73 222.18 C 152.21 198.77 147.16 174.52 145.36 149.98 C 144.26 132.53 144.27 114.85 147.63 97.63 Z" />
<path fill="#f6f1e7" opacity="1.00" d=" M 87.33 98.49 C 91.90 97.83 96.75 98.11 100.98 100.08 C 102.43 100.85 104.04 102.13 103.89 103.97 C 103.13 106.70 100.21 108.00 97.68 108.62 C 92.64 109.67 87.16 109.72 82.40 107.54 C 80.53 106.61 78.40 104.66 79.39 102.35 C 81.13 99.75 84.54 99.28 87.33 98.49 Z" />
<path fill="#f6f1e7" opacity="1.00" d=" M 53.33 118.07 C 53.37 116.99 53.92 116.24 54.98 115.82 C 55.56 121.20 55.02 126.60 55.20 131.99 C 55.41 167.86 59.90 203.95 54.53 239.65 C 54.10 242.79 51.15 245.00 48.01 244.35 C 43.41 242.68 44.00 237.04 44.91 233.20 C 46.59 227.97 46.40 222.39 47.24 217.00 C 48.44 208.02 48.81 198.98 49.82 189.99 C 49.97 183.64 51.24 177.37 50.89 171.01 C 51.79 164.02 52.06 156.99 51.91 149.95 C 53.17 139.37 52.88 128.69 53.33 118.07 Z" />
<path fill="#f6f1e7" opacity="1.00" d=" M 99.13 152.03 C 99.57 151.99 100.45 151.91 100.89 151.87 C 100.94 156.25 100.35 160.60 100.25 164.97 C 99.24 191.71 102.83 218.34 102.24 245.07 C 102.41 247.58 100.19 248.84 98.14 249.49 C 95.98 248.42 92.70 247.76 92.28 244.93 C 91.89 239.29 92.51 233.64 92.75 228.00 C 93.76 202.59 96.86 177.34 99.13 152.03 Z" />
</g>
<g id="#000000ff">
<path fill="#000000" opacity="1.00" d=" M 45.95 62.01 C 51.63 55.82 60.97 53.38 68.96 56.03 C 80.62 59.43 87.58 73.29 83.16 84.67 C 80.15 93.81 70.61 100.15 61.02 99.50 C 51.97 99.16 43.60 92.67 40.97 84.01 C 38.52 76.47 40.45 67.74 45.95 62.01 M 46.03 68.99 C 42.85 77.62 48.21 88.00 57.00 90.56 C 64.36 93.04 73.07 89.64 76.85 82.88 C 80.12 77.39 79.80 70.10 76.25 64.82 C 75.85 67.12 75.13 69.70 72.91 70.88 C 69.55 73.07 64.50 70.96 63.74 67.01 C 62.64 63.24 66.09 58.92 70.05 59.53 C 61.45 54.08 48.86 59.37 46.03 68.99 Z" />
<path fill="#000000" opacity="1.00" d=" M 104.10 63.04 C 109.68 56.14 119.59 53.22 128.02 56.03 C 139.76 59.43 146.72 73.48 142.16 84.87 C 139.16 93.60 130.22 99.76 121.01 99.53 C 111.62 99.57 102.73 92.97 100.03 83.99 C 97.74 76.89 99.27 68.74 104.10 63.04 M 107.10 63.00 C 101.68 68.83 101.31 78.51 106.28 84.73 C 111.76 92.25 123.60 93.57 130.59 87.44 C 138.42 81.35 138.79 68.30 131.20 61.86 C 133.44 65.01 132.23 69.92 128.52 71.29 C 124.83 72.98 120.16 70.07 120.01 66.04 C 119.51 61.70 124.20 58.30 128.25 59.60 C 121.52 55.66 112.23 57.09 107.10 63.00 Z" />
<path fill="#000000" opacity="1.00" d=" M 235.66 118.91 C 236.08 116.88 237.56 114.65 239.90 114.75 C 243.31 114.88 246.31 117.04 248.50 119.53 C 255.37 132.14 255.93 147.92 250.05 161.03 C 245.67 170.86 238.40 179.91 228.78 184.88 C 230.62 176.43 229.94 167.73 229.21 159.19 C 228.94 157.03 229.42 154.53 227.76 152.82 C 232.69 149.15 234.54 142.92 235.15 137.07 C 235.78 131.05 236.36 124.95 235.66 118.91 Z" />
</g>
<g id="#ffdd58ff">
<path fill="#ffdd58" opacity="1.00" d=" M 107.10 63.00 C 112.23 57.09 121.52 55.66 128.25 59.60 C 124.20 58.30 119.51 61.70 120.01 66.04 C 120.16 70.07 124.83 72.98 128.52 71.29 C 132.23 69.92 133.44 65.01 131.20 61.86 C 138.79 68.30 138.42 81.35 130.59 87.44 C 123.60 93.57 111.76 92.25 106.28 84.73 C 101.31 78.51 101.68 68.83 107.10 63.00 Z" />
<path fill="#ffdd58" opacity="1.00" d=" M 46.03 68.99 C 48.86 59.37 61.45 54.08 70.05 59.53 C 66.09 58.92 62.64 63.24 63.74 67.01 C 64.50 70.96 69.55 73.07 72.91 70.88 C 75.13 69.70 75.85 67.12 76.25 64.82 C 79.80 70.10 80.12 77.39 76.85 82.88 C 73.07 89.64 64.36 93.04 57.00 90.56 C 48.21 88.00 42.85 77.62 46.03 68.99 Z" />
</g>
<g id="#0000004c">
<path fill="#000000" opacity="0.30" d=" M 180.38 228.28 C 182.17 228.17 183.97 228.08 185.76 228.03 C 199.10 230.70 213.22 230.79 225.94 236.19 C 227.78 236.94 230.77 238.89 229.24 241.17 C 226.10 244.37 221.43 245.27 217.28 246.46 C 195.51 251.27 173.17 252.49 150.98 253.60 C 145.82 253.33 140.54 254.50 135.47 253.34 C 140.65 251.50 145.51 248.54 151.05 247.87 C 159.06 246.59 167.82 246.55 174.73 241.74 C 179.09 238.80 180.89 233.36 180.38 228.28 Z" />
<path fill="#000000" opacity="0.30" d=" M 9.57 237.60 C 11.96 235.79 14.95 235.04 17.55 233.59 C 23.77 237.00 31.10 238.23 38.11 237.20 C 37.94 242.28 40.37 247.58 45.27 249.58 C 42.93 250.56 40.41 249.92 38.00 249.64 C 30.59 248.52 23.14 247.39 15.96 245.19 C 13.38 244.26 10.60 243.34 8.68 241.31 C 7.61 240.08 8.41 238.40 9.57 237.60 Z" />
<path fill="#000000" opacity="0.30" d=" M 108.42 246.89 C 115.62 248.25 121.66 253.32 129.11 253.88 C 120.69 253.94 112.25 254.48 103.85 253.80 C 106.22 252.17 107.77 249.67 108.42 246.89 Z" />
</g>
</svg>
