<?xml version="1.0" encoding="UTF-8" ?>
<!DOCTYPE svg PUBLIC "-//W3C//DTD SVG 1.1//EN" "http://www.w3.org/Graphics/SVG/1.1/DTD/svg11.dtd">
<svg width="256pt" height="256pt" viewBox="0 0 256 256" version="1.1" xmlns="http://www.w3.org/2000/svg">
<g id="#ab9e89ff">
<path fill="#ab9e89" opacity="1.00" d=" M 179.23 1.27 C 182.12 0.09 185.92 0.36 187.89 3.04 C 190.40 6.43 190.66 10.86 190.81 14.93 C 190.83 23.79 189.33 32.67 186.40 41.03 C 185.22 42.26 184.02 44.03 182.08 43.84 C 179.44 42.69 177.69 40.22 175.82 38.13 C 170.55 31.73 166.10 24.52 163.48 16.63 C 162.28 14.17 165.09 12.41 166.40 10.72 C 170.26 7.08 174.22 3.24 179.23 1.27 M 167.49 17.28 C 168.34 19.86 169.61 22.28 170.59 24.81 C 172.46 29.74 175.86 33.99 179.96 37.25 C 180.48 37.94 181.02 38.61 181.59 39.26 C 184.38 31.84 185.70 23.91 185.81 16.00 C 185.73 12.61 185.70 8.96 183.91 5.96 C 183.44 5.89 182.51 5.74 182.05 5.67 C 176.09 7.70 171.37 12.49 167.49 17.28 Z" />
<path fill="#ab9e89" opacity="1.00" d=" M 72.72 13.01 C 73.21 9.01 77.06 6.18 81.00 6.36 C 87.56 6.51 93.48 9.76 99.16 12.72 C 99.52 13.12 100.24 13.93 100.60 14.33 C 102.22 20.84 101.05 27.77 98.92 34.05 C 97.79 33.94 96.66 33.81 95.53 33.65 C 95.68 33.09 95.97 31.95 96.12 31.38 C 97.25 27.38 98.40 23.18 97.53 19.01 C 97.45 17.79 96.37 17.13 95.47 16.51 C 90.20 13.28 84.10 10.87 77.81 11.72 C 76.88 18.57 79.27 25.11 81.23 31.54 C 79.57 31.47 77.91 31.47 76.24 31.48 C 74.13 25.59 71.80 19.37 72.72 13.01 Z" />
<path fill="#ab9e89" opacity="1.00" d=" M 88.67 56.09 C 117.43 54.31 146.16 52.01 174.92 50.11 C 177.94 49.93 180.96 49.65 183.95 49.15 C 187.89 57.29 187.17 66.61 189.75 75.11 C 190.03 76.81 193.23 77.13 193.19 74.96 C 192.99 69.18 191.22 63.54 191.24 57.72 L 191.72 59.62 C 192.17 59.76 193.06 60.05 193.50 60.19 C 193.42 61.50 191.77 62.50 192.70 63.95 C 195.07 77.05 197.68 90.29 203.47 102.39 C 212.38 121.13 222.96 139.48 227.11 160.04 C 229.78 173.79 230.61 188.24 227.14 201.93 C 224.61 211.98 219.12 221.31 211.28 228.13 C 200.96 237.19 187.74 242.14 174.51 245.15 C 174.91 247.09 175.28 249.05 175.47 251.03 C 170.50 256.80 161.31 255.61 155.23 252.31 C 153.77 251.39 152.34 250.41 150.92 249.44 C 142.69 250.16 134.42 250.07 126.18 249.71 C 124.66 250.71 123.15 251.74 121.57 252.65 C 115.64 255.64 107.73 256.26 102.30 251.88 C 102.13 249.80 102.29 247.71 102.46 245.63 C 94.14 243.07 86.02 239.85 78.36 235.69 C 74.69 241.17 69.64 245.72 63.59 248.42 C 50.04 254.25 32.87 249.88 24.26 237.76 C 15.09 225.77 16.24 207.48 26.63 196.58 C 31.69 190.94 38.80 187.43 46.24 186.22 C 44.98 165.06 51.42 144.33 60.50 125.46 C 64.84 115.71 70.56 106.60 74.22 96.55 C 75.13 93.93 75.89 91.26 76.68 88.60 C 76.74 88.42 76.85 88.07 76.90 87.89 C 77.95 88.76 78.99 89.62 80.04 90.49 C 81.37 87.82 82.40 84.99 82.84 82.03 C 84.10 73.59 86.14 65.29 87.14 56.81 C 87.52 56.63 88.29 56.27 88.67 56.09 M 90.06 64.07 C 90.97 67.28 93.94 69.38 96.92 70.51 C 97.15 74.52 99.14 78.23 102.31 80.67 C 107.87 85.14 115.63 87.97 122.66 85.66 C 125.48 84.90 126.55 82.03 127.54 79.60 C 128.52 80.31 129.80 79.26 130.88 79.21 C 131.55 84.92 126.41 89.70 121.00 90.21 C 110.20 91.65 98.64 85.81 93.70 76.01 C 89.66 78.33 83.89 80.23 83.47 85.67 C 81.33 97.60 75.81 108.46 70.29 119.12 C 73.78 121.77 78.20 123.72 80.34 127.75 C 81.31 129.42 79.88 131.89 77.94 131.80 C 73.61 131.90 69.96 129.14 66.28 127.23 C 64.88 130.20 63.52 133.20 62.25 136.24 C 66.42 138.86 71.16 140.80 74.58 144.47 C 75.98 145.80 76.33 148.27 74.81 149.65 C 69.09 150.56 63.68 147.67 58.96 144.79 C 58.06 147.90 55.94 151.14 56.48 154.38 C 61.19 158.04 67.22 160.26 70.79 165.26 C 72.54 167.42 70.41 170.25 67.93 170.27 C 62.67 170.69 58.08 167.57 53.55 165.36 C 51.33 177.04 51.49 189.32 55.05 200.72 C 63.74 200.37 73.13 203.47 78.09 211.01 C 82.01 216.47 82.07 223.64 80.15 229.86 C 88.43 234.32 97.16 238.08 106.31 240.33 C 100.46 228.86 90.41 219.05 88.92 205.73 C 91.18 205.38 92.96 206.41 93.37 208.73 C 96.82 220.15 105.09 229.09 110.55 239.49 C 111.18 240.88 112.03 242.30 111.93 243.88 C 111.12 245.67 109.92 247.25 108.83 248.89 C 113.07 249.10 117.55 248.67 121.01 245.96 C 125.10 243.10 125.67 237.66 125.88 233.07 C 126.24 224.81 123.88 216.78 120.69 209.26 C 119.57 207.38 121.64 206.17 122.96 205.29 C 129.54 216.68 131.88 230.88 127.94 243.58 C 135.20 244.28 142.54 244.63 149.79 243.48 C 148.57 237.75 147.04 231.94 147.65 226.04 C 148.36 218.82 150.47 211.64 154.36 205.48 C 155.99 206.20 157.87 207.70 156.53 209.64 C 152.37 219.02 150.06 229.64 152.34 239.83 C 153.92 246.73 162.09 249.94 168.54 248.61 C 167.43 246.98 166.10 245.47 165.34 243.64 C 165.53 241.73 166.52 240.03 167.36 238.36 C 172.08 229.87 178.44 222.30 182.27 213.32 C 183.74 210.30 183.77 205.15 188.30 205.48 C 187.28 218.60 177.30 228.28 171.51 239.44 C 177.91 238.64 184.00 236.39 189.99 234.09 C 201.35 229.51 211.92 221.72 217.50 210.57 C 224.63 196.48 224.27 180.00 221.91 164.78 C 217.17 167.12 212.46 170.27 206.99 170.35 C 204.38 170.51 201.81 167.98 203.38 165.41 C 207.20 159.99 213.89 157.83 218.80 153.64 C 219.10 150.23 217.08 147.08 216.06 143.91 C 211.75 147.26 206.62 150.02 201.02 149.86 C 198.25 150.24 197.84 146.02 199.63 144.58 C 203.25 140.64 208.37 138.61 212.84 135.83 C 211.53 132.82 210.18 129.84 208.77 126.88 C 204.52 128.99 200.32 132.38 195.29 131.71 C 193.86 130.78 193.25 128.70 194.25 127.25 C 196.66 123.34 201.19 121.63 204.51 118.67 C 203.51 115.50 201.74 112.67 200.31 109.69 C 194.68 98.86 191.12 87.12 188.67 75.20 C 185.44 73.22 181.93 71.78 178.32 70.70 C 178.08 77.35 173.87 83.05 168.22 86.26 C 162.19 89.95 154.50 91.77 147.65 89.41 C 143.49 87.96 140.48 83.61 141.15 79.15 C 142.21 79.22 143.46 80.31 144.43 79.61 C 145.32 81.60 145.85 84.13 148.02 85.16 C 152.60 87.47 158.08 86.48 162.64 84.65 C 168.37 82.25 174.11 77.49 174.21 70.76 C 179.00 69.61 183.53 65.10 182.19 59.83 C 178.79 57.80 178.20 62.63 177.19 64.77 C 168.43 57.12 153.16 57.56 145.89 66.99 C 139.62 67.24 133.33 67.29 127.09 67.99 C 126.99 67.81 126.80 67.44 126.70 67.26 C 121.60 62.69 115.11 59.21 108.05 59.80 C 103.06 59.59 98.83 62.46 95.02 65.31 C 94.13 63.33 93.96 60.81 92.22 59.36 C 89.20 58.77 89.39 62.15 90.06 64.07 M 25.61 209.63 C 22.67 217.67 23.88 227.11 28.96 234.03 C 34.49 241.88 44.57 246.06 54.05 244.76 C 60.81 244.01 66.79 240.19 71.69 235.68 C 77.79 229.92 79.60 219.51 74.34 212.64 C 68.06 204.42 54.15 201.57 46.41 209.32 C 42.53 212.56 41.18 218.27 43.05 222.95 C 44.66 228.17 50.61 231.54 55.92 230.34 C 59.17 229.61 61.62 226.31 61.33 222.99 C 61.25 220.20 57.92 219.97 55.99 218.90 C 56.05 218.16 56.17 216.69 56.22 215.95 C 58.63 216.05 61.37 215.94 63.15 217.88 C 66.83 221.50 65.56 227.81 62.19 231.21 C 58.15 235.48 51.20 235.43 46.34 232.64 C 38.34 228.55 35.79 217.06 40.80 209.74 C 42.79 206.61 45.98 204.58 49.03 202.60 C 48.42 199.09 47.65 195.60 46.76 192.15 C 37.27 193.79 28.78 200.44 25.61 209.63 Z" />
<path fill="#ab9e89" opacity="1.00" d=" M 115.17 103.09 C 118.99 103.99 121.73 107.26 125.41 108.62 C 125.51 110.10 125.71 111.58 125.95 113.05 C 121.79 111.61 117.73 109.54 114.66 106.34 C 113.68 105.41 114.53 103.94 115.17 103.09 Z" />
<path fill="#ab9e89" opacity="1.00" d=" M 149.82 109.17 C 154.23 107.95 157.41 103.65 162.17 103.80 C 161.29 109.97 154.07 111.83 148.95 113.25 C 149.31 111.90 149.60 110.54 149.82 109.17 Z" />
</g>
<g id="#a75214ff">
<path fill="#a75214" opacity="1.00" d=" M 119.59 5.78 C 130.32 4.33 141.26 4.35 151.97 5.90 C 156.98 6.73 162.25 7.57 166.40 10.72 C 165.09 12.41 162.28 14.17 163.48 16.63 C 166.10 24.52 170.55 31.73 175.82 38.13 C 177.69 40.22 179.44 42.69 182.08 43.84 C 184.02 44.03 185.22 42.26 186.40 41.03 C 188.86 43.82 192.89 41.69 196.05 41.70 C 204.26 41.12 213.00 37.75 217.44 30.43 C 220.87 24.86 223.65 18.04 230.03 15.23 C 238.83 12.43 249.53 20.52 248.10 29.97 C 247.16 39.95 237.70 45.89 229.35 49.52 C 217.79 54.19 205.62 57.50 193.50 60.19 C 193.06 60.05 192.17 59.76 191.72 59.62 L 191.24 57.72 C 191.08 56.80 190.92 55.88 190.75 54.96 C 203.62 51.40 216.85 48.66 229.04 43.05 C 234.54 40.33 240.87 36.62 242.04 30.06 C 242.80 27.23 240.97 24.81 239.57 22.55 C 238.81 26.17 238.47 30.10 236.17 33.15 C 233.23 37.08 228.88 39.68 224.40 41.52 C 216.00 44.94 206.94 46.12 198.05 47.51 C 195.10 47.99 192.09 48.12 189.12 47.75 C 187.20 47.36 185.26 47.52 183.95 49.15 C 180.96 49.65 177.94 49.93 174.92 50.11 C 146.16 52.01 117.43 54.31 88.67 56.09 C 91.82 54.34 94.92 52.49 98.16 50.90 C 105.91 50.47 113.50 48.76 121.20 47.92 C 126.47 48.36 131.65 49.77 136.96 49.63 C 138.96 49.74 139.85 47.65 140.93 46.34 C 152.64 45.50 164.36 44.66 176.11 44.68 C 174.44 42.68 172.75 40.69 171.12 38.65 C 165.65 31.93 161.80 24.09 158.85 15.99 C 159.14 14.72 159.42 13.45 159.71 12.18 C 141.80 8.03 122.27 7.81 105.07 14.94 C 105.13 16.33 105.18 17.73 105.23 19.13 C 105.39 23.89 104.71 28.62 103.74 33.27 C 102.14 33.55 100.54 33.84 98.92 34.05 C 101.05 27.77 102.22 20.84 100.60 14.33 C 100.24 13.93 99.52 13.12 99.16 12.72 C 105.14 8.48 112.47 6.86 119.59 5.78 M 220.94 36.30 C 226.03 34.28 232.48 31.27 232.97 25.04 C 233.34 23.32 230.87 23.09 230.00 22.08 C 226.36 26.40 223.85 31.50 220.94 36.30 Z" />
<path fill="#a75214" opacity="1.00" d=" M 30.52 72.58 C 45.18 64.27 60.91 57.69 77.37 53.98 C 78.42 55.84 79.71 57.55 81.00 59.26 C 61.30 63.60 42.48 71.67 25.58 82.66 C 20.30 86.20 15.00 90.28 12.01 96.04 C 10.51 98.84 10.20 102.91 12.98 105.04 C 17.54 108.34 23.63 107.47 28.86 106.76 C 45.75 103.68 61.48 96.34 76.68 88.60 C 75.89 91.26 75.13 93.93 74.22 96.55 C 60.16 103.50 45.56 109.80 30.06 112.66 C 24.22 113.56 17.93 114.07 12.36 111.68 C 8.11 109.88 4.92 105.60 4.84 100.93 C 4.73 95.62 7.64 90.83 11.06 86.99 C 16.51 80.94 23.57 76.67 30.52 72.58 Z" />
</g>
<g id="#dcd5c6ff">
<path fill="#dcd5c6" opacity="1.00" d=" M 167.49 17.28 C 171.37 12.49 176.09 7.70 182.05 5.67 C 182.51 5.74 183.44 5.89 183.91 5.96 C 185.70 8.96 185.73 12.61 185.81 16.00 C 185.70 23.91 184.38 31.84 181.59 39.26 C 181.02 38.61 180.48 37.94 179.96 37.25 C 180.85 30.90 182.86 24.52 181.80 18.06 C 181.66 16.85 180.74 16.00 179.85 15.29 C 175.73 16.91 170.79 19.87 170.59 24.81 C 169.61 22.28 168.34 19.86 167.49 17.28 Z" />
<path fill="#dcd5c6" opacity="1.00" d=" M 77.81 11.72 C 84.10 10.87 90.20 13.28 95.47 16.51 C 96.37 17.13 97.45 17.79 97.53 19.01 C 98.40 23.18 97.25 27.38 96.12 31.38 C 96.09 28.03 97.18 23.20 93.04 21.86 C 90.26 20.70 85.32 17.38 83.44 21.34 C 83.41 25.16 85.30 28.68 86.42 32.26 C 84.69 32.00 82.97 31.71 81.23 31.54 C 79.27 25.11 76.88 18.57 77.81 11.72 Z" />
<path fill="#dcd5c6" opacity="1.00" d=" M 127.09 67.99 C 133.33 67.29 139.62 67.24 145.89 66.99 L 145.08 68.15 C 143.47 70.52 142.27 73.15 141.54 75.92 C 141.37 76.99 141.24 78.07 141.15 79.15 C 140.48 83.61 143.49 87.96 147.65 89.41 C 154.50 91.77 162.19 89.95 168.22 86.26 C 173.87 83.05 178.08 77.35 178.32 70.70 C 181.93 71.78 185.44 73.22 188.67 75.20 C 191.12 87.12 194.68 98.86 200.31 109.69 C 201.74 112.67 203.51 115.50 204.51 118.67 C 201.19 121.63 196.66 123.34 194.25 127.25 C 193.25 128.70 193.86 130.78 195.29 131.71 C 200.32 132.38 204.52 128.99 208.77 126.88 C 210.18 129.84 211.53 132.82 212.84 135.83 C 208.37 138.61 203.25 140.64 199.63 144.58 C 197.84 146.02 198.25 150.24 201.02 149.86 C 206.62 150.02 211.75 147.26 216.06 143.91 C 217.08 147.08 219.10 150.23 218.80 153.64 C 213.89 157.83 207.20 159.99 203.38 165.41 C 201.81 167.98 204.38 170.51 206.99 170.35 C 212.46 170.27 217.17 167.12 221.91 164.78 C 224.27 180.00 224.63 196.48 217.50 210.57 C 211.92 221.72 201.35 229.51 189.99 234.09 C 184.00 236.39 177.91 238.64 171.51 239.44 C 177.30 228.28 187.28 218.60 188.30 205.48 C 183.77 205.15 183.74 210.30 182.27 213.32 C 178.44 222.30 172.08 229.87 167.36 238.36 C 166.52 240.03 165.53 241.73 165.34 243.64 C 166.10 245.47 167.43 246.98 168.54 248.61 C 162.09 249.94 153.92 246.73 152.34 239.83 C 150.06 229.64 152.37 219.02 156.53 209.64 C 157.87 207.70 155.99 206.20 154.36 205.48 C 161.00 195.93 168.36 186.62 172.48 175.61 C 174.74 169.57 175.06 162.62 172.35 156.67 C 169.40 149.72 163.34 144.54 156.65 141.33 C 147.41 136.96 136.49 135.54 126.66 138.74 C 119.05 141.12 112.67 146.55 108.12 152.99 C 103.68 159.37 102.83 167.68 104.97 175.05 C 108.08 186.61 116.17 195.76 122.96 205.29 C 121.64 206.17 119.57 207.38 120.69 209.26 C 123.88 216.78 126.24 224.81 125.88 233.07 C 125.67 237.66 125.10 243.10 121.01 245.96 C 117.55 248.67 113.07 249.10 108.83 248.89 C 109.92 247.25 111.12 245.67 111.93 243.88 C 112.03 242.30 111.18 240.88 110.55 239.49 C 105.09 229.09 96.82 220.15 93.37 208.73 C 92.96 206.41 91.18 205.38 88.92 205.73 C 90.41 219.05 100.46 228.86 106.31 240.33 C 97.16 238.08 88.43 234.32 80.15 229.86 C 82.07 223.64 82.01 216.47 78.09 211.01 C 73.13 203.47 63.74 200.37 55.05 200.72 C 51.49 189.32 51.33 177.04 53.55 165.36 C 58.08 167.57 62.67 170.69 67.93 170.27 C 70.41 170.25 72.54 167.42 70.79 165.26 C 67.22 160.26 61.19 158.04 56.48 154.38 C 55.94 151.14 58.06 147.90 58.96 144.79 C 63.68 147.67 69.09 150.56 74.81 149.65 C 76.33 148.27 75.98 145.80 74.58 144.47 C 71.16 140.80 66.42 138.86 62.25 136.24 C 63.52 133.20 64.88 130.20 66.28 127.23 C 69.96 129.14 73.61 131.90 77.94 131.80 C 79.88 131.89 81.31 129.42 80.34 127.75 C 78.20 123.72 73.78 121.77 70.29 119.12 C 75.81 108.46 81.33 97.60 83.47 85.67 C 83.89 80.23 89.66 78.33 93.70 76.01 C 98.64 85.81 110.20 91.65 121.00 90.21 C 126.41 89.70 131.55 84.92 130.88 79.21 C 130.80 78.12 130.69 77.03 130.54 75.96 C 129.79 73.14 128.49 70.53 127.09 67.99 M 131.41 91.47 C 128.91 91.87 126.49 94.41 128.15 96.96 C 131.80 103.52 142.50 103.83 146.69 97.66 C 148.11 95.77 147.33 92.68 144.98 92.01 C 140.67 90.48 135.84 90.45 131.41 91.47 M 92.10 94.90 C 92.35 95.43 92.84 96.50 93.09 97.03 C 101.93 95.42 111.03 94.95 119.89 96.71 C 120.22 95.83 120.56 94.95 120.90 94.07 C 111.50 91.80 101.27 91.57 92.10 94.90 M 161.95 92.57 C 159.04 92.93 155.92 92.81 153.26 94.19 C 152.65 96.13 154.68 96.95 156.23 96.40 C 164.41 94.86 172.75 95.63 180.90 97.04 C 181.15 96.52 181.66 95.49 181.92 94.97 C 175.63 92.39 168.65 92.18 161.95 92.57 M 93.07 105.17 C 93.40 106.05 93.73 106.93 94.06 107.81 C 99.22 105.51 104.43 103.14 110.04 102.19 C 113.29 101.58 116.64 101.52 119.86 100.69 C 120.95 100.13 120.22 98.92 120.24 98.02 C 110.77 98.24 101.37 100.58 93.07 105.17 M 153.50 98.32 C 153.44 98.94 153.32 100.16 153.26 100.78 C 159.17 101.57 165.23 101.98 170.86 104.10 C 173.92 105.20 176.79 106.78 179.93 107.67 C 180.76 106.67 181.04 105.20 179.63 104.56 C 171.66 100.33 162.56 97.93 153.50 98.32 M 115.17 103.09 C 114.53 103.94 113.68 105.41 114.66 106.34 C 117.73 109.54 121.79 111.61 125.95 113.05 C 129.00 116.89 133.53 119.05 137.45 121.84 C 141.40 119.15 145.89 117.03 148.95 113.25 C 154.07 111.83 161.29 109.97 162.17 103.80 C 157.41 103.65 154.23 107.95 149.82 109.17 C 148.94 103.39 141.15 103.39 137.07 105.73 C 133.35 103.44 126.54 103.48 125.41 108.62 C 121.73 107.26 118.99 103.99 115.17 103.09 Z" />
<path fill="#dcd5c6" opacity="1.00" d=" M 25.61 209.63 C 28.78 200.44 37.27 193.79 46.76 192.15 C 47.65 195.60 48.42 199.09 49.03 202.60 C 45.98 204.58 42.79 206.61 40.80 209.74 C 35.79 217.06 38.34 228.55 46.34 232.64 C 51.20 235.43 58.15 235.48 62.19 231.21 C 65.56 227.81 66.83 221.50 63.15 217.88 C 61.37 215.94 58.63 216.05 56.22 215.95 C 56.17 216.69 56.05 218.16 55.99 218.90 C 57.92 219.97 61.25 220.20 61.33 222.99 C 61.62 226.31 59.17 229.61 55.92 230.34 C 50.61 231.54 44.66 228.17 43.05 222.95 C 41.18 218.27 42.53 212.56 46.41 209.32 C 54.15 201.57 68.06 204.42 74.34 212.64 C 79.60 219.51 77.79 229.92 71.69 235.68 C 66.79 240.19 60.81 244.01 54.05 244.76 C 44.57 246.06 34.49 241.88 28.96 234.03 C 23.88 227.11 22.67 217.67 25.61 209.63 Z" />
</g>
<g id="#feb761ff">
<path fill="#feb761" opacity="1.00" d=" M 105.07 14.94 C 122.27 7.81 141.80 8.03 159.71 12.18 C 159.42 13.45 159.14 14.72 158.85 15.99 C 141.21 11.95 122.07 11.88 105.23 19.13 C 105.18 17.73 105.13 16.33 105.07 14.94 Z" />
<path fill="#feb761" opacity="1.00" d=" M 220.94 36.30 C 223.85 31.50 226.36 26.40 230.00 22.08 C 230.87 23.09 233.34 23.32 232.97 25.04 C 232.48 31.27 226.03 34.28 220.94 36.30 Z" />
<path fill="#feb761" opacity="1.00" d=" M 140.42 40.04 C 150.63 39.12 160.88 38.91 171.12 38.65 C 172.75 40.69 174.44 42.68 176.11 44.68 C 164.36 44.66 152.64 45.50 140.93 46.34 C 140.84 44.23 140.66 42.13 140.42 40.04 Z" />
<path fill="#feb761" opacity="1.00" d=" M 101.76 49.15 C 106.37 50.00 111.07 49.19 115.27 47.17 C 117.25 47.41 119.22 47.67 121.20 47.92 C 113.50 48.76 105.91 50.47 98.16 50.90 C 99.35 50.30 100.55 49.72 101.76 49.15 Z" />
</g>
<g id="#f68634ff">
<path fill="#f68634" opacity="1.00" d=" M 105.23 19.13 C 122.07 11.88 141.21 11.95 158.85 15.99 C 161.80 24.09 165.65 31.93 171.12 38.65 C 160.88 38.91 150.63 39.12 140.42 40.04 C 139.79 35.70 139.40 31.33 138.60 27.03 C 138.23 24.39 135.57 22.52 133.04 22.37 C 126.22 24.60 120.55 29.32 113.93 32.03 C 110.60 32.85 107.09 32.47 103.74 33.27 C 104.71 28.62 105.39 23.89 105.23 19.13 Z" />
<path fill="#f68634" opacity="1.00" d=" M 239.57 22.55 C 240.97 24.81 242.80 27.23 242.04 30.06 C 240.87 36.62 234.54 40.33 229.04 43.05 C 216.85 48.66 203.62 51.40 190.75 54.96 C 190.27 52.54 189.68 50.15 189.12 47.75 C 192.09 48.12 195.10 47.99 198.05 47.51 C 206.94 46.12 216.00 44.94 224.40 41.52 C 228.88 39.68 233.23 37.08 236.17 33.15 C 238.47 30.10 238.81 26.17 239.57 22.55 Z" />
<path fill="#f68634" opacity="1.00" d=" M 25.58 82.66 C 42.48 71.67 61.30 63.60 81.00 59.26 L 82.48 58.79 C 80.87 68.53 79.48 78.34 76.90 87.89 C 76.85 88.07 76.74 88.42 76.68 88.60 C 61.48 96.34 45.75 103.68 28.86 106.76 C 23.63 107.47 17.54 108.34 12.98 105.04 C 10.20 102.91 10.51 98.84 12.01 96.04 C 15.00 90.28 20.30 86.20 25.58 82.66 Z" />
</g>
<g id="#f6f1e7ff">
<path fill="#f6f1e7" opacity="1.00" d=" M 170.59 24.81 C 170.79 19.87 175.73 16.91 179.85 15.29 C 180.74 16.00 181.66 16.85 181.80 18.06 C 182.86 24.52 180.85 30.90 179.96 37.25 C 175.86 33.99 172.46 29.74 170.59 24.81 Z" />
<path fill="#f6f1e7" opacity="1.00" d=" M 83.44 21.34 C 85.32 17.38 90.26 20.70 93.04 21.86 C 97.18 23.20 96.09 28.03 96.12 31.38 C 95.97 31.95 95.68 33.09 95.53 33.65 C 92.49 33.20 89.46 32.74 86.42 32.26 C 85.30 28.68 83.41 25.16 83.44 21.34 Z" />
<path fill="#f6f1e7" opacity="1.00" d=" M 92.10 94.90 C 101.27 91.57 111.50 91.80 120.90 94.07 C 120.56 94.95 120.22 95.83 119.89 96.71 C 111.03 94.95 101.93 95.42 93.09 97.03 C 92.84 96.50 92.35 95.43 92.10 94.90 Z" />
<path fill="#f6f1e7" opacity="1.00" d=" M 161.95 92.57 C 168.65 92.18 175.63 92.39 181.92 94.97 C 181.66 95.49 181.15 96.52 180.90 97.04 C 172.75 95.63 164.41 94.86 156.23 96.40 C 154.68 96.95 152.65 96.13 153.26 94.19 C 155.92 92.81 159.04 92.93 161.95 92.57 Z" />
<path fill="#f6f1e7" opacity="1.00" d=" M 93.07 105.17 C 101.37 100.58 110.77 98.24 120.24 98.02 C 120.22 98.92 120.95 100.13 119.86 100.69 C 116.64 101.52 113.29 101.58 110.04 102.19 C 104.43 103.14 99.22 105.51 94.06 107.81 C 93.73 106.93 93.40 106.05 93.07 105.17 Z" />
<path fill="#f6f1e7" opacity="1.00" d=" M 153.50 98.32 C 162.56 97.93 171.66 100.33 179.63 104.56 C 181.04 105.20 180.76 106.67 179.93 107.67 C 176.79 106.78 173.92 105.20 170.86 104.10 C 165.23 101.98 159.17 101.57 153.26 100.78 C 153.32 100.16 153.44 98.94 153.50 98.32 Z" />
<path fill="#f6f1e7" opacity="1.00" d=" M 126.66 138.74 C 136.49 135.54 147.41 136.96 156.65 141.33 C 163.34 144.54 169.40 149.72 172.35 156.67 C 175.06 162.62 174.74 169.57 172.48 175.61 C 168.36 186.62 161.00 195.93 154.36 205.48 C 150.47 211.64 148.36 218.82 147.65 226.04 C 147.04 231.94 148.57 237.75 149.79 243.48 C 142.54 244.63 135.20 244.28 127.94 243.58 C 131.88 230.88 129.54 216.68 122.96 205.29 C 116.17 195.76 108.08 186.61 104.97 175.05 C 102.83 167.68 103.68 159.37 108.12 152.99 C 112.67 146.55 119.05 141.12 126.66 138.74 Z" />
</g>
<g id="#940a40ff">
<path fill="#940a40" opacity="1.00" d=" M 113.93 32.03 C 120.55 29.32 126.22 24.60 133.04 22.37 C 135.57 22.52 138.23 24.39 138.60 27.03 C 139.40 31.33 139.79 35.70 140.42 40.04 C 140.66 42.13 140.84 44.23 140.93 46.34 C 139.85 47.65 138.96 49.74 136.96 49.63 C 131.65 49.77 126.47 48.36 121.20 47.92 C 119.22 47.67 117.25 47.41 115.27 47.17 C 111.07 49.19 106.37 50.00 101.76 49.15 C 100.55 49.72 99.35 50.30 98.16 50.90 C 94.92 52.49 91.82 54.34 88.67 56.09 C 88.29 56.27 87.52 56.63 87.14 56.81 C 85.60 57.51 84.06 58.20 82.48 58.79 L 81.00 59.26 C 79.71 57.55 78.42 55.84 77.37 53.98 C 76.22 48.66 74.99 43.35 73.87 38.02 C 72.99 35.50 75.21 33.55 76.24 31.48 C 77.91 31.47 79.57 31.47 81.23 31.54 C 82.97 31.71 84.69 32.00 86.42 32.26 C 89.46 32.74 92.49 33.20 95.53 33.65 C 96.66 33.81 97.79 33.94 98.92 34.05 C 100.54 33.84 102.14 33.55 103.74 33.27 C 107.09 32.47 110.60 32.85 113.93 32.03 M 118.35 34.92 C 117.80 35.06 116.71 35.34 116.16 35.48 C 116.19 38.05 116.71 40.59 117.16 43.11 C 123.68 44.38 130.29 45.07 136.89 45.75 C 136.64 41.41 136.17 37.08 135.16 32.85 C 134.84 30.83 135.16 26.76 132.11 27.14 C 127.14 28.90 122.56 31.79 118.35 34.92 M 78.54 35.53 C 78.53 38.28 78.72 41.02 79.08 43.75 C 80.00 47.49 80.94 51.23 81.95 54.94 C 87.57 51.78 93.36 48.96 99.04 45.92 C 98.71 43.29 98.36 40.66 97.99 38.03 C 95.26 37.54 92.49 37.26 89.73 37.09 C 86.08 36.11 82.30 35.71 78.54 35.53 M 108.07 36.30 C 105.95 36.92 103.92 37.83 101.98 38.88 C 102.76 41.03 102.12 44.40 104.60 45.42 C 107.34 45.80 110.36 45.30 112.69 43.77 C 113.42 40.53 112.42 35.45 108.07 36.30 Z" />
</g>
<g id="#fc4a74ff">
<path fill="#fc4a74" opacity="1.00" d=" M 118.35 34.92 C 122.56 31.79 127.14 28.90 132.11 27.14 C 135.16 26.76 134.84 30.83 135.16 32.85 C 135.18 33.34 135.23 34.31 135.26 34.80 C 128.95 33.32 122.83 35.59 116.78 37.06 C 117.17 36.52 117.95 35.45 118.35 34.92 Z" />
<path fill="#fc4a74" opacity="1.00" d=" M 78.54 35.53 C 82.30 35.71 86.08 36.11 89.73 37.09 C 92.50 37.88 95.12 39.12 97.61 40.56 C 91.33 40.91 84.85 40.89 79.08 43.75 C 78.72 41.02 78.53 38.28 78.54 35.53 Z" />
<path fill="#fc4a74" opacity="1.00" d=" M 101.98 38.88 C 103.92 37.83 105.95 36.92 108.07 36.30 C 109.25 37.24 111.45 37.86 110.81 39.80 C 108.27 42.24 103.62 42.53 101.98 38.88 Z" />
<path fill="#fc4a74" opacity="1.00" d=" M 134.35 114.45 C 136.74 113.47 139.71 113.58 141.79 115.22 C 142.02 118.37 137.25 118.13 135.11 117.62 C 133.22 117.68 131.99 114.78 134.35 114.45 Z" />
</g>
<g id="#c5023cff">
<path fill="#c5023c" opacity="1.00" d=" M 135.16 32.85 C 136.17 37.08 136.64 41.41 136.89 45.75 C 130.29 45.07 123.68 44.38 117.16 43.11 C 116.71 40.59 116.19 38.05 116.16 35.48 C 116.71 35.34 117.80 35.06 118.35 34.92 C 117.95 35.45 117.17 36.52 116.78 37.06 C 122.83 35.59 128.95 33.32 135.26 34.80 C 135.23 34.31 135.18 33.34 135.16 32.85 Z" />
<path fill="#c5023c" opacity="1.00" d=" M 108.07 36.30 C 112.42 35.45 113.42 40.53 112.69 43.77 C 110.36 45.30 107.34 45.80 104.60 45.42 C 102.12 44.40 102.76 41.03 101.98 38.88 C 103.62 42.53 108.27 42.24 110.81 39.80 C 111.45 37.86 109.25 37.24 108.07 36.30 Z" />
<path fill="#c5023c" opacity="1.00" d=" M 89.73 37.09 C 92.49 37.26 95.26 37.54 97.99 38.03 C 98.36 40.66 98.71 43.29 99.04 45.92 C 93.36 48.96 87.57 51.78 81.95 54.94 C 80.94 51.23 80.00 47.49 79.08 43.75 C 84.85 40.89 91.33 40.91 97.61 40.56 C 95.12 39.12 92.50 37.88 89.73 37.09 Z" />
<path fill="#c5023c" opacity="1.00" d=" M 125.41 108.62 C 126.54 103.48 133.35 103.44 137.07 105.73 C 141.15 103.39 148.94 103.39 149.82 109.17 C 149.60 110.54 149.31 111.90 148.95 113.25 C 145.89 117.03 141.40 119.15 137.45 121.84 C 133.53 119.05 129.00 116.89 125.95 113.05 C 125.71 111.58 125.51 110.10 125.41 108.62 M 134.35 114.45 C 131.99 114.78 133.22 117.68 135.11 117.62 C 137.25 118.13 142.02 118.37 141.79 115.22 C 139.71 113.58 136.74 113.47 134.35 114.45 Z" />
</g>
<g id="#7e7059ff">
<path fill="#7e7059" opacity="1.00" d=" M 183.95 49.15 C 185.26 47.52 187.20 47.36 189.12 47.75 C 189.68 50.15 190.27 52.54 190.75 54.96 C 190.92 55.88 191.08 56.80 191.24 57.72 C 191.22 63.54 192.99 69.18 193.19 74.96 C 193.23 77.13 190.03 76.81 189.75 75.11 C 187.17 66.61 187.89 57.29 183.95 49.15 Z" />
<path fill="#7e7059" opacity="1.00" d=" M 82.48 58.79 C 84.06 58.20 85.60 57.51 87.14 56.81 C 86.14 65.29 84.10 73.59 82.84 82.03 C 82.40 84.99 81.37 87.82 80.04 90.49 C 78.99 89.62 77.95 88.76 76.90 87.89 C 79.48 78.34 80.87 68.53 82.48 58.79 Z" />
</g>
<g id="#3e6cb4ff">
<path fill="#3e6cb4" opacity="1.00" d=" M 90.06 64.07 C 89.39 62.15 89.20 58.77 92.22 59.36 C 93.96 60.81 94.13 63.33 95.02 65.31 C 98.83 62.46 103.06 59.59 108.05 59.80 C 115.11 59.21 121.60 62.69 126.70 67.26 C 125.98 68.40 126.03 70.59 124.28 70.60 C 120.57 68.38 117.42 64.92 112.95 64.24 C 108.35 63.07 103.64 64.39 99.58 66.61 C 106.34 68.92 113.66 68.41 120.45 70.56 C 124.13 71.69 127.32 73.92 130.54 75.96 C 130.69 77.03 130.80 78.12 130.88 79.21 C 129.80 79.26 128.52 80.31 127.54 79.60 C 124.17 76.57 120.18 74.23 115.63 73.59 C 112.22 72.95 108.78 72.57 105.35 72.14 C 102.51 71.78 99.69 71.25 96.92 70.51 C 93.94 69.38 90.97 67.28 90.06 64.07 Z" />
<path fill="#3e6cb4" opacity="1.00" d=" M 145.89 66.99 C 153.16 57.56 168.43 57.12 177.19 64.77 C 178.20 62.63 178.79 57.80 182.19 59.83 C 183.53 65.10 179.00 69.61 174.21 70.76 C 171.32 71.50 168.35 71.90 165.40 72.28 C 161.98 72.71 158.55 73.14 155.18 73.85 C 151.05 74.57 147.59 76.99 144.43 79.61 C 143.46 80.31 142.21 79.22 141.15 79.15 C 141.24 78.07 141.37 76.99 141.54 75.92 C 150.72 68.89 162.60 68.38 173.64 67.55 C 172.09 65.97 170.64 64.05 168.38 63.49 C 162.16 61.78 155.60 63.87 150.52 67.56 C 148.96 68.94 146.92 68.40 145.08 68.15 L 145.89 66.99 Z" />
</g>
<g id="#6b92c7ff">
<path fill="#6b92c7" opacity="1.00" d=" M 150.52 67.56 C 155.60 63.87 162.16 61.78 168.38 63.49 C 170.64 64.05 172.09 65.97 173.64 67.55 C 162.60 68.38 150.72 68.89 141.54 75.92 C 142.27 73.15 143.47 70.52 145.08 68.15 C 146.92 68.40 148.96 68.94 150.52 67.56 Z" />
<path fill="#6b92c7" opacity="1.00" d=" M 99.58 66.61 C 103.64 64.39 108.35 63.07 112.95 64.24 C 117.42 64.92 120.57 68.38 124.28 70.60 C 126.03 70.59 125.98 68.40 126.70 67.26 C 126.80 67.44 126.99 67.81 127.09 67.99 C 128.49 70.53 129.79 73.14 130.54 75.96 C 127.32 73.92 124.13 71.69 120.45 70.56 C 113.66 68.41 106.34 68.92 99.58 66.61 Z" />
</g>
<g id="#ffffffff">
<path fill="#ffffff" opacity="1.00" d=" M 96.92 70.51 C 99.69 71.25 102.51 71.78 105.35 72.14 C 105.89 74.41 106.33 77.45 109.11 77.98 C 112.32 79.02 114.38 76.00 115.63 73.59 C 120.18 74.23 124.17 76.57 127.54 79.60 C 126.55 82.03 125.48 84.90 122.66 85.66 C 115.63 87.97 107.87 85.14 102.31 80.67 C 99.14 78.23 97.15 74.52 96.92 70.51 Z" />
<path fill="#ffffff" opacity="1.00" d=" M 165.40 72.28 C 168.35 71.90 171.32 71.50 174.21 70.76 C 174.11 77.49 168.37 82.25 162.64 84.65 C 158.08 86.48 152.60 87.47 148.02 85.16 C 145.85 84.13 145.32 81.60 144.43 79.61 C 147.59 76.99 151.05 74.57 155.18 73.85 C 156.42 76.00 158.02 78.91 161.02 78.29 C 164.15 78.10 164.95 74.79 165.40 72.28 Z" />
</g>
<g id="#183a6eff">
<path fill="#183a6e" opacity="1.00" d=" M 105.35 72.14 C 108.78 72.57 112.22 72.95 115.63 73.59 C 114.38 76.00 112.32 79.02 109.11 77.98 C 106.33 77.45 105.89 74.41 105.35 72.14 Z" />
<path fill="#183a6e" opacity="1.00" d=" M 155.18 73.85 C 158.55 73.14 161.98 72.71 165.40 72.28 C 164.95 74.79 164.15 78.10 161.02 78.29 C 158.02 78.91 156.42 76.00 155.18 73.85 Z" />
</g>
<g id="#dc1b6cff">
<path fill="#dc1b6c" opacity="1.00" d=" M 131.41 91.47 C 135.84 90.45 140.67 90.48 144.98 92.01 C 147.33 92.68 148.11 95.77 146.69 97.66 C 142.50 103.83 131.80 103.52 128.15 96.96 C 126.49 94.41 128.91 91.87 131.41 91.47 M 132.07 93.02 C 130.88 94.42 132.87 95.48 134.00 95.77 C 137.48 96.80 141.52 96.54 144.36 94.08 C 141.02 91.29 135.81 90.72 132.07 93.02 Z" />
</g>
<g id="#fa99c2ff">
<path fill="#fa99c2" opacity="1.00" d=" M 132.07 93.02 C 135.81 90.72 141.02 91.29 144.36 94.08 C 141.52 96.54 137.48 96.80 134.00 95.77 C 132.87 95.48 130.88 94.42 132.07 93.02 Z" />
</g>
<g id="#0000004c">
<path fill="#000000" opacity="0.30" d=" M 174.51 245.15 C 187.74 242.14 200.96 237.19 211.28 228.13 C 216.82 230.40 223.32 230.92 227.90 235.09 C 229.33 236.18 229.25 238.66 227.85 239.75 C 223.85 243.06 218.63 244.28 213.73 245.61 C 201.18 248.59 188.32 250.07 175.47 251.03 C 175.28 249.05 174.91 247.09 174.51 245.15 Z" />
<path fill="#000000" opacity="0.30" d=" M 78.36 235.69 C 86.02 239.85 94.14 243.07 102.46 245.63 C 102.29 247.71 102.13 249.80 102.30 251.88 C 95.22 252.54 88.11 251.57 81.05 251.13 C 75.22 250.37 69.10 250.77 63.59 248.42 C 69.64 245.72 74.69 241.17 78.36 235.69 Z" />
<path fill="#000000" opacity="0.30" d=" M 121.57 252.65 C 123.15 251.74 124.66 250.71 126.18 249.71 C 134.42 250.07 142.69 250.16 150.92 249.44 C 152.34 250.41 153.77 251.39 155.23 252.31 C 144.03 252.78 132.78 253.22 121.57 252.65 Z" />
</g>
</svg>
