<?xml version="1.0" encoding="UTF-8" standalone="no"?>
<!-- Created with Inkscape (http://www.inkscape.org/) -->

<svg
   xmlns:dc="http://purl.org/dc/elements/1.1/"
   xmlns:cc="http://creativecommons.org/ns#"
   xmlns:rdf="http://www.w3.org/1999/02/22-rdf-syntax-ns#"
   xmlns:svg="http://www.w3.org/2000/svg"
   xmlns="http://www.w3.org/2000/svg"
   xmlns:xlink="http://www.w3.org/1999/xlink"
   xmlns:sodipodi="http://sodipodi.sourceforge.net/DTD/sodipodi-0.dtd"
   xmlns:inkscape="http://www.inkscape.org/namespaces/inkscape"
   id="svg3041"
   version="1.1"
   inkscape:version="0.48.5 r10040"
   width="256"
   height="256"
   sodipodi:docname="cat_bat.png">
  <metadata
     id="metadata3047">
    <rdf:RDF>
      <cc:Work
         rdf:about="">
        <dc:format>image/svg+xml</dc:format>
        <dc:type
           rdf:resource="http://purl.org/dc/dcmitype/StillImage" />
        <dc:title></dc:title>
      </cc:Work>
    </rdf:RDF>
  </metadata>
  <defs
     id="defs3045" />
  <sodipodi:namedview
     pagecolor="#ffffff"
     bordercolor="#666666"
     borderopacity="1"
     objecttolerance="10"
     gridtolerance="10"
     guidetolerance="10"
     inkscape:pageopacity="0"
     inkscape:pageshadow="2"
     inkscape:window-width="640"
     inkscape:window-height="480"
     id="namedview3043"
     showgrid="false"
     inkscape:zoom="0.921875"
     inkscape:cx="128"
     inkscape:cy="128"
     inkscape:window-x="0"
     inkscape:window-y="0"
     inkscape:window-maximized="0"
     inkscape:current-layer="svg3041" />
  <g
     id="g3051">
    <path
       style="fill:#f7d654"
       d="m 40.262566,242.54206 c -7.1149,-3.3125 -14.539423,-10.49101 -17.40501,-16.8283 C 20.792788,221.1475 20.512608,219.0718 20.601523,209 c 0.09187,-10.40677 0.495891,-12.83029 4.25,-25.49369 C 27.133185,175.80978 29,168.27228 29,166.75631 29,164.30855 28.633107,164 25.722506,164 c -4.32865,0 -7.3093,2.21794 -8.718369,6.48746 C 15.676934,174.50893 11.725067,178 8.5,178 c -1.2266554,0 -3.415969,-0.93266 -4.8651413,-2.07258 -5.1836623,-4.07747 -2.73748251,-15.11808 4.8197251,-21.7534 6.0867932,-5.34428 9.3862982,-6.61881 17.2092742,-6.64763 6.371827,-0.0235 7.633413,0.30529 11.410941,2.97361 9.406982,6.64478 10.582419,15.47744 4.657748,35 -7.927347,26.12163 -6.953477,35.42418 4.325996,41.32258 5.893231,3.08176 13.642701,2.55338 20.95979,-1.42907 5.490396,-2.98825 17.300623,-14.21804 20.258832,-19.26317 1.749371,-2.9835 1.741552,-3.04927 -0.5,-4.20598 -1.252441,-0.64629 -4.568732,-2.91866 -7.369536,-5.04972 C 76.606824,194.74359 73.623918,193 72.778949,193 c -0.84497,0 -2.124841,1.42084 -2.844159,3.15743 -2.238984,5.40539 -10.684095,17.6322 -13.414177,19.42102 -3.329199,2.18138 -6.686193,0.83844 -9.519172,-3.80806 -2.651197,-4.34835 -2.530516,-9.51514 0.494149,-21.15644 4.525498,-17.41769 17.468124,-46.61701 31.943684,-72.06682 6.590121,-11.58623 6.781642,-12.11772 6.24395,-17.32745 C 84.72873,91.971519 80.65416,88.371941 72.187442,89.297163 68.488828,89.701338 67.970699,89.535778 68.547918,88.134214 73.857807,75.241097 63.083453,59.839272 50.444371,62.255385 c -2.452,0.46873 -2.508893,0.357684 -1.899327,-3.707193 C 50.342468,46.562111 41.938177,38.03028 28.282119,37.977764 L 22.5,37.955528 25,35.944645 c 4.409246,-3.546591 22.278447,-11.72331 29.36123,-13.435324 8.698256,-2.102498 25.795966,-2.129036 35.735363,-0.05547 4.071874,0.849479 7.464057,1.544877 7.538184,1.545327 0.07413,4.5e-4 0.433123,2.388701 0.797768,5.307225 1.267446,10.144292 7.755115,20.286536 17.081005,26.702917 l 4.12794,2.840099 4.13744,-5.174711 c 5.96544,-7.46099 14.17106,-15.20816 26.72107,-25.228138 12.44621,-9.937103 19.48722,-14.654864 26.10569,-17.491874 5.42612,-2.3259061 14.1924,-2.6444282 14.99805,-0.544953 0.86768,2.261136 -2.45129,7.600304 -9.00638,14.488388 -4.94858,5.199969 -5.62634,6.280673 -3.59736,5.736035 8.45951,-2.27078 11.78525,-2.666312 14.31903,-1.70297 3.43809,1.307157 3.37683,3.1741 -0.31903,9.722799 -1.65,2.923639 -2.95829,5.885025 -2.9073,6.580856 0.051,0.695832 3.82252,4.501054 8.3812,8.45605 l 8.28851,7.190901 2.3688,-2.536063 c 1.30283,-1.394834 4.29001,-3.666107 6.63816,-5.047272 3.44919,-2.02879 4.55242,-2.27629 5.74282,-1.28835 2.09091,1.735305 3.72942,8.586468 2.94727,12.323562 L 223.79677,67.5 l 4.85162,-4.642458 c 10.44397,-9.993727 19.7681,-10.648608 17.20249,-1.208218 -0.50513,1.858696 -7.30939,10.600832 -16.60338,21.332101 -8.66113,10.000526 -18.77124,21.858335 -22.46692,26.350675 -7.7069,9.36825 -7.85323,8.71521 3.12566,13.94881 5.17967,2.46913 7.76444,3.06965 13.5,3.13646 3.90157,0.0454 8.66876,-0.26154 10.59376,-0.68219 3.31845,-0.72515 3.67454,-0.53076 6.86481,3.74741 4.98131,6.67999 10.65993,18.56567 12.09024,25.30559 1.92999,9.09455 0.90968,28.93807 -1.95034,37.93086 -1.26274,3.97047 -2.62936,7.01294 -3.03694,6.76104 -0.40757,-0.25189 -1.0221,-1.95617 -1.36562,-3.78728 -0.92945,-4.95436 -6.04969,-11.24694 -11.16749,-13.72443 -5.07436,-2.45645 -9.65998,-2.14614 -15.10105,1.0219 -3.47086,2.0209 -4.3317,1.74166 -4.33735,-1.40694 -0.005,-2.83811 -3.35336,-8.11598 -6.42595,-10.12922 -6.10528,-4.00033 -15.12819,-3.92198 -21.17855,0.1839 -1.91432,1.2991 -3.62808,2.36199 -3.80836,2.36199 -0.18028,0 -0.59926,-1.6875 -0.93106,-3.75 -0.77681,-4.82868 -2.89911,-7.79177 -6.4732,-9.03771 l -2.85212,-0.99425 -13.81402,26.14098 c -7.59771,14.37754 -15.88379,30.11414 -18.41351,34.97022 -5.52508,10.60601 -12.8385,20.04993 -15.86564,20.48752 -1.32368,0.19135 -3.18948,-0.68148 -4.71255,-2.20455 -3.00278,-3.00278 -3.32718,-8.64528 -1.0413,-18.11221 1.88866,-7.82184 1.94288,-7.48769 -1.23,-7.58002 -1.5125,-0.044 -5.45,-0.83575 -8.75,-1.75942 l -6,-1.67939 -4.32142,5.85924 c -9.501522,12.88273 -19.934665,21.72525 -31.006247,26.27905 -8.23154,3.38569 -21.548004,3.35003 -28.909767,-0.0774 z"
       id="path3065"
       inkscape:connector-curvature="0" />
    <path
       style="fill:#9f9f9f"
       d="m 40.262566,242.54206 c -7.1149,-3.3125 -14.539423,-10.49101 -17.40501,-16.8283 C 20.792788,221.1475 20.512608,219.0718 20.601523,209 c 0.09187,-10.40677 0.495891,-12.83029 4.25,-25.49369 C 27.133185,175.80978 29,168.27228 29,166.75631 29,164.30855 28.633107,164 25.722506,164 c -4.32865,0 -7.3093,2.21794 -8.718369,6.48746 C 15.676934,174.50893 11.725067,178 8.5,178 c -1.2266554,0 -3.415969,-0.93266 -4.8651413,-2.07258 -5.1836623,-4.07747 -2.73748251,-15.11808 4.8197251,-21.7534 6.0867932,-5.34428 9.3862982,-6.61881 17.2092742,-6.64763 6.371827,-0.0235 7.633413,0.30529 11.410941,2.97361 9.406982,6.64478 10.582419,15.47744 4.657748,35 -7.927347,26.12163 -6.953477,35.42418 4.325996,41.32258 5.893231,3.08176 13.642701,2.55338 20.95979,-1.42907 5.490396,-2.98825 17.300623,-14.21804 20.258832,-19.26317 1.749371,-2.9835 1.741552,-3.04927 -0.5,-4.20598 -1.252441,-0.64629 -4.568732,-2.91866 -7.369536,-5.04972 C 76.606824,194.74359 73.623918,193 72.778949,193 c -0.84497,0 -2.124841,1.42084 -2.844159,3.15743 -2.238984,5.40539 -10.684095,17.6322 -13.414177,19.42102 -3.329199,2.18138 -6.686193,0.83844 -9.519172,-3.80806 -2.651197,-4.34835 -2.530516,-9.51514 0.494149,-21.15644 4.525498,-17.41769 17.468124,-46.61701 31.943684,-72.06682 6.590121,-11.58623 6.781642,-12.11772 6.24395,-17.32745 C 84.72873,91.971519 80.65416,88.371941 72.187442,89.297163 68.488828,89.701338 67.970699,89.535778 68.547918,88.134214 73.857807,75.241097 63.083453,59.839272 50.444371,62.255385 c -2.452,0.46873 -2.508893,0.357684 -1.899327,-3.707193 C 50.342468,46.562111 41.938177,38.03028 28.282119,37.977764 L 22.5,37.955528 25,35.944645 c 4.409246,-3.546591 22.278447,-11.72331 29.36123,-13.435324 8.698256,-2.102498 25.795966,-2.129036 35.735363,-0.05547 4.071874,0.849479 7.464057,1.544877 7.538184,1.545327 0.07413,4.5e-4 0.433123,2.388701 0.797768,5.307225 1.267446,10.144292 7.755115,20.286536 17.081005,26.702917 l 4.12794,2.840099 4.13744,-5.174711 c 5.96544,-7.46099 14.17106,-15.20816 26.72107,-25.228138 12.44621,-9.937103 19.48722,-14.654864 26.10569,-17.491874 5.42612,-2.3259061 14.1924,-2.6444282 14.99805,-0.544953 0.86768,2.261136 -2.45129,7.600304 -9.00638,14.488388 -4.94858,5.199969 -5.62634,6.280673 -3.59736,5.736035 8.45951,-2.27078 11.78525,-2.666312 14.31903,-1.70297 3.43809,1.307157 3.37683,3.1741 -0.31903,9.722799 -1.65,2.923639 -2.95829,5.885025 -2.9073,6.580856 0.051,0.695832 3.82252,4.501054 8.3812,8.45605 l 8.28851,7.190901 2.3688,-2.536063 c 1.30283,-1.394834 4.29001,-3.666107 6.63816,-5.047272 3.44919,-2.02879 4.55242,-2.27629 5.74282,-1.28835 2.09091,1.735305 3.72942,8.586468 2.94727,12.323562 L 223.79677,67.5 l 4.85162,-4.642458 c 10.44397,-9.993727 19.7681,-10.648608 17.20249,-1.208218 -0.50513,1.858696 -7.30939,10.600832 -16.60338,21.332101 -8.66113,10.000526 -18.77124,21.858335 -22.46692,26.350675 -7.7069,9.36825 -7.85323,8.71521 3.12566,13.94881 5.17967,2.46913 7.76444,3.06965 13.5,3.13646 3.90157,0.0454 8.66876,-0.26154 10.59376,-0.68219 3.31845,-0.72515 3.67454,-0.53076 6.86481,3.74741 4.98131,6.67999 10.65993,18.56567 12.09024,25.30559 1.92999,9.09455 0.90968,28.93807 -1.95034,37.93086 -1.26274,3.97047 -2.62936,7.01294 -3.03694,6.76104 -0.40757,-0.25189 -1.0221,-1.95617 -1.36562,-3.78728 -0.92945,-4.95436 -6.04969,-11.24694 -11.16749,-13.72443 -5.07436,-2.45645 -9.65998,-2.14614 -15.10105,1.0219 -3.47086,2.0209 -4.3317,1.74166 -4.33735,-1.40694 -0.005,-2.83811 -3.35336,-8.11598 -6.42595,-10.12922 -6.10528,-4.00033 -15.12819,-3.92198 -21.17855,0.1839 -1.91432,1.2991 -3.62808,2.36199 -3.80836,2.36199 -0.18028,0 -0.59926,-1.6875 -0.93106,-3.75 -0.77681,-4.82868 -2.89911,-7.79177 -6.4732,-9.03771 l -2.85212,-0.99425 -13.81402,26.14098 c -7.59771,14.37754 -15.88379,30.11414 -18.41351,34.97022 -5.52508,10.60601 -12.8385,20.04993 -15.86564,20.48752 -1.32368,0.19135 -3.18948,-0.68148 -4.71255,-2.20455 -3.00278,-3.00278 -3.32718,-8.64528 -1.0413,-18.11221 1.88866,-7.82184 1.94288,-7.48769 -1.23,-7.58002 -1.5125,-0.044 -5.45,-0.83575 -8.75,-1.75942 l -6,-1.67939 -4.32142,5.85924 c -9.501522,12.88273 -19.934665,21.72525 -31.006247,26.27905 -8.23154,3.38569 -21.548004,3.35003 -28.909767,-0.0774 z M 202.4349,87.024751 c 3.59327,-1.366159 3.33559,-4.574956 -0.52783,-6.572807 -1.70111,-0.879679 -3.16361,-1.453735 -3.25,-1.27568 -1.43621,2.960177 -2.67851,4.384135 -4.06229,4.656312 C 192.36855,84.270453 190,82.231687 190,79.877555 c 0,-2.56211 -5.93935,-2.557004 -9.10678,0.0078 -2.0863,1.689383 -2.17583,2.069167 -0.86117,3.653229 0.80694,0.972314 2.81735,2.356277 4.46756,3.075473 3.55305,1.548492 14.29562,1.794465 17.93529,0.410665 z M 166.8,72.8 c 0.66,-0.66 1.2,-2.958145 1.2,-5.106989 0,-3.214728 -0.2914,-3.795167 -1.64462,-3.27589 C 164.54346,65.112421 161,62.455574 161,60.401716 c 0,-0.708569 0.98261,-1.976554 2.18357,-2.817743 2.00854,-1.406834 2.06957,-1.742457 0.76136,-4.186877 -1.87162,-3.497145 -5.73559,-5.340622 -7.00123,-3.34024 -2.56111,4.047922 0.0165,17.142951 4.26441,21.664672 2.40474,2.559728 3.83482,2.835538 5.59189,1.078472 z"
       id="path3063"
       inkscape:connector-curvature="0" />
    <path
       style="fill:#676767"
       d="m 43.844183,243.65386 c -18.478392,-6.84092 -26.39431,-21.60632 -22.849708,-42.6211 0.68476,-4.05972 2.766132,-12.55066 4.625272,-18.86876 4.910271,-16.68708 4.390383,-20.63915 -2.376601,-18.06634 C 19.356471,165.57537 17.208549,167.774 16.5,171 c -1.354961,6.1691 -9.0506877,8.44931 -13.5,4 -5.7104143,-5.71041 0.4754841,-19.14363 11.380261,-24.71322 11.013008,-5.62487 23.944442,-2.44466 28.52369,7.01481 3.202356,6.61518 2.748659,13.25199 -2.004937,29.32877 -4.804515,16.24899 -5.802242,28.80387 -2.669589,33.59272 5.658307,8.64979 16.847712,11.24906 27.008231,6.27394 6.828822,-3.34375 13.975014,-9.49557 19.797816,-17.043 l 4.415534,-5.72335 -2.297438,-1.61534 C 85.889978,201.2269 82.419859,198.5875 79.442193,196.25 76.464527,193.9125 73.623201,192 73.128135,192 c -0.495066,0 -3.249172,4.00199 -6.120235,8.89331 -8.697129,14.81697 -13.10575,18.00884 -18.047834,13.06676 -4.721425,-4.72143 -4.788502,-10.44989 -0.309831,-26.46007 4.699277,-16.7988 19.979368,-50.35712 32.70751,-71.83263 5.088737,-8.58595 5.914305,-13.68716 3.247888,-20.068796 C 82.681589,90.993688 79.444776,89 73.892647,89 l -4.662341,0 0.514972,-6.415473 C 70.699301,70.699408 64.727705,62.969591 53.992032,62.193043 L 48.35327,61.785171 48.785993,56.567106 C 49.678791,45.80113 41.528955,37.905594 29.2314,37.62268 L 23.898822,37.5 26.699411,35.245158 C 30.900239,31.86294 44.70068,25.291657 51.5,23.435992 c 9.360567,-2.554679 25.702315,-2.99584 36.820312,-0.993999 l 9.414025,1.695034 0.572635,5.548306 c 0.98604,9.553806 6.325588,18.122991 16.200398,25.999225 3.73329,2.97771 3.9038,3.334955 2.62502,5.5 -1.7501,2.963014 -0.99055,2.179457 8.27196,-8.533441 C 145.07766,29.89723 174.14223,9 186.1158,9 190.71671,9 191,9.1517315 191,11.616023 c 0,3.274381 -5.777,11.247919 -11.6158,16.032375 -2.43924,1.99878 -4.22295,3.846184 -3.96379,4.105343 0.25916,0.259158 2.60075,-0.254414 5.20353,-1.141272 6.03404,-2.056004 12.7283,-2.0979 14.39463,-0.09009 1.04612,1.260494 0.65638,2.68127 -2.2656,8.259173 l -3.52908,6.736793 8.41129,7.844182 8.41128,7.844183 5.59165,-4.603356 C 220.69029,49.151107 224,50.765122 224,62.631755 l 0,5.501555 4.97433,-5.106956 c 11.28687,-11.587802 22.59945,-9.557537 14.39852,2.584099 -2.859,4.232816 -15.83371,19.456143 -26.74477,31.37985 C 209.45481,104.82932 200,116.78243 200,118.01212 c 0,0.39261 3.33757,2.40791 7.41682,4.47843 8.35148,4.239 17.96602,5.62319 25.08318,3.61119 3.92405,-1.10932 4.06248,-1.05931 7.29065,2.63374 4.26743,4.88197 11.73874,20.28766 13.12513,27.06374 2.26986,11.09415 1.02015,27.46719 -3.05824,40.06759 l -1.08974,3.3668 -3.1339,-6.33063 c -5.65268,-11.41869 -14.23203,-15.38607 -23.96333,-11.08145 l -4.62943,2.04781 -1.1898,-3.9712 c -1.6823,-5.61501 -7.46492,-10.56769 -13.373,-11.45366 -4.88705,-0.73286 -11.32053,0.63115 -14.94246,3.16805 C 184.82496,173.51133 184,173.35683 184,170.95034 184,166.57317 178.8172,160 175.36591,160 c -1.24822,0 -5.32242,7.34866 -24.11699,43.5 -11.41348,21.9538 -18.29821,33.42466 -22.15753,36.91729 -1.74613,1.58023 -2.45793,1.67353 -4.93615,0.64701 -5.4008,-2.23708 -6.39233,-8.379 -3.27947,-20.3143 1.39855,-5.36232 1.48949,-6.75 0.44235,-6.75 -1.58663,0 -1.44629,0.0266 -8.31812,-1.57966 -3.025,-0.7071 -6.2144,-1.56104 -7.08756,-1.89764 -1.10027,-0.42416 -2.37415,0.57661 -4.15023,3.26044 C 94.120518,225.33051 81.539444,236.6539 70.985764,241.48297 65.704002,243.89975 62.92208,244.50233 56,244.72898 50.654359,244.904 46.143322,244.50503 43.844183,243.65386 z M 202.4349,87.024751 c 3.59327,-1.366159 3.33559,-4.574956 -0.52783,-6.572807 -1.70111,-0.879679 -3.16361,-1.453735 -3.25,-1.27568 -1.43621,2.960177 -2.67851,4.384135 -4.06229,4.656312 C 192.36855,84.270453 190,82.231687 190,79.877555 c 0,-2.56211 -5.93935,-2.557004 -9.10678,0.0078 -2.0863,1.689383 -2.17583,2.069167 -0.86117,3.653229 0.80694,0.972314 2.81735,2.356277 4.46756,3.075473 3.55305,1.548492 14.29562,1.794465 17.93529,0.410665 z M 166.8,72.8 c 0.66,-0.66 1.2,-2.958145 1.2,-5.106989 0,-3.214728 -0.2914,-3.795167 -1.64462,-3.27589 C 164.54346,65.112421 161,62.455574 161,60.401716 c 0,-0.708569 0.98261,-1.976554 2.18357,-2.817743 2.00854,-1.406834 2.06957,-1.742457 0.76136,-4.186877 -1.87162,-3.497145 -5.73559,-5.340622 -7.00123,-3.34024 -2.56111,4.047922 0.0165,17.142951 4.26441,21.664672 2.40474,2.559728 3.83482,2.835538 5.59189,1.078472 z"
       id="path3061"
       inkscape:connector-curvature="0" />
    <path
       style="fill:#943459"
       d="m 41.593052,242.58341 c -7.811817,-3.28996 -12.402656,-7.10598 -16.299868,-13.54888 -6.141891,-10.15381 -6.596521,-21.12186 -1.625518,-39.21606 6.399397,-23.29346 6.329043,-22.9561 5.21958,-25.02915 -2.294597,-4.2875 -10.735758,0.19161 -12.93831,6.86541 -1.915998,5.80553 -8.7362605,7.32946 -12.9116189,2.88499 -2.99263487,-3.18551 -2.38402582,-8.82704 1.657472,-15.36401 7.0902129,-11.46815 24.6960369,-15.03953 33.9755469,-6.89201 7.669937,6.73429 8.148321,13.9727 2.261762,34.22261 -7.173234,24.67611 -6.277614,34.2767 3.745576,40.15068 9.109417,5.33848 20.459806,2.55372 31.787107,-7.7988 5.379765,-4.9168 12.554202,-13.79768 12.515375,-15.49217 -0.01091,-0.47631 -2.281505,-2.20893 -5.045756,-3.85027 -2.764252,-1.64134 -5.895252,-3.90963 -6.957778,-5.04063 -1.91883,-2.04251 -1.894905,-2.12327 3.545757,-11.9703 5.616305,-10.16493 6.410486,-12.51217 4.227621,-12.49497 -0.6875,0.005 -3.450224,4.16792 -6.139386,9.25 C 63.31489,208.16629 57.951241,216 53.455066,216 50.639687,216 48.180403,213.67601 46.343493,209.27967 40.664042,195.68683 69.057477,130.44056 98.588677,89.223636 111.05312,71.826918 120.67666,60.308382 126.26471,56.097837 140.51283,45.362023 160.86503,35.664179 178.7235,31.101179 c 9.69072,-2.476065 14.56693,-2.661082 16.26331,-0.617075 1.26591,1.525326 0.64072,3.184047 -4.6146,12.243245 L 188.5,45.954698 191,47.676461 c 1.375,0.94697 5.23822,4.332163 8.58493,7.522651 C 202.93164,58.389601 205.9324,61 206.25328,61 c 0.32087,0 2.95576,-2.025 5.8553,-4.5 6.29702,-5.375038 9.13012,-5.752152 10.91114,-1.452381 4.2817,10.33693 -4.87806,35.583163 -21.55062,59.398071 -9.77734,13.96584 -20.48785,31.53555 -27.46516,45.05431 -37.98634,73.59978 -43.7049,83.17548 -48.866,81.82582 -3.13502,-0.81982 -6.13815,-5.08264 -6.13665,-8.71068 0.002,-5.36071 4.72071,-22.88597 8.43827,-31.34125 C 131.34988,192.38022 131.6492,191 129.66757,191 c -1.28049,0 -7.77867,13.61018 -9.19779,19.2644 -0.80853,3.22143 -2.75535,3.46262 -10.06085,1.24642 -2.69991,-0.81904 -5.15964,-1.49404 -5.46606,-1.5 -0.30642,-0.006 -2.64872,2.83778 -5.205113,6.31941 -7.407586,10.08863 -18.433466,19.9159 -27.21365,24.25531 -6.801274,3.36137 -8.716977,3.84678 -16.363594,4.14633 -7.448982,0.2918 -9.486844,-0.009 -14.567461,-2.14846 z M 203.25,86.86612 c 2.50487,-1.340445 2.15863,-4.368358 -0.71482,-6.25111 -3.20359,-2.099074 -4.26649,-2.036944 -5.00586,0.292609 C 196.15656,85.232804 190,83.965574 190,79.357827 190,77.42352 189.60791,76.936483 188.41821,77.393011 187.54823,77.726855 186.02308,78 185.029,78 c -2.75229,0 -6.25407,3.249913 -5.53129,5.133443 0.651,1.696462 6.25128,4.484935 10.50229,5.22926 3.26363,0.571441 11.02334,-0.305015 13.25,-1.496583 z M 167.39301,72.418213 C 167.72686,71.548229 168,69.298229 168,67.418213 168,64.451797 167.67422,64 165.53518,64 c -3.68767,0 -5.14053,-3.394647 -2.5581,-5.977082 2.52461,-2.524612 2.51997,-3.121298 -0.0497,-6.388059 -2.14567,-2.727779 -5.29671,-3.464379 -6.4989,-1.519207 -2.42345,3.921235 0.71974,17.889752 4.98541,22.155426 2.16058,2.160572 5.17796,2.234824 5.97908,0.147135 z m 79.84852,122.993617 c -1.39677,-4.66203 -7.19568,-11.81964 -11.29224,-13.93805 -3.86586,-1.99912 -9.59313,-1.81859 -14.61286,0.4606 l -4.16358,1.89045 -0.66438,-2.66242 c -2.80803,-11.2529 -15.6968,-16.43931 -26.8373,-10.79928 l -4.66779,2.36314 -1.02058,-3.79013 c -0.56131,-2.08458 -2.32102,-4.88439 -3.91045,-6.22181 l -2.88987,-2.43167 3.77415,-6.95551 C 185.03506,145.81085 200.90237,120 201.44461,120 c 0.18196,0 3.41887,1.4625 7.19312,3.25 6.0674,2.87355 7.84684,3.25 15.36227,3.25 4.675,0 9.49106,-0.36102 10.70235,-0.80227 1.86951,-0.68101 2.74002,-0.0765 5.75986,4 4.98585,6.73041 10.22468,17.63834 12.15209,25.30227 2.31621,9.20986 1.46597,26.7919 -1.78718,36.95705 l -2.38648,7.45705 -1.19911,-4.00227 z M 85.602818,97.696373 C 85.25757,95.856045 83.664379,93.094576 82.062393,91.559776 79.687828,89.284798 78.248029,88.769231 74.269382,88.769231 l -4.880309,0 0.428149,-5.919106 C 70.703499,70.597468 64.019167,62.002574 53.599962,61.997532 L 48.5,61.995065 l 0,-6.926336 c 0,-5.480805 -0.438959,-7.513828 -2.103296,-9.741338 C 43.198777,41.04736 35.811895,37.669378 29.450119,37.577808 24.125613,37.501168 24.077904,37.473957 26.27223,35.765267 30.536856,32.444465 43.549217,26.170692 51,23.843034 c 6.538504,-2.042658 9.358892,-2.325998 22,-2.210147 9.202068,0.08433 16.326873,0.656085 19.5,1.564837 l 5,1.43195 0.707784,5.635097 c 1.208744,9.623548 7.892566,19.865147 17.255306,26.440243 l 2.96308,2.080864 -3.48099,3.857061 c -4.37487,4.84751 -13.69134,17.082079 -22.180817,29.128273 l -6.533822,9.271208 -0.627723,-3.346047 z M 218.97136,91.220417 c 3.35159,-6.918967 5.66087,-13.543885 7.56107,-21.691385 1.58196,-6.782934 4.80504,-10.252245 12.2065,-13.139003 3.42808,-1.337037 4.52798,-1.413402 5.75,-0.399215 2.02897,1.683891 1.89898,4.868338 -0.34733,8.509186 -1.83249,2.970111 -26.9204,32.5 -27.61125,32.5 -0.19727,0 0.90119,-2.600812 2.44101,-5.779583 z M 132.5,44.989843 c 7.69123,-7.864557 22.79438,-20.39695 32.66742,-27.106987 7.87279,-5.35061 16.16054,-8.8280283 21.11396,-8.8591205 6.58037,-0.041305 6.135,4.0658225 -1.41135,13.0153475 -3.82215,4.532852 -4.79595,5.06772 -15.22666,8.363451 -12.67523,4.004917 -23.50262,9.021903 -35.70973,16.546486 l -8.43364,5.198575 7,-7.157752 z"
       id="path3059"
       inkscape:connector-curvature="0" />
    <path
       style="fill:#4f4d4d"
       d="m 41.593052,242.58341 c -7.811817,-3.28996 -12.402656,-7.10598 -16.299868,-13.54888 -6.141891,-10.15381 -6.596521,-21.12186 -1.625518,-39.21606 6.399397,-23.29346 6.329043,-22.9561 5.21958,-25.02915 -2.294597,-4.2875 -10.735758,0.19161 -12.93831,6.86541 -1.915998,5.80553 -8.7362605,7.32946 -12.9116189,2.88499 -2.99263487,-3.18551 -2.38402582,-8.82704 1.657472,-15.36401 7.0902129,-11.46815 24.6960369,-15.03953 33.9755469,-6.89201 7.669937,6.73429 8.148321,13.9727 2.261762,34.22261 -7.173234,24.67611 -6.277614,34.2767 3.745576,40.15068 9.109417,5.33848 20.459806,2.55372 31.787107,-7.7988 5.379765,-4.9168 12.554202,-13.79768 12.515375,-15.49217 -0.01091,-0.47631 -2.281505,-2.20893 -5.045756,-3.85027 -2.764252,-1.64134 -5.895252,-3.90963 -6.957778,-5.04063 -1.91883,-2.04251 -1.894905,-2.12327 3.545757,-11.9703 5.616305,-10.16493 6.410486,-12.51217 4.227621,-12.49497 -0.6875,0.005 -3.450224,4.16792 -6.139386,9.25 C 63.31489,208.16629 57.951241,216 53.455066,216 50.639687,216 48.180403,213.67601 46.343493,209.27967 40.664042,195.68683 69.057477,130.44056 98.588677,89.223636 111.05312,71.826918 120.67666,60.308382 126.26471,56.097837 140.51283,45.362023 160.86503,35.664179 178.7235,31.101179 c 9.69072,-2.476065 14.56693,-2.661082 16.26331,-0.617075 1.26591,1.525326 0.64072,3.184047 -4.6146,12.243245 L 188.5,45.954698 191,47.676461 c 1.375,0.94697 5.23822,4.332163 8.58493,7.522651 C 202.93164,58.389601 205.9324,61 206.25328,61 c 0.32087,0 2.95576,-2.025 5.8553,-4.5 6.29702,-5.375038 9.13012,-5.752152 10.91114,-1.452381 4.2817,10.33693 -4.87806,35.583163 -21.55062,59.398071 -9.77734,13.96584 -20.48785,31.53555 -27.46516,45.05431 -37.98634,73.59978 -43.7049,83.17548 -48.866,81.82582 -3.13502,-0.81982 -6.13815,-5.08264 -6.13665,-8.71068 0.002,-5.36071 4.72071,-22.88597 8.43827,-31.34125 C 131.34988,192.38022 131.6492,191 129.66757,191 c -1.28049,0 -7.77867,13.61018 -9.19779,19.2644 -0.80853,3.22143 -2.75535,3.46262 -10.06085,1.24642 -2.69991,-0.81904 -5.15964,-1.49404 -5.46606,-1.5 -0.30642,-0.006 -2.64872,2.83778 -5.205113,6.31941 -7.407586,10.08863 -18.433466,19.9159 -27.21365,24.25531 -6.801274,3.36137 -8.716977,3.84678 -16.363594,4.14633 -7.448982,0.2918 -9.486844,-0.009 -14.567461,-2.14846 z M 171.96415,90.230116 174.14986,88.460233 171.9804,85.702217 C 169.71493,82.822137 163.19061,79 160.53984,79 c -1.83642,0 -2.14822,5.994712 -0.47447,9.122148 2.06172,3.852355 8.36542,4.969108 11.89878,2.107968 z M 203.25,86.86612 c 2.50487,-1.340445 2.15863,-4.368358 -0.71482,-6.25111 -3.20359,-2.099074 -4.26649,-2.036944 -5.00586,0.292609 C 196.15656,85.232804 190,83.965574 190,79.357827 190,77.42352 189.60791,76.936483 188.41821,77.393011 187.54823,77.726855 186.02308,78 185.029,78 c -2.75229,0 -6.25407,3.249913 -5.53129,5.133443 0.651,1.696462 6.25128,4.484935 10.50229,5.22926 3.26363,0.571441 11.02334,-0.305015 13.25,-1.496583 z M 167.39301,72.418213 C 167.72686,71.548229 168,69.298229 168,67.418213 168,64.451797 167.67422,64 165.53518,64 c -3.68767,0 -5.14053,-3.394647 -2.5581,-5.977082 2.52461,-2.524612 2.51997,-3.121298 -0.0497,-6.388059 -2.14567,-2.727779 -5.29671,-3.464379 -6.4989,-1.519207 -2.42345,3.921235 0.71974,17.889752 4.98541,22.155426 2.16058,2.160572 5.17796,2.234824 5.97908,0.147135 z m 79.84852,122.993617 c -1.39677,-4.66203 -7.19568,-11.81964 -11.29224,-13.93805 -3.86586,-1.99912 -9.59313,-1.81859 -14.61286,0.4606 l -4.16358,1.89045 -0.66438,-2.66242 c -2.80803,-11.2529 -15.6968,-16.43931 -26.8373,-10.79928 l -4.66779,2.36314 -1.02058,-3.79013 c -0.56131,-2.08458 -2.32102,-4.88439 -3.91045,-6.22181 l -2.88987,-2.43167 3.77415,-6.95551 C 185.03506,145.81085 200.90237,120 201.44461,120 c 0.18196,0 3.41887,1.4625 7.19312,3.25 6.0674,2.87355 7.84684,3.25 15.36227,3.25 4.675,0 9.49106,-0.36102 10.70235,-0.80227 1.86951,-0.68101 2.74002,-0.0765 5.75986,4 4.98585,6.73041 10.22468,17.63834 12.15209,25.30227 2.31621,9.20986 1.46597,26.7919 -1.78718,36.95705 l -2.38648,7.45705 -1.19911,-4.00227 z M 85.602818,97.696373 C 85.25757,95.856045 83.664379,93.094576 82.062393,91.559776 79.687828,89.284798 78.248029,88.769231 74.269382,88.769231 l -4.880309,0 0.428149,-5.919106 C 70.703499,70.597468 64.019167,62.002574 53.599962,61.997532 L 48.5,61.995065 l 0,-6.926336 c 0,-5.480805 -0.438959,-7.513828 -2.103296,-9.741338 C 43.198777,41.04736 35.811895,37.669378 29.450119,37.577808 24.125613,37.501168 24.077904,37.473957 26.27223,35.765267 30.536856,32.444465 43.549217,26.170692 51,23.843034 c 6.538504,-2.042658 9.358892,-2.325998 22,-2.210147 9.202068,0.08433 16.326873,0.656085 19.5,1.564837 l 5,1.43195 0.707784,5.635097 c 1.208744,9.623548 7.892566,19.865147 17.255306,26.440243 l 2.96308,2.080864 -3.48099,3.857061 c -4.37487,4.84751 -13.69134,17.082079 -22.180817,29.128273 l -6.533822,9.271208 -0.627723,-3.346047 z M 218.97136,91.220417 c 3.35159,-6.918967 5.66087,-13.543885 7.56107,-21.691385 1.58196,-6.782934 4.80504,-10.252245 12.2065,-13.139003 3.42808,-1.337037 4.52798,-1.413402 5.75,-0.399215 2.02897,1.683891 1.89898,4.868338 -0.34733,8.509186 -1.83249,2.970111 -26.9204,32.5 -27.61125,32.5 -0.19727,0 0.90119,-2.600812 2.44101,-5.779583 z M 132.5,44.989843 c 7.69123,-7.864557 22.79438,-20.39695 32.66742,-27.106987 7.87279,-5.35061 16.16054,-8.8280283 21.11396,-8.8591205 6.58037,-0.041305 6.135,4.0658225 -1.41135,13.0153475 -3.82215,4.532852 -4.79595,5.06772 -15.22666,8.363451 -12.67523,4.004917 -23.50262,9.021903 -35.70973,16.546486 l -8.43364,5.198575 7,-7.157752 z"
       id="path3057"
       inkscape:connector-curvature="0" />
    <path
       style="fill:#2f2e2e"
       d="m 43.299837,243.13789 c -9.814261,-3.39113 -16.269319,-9.2131 -20.171256,-18.19294 -4.367078,-10.05032 -3.644593,-20.49195 3.034695,-43.85856 2.98451,-10.44091 3.844786,-14.85084 3.121226,-16 -2.759496,-4.3826 -10.355448,-1.08595 -12.90996,5.60294 C 14.528016,175.52439 12.625951,177 8.2400555,177 c -3.7201094,0 -7.2470337,-3.69616 -7.2180935,-7.56445 0.052043,-6.95634 6.7974084,-16.08549 14.455846,-19.56447 5.273129,-2.39542 14.87214,-2.4544 19.45109,-0.11953 1.885893,0.96165 4.790632,3.45269 6.454975,5.53564 4.849199,6.06886 4.764516,12.80204 -0.379988,30.21281 -7.440992,25.18288 -6.544057,35.16894 3.697938,41.17114 6.207362,3.63776 12.714449,3.69282 20.360694,0.1723 6.089421,-2.80373 16.621846,-12.07986 21.609614,-19.03206 l 3.172131,-4.42147 -6.672131,-4.52685 C 75.002929,193.32049 74.972338,192.83894 81.99107,180.27182 86.667165,171.89922 87.448423,169 85.028504,169 84.026451,169 77.623471,180.02236 69.626081,195.51437 63.019313,208.31257 56.972005,216 53.511088,216 c -1.401458,0 -3.417847,-1.28891 -5.048966,-3.22738 -2.579996,-3.06616 -2.690616,-3.62888 -2.21427,-11.26412 C 47.385716,183.26992 67.948873,136.07326 88.73142,104 c 7.382412,-11.393119 26.97467,-37.449572 32.18881,-42.809076 12.14738,-12.486012 43.16693,-27.476863 65.17791,-31.49859 9.82901,-1.795905 11.09063,0.498073 5.66273,10.296414 l -3.23913,5.847214 2.98913,2.299918 c 1.64402,1.264955 5.72978,4.904194 9.07945,8.087199 l 6.09033,5.78728 1.90967,-2.151577 C 211.60121,56.4665 218.12704,52 220.07249,52 c 2.59864,0 4.30463,6.132935 3.58821,12.89936 -1.38947,13.123159 -8.70961,29.030264 -23.37252,50.78992 -14.4789,21.48658 -17.23683,26.13966 -29.81977,50.31072 -34.94441,67.12609 -34.12957,65.65799 -39.82325,71.75 -3.51318,3.75896 -6.53851,4.1323 -9.24017,1.14027 -3.87572,-4.29226 -1.24021,-20.11589 6.25717,-37.56807 2.06584,-4.80882 3.29005,-9.00436 2.9136,-9.98538 -0.5599,-1.45907 -0.83175,-1.49545 -1.97544,-0.26436 -1.12328,1.20912 -7.01587,14.50407 -8.94309,20.17754 -0.72686,2.13977 -2.85653,2.19983 -9.2483,0.26082 -2.69991,-0.81904 -5.20693,-1.49404 -5.57115,-1.5 -0.36422,-0.006 -2.67534,2.80168 -5.135818,6.23918 -5.405979,7.55262 -15.533371,17.41823 -22.264611,21.68908 -10.506687,6.66632 -23.96067,8.71522 -34.137514,5.19881 z M 172.90821,106.93128 c -2.16935,-7.343709 -3.99207,-10.180757 -5.54385,-8.62897 -0.60736,0.607353 2.02141,10.2613 4.2546,15.62474 1.06464,2.55691 1.71519,3.1388 2.5622,2.29179 0.84701,-0.84701 0.52381,-3.20516 -1.27295,-9.28756 z M 156,113.12573 c 0,-1.03085 -0.6737,-3.78375 -1.49711,-6.11755 l -1.49712,-4.24327 4.92899,-5.689607 c 4.44781,-5.134163 5.25635,-5.65139 8.28221,-5.298139 2.30108,0.268638 4.1239,-0.232595 5.80943,-1.59746 l 2.45622,-1.988928 -1.99131,-2.225096 C 169.59528,82.729645 163.3782,79 160.87997,79 c -2.01349,0 -2.12227,0.363417 -1.60599,5.365626 0.53939,5.226218 0.43908,5.496743 -3.86087,10.412232 -3.6169,4.134657 -5.18251,5.162492 -8.66388,5.687902 -8.40893,1.26908 -9.74923,1.70809 -9.74923,3.19329 0,1.24835 1.07216,1.38532 6.38796,0.81605 l 6.38796,-0.6841 1.24365,3.8545 c 1.67274,5.18438 2.85764,7.3545 4.01561,7.3545 0.53065,0 0.96482,-0.84342 0.96482,-1.87427 z m 27,-4.15897 c 0,-1.29492 -4.32963,-9.791246 -6.35291,-12.46676 -1.08204,-1.43085 -1.82312,-1.694262 -2.60414,-0.925634 C 172.70476,96.891326 179.6501,110 181.68605,110 182.40872,110 183,109.53504 183,108.96676 z m 18.6044,-21.445934 c 2.77129,-1.157919 3.47017,-1.965106 3.21788,-3.716582 -0.38759,-2.690811 -5.81498,-6.039874 -6.54125,-4.036387 C 197.67585,81.437299 195.08355,84 194,84 c -1.77768,0 -4.13557,-3.373574 -3.65155,-5.224488 0.45754,-1.749621 0.12065,-1.862898 -3.67235,-1.234795 -5.53703,0.916905 -7.6761,2.137312 -7.6761,4.379457 0,5.149284 14.86804,8.833111 22.6044,5.600652 z M 149,86.642954 C 149,84.962101 129.29344,83.306558 127.74285,84.857147 125.46493,87.135074 128.44158,88 138.55902,88 146.68439,88 149,87.699033 149,86.642954 z m 1,-6.996403 c 0,-0.89787 -2.33693,-1.739386 -6.94263,-2.5 C 134.03616,75.656729 132,75.700912 132,77.386488 c 0,0.90701 1.98847,1.727176 5.75,2.371644 8.67636,1.486535 12.25,1.453984 12.25,-0.111581 z m 18,-11.115312 c 0,-4.054873 -0.21478,-4.423107 -2.75,-4.714817 -3.63694,-0.418476 -4.59365,-5.383822 -1.27396,-6.611856 l 2.11032,-0.780656 -2.32754,-3.461955 c -3.05481,-4.543689 -6.37738,-5.086922 -7.83675,-1.281295 -1.96934,5.135453 2.01113,18.758288 6.37387,21.814074 C 165.63663,75.834644 168,73.778116 168,68.531239 z m 50.49772,-0.886098 c 0.91472,-2.395172 1.51196,-5.657672 1.32718,-7.25 L 219.48895,57.5 l -4.25442,4.142297 c -4.25548,4.143333 -4.59074,5.703722 -1.95685,9.107703 1.79319,2.317473 3.5478,1.273834 5.22004,-3.104859 z M 181.7881,40.25 c 1.10532,-0.9625 2.78193,-2.9875 3.7258,-4.5 1.69044,-2.708847 1.68073,-2.749854 -0.64889,-2.740231 -1.30076,0.0054 -4.84001,1.165322 -7.86501,2.577664 l -5.5,2.567895 2.36078,1.922336 c 2.93144,2.387006 5.32429,2.439025 7.92732,0.172336 z m 65.39333,154.96123 c -1.34478,-4.48849 -7.20375,-11.65429 -11.23214,-13.73745 -3.96446,-2.05011 -10.3132,-1.83894 -14.8885,0.49521 l -3.85954,1.96899 -0.67858,-2.71899 c -2.84822,-11.41259 -15.57936,-16.56254 -26.8449,-10.8592 l -4.66119,2.3598 -0.9708,-3.51594 c -0.53393,-1.93377 -2.21553,-4.81517 -3.73688,-6.40312 l -2.7661,-2.88718 2.88881,-5.20667 c 4.9745,-8.96585 16.63017,-28.06136 19.18271,-31.42709 l 2.44232,-3.22041 5.74954,2.9217 c 8.60697,4.37375 18.73046,5.37616 26.86342,2.65997 1.84911,-0.61755 2.84644,0.22393 6.75165,5.69659 12.17094,17.05604 15.4985,35.89613 10.09928,57.18047 -1.36371,5.3759 -2.64161,9.9365 -2.83978,10.13467 -0.19817,0.19818 -0.87286,-1.35044 -1.49932,-3.44135 z M 85.537725,97.171762 C 84.216385,91.15574 78.138635,87.460257 71.63887,88.720775 68.993214,89.233854 68.835531,89.095813 69.545111,86.887821 70.797686,82.990203 70.237425,75.364607 68.437527,71.812723 64.86549,64.763736 60.297703,61.791585 53.116042,61.843398 L 48.5,61.8767 l 0,-6.867153 c 0,-5.397059 -0.447116,-7.471104 -2.088584,-9.68835 -3.021218,-4.080972 -9.56817,-7.378672 -15.958288,-8.03819 L 24.894339,36.709289 27.69717,34.80173 C 33.498173,30.853666 44.183981,25.939288 51.708513,23.758971 58.252238,21.862854 61.661948,21.524691 73,21.64736 c 7.611354,0.08235 15.898498,0.746432 18.998672,1.522443 l 5.498671,1.376385 0.709112,5.67684 c 1.189528,9.522831 7.708835,19.639396 16.973385,26.339047 l 2.67984,1.937925 -6.49523,8 c -3.57238,4.4 -10.3475,13.4 -15.055817,20 -10.663467,14.94777 -9.980388,14.27098 -10.770908,10.671762 z M 220.55998,88.365581 c 1.91282,-4.47393 4.40484,-11.89893 5.53782,-16.5 2.26257,-9.188335 4.06569,-11.511563 11.64032,-14.997967 8.31467,-3.827022 10.82659,1.760522 4.51753,10.048874 -1.50026,1.970932 -6.78403,8.252763 -11.7417,13.959626 -4.95767,5.706863 -10.00797,11.556863 -11.22289,13 -1.81627,2.157447 -1.5907,1.177858 1.26892,-5.510533 z M 132.5,44.933351 C 139.84479,37.387868 160.74752,20.513116 168.83457,15.600492 176.00069,11.247306 182.06883,9 186.65711,9 c 6.228,0 5.37182,4.753239 -2.46997,13.712614 -3.18793,3.64226 -4.84729,4.548455 -12.25601,6.69313 C 160.29215,32.775 147.39836,38.504802 136,45.372987 l -9.5,5.724312 6,-6.163948 z"
       id="path3055"
       inkscape:connector-curvature="0" />
    <path
       style="fill:#000000"
       d="m 43.874898,243.23229 c -17.448038,-6.53501 -25.21749,-19.9383 -22.803761,-39.33938 0.505872,-4.0661 2.812996,-14.06056 5.126943,-22.2099 4.500453,-15.84987 4.466981,-17.91606 -0.298942,-18.45361 -3.463016,-0.39059 -8.725881,3.20321 -9.50354,6.48958 -1.64946,6.97059 -8.3120602,9.45547 -12.9410525,4.82647 -3.92303491,-3.92303 -2.6938758,-10.5693 3.2358671,-17.49687 9.2744964,-10.83516 26.6091484,-12.11097 34.1581304,-2.514 5.335921,6.78353 5.257678,13.5 -0.378202,32.46542 -6.346184,21.35568 -5.853285,32.61952 1.673554,38.24441 11.089056,8.28698 23.786979,4.877 38.263645,-10.27555 10.884627,-11.39281 10.792054,-10.79619 2.549051,-16.42838 C 79.130466,195.9262 76,193.30127 76,192.7073 c 0,-0.59397 2.513977,-5.51999 5.586615,-10.94672 5.273662,-9.31405 6.139784,-12.77129 3.19477,-12.75233 -1.444058,0.009 -3.095339,2.8089 -12.97132,21.99175 -8.127717,15.78707 -13.745266,23.69465 -17.502628,24.63769 -2.158667,0.54179 -3.171128,0.0793 -5.477779,-2.50231 C 46.467246,210.49139 46,209.08094 46,204.5937 46,183.52078 71.280928,128.50855 98.276414,90.838295 120.66612,59.595073 125.82082,54.781106 149.5,43.000683 c 17.04253,-8.478681 37.48658,-14.97382 42.87481,-13.62146 3.53493,0.88721 3.38907,3.375937 -0.62481,10.6608 l -3.25,5.898488 4,3.231234 c 2.2,1.777179 6.21497,5.4042 8.92216,8.060047 l 4.92216,4.828814 3.07784,-2.861564 c 9.2032,-8.556504 11.96906,-9.153398 13.65581,-2.947042 3.0875,11.360337 -6.67504,36.425201 -23.07734,59.25 -9.08068,12.63631 -18.68077,28.6757 -27.53246,46 -40.32926,78.93131 -43.30659,83.50018 -50.57683,77.6131 -1.9412,-1.57189 -2.31626,-2.78226 -2.24659,-7.25 0.10708,-6.86689 3.33822,-18.57556 8.42291,-30.52208 3.9123,-9.19195 4.19316,-11.34102 1.4822,-11.34102 -1.16326,0 -8.15203,14.47865 -10.01592,20.75 -0.80015,2.69224 -0.84993,2.69536 -9.27172,0.57987 -5.14124,-1.29144 -6.74236,-1.38944 -7.06144,-0.43221 -0.85866,2.57598 -12.094527,15.85573 -17.288112,20.43294 -2.976967,2.62366 -9.127116,6.62212 -13.666997,8.88547 -7.163304,3.57125 -9.278123,4.15703 -16,4.43185 -5.54406,0.22665 -9.060299,-0.17572 -12.370773,-1.41563 z M 175.38772,116.18167 c 0.79397,-1.28467 -4.80908,-18.488788 -6.16908,-18.942123 -2.37056,-0.790186 -2.44834,2.969213 -0.21863,10.567293 1.24169,4.23124 2.45121,8.03066 2.68782,8.44316 0.5753,1.00295 3.06624,0.95695 3.69989,-0.0683 z m -19.02888,-3.21998 c -0.0776,-0.80393 -0.73395,-3.60099 -1.45848,-6.21568 l -1.31731,-4.754 4.92088,-4.996005 C 162.46657,92.97288 164.07782,92 166.77815,92 170.87314,92 174,90.448689 174,88.417067 c 0,-1.950864 -4.48437,-6.103389 -9.18924,-8.509226 -3.34316,-1.709525 -3.83566,-1.740083 -5.25,-0.325741 -1.82874,1.82874 -2.00449,4.720257 -0.46208,7.602279 0.95686,1.787919 0.42554,2.734495 -4.11642,7.33358 -4.71324,4.772526 -5.7572,5.347761 -10.84867,5.977741 -6.31217,0.78101 -8.70955,2.10539 -7.16973,3.96075 0.68154,0.82121 2.62628,0.97082 6.26233,0.48178 2.9006,-0.39013 5.53693,-0.42333 5.85853,-0.0738 0.32159,0.34955 1.3805,2.79711 2.35312,5.43901 1.26729,3.4423 2.23509,4.70662 3.41529,4.46169 0.90578,-0.18798 1.58335,-0.99954 1.50571,-1.80346 z m 27.14725,-2.97154 C 184.55127,108.29901 176.81812,95 174.78956,95 c -2.56989,0 -2.2209,2.176627 1.31573,8.20599 4.69476,8.00379 5.94099,9.14618 7.4008,6.78416 z M 148.5,86.5 c 0,-1.858367 -0.76128,-2.0201 -10.75,-2.283832 C 127.59645,83.948085 127,84.042533 127,85.918451 c 0,1.729403 0.80783,2.034863 6.25,2.363271 C 145.70936,89.033583 148.5,88.70754 148.5,86.5 z m 55.68865,-0.244202 c 1.8351,-1.835103 1.95151,-2.38199 0.80188,-3.767209 C 203.74035,80.982215 198.79664,78 197.54966,78 197.24735,78 197,78.914123 197,80.031385 c 0,1.117261 -0.73617,2.313878 -1.63592,2.659147 -2.33021,0.894185 -4.90622,-1.100541 -4.62587,-3.58203 0.29226,-2.586882 -3.02449,-2.85138 -8.27033,-0.659529 -8.97387,3.749521 0.29573,10.899614 13.30307,10.261306 4.8107,-0.236075 6.77084,-0.807622 8.4177,-2.454481 z m -53.6348,-5.34293 c 1.21241,-1.961714 -1.30499,-3.164232 -9.63604,-4.602966 -5.75346,-0.993597 -8.52525,-1.102465 -9.26385,-0.363858 -1.7991,1.799096 0.81039,3.289541 8.05485,4.60064 8.9351,1.617069 10.04871,1.654671 10.84504,0.366184 z m 17.26778,-9.272321 c 0.72983,-1.497488 1.05105,-3.943739 0.71736,-5.463043 -0.48143,-2.19191 -1.15675,-2.743776 -3.32164,-2.71439 -2.24952,0.03054 -2.77306,-0.449367 -3.04095,-2.787487 -0.24847,-2.168676 0.1578,-2.950262 1.75,-3.366631 2.69471,-0.704682 2.61521,-1.511878 -0.51529,-5.232271 -2.95532,-3.512189 -5.86638,-3.963087 -7.37593,-1.142466 -2.46168,4.599691 0.3986,16.653362 5.05723,21.311993 3.3506,3.350603 4.86759,3.214057 6.72922,-0.605705 z M 218.01096,69.75 c 2.14848,-3.523762 2.76031,-11.75 0.87391,-11.75 -0.61332,0 -2.65929,1.685829 -4.54659,3.746286 -3.49083,3.81109 -3.82537,6.75695 -1.13544,9.99812 1.62083,1.952976 2.66558,1.519612 4.80812,-1.994406 z M 183.89641,38.465204 c 4.1955,-4.778416 4.14432,-6.84875 -0.14641,-5.922622 -2.76958,0.597797 -10.36378,3.902495 -11.66054,5.074207 -0.22579,0.204022 0.40645,1.273708 1.40499,2.37708 2.84557,3.144317 6.81065,2.561611 10.40196,-1.528665 z M 246.68586,193.555 c -2.04756,-4.95052 -7.70155,-11.23027 -11.36539,-12.62326 -3.94214,-1.4988 -10.61222,-1.07723 -14.52591,0.91808 l -3.62832,1.84983 -0.6389,-3.4056 c -0.86336,-4.60212 -7.33022,-10.97884 -12.02775,-11.8601 -5.58244,-1.04728 -12.93324,0.0266 -16.22456,2.37021 l -2.98049,2.1223 -1.22265,-4.08084 c -0.67245,-2.24446 -2.37855,-5.15209 -3.79132,-6.4614 l -2.56868,-2.38058 6.63734,-11.50089 c 3.65054,-6.3255 9.10844,-15.25302 12.12868,-19.83895 l 5.49134,-8.33804 5.76538,2.84963 c 8.32078,4.11269 16.58395,5.36277 23.61374,3.57234 l 5.58926,-1.42353 3.9023,5.5879 c 11.64135,16.66983 15.40314,33.43147 11.72637,52.24993 -0.78853,4.03588 -2.02699,9.00993 -2.75212,11.05343 l -1.31842,3.71547 -1.8099,-4.37593 z M 85.996262,98.396728 c -0.01146,-5.817017 -7.633495,-11.319281 -13.934401,-10.0591 l -2.759101,0.55182 0.974145,-4.257022 C 71.693445,78.442134 69.122379,70.192647 64.516057,66.148242 60.740402,62.833173 54.050845,60.531699 51.002749,61.499127 49.280918,62.045615 49.106482,61.54739 49.132265,56.15663 49.16157,50.02966 47.639739,45.793919 44.334397,42.802625 41.204492,39.9701 33.730597,37.046472 29.5,36.999726 l -4,-0.0442 2.5,-1.939402 c 7.948262,-6.165951 22.010246,-11.448535 35.122688,-13.194338 8.941747,-1.190512 22.408817,-0.230595 31.127312,2.21872 3.485001,0.979053 3.75,1.320255 3.75,4.828357 0,8.555328 5.93073,18.868055 14.95145,25.998523 4.40084,3.478668 4.79921,4.094659 3.39935,5.256437 -2.25776,1.87377 -12.74818,15.448233 -22.235878,28.772903 -4.644338,6.522584 -8.116521,10.585537 -8.11866,9.5 z M 221.97703,86.055701 c 1.57498,-3.819365 3.6434,-10.231865 4.5965,-14.25 1.96427,-8.281138 2.42883,-9.051156 7.82651,-12.972425 4.3612,-3.168299 10.269,-3.859314 11.24523,-1.315316 1.11901,2.916102 -2.17697,8.07163 -13.88983,21.726286 C 225.26566,86.809911 219.76631,93 219.53464,93 c -0.23166,0 0.86741,-3.124935 2.44239,-6.944299 z M 132.5,45.024544 c 5.27155,-5.462255 24.878,-21.582708 32.5,-26.721545 7.49039,-5.050106 14.89348,-8.3846136 19.94275,-8.9826239 8.17373,-0.9680574 8.11776,3.1126489 -0.16294,11.8809319 -4.92055,5.210289 -5.96038,5.799023 -15.28185,8.65234 -10.56631,3.234365 -26.64469,10.649985 -36.24703,16.71774 l -5.75093,3.634036 5,-5.180879 z"
       id="path3053"
       inkscape:connector-curvature="0" />
  </g>
</svg>
