<?xml version="1.0" encoding="UTF-8" standalone="no"?>
<!-- Created with Inkscape (http://www.inkscape.org/) -->

<svg
   xmlns:dc="http://purl.org/dc/elements/1.1/"
   xmlns:cc="http://creativecommons.org/ns#"
   xmlns:rdf="http://www.w3.org/1999/02/22-rdf-syntax-ns#"
   xmlns:svg="http://www.w3.org/2000/svg"
   xmlns="http://www.w3.org/2000/svg"
   xmlns:xlink="http://www.w3.org/1999/xlink"
   xmlns:sodipodi="http://sodipodi.sourceforge.net/DTD/sodipodi-0.dtd"
   xmlns:inkscape="http://www.inkscape.org/namespaces/inkscape"
   id="svg3723"
   version="1.1"
   inkscape:version="0.48.5 r10040"
   width="256"
   height="256"
   sodipodi:docname="cat_food.png">
  <metadata
     id="metadata3729">
    <rdf:RDF>
      <cc:Work
         rdf:about="">
        <dc:format>image/svg+xml</dc:format>
        <dc:type
           rdf:resource="http://purl.org/dc/dcmitype/StillImage" />
        <dc:title></dc:title>
      </cc:Work>
    </rdf:RDF>
  </metadata>
  <defs
     id="defs3727" />
  <sodipodi:namedview
     pagecolor="#ffffff"
     bordercolor="#666666"
     borderopacity="1"
     objecttolerance="10"
     gridtolerance="10"
     guidetolerance="10"
     inkscape:pageopacity="0"
     inkscape:pageshadow="2"
     inkscape:window-width="640"
     inkscape:window-height="480"
     id="namedview3725"
     showgrid="false"
     inkscape:zoom="0.921875"
     inkscape:cx="128"
     inkscape:cy="128"
     inkscape:window-x="0"
     inkscape:window-y="0"
     inkscape:window-maximized="0"
     inkscape:current-layer="svg3723" />
  <g
     id="g3733">
    <path
       style="fill:#b3b2b2"
       d="m 49.5,252.31644 c -9.930957,-0.86238 -25.66333,-3.7221 -32.7123,-5.94622 -9.5916487,-3.02639 -15.3049105,-7.79041 -14.5090112,-12.09837 1.0704907,-5.79423 12.7224402,-46.92006 14.1743482,-50.02869 2.811864,-6.02039 11.136176,-9.35519 29.432659,-11.79102 5.837867,-0.7772 10.951804,-1.42188 11.364304,-1.43262 0.4125,-0.0107 0.75,-3.58696 0.75,-7.94716 0,-21.32557 7.580153,-54.80744 17.445689,-77.05838 L 79.908977,75.947386 75.954488,74.365113 C 73.77952,73.494863 72,72.367578 72,71.860036 c 0,-1.744271 2.611282,-1.920399 6.205672,-0.418568 3.520298,1.470875 3.63841,1.445438 5.338863,-1.149781 1.712012,-2.61286 1.694171,-2.689744 -1.152806,-4.967843 C 80.801278,64.051194 79.1625,63.007699 78.75,63.004967 78.3375,63.002235 78,62.325 78,61.5 78,59.458989 79.867632,59.621921 83.77417,62.003738 85.574963,63.101682 87.225761,64 87.44261,64 c 0.216849,0 1.438022,-1.6875 2.713717,-3.75 1.870221,-3.023706 2.255883,-4.857924 1.991253,-9.470433 -0.282532,-4.924533 0.10983,-6.486019 2.820053,-11.222995 4.775368,-8.346473 7.027927,-9.716491 15.565807,-9.467195 3.91231,0.114235 7.77645,-0.196642 8.58697,-0.690838 C 119.93093,28.904342 122.35528,24.45 124.50786,19.5 131.79535,2.7419513 134.20004,0 141.60935,0 c 4.38013,0 5.94064,0.5380801 9.55457,3.2945159 2.37567,1.8119837 5.57902,5.1700376 7.11855,7.4623421 2.22015,3.305723 3.56638,4.284921 6.50834,4.733922 10.53172,1.607347 15.45636,3.036924 23.17508,6.727522 8.41876,4.025316 8.50011,4.041539 14.61529,2.914772 8.39422,-1.546695 18.78732,-1.423773 22.84145,0.270151 8.91356,3.724325 6.31604,21.643577 -5.3866,37.159951 -3.63423,4.818567 -3.92084,5.760641 -5.93271,19.5 -3.57834,24.437024 -2.78871,30.586504 5.7139,44.498734 2.6683,4.36595 8.27371,13.56309 12.45646,20.43809 8.12684,13.35774 11.93581,23.03105 13.8063,35.06276 2.12376,13.66073 -0.74133,28.15528 -7.64412,38.67186 -3.98819,6.0761 -4.0363,6.26538 -1.59241,6.26538 2.88853,0 13.32399,3.84156 15.30465,5.63403 5.28214,4.78027 -8.58955,10.05115 -35.1481,13.35535 -4.675,0.58162 -13.17874,2.22407 -18.89721,3.64988 -9.55868,2.38331 -11.4136,2.53501 -23,1.88099 -16.51597,-0.93228 -61.16445,-0.59644 -72.60279,0.5461 -8.456589,0.84471 -44.209728,1.01342 -53,0.25009 z M 160.5786,86.103669 c 8.41431,-3.82159 11.30558,-11.735004 7.26402,-19.881624 C 166.08101,62.671146 164.39338,60.941962 161.03811,59.25 158.58407,58.0125 155.7925,57 154.83462,57 c -1.64028,0 -1.64415,0.169799 -0.0665,2.918721 2.10225,3.662959 0.88587,7.856858 -2.89411,9.978508 -3.44897,1.935855 -8.37277,0.03585 -9.71265,-3.747936 L 141.22324,63.5 l -1.69258,3.911656 c -3.115,7.198925 0.2684,15.230493 7.87041,18.68291 5.15737,2.342195 8.03619,2.344183 13.17753,0.0091 z M 118.62417,62.939892 c 3.08971,-1.495706 4.82002,-3.226009 6.31572,-6.315725 2.52517,-5.216306 2.54177,-6.966528 0.11673,-12.30785 -1.79967,-3.963902 -4.5282,-6.129424 -9.75186,-7.739641 -2.01842,-0.622186 -2.15181,-0.409017 -1.65598,2.646419 1.12181,6.912924 -7.43323,11.231221 -11.73231,5.922077 -2.014442,-2.48773 -2.459992,-2.09533 -3.417769,3.01006 -1.093281,5.827691 2.321629,12.407685 7.708149,14.85238 5.45581,2.476143 7.18184,2.466729 12.41732,-0.06772 z m -69.362215,8.1557 C 40.040027,68.087413 36.573933,65.892054 33.177578,60.908052 27.715761,52.893073 36.942371,43.06877 44.777494,48.556704 46.848604,50.007366 47,49.979362 47,48.145598 47,47.063302 48.384526,45.012785 50.076725,43.588894 56.741182,37.981123 65,42.039567 65,50.922301 65,54.175774 59.417185,72.633052 58.21503,73.35401 57.821764,73.589861 53.79288,72.573572 49.261955,71.095592 z M 73,27.448712 C 63.022368,21.294602 60.800373,16.668747 65.305896,11.430764 68.11559,8.1642999 72.214184,7.9131358 75.306205,10.817939 l 2.20122,2.067939 2.351248,-2.442939 C 86.166848,3.8887627 95.40349,11.444175 90.353461,19.027494 88.356328,22.026467 79.788304,31.031504 79.037592,30.920531 78.741916,30.876823 76.025,29.314504 73,27.448712 z M 15.287118,26.587226 C 4.4125144,22.546472 1.4742851,19.183772 3.6063457,13.218997 4.8974646,9.6068881 8.1091857,8.7614355 12.341972,10.919433 l 3.513781,1.791427 0.646253,-2.60543 C 18.06759,3.79363 24.110437,1.1104372 28,5 30.746516,7.7465162 30.557204,13.261095 27.490231,19.849297 26.120604,22.79141 25,26.05391 25,27.099297 c 0,2.468175 -1.972172,2.364201 -9.712882,-0.512071 z"
       id="path3755"
       inkscape:connector-curvature="0" />
    <path
       style="fill:#fbb45f"
       d="M 47.613656,251.92486 C 18.752815,249.17328 0.28374928,241.75714 2.3466027,233.74815 6.5568948,217.40176 16.369123,184.08559 17.466333,182.41104 20.462553,177.83823 33.029271,173.90881 50,172.23827 L 57.5,171.5 57.742643,166 c 1.209462,-27.41492 8.557711,-59.42114 18.773197,-81.769015 2.078857,-4.547806 3.600735,-8.386088 3.38195,-8.529517 -0.218784,-0.143428 -2.151159,-1.059064 -4.294167,-2.034747 -5.346605,-2.434238 -3.464748,-4.471436 2.014781,-2.181094 3.872988,1.618838 3.886615,1.616218 6.144986,-1.181595 L 86.02678,67.5 83.817674,66 c -4.611128,-3.130992 -6.290441,-4.855165 -5.50066,-5.647601 0.449357,-0.450867 2.56351,0.185397 4.698117,1.413921 C 85.149739,62.994844 87.11394,64 87.380024,64 c 0.266083,0 1.492997,-1.417304 2.726476,-3.149565 1.789021,-2.512449 2.259946,-4.585894 2.328002,-10.25 0.07721,-6.425902 0.434559,-7.632643 3.761628,-12.702697 4.39921,-6.703864 7.34495,-8.137499 15.93084,-7.753228 3.50517,0.156878 6.87303,-0.02439 7.48415,-0.402824 0.61112,-0.378431 3.23511,-5.602022 5.83109,-11.607979 2.59598,-6.005957 6.20666,-12.5430238 8.02375,-14.5268146 2.82942,-3.08900667 3.93054,-3.60635568086 7.66891,-3.60315434 2.48262,0.00212598 5.65891,0.79834312 7.36513,1.84625694 3.90557,2.3986939 9.29281,7.9257241 11.11167,11.400005 1.17501,2.24443 2.12438,2.752717 5.16401,2.764781 6.33237,0.02513 16.15041,2.847998 24.11028,6.932142 L 196.5,26.853627 203,25.447654 c 7.86265,-1.70072 17.25019,-1.760976 22,-0.141212 9.03033,3.079492 6.75655,21.178478 -4.54701,36.193558 -2.48429,3.3 -4.69052,6.9 -4.90274,8 -1.61709,8.38185 -3.57147,26.365235 -3.56188,32.77498 0.014,9.36383 2.20714,16.24332 8.16293,25.60572 17.51758,27.53734 20.81467,33.82308 23.92896,45.6193 2.93133,11.10322 2.95219,25.60736 0.0498,34.6233 -4.43159,13.76622 -15.55043,26.99929 -29.11742,34.65403 -17.23097,9.72202 -45.64878,12.10919 -59.41024,4.99062 -3.39162,-1.75443 -5.57511,-2.07928 -12.6024,-1.87494 -4.675,0.13594 -10.75,0.88782 -13.5,1.67083 -14.66939,4.17684 -59.035221,6.53963 -81.886344,4.36102 z M 162.82449,85.297687 c 5.12468,-3.795531 7.4013,-8.287314 6.90426,-13.622179 C 169.009,63.95006 163.62713,58.296187 156.02213,57.276142 l -4.30472,-0.577384 2.28658,3.092766 c 2.01351,2.72342 2.14173,3.442452 1.07371,6.020902 -2.77728,6.704929 -11.688,5.826921 -13.31954,-1.312426 -0.3763,-1.646615 -0.7487,-1.343078 -2.10761,1.717881 -2.0209,4.552095 -2.10776,9.002689 -0.24556,12.581779 1.75696,3.376835 5.3323,6.75905 8.59552,8.131249 3.68396,1.549115 11.7231,0.663408 14.82398,-1.633222 z M 118.92892,63.248446 c 12.17414,-6.207746 9.62792,-24.254197 -3.79324,-26.884763 -3.17199,-0.621715 -3.30062,-0.540386 -2.25,1.422712 1.6155,3.018589 1.37843,4.949499 -0.88568,7.213605 -2.84719,2.847186 -7.39153,2.589003 -9.86909,-0.560705 l -2.01425,-2.560705 -1.187718,3.964244 c -3.78987,12.64946 8.445278,23.297491 19.999978,17.405612 z M 50.5,71.507926 C 38.841486,67.86309 34.353311,64.719712 32.021455,58.566127 c -1.460706,-3.854688 0.26638,-8.146492 4.069739,-10.113285 3.604575,-1.863999 5.916248,-1.836358 8.6863,0.103862 C 46.802462,49.975047 47,49.96821 47,48.479781 c 0,-0.898495 1.315385,-2.949012 2.923077,-4.556704 5.761202,-5.761202 13.628437,-2.685677 14.762739,5.771174 0.373209,2.782481 -0.379232,6.584915 -2.641416,13.348293 -1.739808,5.201601 -3.474038,9.726636 -3.853844,10.055635 C 57.81075,73.427177 54.35,72.711564 50.5,71.507926 z m 22,-44.639065 C 62.749275,20.6933 60.911766,16.924477 65.07258,11.634859 c 2.577581,-3.2768638 7.740785,-3.6035576 10.406089,-0.65843 1.776005,1.962463 1.80944,1.95893 4.731713,-0.5 C 81.82907,9.1143932 84.243924,8 85.576725,8 88.597551,8 92,11.282192 92,14.196249 92,17.155876 87.67069,23.215612 82.628463,27.31359 L 78.5,30.668925 72.5,26.868861 z M 16.836372,27.081163 C 10.222471,24.965974 4.4502059,21.615601 3.5992235,19.397977 0.74174566,11.951509 7.9224552,7.0047625 14.303347,12.023973 l 2.573064,2.023972 0.311795,-3.674631 C 17.788447,3.2992092 26.106133,0.54799868 28.828561,6.5230765 29.472852,7.9371427 30,10.213663 30,11.58201 c 0,2.540514 -5.980818,17.461736 -6.960033,17.364213 -0.296982,-0.02958 -3.0886,-0.868855 -6.203595,-1.86506 z"
       id="path3753"
       inkscape:connector-curvature="0" />
    <path
       style="fill:#df6991"
       d="M 47.613656,251.92486 C 18.752815,249.17328 0.28374928,241.75714 2.3466027,233.74815 6.5568948,217.40176 16.369123,184.08559 17.466333,182.41104 20.462553,177.83823 33.029271,173.90881 50,172.23827 L 57.5,171.5 58.191764,160.4443 c 1.661961,-26.56128 9.820255,-59.58703 19.431501,-78.661056 1.307204,-2.594216 2.372158,-5.069216 2.366564,-5.5 -0.0056,-0.430784 -1.892078,-1.57426 -4.192187,-2.541057 -2.947288,-1.238824 -3.868879,-2.07095 -3.121425,-2.818404 0.747455,-0.747455 2.206621,-0.581572 4.942187,0.561844 3.872988,1.618838 3.886615,1.616218 6.144986,-1.181595 L 86.02678,67.5 83.817674,66 c -4.538278,-3.081526 -6.295593,-4.850001 -5.556487,-5.591774 0.418653,-0.420163 2.504922,0.216101 4.636154,1.41392 C 85.028574,63.019966 87.017897,64 87.31806,64 c 0.300164,0 1.554961,-1.417304 2.78844,-3.149565 1.789021,-2.512449 2.259946,-4.585894 2.328002,-10.25 0.07721,-6.425902 0.434559,-7.632643 3.761628,-12.702697 4.49208,-6.84539 7.43672,-8.227752 16.5148,-7.752876 L 119.5,30.5 121.74519,26 c 1.23486,-2.475 3.83011,-7.960638 5.76723,-12.190306 C 132.11711,3.7554311 135.82374,0 141.14266,0 c 2.19385,0 4.97174,0.50255634 6.17308,1.1167919 3.20763,1.6400318 10.62216,8.9598831 12.29015,12.1332081 1.14764,2.183386 2.15118,2.75 4.87057,2.75 6.34747,0 13.9733,2.144403 23.02354,6.474282 l 9,4.305842 7,-1.477533 c 9.05013,-1.910267 20.72822,-1.311014 23.50993,1.206393 6.51413,5.895213 3.3326,21.879469 -7.11195,35.730862 -2.1815,2.893085 -4.139,6.160154 -4.34998,7.260154 -1.70348,8.881398 -3.56495,26.517464 -3.53589,33.5 0.0437,10.49556 1.82341,15.18086 11.58562,30.5 12.19134,19.13098 15.57626,25.31355 18.49478,33.78073 3.49014,10.12559 4.9962,22.52146 3.84764,31.66864 -2.8854,22.97941 -20.69714,42.53144 -45.3032,49.72953 -15.19872,4.44613 -35.43928,4.051 -44.96974,-0.87789 -3.46355,-1.79126 -5.60248,-2.11343 -12.66721,-1.908 -4.675,0.13594 -10.75,0.88782 -13.5,1.67083 -14.66939,4.17684 -59.035221,6.53963 -81.886344,4.36102 z m 95.207344,-56.22 c 1.42987,-1.63421 1.40662,-2.57557 -0.25933,-10.5 -2.67647,-12.73124 -3.15724,-33.9668 -1.10267,-48.70486 3.6949,-26.50452 3.44329,-30.7529 -2.03135,-34.29908 l -3.54935,-2.299084 -5.47666,2.049084 c -6.37979,2.38698 -13.07606,2.62978 -17.82332,0.64625 C 108.5669,100.92109 101,94.300599 101,92.466971 c 0,-2.551063 2.55115,-2.173066 5.75,0.851963 l 3.25,3.0734 0,-6.149114 c 0,-4.982486 -0.75278,-8.546541 -2.53242,-11.989823 -0.0701,-0.135632 -2.36114,0.416729 -5.0912,1.22747 C 92.88028,82.300906 86.690897,89.932452 80.473779,106.48691 75.088641,120.82603 70,148.22357 70,162.87834 L 70,171 l 10.276234,0 c 17.478084,0 36.854546,3.0912 45.012996,7.1811 4.73662,2.37451 6.85301,5.82378 10.24128,16.69116 l 2.67568,8.58183 1.52206,-2.97705 c 0.83714,-1.63737 2.22888,-3.78486 3.09275,-4.77218 z M 128.69129,97.927252 c 2.48599,-0.945189 2.60764,-1.180419 1.05871,-2.047261 -2.00775,-1.123621 -2.36794,-3.895713 -0.5,-3.848188 0.6875,0.01749 2.10379,0.678077 3.14732,1.467967 3.92584,2.971638 3.48458,0.181966 -0.62204,-3.932572 -4.26903,-4.277262 -4.28426,-4.282832 -10.42284,-3.812578 -5.89669,0.451724 -6.17214,0.593862 -6.75,3.483161 -1.27664,6.383203 -0.75325,9.591255 1.64756,10.098487 2.92309,0.617578 8.88775,-0.05794 12.44129,-1.409016 z M 139.5,97 c -0.33992,-0.55 -0.81648,-1 -1.05902,-1 C 138.19844,96 138,96.45 138,97 c 0,0.55 0.47656,1 1.05902,1 0.58246,0 0.7809,-0.45 0.44098,-1 z m 22.00018,-11.00009 c 13.5248,-6.547239 9.68323,-26.690213 -5.47805,-28.723768 l -4.30472,-0.577384 2.28658,3.092766 c 2.03051,2.746413 2.14774,3.427942 1.04686,6.085717 -2.69255,6.500396 -11.70584,5.56654 -13.29269,-1.377241 -0.3763,-1.646615 -0.7487,-1.343078 -2.10761,1.717881 -6.12057,13.786648 7.93919,26.515958 21.84963,19.782029 z M 118.92892,63.248446 c 4.77912,-2.436937 7.2793,-6.275526 7.76638,-11.923954 0.65112,-7.550694 -3.90205,-13.415841 -11.61189,-14.95781 -3.16397,-0.632793 -3.25975,-0.564691 -2.14233,1.523227 3.53646,6.60793 -6.09685,12.541403 -10.75244,6.622783 l -1.95651,-2.487308 -1.245204,3.006181 c -1.497145,3.614426 -0.791096,10.092171 1.477364,13.554275 3.92588,5.991656 11.90622,8.006816 18.46463,4.662606 z m 88.9166,-8.771915 C 211.0084,51.815142 216,42.845104 216,39.822708 c 0,-2.350074 -3.70131,-3.218247 -10.92706,-2.563038 -13.41108,1.216074 -15.76846,6.969417 -6.75678,16.49033 3.70118,3.910329 5.57578,4.053251 9.52936,0.726531 z M 143.24369,20.86958 c 1.63602,-0.87557 1.89849,-1.772899 1.46465,-5.007373 C 144.13243,11.56848 142.52106,9 140.40324,9 c -1.46813,0 -3.75483,3.910757 -5.98849,10.24162 l -1.41631,4.014245 4.12603,-0.659777 c 2.26931,-0.362878 5.02296,-1.139806 6.11922,-1.726508 z M 50.5,71.507926 C 38.841486,67.86309 34.353311,64.719712 32.021455,58.566127 c -1.460706,-3.854688 0.26638,-8.146492 4.069739,-10.113285 3.604575,-1.863999 5.916248,-1.836358 8.6863,0.103862 C 46.802462,49.975047 47,49.96821 47,48.479781 c 0,-0.898495 1.315385,-2.949012 2.923077,-4.556704 5.761202,-5.761202 13.628437,-2.685677 14.762739,5.771174 0.373209,2.782481 -0.379232,6.584915 -2.641416,13.348293 -1.739808,5.201601 -3.474038,9.726636 -3.853844,10.055635 C 57.81075,73.427177 54.35,72.711564 50.5,71.507926 z m 22,-44.639065 C 62.749275,20.6933 60.911766,16.924477 65.07258,11.634859 c 2.577581,-3.2768638 7.740785,-3.6035576 10.406089,-0.65843 1.776005,1.962463 1.80944,1.95893 4.731713,-0.5 C 81.82907,9.1143932 84.243924,8 85.576725,8 88.597551,8 92,11.282192 92,14.196249 92,17.155876 87.67069,23.215612 82.628463,27.31359 L 78.5,30.668925 72.5,26.868861 z M 16.836372,27.081163 C 10.222471,24.965974 4.4502059,21.615601 3.5992235,19.397977 0.74174566,11.951509 7.9224552,7.0047625 14.303347,12.023973 l 2.573064,2.023972 0.311795,-3.674631 C 17.788447,3.2992092 26.106133,0.54799868 28.828561,6.5230765 29.472852,7.9371427 30,10.213663 30,11.58201 c 0,2.540514 -5.980818,17.461736 -6.960033,17.364213 -0.296982,-0.02958 -3.0886,-0.868855 -6.203595,-1.86506 z"
       id="path3751"
       inkscape:connector-curvature="0" />
    <path
       style="fill:#dd5977"
       d="m 56.5,252.4253 c -26.005676,-2.50755 -40.522902,-5.49056 -47.9754375,-9.85804 -4.7774121,-2.79975 -7.2802136,-7.27968 -5.7132498,-10.22653 0.5383357,-1.0124 3.7965243,-12.3136 7.2404193,-25.11377 4.38077,-16.28232 6.912935,-23.97581 8.429921,-25.61266 1.192562,-1.2868 4.742842,-3.30289 7.889511,-4.48021 6.053943,-2.26507 21.586812,-5.12332 27.878836,-5.13007 L 58,172 58.0082,165.75 C 58.036724,144.02534 65.838082,108.73582 75.43063,86.939476 77.943783,81.229048 80,76.296981 80,75.979328 80,75.661675 78.425,74.83225 76.5,74.13616 74.575,73.440071 73,72.224672 73,71.435272 c 0,-1.768212 -0.0426,-1.768846 4.345757,0.06473 4.759674,1.988719 4.884679,1.961065 6.864817,-1.518667 l 1.710574,-3.006021 -3.960574,-2.5002 C 78.222913,62.11563 76.811862,60 78.97583,60 c 0.536707,0 2.449207,0.898318 4.25,1.996262 4.217029,2.571123 4.236246,2.567923 6.88067,-1.145827 1.789021,-2.512449 2.259946,-4.585894 2.328002,-10.25 0.07721,-6.425902 0.434559,-7.632643 3.761628,-12.702697 4.49206,-6.845363 7.43664,-8.227696 16.51475,-7.752853 L 119.5,30.5 121.74519,26 c 1.23486,-2.475 3.83011,-7.960638 5.76723,-12.190306 C 132.1119,3.7668091 135.82538,0 141.12658,0 c 2.18501,0 5.21123,0.64045021 6.72495,1.4232227 2.99985,1.5512853 10.23681,9.0048163 12.07125,12.4324903 C 160.7833,15.463609 162.00961,16 164.82508,16 c 5.9069,0 14.97414,2.659119 23.67492,6.943065 l 8,3.938906 7.5,-1.512634 c 8.74571,-1.763874 18.91845,-1.308013 22.45014,1.006034 3.438,2.252666 4.68485,7.527092 3.40983,14.424294 -1.21422,6.568318 -6.55549,17.645017 -10.88798,22.579458 -2.74783,3.129603 -3.24617,4.784052 -5.01161,16.638075 -1.07821,7.2396 -1.9497,17.284885 -1.93664,22.322852 0.0291,11.23357 1.64069,15.57233 11.57399,31.15995 16.48849,25.87418 20.55916,35.03417 22.22599,50.01378 1.69576,15.23955 -1.02945,27.14089 -8.91422,38.9296 -10.47185,15.65671 -26.27063,25.26077 -46.9095,28.51624 -12.94222,2.04143 -28.35899,0.38608 -35.32175,-3.79261 -2.84588,-1.70796 -4.27631,-1.82513 -13.67825,-1.12044 -5.775,0.43284 -12.075,1.27915 -14,1.88068 -9.89161,3.09098 -55.14737,5.97839 -70.5,4.49805 z m 86.321,-56.72044 c 1.42987,-1.63421 1.40662,-2.57557 -0.25933,-10.5 -2.67647,-12.73124 -3.15724,-33.9668 -1.10267,-48.70486 3.6949,-26.50452 3.44329,-30.7529 -2.03135,-34.29908 l -3.54935,-2.299084 -5.47666,2.049084 c -6.37979,2.38698 -13.07606,2.62978 -17.82332,0.64625 C 108.5669,100.92109 101,94.300599 101,92.466971 c 0,-2.551063 2.55115,-2.173066 5.75,0.851963 l 3.25,3.0734 0,-6.149114 c 0,-4.982486 -0.75278,-8.546541 -2.53242,-11.989823 -0.0701,-0.135632 -2.36114,0.416729 -5.0912,1.22747 C 92.88028,82.300906 86.690897,89.932452 80.473779,106.48691 75.088641,120.82603 70,148.22357 70,162.87834 L 70,171 l 10.276234,0 c 17.478084,0 36.854546,3.0912 45.012996,7.1811 4.73662,2.37451 6.85301,5.82378 10.24128,16.69116 l 2.67568,8.58183 1.52206,-2.97705 c 0.83714,-1.63737 2.22888,-3.78486 3.09275,-4.77218 z M 128.69129,97.927252 c 2.48599,-0.945189 2.60764,-1.180419 1.05871,-2.047261 -2.00775,-1.123621 -2.36794,-3.895713 -0.5,-3.848188 0.6875,0.01749 2.10379,0.678077 3.14732,1.467967 3.92584,2.971638 3.48458,0.181966 -0.62204,-3.932572 -4.26903,-4.277262 -4.28426,-4.282832 -10.42284,-3.812578 -5.89669,0.451724 -6.17214,0.593862 -6.75,3.483161 -1.27664,6.383203 -0.75325,9.591255 1.64756,10.098487 2.92309,0.617578 8.88775,-0.05794 12.44129,-1.409016 z M 139.5,97 c -0.33992,-0.55 -0.81648,-1 -1.05902,-1 C 138.19844,96 138,96.45 138,97 c 0,0.55 0.47656,1 1.05902,1 0.58246,0 0.7809,-0.45 0.44098,-1 z M 162.53202,85.534105 C 167.37715,82.694666 170,78.027986 170,72.246754 170,64.984405 162.24805,57 155.19713,57 c -3.26952,0 -3.4011,0.118551 -1.94237,1.75 3.17631,3.552386 2.20582,9.845313 -1.66828,10.81765 -4.43453,1.112997 -7.00997,0.08564 -8.80599,-3.51275 l -1.71951,-3.4451 -1.53049,3.662981 c -5.99996,14.359929 9.38356,27.241984 23.00153,19.261324 z M 119.75914,63.005402 c 4.36947,-2.664099 7.23338,-7.615362 7.23338,-12.505402 0,-6.93047 -6.66003,-14.486255 -12.7777,-14.496262 -1.98973,-0.0033 -2.14418,0.259734 -1.1946,2.034035 3.45666,6.458842 -6.24842,12.301463 -10.80709,6.506047 l -1.93203,-2.456179 -1.140551,2.503233 c -5.652187,12.405198 9.004891,25.495485 20.618591,18.414528 z m 88.08638,-8.528871 C 211.0084,51.815142 216,42.845104 216,39.822708 c 0,-2.350074 -3.70131,-3.218247 -10.92706,-2.563038 -13.41108,1.216074 -15.76846,6.969417 -6.75678,16.49033 3.70118,3.910329 5.57578,4.053251 9.52936,0.726531 z M 143.24369,20.86958 c 1.63602,-0.87557 1.89849,-1.772899 1.46465,-5.007373 C 144.13243,11.56848 142.52106,9 140.40324,9 c -1.46813,0 -3.75483,3.910757 -5.98849,10.24162 l -1.41631,4.014245 4.12603,-0.659777 c 2.26931,-0.362878 5.02296,-1.139806 6.11922,-1.726508 z M 49,70.624314 c -12.476957,-4.29916 -16.987917,-8.333376 -16.996262,-15.2 -0.0076,-6.215491 7.780122,-9.76163 13.379847,-6.092549 2.468881,1.617673 2.495259,1.60263 2.804369,-1.599366 0.244289,-2.530524 1.085053,-3.646284 3.872035,-5.138497 6.904949,-3.697063 12.370892,0.467038 12.170338,9.271688 -0.131051,5.753304 -5.329274,20.563758 -7.306215,20.816413 C 56.14085,72.782105 52.575,71.856145 49,70.624314 z M 71.756055,25.942747 c -4.827571,-2.896508 -6.945403,-4.813049 -7.452896,-6.744533 -1.026985,-3.908628 -0.463131,-6.458987 1.8678,-8.448214 2.871176,-2.4502756 6.527383,-2.1785383 9.178601,0.682174 2.206985,2.381376 2.279743,2.391052 3.483634,0.463317 1.519305,-2.4327934 5.791591,-4.1493551 8.325529,-3.3451142 2.852905,0.9054768 5.132772,4.9558432 4.2879,7.6177982 -0.688682,2.169847 -11.109676,13.837691 -12.348843,13.826358 -0.328779,-0.003 -3.632555,-1.826311 -7.341725,-4.051786 z m -54.333297,0.96799 C 5.8248035,23.328222 0.87270033,17.895615 4.3572654,12.577497 6.4025204,9.4560427 9.1463921,9.3093224 13.631966,12.081559 L 17,14.163119 17,11.192343 C 17,7.7872921 19.480423,4.4700753 22.733351,3.5247924 25.65035,2.6771288 30,6.8744354 30,10.536932 c 0,1.445313 -1.295206,5.628267 -2.878236,9.295455 -1.58303,3.667187 -3.04553,7.182401 -3.25,7.811587 -0.263,0.80929 -2.149741,0.594772 -6.449006,-0.733237 z"
       id="path3749"
       inkscape:connector-curvature="0" />
    <path
       style="fill:#f48533"
       d="M 53.252672,251.97728 C 39.188266,250.87245 24.63423,248.42382 16.638306,245.81713 6.3794449,242.47272 0.49375788,236.68296 2.8593715,232.26277 c 0.5858233,-1.09462 3.8021924,-12.06117 7.1474865,-24.3701 3.345295,-12.30893 6.743548,-23.38899 7.551675,-24.62235 3.360087,-5.12814 12.830493,-8.42085 29.940088,-10.40969 l 10.215236,-1.18743 0.641168,-11.2261 C 59.825858,134.69457 66.67551,106.35178 76.91307,83.656783 78.610882,79.893013 80,76.440412 80,75.984335 80,75.528258 78.425,74.635307 76.5,74 74.575,73.364693 73,72.204794 73,71.422448 c 0,-1.754039 -0.03955,-1.754744 4.345757,0.07755 4.759674,1.988719 4.884679,1.961065 6.864817,-1.518667 l 1.710574,-3.006021 -3.960574,-2.5002 C 78.051249,62.007263 76.816565,59.978948 79.25,60.022236 79.9375,60.034466 81.625,60.924459 83,62 c 3.435308,2.687137 4.504843,2.504125 7.160385,-1.225239 1.826687,-2.565347 2.300976,-4.568132 2.318094,-9.788652 0.01872,-5.70804 0.477656,-7.319927 3.521521,-12.368271 4.55761,-7.558938 7.42652,-9.039827 16.10349,-8.312381 8.10669,0.679636 8.10284,0.683043 13.34254,-11.805457 3.64754,-8.6936596 7.30236,-14.6793735 10.51328,-17.2181966 2.10593,-1.6651222 8.54687,-1.58852813 11.89222,0.1414193 2.99985,1.5512853 10.23681,9.0048163 12.07125,12.4324903 C 160.78164,15.46051 162.01005,16 164.80528,16 c 5.65753,0 17.94244,3.709301 24.90523,7.519876 l 6.21051,3.398871 7.62746,-1.459374 c 13.18477,-2.522662 22.10421,-1.445259 25.0324,3.023728 4.3975,6.711421 -0.49704,24.045789 -10.00184,35.422299 C 216.2712,66.667702 215,69.224983 215,71.105379 c 0,1.603883 -0.71705,7.298807 -1.59345,12.655386 -3.41592,20.878145 -1.85579,31.080815 6.78707,44.385055 12.42894,19.13228 19.72726,32.33269 22.42229,40.55503 2.62901,8.02091 2.88223,10.03738 2.86309,22.79915 -0.0195,12.99431 -0.21811,14.46693 -2.76506,20.5 -5.46313,12.94074 -17.47289,25.65996 -30.07278,31.84926 -18.12774,8.90469 -43.48983,10.53694 -56.91898,3.66318 -4.27794,-2.18968 -5.63805,-2.38902 -13,-1.90527 -4.5222,0.29716 -12.04718,1.38169 -16.72218,2.41007 -17.38324,3.82389 -51.109543,5.65979 -72.747328,3.96004 z m 44.030593,-50.41063 c 11.355115,-1.8432 20.546915,-4.93661 25.647385,-8.63138 5.1135,-3.7042 5.40272,-5.91848 0.31935,-2.44495 -9.37628,6.40693 -26.865621,9.03731 -54.599985,8.21179 -13.33565,-0.39694 -21.90111,-1.16185 -28.210939,-2.51928 -8.702925,-1.87225 -16.61096,-5.03389 -17.930244,-7.16854 C 22.164056,188.45643 21.374333,188 20.753892,188 c -2.302777,0 4.648299,5.92673 9.296055,7.92614 5.230528,2.25011 14.951889,4.69936 23.832018,6.00436 9.372666,1.37739 33.943379,1.1714 43.4013,-0.36385 z M 142.821,195.70486 c 1.42987,-1.63421 1.40662,-2.57557 -0.25933,-10.5 -2.67647,-12.73124 -3.15724,-33.9668 -1.10267,-48.70486 3.6949,-26.50452 3.44329,-30.7529 -2.03135,-34.29908 l -3.54935,-2.299084 -5.47666,2.049084 c -6.37979,2.38698 -13.07606,2.62978 -17.82332,0.64625 C 108.5669,100.92109 101,94.300599 101,92.466971 c 0,-2.551063 2.55115,-2.173066 5.75,0.851963 l 3.25,3.0734 0,-6.149114 c 0,-4.982486 -0.75278,-8.546541 -2.53242,-11.989823 -0.0701,-0.135632 -2.36114,0.416729 -5.0912,1.22747 C 92.88028,82.300906 86.690897,89.932452 80.473779,106.48691 75.088641,120.82603 70,148.22357 70,162.87834 L 70,171 l 8.75,0.1876 c 16.94063,0.36321 26.19504,1.35166 36.25,3.87181 2.475,0.62033 4.95,1.22426 5.5,1.34207 0.55,0.11782 2.85058,1.17823 5.11239,2.35649 3.7287,1.9424 7.2891,6.81958 7.99233,10.94824 0.28695,1.68463 3.55122,11.60214 4.17568,12.68656 0.28276,0.49102 1.17916,-0.40898 1.99201,-2 0.81285,-1.59102 2.18472,-3.70059 3.04859,-4.68791 z M 128.69129,97.927252 c 2.48599,-0.945189 2.60764,-1.180419 1.05871,-2.047261 -2.00775,-1.123621 -2.36794,-3.895713 -0.5,-3.848188 0.6875,0.01749 2.10379,0.678077 3.14732,1.467967 3.92584,2.971638 3.48458,0.181966 -0.62204,-3.932572 -4.26903,-4.277262 -4.28426,-4.282832 -10.42284,-3.812578 -5.89669,0.451724 -6.17214,0.593862 -6.75,3.483161 -1.27664,6.383203 -0.75325,9.591255 1.64756,10.098487 2.92309,0.617578 8.88775,-0.05794 12.44129,-1.409016 z M 139.5,97 c -0.33992,-0.55 -0.81648,-1 -1.05902,-1 C 138.19844,96 138,96.45 138,97 c 0,0.55 0.47656,1 1.05902,1 0.58246,0 0.7809,-0.45 0.44098,-1 z m 22.8959,-11.26645 c 7.35707,-4.217866 9.87853,-14.06276 5.3303,-20.81187 C 164.59399,60.273783 159.41611,57 155.19713,57 c -3.33428,0 -3.42555,0.09011 -1.85212,1.828741 0.91025,1.005807 1.65499,3.186063 1.65499,4.845012 0,4.054837 -2.90919,6.553501 -7.15646,6.146582 -2.6425,-0.25317 -3.69425,-1.022708 -5.01621,-3.670218 l -1.67267,-3.349883 -1.68865,3.265486 c -2.34785,4.540257 -1.54929,12.134834 1.64033,15.599949 6.16221,6.694449 14.07195,8.205795 21.28956,4.067881 z M 119.75914,63.005402 c 4.36947,-2.664099 7.23338,-7.615362 7.23338,-12.505402 0,-6.899726 -6.65735,-14.486091 -12.72108,-14.496262 -2.02127,-0.0034 -2.12138,0.231491 -1.07632,2.525155 0.96647,2.121169 0.82615,2.967606 -0.87031,5.25 -2.81529,3.787639 -7.438,4.163963 -10.06863,0.819662 l -1.97508,-2.510914 -1.140551,2.503233 c -5.652187,12.405198 9.004891,25.495485 20.618591,18.414528 z m 88.08638,-8.528871 C 211.0084,51.815142 216,42.845104 216,39.822708 c 0,-2.350074 -3.70131,-3.218247 -10.92706,-2.563038 -13.41108,1.216074 -15.76846,6.969417 -6.75678,16.49033 3.70118,3.910329 5.57578,4.053251 9.52936,0.726531 z M 143.24369,20.86958 c 1.63602,-0.87557 1.89849,-1.772899 1.46465,-5.007373 C 144.13243,11.56848 142.52106,9 140.40324,9 c -1.46813,0 -3.75483,3.910757 -5.98849,10.24162 l -1.41631,4.014245 4.12603,-0.659777 c 2.26931,-0.362878 5.02296,-1.139806 6.11922,-1.726508 z M 48.693526,70.483831 C 36.570853,66.226199 32,62.047899 32,55.223974 32,48.934857 41.419904,45.419904 46,50 c 2,2 2,2 2,-0.565741 0,-3.899311 1.636898,-6.15932 5.348281,-7.384187 3.994599,-1.318337 8.0016,-0.133348 9.590917,2.836319 0.583441,1.090169 1.050476,4.14921 1.037856,6.797868 -0.02768,5.808363 -5.043015,20.737905 -7.055591,21.002915 -0.781805,0.102946 -4.484376,-0.888559 -8.227937,-2.203343 z M 73.716921,27.092855 C 66.385549,22.791315 64,20.147925 64,16.325686 64,12.467297 66.932268,9 70.195281,9 c 1.207405,0 3.417153,1.170627 4.910552,2.601394 2.632348,2.52195 2.747374,2.541408 3.766502,0.637151 0.578177,-1.080335 2.415774,-2.5294564 4.083547,-3.2202709 5.71081,-2.3654948 10.28489,3.0083259 7.377649,8.6675699 -1.427465,2.778709 -10.253937,12.36143 -11.295939,12.263772 -0.295676,-0.02771 -2.689977,-1.313253 -5.320671,-2.856761 z M 16.690079,26.526746 C 5.2382648,22.816164 0.87917332,17.885736 4.3572654,12.577497 6.538725,9.2481683 9.9578894,9.2522419 13.923275,12.588894 L 17,15.177787 17.0318,11.838894 c 0.03575,-3.7537419 1.382388,-5.9337427 4.785255,-7.7466232 1.905922,-1.0153819 2.740463,-0.9569887 4.703267,0.3290897 3.589524,2.3519467 4.133618,7.3487445 1.440186,13.2262555 -1.22301,2.668811 -2.737165,6.251561 -3.364787,7.961666 l -1.141132,3.109281 -6.764513,-2.191817 z"
       id="path3747"
       inkscape:connector-curvature="0" />
    <path
       style="fill:#ec2963"
       d="M 53.252672,251.97728 C 39.188266,250.87245 24.63423,248.42382 16.638306,245.81713 6.3794449,242.47272 0.49375788,236.68296 2.8593715,232.26277 c 0.5858233,-1.09462 3.8021924,-12.06117 7.1474865,-24.3701 3.345295,-12.30893 6.743548,-23.38899 7.551675,-24.62235 3.360087,-5.12814 12.830493,-8.42085 29.940088,-10.40969 l 10.215236,-1.18743 0.641168,-11.2261 C 59.825858,134.69457 66.67551,106.35178 76.91307,83.656783 78.610882,79.893013 80,76.440412 80,75.984335 80,75.528258 78.425,74.635307 76.5,74 74.575,73.364693 73,72.204794 73,71.422448 c 0,-1.754039 -0.03955,-1.754744 4.345757,0.07755 4.759674,1.988719 4.884679,1.961065 6.864817,-1.518667 l 1.710574,-3.006021 -3.960574,-2.5002 C 78.051249,62.007263 76.816565,59.978948 79.25,60.022236 79.9375,60.034466 81.625,60.924459 83,62 c 3.435308,2.687137 4.504843,2.504125 7.160385,-1.225239 1.826687,-2.565347 2.300976,-4.568132 2.318094,-9.788652 0.01872,-5.70804 0.477656,-7.319927 3.521521,-12.368271 4.55761,-7.558938 7.42652,-9.039827 16.10349,-8.312381 8.10669,0.679636 8.10284,0.683043 13.34254,-11.805457 3.64754,-8.6936596 7.30236,-14.6793735 10.51328,-17.2181966 2.10593,-1.6651222 8.54687,-1.58852813 11.89222,0.1414193 2.99985,1.5512853 10.23681,9.0048163 12.07125,12.4324903 C 160.78164,15.46051 162.01005,16 164.80528,16 c 5.65753,0 17.94244,3.709301 24.90523,7.519876 l 6.21051,3.398871 7.62746,-1.459374 c 13.18477,-2.522662 22.10421,-1.445259 25.0324,3.023728 4.3975,6.711421 -0.49704,24.045789 -10.00184,35.422299 C 216.2712,66.667702 215,69.224983 215,71.105379 c 0,1.603883 -0.71705,7.298807 -1.59345,12.655386 -3.41592,20.878145 -1.85579,31.080815 6.78707,44.385055 12.42894,19.13228 19.72726,32.33269 22.42229,40.55503 2.62901,8.02091 2.88223,10.03738 2.86309,22.79915 -0.0195,12.99431 -0.21811,14.46693 -2.76506,20.5 -5.46313,12.94074 -17.47289,25.65996 -30.07278,31.84926 -18.12774,8.90469 -43.48983,10.53694 -56.91898,3.66318 -4.27794,-2.18968 -5.63805,-2.38902 -13,-1.90527 -4.5222,0.29716 -12.04718,1.38169 -16.72218,2.41007 -17.38324,3.82389 -51.109543,5.65979 -72.747328,3.96004 z m 143.084888,-8.53922 c 19.6874,-5.01994 36.30938,-19.8423 41.65317,-37.14346 4.29336,-13.9003 1.45254,-34.24786 -6.86281,-49.15533 l -1.31681,-2.36072 -3.65555,3.55601 c -6.47307,6.2968 -15.59727,9.2566 -19.57317,6.34934 -3.01682,-2.20595 -1.38318,-4.95086 5.93041,-9.96457 3.84296,-2.63448 8.06013,-5.85723 9.3715,-7.16167 l 2.3843,-2.37171 -2.31046,-3.34298 c -1.27076,-1.83863 -2.43719,-3.51146 -2.59207,-3.7174 -0.15488,-0.20594 -1.76311,0.87639 -3.57384,2.40517 -4.24,3.5798 -12.53229,7.44698 -15.99518,7.45949 C 195.9745,148.00405 192,145.97708 192,144.0138 c 0,-2.21283 3.21461,-5.07497 10.5,-9.34873 10.45543,-6.13335 10.19381,-5.80008 8.13575,-10.36403 l -1.77133,-3.92812 -5.03014,2.48939 c -2.76658,1.36916 -7.3791,2.68418 -10.25005,2.92226 -4.4153,0.36615 -5.63874,0.0693 -7.93714,-1.92585 -2.53519,-2.20069 -2.61446,-2.50394 -1.18323,-4.52624 0.9316,-1.31633 4.61921,-3.19499 9.39033,-4.78392 11.39321,-3.79429 11.24253,-3.61211 11.65646,-14.09252 0.19455,-4.925821 1.10397,-13.347686 2.02094,-18.715254 l 1.66722,-9.759214 -2.3494,-2.05504 c -1.9,-1.661937 -2.06248,-2.162915 -0.84941,-2.618978 3.14124,-1.180975 10.7947,-10.446736 14.0329,-16.98911 2.40907,-4.867222 3.4915,-8.584675 3.7825,-12.990446 l 0.40766,-6.172003 -4.46194,-0.669109 c -5.11032,-0.76634 -16.65478,0.779722 -26.78613,3.58726 -8.38461,2.323497 -8.60505,2.332282 -9.35693,0.372924 -0.41273,-1.075565 0.34439,-1.948299 2.46303,-2.839117 l 3.05893,-1.286187 -2.46421,-1.614616 C 182.13518,25.732017 171.57309,22.797387 163.5,22.267853 c -8.75935,-0.574548 -12.88859,-2.532005 -9.92011,-4.702609 1.33844,-0.978697 0.77479,-1.885451 -3.94945,-6.353436 C 142.76699,4.7206421 140.06937,4.4189552 136.55929,9.75 c -3.61542,5.491029 -7.90593,15.603387 -6.35109,14.968963 4.98517,-2.034105 4.84795,-2.048666 3.96536,0.42076 -0.46396,1.298152 -3.18397,3.893798 -6.04445,5.768101 l -5.20088,3.407824 2.42172,2.592176 c 7.23544,7.744697 7.55902,18.724541 0.77946,26.448586 C 123.80344,66.006419 117.55173,69 114.34349,69 c -2.35707,0 -2.02516,0.354315 2.3955,2.557224 C 121.56092,73.960095 129,80.868668 129,82.943864 c 0,1.614763 -2.1489,2.373273 -8.42696,2.974523 L 114.5,86.5 l -0.29632,6.195998 -0.29631,6.195998 3.46814,0.650627 c 3.63414,0.681767 8.79728,-0.08263 12.03439,-1.781697 1.7387,-0.912585 1.76111,-1.085722 0.25,-1.931378 -1.93788,-1.084491 -2.23574,-3.844199 -0.4099,-3.797745 0.6875,0.01749 2.12351,0.692492 3.19113,1.5 C 133.50875,94.339312 135.19625,95 136.19113,95 137.18601,95 138,95.564092 138,96.253539 c 0,0.689446 3.825,3.699007 8.5,6.687911 7.78518,4.97737 10.5298,8.05855 7.17831,8.05855 -0.72694,0 -4.88944,-2.49665 -9.25,-5.54811 -8.32198,-5.82359 -8.62904,-5.882913 -15.92831,-3.0772 -5.50158,2.11471 -11.16448,1.95916 -16.5,-0.45323 -4.91026,-2.220109 -11,-7.544549 -11,-9.617627 0,-2.197533 3.23437,-1.452558 6.27865,1.446167 l 2.88809,2.75 -0.42153,-7 c -0.23184,-3.85 -1.04255,-9.612756 -1.80158,-12.806124 -1.15756,-4.870102 -1.16235,-5.940664 -0.0297,-6.640676 1.01342,-0.626327 0.75598,-1.011875 -1.03179,-1.545246 -1.31017,-0.390882 -4.12851,-2.083599 -6.26297,-3.761594 l -3.880842,-3.0509 -1.846923,2.40227 c -1.015808,1.321249 -1.856929,2.710977 -1.869159,3.088285 C 93.010006,67.563324 94.8,68.883687 97,70.120156 c 3.76912,2.118367 4.81709,3.729417 3.36834,5.178172 -0.34742,0.347414 -2.619553,-0.533319 -5.049196,-1.957185 -4.275637,-2.50569 -4.463114,-2.528656 -5.836535,-0.714995 -1.996477,2.636432 -1.976503,2.667658 3.021139,4.722907 C 94.976687,78.366036 97,79.617659 97,80.13044 97,81.893171 94.388203,82.060148 90.729253,80.531341 88.713494,79.689104 86.79571,79 86.467509,79 85.316245,79 78.219225,95.611121 74.653056,106.65264 68.938976,124.34448 64,152.37188 64,167.10595 L 64,171 l 9.25,0.003 c 27.15287,0.01 53.03114,5.1583 57.0476,11.34916 0.76625,1.18108 2.64816,5.97242 4.18203,10.64742 1.53386,4.675 2.99446,8.86091 3.24577,9.30202 0.25132,0.44111 1.74427,-1.22788 3.31767,-3.70888 5.2519,-8.28139 16.24271,-13.76791 24.16279,-12.06185 11.03124,2.37623 14.76203,10.54824 9.17107,20.08851 -3.04573,5.19714 -2.81119,10.39367 0.62379,13.82042 3.00404,2.99684 12.62332,2.67764 19.99928,-0.66364 16.29916,-7.38346 27.3341,-21.37174 28.83513,-36.5524 C 224.33099,178.2093 224.8813,176.5 226,176.5 c 1.2132,0 1.48884,1.52962 1.44164,8 -0.0493,6.75574 -0.51589,8.9332 -3,14 -4.34319,8.85871 -15.05949,19.21343 -24.9361,24.09471 -7.2531,3.58468 -8.57798,3.90529 -16.13801,3.90529 -7.75929,0 -8.41464,-0.17095 -11.31782,-2.95237 -3.4093,-3.26633 -5.53856,-9.46376 -4.57309,-13.3105 0.34432,-1.37187 1.72793,-4.1159 3.0747,-6.09785 3.19998,-4.70918 3.08867,-6.65314 -0.59167,-10.33348 -2.8433,-2.84329 -3.42694,-3.01238 -9.00518,-2.60889 -10.6088,0.76737 -18.90255,9.02936 -18.93802,18.8655 -0.0221,6.12883 5.15659,21.10566 8.95719,25.90431 3.4806,4.39462 9.75305,7.78656 16.75786,9.06212 6.38171,1.16209 20.99732,0.34932 28.60606,-1.59078 z M 146.07517,95.63178 c -13.46865,-4.837348 -16.57086,-6.589358 -14.2296,-8.03634 0.87455,-0.540502 30.54124,9.458033 31.8011,10.717893 0.82611,0.826115 -0.58769,2.700597 -1.95569,2.592937 -0.65504,-0.0516 -7.68215,-2.425069 -15.61581,-5.27449 z M 145.5,90.396322 C 137.77757,86.190323 134,80.309133 134,72.492281 134,61.590148 143.03765,53 154.50772,53 c 11.42234,0 20.12644,9.556039 19.28609,21.173774 -0.4668,6.453463 -2.1305,9.354804 -8.16488,14.238838 -3.19848,2.588744 -4.7134,3.071153 -10.4353,3.323015 -4.75988,0.209517 -7.56031,-0.177401 -9.69363,-1.339305 z m 16.8959,-4.662772 c 7.35707,-4.217866 9.87853,-14.06276 5.3303,-20.81187 C 164.59399,60.273783 159.41611,57 155.19713,57 c -3.33428,0 -3.42555,0.09011 -1.85212,1.828741 0.91025,1.005807 1.65499,3.186063 1.65499,4.845012 0,4.054837 -2.90919,6.553501 -7.15646,6.146582 -2.6425,-0.25317 -3.69425,-1.022708 -5.01621,-3.670218 l -1.67267,-3.349883 -1.68865,3.265486 c -2.34785,4.540257 -1.54929,12.134834 1.64033,15.599949 6.16221,6.694449 14.07195,8.205795 21.28956,4.067881 z M 165.00374,50.25 c 0.005,-2.177165 3.62814,-8.25 4.92254,-8.25 2.02817,0 1.86241,1.779618 -0.54119,5.810284 -2.62512,4.402138 -4.38764,5.383581 -4.38135,2.439716 z m -6.50193,-1.247067 c -0.81557,-1.319632 5.48518,-10.940255 7.18917,-10.977148 2.46243,-0.05331 2.10437,1.768748 -1.28672,6.547777 -3.78217,5.330179 -4.85032,6.131748 -5.90245,4.429371 z m -29.947,-12.914245 c -0.71241,-1.152709 8.38241,-9.24552 9.56729,-8.513223 1.72908,1.068628 0.77983,2.976021 -3.07287,6.174535 -4.05329,3.365039 -5.53118,3.89724 -6.49442,2.338688 z M 97.283265,201.56665 c 11.355115,-1.8432 20.546915,-4.93661 25.647385,-8.63138 5.1135,-3.7042 5.40272,-5.91848 0.31935,-2.44495 -9.37628,6.40693 -26.865621,9.03731 -54.599985,8.21179 -13.33565,-0.39694 -21.90111,-1.16185 -28.210939,-2.51928 -8.702925,-1.87225 -16.61096,-5.03389 -17.930244,-7.16854 C 22.164056,188.45643 21.374333,188 20.753892,188 c -2.302777,0 4.648299,5.92673 9.296055,7.92614 5.230528,2.25011 14.951889,4.69936 23.832018,6.00436 9.372666,1.37739 33.943379,1.1714 43.4013,-0.36385 z M 120,79.038955 C 120,77.945657 116.00124,74 114.89323,74 c -0.40131,0 -1.44146,-0.273145 -2.31144,-0.606989 -3.01038,-1.15519 -1.65733,2.590328 1.66821,4.617949 3.52574,2.149683 5.75,2.547341 5.75,1.027995 z m -0.24086,-16.033553 c 4.36947,-2.664099 7.23338,-7.615362 7.23338,-12.505402 0,-6.899726 -6.65735,-14.486091 -12.72108,-14.496262 -2.02127,-0.0034 -2.12138,0.231491 -1.07632,2.525155 0.96647,2.121169 0.82615,2.967606 -0.87031,5.25 -2.81529,3.787639 -7.438,4.163963 -10.06863,0.819662 l -1.97508,-2.510914 -1.140551,2.503233 c -5.652187,12.405198 9.004891,25.495485 20.618591,18.414528 z M 48.693526,70.483831 C 36.570853,66.226199 32,62.047899 32,55.223974 32,48.934857 41.419904,45.419904 46,50 c 2,2 2,2 2,-0.565741 0,-3.899311 1.636898,-6.15932 5.348281,-7.384187 3.994599,-1.318337 8.0016,-0.133348 9.590917,2.836319 0.583441,1.090169 1.050476,4.14921 1.037856,6.797868 -0.02768,5.808363 -5.043015,20.737905 -7.055591,21.002915 -0.781805,0.102946 -4.484376,-0.888559 -8.227937,-2.203343 z M 73.716921,27.092855 C 66.385549,22.791315 64,20.147925 64,16.325686 64,12.467297 66.932268,9 70.195281,9 c 1.207405,0 3.417153,1.170627 4.910552,2.601394 2.632348,2.52195 2.747374,2.541408 3.766502,0.637151 0.578177,-1.080335 2.415774,-2.5294564 4.083547,-3.2202709 5.71081,-2.3654948 10.28489,3.0083259 7.377649,8.6675699 -1.427465,2.778709 -10.253937,12.36143 -11.295939,12.263772 -0.295676,-0.02771 -2.689977,-1.313253 -5.320671,-2.856761 z M 16.690079,26.526746 C 5.2382648,22.816164 0.87917332,17.885736 4.3572654,12.577497 6.538725,9.2481683 9.9578894,9.2522419 13.923275,12.588894 L 17,15.177787 17.0318,11.838894 c 0.03575,-3.7537419 1.382388,-5.9337427 4.785255,-7.7466232 1.905922,-1.0153819 2.740463,-0.9569887 4.703267,0.3290897 3.589524,2.3519467 4.133618,7.3487445 1.440186,13.2262555 -1.22301,2.668811 -2.737165,6.251561 -3.364787,7.961666 l -1.141132,3.109281 -6.764513,-2.191817 z"
       id="path3745"
       inkscape:connector-curvature="0" />
    <path
       style="fill:#d67127"
       d="M 53.252672,251.97728 C 39.188266,250.87245 24.63423,248.42382 16.638306,245.81713 6.3794449,242.47272 0.49375788,236.68296 2.8593715,232.26277 c 0.5858233,-1.09462 3.8021924,-12.06117 7.1474865,-24.3701 3.345295,-12.30893 6.743548,-23.38899 7.551675,-24.62235 3.360087,-5.12814 12.830493,-8.42085 29.940088,-10.40969 l 10.215236,-1.18743 0.641168,-11.2261 C 59.825858,134.69457 66.67551,106.35178 76.91307,83.656783 78.610882,79.893013 80,76.440412 80,75.984335 80,75.528258 78.425,74.635307 76.5,74 74.575,73.364693 73,72.204794 73,71.422448 c 0,-1.754039 -0.03955,-1.754744 4.345757,0.07755 4.759674,1.988719 4.884679,1.961065 6.864817,-1.518667 l 1.710574,-3.006021 -3.960574,-2.5002 C 78.051249,62.007263 76.816565,59.978948 79.25,60.022236 79.9375,60.034466 81.625,60.924459 83,62 c 3.435308,2.687137 4.504843,2.504125 7.160385,-1.225239 1.826687,-2.565347 2.300976,-4.568132 2.318094,-9.788652 0.01872,-5.70804 0.477656,-7.319927 3.521521,-12.368271 4.55761,-7.558938 7.42652,-9.039827 16.10349,-8.312381 8.10669,0.679636 8.10284,0.683043 13.34254,-11.805457 3.64754,-8.6936596 7.30236,-14.6793735 10.51328,-17.2181966 2.10593,-1.6651222 8.54687,-1.58852813 11.89222,0.1414193 2.99985,1.5512853 10.23681,9.0048163 12.07125,12.4324903 C 160.78164,15.46051 162.01005,16 164.80528,16 c 5.65753,0 17.94244,3.709301 24.90523,7.519876 l 6.21051,3.398871 7.62746,-1.459374 c 13.18477,-2.522662 22.10421,-1.445259 25.0324,3.023728 4.3975,6.711421 -0.49704,24.045789 -10.00184,35.422299 C 216.2712,66.667702 215,69.224983 215,71.105379 c 0,1.603883 -0.71705,7.298807 -1.59345,12.655386 -3.41592,20.878145 -1.85579,31.080815 6.78707,44.385055 12.42894,19.13228 19.72726,32.33269 22.42229,40.55503 2.62901,8.02091 2.88223,10.03738 2.86309,22.79915 -0.0195,12.99431 -0.21811,14.46693 -2.76506,20.5 -5.46313,12.94074 -17.47289,25.65996 -30.07278,31.84926 -18.12774,8.90469 -43.48983,10.53694 -56.91898,3.66318 -4.27794,-2.18968 -5.63805,-2.38902 -13,-1.90527 -4.5222,0.29716 -12.04718,1.38169 -16.72218,2.41007 -17.38324,3.82389 -51.109543,5.65979 -72.747328,3.96004 z m 143.084888,-8.53922 c 19.6874,-5.01994 36.30938,-19.8423 41.65317,-37.14346 4.29336,-13.9003 1.45254,-34.24786 -6.86281,-49.15533 l -1.31681,-2.36072 -3.65555,3.55601 c -6.47307,6.2968 -15.59727,9.2566 -19.57317,6.34934 -3.01682,-2.20595 -1.38318,-4.95086 5.93041,-9.96457 3.84296,-2.63448 8.06013,-5.85723 9.3715,-7.16167 l 2.3843,-2.37171 -2.31046,-3.34298 c -1.27076,-1.83863 -2.43719,-3.51146 -2.59207,-3.7174 -0.15488,-0.20594 -1.76311,0.87639 -3.57384,2.40517 -4.24,3.5798 -12.53229,7.44698 -15.99518,7.45949 C 195.9745,148.00405 192,145.97708 192,144.0138 c 0,-2.21283 3.21461,-5.07497 10.5,-9.34873 10.45543,-6.13335 10.19381,-5.80008 8.13575,-10.36403 l -1.77133,-3.92812 -5.03014,2.48939 c -2.76658,1.36916 -7.3791,2.68418 -10.25005,2.92226 -4.4153,0.36615 -5.63874,0.0693 -7.93714,-1.92585 -2.53519,-2.20069 -2.61446,-2.50394 -1.18323,-4.52624 0.9316,-1.31633 4.61921,-3.19499 9.39033,-4.78392 11.39321,-3.79429 11.24253,-3.61211 11.65646,-14.09252 0.19455,-4.925821 1.10397,-13.347686 2.02094,-18.715254 l 1.66722,-9.759214 -2.3494,-2.05504 c -1.9,-1.661937 -2.06248,-2.162915 -0.84941,-2.618978 3.14124,-1.180975 10.7947,-10.446736 14.0329,-16.98911 2.40907,-4.867222 3.4915,-8.584675 3.7825,-12.990446 l 0.40766,-6.172003 -4.46194,-0.669109 c -5.11032,-0.76634 -16.65478,0.779722 -26.78613,3.58726 -8.38461,2.323497 -8.60505,2.332282 -9.35693,0.372924 -0.41273,-1.075565 0.34439,-1.948299 2.46303,-2.839117 l 3.05893,-1.286187 -2.46421,-1.614616 C 182.13518,25.732017 171.57309,22.797387 163.5,22.267853 c -8.75935,-0.574548 -12.88859,-2.532005 -9.92011,-4.702609 1.33844,-0.978697 0.77479,-1.885451 -3.94945,-6.353436 C 142.76699,4.7206421 140.06937,4.4189552 136.55929,9.75 c -3.61542,5.491029 -7.90593,15.603387 -6.35109,14.968963 4.98517,-2.034105 4.84795,-2.048666 3.96536,0.42076 -0.46396,1.298152 -3.18397,3.893798 -6.04445,5.768101 l -5.20088,3.407824 2.42172,2.592176 c 7.23544,7.744697 7.55902,18.724541 0.77946,26.448586 C 123.80344,66.006419 117.55173,69 114.34349,69 c -2.35707,0 -2.02516,0.354315 2.3955,2.557224 C 121.56092,73.960095 129,80.868668 129,82.943864 c 0,1.614763 -2.1489,2.373273 -8.42696,2.974523 L 114.5,86.5 l -0.29632,6.195998 -0.29631,6.195998 3.46814,0.650627 c 3.63414,0.681767 8.79728,-0.08263 12.03439,-1.781697 1.7387,-0.912585 1.76111,-1.085722 0.25,-1.931378 -1.93788,-1.084491 -2.23574,-3.844199 -0.4099,-3.797745 0.6875,0.01749 2.12351,0.692492 3.19113,1.5 C 133.50875,94.339312 135.19625,95 136.19113,95 137.18601,95 138,95.564092 138,96.253539 c 0,0.689446 3.825,3.699007 8.5,6.687911 7.78518,4.97737 10.5298,8.05855 7.17831,8.05855 -0.72694,0 -4.88944,-2.49665 -9.25,-5.54811 -8.32198,-5.82359 -8.62904,-5.882913 -15.92831,-3.0772 -5.50158,2.11471 -11.16448,1.95916 -16.5,-0.45323 -4.91026,-2.220109 -11,-7.544549 -11,-9.617627 0,-2.197533 3.23437,-1.452558 6.27865,1.446167 l 2.88809,2.75 -0.42153,-7 c -0.23184,-3.85 -1.04255,-9.612756 -1.80158,-12.806124 -1.15756,-4.870102 -1.16235,-5.940664 -0.0297,-6.640676 1.01342,-0.626327 0.75598,-1.011875 -1.03179,-1.545246 -1.31017,-0.390882 -4.12851,-2.083599 -6.26297,-3.761594 l -3.880842,-3.0509 -1.846923,2.40227 c -1.015808,1.321249 -1.856929,2.710977 -1.869159,3.088285 C 93.010006,67.563324 94.8,68.883687 97,70.120156 c 3.76912,2.118367 4.81709,3.729417 3.36834,5.178172 -0.34742,0.347414 -2.619553,-0.533319 -5.049196,-1.957185 -4.275637,-2.50569 -4.463114,-2.528656 -5.836535,-0.714995 -1.996477,2.636432 -1.976503,2.667658 3.021139,4.722907 C 94.976687,78.366036 97,79.617659 97,80.13044 97,81.893171 94.388203,82.060148 90.729253,80.531341 88.713494,79.689104 86.79571,79 86.467509,79 85.316245,79 78.219225,95.611121 74.653056,106.65264 68.938976,124.34448 64,152.37188 64,167.10595 L 64,171 l 8.75,0.0103 c 11.493069,0.0135 31.00075,1.7544 39.35692,3.51217 14.93472,3.14162 18.21235,5.87271 22.43369,18.69297 1.50032,4.5565 2.93348,8.64545 3.18479,9.08656 0.25132,0.44111 1.74427,-1.22788 3.31767,-3.70888 5.2519,-8.28139 16.24271,-13.76791 24.16279,-12.06185 11.03124,2.37623 14.76203,10.54824 9.17107,20.08851 -3.04573,5.19714 -2.81119,10.39367 0.62379,13.82042 3.00404,2.99684 12.62332,2.67764 19.99928,-0.66364 16.29916,-7.38346 27.3341,-21.37174 28.83513,-36.5524 C 224.33099,178.2093 224.8813,176.5 226,176.5 c 1.2132,0 1.48884,1.52962 1.44164,8 -0.0493,6.75574 -0.51589,8.9332 -3,14 -4.34319,8.85871 -15.05949,19.21343 -24.9361,24.09471 -7.2531,3.58468 -8.57798,3.90529 -16.13801,3.90529 -7.75929,0 -8.41464,-0.17095 -11.31782,-2.95237 -3.4093,-3.26633 -5.53856,-9.46376 -4.57309,-13.3105 0.34432,-1.37187 1.72793,-4.1159 3.0747,-6.09785 3.19998,-4.70918 3.08867,-6.65314 -0.59167,-10.33348 -2.8433,-2.84329 -3.42694,-3.01238 -9.00518,-2.60889 -10.6088,0.76737 -18.90255,9.02936 -18.93802,18.8655 -0.0221,6.12883 5.15659,21.10566 8.95719,25.90431 3.4806,4.39462 9.75305,7.78656 16.75786,9.06212 6.38171,1.16209 20.99732,0.34932 28.60606,-1.59078 z M 146.07517,95.63178 c -13.46865,-4.837348 -16.57086,-6.589358 -14.2296,-8.03634 0.87455,-0.540502 30.54124,9.458033 31.8011,10.717893 0.82611,0.826115 -0.58769,2.700597 -1.95569,2.592937 -0.65504,-0.0516 -7.68215,-2.425069 -15.61581,-5.27449 z M 145.5,90.396322 C 137.77757,86.190323 134,80.309133 134,72.492281 134,61.590148 143.03765,53 154.50772,53 c 11.42234,0 20.12644,9.556039 19.28609,21.173774 -0.4668,6.453463 -2.1305,9.354804 -8.16488,14.238838 -3.19848,2.588744 -4.7134,3.071153 -10.4353,3.323015 -4.75988,0.209517 -7.56031,-0.177401 -9.69363,-1.339305 z m 16.8959,-4.662772 c 7.35707,-4.217866 9.87853,-14.06276 5.3303,-20.81187 C 164.59399,60.273783 159.41611,57 155.19713,57 c -3.33428,0 -3.42555,0.09011 -1.85212,1.828741 0.91025,1.005807 1.65499,3.186063 1.65499,4.845012 0,4.054837 -2.90919,6.553501 -7.15646,6.146582 -2.6425,-0.25317 -3.69425,-1.022708 -5.01621,-3.670218 l -1.67267,-3.349883 -1.68865,3.265486 c -2.34785,4.540257 -1.54929,12.134834 1.64033,15.599949 6.16221,6.694449 14.07195,8.205795 21.28956,4.067881 z M 165.00374,50.25 c 0.005,-2.177165 3.62814,-8.25 4.92254,-8.25 2.02817,0 1.86241,1.779618 -0.54119,5.810284 -2.62512,4.402138 -4.38764,5.383581 -4.38135,2.439716 z m -6.50193,-1.247067 c -0.81557,-1.319632 5.48518,-10.940255 7.18917,-10.977148 2.46243,-0.05331 2.10437,1.768748 -1.28672,6.547777 -3.78217,5.330179 -4.85032,6.131748 -5.90245,4.429371 z m -29.947,-12.914245 c -0.71241,-1.152709 8.38241,-9.24552 9.56729,-8.513223 1.72908,1.068628 0.77983,2.976021 -3.07287,6.174535 -4.05329,3.365039 -5.53118,3.89724 -6.49442,2.338688 z M 99.985767,201.40744 c 4.117173,-0.77071 10.207373,-2.30699 13.533773,-3.41394 C 119.99551,195.83843 127,190.82156 127,188.3383 c 0,-1.13249 -0.7551,-0.88071 -2.9844,0.99512 -7.83132,6.58962 -21.79274,9.15212 -49.5156,9.08817 -27.024172,-0.0623 -42.387272,-2.64482 -50.623646,-8.50963 -3.503901,-2.495 -5.002115,-1.81339 -2.380795,1.08313 4.677406,5.16848 22.070846,10.45985 39.356565,11.97292 11.714902,1.02544 29.001716,0.33608 39.133643,-1.56057 z M 120,79.038955 C 120,77.945657 116.00124,74 114.89323,74 c -0.40131,0 -1.44146,-0.273145 -2.31144,-0.606989 -3.01038,-1.15519 -1.65733,2.590328 1.66821,4.617949 3.52574,2.149683 5.75,2.547341 5.75,1.027995 z m -0.24086,-16.033553 c 4.36947,-2.664099 7.23338,-7.615362 7.23338,-12.505402 0,-6.899726 -6.65735,-14.486091 -12.72108,-14.496262 -2.02127,-0.0034 -2.12138,0.231491 -1.07632,2.525155 0.96647,2.121169 0.82615,2.967606 -0.87031,5.25 -2.81529,3.787639 -7.438,4.163963 -10.06863,0.819662 l -1.97508,-2.510914 -1.140551,2.503233 c -5.652187,12.405198 9.004891,25.495485 20.618591,18.414528 z"
       id="path3743"
       inkscape:connector-curvature="0" />
    <path
       style="fill:#a75214"
       d="M 53.252672,251.97728 C 39.188266,250.87245 24.63423,248.42382 16.638306,245.81713 6.3794449,242.47272 0.49375788,236.68296 2.8593715,232.26277 c 0.5858233,-1.09462 3.8021924,-12.06117 7.1474865,-24.3701 3.345295,-12.30893 6.743548,-23.38899 7.551675,-24.62235 3.361676,-5.13056 12.830365,-8.42083 29.965287,-10.41262 l 10.240434,-1.19036 0.698233,-11.08367 c 1.644181,-26.09956 8.521233,-54.67919 18.14812,-75.419879 l 4.333444,-9.336209 -3.961855,-1.663791 c -2.17902,-0.915085 -3.966431,-2.23233 -3.972025,-2.927211 -0.0078,-0.971353 0.827162,-0.91356 3.611953,0.25 C 78.614292,72.318961 80.767269,73 81.406516,73 c 1.105026,0 5.170859,-5.8554 4.440917,-6.395577 -0.191088,-0.141411 -2.037737,-1.27369 -4.103664,-2.516177 -2.065926,-1.242486 -3.48953,-2.690597 -3.163563,-3.218023 0.336273,-0.5441 2.451906,0.130631 4.890379,1.559671 l 4.29771,2.518626 2.695985,-4.073909 c 2.354914,-3.558514 2.61085,-4.692914 2.02304,-8.966809 -0.782649,-5.690532 1.335791,-11.056293 6.911797,-17.506781 l 3.360243,-3.887229 8.08309,-0.0069 c 5.88055,-0.005 8.4698,-0.415629 9.50227,-1.506896 0.78055,-0.825 3.35615,-6 5.72356,-11.5 6.55432,-15.2270612 12.02058,-19.6979106 20.25553,-16.56698747 3.49396,1.32840217 9.50432,6.83447557 12.3073,11.27468447 1.91473,3.03312 3.00257,3.792303 5.43403,3.792303 5.87579,0 16.77673,3.146567 24.39073,7.040409 l 7.69228,3.933871 9.13432,-1.576326 c 11.55599,-1.994236 18.96045,-1.245941 22.47802,2.27163 2.31598,2.31598 2.45847,3.01689 2.01573,9.915671 -0.53653,8.360261 -4.91387,18.664845 -11.00848,25.914745 -3.12296,3.714944 -3.50163,4.962063 -5.31364,17.5 -1.07309,7.425 -1.92559,17.343617 -1.89447,22.041374 0.0489,7.37935 0.47561,9.43678 3.13651,15.123 1.69396,3.6199 4.78264,9.22628 6.86373,12.45863 8.50957,13.21701 17.60403,29.20679 19.55251,34.377 4.909,13.02585 6.26,29.31086 3.35643,40.45845 -4.9268,18.91526 -23.22013,37.01405 -43.40958,42.94795 -15.36249,4.51521 -35.88942,4.06707 -44.95605,-0.98146 -3.95858,-2.20424 -5.25431,-2.40257 -13,-1.98978 -4.73175,0.25216 -12.42818,1.35857 -17.10318,2.45868 -16.59801,3.9058 -50.665561,5.81807 -72.747328,4.08344 z m 142.179318,-7.95989 c 12.65345,-3.2362 20.04082,-7.41028 29.15691,-16.47451 9.20177,-9.14941 13.62128,-17.02006 15.46581,-27.54288 2.00722,-11.45095 -0.89627,-27.8002 -7.13024,-40.14963 l -3.02494,-5.99236 -2.05266,2.60953 c -3.47522,4.41803 -11.70346,8.51243 -17.12825,8.52308 -8.82177,0.0173 -7.34884,-3.85588 4.4267,-11.64038 9.84928,-6.5111 10.33253,-7.59318 5.93729,-13.29454 l -1.88434,-2.44431 -3.34913,2.55002 C 209.82554,144.74775 204.32983,147 199.16228,147 c -5.75249,0 -7.92229,-1.71138 -6.21483,-4.9018 0.59743,-1.11631 4.34115,-3.90637 8.31939,-6.20014 3.97824,-2.29377 8.22479,-5.06803 9.43678,-6.16502 l 2.20363,-1.99453 -2.00733,-3.93469 c -1.10403,-2.16407 -2.32066,-3.77322 -2.70362,-3.57587 -0.38297,0.19734 -2.93605,1.37963 -5.67353,2.62729 -8.66189,3.94786 -19.0339,2.72746 -18.33345,-2.15715 0.24896,-1.7362 2.058,-2.79282 9.10674,-5.31904 12.04168,-4.31565 12.703,-5.03297 12.70796,-13.78404 0.003,-6.007432 1.29202,-16.735878 3.47731,-28.950502 0.40649,-2.272091 0.19747,-2.735229 -1.02309,-2.266858 -3.43726,1.319001 -2.44041,-2.398392 1.62445,-6.057808 5.45704,-4.912739 10.26491,-12.446303 12.86068,-20.151727 2.50305,-7.430201 2.58756,-10.494329 0.35111,-12.730775 -2.43731,-2.437308 -17.92925,-1.429669 -29.27482,1.904115 -4.66419,1.370526 -8.82669,2.27781 -9.25,2.016188 -1.61231,-0.996465 -0.65205,-2.503644 2.41743,-3.794263 l 3.1871,-1.340073 -4.9371,-2.50013 c -6.83519,-3.461322 -14.08447,-5.473334 -22.65357,-6.287421 -7.59396,-0.721446 -11.47054,-2.317809 -8.31582,-3.424426 1.37976,-0.483995 0.98946,-1.346451 -2.3011,-5.084717 -2.17948,-2.476023 -5.56741,-5.3660558 -7.52872,-6.4222957 l -3.56604,-1.9204363 -2.6349,2.4580595 c -2.59552,2.4213116 -5.66349,7.7503045 -8.81541,15.3121585 -1.73921,4.172566 -1.96076,4.029654 3.05551,1.970977 0.76103,-0.312326 0.99052,0.230158 0.64933,1.534882 -0.29024,1.109867 -2.95645,3.489914 -5.92492,5.288995 l -5.39722,3.271056 3.4426,3.539996 c 6.69802,6.88751 7.03227,16.751866 0.8179,24.137227 -6.93383,8.240391 -18.5177,8.876711 -26.386872,1.449472 -3.037529,-2.86694 -3.152938,-2.892039 -4.570313,-0.993957 -3.56818,4.778337 -3.513593,5.136457 1.204384,7.901376 C 100.88535,73.017118 102.28998,75 99.732135,75 c -0.697327,0 -2.981416,-1.164388 -5.075756,-2.587528 -3.652153,-2.481703 -3.864838,-2.512376 -5.200331,-0.75 -2.249884,2.969049 -1.699979,4.25612 2.543952,5.954205 2.2,0.880265 4,2.274767 4,3.098892 0,0.824125 -0.5625,1.266128 -1.25,0.982229 -0.6875,-0.283899 -2.959544,-1.247293 -5.048987,-2.140877 l -3.798988,-1.624698 -3.97775,8.488297 C 72.067138,107.4551 64.06909,141.7725 64.01832,163.25 L 64,171 l 8.75,0.0103 c 18.900942,0.0223 41.03421,2.91893 50.13858,6.56178 5.85008,2.34074 8.47366,6.00861 12.11418,16.93618 l 3.19116,9.57874 3.15304,-5.2576 c 4.2718,-7.12309 10.41779,-10.8803 18.91337,-11.56224 7.5559,-0.60652 11.78509,1.1193 14.78015,6.03137 2.67543,4.38785 2.46337,7.07735 -1.04097,13.2023 -2.27367,3.97397 -2.85232,5.98508 -2.38885,8.30247 2.55278,12.76388 22.14768,10.31625 38.6787,-4.83142 8.34157,-7.64354 13.70258,-17.54704 13.72595,-25.35626 0.0166,-5.53889 1.11028,-8.27409 2.87289,-7.18474 3.06366,1.89345 0.0294,16.77066 -5.05319,24.77622 C 211.16408,219.01482 186.40506,231.23084 175,225.31535 168.09543,221.73414 165.79985,211.3707 170.5,205 c 9.16667,-12.42473 -8.84052,-20.10405 -21.57731,-9.20183 -4.30088,3.68139 -7.86171,9.96405 -7.90073,13.93987 -0.038,3.87343 6.07811,21.61744 8.61134,24.98309 3.57782,4.75351 8.89739,8.45951 14.18725,9.88388 7.38592,1.98876 22.64713,1.70507 31.61144,-0.58762 z M 144.10438,105.01187 c -8.14571,-5.736632 -8.47909,-5.869461 -11.20002,-4.46241 -9.54741,4.93715 -20.17052,3.59038 -27.88953,-3.535765 -3.36166,-3.103468 -4.10832,-4.320205 -3.20529,-5.223236 0.90303,-0.903032 1.83216,-0.549853 3.98859,1.516134 C 107.34435,94.787967 108.87122,96 109.19118,96 c 1.52397,0 1.75037,-8.873558 0.34463,-13.508039 -0.83279,-2.745578 -1.51903,-6.73834 -1.52499,-8.872803 L 108,69.738315 l 3.69631,0.599829 c 4.45745,0.723344 13.45598,6.709378 15.31908,10.190609 1.86314,3.481305 0.47592,4.525675 -6.89973,5.194476 L 114,86.277777 114,92.5319 C 114,99.488309 114.475,100 120.93256,100 125.08074,100 131,98.250594 131,97.02462 c 0,-0.428852 -0.67005,-1.335819 -1.48899,-2.015482 -2.26994,-1.883884 -0.68176,-3.242143 1.77714,-1.519862 C 132.47442,94.320174 134.25901,95 135.25389,95 c 0.99488,0 2.0496,0.627314 2.34382,1.394032 0.29422,0.766717 4.33009,3.919658 8.96861,7.006528 7.8698,5.23724 10.16354,7.65169 7.18368,7.56169 -0.6875,-0.0208 -5.02803,-2.69844 -9.64562,-5.95038 z M 120,78.57258 C 120,76.533805 115.15842,73 112.36514,73 c -3.08779,0 -2.99438,1.512335 0.28088,4.547749 C 115.55308,80.241917 120,80.861628 120,78.57258 z m 27.78492,17.05398 C 133.8709,90.750568 128.26696,88 132.24676,88 c 2.17976,0 29.83827,9.685032 31.01284,10.859598 2.41176,2.411762 -1.9926,1.491582 -15.47468,-3.233038 z m 1.20861,-4.509087 c -8.37959,-2.722176 -13.3571,-8.144321 -14.57993,-15.88233 -1.84534,-11.677251 10.55192,-23.800644 22.37615,-21.881836 10.13983,1.645468 18.13218,11.815313 16.83869,21.426348 -0.79393,5.899134 -4.91473,11.915226 -9.93948,14.511004 -4.29482,2.218692 -10.94452,3.045327 -14.69543,1.826814 z M 162.0156,86.148389 C 167.00291,83.49813 170,78.657703 170,73.253246 170,64.03246 164.59309,58.011627 155.62224,57.242969 150.65686,56.817515 150.5689,56.854747 152.75,58.458741 157.3935,61.873608 154.64394,70 148.84501,70 145.68145,70 142,66.926686 142,64.285714 c 0,-1.607057 -0.10533,-1.608952 -1.684,-0.03029 -1.06066,1.060664 -1.83373,3.823583 -2.0885,7.464286 -0.3381,4.831452 -0.0206,6.338132 1.934,9.178675 4.64965,6.757037 14.54483,9.13415 21.8541,5.25 z M 165,50.05716 C 165,48.514746 169.1227,42 170.09878,42 c 1.46235,0 1.03242,2.272558 -1.08782,5.75 C 167.12134,50.849203 165,52.069427 165,50.05716 z M 158.61116,47.75 C 163.01999,40.192306 167,36.081994 167,39.086522 167,40.957987 160.73045,49 159.27146,49 c -0.83383,0 -1.09789,-0.499877 -0.6603,-1.25 z M 129,36.013458 c 0,-1.36636 7.21663,-7.953209 8.75,-7.9864 2.33926,-0.05064 1.25869,1.831921 -3.10299,5.405992 C 130.10188,37.157444 129,37.660948 129,36.013458 z m 19,202.927522 c 0,-0.58246 -0.45,-0.7809 -1,-0.44098 -0.55,0.33992 -1,0.81648 -1,1.05902 0,0.24254 0.45,0.44098 1,0.44098 0.55,0 1,-0.47656 1,-1.05902 z M 99.985767,201.40744 c 4.117173,-0.77071 10.207373,-2.30699 13.533773,-3.41394 C 119.99551,195.83843 127,190.82156 127,188.3383 c 0,-1.13249 -0.7551,-0.88071 -2.9844,0.99512 -7.83132,6.58962 -21.79274,9.15212 -49.5156,9.08817 -27.024172,-0.0623 -42.387272,-2.64482 -50.623646,-8.50963 -3.503901,-2.495 -5.002115,-1.81339 -2.380795,1.08313 4.677406,5.16848 22.070846,10.45985 39.356565,11.97292 11.714902,1.02544 29.001716,0.33608 39.133643,-1.56057 z M 118.79966,63.595014 C 120.28485,62.822272 122.625,60.986018 124,59.51445 c 2.12778,-2.277214 2.5,-3.628881 2.5,-9.078347 0,-6.000114 -0.22303,-6.625802 -3.54652,-9.949286 -2.19756,-2.197564 -4.88324,-3.763437 -7.06089,-4.116821 l -3.51437,-0.570305 0.4255,3.644767 c 0.80641,6.907442 -5.45176,9.998412 -10.3421,5.108069 l -2.44748,-2.447473 -1.119005,2.090888 c -0.626848,1.171277 -0.917767,4.517605 -0.661452,7.608429 0.407272,4.911157 0.909874,5.939459 4.573217,9.356586 C 106.34069,64.45724 107.57125,65 111.51094,65 c 2.52361,0 5.80353,-0.632244 7.28872,-1.404986 z"
       id="path3741"
       inkscape:connector-curvature="0" />
    <path
       style="fill:#c3013b"
       d="M 53.252672,251.9765 C 39.19096,250.87285 24.635889,248.42436 16.638306,245.81713 6.3794449,242.47272 0.49375788,236.68296 2.8593715,232.26277 c 0.5858233,-1.09462 3.8021924,-12.06117 7.1474865,-24.3701 3.345295,-12.30893 6.761731,-23.41674 7.592082,-24.68402 3.44408,-5.25633 11.989976,-8.09121 32.33748,-10.72712 23.74168,-3.07561 58.62668,-0.64135 72.95216,5.09057 6.87173,2.74952 8.37168,5.57032 17.26206,32.46306 8.00497,24.21444 8.22179,25.11677 6.66712,27.7466 -3.50247,5.92471 -18.41736,10.93721 -39.29008,13.20436 -13.547551,1.47151 -41.618573,1.98373 -54.275008,0.99038 z m 46.733095,-50.56906 c 4.117173,-0.77071 10.207373,-2.30699 13.533773,-3.41394 C 119.99551,195.83843 127,190.82156 127,188.3383 c 0,-1.13249 -0.7551,-0.88071 -2.9844,0.99512 -7.83132,6.58962 -21.79274,9.15212 -49.5156,9.08817 -27.024172,-0.0623 -42.387272,-2.64482 -50.623646,-8.50963 -3.503901,-2.495 -5.002115,-1.81339 -2.380795,1.08313 4.677406,5.16848 22.070846,10.45985 39.356565,11.97292 11.714902,1.02544 29.001716,0.33608 39.133643,-1.56057 z"
       id="path3739"
       inkscape:connector-curvature="0" />
    <path
       style="fill:#990748"
       d="M 53.252672,251.9765 C 39.19096,250.87285 24.635889,248.42436 16.638306,245.81713 6.3794449,242.47272 0.49375788,236.68296 2.8593715,232.26277 c 0.5858233,-1.09462 3.8021924,-12.06117 7.1474865,-24.3701 3.345295,-12.30893 6.761731,-23.41674 7.592082,-24.68402 3.44408,-5.25633 11.989976,-8.09121 32.33748,-10.72712 23.74168,-3.07561 58.62668,-0.64135 72.95216,5.09057 6.93308,2.77406 8.41715,5.57861 17.24065,32.58098 7.83036,23.96305 8.12524,25.19409 6.63799,27.71198 -3.44918,5.83943 -18.48315,10.86655 -39.23954,13.12106 -13.547551,1.47151 -41.618573,1.98373 -54.275008,0.99038 z M 99.5,245.94198 c 20.11801,-1.73919 37.88384,-6.07768 41.17598,-10.05535 0.89076,-1.07625 -0.54134,-6.64678 -6.39798,-24.88663 -4.15009,-12.925 -8.04791,-24.13563 -8.66181,-24.91252 -4.35871,-5.51586 -22.36537,-8.48769 -51.61619,-8.51875 -22.367715,-0.0238 -31.837225,0.86129 -42.805092,4.00067 -5.731197,1.64047 -10.730717,5.7228 -10.937055,8.9306 -0.152378,2.36891 -9.914669,39.03407 -11.2237227,42.154 -1.1885276,2.83267 0.9941737,4.80438 8.0726017,7.29224 16.833984,5.91667 52.926513,8.54311 82.393268,5.99574 z M 55.211861,194.92672 c -15.770208,-1.52364 -25.920977,-4.91522 -24.647027,-8.23508 1.710653,-4.45789 19.522641,-7.67705 42.526162,-7.68574 17.765705,-0.007 30.053894,1.35926 37.659004,4.18625 19.48135,7.24166 -18.650428,15.29847 -55.538139,11.73457 z"
       id="path3737"
       inkscape:connector-curvature="0" />
    <path
       style="fill:#6c003a"
       d="M 47.150856,193.50823 C 38.148909,192.11317 31,189.4407 31,187.47057 c 0,-8.85359 62.56814,-11.50571 80.83294,-3.42632 2.48963,1.10128 4.17699,2.46296 3.95156,3.18887 -0.72433,2.33245 -7.83239,4.98175 -17.100079,6.3735 -11.407145,1.71303 -40.199678,1.65805 -51.533565,-0.0984 z"
       id="path3735"
       inkscape:connector-curvature="0" />
  </g>
</svg>
