<?xml version="1.0" encoding="utf-8"?>
<!-- Generator: Adobe Illustrator 16.0.0, SVG Export Plug-In . SVG Version: 6.00 Build 0)  -->
<!DOCTYPE svg PUBLIC "-//W3C//DTD SVG 1.1//EN" "http://www.w3.org/Graphics/SVG/1.1/DTD/svg11.dtd">
<svg version="1.1" id="Layer_1" xmlns="http://www.w3.org/2000/svg" xmlns:xlink="http://www.w3.org/1999/xlink" x="0px" y="0px"
   width="115.25619" height="144.36989" viewBox="0 0 115.25619 144.36989" enable-background="new 0 0 198.43 198.43" xml:space="preserve">
<g transform="translate(-48.395552,-28.740263)">
	<path fill="#FFFFFF" stroke="#000000" stroke-width="0.5" stroke-miterlimit="10" d="M52.813,142.562
		c1.729,7.814,4.979,18.147,10.573,24.072c11.09,11.746,11.009-16.988,22.004-12.123c3.492,1.545,6.22,3.787,10.13,4.612
		c2.998,0.631,6.104,0.651,9.081,0.104c6.304-1.163,11.693-9.493,17.49-2.936c2.861,3.236,3.932,11.301,8.831,12.232
		c6.263,1.191,10.529-11.317,12.323-15.509c13.709-32.021,6.402-76.889-2.966-109.035c-0.593-2.035-3.149-8.965-0.23-10.501
		c-4.76,2.507-10.014,4.103-15.345,4.772c-1.31,0.163-15.521,0.408-15.331-0.832c0.249-1.453,1.195-2.838,1.151-4.39
		c-1.427,1.584-5.646,3.193-7.726,3.088c1.257-1.541,2.2-3.465,2.453-5.479c-2.608,3.092-8.728,5.758-12.62,5.65
		c0.675-1.199,1.242-2.711,1.478-4.089c-5.438,3.323-12.338,5.927-18.768,6.051c-2.835,0.054-14.882,1.308-16.256-1.682
		c0.159,0.349,0.365,0.746,0.525,1.097c-0.843-0.625-1.989-0.845-2.897-1.145c4.846,1.599,0.855,15.269-0.076,18.481
		c-5.79,19.927-9.356,43.577-7.318,65.188c0.349,3.689,0.89,7.356,1.422,11.021C51.295,135.021,51.983,138.809,52.813,142.562z"/>
	
		<ellipse transform="matrix(-0.0093 -1 1 -0.0093 -68.5998 270.8315)" opacity="0.17" cx="99.865" cy="169.399" rx="3.682" ry="50.344"/>
	<path opacity="0.18" d="M144.948,80.265c0.145-7.051-0.38-14.166-0.888-21.209
		c0.599,8.271,4.091,16.873,5.018,25.301c2.245,20.408,3.571,42.517-2.978,62.305c-1.355,4.105-2.96,8.057-4.77,11.982
		c-1.64,3.556-3.395,7.88-7.31,9.453c-4.514,1.814-7.004-1.814-8.564-5.479c-1.179-2.767-2.402-5.321-4.66-7.382
		c-2.734-2.492-5.672-0.939-8.525,0.523c-2.561,1.312-4.985,3.107-7.87,3.647c-4.964,0.93-10.313-0.315-14.818-2.441
		c-1.954-0.923-3.57-2.436-5.768-2.757c-1.979-0.291-3.644,0.599-5.062,1.943c-2.303,2.186-3.315,5.163-4.689,7.938
		c-0.956,1.931-2.648,4.3-4.771,5.026c-3.693,1.262-6.488-2.444-8.206-5.132c-1.917-3.002-3.414-6.116-4.679-9.435
		c-4.617-12.11-6.028-25.927-7.078-38.774c-1.564-19.139,1.286-39.116,7.1-57.407c0.357,21.158-2.991,40.265,6.479,60.386
		c7.796,16.564,23.145,26.385,41.599,23.212c11.361-1.953,24.67-6.545,30.733-17.017C142.607,112.222,144.651,94.664,144.948,80.265
		z"/>
	<path opacity="0.18" d="M140.31,132.713c7.604-11.41,8.98-27.729,9.403-41.085
		c0.004-0.093,0.002-0.093-0.003,0.006c2.674,17.599,1.962,37.657-3.658,54.664c-1.355,4.108-2.96,8.057-4.77,11.984
		c-1.64,3.555-3.395,7.88-7.31,9.453c-4.514,1.814-7.004-1.815-8.564-5.479c-1.492-3.506-3.612-8.58-8.201-8.411
		c-4.551,0.167-8.333,4.354-12.854,5.201c-4.964,0.93-10.313-0.314-14.818-2.443c-2.366-1.115-4.576-3.432-7.496-2.661
		c-2.074,0.549-3.697,2.518-4.98,4.108c-1.533,1.9-2.255,4.369-3.545,6.421c-1.22,1.938-2.872,5.255-5.58,4.791
		c-5.762-0.986-9.756-10.306-11.573-15.071c-4.616-12.108-6.027-25.928-7.078-38.776c-0.676-8.275-1.14-17.312,0.811-25.462
		c-0.001-0.096-0.005-0.1-0.007-0.01c-0.451,11.346,2.935,25.227,9.531,34.525c6.952,9.804,17.313,19.607,30.017,20.012
		c9.931,0.316,20.178,0.44,29.924-1.794C127.44,140.877,135.507,139.923,140.31,132.713z"/>
	<g>
		<path d="M73.613,164.228c0.515-0.879,0.934-1.807,1.45-2.68c0.514-0.867,1.707-2.147,1.154-3.214
			c-0.995-1.918-3.735-0.218-4.755,0.669c-0.649,0.563-1.22,1.211-1.872,1.771c-1.87,1.604-3.836,0.592-5.559-0.669
			c-1.16-0.848-3.886-4.661-5.413-2.765c-0.968,1.197,0.595,3.41,1.223,4.458c0.972,1.622,2.185,3.161,3.421,4.589
			c1.104,1.277,2.452,2.561,4.177,2.874c1.483,0.271,2.968-0.694,3.835-1.812c0.613-0.789,1.246-1.565,1.814-2.391
			C73.275,164.788,73.449,164.511,73.613,164.228z"/>
		<path opacity="0.12" fill="#F5F5F5" d="M71.699,162.899c0.622-0.655,1.745-3.022,2.759-3.139
			c0.914-0.102,0.438,1.253,0.099,1.875c-0.379,0.688-6.335,9.781-7.292,6.682c-0.343-1.115,1.297-1.948,1.938-2.477
			C70.193,165.024,70.817,163.831,71.699,162.899z"/>
	</g>
	<g>
		<path d="M130.262,168.312c2.97,1.127,5.38-0.516,7.121-2.843c1.404-1.88,3.696-5.249,4.008-7.627
			c0.21-1.596-0.633-2.764-2.33-2.25c-1.363,0.412-2.655,2.194-3.611,3.188c-1.443,1.498-3.661,2.793-5.639,1.541
			c-1.575-0.995-2.048-3.233-3.714-4.172c-2.812-1.579-1.701,3.281-1.35,4.432C125.629,163.461,127.252,167.17,130.262,168.312z"/>
		<path opacity="0.12" fill="#F5F5F5" d="M137.174,161.777c0.622-0.656,1.746-3.022,2.76-3.138
			c0.913-0.102,0.438,1.253,0.099,1.873c-0.378,0.69-6.334,9.783-7.29,6.682c-0.346-1.114,1.295-1.948,1.936-2.476
			C135.667,163.903,136.291,162.707,137.174,161.777z"/>
	</g>
	<path d="M102.473,78.402c0.091-0.077,0.181-0.152,0.271-0.224c0.315-0.248,0.713-0.51,0.907-0.87
		c0.392-0.728-0.598-1.085-1.113-1.305c-0.863-0.367-1.851-0.456-2.777-0.37c-0.855,0.076-3.54,0.709-2.314,2.092
		c0.513,0.577,1.258,0.89,1.762,1.47c0.347,0.397,0.535,1.368,1.103,1.504c0.521,0.125,0.808-0.442,1.011-0.813
		C101.616,79.353,102.001,78.808,102.473,78.402z"/>
	<g>
		<path d="M58.493,31.837c8.642-8.177,18.048,7.065,11.266,8.936c-1.031,0.285-5.08-0.96-5.525-0.429
			c-1.25,1.492-3.109,6.747-5.652,6.088c-4.44-1.157-3.231-9.272-1.864-12.157C57.159,33.339,57.767,32.522,58.493,31.837z"/>
		<path opacity="0.12" fill="#F5F5F5" d="M56.847,42.071c0.686,1.896,1.914,3.751,4.023,1.974
			c0.706-0.594,1.812-1.742,1.99-2.706c0.216-1.164-0.491-1.479-1.442-1.853c-1.064-0.419-1.801-1.025-1.819-2.228
			c-0.03-1.757,1.348-2.789,1.594-4.389c0.369-2.413-3.32,1.254-3.653,1.768C56.065,36.918,55.931,39.538,56.847,42.071z"/>
	</g>
	<g>
		<path d="M139.657,30.517c-9.558-6.916-17.241,8.513-10.253,9.617c1.062,0.166,4.968-1.42,5.473-0.959
			c1.417,1.293,3.867,6.104,6.336,5.227c4.308-1.543,2.188-9.138,0.494-11.743C141.16,31.812,140.461,31.097,139.657,30.517z"/>
		<path opacity="0.12" fill="#F5F5F5" d="M142.457,40.083c-0.474,1.872-1.493,3.756-3.803,2.274
			c-0.772-0.495-2.008-1.477-2.295-2.375c-0.346-1.085,0.326-1.453,1.234-1.903c1.017-0.503,1.685-1.154,1.569-2.298
			c-0.169-1.675-1.662-2.52-2.089-4.016c-0.642-2.256,3.461,0.862,3.852,1.316C142.656,35.106,143.086,37.584,142.457,40.083z"/>
	</g>
	<g>
		<path d="M103.657,95.294c23.901,1.502,38.794,19.188,36.689,42.356c-0.315,3.482-0.195,7.572-2.611,10.412
			c-2.191,2.578-5.82,3.487-9.1,2.755c-3.896-0.868-7.719-4.118-11.791-3.683c-0.005,0.001-0.011,0.001-0.018,0.002
			c-3.666,0.329-5.905,3.132-9.127,4.417c-3.481,1.392-7.338,1.457-10.976,0.658c-4.479-0.984-7.958-4.761-12.825-4.338
			c-3.081,0.269-5.157,2.073-7.826,3.304c-1.86,0.856-4.316,1.117-6.346,1.246c-10.833,0.699-10.464-14.132-10.047-21.244
			c0.316-5.391,1.502-11.03,4.072-15.854c7.501-14.086,24.192-21.015,39.894-20.032C103.648,95.293,103.654,95.294,103.657,95.294z"
			/>
		<path opacity="0.07" fill="#F5F5F5" d="M74.082,109.048c-3.52,2.74-6.393,6.146-8.322,10.142
			c-0.442,0.914-3.224,6.624-1.264,7.142c1.815,0.479,5.717-5.593,6.604-6.662c2.443-2.941,4.979-5.814,8.177-7.992
			c5.138-3.493,11.011-5.537,16.894-7.417c1.046-0.335,4.72-1.291,3.686-2.975c-0.999-1.622-4.422-1.27-6.007-1.106
			C86.338,100.952,79.9,104.518,74.082,109.048z"/>
	</g>
	<path opacity="0.12" fill="#F5F5F5" d="M156.743,104.246c1.309,2.282,2.279,7.099-0.047,9.115
		c-0.505-0.428-0.655-0.98-0.829-1.659c-0.379-1.492,0.42-2.888-0.462-4.315c-0.646-1.049-2.084-1.304-2.738-2.299
		c-0.565-0.858-0.307-1.963-0.285-2.937c0.01-0.471-0.048-4.41-0.191-4.438c0.991,0.188,1.688,2.098,2.262,2.827
		C155.354,101.692,156.001,102.948,156.743,104.246z"/>
	<g>
		<g>
			<path d="M78.669,107.52c-5.086-0.938-9.093-3.006-11.879-7.478c-1.266-2.028-2.309-4.849-1.563-7.232
				c1.281-4.1,10.982-0.89,13.831-0.88c2.583,0.01,5.338-0.021,7.967-0.492c1.472-0.264,2.901-0.664,4.239-1.272
				c2.201-1.005,3.145-2.167,3.995-4.329c0.938-2.384,3.149-4.525,6.07-3.31c2.857,1.191,2.668,4.865,2.151,7.378
				c-0.564,2.762-1.673,5.857-3.067,8.319c-0.853,1.503-1.962,2.968-3.188,4.188C92.897,106.718,84.593,108.61,78.669,107.52z"/>
		</g>
		<path opacity="0.12" fill="#F5F5F5" d="M95.696,101.211c2.013-1.818,3.574-4.244,4.759-6.562
			c0.723-1.416,4.325-9.604,0.673-9.211c-1.779,0.191-2.391,2.395-2.919,3.774c-0.77,2.003-1.447,3.505-3.042,5.044
			c-3.924,3.793-7.187,5.544-12.703,6.104c-1.715,0.175-4.574-0.074-5.816,1.37c-2.524,2.937,4.775,3.139,6.103,3.268
			C87.442,105.454,92.101,104.462,95.696,101.211z"/>
	</g>
	<g>
		<path d="M151.176,105.294c0.031,0.713,0.161,1.398,0.572,2.016c0.487,0.735,1.837,1.029,2.433,1.855
			c1.55,2.156,0.188,5.755,2.068,7.479c3.838,3.52,6.807-5.66,7.168-8.273c1.379-10.027-3.341-22.438-13.546-24.325
			c0.353,6.358,1.232,12.733,1.319,19.212C151.2,103.933,151.146,104.624,151.176,105.294z"/>
		<path opacity="0.12" fill="#F5F5F5" d="M156.304,106.21c1.317,2.182,2.381,6.834,0.196,8.854
			c-0.494-0.4-0.656-0.937-0.839-1.591c-0.404-1.439,0.323-2.814-0.561-4.179c-0.649-1.004-2.038-1.212-2.693-2.16
			c-0.567-0.818-0.348-1.899-0.354-2.845c-0.004-0.457-0.163-4.283-0.303-4.308c0.958,0.156,1.68,1.992,2.249,2.687
			C154.899,103.765,155.555,104.968,156.304,106.21z"/>
	</g>
	<g>
		<path d="M79.41,46.714c-1.653,0.939-3.115,2.14-4.111,3.27c-4.36,4.956-6.536,6.876-11.901,10.053
			c-5.836,3.455-5.999,8.979-4.192,15.771c1.381,5.202,4.672,10.34,10.177,11.838c16.218,4.41,25.573-11.54,23.806-25.732
			c-0.547-4.396-0.748-13.718-5.12-16.206C85.539,44.264,82.204,45.122,79.41,46.714z"/>
		<path opacity="0.12" fill="#F5F5F5" d="M68.305,81.148c2.847,1.46,6.493,1.737,9.579,1.209
			c2.443-0.419,4.453-1.763,6.312-3.214c1.402-1.095,3.19-3.534,5.03-3.874c2.605-0.481,0.553,3.785,0.029,4.629
			c-1.481,2.39-3.445,4.823-6.016,6.293c-2.062,1.182-3.912,1.646-6.312,1.816c-4.117,0.293-7.943-0.536-11.153-3.037
			c-2.908-2.266-4.727-5.577-5.74-8.916c-0.926-3.044-1.832-7.757-0.82-10.86c1.058-3.237,1.856,0.753,1.998,1.873
			c0.229,1.808,0.605,3.606,1.216,5.337c0.95,2.703,1.836,5.809,4.279,7.729C67.201,80.52,67.736,80.856,68.305,81.148z"/>
		<path fill="#F2F3F3" d="M71.758,67.492c0.082-0.475,0.218-0.947,0.408-1.416c1.302-3.175,3.262-5.58,6.859-4.79
			c5.429,1.191,7.661,9.958,2.791,13.273C76.536,78.155,70.832,72.831,71.758,67.492z"/>
		<path d="M79.648,66.107c2.339,1.539,1.791,4.665-0.687,5.656c-2.979,1.19-5.041-3.438-3.064-5.466
			c0.711-0.729,1.747-0.945,2.714-0.661C78.998,65.751,79.345,65.908,79.648,66.107z"/>
	</g>
	<g>
		<path d="M122.398,47.817c1.615,0.988,3.037,2.229,3.993,3.388c4.194,5.075,6.303,7.058,11.545,10.385
			c5.704,3.619,5.709,9.146,3.724,15.882c-1.521,5.16-4.938,10.204-10.451,11.545c-16.247,3.95-25.093-12.258-22.936-26.395
			c0.668-4.377,1.132-13.69,5.548-16.057C116.377,45.195,119.666,46.147,122.398,47.817z"/>
		<path opacity="0.12" fill="#F5F5F5" d="M132.462,82.554c-2.871,1.379-6.504,1.554-9.556,0.938
			c-2.418-0.487-4.378-1.889-6.185-3.392c-1.364-1.134-3.072-3.624-4.892-4.016c-2.577-0.557-0.655,3.769-0.159,4.627
			c1.405,2.431,3.287,4.919,5.8,6.461c2.019,1.237,3.842,1.758,6.224,1.995c4.084,0.408,7.912-0.312,11.174-2.722
			c2.955-2.183,4.854-5.439,5.957-8.749c1.007-3.018,2.042-7.702,1.123-10.832c-0.958-3.269-1.866,0.698-2.038,1.814
			c-0.277,1.8-0.705,3.586-1.358,5.301c-1.021,2.674-1.99,5.753-4.473,7.604C133.578,81.957,133.035,82.278,132.462,82.554z"/>
		<path fill="#F2F3F3" d="M127.808,68.763c-0.022-0.479-0.095-0.967-0.223-1.457c-0.861-3.319-2.433-5.97-5.914-5.686
			c-5.253,0.429-8.367,8.788-4.158,12.74C122.078,78.646,128.065,74.172,127.808,68.763z"/>
		<path d="M120.479,66.126c-2.382,1.197-2.227,4.365-0.005,5.688c2.671,1.589,5.148-2.703,3.518-4.98
			c-0.587-0.819-1.537-1.176-2.48-1.03C121.132,65.862,120.786,65.971,120.479,66.126z"/>
	</g>
</g>
</svg>
