<?xml version="1.0" encoding="utf-8"?>
<!-- Generator: Adobe Illustrator 16.0.0, SVG Export Plug-In . SVG Version: 6.00 Build 0)  -->
<!DOCTYPE svg PUBLIC "-//W3C//DTD SVG 1.1//EN" "http://www.w3.org/Graphics/SVG/1.1/DTD/svg11.dtd">
<svg version="1.1" id="Layer_1" xmlns="http://www.w3.org/2000/svg" xmlns:xlink="http://www.w3.org/1999/xlink" x="0px" y="0px"
	width="134.2285" height="143.23854" viewBox="0 0 134.22851 143.23855" enable-background="new 0 0 198.43 198.43" xml:space="preserve">
<g transform="translate(-31.404394,-30.427)">
	<g>
		<path opacity="0.12" fill="#F5F5F5" d="M70.024,161.868c0.641-0.674,1.792-3.103,2.83-3.22
			c0.94-0.104,0.452,1.284,0.104,1.924c-0.389,0.705-6.5,10.037-7.482,6.855c-0.353-1.146,1.331-2.001,1.986-2.542
			C68.479,164.05,69.119,162.823,70.024,161.868z"/>
		<path opacity="0.12" fill="#F5F5F5" d="M135.515,160.96c0.639-0.674,1.791-3.103,2.832-3.219
			c0.938-0.105,0.45,1.284,0.1,1.922c-0.387,0.708-6.498,10.038-7.48,6.854c-0.354-1.145,1.331-1.999,1.987-2.541
			C133.968,163.142,134.608,161.915,135.515,160.96z"/>
	</g>
	<g>
		<path d="M140.313,37.005c4.896-0.718,7.147,3.111,5.581,7.166c-0.367,0.949-1.698,3.899-3.018,3.961
			c-1.338,0.062-2.348-4.586-3.284-4.332c-1.322,0.338-4.65,2.509-5.712,1.191c-1.847-2.304,2.398-6.271,4.407-7.327
			C138.938,37.321,139.625,37.105,140.313,37.005z"/>
		<path opacity="0.12" fill="#F5F5F5" d="M145.048,45.099c-0.817,1.154-2.011,2.246-3.192,0.976
			c-0.395-0.425-0.977-1.228-0.936-1.85c0.054-0.751,0.607-0.9,1.347-1.073c0.826-0.192,1.454-0.528,1.677-1.286
			c0.329-1.112-0.466-1.859-0.358-2.892c0.162-1.552,2.131,1.021,2.274,1.369C146.503,41.888,146.14,43.557,145.048,45.099z"/>
	</g>
	<g>
		<path d="M51.121,39.707c2.614-3.733,8.004-3.319,11.014-0.161c0.704,0.74,2.765,3.17,1.927,4.107
			c-0.851,0.952-6.213-0.738-6.596,0.034c-0.562,1.084-0.647,4.487-2.695,4.541c-3.574,0.09-4.67-4.867-4.366-6.789
			C50.503,40.815,50.753,40.233,51.121,39.707z"/>
		<path opacity="0.12" fill="#F5F5F5" d="M52.414,45.978c0.975,0.992,2.34,1.863,3.467,0.459
			c0.376-0.469,0.916-1.33,0.811-1.926c-0.126-0.718-0.728-0.778-1.523-0.834c-0.892-0.061-1.585-0.289-1.896-0.988
			c-0.452-1.023,0.314-1.864,0.104-2.843c-0.317-1.476-2.151,1.306-2.272,1.663C50.571,43.098,51.114,44.655,52.414,45.978z"/>
	</g>
	<path fill="#FFFFFF" stroke="#000000" stroke-width="0.5" stroke-miterlimit="10" d="M50.644,137.605
		c1.753,9.288,5.053,21.565,10.751,28.594c11.295,13.933,11.247-20.241,22.453-14.492c3.56,1.826,6.338,4.482,10.324,5.45
		c3.057,0.74,6.226,0.757,9.261,0.095c6.43-1.403,11.938-11.329,17.84-3.55c2.913,3.841,3.996,13.426,8.99,14.518
		c6.386,1.396,10.752-13.495,12.586-18.485c2.861-7.779,4.728-15.938,5.95-24.261c2.298-15.584,2.114-31.373,0.987-47.063
		c-0.733-10.219-2.248-26.684-9.333-33.756c-6.724-6.709-14.688-10.006-23.302-11.493c-4.411-0.763-8.93-1.498-13.396-1.461
		c-0.673,0.006-5.797,0.697-5.659-0.562c-0.849,0.203-1.777,0.908-2.623,0.667c0.109-0.284,0.092-0.632,0.262-0.938
		c-0.161,0.082-4.062,1.295-3.92,0.981c0.154-0.342,0.123-0.805,0.368-1.172c-1.914,0.264-3.834,0.738-5.733,1.033
		c-2.517,0.39-5.002,1.021-7.465,1.73c-12.173,3.506-25.68,8.972-29.477,24.544c-3.958,16.23-3.728,36.377-2.398,53.03
		c0.35,4.387,0.896,8.746,1.437,13.104C49.104,128.644,49.801,133.144,50.644,137.605z"/>
	<path opacity="0.18" d="M147.104,74.118c0.35-5.898,0.81-11.396,0.334-17.307
		c0.46,2.898,1.317,5.438,1.617,8.404c0.427,4.229,1.044,8.463,1.362,12.753c0.503,6.758,0.684,13.54,0.913,20.316
		c0.209,6.146,0.356,12.417-0.604,18.52c-0.729,4.647-1.54,9.244-2.216,13.889c-1.28,8.8-4.685,16.839-7.405,25.074
		c-1.574,4.775-4.713,14.374-10.763,12.432c-3.954-1.271-5.34-8.01-7.066-11.644c-0.998-2.1-2.6-4.828-4.655-5.718
		c-3.685-1.597-6.756,1.075-9.705,3.309c-3.176,2.409-6.906,3.957-10.771,3.579c-4.637-0.454-8.453-2.973-12.515-5.361
		c-5.291-3.112-7.664-0.182-11.078,4.312c-2.804,3.69-5.233,14.709-10.707,11.258c-4.905-3.093-7.982-10.543-9.696-16.401
		c-3.825-13.085-5.914-25.804-7-39.556c-0.756-9.563-1.688-19.679-0.859-29.263c0.413-4.771,0.753-9.449,1.332-14.215
		c0.396-3.253,0.778-6.521,1.549-9.714c0.396-1.656,0.997-3.302,1.722-4.79c-1.127,8.581,0.146,17.511,1.461,25.957
		c1.457,9.341,3.657,18.364,6.452,27.27c2.252,7.174,5.441,15.138,10.257,20.46c5.69,6.293,12.769,10.456,20.503,12.108
		c4.715,1.006,9.566,0.95,14.309,0.096c11.677-2.104,25.352-7.034,31.581-18.238c5.975-10.749,7.842-23.605,10.217-35.854
		C146.446,81.79,146.879,77.952,147.104,74.118z"/>
	<path opacity="0.17" d="M151.928,169.745c-0.03,2.313-23.859,4.065-53.226,3.911
		c-29.367-0.155-53.149-2.159-53.119-4.477c0.028-2.314,23.859-4.068,53.228-3.911C128.177,165.425,151.957,167.428,151.928,169.745
		z"/>
	<path opacity="0.18" d="M139.838,126.083c7.791-13.597,9.22-33.01,9.672-48.895
		c0.001-0.111,0.001-0.109-0.004,0.005c2.712,20.922,1.96,44.781-3.812,65.025c-1.393,4.891-3.037,9.591-4.895,14.267
		c-1.681,4.235-3.482,9.386-7.487,11.271c-4.62,2.172-7.165-2.137-8.756-6.489c-1.521-4.164-3.688-10.19-8.381-9.976
		c-4.654,0.213-8.53,5.206-13.157,6.228c-5.078,1.123-10.55-0.339-15.156-2.854c-2.417-1.32-4.678-4.066-7.667-3.141
		c-2.325,0.723-3.444,2.907-4.884,4.919c-1.815,2.537-3.153,4.808-4.562,7.685c-6.786,13.866-14.392-4.796-16.821-12.224
		c-4.707-14.386-6.134-30.813-7.191-46.091c-0.683-9.842-1.144-20.586,0.858-30.285c0-0.114-0.003-0.118-0.008-0.012
		c-0.477,13.494,2.973,29.991,9.708,41.029c7.103,11.636,17.688,23.261,30.682,23.699c10.16,0.342,20.645,0.456,30.615-2.233
		C126.662,135.835,134.913,134.673,139.838,126.083z"/>
	<path d="M102.004,56.49c0.087-0.062,0.176-0.119,0.263-0.176c0.305-0.19,0.688-0.396,0.873-0.677
		c0.377-0.566-0.58-0.846-1.08-1.019c-0.836-0.288-1.788-0.358-2.687-0.295c-0.825,0.061-3.419,0.548-2.229,1.63
		c0.495,0.449,1.216,0.692,1.707,1.146c0.335,0.312,0.521,1.068,1.069,1.174c0.504,0.099,0.778-0.344,0.975-0.632
		C101.179,57.229,101.548,56.805,102.004,56.49z"/>
	<path d="M72.215,163.378c0.523-1.046,0.953-2.152,1.481-3.193c0.523-1.032,1.744-2.559,1.183-3.827
		c-1.016-2.276-3.81-0.246-4.852,0.813c-0.661,0.672-1.245,1.443-1.91,2.111c-1.91,1.915-3.913,0.716-5.668-0.775
		c-1.184-1.004-3.955-5.53-5.517-3.271c-0.988,1.43,0.604,4.057,1.242,5.301c0.987,1.926,2.222,3.752,3.479,5.443
		c1.126,1.518,2.5,3.037,4.257,3.405c1.515,0.317,3.026-0.836,3.915-2.169c0.626-0.94,1.271-1.867,1.853-2.848
		C71.868,164.045,72.046,163.712,72.215,163.378z"/>
	<path d="M129.6,168.079c3.027,1.33,5.488-0.633,7.267-3.405c1.436-2.24,3.775-6.256,4.097-9.083c0.216-1.9-0.642-3.284-2.373-2.669
		c-1.39,0.495-2.71,2.618-3.688,3.804c-1.474,1.787-3.735,3.335-5.751,1.854c-1.604-1.181-2.085-3.841-3.783-4.949
		c-2.862-1.871-1.737,3.907-1.381,5.272C124.882,162.326,126.533,166.731,129.6,168.079z"/>
	<path opacity="0.12" fill="#F5F5F5" d="M129.358,57.647c-2.825,0.793-6.187,0.693-8.815,0.4
		c-3.017-0.337-5.9-1.342-8.491-2.814c-0.979-0.557-2.104-1.697-3.304-1.521c-1.475,0.217-1.443,1.216-0.523,2.211
		c2.844,3.076,7.554,4.317,11.715,4.639c3.658,0.282,8.264,0.288,11.664-1.017c1.844-0.707,4.396-1.756,5.413-3.486
		c0.675-1.147,0.73-3.866-1.331-2.611C133.291,54.899,132.309,56.819,129.358,57.647z"/>
	<g>
		<path d="M102.316,86.561c25.534,1.56,41.466,20.122,39.245,44.459c-0.334,3.655-0.199,7.952-2.774,10.938
			c-2.342,2.709-6.216,3.666-9.719,2.9c-4.161-0.909-8.251-4.32-12.599-3.858c-0.008,0.001-0.014,0.001-0.021,0.002
			c-3.915,0.347-6.307,3.292-9.744,4.646c-3.719,1.463-7.834,1.536-11.722,0.699c-4.787-1.03-8.508-4.994-13.707-4.546
			c-3.292,0.284-5.507,2.18-8.356,3.476c-1.986,0.901-4.609,1.176-6.775,1.313c-11.573,0.743-11.195-14.836-10.759-22.304
			c0.33-5.663,1.589-11.587,4.329-16.659c7.995-14.799,25.818-22.088,42.591-21.065C102.308,86.561,102.312,86.561,102.316,86.561z"
			/>
		<path opacity="0.07" fill="#F5F5F5" d="M72.114,96.885c-3.113,2.386-5.649,5.352-7.355,8.829
			c-0.389,0.795-2.845,5.765-1.11,6.214c1.608,0.415,5.056-4.87,5.839-5.801c2.158-2.562,4.399-5.063,7.229-6.96
			c4.54-3.042,9.735-4.823,14.939-6.463c0.927-0.29,4.177-1.125,3.258-2.59c-0.885-1.411-3.913-1.103-5.314-0.958
			C82.949,89.833,77.257,92.94,72.114,96.885z"/>
	</g>
	<g>
		<path fill="#F5F5F5" d="M115.887,52.546c0.328-1.182,1.122-2.178,2.106-2.91c0.997-0.723,2.216-1.183,3.493-1.281
			c1.271-0.099,2.625,0.156,3.751,0.868c1.126,0.692,1.967,1.896,2.052,3.14l-0.058-0.065c0.001,0.024,0.035,0.062-0.008,0.063
			c-0.021,0.002-0.1-0.02-0.161,0.092c-0.015,0.046-0.001,0.068,0.001,0.062c0.012,0.003,0.016-0.017,0.02-0.031
			c0.013-0.064,0.01-0.15,0.038-0.229c0.053,0.056,0.117,0.089,0.176,0.149c0.015,0.018,0.03,0.029,0.046,0.065
			c0.006,0.01,0.02,0.051,0,0.112c-0.071,0.126-0.169,0.104-0.206,0.102l-0.177-0.041l0.062,0.016l-0.121-0.082
			c-0.951-0.646-1.822-0.918-2.661-1.089c-0.849-0.149-1.685-0.194-2.553-0.147c-0.866,0.047-1.754,0.175-2.692,0.381
			C118.041,51.918,117.078,52.21,115.887,52.546z"/>
	</g>
	<g>
		<path d="M78.089,62.302c0,0-2.367,23.524,23.752,23.436c0,0,19.413,2.449,19.068-24.917
			C120.909,60.82,106.944,75.62,78.089,62.302z"/>
		<path opacity="0.93" fill="#C43331" d="M84.911,78.74c0,0,8.712-14.773,31.21-2.004
			C116.121,76.736,105.945,93.062,84.911,78.74z"/>
		<path opacity="0.93" fill="#EF3F3F" d="M87.412,79.954c0.879-1.068,2.52-1.6,3.648-2.229
			c1.321-0.739,2.757-1.223,4.134-1.306c4.882-0.294,9.049,0.029,13.588,1.497c1.562,0.507,3.193,1.043,4.669,1.765
			c-1.074,1.294-2.852,2.113-4.213,2.893c-1.457,0.837-2.992,1.386-4.554,1.694c-3.604,0.715-7.239,0.363-10.531-0.839
			C91.868,82.595,89.413,81.365,87.412,79.954z"/>
	</g>
	<g>
		<g>
			<path d="M83.284,42.999c-0.523-0.045-1.072-0.082-1.648-0.113c-3.835-0.202-8.426-0.352-12.135,0.762
				c-3.63,1.092-10.097,5.759-9.278,10.23c0.791,4.335,8.07,6.455,11.726,6.851c20.619,2.231,26.304-9.271,18.344-15.55
				C88.548,43.803,86.346,43.261,83.284,42.999z"/>
			<path opacity="0.12" fill="#F5F5F5" d="M69.886,57.235c2.877,0.869,6.324,0.86,9.031,0.639
				c3.101-0.256,6.087-1.185,8.782-2.585c1.021-0.532,2.205-1.643,3.433-1.435c1.503,0.256,1.444,1.256,0.476,2.226
				c-2.999,2.998-7.862,4.112-12.14,4.32c-3.76,0.187-8.481,0.067-11.935-1.329c-1.873-0.757-4.46-1.872-5.457-3.631
				c-0.663-1.166-0.646-3.883,1.437-2.573C65.927,54.383,66.883,56.33,69.886,57.235z"/>
			<g>
				<path fill="#F5F5F5" d="M71.489,52.685c1.236-1.805,3.387-3.028,5.669-3.194c1.138-0.08,2.314,0.106,3.35,0.628
					c1.029,0.52,1.882,1.409,2.256,2.453l-0.02-0.021l0.056,0.058c-0.074,0.055-0.019,0.025-0.04-0.012
					c-0.01-0.063-0.034-0.133-0.034-0.202c0.023,0.063,0.068,0.115,0.104,0.177c0.009,0.018,0.018,0.03,0.023,0.055
					c0.003,0.01,0.009,0.028-0.002,0.057c-0.029,0.045-0.064,0.033-0.082,0.033c-0.056-0.014-0.08-0.031-0.115-0.049l-0.003-0.001
					l-0.017-0.021c-1.332-1.708-3.418-2.292-5.41-2.161c-1.005,0.06-2,0.308-2.961,0.68C73.3,51.54,72.394,52.067,71.489,52.685z"/>
			</g>
		</g>
		<g>
			<path d="M57.365,52.935c-0.107-1.562,0.171-3.074,0.705-4.521c0.546-1.441,1.394-2.815,2.521-3.953
				c1.121-1.143,2.519-2.012,3.992-2.527c1.479-0.512,3.023-0.713,4.577-0.485c-1.228,0.979-2.409,1.755-3.485,2.576
				c-1.082,0.812-2.054,1.642-2.956,2.551c-0.903,0.907-1.745,1.899-2.593,2.979C59.267,50.626,58.43,51.78,57.365,52.935z"/>
		</g>
	</g>
	<g>
		<g>
			<path d="M140.334,52.821c-1.009-1.164-1.784-2.325-2.578-3.416c-0.782-1.094-1.554-2.107-2.385-3.043
				c-0.831-0.934-1.722-1.799-2.729-2.644c-1.002-0.857-2.115-1.671-3.271-2.688c1.528-0.177,3.04,0.083,4.469,0.654
				c1.424,0.574,2.744,1.512,3.778,2.688c1.04,1.174,1.791,2.56,2.249,3.993C140.313,49.806,140.514,51.296,140.334,52.821z"/>
		</g>
		<g>
			<path d="M115.849,42.217c0.5-0.031,1.025-0.054,1.576-0.068c3.666-0.104,8.052-0.134,11.563,1.075
				c3.438,1.185,9.487,6.019,8.594,10.467c-0.868,4.313-7.873,6.243-11.369,6.545c-19.746,1.695-24.872-9.95-17.111-16.021
				C110.801,42.884,112.918,42.399,115.849,42.217z"/>
			<path opacity="0.12" fill="#F5F5F5" d="M129.015,57.05c-2.841,0.791-6.222,0.693-8.866,0.398
				c-3.031-0.339-5.935-1.343-8.539-2.814c-0.985-0.559-2.115-1.699-3.324-1.521c-1.48,0.218-1.447,1.216-0.523,2.211
				c2.859,3.076,7.596,4.316,11.781,4.64c3.679,0.282,8.309,0.289,11.729-1.017c1.854-0.707,4.419-1.756,5.442-3.485
				c0.68-1.148,0.736-3.865-1.341-2.611C132.97,54.302,131.981,56.223,129.015,57.05z"/>
			<g>
				<path fill="#F5F5F5" d="M127.563,52.458c-0.87-0.639-1.742-1.188-2.677-1.596c-0.933-0.396-1.902-0.674-2.888-0.759
					c-1.955-0.186-4.013,0.361-5.354,2.021l-0.018,0.021h-0.002c-0.036,0.019-0.061,0.034-0.118,0.047
					c-0.021,0.004-0.063,0.002-0.082-0.045c-0.005-0.023,0-0.042,0.004-0.051c0.007-0.021,0.017-0.036,0.025-0.052
					c0.035-0.062,0.081-0.111,0.105-0.174c-0.001,0.068-0.025,0.136-0.037,0.199c-0.025,0.029,0.038,0.078-0.042,0.014l0.055-0.057
					l-0.021,0.021c0.385-1.022,1.234-1.891,2.258-2.389c1.03-0.498,2.199-0.656,3.319-0.547
					C124.343,49.342,126.417,50.635,127.563,52.458z"/>
			</g>
		</g>
	</g>
	<g>
		<g>
			<g>
				<path fill="#23B2B9" d="M32.325,53.696c3.382,3.56,9.153,2.396,13.306,1.257c-3.57,0.817-5.716-5.601-9.021-6.459
					c-1.05-0.273-2.091-0.055-3.021,0.479C30.944,50.497,30.932,52.229,32.325,53.696z"/>
				<path opacity="0.43" fill="#F5F5F5" d="M39.824,53.248c0.026,0.021,0.052,0.044,0.077,0.066
					c0.574,0.479,2.128,1.931,2.925,1.519c-0.016-0.565-0.64-0.763-1.021-1.008c-0.464-0.3-0.812-0.738-1.104-1.209
					c-0.465-0.746-1.242-1.263-1.795-1.968c-0.633-0.811-1.446-1.603-2.475-1.85c-0.723-0.174-2.417-0.275-2.713,0.673
					c-0.249,0.802,1.059,0.953,1.562,0.882C37.305,50.071,38.479,52.089,39.824,53.248z"/>
			</g>
			<g>
				<path fill="#23B2B9" d="M38.682,66.503c3.582-0.266,5.603-4.071,6.882-6.948c-1.19,2.399-5.817,0.638-7.838,2.109
					c-0.642,0.467-1,1.156-1.129,1.932C36.231,65.8,37.205,66.609,38.682,66.503z"/>
				<path opacity="0.43" fill="#F5F5F5" d="M41.906,62.05c0.025-0.005,0.049-0.009,0.073-0.013
					c0.536-0.104,2.079-0.311,2.214-0.951c-0.324-0.254-0.727,0.009-1.043,0.109c-0.385,0.125-0.795,0.117-1.195,0.065
					c-0.639-0.084-1.29,0.118-1.945,0.102c-0.752-0.017-1.577,0.076-2.193,0.544c-0.435,0.329-1.277,1.24-0.878,1.848
					c0.339,0.513,1.031-0.157,1.225-0.475C38.94,62.003,40.625,62.273,41.906,62.05z"/>
			</g>
		</g>
		<g>
			<g>
				<path fill="#23B2B9" d="M164.703,53.647c-3.32,3.47-8.805,2.158-12.737,0.908c3.388,0.913,5.603-5.447,8.779-6.223
					c1.009-0.244,1.998,0.002,2.871,0.561C166.104,50.485,166.071,52.216,164.703,53.647z"/>
				<path opacity="0.43" fill="#F5F5F5" d="M157.553,53.005c-0.024,0.021-0.05,0.041-0.075,0.063
					c-0.561,0.464-2.082,1.873-2.83,1.441c0.028-0.564,0.629-0.744,1-0.982c0.451-0.284,0.797-0.715,1.086-1.179
					c0.462-0.732,1.222-1.229,1.765-1.919c0.627-0.795,1.423-1.563,2.411-1.785c0.693-0.153,2.314-0.213,2.572,0.743
					c0.219,0.807-1.036,0.925-1.514,0.841C160.041,49.894,158.869,51.879,157.553,53.005z"/>
			</g>
			<g>
				<path fill="#23B2B9" d="M158.301,66.284c-3.413-0.357-5.243-4.215-6.391-7.124c1.075,2.429,5.54,0.788,7.43,2.31
					c0.6,0.484,0.925,1.184,1.027,1.963C160.659,65.646,159.709,66.429,158.301,66.284z"/>
				<path opacity="0.43" fill="#F5F5F5" d="M155.338,61.749c-0.024-0.005-0.048-0.01-0.071-0.017
					c-0.509-0.115-1.978-0.36-2.089-1.007c0.317-0.245,0.692,0.027,0.993,0.139c0.364,0.134,0.755,0.138,1.141,0.096
					c0.61-0.067,1.229,0.15,1.854,0.152c0.719,0.003,1.505,0.115,2.08,0.6c0.404,0.34,1.188,1.271,0.79,1.869
					c-0.335,0.504-0.979-0.185-1.155-0.506C158.171,61.778,156.554,62.006,155.338,61.749z"/>
			</g>
		</g>
	</g>
	<g>
		<g>
			<path stroke="#FFFFFF" stroke-width="2" stroke-miterlimit="10" d="M136.799,101.249c-0.367-0.38-0.709-0.826-1.017-1.341
				c-1.234-2.064-1.569-6.202-4.934-3.867c-2.594,1.803-2.476,5.961-1.591,8.659c1.336,4.075,4.192,7.74,7.108,10.786
				c2.403,2.512,8.975,8.122,12.749,5.912c3.875-2.27,3.118-12.815,2.534-16.428c-0.196-1.218-0.52-3.494-1.691-4.184
				c-1.903-1.118-4.729,1.704-6.644,2.09C140.761,103.392,138.48,102.987,136.799,101.249z"/>
		</g>
		<path opacity="0.12" fill="#F5F5F5" d="M138.685,115.609c1.816,1.792,6.897,5.785,9.661,4.1
			c1.234-0.756,1.763-3.069,1.011-4.375c-0.87-1.512-2.901-1.521-4.459-1.851c-4.143-0.877-7.399-4.844-10.368-7.765
			c-3.272-3.222-4.401-1.172-2.117,2.489C134.108,110.931,136.389,113.344,138.685,115.609z"/>
	</g>
	<g>
		<g>
			<path stroke="#FFFFFF" stroke-width="2" stroke-miterlimit="10" d="M61.859,100.756c0.383-0.371,0.737-0.808,1.062-1.313
				c1.297-2.03,1.745-6.158,5.07-3.734c2.561,1.87,2.333,6.023,1.369,8.699c-1.453,4.037-4.427,7.626-7.444,10.594
				c-2.487,2.444-9.251,7.88-12.992,5.569c-3.84-2.369-2.799-12.894-2.115-16.488c0.233-1.212,0.615-3.479,1.814-4.138
				c1.945-1.065,4.715,1.828,6.635,2.267C57.815,102.791,60.123,102.448,61.859,100.756z"/>
		</g>
		<path opacity="0.12" fill="#F5F5F5" d="M59.58,115.061c-1.875,1.743-7.099,5.601-9.835,3.84
			c-1.225-0.785-1.693-3.113-0.901-4.399c0.915-1.487,2.963-1.442,4.539-1.73c4.193-0.768,7.578-4.645,10.644-7.484
			c3.383-3.136,4.466-1.057,2.066,2.544C64.312,110.504,61.952,112.856,59.58,115.061z"/>
	</g>
</g>
</svg>
