<?xml version="1.0" encoding="UTF-8" ?>
<!DOCTYPE svg PUBLIC "-//W3C//DTD SVG 1.1//EN" "http://www.w3.org/Graphics/SVG/1.1/DTD/svg11.dtd">
<svg width="500pt" height="481pt" viewBox="0 0 500 481" version="1.1" xmlns="http://www.w3.org/2000/svg">
<g id="#ff8667ff">
<path fill="#ff8667" opacity="1.00" d=" M 274.36 1.39 C 277.23 -0.38 281.55 -0.72 283.93 2.07 C 287.91 6.07 288.65 11.93 289.47 17.24 C 293.03 13.64 296.81 9.51 302.08 8.68 C 305.48 8.22 309.88 9.42 310.99 13.07 C 312.30 18.45 309.56 24.05 305.11 27.11 C 298.60 31.91 289.82 34.90 286.85 43.19 C 285.57 43.26 284.29 43.31 283.01 43.35 C 277.40 35.02 270.43 27.07 268.08 17.06 C 266.51 11.20 268.97 4.37 274.36 1.39 M 274.86 6.38 C 277.11 7.24 279.95 7.47 281.43 9.62 C 283.15 12.26 284.02 15.34 285.27 18.22 C 286.04 17.42 286.83 16.63 287.55 15.78 C 286.76 11.79 284.86 7.81 281.67 5.18 C 279.51 3.38 275.57 3.03 274.86 6.38 M 299.13 12.15 C 300.79 14.40 302.82 16.35 304.36 18.69 C 299.37 22.45 293.36 24.60 288.46 28.49 C 286.35 30.57 283.58 33.70 285.20 36.82 C 287.19 37.16 287.73 34.95 288.74 33.72 C 292.88 26.48 302.45 25.72 307.70 19.66 C 312.08 14.68 303.18 7.46 299.13 12.15 Z" />
<path fill="#ff8667" opacity="1.00" d=" M 232.07 36.19 C 233.69 35.19 235.51 36.22 236.86 37.17 C 239.69 39.37 241.41 42.59 243.23 45.60 C 246.35 42.52 249.74 38.10 254.62 38.45 C 257.94 39.85 258.58 44.55 257.33 47.57 C 254.99 52.20 250.42 55.06 246.62 58.38 C 248.47 53.48 253.92 50.44 254.33 44.98 C 253.64 42.50 250.87 42.35 248.84 41.68 C 249.45 43.32 250.08 44.96 250.73 46.59 C 248.52 49.74 245.80 52.48 243.46 55.52 C 242.62 56.86 241.03 58.89 242.81 60.15 C 243.87 59.85 244.92 59.51 245.96 59.13 C 244.35 60.67 243.79 65.02 241.12 64.24 C 236.17 59.19 230.21 54.22 228.73 46.94 C 227.88 43.20 228.19 38.11 232.07 36.19 M 231.59 38.97 C 233.50 40.94 235.32 43.23 237.99 44.20 C 240.63 42.51 237.83 39.91 236.21 38.72 C 234.80 37.43 233.04 38.30 231.59 38.97 Z" />
<path fill="#ff8667" opacity="1.00" d=" M 240.71 79.73 C 244.22 77.85 248.79 82.35 246.85 85.89 C 244.74 90.18 241.27 93.64 238.01 97.08 C 234.08 97.98 231.48 93.92 228.53 92.06 C 227.06 89.80 226.37 86.61 228.67 84.60 C 230.85 82.17 233.50 85.08 235.41 86.31 C 236.82 83.89 238.09 81.07 240.71 79.73 M 237.77 86.78 C 240.40 85.91 243.15 85.41 245.93 85.47 C 246.86 79.58 235.95 81.36 237.77 86.78 Z" />
<path fill="#ff8667" opacity="1.00" d=" M 244.44 125.97 C 243.90 121.08 245.65 114.78 250.97 113.38 C 252.34 113.82 253.61 114.53 254.90 115.18 C 256.07 118.72 257.18 122.29 258.00 125.93 C 258.93 124.91 259.84 123.88 260.82 122.89 C 263.34 121.19 266.47 119.38 269.62 120.43 C 272.68 121.58 273.49 125.11 273.95 127.99 C 273.48 129.26 273.02 130.54 272.59 131.83 C 270.71 134.86 268.24 137.47 265.48 139.70 C 260.05 143.27 256.28 148.71 251.00 152.41 C 248.99 143.55 245.30 135.06 244.44 125.97 M 246.98 118.48 C 249.96 119.99 251.92 122.64 253.18 125.68 C 258.63 122.81 250.22 112.48 246.98 118.48 M 261.93 126.96 C 263.48 128.06 265.45 127.48 267.21 127.52 C 267.62 129.12 267.14 132.19 269.70 131.67 C 271.24 130.80 271.09 128.51 270.77 127.01 C 269.68 123.11 262.50 122.70 261.93 126.96 M 259.32 136.35 C 255.78 138.53 253.10 142.11 251.65 145.99 C 252.22 146.34 253.35 147.04 253.92 147.39 C 256.26 144.29 258.59 141.18 261.38 138.46 C 262.57 137.35 260.53 135.53 259.32 136.35 Z" />
<path fill="#ff8667" opacity="1.00" d=" M 218.07 151.53 C 219.96 148.09 221.46 143.92 225.10 141.94 C 227.41 140.50 229.59 143.21 229.51 145.42 C 229.60 151.12 227.09 156.44 224.73 161.49 C 224.11 162.82 223.51 164.17 222.95 165.54 C 221.84 168.15 221.07 171.02 219.12 173.18 C 217.85 172.54 216.65 171.78 215.52 170.94 C 211.83 166.04 207.13 161.47 205.54 155.36 C 204.46 151.71 206.81 148.42 208.44 145.37 C 212.73 145.35 215.96 148.03 218.07 151.53 M 223.16 148.13 C 222.06 149.07 223.03 150.79 222.84 152.03 C 223.74 157.58 218.14 161.56 218.02 166.83 C 219.48 169.38 221.25 166.22 221.82 164.72 C 223.74 160.07 227.29 155.34 226.06 150.06 C 225.83 148.92 224.38 146.26 223.16 148.13 M 209.14 148.90 C 209.14 149.65 209.14 151.15 209.15 151.91 C 211.05 152.13 215.53 153.82 214.85 150.25 C 213.69 148.50 210.96 149.33 209.14 148.90 Z" />
<path fill="#ff8667" opacity="1.00" d=" M 227.81 200.16 C 229.48 198.94 231.13 197.71 232.66 196.32 C 233.81 197.55 234.96 198.79 236.11 200.03 L 235.88 201.35 C 235.66 202.82 235.47 204.29 235.22 205.76 C 233.61 210.19 230.92 214.11 227.98 217.75 C 224.14 213.92 221.37 209.26 219.07 204.39 C 220.11 202.25 221.27 200.17 222.58 198.18 C 224.09 199.01 225.60 199.87 227.15 200.64 C 227.32 200.52 227.65 200.28 227.81 200.16 M 226.35 211.57 C 227.12 212.17 227.90 212.74 228.72 213.28 C 230.49 210.47 232.70 207.66 232.98 204.23 C 232.67 203.95 232.05 203.38 231.74 203.10 C 228.78 204.83 227.65 208.57 226.35 211.57 Z" />
<path fill="#ff8667" opacity="1.00" d=" M 225.34 234.84 C 226.81 232.56 227.87 229.19 231.01 228.84 C 234.09 228.21 235.92 231.21 237.66 233.16 L 236.83 233.17 C 234.38 234.56 231.81 236.28 230.91 239.11 C 229.16 243.68 231.96 248.43 235.24 251.52 C 234.86 252.13 234.11 253.36 233.74 253.98 C 233.35 255.63 232.95 257.28 232.63 258.95 C 231.99 259.66 231.35 260.37 230.72 261.08 C 224.72 257.01 218.65 252.26 215.42 245.59 C 213.47 241.76 214.36 237.41 216.02 233.67 C 217.52 233.36 219.02 233.05 220.52 232.74 C 222.13 233.43 223.73 234.13 225.34 234.84 M 230.38 231.47 C 228.96 232.96 226.57 235.10 227.91 237.32 C 230.69 237.10 232.24 234.11 233.74 232.05 C 233.14 230.67 231.41 230.35 230.38 231.47 M 218.70 238.58 C 221.05 239.20 223.42 239.83 225.86 239.96 C 226.42 235.98 219.48 234.33 218.70 238.58 Z" />
</g>
<g id="#ffa08cff">
<path fill="#ffa08c" opacity="1.00" d=" M 274.86 6.38 C 275.57 3.03 279.51 3.38 281.67 5.18 C 284.86 7.81 286.76 11.79 287.55 15.78 C 286.83 16.63 286.04 17.42 285.27 18.22 C 284.02 15.34 283.15 12.26 281.43 9.62 C 279.95 7.47 277.11 7.24 274.86 6.38 Z" />
<path fill="#ffa08c" opacity="1.00" d=" M 237.77 86.78 C 235.95 81.36 246.86 79.58 245.93 85.47 C 243.15 85.41 240.40 85.91 237.77 86.78 Z" />
<path fill="#ffa08c" opacity="1.00" d=" M 223.16 148.13 C 224.38 146.26 225.83 148.92 226.06 150.06 C 227.29 155.34 223.74 160.07 221.82 164.72 C 221.25 166.22 219.48 169.38 218.02 166.83 C 218.14 161.56 223.74 157.58 222.84 152.03 C 223.03 150.79 222.06 149.07 223.16 148.13 Z" />
<path fill="#ffa08c" opacity="1.00" d=" M 226.35 211.57 C 227.65 208.57 228.78 204.83 231.74 203.10 C 232.05 203.38 232.67 203.95 232.98 204.23 C 232.70 207.66 230.49 210.47 228.72 213.28 C 227.90 212.74 227.12 212.17 226.35 211.57 Z" />
</g>
<g id="#ff9f8aff">
<path fill="#ff9f8a" opacity="1.00" d=" M 299.13 12.15 C 303.18 7.46 312.08 14.68 307.70 19.66 C 302.45 25.72 292.88 26.48 288.74 33.72 C 287.73 34.95 287.19 37.16 285.20 36.82 C 283.58 33.70 286.35 30.57 288.46 28.49 C 293.36 24.60 299.37 22.45 304.36 18.69 C 302.82 16.35 300.79 14.40 299.13 12.15 Z" />
<path fill="#ff9f8a" opacity="1.00" d=" M 230.38 231.47 C 231.41 230.35 233.14 230.67 233.74 232.05 C 232.24 234.11 230.69 237.10 227.91 237.32 C 226.57 235.10 228.96 232.96 230.38 231.47 Z" />
<path fill="#ff9f8a" opacity="1.00" d=" M 218.70 238.58 C 219.48 234.33 226.42 235.98 225.86 239.96 C 223.42 239.83 221.05 239.20 218.70 238.58 Z" />
</g>
<g id="#ffa18cff">
<path fill="#ffa18c" opacity="1.00" d=" M 231.59 38.97 C 233.04 38.30 234.80 37.43 236.21 38.72 C 237.83 39.91 240.63 42.51 237.99 44.20 C 235.32 43.23 233.50 40.94 231.59 38.97 Z" />
<path fill="#ffa18c" opacity="1.00" d=" M 261.93 126.96 C 262.50 122.70 269.68 123.11 270.77 127.01 C 271.09 128.51 271.24 130.80 269.70 131.67 C 267.14 132.19 267.62 129.12 267.21 127.52 C 265.45 127.48 263.48 128.06 261.93 126.96 Z" />
</g>
<g id="#ffa08bff">
<path fill="#ffa08b" opacity="1.00" d=" M 248.84 41.68 C 250.87 42.35 253.64 42.50 254.33 44.98 C 253.92 50.44 248.47 53.48 246.62 58.38 L 246.28 59.02 L 245.96 59.13 C 244.92 59.51 243.87 59.85 242.81 60.15 C 241.03 58.89 242.62 56.86 243.46 55.52 C 245.80 52.48 248.52 49.74 250.73 46.59 C 250.08 44.96 249.45 43.32 248.84 41.68 Z" />
<path fill="#ffa08b" opacity="1.00" d=" M 259.32 136.35 C 260.53 135.53 262.57 137.35 261.38 138.46 C 258.59 141.18 256.26 144.29 253.92 147.39 C 253.35 147.04 252.22 146.34 251.65 145.99 C 253.10 142.11 255.78 138.53 259.32 136.35 Z" />
</g>
<g id="#e49c37ff">
<path fill="#e49c37" opacity="1.00" d=" M 68.06 91.04 C 82.42 79.17 99.02 68.66 117.88 66.38 C 129.13 64.72 140.46 66.72 151.51 68.78 C 169.66 72.29 187.45 77.40 205.15 82.65 C 213.14 85.24 221.17 87.97 228.53 92.06 C 231.48 93.92 234.08 97.98 238.01 97.08 C 245.01 100.52 251.26 105.26 257.50 109.88 C 256.77 111.08 256.14 112.34 255.54 113.62 C 243.09 104.44 230.04 95.72 215.38 90.49 C 203.81 86.38 191.89 83.39 180.16 79.79 C 162.19 74.69 143.82 69.80 124.99 69.99 C 107.62 70.36 91.50 78.52 77.95 88.88 C 59.76 103.06 43.49 120.28 32.83 140.90 C 22.55 160.73 14.03 181.67 9.58 203.62 C 5.34 223.72 2.97 244.38 4.73 264.92 C 6.31 283.34 12.51 300.91 15.74 319.04 C 16.83 324.97 17.02 331.03 18.17 336.95 C 20.42 349.08 22.31 361.53 20.67 373.87 C 20.18 377.92 18.86 381.87 18.90 385.97 C 18.80 387.47 20.59 388.48 21.93 387.96 C 26.01 387.02 29.20 384.11 32.50 381.70 C 32.87 383.23 33.26 384.77 33.66 386.31 C 29.49 389.15 25.25 392.82 19.94 392.91 C 17.18 393.05 14.58 390.84 14.20 388.12 C 13.30 381.87 16.64 376.10 16.97 369.95 C 17.53 361.98 16.62 353.98 15.45 346.10 C 14.42 338.74 12.18 331.56 12.19 324.08 C 9.20 302.26 1.37 281.30 0.00 259.22 L 0.00 245.03 C 0.98 223.59 4.21 202.17 10.84 181.72 C 21.83 147.39 40.13 114.42 68.06 91.04 Z" />
<path fill="#e49c37" opacity="1.00" d=" M 131.02 147.77 C 133.92 148.90 135.49 151.76 134.66 154.84 C 132.90 164.51 126.07 172.13 120.70 180.03 C 118.32 182.93 116.00 185.91 114.33 189.29 C 118.94 189.39 123.56 188.68 127.84 186.91 C 143.62 181.17 156.33 169.70 168.06 158.06 C 170.81 155.44 173.43 152.39 177.08 151.02 C 179.29 150.00 181.29 151.85 183.26 152.63 C 183.08 155.31 182.58 157.96 181.92 160.57 C 177.18 167.47 172.50 174.61 166.11 180.13 C 164.27 181.75 162.87 183.78 161.57 185.83 C 165.28 186.85 169.11 187.61 172.97 187.36 C 188.50 186.80 203.25 180.19 215.52 170.94 C 216.65 171.78 217.85 172.54 219.12 173.18 C 221.07 171.02 221.84 168.15 222.95 165.54 C 225.05 165.82 227.47 165.38 229.33 166.60 C 230.37 168.45 229.84 170.67 229.45 172.62 C 227.60 179.82 223.60 186.18 220.21 192.71 C 229.51 192.98 235.89 185.37 241.94 179.45 C 242.62 179.84 243.97 180.61 244.65 180.99 C 243.50 188.04 239.15 193.77 236.11 200.03 C 234.96 198.79 233.81 197.55 232.66 196.32 C 233.80 194.77 234.81 193.13 235.85 191.50 C 233.17 193.03 230.58 194.69 227.87 196.15 C 224.22 197.10 220.13 197.94 216.56 196.30 C 216.08 194.28 216.14 192.19 216.12 190.14 C 220.71 184.29 223.50 177.30 225.86 170.32 C 216.20 175.86 207.04 182.39 196.66 186.58 C 186.71 190.74 175.68 192.67 164.95 191.11 C 162.09 190.60 158.48 189.71 157.40 186.64 C 156.88 183.87 158.73 181.40 160.52 179.51 C 167.85 172.40 175.58 164.91 179.08 155.06 C 176.75 156.33 174.47 157.74 172.60 159.64 C 162.26 169.70 152.30 180.81 138.98 186.98 C 131.68 190.32 124.17 193.97 116.00 194.29 C 112.36 194.77 107.89 190.84 110.03 187.14 C 112.79 181.75 117.56 177.76 120.68 172.61 C 124.43 166.55 128.85 160.62 130.42 153.53 C 126.36 158.15 123.44 163.70 118.91 167.93 C 114.23 172.39 109.00 176.81 102.62 178.49 C 99.84 179.32 97.19 177.86 94.72 176.79 C 89.99 181.19 84.76 185.25 78.66 187.55 C 76.18 188.58 73.48 188.01 70.92 187.72 C 66.40 191.67 61.55 196.81 55.03 196.45 C 52.00 196.53 51.42 193.31 50.56 191.12 C 49.35 192.60 48.13 194.06 46.89 195.51 C 46.62 195.83 46.09 196.45 45.82 196.76 C 43.25 198.72 40.50 200.57 37.35 201.43 C 34.67 202.15 31.96 201.11 29.35 200.53 C 29.10 197.33 29.90 194.18 31.39 191.37 C 33.86 186.54 36.26 181.67 38.34 176.66 C 39.65 177.55 40.98 178.45 41.90 179.77 C 39.78 185.92 36.67 191.65 33.92 197.53 C 37.00 196.76 40.20 195.86 42.52 193.57 C 46.23 190.43 47.84 185.56 51.36 182.27 C 53.31 180.55 56.81 182.42 56.47 184.98 C 56.41 187.48 55.82 189.94 55.41 192.41 C 61.11 190.48 66.55 187.01 69.52 181.63 C 71.85 177.29 75.29 173.46 76.51 168.61 C 77.72 162.63 77.74 156.50 77.70 150.44 C 79.13 149.74 80.60 149.14 82.06 148.53 C 82.38 155.90 82.06 163.35 80.53 170.59 C 78.95 175.11 75.99 178.94 73.77 183.14 C 80.23 183.44 85.56 179.21 90.04 175.07 C 93.15 172.28 94.76 168.17 98.05 165.58 C 102.07 166.67 98.59 171.07 97.90 173.48 C 100.03 173.78 102.27 174.50 104.30 173.39 C 113.29 169.53 119.41 161.44 124.46 153.38 C 125.92 150.77 128.44 149.12 131.02 147.77 Z" />
<path fill="#e49c37" opacity="1.00" d=" M 235.88 201.35 C 243.21 198.91 248.95 193.67 254.60 188.65 C 253.52 191.60 252.58 194.59 251.58 197.57 C 249.67 198.77 247.77 199.98 245.87 201.19 C 244.36 202.15 242.83 203.10 241.23 203.93 C 239.26 204.63 237.23 205.18 235.22 205.76 C 235.47 204.29 235.66 202.82 235.88 201.35 Z" />
</g>
<g id="#734329ff">
<path fill="#734329" opacity="1.00" d=" M 323.94 68.92 C 328.52 65.56 334.59 65.35 340.02 66.11 C 358.35 68.50 376.53 73.29 393.02 81.78 C 418.13 94.57 439.28 114.17 456.22 136.52 C 455.81 129.24 455.47 121.42 458.89 114.74 C 460.72 110.85 466.23 109.46 469.58 112.23 C 472.62 114.88 473.11 119.21 473.26 123.00 C 473.23 129.20 472.49 135.39 471.39 141.48 C 478.05 138.81 485.52 136.06 492.70 138.31 C 496.43 139.45 498.80 142.86 500.00 146.40 L 500.00 150.72 C 497.02 157.12 489.39 158.56 483.19 159.91 C 496.65 176.21 500.20 198.83 496.08 219.18 C 495.23 223.22 493.52 228.20 488.99 229.25 C 486.18 230.15 484.31 227.46 482.49 225.88 C 480.60 239.26 475.13 252.16 466.82 262.80 C 459.11 256.87 447.37 254.65 438.81 259.94 C 434.72 262.85 431.58 266.88 429.31 271.34 C 428.33 272.71 427.81 274.79 426.06 275.35 C 421.26 274.34 417.71 270.67 414.53 267.20 C 416.79 250.21 421.88 233.66 429.11 218.14 C 431.42 213.10 434.54 208.46 438.40 204.48 C 427.83 205.10 417.33 203.19 407.05 200.95 C 397.85 198.93 388.77 195.56 381.27 189.74 C 378.80 187.75 376.40 185.24 375.85 182.00 C 375.40 179.05 377.45 176.60 378.83 174.21 C 368.29 172.87 358.14 169.67 347.89 167.02 C 340.36 165.07 332.70 163.03 326.03 158.88 C 322.44 156.63 318.79 153.93 316.99 149.96 C 315.88 147.56 316.56 144.86 316.69 142.35 C 309.34 142.41 302.07 141.16 294.87 139.83 C 290.58 139.00 286.11 137.78 282.91 134.62 C 282.10 133.84 281.32 133.04 280.51 132.28 C 280.21 132.27 279.59 132.26 279.28 132.26 C 277.04 132.27 274.81 132.06 272.59 131.83 C 273.02 130.54 273.48 129.26 273.95 127.99 C 279.02 127.87 284.01 126.04 289.08 126.60 C 289.48 127.54 289.90 128.47 290.36 129.38 C 288.66 130.00 286.98 130.62 285.29 131.26 C 287.61 132.90 290.03 134.54 292.85 135.15 C 300.74 136.97 308.85 137.75 316.94 137.83 C 321.27 138.02 325.69 137.88 329.90 139.04 C 331.43 139.33 332.32 140.71 333.14 141.90 C 329.79 144.34 325.13 142.62 321.58 144.62 C 318.62 146.52 321.76 149.83 323.37 151.57 C 332.29 159.35 344.43 161.29 355.41 164.65 C 366.79 168.14 378.52 170.35 390.40 171.14 C 390.52 175.35 386.02 175.60 383.20 177.28 C 381.40 178.13 379.65 180.26 380.57 182.34 C 381.83 184.96 384.31 186.72 386.67 188.31 C 394.13 193.04 402.68 195.72 411.31 197.34 C 419.03 199.34 427.00 200.59 435.00 200.40 C 439.39 200.38 443.97 198.70 448.15 200.77 C 447.82 201.70 447.50 202.64 447.19 203.58 C 439.17 207.83 434.32 215.88 431.05 224.04 C 426.44 235.71 422.46 247.68 419.96 259.99 C 419.66 262.06 419.01 264.26 419.65 266.33 C 420.94 268.06 422.88 269.14 424.59 270.41 C 428.37 263.61 433.36 257.21 440.59 253.87 C 447.40 252.78 454.74 252.48 460.93 256.03 C 462.30 256.76 463.64 257.55 464.99 258.33 C 471.78 248.21 476.86 236.73 478.39 224.57 C 478.87 220.77 478.61 216.91 479.26 213.13 C 480.00 211.75 482.28 211.50 482.85 213.18 C 484.39 217.34 484.90 221.99 488.04 225.40 C 489.70 223.12 491.27 220.68 491.82 217.87 C 495.51 201.36 493.13 183.30 484.23 168.80 C 482.13 165.25 479.12 162.36 477.01 158.84 C 477.35 157.78 477.91 156.52 479.20 156.41 C 483.68 155.32 488.77 155.49 492.53 152.43 C 494.28 151.00 496.41 148.82 495.59 146.35 C 494.28 143.56 491.10 142.11 488.18 141.74 C 484.03 141.30 479.93 142.54 476.16 144.15 C 472.91 145.50 469.75 147.58 466.08 147.25 C 466.23 146.12 466.41 145.00 466.60 143.88 C 467.97 136.33 469.33 128.66 469.06 120.95 C 469.10 118.17 466.93 116.25 465.21 114.37 C 463.95 116.46 462.64 118.57 462.02 120.95 C 458.79 128.94 461.08 137.47 460.78 145.72 C 460.32 145.92 459.41 146.30 458.95 146.49 C 454.95 143.23 452.63 138.48 449.30 134.62 C 433.29 114.68 413.78 96.90 390.55 85.81 C 376.52 77.84 360.66 74.08 345.03 70.69 C 339.38 69.69 333.06 68.80 327.82 71.74 C 325.04 73.20 323.57 76.59 324.55 79.60 C 326.85 88.39 334.80 93.68 339.52 100.99 C 334.68 103.12 329.55 100.97 324.62 100.45 C 305.82 97.99 285.84 98.25 268.37 106.45 C 264.34 108.52 259.92 111.35 258.77 116.03 C 258.03 118.55 259.76 120.77 260.82 122.89 C 259.84 123.88 258.93 124.91 258.00 125.93 C 257.18 122.29 256.07 118.72 254.90 115.18 C 255.06 114.79 255.38 114.01 255.54 113.62 C 256.14 112.34 256.77 111.08 257.50 109.88 C 261.36 104.72 267.18 101.52 273.13 99.39 C 280.47 96.81 288.23 95.48 295.99 95.22 C 307.63 94.87 319.34 95.21 330.83 97.20 C 326.19 92.22 321.32 86.84 319.75 80.02 C 318.70 75.89 320.51 71.38 323.94 68.92 Z" />
</g>
<g id="#ffb951ff">
<path fill="#ffb951" opacity="1.00" d=" M 77.95 88.88 C 91.50 78.52 107.62 70.36 124.99 69.99 C 143.82 69.80 162.19 74.69 180.16 79.79 C 191.89 83.39 203.81 86.38 215.38 90.49 C 230.04 95.72 243.09 104.44 255.54 113.62 C 255.38 114.01 255.06 114.79 254.90 115.18 C 253.61 114.53 252.34 113.82 250.97 113.38 C 245.65 114.78 243.90 121.08 244.44 125.97 C 245.30 135.06 248.99 143.55 251.00 152.41 C 249.74 153.23 248.47 154.02 247.23 154.85 C 242.57 149.16 241.96 141.52 240.45 134.60 C 239.01 123.09 235.62 111.63 229.02 101.97 C 227.66 100.00 225.86 98.31 223.68 97.30 C 209.39 90.91 193.44 89.67 177.97 90.12 C 161.63 90.58 145.51 86.18 129.16 87.36 C 117.83 88.54 106.73 91.74 96.31 96.32 C 87.93 99.96 81.13 106.30 74.83 112.76 C 68.77 119.05 61.87 124.73 57.37 132.33 C 55.30 135.90 53.17 139.43 50.81 142.81 C 47.73 147.16 45.86 152.31 42.22 156.27 C 36.50 162.63 30.26 168.78 26.56 176.62 C 21.16 187.76 19.87 200.22 17.29 212.19 C 13.70 228.88 11.41 245.88 10.95 262.96 C 10.80 276.09 10.86 289.53 14.88 302.17 C 16.08 306.21 18.85 309.46 21.88 312.28 C 23.92 309.27 25.78 306.04 26.44 302.41 C 28.45 292.46 28.77 282.20 31.43 272.37 C 32.88 267.48 35.08 262.42 39.36 259.37 C 42.58 257.04 46.70 257.03 50.47 256.52 C 50.64 257.51 50.82 258.51 51.01 259.52 C 40.83 264.24 33.33 274.16 30.88 285.06 C 24.01 316.86 25.31 350.08 32.50 381.70 C 29.20 384.11 26.01 387.02 21.93 387.96 C 20.59 388.48 18.80 387.47 18.90 385.97 C 18.86 381.87 20.18 377.92 20.67 373.87 C 22.31 361.53 20.42 349.08 18.17 336.95 C 17.02 331.03 16.83 324.97 15.74 319.04 C 12.51 300.91 6.31 283.34 4.73 264.92 C 2.97 244.38 5.34 223.72 9.58 203.62 C 14.03 181.67 22.55 160.73 32.83 140.90 C 43.49 120.28 59.76 103.06 77.95 88.88 Z" />
<path fill="#ffb951" opacity="1.00" d=" M 265.48 139.70 C 268.24 137.47 270.71 134.86 272.59 131.83 C 274.81 132.06 277.04 132.27 279.28 132.26 C 276.25 137.79 273.73 143.58 270.88 149.21 C 269.66 149.25 268.44 149.32 267.22 149.42 C 266.65 146.18 266.06 142.94 265.48 139.70 Z" />
<path fill="#ffb951" opacity="1.00" d=" M 201.65 146.64 C 203.35 144.65 206.16 145.29 208.44 145.37 C 206.81 148.42 204.46 151.71 205.54 155.36 C 207.13 161.47 211.83 166.04 215.52 170.94 C 203.25 180.19 188.50 186.80 172.97 187.36 C 169.11 187.61 165.28 186.85 161.57 185.83 C 162.87 183.78 164.27 181.75 166.11 180.13 C 172.50 174.61 177.18 167.47 181.92 160.57 C 182.01 163.66 181.74 167.00 183.16 169.85 C 189.40 175.67 201.32 169.49 200.15 161.02 C 200.25 156.30 197.55 150.41 201.65 146.64 Z" />
<path fill="#ffb951" opacity="1.00" d=" M 124.03 148.02 C 126.18 146.91 128.72 147.65 131.02 147.77 C 128.44 149.12 125.92 150.77 124.46 153.38 C 119.41 161.44 113.29 169.53 104.30 173.39 C 102.27 174.50 100.03 173.78 97.90 173.48 C 98.59 171.07 102.07 166.67 98.05 165.58 C 94.76 168.17 93.15 172.28 90.04 175.07 C 85.56 179.21 80.23 183.44 73.77 183.14 C 75.99 178.94 78.95 175.11 80.53 170.59 C 82.52 172.26 85.08 174.60 87.81 172.95 C 92.68 170.15 94.90 164.60 98.17 160.28 C 100.41 162.23 102.84 166.02 106.28 164.36 C 113.77 160.81 117.15 152.38 124.03 148.02 Z" />
<path fill="#ffb951" opacity="1.00" d=" M 153.04 162.09 C 161.68 155.81 171.08 147.93 182.50 149.20 C 182.77 150.34 183.02 151.48 183.26 152.63 C 181.29 151.85 179.29 150.00 177.08 151.02 C 173.43 152.39 170.81 155.44 168.06 158.06 C 156.33 169.70 143.62 181.17 127.84 186.91 C 123.56 188.68 118.94 189.39 114.33 189.29 C 116.00 185.91 118.32 182.93 120.70 180.03 C 121.23 181.78 121.76 183.53 122.28 185.28 C 124.67 184.90 127.24 184.79 129.31 183.36 C 138.38 177.62 144.72 168.71 153.04 162.09 Z" />
<path fill="#ffb951" opacity="1.00" d=" M 68.45 171.37 C 74.35 165.80 72.27 156.33 77.70 150.44 C 77.74 156.50 77.72 162.63 76.51 168.61 C 75.29 173.46 71.85 177.29 69.52 181.63 C 66.55 187.01 61.11 190.48 55.41 192.41 C 55.82 189.94 56.41 187.48 56.47 184.98 C 56.81 182.42 53.31 180.55 51.36 182.27 C 47.84 185.56 46.23 190.43 42.52 193.57 C 40.20 195.86 37.00 196.76 33.92 197.53 C 36.67 191.65 39.78 185.92 41.90 179.77 C 42.74 180.69 43.45 182.23 44.99 181.92 C 49.25 180.62 52.39 177.05 56.70 175.86 C 60.68 174.61 65.40 174.61 68.45 171.37 Z" />
<path fill="#ffb951" opacity="1.00" d=" M 262.06 159.14 C 263.13 159.88 264.24 160.56 265.38 161.21 C 262.21 168.54 259.23 175.96 256.60 183.51 C 256.03 185.03 255.45 186.54 254.85 188.05 L 254.60 188.65 C 248.95 193.67 243.21 198.91 235.88 201.35 L 236.11 200.03 C 239.15 193.77 243.50 188.04 244.65 180.99 C 243.97 180.61 242.62 179.84 241.94 179.45 C 235.89 185.37 229.51 192.98 220.21 192.71 C 223.60 186.18 227.60 179.82 229.45 172.62 C 229.84 170.67 230.37 168.45 229.33 166.60 C 227.47 165.38 225.05 165.82 222.95 165.54 C 223.51 164.17 224.11 162.82 224.73 161.49 C 227.39 161.58 230.90 160.71 232.65 163.35 C 234.64 166.89 234.13 171.32 236.16 174.85 C 239.07 178.34 244.45 178.29 248.17 176.20 C 254.76 172.53 259.43 166.12 262.06 159.14 Z" />
<path fill="#ffb951" opacity="1.00" d=" M 37.35 201.43 C 40.50 200.57 43.25 198.72 45.82 196.76 C 45.76 200.25 46.00 203.73 46.17 207.21 C 42.88 207.72 39.46 208.81 36.15 207.90 C 32.70 206.85 30.84 203.54 29.35 200.53 C 31.96 201.11 34.67 202.15 37.35 201.43 Z" />
<path fill="#ffb951" opacity="1.00" d=" M 28.01 223.72 C 28.96 226.88 30.11 230.14 32.48 232.54 C 36.51 236.86 42.42 238.44 48.01 239.57 C 48.37 241.84 48.69 244.12 49.00 246.39 C 40.46 246.11 32.41 241.12 28.25 233.70 C 26.43 230.63 27.49 226.99 28.01 223.72 Z" />
</g>
<g id="#985a32ff">
<path fill="#985a32" opacity="1.00" d=" M 327.82 71.74 C 333.06 68.80 339.38 69.69 345.03 70.69 C 360.66 74.08 376.52 77.84 390.55 85.81 C 381.63 85.82 372.92 83.57 364.02 83.15 C 357.72 82.93 350.92 81.02 344.97 83.94 C 341.54 85.51 339.98 89.57 340.70 93.14 C 341.55 98.28 345.87 101.99 346.94 107.04 C 347.27 111.17 342.91 114.34 339.04 114.14 C 324.52 114.20 311.49 105.39 296.93 105.85 C 292.31 105.81 287.02 108.17 286.12 113.15 C 284.78 118.62 289.52 122.89 293.93 125.07 C 307.31 131.75 322.36 133.78 336.97 136.11 C 340.10 136.78 343.87 137.38 345.75 140.30 C 347.29 144.15 345.11 148.78 347.55 152.38 C 350.24 156.36 354.96 158.20 359.34 159.69 C 370.33 163.39 382.30 162.57 393.16 166.80 C 395.54 167.82 398.48 168.80 399.59 171.35 C 400.58 175.99 399.85 180.91 401.55 185.41 C 403.25 190.43 407.42 193.98 411.31 197.34 C 402.68 195.72 394.13 193.04 386.67 188.31 C 384.31 186.72 381.83 184.96 380.57 182.34 C 379.65 180.26 381.40 178.13 383.20 177.28 C 386.02 175.60 390.52 175.35 390.40 171.14 C 378.52 170.35 366.79 168.14 355.41 164.65 C 344.43 161.29 332.29 159.35 323.37 151.57 C 321.76 149.83 318.62 146.52 321.58 144.62 C 325.13 142.62 329.79 144.34 333.14 141.90 C 332.32 140.71 331.43 139.33 329.90 139.04 C 325.69 137.88 321.27 138.02 316.94 137.83 C 308.85 137.75 300.74 136.97 292.85 135.15 C 290.03 134.54 287.61 132.90 285.29 131.26 C 286.98 130.62 288.66 130.00 290.36 129.38 C 289.90 128.47 289.48 127.54 289.08 126.60 C 284.01 126.04 279.02 127.87 273.95 127.99 C 273.49 125.11 272.68 121.58 269.62 120.43 C 266.47 119.38 263.34 121.19 260.82 122.89 C 259.76 120.77 258.03 118.55 258.77 116.03 C 259.92 111.35 264.34 108.52 268.37 106.45 C 285.84 98.25 305.82 97.99 324.62 100.45 C 329.55 100.97 334.68 103.12 339.52 100.99 C 334.80 93.68 326.85 88.39 324.55 79.60 C 323.57 76.59 325.04 73.20 327.82 71.74 Z" />
<path fill="#985a32" opacity="1.00" d=" M 431.05 224.04 C 434.32 215.88 439.17 207.83 447.19 203.58 C 447.94 206.58 449.36 209.83 448.00 212.89 C 444.72 221.02 437.14 226.13 432.09 233.03 C 429.77 236.73 427.48 241.15 428.37 245.65 C 429.98 250.90 436.02 252.27 440.59 253.87 C 433.36 257.21 428.37 263.61 424.59 270.41 C 422.88 269.14 420.94 268.06 419.65 266.33 C 419.01 264.26 419.66 262.06 419.96 259.99 C 422.46 247.68 426.44 235.71 431.05 224.04 Z" />
</g>
<g id="#a1663cff">
<path fill="#a1663c" opacity="1.00" d=" M 344.97 83.94 C 350.92 81.02 357.72 82.93 364.02 83.15 C 372.92 83.57 381.63 85.82 390.55 85.81 C 413.78 96.90 433.29 114.68 449.30 134.62 C 452.63 138.48 454.95 143.23 458.95 146.49 C 459.41 146.30 460.32 145.92 460.78 145.72 C 461.08 137.47 458.79 128.94 462.02 120.95 C 464.21 128.50 461.66 137.19 466.60 143.88 C 466.41 145.00 466.23 146.12 466.08 147.25 C 469.75 147.58 472.91 145.50 476.16 144.15 C 479.93 142.54 484.03 141.30 488.18 141.74 C 487.58 141.74 486.37 141.75 485.77 141.75 C 486.87 142.97 487.99 144.18 489.12 145.39 C 484.57 148.45 478.93 149.37 474.47 152.53 C 471.81 154.60 473.09 158.21 474.35 160.70 C 476.62 165.16 478.99 169.59 480.63 174.33 C 483.42 182.19 486.53 190.07 487.54 198.40 C 487.87 201.60 487.71 205.70 484.61 207.55 C 481.85 207.88 479.01 206.55 476.33 207.26 C 472.61 209.37 472.40 214.21 472.01 217.99 C 471.58 227.37 471.74 237.09 467.98 245.90 C 466.46 249.79 463.73 253.00 460.93 256.03 C 454.74 252.48 447.40 252.78 440.59 253.87 C 436.02 252.27 429.98 250.90 428.37 245.65 C 427.48 241.15 429.77 236.73 432.09 233.03 C 437.14 226.13 444.72 221.02 448.00 212.89 C 449.36 209.83 447.94 206.58 447.19 203.58 C 447.50 202.64 447.82 201.70 448.15 200.77 C 443.97 198.70 439.39 200.38 435.00 200.40 C 427.00 200.59 419.03 199.34 411.31 197.34 C 407.42 193.98 403.25 190.43 401.55 185.41 C 399.85 180.91 400.58 175.99 399.59 171.35 C 398.48 168.80 395.54 167.82 393.16 166.80 C 382.30 162.57 370.33 163.39 359.34 159.69 C 354.96 158.20 350.24 156.36 347.55 152.38 C 345.11 148.78 347.29 144.15 345.75 140.30 C 343.87 137.38 340.10 136.78 336.97 136.11 C 322.36 133.78 307.31 131.75 293.93 125.07 C 289.52 122.89 284.78 118.62 286.12 113.15 C 287.02 108.17 292.31 105.81 296.93 105.85 C 311.49 105.39 324.52 114.20 339.04 114.14 C 342.91 114.34 347.27 111.17 346.94 107.04 C 345.87 101.99 341.55 98.28 340.70 93.14 C 339.98 89.57 341.54 85.51 344.97 83.94 Z" />
</g>
<g id="#ffcc5eff">
<path fill="#ffcc5e" opacity="1.00" d=" M 96.31 96.32 C 106.73 91.74 117.83 88.54 129.16 87.36 C 145.51 86.18 161.63 90.58 177.97 90.12 C 193.44 89.67 209.39 90.91 223.68 97.30 C 225.86 98.31 227.66 100.00 229.02 101.97 C 235.62 111.63 239.01 123.09 240.45 134.60 C 241.96 141.52 242.57 149.16 247.23 154.85 C 248.47 154.02 249.74 153.23 251.00 152.41 C 256.28 148.71 260.05 143.27 265.48 139.70 C 266.06 142.94 266.65 146.18 267.22 149.42 C 264.85 149.98 261.96 150.43 260.67 152.78 C 259.41 154.96 260.92 157.29 262.06 159.14 C 259.43 166.12 254.76 172.53 248.17 176.20 C 244.45 178.29 239.07 178.34 236.16 174.85 C 234.13 171.32 234.64 166.89 232.65 163.35 C 230.90 160.71 227.39 161.58 224.73 161.49 C 227.09 156.44 229.60 151.12 229.51 145.42 C 229.59 143.21 227.41 140.50 225.10 141.94 C 221.46 143.92 219.96 148.09 218.07 151.53 C 215.96 148.03 212.73 145.35 208.44 145.37 C 206.16 145.29 203.35 144.65 201.65 146.64 C 197.55 150.41 200.25 156.30 200.15 161.02 C 201.32 169.49 189.40 175.67 183.16 169.85 C 181.74 167.00 182.01 163.66 181.92 160.57 C 182.58 157.96 183.08 155.31 183.26 152.63 C 183.02 151.48 182.77 150.34 182.50 149.20 C 171.08 147.93 161.68 155.81 153.04 162.09 C 144.72 168.71 138.38 177.62 129.31 183.36 C 127.24 184.79 124.67 184.90 122.28 185.28 C 121.76 183.53 121.23 181.78 120.70 180.03 C 126.07 172.13 132.90 164.51 134.66 154.84 C 135.49 151.76 133.92 148.90 131.02 147.77 C 128.72 147.65 126.18 146.91 124.03 148.02 C 117.15 152.38 113.77 160.81 106.28 164.36 C 102.84 166.02 100.41 162.23 98.17 160.28 C 94.90 164.60 92.68 170.15 87.81 172.95 C 85.08 174.60 82.52 172.26 80.53 170.59 C 82.06 163.35 82.38 155.90 82.06 148.53 C 80.60 149.14 79.13 149.74 77.70 150.44 C 72.27 156.33 74.35 165.80 68.45 171.37 C 65.40 174.61 60.68 174.61 56.70 175.86 C 52.39 177.05 49.25 180.62 44.99 181.92 C 43.45 182.23 42.74 180.69 41.90 179.77 C 40.98 178.45 39.65 177.55 38.34 176.66 C 36.26 181.67 33.86 186.54 31.39 191.37 C 29.90 194.18 29.10 197.33 29.35 200.53 C 30.84 203.54 32.70 206.85 36.15 207.90 C 39.46 208.81 42.88 207.72 46.17 207.21 C 46.25 208.90 46.34 210.59 46.42 212.29 C 41.57 212.44 36.13 211.88 32.03 214.99 C 29.27 217.00 28.68 220.60 28.01 223.72 C 27.49 226.99 26.43 230.63 28.25 233.70 C 32.41 241.12 40.46 246.11 49.00 246.39 C 49.46 249.77 49.91 253.15 50.47 256.52 C 46.70 257.03 42.58 257.04 39.36 259.37 C 35.08 262.42 32.88 267.48 31.43 272.37 C 28.77 282.20 28.45 292.46 26.44 302.41 C 25.78 306.04 23.92 309.27 21.88 312.28 C 18.85 309.46 16.08 306.21 14.88 302.17 C 10.86 289.53 10.80 276.09 10.95 262.96 C 11.41 245.88 13.70 228.88 17.29 212.19 C 19.87 200.22 21.16 187.76 26.56 176.62 C 30.26 168.78 36.50 162.63 42.22 156.27 C 45.86 152.31 47.73 147.16 50.81 142.81 C 53.17 139.43 55.30 135.90 57.37 132.33 C 61.87 124.73 68.77 119.05 74.83 112.76 C 81.13 106.30 87.93 99.96 96.31 96.32 Z" />
</g>
<g id="#c08055ff">
<path fill="#c08055" opacity="1.00" d=" M 465.21 114.37 C 466.93 116.25 469.10 118.17 469.06 120.95 C 469.33 128.66 467.97 136.33 466.60 143.88 C 461.66 137.19 464.21 128.50 462.02 120.95 C 462.64 118.57 463.95 116.46 465.21 114.37 Z" />
</g>
<g id="#ffa18dff">
<path fill="#ffa18d" opacity="1.00" d=" M 246.98 118.48 C 250.22 112.48 258.63 122.81 253.18 125.68 C 251.92 122.64 249.96 119.99 246.98 118.48 Z" />
<path fill="#ffa18d" opacity="1.00" d=" M 209.14 148.90 C 210.96 149.33 213.69 148.50 214.85 150.25 C 215.53 153.82 211.05 152.13 209.15 151.91 C 209.14 151.15 209.14 149.65 209.14 148.90 Z" />
</g>
<g id="#c49067ff">
<path fill="#c49067" opacity="1.00" d=" M 279.28 132.26 C 279.59 132.26 280.21 132.27 280.51 132.28 C 281.32 133.04 282.10 133.84 282.91 134.62 C 280.48 139.49 278.01 144.34 275.57 149.20 C 274.00 149.15 272.44 149.17 270.88 149.21 C 273.73 143.58 276.25 137.79 279.28 132.26 Z" />
<path fill="#c49067" opacity="1.00" d=" M 254.60 188.65 L 254.85 188.05 C 255.59 190.17 256.35 192.30 257.19 194.39 C 254.32 200.92 252.34 207.80 250.64 214.71 C 255.72 213.96 258.55 209.18 262.54 206.51 C 264.00 206.25 264.73 208.03 265.82 208.68 C 262.31 212.50 258.74 216.77 253.59 218.35 C 250.07 219.82 245.03 219.88 243.38 223.97 C 244.22 225.55 245.49 227.11 247.36 227.46 C 252.31 228.41 257.25 226.78 262.02 225.64 C 262.62 226.16 263.83 227.20 264.43 227.72 C 259.96 232.52 252.74 231.61 246.80 231.78 C 246.16 233.46 245.52 235.13 244.88 236.81 C 242.49 235.02 239.64 234.05 236.83 233.17 L 237.66 233.16 C 238.41 233.19 239.91 233.24 240.66 233.27 C 240.07 228.62 239.70 223.92 240.46 219.28 C 242.33 218.22 244.33 217.29 245.93 215.83 C 246.59 214.42 246.76 212.85 247.10 211.34 C 248.45 206.71 250.11 202.17 251.58 197.57 C 252.58 194.59 253.52 191.60 254.60 188.65 Z" />
<path fill="#c49067" opacity="1.00" d=" M 438.81 259.94 C 447.37 254.65 459.11 256.87 466.82 262.80 C 471.62 268.41 468.63 277.35 462.58 280.69 C 458.15 283.30 452.81 282.97 447.88 282.62 C 442.53 279.26 436.11 278.02 429.90 279.22 C 430.22 278.63 430.86 277.47 431.18 276.88 C 432.07 277.38 432.97 277.89 433.88 278.40 C 433.22 277.01 432.55 275.63 432.03 274.19 C 434.56 273.03 437.00 274.82 439.33 275.67 C 444.99 278.41 451.65 279.56 457.74 277.60 C 460.88 276.61 464.25 274.39 464.70 270.86 C 465.11 268.02 462.98 265.58 460.63 264.35 C 453.92 260.71 446.00 261.81 438.81 259.94 Z" />
<path fill="#c49067" opacity="1.00" d=" M 241.02 263.81 C 242.22 263.91 243.42 263.97 244.63 264.01 C 246.23 273.80 250.12 283.11 255.75 291.26 C 265.32 305.78 279.93 316.10 295.34 323.67 C 310.74 331.13 327.80 335.73 345.00 335.20 C 362.26 334.76 378.79 327.82 392.58 317.69 C 398.62 313.48 403.81 308.22 409.52 303.60 C 408.94 306.42 409.35 309.89 406.81 311.86 C 392.66 324.93 375.37 335.56 355.99 338.19 C 324.37 342.93 292.08 331.04 267.71 311.13 C 266.12 309.77 264.59 308.33 263.11 306.86 C 251.72 295.64 243.91 280.99 240.88 265.30 C 240.91 264.93 240.99 264.19 241.02 263.81 Z" />
</g>
<g id="#f1c28dff">
<path fill="#f1c28d" opacity="1.00" d=" M 275.57 149.20 C 278.01 144.34 280.48 139.49 282.91 134.62 C 286.11 137.78 290.58 139.00 294.87 139.83 C 302.07 141.16 309.34 142.41 316.69 142.35 C 316.56 144.86 315.88 147.56 316.99 149.96 C 318.79 153.93 322.44 156.63 326.03 158.88 C 332.70 163.03 340.36 165.07 347.89 167.02 C 358.14 169.67 368.29 172.87 378.83 174.21 C 377.45 176.60 375.40 179.05 375.85 182.00 C 376.40 185.24 378.80 187.75 381.27 189.74 C 388.77 195.56 397.85 198.93 407.05 200.95 C 417.33 203.19 427.83 205.10 438.40 204.48 C 434.54 208.46 431.42 213.10 429.11 218.14 C 421.88 233.66 416.79 250.21 414.53 267.20 C 417.71 270.67 421.26 274.34 426.06 275.35 C 427.81 274.79 428.33 272.71 429.31 271.34 C 431.58 266.88 434.72 262.85 438.81 259.94 C 446.00 261.81 453.92 260.71 460.63 264.35 C 462.98 265.58 465.11 268.02 464.70 270.86 C 464.25 274.39 460.88 276.61 457.74 277.60 C 451.65 279.56 444.99 278.41 439.33 275.67 C 437.00 274.82 434.56 273.03 432.03 274.19 C 432.55 275.63 433.22 277.01 433.88 278.40 C 432.97 277.89 432.07 277.38 431.18 276.88 C 430.86 277.47 430.22 278.63 429.90 279.22 C 424.26 281.19 418.84 284.41 415.37 289.39 C 412.39 293.61 410.58 298.57 409.52 303.60 C 403.81 308.22 398.62 313.48 392.58 317.69 C 378.79 327.82 362.26 334.76 345.00 335.20 C 327.80 335.73 310.74 331.13 295.34 323.67 C 279.93 316.10 265.32 305.78 255.75 291.26 C 250.12 283.11 246.23 273.80 244.63 264.01 C 247.03 264.13 251.24 263.08 249.18 259.85 C 245.20 259.29 241.09 259.92 237.20 258.78 C 237.02 255.92 241.50 256.47 243.42 255.36 C 243.54 254.83 243.79 253.79 243.91 253.26 C 240.57 250.37 235.57 247.94 235.17 243.02 C 234.68 240.56 236.51 238.68 237.76 236.82 C 242.69 240.12 246.07 245.26 251.33 248.14 C 251.72 246.92 252.68 245.80 252.68 244.49 C 250.24 241.77 247.43 239.41 244.88 236.81 C 245.52 235.13 246.16 233.46 246.80 231.78 C 252.74 231.61 259.96 232.52 264.43 227.72 C 263.83 227.20 262.62 226.16 262.02 225.64 C 257.25 226.78 252.31 228.41 247.36 227.46 C 245.49 227.11 244.22 225.55 243.38 223.97 C 245.03 219.88 250.07 219.82 253.59 218.35 C 258.74 216.77 262.31 212.50 265.82 208.68 C 264.73 208.03 264.00 206.25 262.54 206.51 C 258.55 209.18 255.72 213.96 250.64 214.71 C 252.34 207.80 254.32 200.92 257.19 194.39 C 259.07 195.98 261.35 197.69 263.99 197.13 C 267.46 196.82 270.02 194.24 272.46 192.02 C 271.50 191.10 270.56 190.18 269.62 189.25 C 267.24 190.77 264.62 193.89 261.53 192.37 C 258.84 190.95 259.91 187.43 260.02 185.01 C 263.19 177.40 266.06 169.66 269.63 162.23 C 273.88 162.09 278.42 161.53 281.91 158.89 C 283.84 157.47 285.16 154.63 283.77 152.41 C 282.06 149.66 278.42 149.59 275.57 149.20 M 298.41 163.41 C 290.83 164.63 284.33 169.64 279.44 175.34 C 274.77 180.81 274.35 188.41 275.64 195.18 C 276.83 202.02 272.75 207.99 269.69 213.71 C 266.65 219.26 268.79 225.73 267.54 231.63 C 265.46 237.98 260.04 242.65 258.23 249.14 C 256.35 255.85 255.21 263.07 256.98 269.94 C 259.09 277.84 263.21 285.25 268.71 291.29 C 273.38 295.97 277.90 300.91 283.44 304.60 C 293.39 311.37 304.39 316.58 315.88 320.16 C 321.69 322.27 327.88 323.32 334.06 322.99 C 352.40 322.28 370.25 314.92 384.42 303.36 C 390.88 298.47 395.72 291.79 399.94 284.95 C 403.58 278.53 406.35 270.55 403.61 263.28 C 401.49 257.03 399.06 250.72 398.96 244.03 C 398.81 237.35 399.25 230.20 395.90 224.15 C 392.71 218.41 385.96 216.21 379.91 215.06 C 373.03 213.61 365.24 212.29 360.73 206.30 C 355.48 200.43 356.53 192.05 355.29 184.85 C 354.39 178.54 348.19 174.09 342.02 174.02 C 335.02 173.22 327.96 175.30 321.02 173.94 C 312.63 172.30 307.40 162.87 298.41 163.41 M 367.25 191.33 C 363.90 192.76 363.76 197.06 364.96 200.01 C 366.88 205.32 370.87 210.90 376.88 211.66 C 380.14 212.42 384.11 209.50 383.10 205.97 C 381.86 201.72 378.66 198.42 375.75 195.23 C 373.51 193.10 370.66 190.13 367.25 191.33 Z" />
<path fill="#f1c28d" opacity="1.00" d=" M 262.23 344.86 C 260.95 342.96 262.98 339.55 265.25 340.68 C 268.72 342.36 271.09 345.54 273.81 348.17 C 280.75 355.46 289.35 360.83 297.81 366.16 C 309.10 373.23 321.95 377.47 335.03 379.74 C 354.67 383.28 376.15 383.02 394.01 373.12 C 402.44 368.62 408.88 361.23 413.40 352.91 C 413.78 352.86 414.55 352.75 414.94 352.70 C 421.96 355.85 428.81 359.48 435.21 363.76 C 440.54 367.28 444.61 372.29 448.58 377.22 C 445.17 383.14 441.83 389.16 437.35 394.37 C 425.06 409.14 407.47 419.01 388.85 423.30 C 388.78 422.81 388.62 421.81 388.54 421.32 C 394.21 419.45 400.02 417.51 404.79 413.79 C 413.40 407.37 419.72 397.89 422.67 387.59 C 424.51 382.17 420.86 375.65 415.18 374.66 C 410.53 373.94 405.98 375.98 401.97 378.12 C 395.78 381.73 389.79 385.91 382.84 387.96 C 368.97 392.15 354.22 391.49 340.00 389.82 C 321.03 388.04 302.39 382.45 285.67 373.30 C 282.52 371.68 279.41 369.90 275.98 368.93 C 272.23 367.63 267.90 369.35 265.52 372.38 C 265.28 374.65 265.69 376.96 265.25 379.22 C 261.74 382.96 256.03 382.60 251.38 383.74 C 247.06 379.87 242.08 375.54 241.30 369.45 C 246.72 367.58 249.67 373.93 254.02 375.79 C 255.30 375.51 255.95 374.12 256.93 373.35 C 252.44 369.20 246.59 365.10 246.56 358.29 C 251.24 359.46 254.57 363.17 258.91 364.97 C 260.03 364.40 261.11 363.77 262.21 363.18 C 258.56 358.52 253.62 354.01 253.81 347.59 C 258.40 349.37 261.92 352.89 265.77 355.84 C 266.39 355.27 267.63 354.15 268.25 353.59 C 266.24 350.68 263.81 348.03 262.23 344.86 Z" />
</g>
<g id="#bf8055ff">
<path fill="#bf8055" opacity="1.00" d=" M 485.77 141.75 C 486.37 141.75 487.58 141.74 488.18 141.74 C 491.10 142.11 494.28 143.56 495.59 146.35 C 496.41 148.82 494.28 151.00 492.53 152.43 C 488.77 155.49 483.68 155.32 479.20 156.41 C 477.91 156.52 477.35 157.78 477.01 158.84 C 479.12 162.36 482.13 165.25 484.23 168.80 C 493.13 183.30 495.51 201.36 491.82 217.87 C 491.27 220.68 489.70 223.12 488.04 225.40 C 484.90 221.99 484.39 217.34 482.85 213.18 C 482.28 211.50 480.00 211.75 479.26 213.13 C 478.61 216.91 478.87 220.77 478.39 224.57 C 476.86 236.73 471.78 248.21 464.99 258.33 C 463.64 257.55 462.30 256.76 460.93 256.03 C 463.73 253.00 466.46 249.79 467.98 245.90 C 471.74 237.09 471.58 227.37 472.01 217.99 C 472.40 214.21 472.61 209.37 476.33 207.26 C 479.01 206.55 481.85 207.88 484.61 207.55 C 487.71 205.70 487.87 201.60 487.54 198.40 C 486.53 190.07 483.42 182.19 480.63 174.33 C 478.99 169.59 476.62 165.16 474.35 160.70 C 473.09 158.21 471.81 154.60 474.47 152.53 C 478.93 149.37 484.57 148.45 489.12 145.39 C 487.99 144.18 486.87 142.97 485.77 141.75 Z" />
</g>
<g id="#8d5f45ff">
<path fill="#8d5f45" opacity="1.00" d=" M 260.67 152.78 C 261.96 150.43 264.85 149.98 267.22 149.42 C 268.44 149.32 269.66 149.25 270.88 149.21 C 272.44 149.17 274.00 149.15 275.57 149.20 C 278.42 149.59 282.06 149.66 283.77 152.41 C 285.16 154.63 283.84 157.47 281.91 158.89 C 278.42 161.53 273.88 162.09 269.63 162.23 C 268.20 161.95 266.78 161.63 265.38 161.21 C 264.24 160.56 263.13 159.88 262.06 159.14 C 260.92 157.29 259.41 154.96 260.67 152.78 Z" />
<path fill="#8d5f45" opacity="1.00" d=" M 367.25 191.33 C 370.66 190.13 373.51 193.10 375.75 195.23 C 378.66 198.42 381.86 201.72 383.10 205.97 C 384.11 209.50 380.14 212.42 376.88 211.66 C 370.87 210.90 366.88 205.32 364.96 200.01 C 363.76 197.06 363.90 192.76 367.25 191.33 Z" />
</g>
<g id="#f7c389ff">
<path fill="#f7c389" opacity="1.00" d=" M 118.91 167.93 C 123.44 163.70 126.36 158.15 130.42 153.53 C 128.85 160.62 124.43 166.55 120.68 172.61 C 117.56 177.76 112.79 181.75 110.03 187.14 C 107.89 190.84 112.36 194.77 116.00 194.29 C 124.17 193.97 131.68 190.32 138.98 186.98 C 152.30 180.81 162.26 169.70 172.60 159.64 C 174.47 157.74 176.75 156.33 179.08 155.06 C 175.58 164.91 167.85 172.40 160.52 179.51 C 158.73 181.40 156.88 183.87 157.40 186.64 C 158.48 189.71 162.09 190.60 164.95 191.11 C 175.68 192.67 186.71 190.74 196.66 186.58 C 207.04 182.39 216.20 175.86 225.86 170.32 C 223.50 177.30 220.71 184.29 216.12 190.14 C 213.34 189.64 210.40 188.70 207.59 189.50 C 204.86 190.51 203.88 194.05 205.49 196.43 C 208.39 201.14 213.88 203.31 219.07 204.39 C 221.37 209.26 224.14 213.92 227.98 217.75 C 230.92 214.11 233.61 210.19 235.22 205.76 C 237.23 205.18 239.26 204.63 241.23 203.93 C 240.89 209.04 240.94 214.17 240.46 219.28 C 239.70 223.92 240.07 228.62 240.66 233.27 C 239.91 233.24 238.41 233.19 237.66 233.16 C 235.92 231.21 234.09 228.21 231.01 228.84 C 227.87 229.19 226.81 232.56 225.34 234.84 C 223.73 234.13 222.13 233.43 220.52 232.74 C 220.45 231.03 220.38 229.33 220.34 227.64 C 221.74 220.64 217.71 213.82 212.18 209.81 C 205.96 205.10 197.92 204.26 191.09 200.78 C 187.29 198.87 183.38 196.58 178.95 196.88 C 170.79 197.21 163.67 201.78 155.92 203.83 C 152.03 204.92 147.35 205.71 143.86 203.17 C 141.86 201.05 140.82 198.23 138.87 196.07 C 134.40 194.57 130.25 197.31 126.75 199.76 C 122.15 203.01 116.54 204.58 110.96 204.92 C 106.03 205.37 102.64 200.78 98.01 200.05 C 90.68 201.74 84.90 208.05 77.05 207.92 C 71.91 208.32 65.36 207.01 61.76 211.68 C 59.04 215.89 59.93 221.27 59.89 226.03 C 60.86 236.03 61.08 246.21 63.73 255.96 C 60.80 257.07 58.00 258.48 55.20 259.87 C 51.20 238.95 50.83 217.59 49.93 196.38 C 49.17 196.17 47.65 195.73 46.89 195.51 C 48.13 194.06 49.35 192.60 50.56 191.12 C 51.42 193.31 52.00 196.53 55.03 196.45 C 61.55 196.81 66.40 191.67 70.92 187.72 C 73.48 188.01 76.18 188.58 78.66 187.55 C 84.76 185.25 89.99 181.19 94.72 176.79 C 97.19 177.86 99.84 179.32 102.62 178.49 C 109.00 176.81 114.23 172.39 118.91 167.93 M 83.30 189.40 C 78.59 190.43 73.65 191.72 69.79 194.75 C 67.32 196.51 67.50 200.39 69.91 202.13 C 74.15 205.64 80.33 204.33 84.71 201.74 C 87.89 199.88 91.68 197.08 91.33 192.95 C 90.71 189.18 86.35 188.64 83.30 189.40 Z" />
<path fill="#f7c389" opacity="1.00" d=" M 32.71 221.92 C 33.68 215.65 41.60 216.38 46.36 216.68 C 46.94 222.79 47.26 228.93 47.70 235.06 C 40.61 234.53 32.80 229.75 32.71 221.92 Z" />
<path fill="#f7c389" opacity="1.00" d=" M 178.97 274.82 C 182.59 273.65 185.95 271.81 189.23 269.91 C 187.18 272.98 185.50 276.28 183.72 279.51 C 181.42 279.47 178.53 278.73 176.96 280.95 C 173.98 284.81 174.22 290.01 173.67 294.62 C 171.87 293.78 170.15 292.56 168.15 292.34 C 165.75 292.50 164.69 295.07 164.26 297.10 C 163.29 302.36 164.02 307.72 164.12 313.02 C 164.29 320.86 164.39 328.71 164.60 336.55 C 150.40 339.13 135.72 338.46 121.75 334.97 C 122.47 325.32 123.89 315.72 123.79 306.02 C 123.64 300.51 124.54 293.90 120.41 289.54 C 118.03 287.04 115.18 289.62 112.88 290.79 C 112.25 286.25 112.12 281.34 109.53 277.38 C 108.14 275.12 105.25 276.11 103.08 276.06 C 102.51 275.06 101.93 274.06 101.37 273.06 C 104.82 273.03 108.57 272.44 111.73 274.20 C 114.65 275.86 116.63 278.68 118.70 281.25 C 121.77 285.27 125.18 289.21 126.85 294.06 C 129.94 303.05 128.03 312.92 131.21 321.89 C 133.03 327.37 139.15 331.31 144.90 329.76 C 150.29 328.26 154.60 324.06 157.37 319.32 C 161.16 312.51 160.52 304.47 161.22 296.98 C 161.69 290.07 166.05 284.32 170.34 279.23 C 172.46 276.57 175.92 275.86 178.97 274.82 Z" />
<path fill="#f7c389" opacity="1.00" d=" M 93.20 278.58 C 95.14 279.61 97.26 280.90 97.44 283.35 C 98.89 292.32 98.83 301.45 98.90 310.51 C 100.29 310.40 101.81 310.71 103.06 309.93 C 104.15 301.33 102.60 292.63 103.51 284.02 C 103.90 282.53 104.62 278.88 106.38 281.46 C 109.77 290.45 107.64 300.29 108.57 309.61 C 108.78 312.19 112.91 311.86 113.57 309.66 C 115.34 304.37 115.23 298.60 117.44 293.41 C 120.16 297.41 119.65 302.37 119.33 306.94 C 117.75 326.36 116.42 345.86 112.30 364.95 C 106.90 362.38 100.83 362.47 95.00 362.25 C 87.34 362.08 81.07 357.15 74.01 354.88 C 73.99 354.20 73.95 352.82 73.93 352.13 C 80.19 352.60 86.29 354.09 92.38 355.55 C 98.07 356.95 105.20 355.65 108.07 349.99 C 113.63 339.01 107.36 322.65 94.61 320.44 C 88.45 319.94 82.14 321.80 76.79 324.79 C 73.72 326.40 72.55 329.82 72.56 333.11 C 71.71 321.88 68.79 310.90 68.41 299.63 C 68.47 297.77 68.29 294.74 70.93 294.87 C 73.70 300.14 72.76 306.31 74.03 311.97 C 74.46 314.14 75.07 317.25 77.91 317.17 C 79.96 316.59 81.20 314.63 81.54 312.63 C 83.22 301.78 79.60 290.94 80.79 280.08 C 81.57 280.10 83.13 280.15 83.91 280.18 C 88.06 289.20 86.74 299.32 87.17 308.92 C 87.24 311.09 89.93 310.31 91.32 310.56 C 91.79 299.90 90.19 288.97 93.20 278.58 Z" />
<path fill="#f7c389" opacity="1.00" d=" M 189.30 286.26 C 190.44 285.80 191.59 285.39 192.76 285.02 C 194.63 294.81 193.75 304.84 194.21 314.74 C 194.79 315.18 195.96 316.05 196.54 316.48 C 199.10 312.80 198.30 308.18 198.40 303.96 C 198.22 297.91 199.20 291.88 201.10 286.14 C 202.30 287.38 204.58 288.11 204.59 290.13 C 205.29 298.84 201.97 307.75 204.83 316.27 C 207.35 314.81 210.67 313.77 211.73 310.75 C 212.88 307.66 213.36 304.37 214.22 301.19 C 215.51 302.83 217.05 304.57 216.61 306.84 C 215.36 325.19 210.87 343.24 211.01 361.70 C 205.65 362.45 200.43 364.10 195.00 364.33 C 187.42 364.82 179.91 363.34 172.34 363.38 C 172.24 362.57 172.05 360.96 171.95 360.16 C 180.93 362.80 190.81 362.34 199.32 358.35 C 203.31 356.40 206.54 352.57 206.89 348.03 C 207.56 341.33 206.02 334.57 203.63 328.35 C 202.46 325.09 199.45 322.34 195.86 322.32 C 191.82 322.72 188.19 325.28 184.03 324.93 C 180.92 324.88 177.80 324.04 174.70 324.58 C 172.02 325.52 170.36 328.02 168.49 330.00 C 168.05 322.01 168.31 314.00 168.07 306.01 C 167.90 303.09 168.36 300.17 169.46 297.46 C 172.24 303.57 170.94 310.78 174.55 316.58 C 175.70 315.20 177.77 314.16 177.62 312.09 C 178.12 303.34 177.96 294.56 178.80 285.83 C 180.22 285.82 181.65 285.85 183.07 285.92 C 183.67 294.51 182.80 303.09 182.49 311.67 C 182.19 313.68 183.60 315.21 184.80 316.62 C 186.03 314.58 187.21 312.42 187.28 309.98 C 187.97 302.07 188.88 294.19 189.30 286.26 Z" />
</g>
<g id="#c39067ff">
<path fill="#c39067" opacity="1.00" d=" M 265.38 161.21 C 266.78 161.63 268.20 161.95 269.63 162.23 C 266.06 169.66 263.19 177.40 260.02 185.01 C 258.88 184.51 257.74 184.01 256.60 183.51 C 259.23 175.96 262.21 168.54 265.38 161.21 Z" />
</g>
<g id="#f8cc96ff">
<path fill="#f8cc96" opacity="1.00" d=" M 298.41 163.41 C 307.40 162.87 312.63 172.30 321.02 173.94 C 327.96 175.30 335.02 173.22 342.02 174.02 C 348.19 174.09 354.39 178.54 355.29 184.85 C 356.53 192.05 355.48 200.43 360.73 206.30 C 365.24 212.29 373.03 213.61 379.91 215.06 C 385.96 216.21 392.71 218.41 395.90 224.15 C 399.25 230.20 398.81 237.35 398.96 244.03 C 399.06 250.72 401.49 257.03 403.61 263.28 C 406.35 270.55 403.58 278.53 399.94 284.95 C 395.72 291.79 390.88 298.47 384.42 303.36 C 370.25 314.92 352.40 322.28 334.06 322.99 C 327.88 323.32 321.69 322.27 315.88 320.16 C 304.39 316.58 293.39 311.37 283.44 304.60 C 277.90 300.91 273.38 295.97 268.71 291.29 C 263.21 285.25 259.09 277.84 256.98 269.94 C 255.21 263.07 256.35 255.85 258.23 249.14 C 260.04 242.65 265.46 237.98 267.54 231.63 C 268.79 225.73 266.65 219.26 269.69 213.71 C 272.75 207.99 276.83 202.02 275.64 195.18 C 274.35 188.41 274.77 180.81 279.44 175.34 C 284.33 169.64 290.83 164.63 298.41 163.41 M 345.66 216.64 C 342.93 226.46 346.68 239.31 357.03 242.98 C 365.11 245.82 373.98 241.83 379.58 235.91 C 379.86 234.36 378.02 233.70 377.23 232.67 C 373.38 235.77 369.21 239.05 364.11 239.58 C 358.08 240.35 352.22 236.05 350.30 230.44 C 348.71 226.47 349.28 222.13 349.46 217.97 C 349.99 215.89 346.28 214.34 345.66 216.64 M 361.35 249.36 C 354.58 250.51 347.24 253.43 343.75 259.74 C 340.09 265.99 339.05 273.62 340.43 280.69 C 342.05 287.43 348.00 292.07 353.81 295.23 C 362.75 299.22 374.39 298.60 381.85 291.81 C 388.33 285.95 391.75 276.44 389.23 267.90 C 385.92 256.13 373.55 247.70 361.35 249.36 Z" />
<path fill="#f8cc96" opacity="1.00" d=" M 265.52 372.38 C 267.90 369.35 272.23 367.63 275.98 368.93 C 279.41 369.90 282.52 371.68 285.67 373.30 C 302.39 382.45 321.03 388.04 340.00 389.82 C 354.22 391.49 368.97 392.15 382.84 387.96 C 389.79 385.91 395.78 381.73 401.97 378.12 C 405.98 375.98 410.53 373.94 415.18 374.66 C 420.86 375.65 424.51 382.17 422.67 387.59 C 419.72 397.89 413.40 407.37 404.79 413.79 C 400.02 417.51 394.21 419.45 388.54 421.32 C 388.62 421.81 388.78 422.81 388.85 423.30 C 369.18 428.00 348.49 427.19 328.99 422.02 C 304.92 415.87 282.53 404.49 261.58 391.35 C 257.97 389.09 254.61 386.48 251.38 383.74 C 256.03 382.60 261.74 382.96 265.25 379.22 C 265.69 376.96 265.28 374.65 265.52 372.38 Z" />
</g>
<g id="#9b734cff">
<path fill="#9b734c" opacity="1.00" d=" M 254.85 188.05 C 255.45 186.54 256.03 185.03 256.60 183.51 C 257.74 184.01 258.88 184.51 260.02 185.01 C 259.91 187.43 258.84 190.95 261.53 192.37 C 264.62 193.89 267.24 190.77 269.62 189.25 C 270.56 190.18 271.50 191.10 272.46 192.02 C 270.02 194.24 267.46 196.82 263.99 197.13 C 261.35 197.69 259.07 195.98 257.19 194.39 C 256.35 192.30 255.59 190.17 254.85 188.05 Z" />
<path fill="#9b734c" opacity="1.00" d=" M 194.71 212.76 C 200.62 210.12 208.12 210.51 213.16 214.83 C 217.12 218.01 218.82 222.98 220.34 227.64 C 220.38 229.33 220.45 231.03 220.52 232.74 C 219.02 233.05 217.52 233.36 216.02 233.67 C 216.35 227.73 214.54 221.05 209.57 217.36 C 205.12 214.24 199.20 215.70 194.66 217.83 C 188.84 220.54 185.18 226.03 181.86 231.27 C 180.76 230.52 179.65 229.76 178.55 229.00 C 182.08 222.11 187.52 215.93 194.71 212.76 Z" />
<path fill="#9b734c" opacity="1.00" d=" M 345.66 216.64 C 346.28 214.34 349.99 215.89 349.46 217.97 C 349.28 222.13 348.71 226.47 350.30 230.44 C 352.22 236.05 358.08 240.35 364.11 239.58 C 369.21 239.05 373.38 235.77 377.23 232.67 C 378.02 233.70 379.86 234.36 379.58 235.91 C 373.98 241.83 365.11 245.82 357.03 242.98 C 346.68 239.31 342.93 226.46 345.66 216.64 Z" />
</g>
<g id="#d3873aff">
<path fill="#d3873a" opacity="1.00" d=" M 83.30 189.40 C 86.35 188.64 90.71 189.18 91.33 192.95 C 91.68 197.08 87.89 199.88 84.71 201.74 C 80.33 204.33 74.15 205.64 69.91 202.13 C 67.50 200.39 67.32 196.51 69.79 194.75 C 73.65 191.72 78.59 190.43 83.30 189.40 Z" />
<path fill="#d3873a" opacity="1.00" d=" M 207.59 189.50 C 210.40 188.70 213.34 189.64 216.12 190.14 C 216.14 192.19 216.08 194.28 216.56 196.30 C 220.13 197.94 224.22 197.10 227.87 196.15 C 227.85 197.15 227.83 199.15 227.81 200.16 C 227.65 200.28 227.32 200.52 227.15 200.64 C 225.60 199.87 224.09 199.01 222.58 198.18 C 221.27 200.17 220.11 202.25 219.07 204.39 C 213.88 203.31 208.39 201.14 205.49 196.43 C 203.88 194.05 204.86 190.51 207.59 189.50 Z" />
</g>
<g id="#f7c58bff">
<path fill="#f7c58b" opacity="1.00" d=" M 227.87 196.15 C 230.58 194.69 233.17 193.03 235.85 191.50 C 234.81 193.13 233.80 194.77 232.66 196.32 C 231.13 197.71 229.48 198.94 227.81 200.16 C 227.83 199.15 227.85 197.15 227.87 196.15 Z" />
</g>
<g id="#dca770ff">
<path fill="#dca770" opacity="1.00" d=" M 45.82 196.76 C 46.09 196.45 46.62 195.83 46.89 195.51 C 47.65 195.73 49.17 196.17 49.93 196.38 C 50.83 217.59 51.20 238.95 55.20 259.87 C 57.45 271.07 60.48 282.27 65.87 292.41 C 68.55 291.74 72.37 289.60 74.30 292.71 C 77.09 297.43 76.80 303.20 78.50 308.32 C 79.11 298.98 75.00 289.90 76.57 280.58 C 76.98 277.45 80.22 274.89 83.36 275.59 C 85.29 276.54 86.81 278.13 88.42 279.53 C 90.38 277.39 92.50 273.90 95.94 274.91 C 97.68 276.05 98.97 277.72 100.37 279.22 C 101.28 278.17 102.19 277.12 103.08 276.06 C 105.25 276.11 108.14 275.12 109.53 277.38 C 112.12 281.34 112.25 286.25 112.88 290.79 C 115.18 289.62 118.03 287.04 120.41 289.54 C 124.54 293.90 123.64 300.51 123.79 306.02 C 123.89 315.72 122.47 325.32 121.75 334.97 C 135.72 338.46 150.40 339.13 164.60 336.55 C 164.39 328.71 164.29 320.86 164.12 313.02 C 164.02 307.72 163.29 302.36 164.26 297.10 C 164.69 295.07 165.75 292.50 168.15 292.34 C 170.15 292.56 171.87 293.78 173.67 294.62 C 174.22 290.01 173.98 284.81 176.96 280.95 C 178.53 278.73 181.42 279.47 183.72 279.51 C 184.40 280.38 185.07 281.24 185.76 282.11 C 187.86 280.86 189.97 278.39 192.68 279.26 C 194.74 280.09 195.76 282.29 197.15 283.90 C 199.16 282.40 201.01 279.62 203.85 280.12 C 207.31 280.95 208.51 284.89 208.75 288.02 C 209.21 294.77 207.94 301.49 208.26 308.25 C 209.20 304.84 209.74 301.30 211.10 298.02 C 212.27 295.34 216.50 294.14 218.58 296.43 C 220.14 298.75 220.62 301.59 221.45 304.22 C 228.37 294.75 232.44 283.52 234.82 272.12 C 235.43 269.11 236.06 266.11 236.72 263.12 C 238.14 263.41 239.58 263.64 241.02 263.81 C 240.99 264.19 240.91 264.93 240.88 265.30 C 239.72 271.01 238.45 276.70 236.81 282.28 C 234.97 288.37 232.59 294.31 229.50 299.89 C 227.37 303.81 224.51 307.26 221.71 310.72 C 219.48 313.20 219.77 316.76 219.30 319.85 C 218.36 327.84 217.29 335.82 216.46 343.82 C 215.70 349.88 215.32 355.99 215.27 362.10 C 213.85 361.91 212.43 361.78 211.01 361.70 C 210.87 343.24 215.36 325.19 216.61 306.84 C 217.05 304.57 215.51 302.83 214.22 301.19 C 213.36 304.37 212.88 307.66 211.73 310.75 C 210.67 313.77 207.35 314.81 204.83 316.27 C 201.97 307.75 205.29 298.84 204.59 290.13 C 204.58 288.11 202.30 287.38 201.10 286.14 C 199.20 291.88 198.22 297.91 198.40 303.96 C 198.30 308.18 199.10 312.80 196.54 316.48 C 195.96 316.05 194.79 315.18 194.21 314.74 C 193.75 304.84 194.63 294.81 192.76 285.02 C 191.59 285.39 190.44 285.80 189.30 286.26 C 188.88 294.19 187.97 302.07 187.28 309.98 C 187.21 312.42 186.03 314.58 184.80 316.62 C 183.60 315.21 182.19 313.68 182.49 311.67 C 182.80 303.09 183.67 294.51 183.07 285.92 C 181.65 285.85 180.22 285.82 178.80 285.83 C 177.96 294.56 178.12 303.34 177.62 312.09 C 177.77 314.16 175.70 315.20 174.55 316.58 C 170.94 310.78 172.24 303.57 169.46 297.46 C 168.36 300.17 167.90 303.09 168.07 306.01 C 168.31 314.00 168.05 322.01 168.49 330.00 C 169.08 340.11 170.56 350.13 171.95 360.16 C 172.05 360.96 172.24 362.57 172.34 363.38 C 170.90 363.52 169.48 363.72 168.05 363.92 C 167.71 361.56 167.34 359.21 166.96 356.87 C 166.16 351.62 165.54 346.36 164.97 341.09 C 163.31 341.29 161.64 341.49 159.98 341.68 C 146.96 343.28 133.72 342.11 120.99 339.08 C 120.25 343.96 119.50 348.84 118.65 353.70 C 117.94 357.71 117.28 361.73 116.77 365.77 C 116.42 365.92 115.71 366.24 115.36 366.39 C 114.34 365.90 113.32 365.40 112.30 364.95 C 116.42 345.86 117.75 326.36 119.33 306.94 C 119.65 302.37 120.16 297.41 117.44 293.41 C 115.23 298.60 115.34 304.37 113.57 309.66 C 112.91 311.86 108.78 312.19 108.57 309.61 C 107.64 300.29 109.77 290.45 106.38 281.46 C 104.62 278.88 103.90 282.53 103.51 284.02 C 102.60 292.63 104.15 301.33 103.06 309.93 C 101.81 310.71 100.29 310.40 98.90 310.51 C 98.83 301.45 98.89 292.32 97.44 283.35 C 97.26 280.90 95.14 279.61 93.20 278.58 C 90.19 288.97 91.79 299.90 91.32 310.56 C 89.93 310.31 87.24 311.09 87.17 308.92 C 86.74 299.32 88.06 289.20 83.91 280.18 C 83.13 280.15 81.57 280.10 80.79 280.08 C 79.60 290.94 83.22 301.78 81.54 312.63 C 81.20 314.63 79.96 316.59 77.91 317.17 C 75.07 317.25 74.46 314.14 74.03 311.97 C 72.76 306.31 73.70 300.14 70.93 294.87 C 68.29 294.74 68.47 297.77 68.41 299.63 C 68.79 310.90 71.71 321.88 72.56 333.11 C 73.28 339.42 73.84 345.76 73.93 352.13 C 73.95 352.82 73.99 354.20 74.01 354.88 C 72.49 354.44 70.94 354.08 69.39 353.78 L 69.38 353.73 C 69.37 349.21 69.29 344.68 68.84 340.18 C 67.85 329.44 66.48 318.73 65.11 308.03 C 64.54 304.13 64.89 300.03 63.36 296.33 C 59.48 289.03 56.45 281.30 54.28 273.33 C 53.34 269.89 52.48 266.43 51.72 262.94 C 51.47 261.80 51.24 260.66 51.01 259.52 C 50.82 258.51 50.64 257.51 50.47 256.52 C 49.91 253.15 49.46 249.77 49.00 246.39 C 48.69 244.12 48.37 241.84 48.01 239.57 C 42.42 238.44 36.51 236.86 32.48 232.54 C 30.11 230.14 28.96 226.88 28.01 223.72 C 28.68 220.60 29.27 217.00 32.03 214.99 C 36.13 211.88 41.57 212.44 46.42 212.29 C 46.34 210.59 46.25 208.90 46.17 207.21 C 46.00 203.73 45.76 200.25 45.82 196.76 M 32.71 221.92 C 32.80 229.75 40.61 234.53 47.70 235.06 C 47.26 228.93 46.94 222.79 46.36 216.68 C 41.60 216.38 33.68 215.65 32.71 221.92 Z" />
<path fill="#dca770" opacity="1.00" d=" M 138.01 232.70 C 139.37 232.54 141.04 231.61 142.01 233.09 C 143.48 239.62 140.94 245.90 138.78 251.94 C 139.29 252.15 140.32 252.59 140.84 252.81 C 144.11 249.76 146.17 245.78 148.15 241.84 C 149.45 242.20 151.24 242.11 151.50 243.84 C 149.84 248.79 147.20 253.95 142.50 256.61 C 137.86 259.25 132.90 252.45 135.43 248.31 C 137.92 243.47 138.03 238.02 138.01 232.70 Z" />
</g>
<g id="#fdcf94ff">
<path fill="#fdcf94" opacity="1.00" d=" M 126.75 199.76 C 130.25 197.31 134.40 194.57 138.87 196.07 C 140.82 198.23 141.86 201.05 143.86 203.17 C 147.35 205.71 152.03 204.92 155.92 203.83 C 163.67 201.78 170.79 197.21 178.95 196.88 C 183.38 196.58 187.29 198.87 191.09 200.78 C 197.92 204.26 205.96 205.10 212.18 209.81 C 217.71 213.82 221.74 220.64 220.34 227.64 C 218.82 222.98 217.12 218.01 213.16 214.83 C 208.12 210.51 200.62 210.12 194.71 212.76 C 187.52 215.93 182.08 222.11 178.55 229.00 C 179.65 229.76 180.76 230.52 181.86 231.27 C 185.18 226.03 188.84 220.54 194.66 217.83 C 199.20 215.70 205.12 214.24 209.57 217.36 C 214.54 221.05 216.35 227.73 216.02 233.67 C 214.36 237.41 213.47 241.76 215.42 245.59 C 218.65 252.26 224.72 257.01 230.72 261.08 C 231.35 260.37 231.99 259.66 232.63 258.95 C 233.88 260.44 235.24 261.85 236.72 263.12 C 236.06 266.11 235.43 269.11 234.82 272.12 C 228.76 265.08 220.67 258.72 210.99 258.43 C 202.26 258.35 195.14 264.12 189.23 269.91 C 185.95 271.81 182.59 273.65 178.97 274.82 C 175.92 275.86 172.46 276.57 170.34 279.23 C 166.05 284.32 161.69 290.07 161.22 296.98 C 160.52 304.47 161.16 312.51 157.37 319.32 C 154.60 324.06 150.29 328.26 144.90 329.76 C 139.15 331.31 133.03 327.37 131.21 321.89 C 128.03 312.92 129.94 303.05 126.85 294.06 C 125.18 289.21 121.77 285.27 118.70 281.25 C 116.63 278.68 114.65 275.86 111.73 274.20 C 108.57 272.44 104.82 273.03 101.37 273.06 C 97.69 266.32 93.57 259.26 86.60 255.47 C 79.53 251.43 70.98 253.55 63.73 255.96 C 61.08 246.21 60.86 236.03 59.89 226.03 C 59.93 221.27 59.04 215.89 61.76 211.68 C 65.36 207.01 71.91 208.32 77.05 207.92 C 84.90 208.05 90.68 201.74 98.01 200.05 C 102.64 200.78 106.03 205.37 110.96 204.92 C 116.54 204.58 122.15 203.01 126.75 199.76 M 83.40 211.51 C 73.31 213.05 67.06 223.43 67.57 233.11 C 67.82 234.28 69.58 235.54 70.61 234.51 C 71.98 233.91 71.67 232.23 71.97 231.04 C 72.33 228.04 72.86 224.96 74.50 222.37 C 78.74 215.31 89.33 212.89 95.96 218.02 C 100.28 220.89 102.44 225.71 105.20 229.89 C 106.74 230.43 107.76 229.19 108.46 228.00 C 106.63 222.64 103.02 217.87 98.48 214.50 C 94.20 211.30 88.56 210.49 83.40 211.51 M 138.01 232.70 C 138.03 238.02 137.92 243.47 135.43 248.31 C 132.90 252.45 137.86 259.25 142.50 256.61 C 147.20 253.95 149.84 248.79 151.50 243.84 C 151.24 242.11 149.45 242.20 148.15 241.84 C 146.17 245.78 144.11 249.76 140.84 252.81 C 140.32 252.59 139.29 252.15 138.78 251.94 C 140.94 245.90 143.48 239.62 142.01 233.09 C 141.04 231.61 139.37 232.54 138.01 232.70 M 124.07 259.96 C 122.60 263.46 123.74 267.50 124.34 271.11 C 125.88 278.43 130.99 285.36 138.42 287.41 C 144.51 289.33 152.03 288.51 156.27 283.29 C 161.28 277.13 162.90 268.78 162.69 261.02 C 162.41 258.69 158.37 259.01 158.66 261.46 C 158.15 267.69 157.85 274.54 153.62 279.56 C 148.85 285.46 138.96 285.67 133.77 280.23 C 128.96 275.47 127.83 268.40 127.64 261.92 C 127.98 259.88 125.67 258.58 124.07 259.96 Z" />
<path fill="#fdcf94" opacity="1.00" d=" M 76.79 324.79 C 82.14 321.80 88.45 319.94 94.61 320.44 C 107.36 322.65 113.63 339.01 108.07 349.99 C 105.20 355.65 98.07 356.95 92.38 355.55 C 86.29 354.09 80.19 352.60 73.93 352.13 C 73.84 345.76 73.28 339.42 72.56 333.11 C 72.55 329.82 73.72 326.40 76.79 324.79 Z" />
<path fill="#fdcf94" opacity="1.00" d=" M 184.03 324.93 C 188.19 325.28 191.82 322.72 195.86 322.32 C 199.45 322.34 202.46 325.09 203.63 328.35 C 206.02 334.57 207.56 341.33 206.89 348.03 C 206.54 352.57 203.31 356.40 199.32 358.35 C 190.81 362.34 180.93 362.80 171.95 360.16 C 170.56 350.13 169.08 340.11 168.49 330.00 C 170.36 328.02 172.02 325.52 174.70 324.58 C 177.80 324.04 180.92 324.88 184.03 324.93 Z" />
</g>
<g id="#ffd15dff">
<path fill="#ffd15d" opacity="1.00" d=" M 245.87 201.19 C 247.77 199.98 249.67 198.77 251.58 197.57 C 250.11 202.17 248.45 206.71 247.10 211.34 C 244.69 208.41 245.47 204.63 245.87 201.19 Z" />
</g>
<g id="#dba670ff">
<path fill="#dba670" opacity="1.00" d=" M 241.23 203.93 C 242.83 203.10 244.36 202.15 245.87 201.19 C 245.47 204.63 244.69 208.41 247.10 211.34 C 246.76 212.85 246.59 214.42 245.93 215.83 C 244.33 217.29 242.33 218.22 240.46 219.28 C 240.94 214.17 240.89 209.04 241.23 203.93 Z" />
</g>
<g id="#9b744dff">
<path fill="#9b744d" opacity="1.00" d=" M 83.40 211.51 C 88.56 210.49 94.20 211.30 98.48 214.50 C 103.02 217.87 106.63 222.64 108.46 228.00 C 107.76 229.19 106.74 230.43 105.20 229.89 C 102.44 225.71 100.28 220.89 95.96 218.02 C 89.33 212.89 78.74 215.31 74.50 222.37 C 72.86 224.96 72.33 228.04 71.97 231.04 C 71.67 232.23 71.98 233.91 70.61 234.51 C 69.58 235.54 67.82 234.28 67.57 233.11 C 67.06 223.43 73.31 213.05 83.40 211.51 Z" />
</g>
<g id="#bb764fff">
<path fill="#bb764f" opacity="1.00" d=" M 230.91 239.11 C 231.81 236.28 234.38 234.56 236.83 233.17 C 239.64 234.05 242.49 235.02 244.88 236.81 C 247.43 239.41 250.24 241.77 252.68 244.49 C 252.68 245.80 251.72 246.92 251.33 248.14 C 246.07 245.26 242.69 240.12 237.76 236.82 C 236.51 238.68 234.68 240.56 235.17 243.02 C 235.57 247.94 240.57 250.37 243.91 253.26 C 243.79 253.79 243.54 254.83 243.42 255.36 C 241.50 256.47 237.02 255.92 237.20 258.78 C 241.09 259.92 245.20 259.29 249.18 259.85 C 251.24 263.08 247.03 264.13 244.63 264.01 C 243.42 263.97 242.22 263.91 241.02 263.81 C 239.58 263.64 238.14 263.41 236.72 263.12 C 235.24 261.85 233.88 260.44 232.63 258.95 C 232.95 257.28 233.35 255.63 233.74 253.98 C 235.37 254.81 237.08 252.47 235.24 251.52 C 231.96 248.43 229.16 243.68 230.91 239.11 Z" />
</g>
<g id="#ffbe9eff">
<path fill="#ffbe9e" opacity="1.00" d=" M 361.35 249.36 C 373.55 247.70 385.92 256.13 389.23 267.90 C 391.75 276.44 388.33 285.95 381.85 291.81 C 374.39 298.60 362.75 299.22 353.81 295.23 C 348.00 292.07 342.05 287.43 340.43 280.69 C 339.05 273.62 340.09 265.99 343.75 259.74 C 347.24 253.43 354.58 250.51 361.35 249.36 M 365.37 253.35 C 363.15 254.46 362.79 257.74 364.70 259.32 C 367.89 261.10 372.06 261.56 374.11 264.96 C 377.18 268.76 376.90 273.81 377.75 278.35 C 378.38 281.40 383.66 281.03 384.23 278.04 C 385.99 266.72 377.70 253.23 365.37 253.35 M 373.36 283.52 C 370.45 284.95 367.50 286.27 364.58 287.67 C 362.02 289.20 363.58 293.44 366.37 293.60 C 370.27 293.60 374.52 292.07 376.84 288.79 C 378.81 286.65 375.99 282.41 373.36 283.52 Z" />
</g>
<g id="#f4b983ff">
<path fill="#f4b983" opacity="1.00" d=" M 233.74 253.98 C 234.11 253.36 234.86 252.13 235.24 251.52 C 237.08 252.47 235.37 254.81 233.74 253.98 Z" />
</g>
<g id="#fbaf83ff">
<path fill="#fbaf83" opacity="1.00" d=" M 63.73 255.96 C 70.98 253.55 79.53 251.43 86.60 255.47 C 93.57 259.26 97.69 266.32 101.37 273.06 C 101.93 274.06 102.51 275.06 103.08 276.06 C 102.19 277.12 101.28 278.17 100.37 279.22 C 98.97 277.72 97.68 276.05 95.94 274.91 C 92.50 273.90 90.38 277.39 88.42 279.53 C 86.81 278.13 85.29 276.54 83.36 275.59 C 80.22 274.89 76.98 277.45 76.57 280.58 C 75.00 289.90 79.11 298.98 78.50 308.32 C 76.80 303.20 77.09 297.43 74.30 292.71 C 72.37 289.60 68.55 291.74 65.87 292.41 C 60.48 282.27 57.45 271.07 55.20 259.87 C 58.00 258.48 60.80 257.07 63.73 255.96 M 70.25 256.34 C 66.70 257.25 63.10 258.21 59.84 259.93 C 57.70 261.16 58.85 264.61 61.11 264.86 C 64.84 264.31 68.24 262.38 72.00 261.94 C 74.35 261.72 76.70 262.05 79.05 261.97 C 80.91 261.15 81.29 258.50 80.00 257.03 C 77.03 255.39 73.45 255.64 70.25 256.34 M 88.17 261.37 C 86.18 261.49 84.59 264.21 86.19 265.75 C 88.15 268.13 90.07 270.58 92.34 272.68 C 94.70 273.39 97.43 270.40 95.66 268.32 C 94.02 265.40 91.85 261.68 88.17 261.37 Z" />
<path fill="#fbaf83" opacity="1.00" d=" M 189.23 269.91 C 195.14 264.12 202.26 258.35 210.99 258.43 C 220.67 258.72 228.76 265.08 234.82 272.12 C 232.44 283.52 228.37 294.75 221.45 304.22 C 220.62 301.59 220.14 298.75 218.58 296.43 C 216.50 294.14 212.27 295.34 211.10 298.02 C 209.74 301.30 209.20 304.84 208.26 308.25 C 207.94 301.49 209.21 294.77 208.75 288.02 C 208.51 284.89 207.31 280.95 203.85 280.12 C 201.01 279.62 199.16 282.40 197.15 283.90 C 195.76 282.29 194.74 280.09 192.68 279.26 C 189.97 278.39 187.86 280.86 185.76 282.11 C 185.07 281.24 184.40 280.38 183.72 279.51 C 185.50 276.28 187.18 272.98 189.23 269.91 M 206.33 261.37 C 201.61 262.49 196.93 265.11 194.40 269.37 C 193.05 271.48 195.87 273.96 197.94 273.24 C 199.94 271.83 201.54 269.91 203.61 268.61 C 206.21 267.24 209.27 267.19 211.93 265.98 C 212.82 264.81 212.93 263.16 212.04 261.97 C 210.52 260.40 208.20 261.03 206.33 261.37 M 216.62 268.27 C 219.85 270.38 223.28 272.22 226.16 274.83 C 227.30 273.71 229.05 272.86 229.14 271.06 C 227.15 267.65 223.75 264.96 219.98 263.79 C 217.55 262.81 215.04 266.26 216.62 268.27 Z" />
</g>
<g id="#ffd6c2ff">
<path fill="#ffd6c2" opacity="1.00" d=" M 365.37 253.35 C 377.70 253.23 385.99 266.72 384.23 278.04 C 383.66 281.03 378.38 281.40 377.75 278.35 C 376.90 273.81 377.18 268.76 374.11 264.96 C 372.06 261.56 367.89 261.10 364.70 259.32 C 362.79 257.74 363.15 254.46 365.37 253.35 Z" />
<path fill="#ffd6c2" opacity="1.00" d=" M 373.36 283.52 C 375.99 282.41 378.81 286.65 376.84 288.79 C 374.52 292.07 370.27 293.60 366.37 293.60 C 363.58 293.44 362.02 289.20 364.58 287.67 C 367.50 286.27 370.45 284.95 373.36 283.52 Z" />
</g>
<g id="#feceb3ff">
<path fill="#feceb3" opacity="1.00" d=" M 70.25 256.34 C 73.45 255.64 77.03 255.39 80.00 257.03 C 81.29 258.50 80.91 261.15 79.05 261.97 C 76.70 262.05 74.35 261.72 72.00 261.94 C 68.24 262.38 64.84 264.31 61.11 264.86 C 58.85 264.61 57.70 261.16 59.84 259.93 C 63.10 258.21 66.70 257.25 70.25 256.34 Z" />
<path fill="#feceb3" opacity="1.00" d=" M 88.17 261.37 C 91.85 261.68 94.02 265.40 95.66 268.32 C 97.43 270.40 94.70 273.39 92.34 272.68 C 90.07 270.58 88.15 268.13 86.19 265.75 C 84.59 264.21 86.18 261.49 88.17 261.37 Z" />
<path fill="#feceb3" opacity="1.00" d=" M 206.33 261.37 C 208.20 261.03 210.52 260.40 212.04 261.97 C 212.93 263.16 212.82 264.81 211.93 265.98 C 209.27 267.19 206.21 267.24 203.61 268.61 C 201.54 269.91 199.94 271.83 197.94 273.24 C 195.87 273.96 193.05 271.48 194.40 269.37 C 196.93 265.11 201.61 262.49 206.33 261.37 Z" />
</g>
<g id="#9cc1b9ff">
<path fill="#9cc1b9" opacity="1.00" d=" M 30.88 285.06 C 33.33 274.16 40.83 264.24 51.01 259.52 C 51.24 260.66 51.47 261.80 51.72 262.94 C 47.17 266.97 42.47 271.05 39.49 276.44 C 33.81 286.39 32.51 298.01 31.31 309.20 C 34.15 309.28 37.03 309.04 39.83 309.60 C 37.01 309.79 34.18 309.89 31.34 309.95 C 31.08 313.91 30.79 317.86 30.67 321.83 C 30.45 333.71 30.78 345.64 32.68 357.39 C 33.97 370.84 37.21 384.03 41.12 396.94 C 44.45 407.94 50.41 417.88 54.30 428.66 C 55.97 433.03 57.83 437.50 61.16 440.90 C 66.82 446.83 75.16 449.76 83.28 449.36 C 92.07 448.66 101.62 445.27 106.59 437.53 C 108.54 434.84 109.99 431.82 111.05 428.68 C 112.93 422.66 114.97 416.65 116.07 410.43 C 117.00 404.85 117.24 399.19 117.39 393.55 C 117.42 387.72 118.34 381.89 117.79 376.07 C 117.66 372.61 114.31 370.77 111.62 369.32 C 104.55 365.66 96.30 368.19 88.85 366.17 C 82.19 364.44 76.86 359.28 69.94 358.39 C 66.48 357.63 65.09 361.69 64.32 364.28 C 62.64 371.41 61.66 378.80 58.20 385.37 C 61.84 385.27 65.50 385.25 69.12 385.72 C 65.76 385.47 62.30 385.22 59.00 386.07 C 56.66 387.10 54.89 389.04 52.96 390.66 C 51.97 390.34 50.98 390.02 49.99 389.74 C 49.90 390.04 49.71 390.64 49.62 390.95 C 49.15 388.25 49.16 385.50 49.17 382.77 C 49.37 384.52 49.67 386.26 49.94 388.01 C 51.40 386.71 52.86 385.42 54.23 384.03 C 59.38 376.04 58.34 365.96 62.43 357.54 C 64.24 355.50 66.72 354.25 69.39 353.78 C 70.94 354.08 72.49 354.44 74.01 354.88 C 81.07 357.15 87.34 362.08 95.00 362.25 C 100.83 362.47 106.90 362.38 112.30 364.95 C 113.32 365.40 114.34 365.90 115.36 366.39 C 115.71 366.24 116.42 365.92 116.77 365.77 C 117.61 366.76 118.44 367.76 119.26 368.78 C 120.12 370.04 120.89 371.36 121.55 372.74 C 122.81 379.29 122.06 385.97 121.98 392.58 C 121.93 398.59 121.36 404.58 120.55 410.53 C 121.45 410.46 123.26 410.33 124.16 410.26 C 122.89 410.58 121.61 410.87 120.34 411.18 C 119.18 416.66 118.19 422.22 116.22 427.49 C 115.48 429.45 114.71 431.41 114.02 433.41 C 113.54 434.84 113.11 436.28 112.67 437.74 C 109.33 441.35 106.59 445.66 102.22 448.17 C 91.51 454.48 77.36 455.94 66.25 449.78 C 58.69 445.68 53.27 438.41 50.29 430.45 C 46.71 420.65 41.36 411.59 38.09 401.66 C 36.44 396.60 34.99 391.47 33.66 386.31 C 33.26 384.77 32.87 383.23 32.50 381.70 C 25.31 350.08 24.01 316.86 30.88 285.06 Z" />
<path fill="#9cc1b9" opacity="1.00" d=" M 263.11 306.86 C 264.59 308.33 266.12 309.77 267.71 311.13 C 267.90 314.48 268.16 317.82 268.35 321.16 C 268.60 326.55 268.55 331.95 268.37 337.34 C 267.02 336.83 265.66 336.37 264.28 335.97 C 264.42 331.61 264.29 327.25 264.08 322.90 C 263.94 318.53 263.70 314.16 263.34 309.80 C 263.28 309.06 263.17 307.59 263.11 306.86 Z" />
<path fill="#9cc1b9" opacity="1.00" d=" M 195.00 364.33 C 200.43 364.10 205.65 362.45 211.01 361.70 C 212.43 361.78 213.85 361.91 215.27 362.10 C 216.62 362.65 217.94 363.28 219.23 363.97 C 222.41 367.72 224.01 372.43 226.31 376.70 C 228.75 381.26 232.62 384.78 236.28 388.34 C 235.44 389.31 234.61 390.28 233.80 391.28 C 229.79 388.31 225.77 385.09 223.29 380.68 C 220.41 375.96 219.85 369.33 214.68 366.34 C 210.71 365.20 206.58 366.86 202.65 367.48 C 193.89 369.61 184.83 368.59 175.98 367.68 C 173.95 367.65 171.22 366.98 169.87 368.99 C 166.62 373.93 166.88 380.19 167.55 385.82 C 169.17 392.98 169.80 400.61 173.44 407.12 C 173.17 407.14 172.65 407.17 172.39 407.18 C 176.51 420.40 180.20 435.01 191.33 444.26 C 191.21 443.70 190.98 442.59 190.86 442.04 C 193.17 446.50 198.49 447.63 203.04 448.24 C 211.16 449.12 219.63 448.24 227.06 444.65 C 231.47 442.54 235.45 439.45 238.32 435.46 C 244.80 426.51 249.12 416.21 252.48 405.74 C 253.82 401.53 255.02 397.28 256.25 393.04 C 257.52 393.91 258.82 394.74 260.13 395.56 C 257.27 405.47 254.07 415.34 249.68 424.69 C 246.15 432.15 241.35 439.16 234.81 444.29 C 228.00 449.36 219.69 453.09 211.05 452.73 C 203.79 453.10 195.90 452.69 189.82 448.21 C 185.57 445.43 182.84 441.06 179.29 437.54 C 174.19 427.02 170.12 416.05 167.22 404.72 C 165.46 397.21 163.58 389.69 162.93 381.98 C 162.43 375.55 163.98 369.01 168.05 363.92 C 169.48 363.72 170.90 363.52 172.34 363.38 C 179.91 363.34 187.42 364.82 195.00 364.33 Z" />
</g>
<g id="#a06245ff">
<path fill="#a06245" opacity="1.00" d=" M 124.07 259.96 C 125.67 258.58 127.98 259.88 127.64 261.92 C 127.83 268.40 128.96 275.47 133.77 280.23 C 138.96 285.67 148.85 285.46 153.62 279.56 C 157.85 274.54 158.15 267.69 158.66 261.46 C 158.37 259.01 162.41 258.69 162.69 261.02 C 162.90 268.78 161.28 277.13 156.27 283.29 C 152.03 288.51 144.51 289.33 138.42 287.41 C 130.99 285.36 125.88 278.43 124.34 271.11 C 123.74 267.50 122.60 263.46 124.07 259.96 Z" />
</g>
<g id="#b5e2daff">
<path fill="#b5e2da" opacity="1.00" d=" M 39.49 276.44 C 42.47 271.05 47.17 266.97 51.72 262.94 C 52.48 266.43 53.34 269.89 54.28 273.33 C 52.70 272.10 51.12 270.87 49.52 269.67 C 48.72 276.96 49.56 284.92 53.81 291.09 C 55.94 294.34 59.80 295.46 63.36 296.33 C 64.89 300.03 64.54 304.13 65.11 308.03 C 66.48 318.73 67.85 329.44 68.84 340.18 C 65.57 339.82 62.29 339.58 59.00 339.39 C 59.55 339.24 60.65 338.95 61.20 338.81 C 58.45 336.71 55.59 334.27 51.97 334.09 C 44.99 333.58 38.44 338.67 36.19 345.12 C 34.79 349.13 33.77 353.28 32.68 357.39 C 30.78 345.64 30.45 333.71 30.67 321.83 C 35.14 323.74 40.93 324.39 44.77 320.81 C 48.65 317.00 47.20 311.03 46.84 306.23 C 45.49 307.49 44.16 308.77 42.82 310.05 C 42.08 309.94 40.58 309.71 39.83 309.60 C 37.03 309.04 34.15 309.28 31.31 309.20 C 32.51 298.01 33.81 286.39 39.49 276.44 Z" />
<path fill="#b5e2da" opacity="1.00" d=" M 236.81 282.28 C 238.45 276.70 239.72 271.01 240.88 265.30 C 243.91 280.99 251.72 295.64 263.11 306.86 C 263.17 307.59 263.28 309.06 263.34 309.80 C 259.85 309.61 256.35 309.59 252.86 309.73 C 251.40 308.58 249.93 307.42 248.46 306.28 C 248.45 311.48 248.54 317.52 252.54 321.41 C 255.65 324.37 260.28 323.14 264.08 322.90 C 264.29 327.25 264.42 331.61 264.28 335.97 C 262.20 336.30 259.46 336.18 258.28 338.32 C 257.65 340.09 257.53 341.98 257.26 343.83 C 255.08 344.13 252.38 343.85 250.93 345.89 C 248.57 348.28 249.89 351.73 250.39 354.57 C 247.75 354.52 245.24 355.26 242.87 356.38 C 240.46 356.52 238.05 356.72 235.66 357.06 C 236.31 352.75 236.37 347.88 239.43 344.46 C 242.76 340.73 247.69 338.04 248.92 332.84 C 251.15 326.14 248.54 316.73 240.95 314.97 C 236.01 313.42 231.33 316.15 227.56 319.07 C 227.22 316.91 226.73 314.77 226.25 312.64 C 223.91 315.02 221.63 317.46 219.30 319.85 C 219.77 316.76 219.48 313.20 221.71 310.72 C 224.51 307.26 227.37 303.81 229.50 299.89 C 233.05 299.61 237.25 299.79 239.80 296.82 C 244.14 292.08 244.24 285.19 244.30 279.14 C 242.50 280.39 240.72 281.68 238.95 282.98 C 238.42 282.81 237.35 282.46 236.81 282.28 Z" />
<path fill="#b5e2da" opacity="1.00" d=" M 120.99 339.08 C 133.72 342.11 146.96 343.28 159.98 341.68 C 160.13 344.77 159.88 347.99 160.96 350.95 C 161.94 353.76 164.69 355.24 166.96 356.87 C 167.34 359.21 167.71 361.56 168.05 363.92 C 163.98 369.01 162.43 375.55 162.93 381.98 C 161.90 381.68 160.87 381.39 159.84 381.10 C 160.06 389.36 160.57 398.82 167.22 404.72 C 170.12 416.05 174.19 427.02 179.29 437.54 C 175.24 434.85 170.80 432.28 165.79 432.19 C 159.72 420.60 157.42 407.53 154.00 395.01 C 150.63 383.27 150.53 369.77 141.71 360.36 C 141.86 358.11 141.88 355.85 141.91 353.59 C 140.24 354.87 138.54 356.12 136.89 357.42 C 132.19 356.35 127.35 356.33 122.63 357.26 C 121.30 356.08 119.97 354.89 118.65 353.70 C 119.50 348.84 120.25 343.96 120.99 339.08 Z" />
<path fill="#b5e2da" opacity="1.00" d=" M 216.46 343.82 C 218.49 342.82 220.53 341.83 222.49 340.70 C 223.37 348.58 222.18 356.62 219.23 363.97 C 217.94 363.28 216.62 362.65 215.27 362.10 C 215.32 355.99 215.70 349.88 216.46 343.82 Z" />
<path fill="#b5e2da" opacity="1.00" d=" M 234.69 373.44 C 235.33 373.70 236.61 374.21 237.25 374.46 C 242.23 381.91 248.90 387.99 256.25 393.04 C 255.02 397.28 253.82 401.53 252.48 405.74 C 249.67 403.04 246.84 400.37 244.03 397.69 C 244.36 395.00 244.32 392.28 244.28 389.58 C 243.25 390.40 242.24 391.23 241.23 392.08 C 238.46 386.09 235.78 379.99 234.69 373.44 Z" />
</g>
<g id="#fdcbb0ff">
<path fill="#fdcbb0" opacity="1.00" d=" M 216.62 268.27 C 215.04 266.26 217.55 262.81 219.98 263.79 C 223.75 264.96 227.15 267.65 229.14 271.06 C 229.05 272.86 227.30 273.71 226.16 274.83 C 223.28 272.22 219.85 270.38 216.62 268.27 Z" />
</g>
<g id="#6fa094ff">
<path fill="#6fa094" opacity="1.00" d=" M 49.52 269.67 C 51.12 270.87 52.70 272.10 54.28 273.33 C 56.45 281.30 59.48 289.03 63.36 296.33 C 59.80 295.46 55.94 294.34 53.81 291.09 C 49.56 284.92 48.72 276.96 49.52 269.67 Z" />
<path fill="#6fa094" opacity="1.00" d=" M 238.95 282.98 C 240.72 281.68 242.50 280.39 244.30 279.14 C 244.24 285.19 244.14 292.08 239.80 296.82 C 237.25 299.79 233.05 299.61 229.50 299.89 C 232.59 294.31 234.97 288.37 236.81 282.28 C 237.35 282.46 238.42 282.81 238.95 282.98 Z" />
<path fill="#6fa094" opacity="1.00" d=" M 42.82 310.05 C 44.16 308.77 45.49 307.49 46.84 306.23 C 47.20 311.03 48.65 317.00 44.77 320.81 C 40.93 324.39 35.14 323.74 30.67 321.83 C 30.79 317.86 31.08 313.91 31.34 309.95 C 34.18 309.89 37.01 309.79 39.83 309.60 C 40.58 309.71 42.08 309.94 42.82 310.05 Z" />
<path fill="#6fa094" opacity="1.00" d=" M 252.54 321.41 C 248.54 317.52 248.45 311.48 248.46 306.28 C 249.93 307.42 251.40 308.58 252.86 309.73 C 256.35 309.59 259.85 309.61 263.34 309.80 C 263.70 314.16 263.94 318.53 264.08 322.90 C 260.28 323.14 255.65 324.37 252.54 321.41 Z" />
<path fill="#6fa094" opacity="1.00" d=" M 219.30 319.85 C 221.63 317.46 223.91 315.02 226.25 312.64 C 226.73 314.77 227.22 316.91 227.56 319.07 C 228.20 326.53 228.23 335.05 222.49 340.70 C 220.53 341.83 218.49 342.82 216.46 343.82 C 217.29 335.82 218.36 327.84 219.30 319.85 Z" />
<path fill="#6fa094" opacity="1.00" d=" M 59.00 339.39 C 62.29 339.58 65.57 339.82 68.84 340.18 C 69.29 344.68 69.37 349.21 69.38 353.73 C 65.03 349.55 63.92 343.04 59.00 339.39 Z" />
<path fill="#6fa094" opacity="1.00" d=" M 116.77 365.77 C 117.28 361.73 117.94 357.71 118.65 353.70 C 119.97 354.89 121.30 356.08 122.63 357.26 C 127.35 356.33 132.19 356.35 136.89 357.42 C 138.54 356.12 140.24 354.87 141.91 353.59 C 141.88 355.85 141.86 358.11 141.71 360.36 C 141.64 361.03 141.48 362.36 141.40 363.03 C 138.90 357.16 130.35 357.14 126.39 361.43 C 123.99 363.86 121.76 366.45 119.26 368.78 C 118.44 367.76 117.61 366.76 116.77 365.77 Z" />
<path fill="#6fa094" opacity="1.00" d=" M 234.32 357.24 L 235.66 357.06 C 238.05 356.72 240.46 356.52 242.87 356.38 C 242.89 358.96 242.90 361.54 242.92 364.12 C 241.27 365.02 239.35 365.62 238.05 367.05 C 236.37 369.16 237.01 372.01 237.25 374.46 C 236.61 374.21 235.33 373.70 234.69 373.44 C 233.83 373.10 232.99 372.76 232.16 372.38 C 233.66 367.46 234.03 362.34 234.32 357.24 Z" />
</g>
<g id="#897863ff">
<path fill="#897863" opacity="1.00" d=" M 415.37 289.39 C 418.84 284.41 424.26 281.19 429.90 279.22 C 436.11 278.02 442.53 279.26 447.88 282.62 C 454.39 286.58 457.10 294.24 459.39 301.10 C 461.39 306.86 462.95 312.80 463.19 318.93 C 466.14 364.56 464.42 410.37 460.56 455.90 C 460.11 459.94 460.53 464.33 458.35 467.95 C 457.59 467.46 456.08 466.49 455.33 466.00 C 457.90 438.72 460.74 411.39 460.43 383.96 C 460.27 375.24 460.32 366.51 459.73 357.81 C 457.44 364.43 455.49 371.18 452.76 377.64 C 451.36 377.49 449.96 377.39 448.58 377.22 C 444.61 372.29 440.54 367.28 435.21 363.76 C 428.81 359.48 421.96 355.85 414.94 352.70 C 413.18 351.98 411.42 351.29 409.61 350.73 C 406.87 349.30 401.32 350.02 400.88 346.13 C 402.71 340.94 405.43 336.08 406.98 330.77 C 400.78 335.69 394.16 340.13 386.88 343.30 C 371.91 349.92 355.27 352.32 339.00 351.26 C 317.72 349.83 296.73 342.72 279.36 330.26 C 275.51 327.45 271.95 324.28 268.35 321.16 C 268.16 317.82 267.90 314.48 267.71 311.13 C 292.08 331.04 324.37 342.93 355.99 338.19 C 375.37 335.56 392.66 324.93 406.81 311.86 C 409.35 309.89 408.94 306.42 409.52 303.60 C 410.58 298.57 412.39 293.61 415.37 289.39 M 418.97 292.00 C 412.72 300.33 413.45 311.27 412.75 321.10 C 412.39 329.50 409.30 337.41 406.00 345.03 C 410.94 346.54 415.72 348.52 420.61 350.16 C 423.79 352.60 427.62 353.98 431.03 356.04 C 436.76 359.17 441.56 363.65 446.14 368.22 C 447.43 369.55 448.72 370.87 450.02 372.19 C 456.33 357.03 461.21 340.57 459.00 324.00 C 457.52 312.35 455.66 299.86 448.13 290.41 C 446.86 287.43 443.58 286.10 441.13 284.27 C 432.99 281.42 423.78 285.04 418.97 292.00 Z" />
</g>
<g id="#aa9079ff">
<path fill="#aa9079" opacity="1.00" d=" M 418.97 292.00 C 423.78 285.04 432.99 281.42 441.13 284.27 C 436.43 286.12 431.34 288.04 428.37 292.40 C 421.27 302.04 420.29 314.45 419.75 326.00 C 418.73 334.04 418.46 342.27 420.61 350.16 C 415.72 348.52 410.94 346.54 406.00 345.03 C 409.30 337.41 412.39 329.50 412.75 321.10 C 413.45 311.27 412.72 300.33 418.97 292.00 Z" />
</g>
<g id="#b49b81ff">
<path fill="#b49b81" opacity="1.00" d=" M 428.37 292.40 C 431.34 288.04 436.43 286.12 441.13 284.27 C 443.58 286.10 446.86 287.43 448.13 290.41 C 449.51 295.88 452.45 300.82 453.54 306.38 C 456.66 321.24 457.02 336.80 453.65 351.65 C 452.37 357.64 449.91 363.36 446.14 368.22 C 441.56 363.65 436.76 359.17 431.03 356.04 C 427.62 353.98 423.79 352.60 420.61 350.16 C 418.46 342.27 418.73 334.04 419.75 326.00 C 420.29 314.45 421.27 302.04 428.37 292.40 Z" />
</g>
<g id="#bfa892ff">
<path fill="#bfa892" opacity="1.00" d=" M 453.54 306.38 C 452.45 300.82 449.51 295.88 448.13 290.41 C 455.66 299.86 457.52 312.35 459.00 324.00 C 461.21 340.57 456.33 357.03 450.02 372.19 C 448.72 370.87 447.43 369.55 446.14 368.22 C 449.91 363.36 452.37 357.64 453.65 351.65 C 457.02 336.80 456.66 321.24 453.54 306.38 Z" />
</g>
<g id="#cfede8ff">
<path fill="#cfede8" opacity="1.00" d=" M 227.56 319.07 C 231.33 316.15 236.01 313.42 240.95 314.97 C 248.54 316.73 251.15 326.14 248.92 332.84 C 247.69 338.04 242.76 340.73 239.43 344.46 C 236.37 347.88 236.31 352.75 235.66 357.06 L 234.32 357.24 C 232.27 356.18 230.44 354.75 228.63 353.34 C 227.39 359.70 226.10 368.00 232.16 372.38 C 232.99 372.76 233.83 373.10 234.69 373.44 C 235.78 379.99 238.46 386.09 241.23 392.08 C 240.77 392.46 239.85 393.24 239.39 393.62 C 234.83 392.55 230.17 392.87 225.55 393.20 C 223.38 392.71 221.83 390.77 220.00 389.59 C 219.39 394.78 218.09 400.51 220.68 405.38 C 223.75 410.53 230.76 411.53 236.12 410.07 C 241.30 408.32 243.12 402.54 244.03 397.69 C 246.84 400.37 249.67 403.04 252.48 405.74 C 249.12 416.21 244.80 426.51 238.32 435.46 C 235.45 439.45 231.47 442.54 227.06 444.65 C 228.33 437.63 228.21 430.34 226.16 423.47 C 223.90 425.82 221.95 428.47 219.47 430.58 C 216.93 430.87 214.41 430.14 211.89 429.89 C 206.98 429.14 202.01 429.78 197.11 430.25 C 194.87 428.05 192.67 425.75 190.00 424.07 C 188.86 425.45 189.01 427.30 189.03 428.98 C 189.20 433.38 189.93 437.74 190.86 442.04 C 190.98 442.59 191.21 443.70 191.33 444.26 C 180.20 435.01 176.51 420.40 172.39 407.18 C 172.65 407.17 173.17 407.14 173.44 407.12 C 179.10 406.97 185.76 406.40 189.33 401.33 C 193.43 395.18 191.90 387.27 190.76 380.44 C 188.71 382.39 186.93 384.63 184.66 386.33 C 178.98 385.80 173.27 384.91 167.55 385.82 C 166.88 380.19 166.62 373.93 169.87 368.99 C 171.22 366.98 173.95 367.65 175.98 367.68 C 184.83 368.59 193.89 369.61 202.65 367.48 C 206.58 366.86 210.71 365.20 214.68 366.34 C 219.85 369.33 220.41 375.96 223.29 380.68 C 225.77 385.09 229.79 388.31 233.80 391.28 C 234.61 390.28 235.44 389.31 236.28 388.34 C 232.62 384.78 228.75 381.26 226.31 376.70 C 224.01 372.43 222.41 367.72 219.23 363.97 C 222.18 356.62 223.37 348.58 222.49 340.70 C 228.23 335.05 228.20 326.53 227.56 319.07 Z" />
<path fill="#cfede8" opacity="1.00" d=" M 36.19 345.12 C 38.44 338.67 44.99 333.58 51.97 334.09 C 55.59 334.27 58.45 336.71 61.20 338.81 C 60.65 338.95 59.55 339.24 59.00 339.39 C 57.75 339.71 56.49 340.04 55.23 340.37 C 53.53 338.99 51.81 337.62 50.09 336.27 C 49.44 341.71 48.04 347.86 51.17 352.80 C 53.62 356.55 58.34 357.21 62.43 357.54 C 58.34 365.96 59.38 376.04 54.23 384.03 C 52.55 382.87 50.86 381.72 49.15 380.60 C 49.16 381.14 49.17 382.23 49.17 382.77 C 49.16 385.50 49.15 388.25 49.62 390.95 C 50.69 397.06 53.30 404.30 59.86 406.29 C 66.62 407.96 75.41 406.73 79.21 400.19 C 82.34 394.07 81.14 386.87 79.89 380.41 C 77.87 382.37 75.95 384.43 74.05 386.52 C 72.41 386.23 70.77 385.92 69.12 385.72 C 65.50 385.25 61.84 385.27 58.20 385.37 C 61.66 378.80 62.64 371.41 64.32 364.28 C 65.09 361.69 66.48 357.63 69.94 358.39 C 76.86 359.28 82.19 364.44 88.85 366.17 C 96.30 368.19 104.55 365.66 111.62 369.32 C 114.31 370.77 117.66 372.61 117.79 376.07 C 118.34 381.89 117.42 387.72 117.39 393.55 C 114.06 393.76 111.58 391.53 109.16 389.62 C 108.50 394.53 107.42 399.82 109.40 404.58 C 110.59 407.48 113.58 408.85 116.07 410.43 C 114.97 416.65 112.93 422.66 111.05 428.68 C 109.64 430.02 107.95 431.23 105.91 430.58 C 99.40 429.29 92.76 429.38 86.21 430.23 C 84.09 428.18 81.93 426.16 79.74 424.19 C 79.32 424.41 78.48 424.84 78.06 425.06 C 78.09 433.41 79.18 441.93 83.28 449.36 C 75.16 449.76 66.82 446.83 61.16 440.90 C 57.83 437.50 55.97 433.03 54.30 428.66 C 50.41 417.88 44.45 407.94 41.12 396.94 C 37.21 384.03 33.97 370.84 32.68 357.39 C 33.77 353.28 34.79 349.13 36.19 345.12 Z" />
<path fill="#cfede8" opacity="1.00" d=" M 141.40 363.03 C 141.48 362.36 141.64 361.03 141.71 360.36 C 150.53 369.77 150.63 383.27 154.00 395.01 C 157.42 407.53 159.72 420.60 165.79 432.19 C 156.77 432.92 153.04 443.65 144.12 444.75 C 139.06 445.99 134.52 443.09 130.56 440.35 C 125.44 436.65 118.64 436.08 112.67 437.74 C 113.11 436.28 113.54 434.84 114.02 433.41 C 114.81 433.22 116.37 432.84 117.15 432.66 C 116.84 430.93 116.53 429.20 116.22 427.49 C 118.19 422.22 119.18 416.66 120.34 411.18 C 121.61 410.87 122.89 410.58 124.16 410.26 C 127.15 409.79 129.56 407.62 130.88 404.98 C 133.27 400.35 133.38 395.00 133.58 389.91 C 131.82 391.14 130.08 392.39 128.34 393.66 C 126.22 393.30 124.10 392.93 121.98 392.58 C 122.06 385.97 122.81 379.29 121.55 372.74 C 125.88 374.25 130.89 375.45 135.19 373.20 C 138.92 371.18 140.39 366.88 141.40 363.03 M 137.55 417.26 C 137.57 422.81 137.77 429.71 142.85 433.18 C 147.40 435.44 154.14 434.56 156.93 429.95 C 159.07 425.97 158.08 421.28 157.33 417.07 C 156.12 418.38 154.92 419.71 153.72 421.04 C 149.88 420.46 145.99 420.29 142.13 420.73 C 140.61 419.56 139.09 418.39 137.55 417.26 Z" />
</g>
<g id="#f3e2c1ff">
<path fill="#f3e2c1" opacity="1.00" d=" M 268.37 337.34 C 268.55 331.95 268.60 326.55 268.35 321.16 C 271.95 324.28 275.51 327.45 279.36 330.26 C 278.44 333.34 277.55 336.79 279.23 339.79 C 282.04 345.95 288.99 348.07 294.86 350.18 C 303.41 352.98 310.55 358.63 318.60 362.47 C 326.50 366.50 335.11 369.21 343.97 369.88 C 356.60 370.87 369.92 372.86 382.01 367.92 C 387.99 365.35 393.80 359.91 393.89 353.01 C 394.03 348.51 390.09 345.70 386.88 343.30 C 394.16 340.13 400.78 335.69 406.98 330.77 C 405.43 336.08 402.71 340.94 400.88 346.13 C 401.32 350.02 406.87 349.30 409.61 350.73 C 405.84 358.44 400.05 365.20 392.58 369.52 C 378.87 377.64 362.28 378.73 346.75 377.34 C 329.16 375.43 311.60 370.24 296.84 360.26 C 289.75 355.43 282.50 350.71 276.41 344.63 C 273.83 342.09 271.30 339.47 268.37 337.34 Z" />
<path fill="#f3e2c1" opacity="1.00" d=" M 452.76 377.64 C 455.49 371.18 457.44 364.43 459.73 357.81 C 460.32 366.51 460.27 375.24 460.43 383.96 C 460.74 411.39 457.90 438.72 455.33 466.00 C 456.08 466.49 457.59 467.46 458.35 467.95 C 453.01 466.64 448.53 462.91 442.99 462.19 C 444.77 452.52 445.83 442.74 446.92 432.98 C 447.18 428.06 447.77 422.49 444.73 418.25 C 440.68 417.35 436.87 419.54 433.50 421.48 C 424.87 426.64 417.21 433.88 407.17 436.27 C 390.20 440.52 372.54 442.09 355.07 441.30 C 340.37 440.57 325.81 436.89 312.61 430.35 C 302.43 425.65 292.29 419.96 280.93 418.85 C 269.89 417.56 258.75 423.59 252.85 432.83 C 246.92 441.70 244.62 452.41 243.94 462.92 C 241.20 462.57 238.24 461.70 236.63 459.28 C 233.58 454.93 234.16 449.27 234.81 444.29 C 241.35 439.16 246.15 432.15 249.68 424.69 C 254.07 415.34 257.27 405.47 260.13 395.56 C 289.67 413.96 322.75 428.74 357.96 430.46 C 376.92 431.48 396.33 428.11 413.19 419.16 C 430.45 410.17 444.84 395.48 452.76 377.64 Z" />
</g>
<g id="#faf2d8ff">
<path fill="#faf2d8" opacity="1.00" d=" M 279.23 339.79 C 277.55 336.79 278.44 333.34 279.36 330.26 C 296.73 342.72 317.72 349.83 339.00 351.26 C 355.27 352.32 371.91 349.92 386.88 343.30 C 390.09 345.70 394.03 348.51 393.89 353.01 C 393.80 359.91 387.99 365.35 382.01 367.92 C 369.92 372.86 356.60 370.87 343.97 369.88 C 335.11 369.21 326.50 366.50 318.60 362.47 C 310.55 358.63 303.41 352.98 294.86 350.18 C 288.99 348.07 282.04 345.95 279.23 339.79 Z" />
<path fill="#faf2d8" opacity="1.00" d=" M 433.50 421.48 C 436.87 419.54 440.68 417.35 444.73 418.25 C 447.77 422.49 447.18 428.06 446.92 432.98 C 445.83 442.74 444.77 452.52 442.99 462.19 C 439.78 462.05 436.52 462.76 433.88 464.63 C 425.97 469.94 420.23 478.76 410.45 480.99 L 412.59 481.00 L 405.30 481.00 C 396.06 478.77 391.73 469.54 386.70 462.44 C 383.58 458.35 379.69 453.26 374.03 453.39 C 366.63 454.78 363.41 463.38 356.04 464.93 C 348.59 466.54 341.55 461.49 334.06 462.71 C 323.95 463.82 316.69 471.62 308.19 476.32 C 303.44 479.08 297.32 480.63 292.18 477.97 C 286.31 474.97 284.30 468.24 280.91 463.07 C 278.64 459.27 274.70 456.11 270.09 456.17 C 260.88 456.25 253.20 462.94 243.94 462.92 C 244.62 452.41 246.92 441.70 252.85 432.83 C 258.75 423.59 269.89 417.56 280.93 418.85 C 292.29 419.96 302.43 425.65 312.61 430.35 C 325.81 436.89 340.37 440.57 355.07 441.30 C 372.54 442.09 390.20 440.52 407.17 436.27 C 417.21 433.88 424.87 426.64 433.50 421.48 Z" />
</g>
<g id="#cd956dff">
<path fill="#cd956d" opacity="1.00" d=" M 258.28 338.32 C 259.46 336.18 262.20 336.30 264.28 335.97 C 265.66 336.37 267.02 336.83 268.37 337.34 C 271.30 339.47 273.83 342.09 276.41 344.63 C 282.50 350.71 289.75 355.43 296.84 360.26 C 311.60 370.24 329.16 375.43 346.75 377.34 C 362.28 378.73 378.87 377.64 392.58 369.52 C 400.05 365.20 405.84 358.44 409.61 350.73 C 411.42 351.29 413.18 351.98 414.94 352.70 C 414.55 352.75 413.78 352.86 413.40 352.91 C 408.88 361.23 402.44 368.62 394.01 373.12 C 376.15 383.02 354.67 383.28 335.03 379.74 C 321.95 377.47 309.10 373.23 297.81 366.16 C 289.35 360.83 280.75 355.46 273.81 348.17 C 271.09 345.54 268.72 342.36 265.25 340.68 C 262.98 339.55 260.95 342.96 262.23 344.86 C 263.81 348.03 266.24 350.68 268.25 353.59 C 267.63 354.15 266.39 355.27 265.77 355.84 C 261.92 352.89 258.40 349.37 253.81 347.59 C 253.62 354.01 258.56 358.52 262.21 363.18 C 261.11 363.77 260.03 364.40 258.91 364.97 C 254.57 363.17 251.24 359.46 246.56 358.29 C 246.59 365.10 252.44 369.20 256.93 373.35 C 255.95 374.12 255.30 375.51 254.02 375.79 C 249.67 373.93 246.72 367.58 241.30 369.45 C 242.08 375.54 247.06 379.87 251.38 383.74 C 254.61 386.48 257.97 389.09 261.58 391.35 C 282.53 404.49 304.92 415.87 328.99 422.02 C 348.49 427.19 369.18 428.00 388.85 423.30 C 407.47 419.01 425.06 409.14 437.35 394.37 C 441.83 389.16 445.17 383.14 448.58 377.22 C 449.96 377.39 451.36 377.49 452.76 377.64 C 444.84 395.48 430.45 410.17 413.19 419.16 C 396.33 428.11 376.92 431.48 357.96 430.46 C 322.75 428.74 289.67 413.96 260.13 395.56 C 258.82 394.74 257.52 393.91 256.25 393.04 C 248.90 387.99 242.23 381.91 237.25 374.46 C 237.01 372.01 236.37 369.16 238.05 367.05 C 239.35 365.62 241.27 365.02 242.92 364.12 C 242.90 361.54 242.89 358.96 242.87 356.38 C 245.24 355.26 247.75 354.52 250.39 354.57 C 249.89 351.73 248.57 348.28 250.93 345.89 C 252.38 343.85 255.08 344.13 257.26 343.83 C 257.53 341.98 257.65 340.09 258.28 338.32 Z" />
</g>
<g id="#7ab0a3ff">
<path fill="#7ab0a3" opacity="1.00" d=" M 50.09 336.27 C 51.81 337.62 53.53 338.99 55.23 340.37 C 56.49 340.04 57.75 339.71 59.00 339.39 C 63.92 343.04 65.03 349.55 69.38 353.73 L 69.39 353.78 C 66.72 354.25 64.24 355.50 62.43 357.54 C 58.34 357.21 53.62 356.55 51.17 352.80 C 48.04 347.86 49.44 341.71 50.09 336.27 Z" />
<path fill="#7ab0a3" opacity="1.00" d=" M 232.16 372.38 C 226.10 368.00 227.39 359.70 228.63 353.34 C 230.44 354.75 232.27 356.18 234.32 357.24 C 234.03 362.34 233.66 367.46 232.16 372.38 Z" />
<path fill="#7ab0a3" opacity="1.00" d=" M 126.39 361.43 C 130.35 357.14 138.90 357.16 141.40 363.03 C 140.39 366.88 138.92 371.18 135.19 373.20 C 130.89 375.45 125.88 374.25 121.55 372.74 C 120.89 371.36 120.12 370.04 119.26 368.78 C 121.76 366.45 123.99 363.86 126.39 361.43 Z" />
<path fill="#7ab0a3" opacity="1.00" d=" M 74.05 386.52 C 75.95 384.43 77.87 382.37 79.89 380.41 C 81.14 386.87 82.34 394.07 79.21 400.19 C 75.41 406.73 66.62 407.96 59.86 406.29 C 53.30 404.30 50.69 397.06 49.62 390.95 C 49.71 390.64 49.90 390.04 49.99 389.74 C 50.98 390.02 51.97 390.34 52.96 390.66 C 54.89 389.04 56.66 387.10 59.00 386.07 C 62.30 385.22 65.76 385.47 69.12 385.72 C 70.77 385.92 72.41 386.23 74.05 386.52 Z" />
<path fill="#7ab0a3" opacity="1.00" d=" M 184.66 386.33 C 186.93 384.63 188.71 382.39 190.76 380.44 C 191.90 387.27 193.43 395.18 189.33 401.33 C 185.76 406.40 179.10 406.97 173.44 407.12 C 169.80 400.61 169.17 392.98 167.55 385.82 C 173.27 384.91 178.98 385.80 184.66 386.33 Z" />
<path fill="#7ab0a3" opacity="1.00" d=" M 109.16 389.62 C 111.58 391.53 114.06 393.76 117.39 393.55 C 117.24 399.19 117.00 404.85 116.07 410.43 C 113.58 408.85 110.59 407.48 109.40 404.58 C 107.42 399.82 108.50 394.53 109.16 389.62 Z" />
<path fill="#7ab0a3" opacity="1.00" d=" M 220.00 389.59 C 221.83 390.77 223.38 392.71 225.55 393.20 C 230.17 392.87 234.83 392.55 239.39 393.62 C 239.85 393.24 240.77 392.46 241.23 392.08 C 242.24 391.23 243.25 390.40 244.28 389.58 C 244.32 392.28 244.36 395.00 244.03 397.69 C 243.12 402.54 241.30 408.32 236.12 410.07 C 230.76 411.53 223.75 410.53 220.68 405.38 C 218.09 400.51 219.39 394.78 220.00 389.59 Z" />
<path fill="#7ab0a3" opacity="1.00" d=" M 128.34 393.66 C 130.08 392.39 131.82 391.14 133.58 389.91 C 133.38 395.00 133.27 400.35 130.88 404.98 C 129.56 407.62 127.15 409.79 124.16 410.26 C 123.26 410.33 121.45 410.46 120.55 410.53 C 121.36 404.58 121.93 398.59 121.98 392.58 C 124.10 392.93 126.22 393.30 128.34 393.66 Z" />
<path fill="#7ab0a3" opacity="1.00" d=" M 137.55 417.26 C 139.09 418.39 140.61 419.56 142.13 420.73 C 145.99 420.29 149.88 420.46 153.72 421.04 C 154.92 419.71 156.12 418.38 157.33 417.07 C 158.08 421.28 159.07 425.97 156.93 429.95 C 154.14 434.56 147.40 435.44 142.85 433.18 C 137.77 429.71 137.57 422.81 137.55 417.26 Z" />
<path fill="#7ab0a3" opacity="1.00" d=" M 78.06 425.06 C 78.48 424.84 79.32 424.41 79.74 424.19 C 81.93 426.16 84.09 428.18 86.21 430.23 C 92.76 429.38 99.40 429.29 105.91 430.58 C 107.95 431.23 109.64 430.02 111.05 428.68 C 109.99 431.82 108.54 434.84 106.59 437.53 C 101.62 445.27 92.07 448.66 83.28 449.36 C 79.18 441.93 78.09 433.41 78.06 425.06 Z" />
<path fill="#7ab0a3" opacity="1.00" d=" M 190.00 424.07 C 192.67 425.75 194.87 428.05 197.11 430.25 C 202.01 429.78 206.98 429.14 211.89 429.89 C 214.41 430.14 216.93 430.87 219.47 430.58 C 221.95 428.47 223.90 425.82 226.16 423.47 C 228.21 430.34 228.33 437.63 227.06 444.65 C 219.63 448.24 211.16 449.12 203.04 448.24 C 198.49 447.63 193.17 446.50 190.86 442.04 C 189.93 437.74 189.20 433.38 189.03 428.98 C 189.01 427.30 188.86 425.45 190.00 424.07 Z" />
</g>
<g id="#6ea094ff">
<path fill="#6ea094" opacity="1.00" d=" M 159.98 341.68 C 161.64 341.49 163.31 341.29 164.97 341.09 C 165.54 346.36 166.16 351.62 166.96 356.87 C 164.69 355.24 161.94 353.76 160.96 350.95 C 159.88 347.99 160.13 344.77 159.98 341.68 Z" />
</g>
<g id="#77aea1ff">
<path fill="#77aea1" opacity="1.00" d=" M 49.15 380.60 C 50.86 381.72 52.55 382.87 54.23 384.03 C 52.86 385.42 51.40 386.71 49.94 388.01 C 49.67 386.26 49.37 384.52 49.17 382.77 C 49.17 382.23 49.16 381.14 49.15 380.60 Z" />
</g>
<g id="#699c8fff">
<path fill="#699c8f" opacity="1.00" d=" M 159.84 381.10 C 160.87 381.39 161.90 381.68 162.93 381.98 C 163.58 389.69 165.46 397.21 167.22 404.72 C 160.57 398.82 160.06 389.36 159.84 381.10 Z" />
</g>
<g id="#83b5aaff">
<path fill="#83b5aa" opacity="1.00" d=" M 114.02 433.41 C 114.71 431.41 115.48 429.45 116.22 427.49 C 116.53 429.20 116.84 430.93 117.15 432.66 C 116.37 432.84 114.81 433.22 114.02 433.41 Z" />
</g>
</svg>
