<?xml version="1.0" encoding="utf-8"?>
<!-- Generator: Adobe Illustrator 16.0.0, SVG Export Plug-In . SVG Version: 6.00 Build 0)  -->
<!DOCTYPE svg PUBLIC "-//W3C//DTD SVG 1.1//EN" "http://www.w3.org/Graphics/SVG/1.1/DTD/svg11.dtd">
<svg version="1.1" id="Layer_1" xmlns="http://www.w3.org/2000/svg" xmlns:xlink="http://www.w3.org/1999/xlink" x="0px" y="0px"
   width="349.07901"
   height="360.99911"
   viewBox="0 0 349.07901 360.99911"
   xml:space="preserve">
<g transform="translate(-834.12989,-704.03188)">
	<g>
		<g>
			<path fill="#FF6B80" d="M1131.24,875.889c-13.594-97.705-40.878-146.771-122.576-149.156l0,0l0,0l0,0l0,0
				c-81.698,2.386-108.991,51.451-122.566,149.156c-13.527,97.363,28.015,170.961,122.576,163.975
				C1103.206,1046.85,1144.767,973.252,1131.24,875.889z"/>
			<path fill="#3A002F" d="M1022.374,1059.336c-4.146,0-7.398-5.908-7.398-13.412c0-7.521,3.252-13.409,7.398-13.409
				s7.397,5.888,7.397,13.409C1029.771,1053.428,1026.521,1059.336,1022.374,1059.336z"/>
			<path fill="#3A002F" d="M1047.32,1059.336c-4.156,0-7.418-5.908-7.418-13.412c0-7.521,3.262-13.409,7.418-13.409
				c4.146,0,7.397,5.888,7.397,13.409C1054.718,1053.428,1051.467,1059.336,1047.32,1059.336z"/>
			<path fill="#3A002F" d="M1034.852,1065.031c-4.214,0-7.408-6.986-7.408-16.259c0-9.255,3.194-16.258,7.408-16.258
				s7.379,7.003,7.379,16.258C1042.23,1058.045,1039.065,1065.031,1034.852,1065.031z"/>
			<path fill="#3A002F" d="M970.009,1059.336c-4.146,0-7.398-5.908-7.398-13.412c0-7.521,3.251-13.409,7.398-13.409
				s7.399,5.888,7.399,13.409C977.408,1053.428,974.155,1059.336,970.009,1059.336z"/>
			<path fill="#3A002F" d="M994.956,1059.336c-4.156,0-7.408-5.908-7.408-13.412c0-7.521,3.252-13.409,7.408-13.409
				c4.136,0,7.388,5.888,7.388,13.409C1002.344,1053.428,999.092,1059.336,994.956,1059.336z"/>
			<path fill="#3A002F" d="M982.468,1065.031c-4.214,0-7.398-6.986-7.398-16.259c0-9.255,3.184-16.258,7.398-16.258
				c4.223,0,7.417,7.003,7.417,16.258C989.885,1058.045,986.691,1065.031,982.468,1065.031z"/>
			<g>
				<path fill="#3A002F" d="M912.016,947.601c9.717,38.58,35.894,52.971,35.894,52.971s-92.887,12.124-110.569-51.565
					c-13.739-49.489,19.645-87.587,42.754-83.757C903.232,869.078,900.721,902.79,912.016,947.601z"/>
				<path fill="#3A002F" d="M1105.332,947.601c-9.717,38.58-35.913,52.971-35.913,52.971s92.896,12.124,110.579-51.565
					c13.738-49.489-19.646-87.587-42.754-83.757C1114.106,869.078,1116.617,902.79,1105.332,947.601z"/>
			</g>
			<g>
				<path fill="#FF6B80" d="M934.855,881.162c-39.791,0-72.164-32.382-72.164-72.192c0-39.793,32.373-72.157,72.164-72.157
					c39.79,0,72.174,32.364,72.174,72.157C1007.029,848.78,974.646,881.162,934.855,881.162z"/>
				<g>
					<g>
						<path fill="#FF6B80" d="M911.419,877.235c1.116-3.153,3.309-5.618,5.744-7.193c2.453-1.599,5.127-2.331,7.812-1.889
							c5.205,0.925,9.698,6.236,9.881,13.009c0.01,3.346-1.376,6.427-3.906,8.522c-2.501,2.1-6.157,3.156-9.976,2.521
							c-3.81-0.614-6.927-2.828-8.62-5.618C910.63,883.779,910.323,880.43,911.419,877.235z"/>
					</g>
					<g>
						<path fill="#FF6B80" d="M890.553,865.922c4.3-5.193,11.122-6.675,15.777-4.192c2.405,1.306,4.061,3.54,5.013,6.31
							c0.943,2.731,1.164,6.022,0.077,9.196c-1.077,3.194-3.387,5.656-6.465,6.813c-3.059,1.153-6.859,0.96-10.265-0.888
							c-3.386-1.844-5.619-4.925-6.301-8.119C887.676,871.831,888.475,868.557,890.553,865.922z"/>
					</g>
					<g>
						<path fill="#FF6B80" d="M874.457,848.452c5.734-3.54,12.68-2.753,16.298,1.115c3.55,3.927,3.799,10.909-0.202,16.354
							c-2.059,2.656-5.051,4.234-8.332,4.311c-3.261,0.117-6.792-1.31-9.409-4.138s-3.724-6.481-3.338-9.714
							C869.829,853.106,871.638,850.262,874.457,848.452z"/>
					</g>
					<g>
						<path fill="#FF6B80" d="M864.885,826.71c3.27-0.829,6.522-0.328,9.188,0.825c2.664,1.194,4.752,3.021,5.849,5.525
							c2.106,4.849,0.067,11.503-5.465,15.392c-2.81,1.848-6.138,2.365-9.274,1.385c-3.118-0.96-6.023-3.426-7.572-6.966
							c-1.568-3.539-1.433-7.349-0.028-10.294C858.988,829.614,861.624,827.518,864.885,826.71z"/>
					</g>
					<g>
						<path fill="#FF6B80" d="M862.931,803.023c6.706,0.749,11.689,5.639,12.151,10.909c0.23,2.731-0.741,5.349-2.521,7.659
							c-1.78,2.269-4.407,4.271-7.677,5.118c-3.252,0.825-6.572,0.231-9.217-1.713c-2.655-1.924-4.569-5.215-4.887-9.062
							c-0.318-3.851,1.049-7.391,3.338-9.718C856.409,803.869,859.583,802.733,862.931,803.023z"/>
					</g>
					<g>
						<path fill="#FF6B80" d="M868.761,779.993c3.088,1.364,5.34,3.771,6.726,6.309c1.385,2.58,1.885,5.312,1.222,7.968
							c-0.664,2.617-2.424,4.789-4.859,6.389c-2.424,1.595-5.55,2.613-8.918,2.365c-3.348-0.27-6.292-1.906-8.177-4.6
							c-1.876-2.673-2.626-6.386-1.674-10.16c0.934-3.75,3.387-6.654,6.312-8.119C862.325,778.646,865.693,778.625,868.761,779.993z
							"/>
					</g>
					<g>
						<path fill="#FF6B80" d="M881.788,760.115c4.83,4.714,5.724,11.642,2.867,16.086c-2.925,4.406-9.64,6.33-15.894,3.792
							c-3.079-1.347-5.329-3.851-6.214-7.007c-0.905-3.153-0.415-6.924,1.721-10.156c2.107-3.236,5.359-5.197,8.602-5.619
							C876.121,756.786,879.315,757.826,881.788,760.115z"/>
					</g>
					<g>
						<path fill="#FF6B80" d="M900.519,745.512c1.607,2.963,1.924,6.233,1.443,9.12c-0.49,2.866-1.76,5.349-3.916,7.024
							c-4.194,3.249-11.169,2.903-16.258-1.541c-2.482-2.251-3.8-5.369-3.627-8.64c0.164-3.271,1.837-6.658,4.897-9.045
							c3.04-2.365,6.744-3.19,9.947-2.538C896.238,740.508,898.922,742.549,900.519,745.512z"/>
					</g>
					<g>
						<path fill="#FF6B80" d="M922.974,737.797c0.549,3.309-0.221,6.52-1.596,9.062c-1.405,2.579-3.406,4.503-5.985,5.387
							c-2.568,0.885-5.339,0.598-8.023-0.56c-2.656-1.17-5.234-3.211-6.851-6.174c-1.616-2.946-1.867-6.312-0.634-9.352
							c1.202-3.039,3.915-5.716,7.571-6.966c3.666-1.271,7.446-0.829,10.265,0.829C920.568,731.656,922.444,734.468,922.974,737.797
							z"/>
					</g>
					<g>
						<path fill="#FF6B80" d="M946.737,737.797c-0.567,3.309-2.329,6.099-4.464,8.06c-2.155,1.965-4.686,3.156-7.417,3.136
							c-2.732,0.021-5.263-1.171-7.417-3.136c-2.126-1.961-3.896-4.751-4.464-8.06c-0.558-3.329,0.308-6.582,2.463-9.065
							c2.136-2.462,5.57-4.116,9.429-4.116c3.848,0,7.282,1.654,9.408,4.116C946.439,731.215,947.304,734.468,946.737,737.797z"/>
					</g>
					<g>
						<path fill="#FF6B80" d="M969.201,745.512c-1.625,2.963-4.194,5.004-6.85,6.174c-2.684,1.157-5.455,1.444-8.033,0.56
							c-2.569-0.884-4.579-2.808-5.975-5.387c-1.376-2.542-2.145-5.753-1.606-9.062c0.548-3.329,2.415-6.141,5.263-7.773
							c2.819-1.637,6.6-2.1,10.256-0.829c3.665,1.271,6.369,3.927,7.581,6.966C971.067,739.199,970.817,742.587,969.201,745.512z"/>
					</g>
					<g>
						<path fill="#FF6B80" d="M987.933,760.133c-5.089,4.427-12.074,4.772-16.259,1.54c-2.165-1.692-3.425-4.175-3.925-7.041
							c-0.472-2.866-0.154-6.157,1.452-9.12c1.597-2.963,4.281-5.004,7.504-5.619c3.213-0.652,6.917,0.173,9.958,2.538
							c3.049,2.387,4.733,5.795,4.896,9.045C991.732,754.746,990.415,757.864,987.933,760.133z"/>
					</g>
					<g>
						<path fill="#FF6B80" d="M1000.949,779.993c-6.244,2.538-12.958,0.614-15.883-3.771c-2.867-4.465-1.962-11.393,2.867-16.089
							c2.472-2.289,5.666-3.347,8.918-2.922c3.232,0.442,6.494,2.383,8.609,5.619c2.127,3.232,2.607,7.003,1.713,10.156
							C1006.288,776.143,1004.027,778.646,1000.949,779.993z"/>
					</g>
					<g>
						<path fill="#FF6B80" d="M1006.788,803.023c-3.367,0.27-6.494-0.771-8.918-2.349c-2.434-1.616-4.195-3.788-4.858-6.405
							c-0.664-2.656-0.164-5.388,1.222-7.968c1.375-2.538,3.636-4.924,6.715-6.309c3.079-1.347,6.446-1.33,9.38,0.151
							c2.925,1.465,5.377,4.39,6.32,8.119c0.942,3.774,0.192,7.487-1.693,10.16C1013.08,801.117,1010.137,802.774,1006.788,803.023z
							"/>
					</g>
					<g>
						<path fill="#FF6B80" d="M1004.826,826.71c-3.262-0.847-5.888-2.85-7.668-5.118c-1.779-2.311-2.751-4.928-2.521-7.639
							c0.462-5.291,5.436-10.181,12.15-10.93c3.349-0.29,6.522,0.846,8.813,3.211c2.279,2.311,3.655,5.851,3.328,9.701
							c-0.317,3.847-2.232,7.138-4.878,9.062C1011.396,826.941,1008.087,827.535,1004.826,826.71z"/>
					</g>
					<g>
						<path fill="#FF6B80" d="M995.263,848.452c-5.532-3.868-7.572-10.543-5.475-15.392c1.107-2.504,3.185-4.331,5.859-5.525
							c2.655-1.153,5.907-1.654,9.178-0.825c3.261,0.808,5.906,2.904,7.302,5.888c1.414,2.925,1.549,6.734-0.029,10.273
							c-1.539,3.561-4.444,6.022-7.571,6.966C1001.392,850.817,998.063,850.3,995.263,848.452z"/>
					</g>
					<g>
						<path fill="#FF6B80" d="M979.158,865.922c-3.993-5.445-3.752-12.428-0.192-16.334c3.608-3.889,10.553-4.676,16.297-1.136
							c2.818,1.826,4.627,4.654,4.983,7.929c0.366,3.232-0.73,6.886-3.357,9.734c-2.607,2.829-6.128,4.234-9.399,4.117
							C984.209,870.156,981.217,868.578,979.158,865.922z"/>
					</g>
					<g>
						<path fill="#FF6B80" d="M958.281,877.235c-1.078-3.174-0.856-6.465,0.077-9.196c0.963-2.77,2.617-5.004,5.022-6.31
							c4.657-2.503,11.488-1.001,15.778,4.192c2.078,2.635,2.877,5.927,2.165,9.12c-0.683,3.194-2.915,6.275-6.301,8.119
							c-3.406,1.848-7.206,2.041-10.265,0.888C961.687,882.892,959.368,880.43,958.281,877.235z"/>
					</g>
					<g>
						<path fill="#FF6B80" d="M934.855,881.162c0.192-6.772,4.675-12.084,9.88-13.009c2.694-0.442,5.368,0.29,7.812,1.889
							c2.434,1.575,4.627,4.04,5.733,7.193c1.107,3.194,0.799,6.544-0.914,9.352c-1.703,2.79-4.82,5.004-8.63,5.618
							c-3.819,0.636-7.476-0.421-9.977-2.521C936.231,887.589,934.846,884.508,934.855,881.162z"/>
					</g>
				</g>
			</g>
			<g>
				<path fill="#FF6B80" d="M1083.484,881.162c39.79,0,72.163-32.382,72.163-72.192c0-39.793-32.373-72.157-72.163-72.157
					c-39.801,0-72.185,32.364-72.185,72.157C1011.3,848.78,1043.684,881.162,1083.484,881.162z"/>
				<g>
					<g>
						<path fill="#FF6B80" d="M1106.91,877.256c1.116,3.174,0.798,6.523-0.914,9.331c-1.703,2.79-4.819,4.983-8.639,5.618
							c-3.819,0.636-7.467-0.441-9.968-2.521c-2.521-2.096-3.916-5.177-3.905-8.522c0.009-3.388,1.298-6.406,3.078-8.696
							c1.809-2.31,4.108-3.85,6.802-4.312c2.684-0.46,5.368,0.29,7.812,1.889C1103.601,871.617,1105.813,874.062,1106.91,877.256z"
							/>
					</g>
					<g>
						<path fill="#FF6B80" d="M1127.787,865.922c2.087,2.635,2.876,5.927,2.164,9.12c-0.683,3.194-2.914,6.275-6.311,8.119
							c-3.396,1.848-7.197,2.041-10.246,0.888c-3.079-1.157-5.388-3.619-6.484-6.793c-1.078-3.194-0.856-6.485,0.086-9.217
							c0.953-2.77,2.607-5.004,5.013-6.31c2.396-1.309,5.166-1.464,8.005-0.77C1122.842,861.65,1125.709,863.267,1127.787,865.922z"
							/>
					</g>
					<g>
						<path fill="#FF6B80" d="M1143.882,848.431c2.828,1.831,4.637,4.676,4.993,7.95c0.366,3.232-0.731,6.886-3.349,9.714
							c-2.616,2.828-6.137,4.255-9.408,4.138c-3.28-0.076-6.263-1.654-8.331-4.311c-2.06-2.673-2.906-5.85-2.916-8.754
							c0.01-2.925,0.866-5.58,2.724-7.601c1.856-2,4.416-3.077,7.33-3.329C1137.82,846.027,1141.063,846.604,1143.882,848.431z"/>
					</g>
					<g>
						<path fill="#FF6B80" d="M1153.455,826.71c3.261,0.808,5.897,2.887,7.292,5.867c1.414,2.945,1.549,6.755-0.01,10.294
							c-1.559,3.54-4.454,6.006-7.581,6.966c-3.126,0.963-6.465,0.463-9.274-1.406c-2.8-1.864-4.637-4.579-5.579-7.327
							c-0.934-2.773-0.973-5.543,0.114-8.043c1.107-2.504,3.185-4.352,5.851-5.525
							C1146.932,826.382,1150.184,825.863,1153.455,826.71z"/>
					</g>
					<g>
						<path fill="#FF6B80" d="M1155.407,803.003c3.349-0.27,6.532,0.866,8.822,3.215c2.271,2.327,3.656,5.867,3.328,9.718
							c-0.317,3.847-2.231,7.138-4.877,9.062c-2.655,1.944-5.975,2.521-9.226,1.713c-3.262-0.847-5.897-2.85-7.678-5.118
							c-1.779-2.311-2.752-4.928-2.521-7.659c0.23-2.711,1.587-5.156,3.742-7.117
							C1149.135,804.833,1152.05,803.313,1155.407,803.003z"/>
					</g>
					<g>
						<path fill="#FF6B80" d="M1149.568,779.993c3.078-1.368,6.455-1.347,9.38,0.151c2.924,1.465,5.378,4.369,6.32,8.119
							c0.942,3.754,0.202,7.487-1.684,10.16c-1.886,2.693-4.829,4.33-8.178,4.579c-3.357,0.269-6.494-0.75-8.918-2.345
							c-2.424-1.616-4.195-3.771-4.858-6.389c-0.664-2.656-0.154-5.388,1.222-7.968
							C1144.237,783.764,1146.499,781.357,1149.568,779.993z"/>
					</g>
					<g>
						<path fill="#FF6B80" d="M1136.551,760.115c2.473-2.289,5.667-3.35,8.919-2.904c3.242,0.422,6.493,2.383,8.61,5.619
							c2.126,3.232,2.616,7.003,1.722,10.139c-0.895,3.174-3.146,5.678-6.233,7.024c-3.089,1.347-6.369,1.385-9.188,0.69
							c-2.839-0.732-5.187-2.192-6.687-4.482c-1.502-2.289-1.906-5.042-1.453-7.908
							C1132.722,765.406,1134.079,762.405,1136.551,760.115z"/>
					</g>
					<g>
						<path fill="#FF6B80" d="M1117.819,745.512c1.598-2.963,4.281-5.004,7.514-5.619c3.204-0.652,6.908,0.155,9.948,2.538
							c3.05,2.387,4.733,5.774,4.897,9.045c0.172,3.271-1.146,6.389-3.628,8.64c-2.482,2.29-5.58,3.388-8.476,3.637
							c-2.914,0.231-5.638-0.425-7.783-2.096c-2.154-1.676-3.425-4.176-3.925-7.045
							C1115.905,751.745,1116.213,748.475,1117.819,745.512z"/>
					</g>
					<g>
						<path fill="#FF6B80" d="M1095.355,737.776c0.549-3.309,2.415-6.12,5.263-7.773c2.818-1.638,6.6-2.079,10.265-0.809
							c3.646,1.233,6.359,3.927,7.571,6.966c1.223,3.039,0.981,6.389-0.635,9.352s-4.194,5.004-6.85,6.157
							c-2.684,1.153-5.455,1.461-8.023,0.576c-2.578-0.904-4.579-2.808-5.983-5.387
							C1095.586,744.316,1094.817,741.105,1095.355,737.776z"/>
					</g>
					<g>
						<path fill="#FF6B80" d="M1071.603,737.776c-0.567-3.309,0.298-6.579,2.453-9.045c2.136-2.462,5.57-4.116,9.418-4.116
							c3.858,0,7.293,1.637,9.419,4.116c2.165,2.466,3.03,5.736,2.463,9.045c-0.559,3.329-2.328,6.119-4.464,8.08
							c-2.146,1.965-4.665,3.156-7.407,3.136c-2.742,0.021-5.263-1.171-7.428-3.136
							C1073.931,743.896,1072.161,741.105,1071.603,737.776z"/>
					</g>
					<g>
						<path fill="#FF6B80" d="M1049.138,745.512c-1.615-2.946-1.866-6.312-0.634-9.352c1.202-3.039,3.915-5.716,7.571-6.966
							c3.665-1.271,7.446-0.829,10.274,0.829c2.838,1.633,4.714,4.444,5.253,7.753c0.538,3.35-0.23,6.54-1.607,9.082
							c-1.394,2.579-3.404,4.482-5.983,5.387c-2.568,0.885-5.34,0.577-8.023-0.576
							C1053.333,750.516,1050.754,748.475,1049.138,745.512z"/>
					</g>
					<g>
						<path fill="#FF6B80" d="M1030.407,760.133c-2.482-2.269-3.801-5.387-3.628-8.657c0.164-3.271,1.848-6.658,4.898-9.045
							c3.039-2.365,6.743-3.19,9.947-2.538c3.231,0.615,5.926,2.656,7.513,5.619c1.607,2.963,1.925,6.254,1.453,9.12
							c-0.5,2.849-1.761,5.349-3.925,7.041c-2.155,1.654-4.868,2.311-7.773,2.079S1032.89,762.405,1030.407,760.133z"/>
					</g>
					<g>
						<path fill="#FF6B80" d="M1017.39,779.993c-3.088-1.347-5.339-3.851-6.225-7.007c-0.895-3.136-0.413-6.924,1.713-10.139
							c2.117-3.254,5.378-5.194,8.61-5.637c3.242-0.425,6.446,0.615,8.919,2.922c2.472,2.293,3.829,5.273,4.31,8.16
							c0.462,2.866,0.049,5.619-1.443,7.929c-1.51,2.27-3.857,3.729-6.696,4.462C1023.769,781.396,1020.479,781.34,1017.39,779.993z
							"/>
					</g>
					<g>
						<path fill="#FF6B80" d="M1023.085,848.452c-2.818,1.848-6.146,2.365-9.273,1.385c-3.127-0.943-6.032-3.426-7.571-6.966
							c-1.568-3.519-1.443-7.331-0.029-10.273c1.404-2.963,4.041-5.08,7.302-5.888c3.262-0.829,6.523-0.328,9.178,0.846
							c2.665,1.174,4.753,3.001,5.859,5.505c1.088,2.5,1.049,5.27,0.116,8.043C1027.713,843.852,1025.885,846.587,1023.085,848.452z
							"/>
					</g>
					<g>
						<path fill="#FF6B80" d="M1039.171,865.922c-2.058,2.656-5.041,4.234-8.321,4.311c-3.262,0.117-6.792-1.288-9.399-4.138
							c-2.626-2.828-3.724-6.481-3.357-9.714c0.355-3.274,2.174-6.119,4.992-7.929c2.819-1.848,6.053-2.425,8.957-2.193
							c2.905,0.231,5.475,1.309,7.331,3.309c1.857,2.021,2.704,4.676,2.723,7.601
							C1042.087,860.072,1041.23,863.249,1039.171,865.922z"/>
					</g>
					<g>
						<path fill="#FF6B80" d="M1060.048,877.256c-1.077,3.174-3.387,5.636-6.475,6.793c-3.05,1.153-6.85,0.96-10.246-0.888
							c-3.396-1.844-5.628-4.925-6.32-8.119c-0.702-3.193,0.096-6.485,2.164-9.12c2.088-2.655,4.964-4.251,7.783-4.962
							c2.829-0.694,5.618-0.539,8.005,0.77c2.405,1.306,4.06,3.54,5.021,6.31C1060.904,870.771,1061.135,874.062,1060.048,877.256z"
							/>
					</g>
					<g>
						<path fill="#FF6B80" d="M1083.484,881.162c0.009,3.346-1.376,6.427-3.907,8.522c-2.501,2.079-6.157,3.156-9.977,2.521
							c-3.809-0.635-6.926-2.828-8.619-5.618c-1.723-2.808-2.04-6.157-0.934-9.331c1.116-3.194,3.31-5.639,5.744-7.214
							c2.443-1.599,5.127-2.349,7.821-1.889c2.674,0.463,4.983,2.003,6.792,4.312
							C1082.194,874.756,1083.474,877.774,1083.484,881.162z"/>
					</g>
				</g>
			</g>
			<g>
				<path fill="#FF6B80" d="M941.474,709.183c-37.289,7.486-46.399,19.818-69.806,16.973c-4.07-0.673-9.159-3.156-10.689-6.695
					c-0.779-1.789-1.443-3.426-1.597-5.08c-0.038-0.829,0.029-1.695,0.241-2.542l0.192-0.652c-0.029,0,0.212-0.463,0.298-0.656
					c0.174-0.346,0.346-0.632,0.626-0.998c1.029-1.329,2.684-2.176,4.358-2.1c0.855,0.041,1.674,0.27,2.462,0.732
					c0.673,0.365,1.328,1.06,1.732,1.868c0.896,1.616,0.924,3.923-0.105,5.636c-1,1.713-3.243,2.521-5.119,1.599l-0.202,0.442
					c1.876,1.347,4.714,0.98,6.389-1.078c1.635-2.02,2.106-5.117,1.106-7.718c-2.204-5.577-9.188-6.406-13.2-2.327
					c-0.481,0.462-0.991,1.098-1.395,1.733c-0.173,0.307-0.26,0.345-0.519,0.863l-0.471,0.963c-0.587,1.326-0.789,2.85-0.924,4.369
					c-1.135,12.601,10.697,19.317,15.44,22.146c10.91,5.927,48.373,18.203,70.202,15.337c47.266-6.237,86.315,10.408,87.596,4.714
					C1030.513,745.895,992.685,698.871,941.474,709.183z"/>
				<path fill="#FF6B80" d="M1075.864,709.183c37.299,7.486,46.4,19.818,69.817,16.973c4.059-0.673,9.148-3.156,10.688-6.695
					c0.779-1.789,1.443-3.426,1.588-5.08c0.039-0.829-0.029-1.695-0.241-2.542l-0.202-0.652c0.039,0-0.192-0.463-0.288-0.656
					c-0.174-0.346-0.337-0.632-0.615-0.998c-1.03-1.329-2.685-2.176-4.368-2.1c-0.847,0.041-1.664,0.27-2.463,0.732
					c-0.654,0.365-1.327,1.06-1.731,1.868c-0.885,1.616-0.924,3.923,0.106,5.636c1,1.713,3.251,2.521,5.117,1.599l0.212,0.442
					c-1.876,1.347-4.724,0.98-6.397-1.078c-1.636-2.02-2.107-5.117-1.098-7.718c2.203-5.577,9.179-6.406,13.19-2.327
					c0.48,0.462,0.991,1.098,1.414,1.733c0.174,0.307,0.241,0.345,0.501,0.863l0.462,0.963c0.597,1.326,0.798,2.85,0.933,4.369
					c1.135,12.601-10.698,19.317-15.422,22.146c-10.92,5.927-48.392,18.203-70.23,15.337c-47.257-6.237-86.307,10.408-87.586,4.714
					C986.826,745.895,1024.654,698.871,1075.864,709.183z"/>
			</g>
			<path fill="#EAE5D3" d="M995.08,808.97c3.357,0.038,6.407-1.347,8.504-3.927c2.04-2.559,3.079-6.312,2.29-10.177
				c-0.788-3.867-3.098-6.965-6.021-8.526c-2.886-1.616-6.283-1.691-9.361-0.383l0,0c3.127-1.309,5.387-3.733,6.34-6.928
				c0.904-3.156,0.414-7.003-1.79-10.273c-2.213-3.273-5.551-5.215-8.822-5.543c-3.291-0.365-6.437,0.809-8.803,3.194l0,0
				c2.385-2.348,3.569-5.504,3.223-8.792c-0.346-3.253-2.29-6.603-5.551-8.812c-3.271-2.214-7.138-2.693-10.265-1.789
				c-3.194,0.942-5.638,3.19-6.927,6.348l0,0c1.298-3.098,1.212-6.503-0.395-9.39c-1.559-2.904-4.657-5.232-8.524-6.002
				c-3.867-0.809-7.619,0.248-10.168,2.289c-2.579,2.097-3.963,5.139-3.944,8.485l0,0l0,0l0,0c0.009-3.347-1.376-6.389-3.954-8.485
				c-2.55-2.041-6.311-3.098-10.169-2.311c-3.868,0.791-6.965,3.119-8.523,6.023c-1.607,2.887-1.693,6.292-0.395,9.372l0,0l0,0l0,0
				c-1.289-3.14-3.724-5.388-6.927-6.33c-3.136-0.904-7.004-0.425-10.266,1.769c-3.271,2.23-5.214,5.56-5.551,8.833
				c-0.347,3.288,0.837,6.444,3.213,8.792l0,0l0,0l0,0c-2.357-2.386-5.503-3.56-8.794-3.194c-3.27,0.328-6.618,2.27-8.831,5.543
				c-2.193,3.271-2.685,7.117-1.78,10.253c0.952,3.215,3.213,5.64,6.34,6.928l0,0c-3.088-1.288-6.475-1.213-9.371,0.403
				c-2.916,1.541-5.234,4.659-6.023,8.506c-0.779,3.885,0.26,7.639,2.299,10.177c2.097,2.58,5.138,3.965,8.495,3.947l0,0l0,0l0,0
				c-3.357,0-6.398,1.385-8.495,3.961c-2.039,2.542-3.079,6.292-2.299,10.16c0.789,3.889,3.107,6.965,6.013,8.543
				c2.896,1.578,6.292,1.675,9.37,0.387c0,0,0,0,0.011,0l0,0c-0.011,0-0.011,0-0.011,0c-3.126,1.268-5.387,3.733-6.339,6.928
				c-0.895,3.115-0.414,7.003,1.79,10.253c2.213,3.271,5.551,5.215,8.812,5.563c3.299,0.345,6.445-0.85,8.812-3.236l0,0l0,0l0,0
				c-2.386,2.387-3.57,5.525-3.213,8.813c0.337,3.273,2.28,6.62,5.541,8.812c3.271,2.214,7.139,2.694,10.275,1.81
				c3.193-0.963,5.638-3.232,6.917-6.351l0,0c-1.299,3.08-1.203,6.465,0.395,9.352c1.559,2.925,4.666,5.235,8.524,6.044
				c3.868,0.77,7.629-0.27,10.179-2.311c2.568-2.079,3.963-5.139,3.944-8.506c-0.02,3.367,1.375,6.427,3.945,8.506
				c2.549,2.041,6.311,3.08,10.178,2.311c3.868-0.809,6.965-3.119,8.524-6.044c1.596-2.887,1.693-6.271,0.395-9.352l0,0
				c1.28,3.118,3.723,5.388,6.917,6.351c3.137,0.885,7.003,0.404,10.265-1.81c3.271-2.192,5.214-5.539,5.551-8.812
				c0.355-3.288-0.837-6.427-3.213-8.792c0-0.021,0,0,0-0.021c2.366,2.387,5.512,3.581,8.803,3.236
				c3.271-0.349,6.609-2.293,8.822-5.543c2.203-3.271,2.693-7.138,1.79-10.273c-0.953-3.194-3.213-5.64-6.34-6.928l0,0
				c3.079,1.31,6.475,1.191,9.361-0.387c2.924-1.578,5.233-4.654,6.021-8.543c0.789-3.848-0.25-7.618-2.29-10.16
				C1001.487,810.354,998.438,808.97,995.08,808.97z"/>
			<path fill="#FBFAF6" d="M980.745,808.97c0,25.358-20.549,45.909-45.89,45.909c-25.34,0-45.89-20.551-45.89-45.909
				c0-25.323,20.55-45.892,45.89-45.892C960.196,763.078,980.745,783.646,980.745,808.97z"/>
			<g>
				<g>
					<path fill="#3A002F" d="M932.431,848.145c-0.943-1.212-1.779-2.462-2.501-3.733c-0.711-1.271-1.317-2.559-1.818-3.847
						c1.77,0.729,3.608,1.306,5.484,1.671c1.885,0.366,3.8,0.56,5.724,0.56c-0.961,1.002-2.011,1.962-3.165,2.846
						C935,846.546,933.758,847.396,932.431,848.145z"/>
				</g>
				<g>
					<path fill="#3A002F" d="M919.674,842.854c-0.385-1.481-0.673-2.945-0.856-4.406c-0.173-1.443-0.24-2.887-0.221-4.271
						c1.366,1.364,2.857,2.597,4.444,3.653c1.597,1.078,3.3,2.003,5.07,2.735c-1.28,0.556-2.617,1.036-4.031,1.423
						C922.676,842.37,921.204,842.64,919.674,842.854z"/>
				</g>
				<g>
					<path fill="#3A002F" d="M909.938,833.099c0.202-1.54,0.5-3.005,0.885-4.407c0.385-1.405,0.856-2.752,1.424-4.022
						c0.731,1.771,1.646,3.464,2.704,5.08c1.077,1.578,2.299,3.08,3.646,4.427c-1.375,0.038-2.8-0.038-4.252-0.214
						C912.892,833.789,911.419,833.481,909.938,833.099z"/>
				</g>
				<g>
					<path fill="#3A002F" d="M904.666,820.342c0.761-1.33,1.597-2.559,2.492-3.716c0.896-1.153,1.876-2.214,2.857-3.174
						c0,1.924,0.193,3.83,0.567,5.716c0.366,1.885,0.934,3.732,1.665,5.501c-1.298-0.501-2.587-1.115-3.857-1.827
						C907.129,822.131,905.878,821.284,904.666,820.342z"/>
				</g>
				<g>
					<path fill="#3A002F" d="M904.666,806.546c1.212-0.926,2.463-1.751,3.733-2.483c1.27-0.711,2.559-1.329,3.848-1.826
						c-0.731,1.768-1.289,3.615-1.665,5.501c-0.365,1.886-0.567,3.809-0.567,5.715c-0.981-0.963-1.962-2.021-2.857-3.174
						C906.272,809.122,905.436,807.893,904.666,806.546z"/>
				</g>
				<g>
					<path fill="#3A002F" d="M909.948,793.807c1.491-0.384,2.953-0.691,4.397-0.867c1.461-0.173,2.886-0.249,4.271-0.211
						c-1.356,1.347-2.587,2.85-3.646,4.428c-1.068,1.616-1.982,3.308-2.723,5.08c-0.558-1.271-1.039-2.618-1.424-4.023
						C910.438,796.808,910.149,795.347,909.948,793.807z"/>
				</g>
				<g>
					<path fill="#3A002F" d="M919.703,784.071c1.52,0.193,2.992,0.463,4.396,0.846c1.405,0.404,2.751,0.885,4.021,1.423
						c-1.77,0.753-3.463,1.654-5.06,2.732c-1.597,1.06-3.088,2.289-4.445,3.656c-0.028-1.385,0.039-2.808,0.212-4.271
						C919.01,787.014,919.299,785.532,919.703,784.071z"/>
				</g>
				<g>
					<path fill="#3A002F" d="M932.441,778.76c1.337,0.771,2.578,1.616,3.732,2.501c1.145,0.887,2.204,1.868,3.156,2.849
						c-1.914,0-3.829,0.193-5.714,0.577c-1.876,0.365-3.723,0.925-5.494,1.653c0.501-1.267,1.107-2.576,1.828-3.847
						C930.67,781.223,931.508,779.993,932.441,778.76z"/>
				</g>
				<g>
					<path fill="#3A002F" d="M946.237,778.781c0.933,1.212,1.77,2.441,2.492,3.712c0.702,1.288,1.317,2.58,1.818,3.868
						c-1.761-0.75-3.608-1.288-5.494-1.675c-1.876-0.384-3.8-0.577-5.725-0.577c0.972-0.98,2.021-1.944,3.175-2.849
						C943.658,780.376,944.899,779.53,946.237,778.781z"/>
				</g>
				<g>
					<path fill="#3A002F" d="M958.975,784.071c0.404,1.481,0.683,2.963,0.866,4.386c0.173,1.464,0.24,2.887,0.211,4.271
						c-1.357-1.347-2.848-2.579-4.436-3.656c-1.596-1.058-3.3-1.979-5.069-2.711c1.279-0.56,2.617-1.02,4.031-1.423
						C955.982,784.572,957.454,784.265,958.975,784.071z"/>
				</g>
				<g>
					<path fill="#3A002F" d="M968.72,793.845c-0.202,1.502-0.49,2.963-0.875,4.389c-0.395,1.402-0.866,2.749-1.423,4.02
						c-0.741-1.789-1.655-3.48-2.713-5.059c-1.068-1.616-2.299-3.098-3.656-4.466c1.385-0.017,2.81,0.038,4.271,0.231
						C965.767,793.153,967.238,793.423,968.72,793.845z"/>
				</g>
				<g>
					<path fill="#3A002F" d="M974.001,806.584c-0.76,1.309-1.606,2.576-2.491,3.712c-0.905,1.153-1.867,2.214-2.867,3.174
						c0-1.924-0.183-3.847-0.568-5.732c-0.365-1.886-0.923-3.713-1.654-5.484c1.289,0.501,2.587,1.099,3.848,1.827
						C971.539,804.812,972.79,805.62,974.001,806.584z"/>
				</g>
				<g>
					<path fill="#3A002F" d="M974.001,820.359c-1.221,0.942-2.463,1.771-3.733,2.503c-1.27,0.712-2.568,1.326-3.857,1.827
						c0.73-1.789,1.289-3.619,1.664-5.484c0.385-1.885,0.568-3.809,0.568-5.735c1,0.963,1.962,2.023,2.867,3.156
						C972.395,817.783,973.241,819.033,974.001,820.359z"/>
				</g>
				<g>
					<path fill="#3A002F" d="M968.71,833.099c-1.491,0.403-2.963,0.69-4.397,0.884c-1.462,0.173-2.886,0.231-4.271,0.211
						c1.356-1.364,2.587-2.846,3.655-4.444c1.068-1.596,1.982-3.291,2.713-5.06c0.558,1.25,1.039,2.597,1.424,4.02
						C968.22,830.114,968.508,831.579,968.71,833.099z"/>
				</g>
				<g>
					<path fill="#3A002F" d="M958.955,842.871c-1.52-0.211-2.982-0.501-4.396-0.884c-1.405-0.387-2.751-0.867-4.021-1.423
						c1.77-0.732,3.463-1.657,5.06-2.715c1.597-1.06,3.088-2.289,4.445-3.656c0.028,1.385-0.039,2.828-0.222,4.271
						C959.648,839.908,959.359,841.372,958.955,842.871z"/>
				</g>
				<g>
					<path fill="#3A002F" d="M946.217,848.145c-1.337-0.749-2.578-1.599-3.732-2.504c-1.146-0.884-2.203-1.844-3.166-2.846
						c1.924,0,3.839-0.193,5.715-0.56c1.895-0.365,3.732-0.942,5.503-1.671c-0.5,1.288-1.107,2.576-1.829,3.847
						C947.988,845.683,947.16,846.933,946.217,848.145z"/>
				</g>
			</g>
			<path fill="#3A002F" d="M914.902,813.47c0,13.488,10.938,24.439,24.417,24.439c13.489,0,24.437-10.951,24.437-24.439
				c0-13.506-10.948-24.474-24.437-24.474C925.841,788.996,914.902,799.964,914.902,813.47z"/>
			<path fill="#FBFAF6" d="M941.994,833.019c-4.791-0.998-7.927-5.618-6.965-10.197c0.972-4.655,5.676-7.618,10.478-6.616
				c4.848,1.019,7.965,5.618,6.994,10.273C951.547,831.058,946.843,834.021,941.994,833.019z"/>
			<path fill="#FBFAF6" d="M931.882,834.021c-1.135,0.308-2.318-0.346-2.607-1.443c-0.298-1.095,0.404-2.252,1.54-2.56
				c1.155-0.307,2.328,0.35,2.617,1.465C933.72,832.56,933.027,833.713,931.882,834.021z"/>
			<path fill="#FBFAF6" d="M927.64,830.136c-1.77,0.459-3.578-0.539-4.021-2.234c-0.462-1.692,0.606-3.464,2.375-3.944
				c1.78-0.479,3.589,0.521,4.032,2.252C930.487,827.884,929.41,829.673,927.64,830.136z"/>
			<path fill="#EAE5D3" d="M1152.204,812.931c-2.098-2.576-5.138-3.961-8.505-3.961l0,0l0,0l0,0
				c3.367,0.018,6.407-1.367,8.505-3.947c2.04-2.559,3.078-6.292,2.289-10.177c-0.789-3.847-3.107-6.965-6.022-8.506
				c-2.886-1.616-6.272-1.691-9.36-0.403l0,0c3.126-1.288,5.388-3.713,6.34-6.928c0.895-3.136,0.413-7.003-1.789-10.253
				c-2.203-3.273-5.552-5.215-8.822-5.543c-3.29-0.365-6.437,0.809-8.803,3.194l0,0l0,0l0,0c2.386-2.348,3.569-5.504,3.213-8.792
				c-0.336-3.273-2.279-6.62-5.541-8.833c-3.262-2.193-7.13-2.673-10.274-1.769c-3.194,0.942-5.629,3.19-6.918,6.33l0,0
				c1.299-3.08,1.202-6.485-0.395-9.372c-1.559-2.904-4.656-5.232-8.524-6.023c-3.867-0.787-7.629,0.27-10.179,2.311
				c-2.568,2.097-3.963,5.139-3.944,8.485l0,0l0,0l0,0c0.02-3.347-1.365-6.389-3.943-8.485c-2.55-2.041-6.302-3.098-10.179-2.289
				c-3.858,0.77-6.966,3.098-8.523,6.002c-1.598,2.887-1.685,6.292-0.386,9.372l0,0c-1.289-3.14-3.732-5.388-6.927-6.33
				c-3.136-0.904-7.004-0.425-10.266,1.789c-3.261,2.21-5.214,5.56-5.551,8.812c-0.355,3.288,0.828,6.444,3.213,8.792l0,0
				c-2.356-2.386-5.503-3.539-8.803-3.194c-3.262,0.328-6.609,2.27-8.812,5.543c-2.202,3.271-2.693,7.117-1.789,10.273
				c0.943,3.194,3.214,5.619,6.34,6.907l0,0c-3.088-1.288-6.483-1.213-9.37,0.403c-2.915,1.562-5.224,4.659-6.022,8.526
				c-0.779,3.864,0.26,7.618,2.299,10.177c2.098,2.58,5.138,3.965,8.495,3.927c-3.357,0-6.397,1.385-8.495,3.961
				c-2.039,2.542-3.078,6.312-2.299,10.16c0.799,3.889,3.107,6.985,6.022,8.543c2.896,1.578,6.282,1.696,9.37,0.387l0,0
				c-3.126,1.288-5.388,3.733-6.34,6.928c-0.895,3.136-0.403,7.003,1.789,10.273c2.203,3.25,5.551,5.194,8.812,5.543
				c3.3,0.345,6.446-0.85,8.803-3.215l0,0c-2.376,2.365-3.56,5.504-3.213,8.792c0.347,3.273,2.3,6.62,5.561,8.812
				c3.262,2.214,7.129,2.694,10.266,1.81c3.193-0.963,5.638-3.232,6.917-6.351l0,0c-1.299,3.08-1.202,6.465,0.395,9.352
				c1.559,2.925,4.666,5.235,8.524,6.044c3.877,0.77,7.619-0.27,10.169-2.311c2.578-2.079,3.963-5.139,3.954-8.506
				c-0.021,3.367,1.375,6.427,3.954,8.506c2.54,2.041,6.301,3.08,10.168,2.311c3.868-0.809,6.956-3.119,8.524-6.044
				c1.597-2.887,1.693-6.271,0.394-9.352l0,0c1.28,3.118,3.724,5.388,6.918,6.33c3.136,0.905,7.004,0.425,10.274-1.789
				c3.262-2.192,5.205-5.539,5.542-8.812c0.355-3.288-0.828-6.427-3.213-8.813l0,0l0,0l0,0c2.366,2.387,5.503,3.581,8.802,3.236
				c3.271-0.349,6.61-2.293,8.813-5.563c2.213-3.25,2.684-7.138,1.789-10.253c-0.943-3.194-3.204-5.66-6.33-6.928h-0.01l0,0h0.01
				c3.078,1.288,6.465,1.191,9.361-0.387c2.914-1.578,5.233-4.676,6.012-8.543C1155.292,819.223,1154.244,815.473,1152.204,812.931z
				"/>
			<g>
				<path fill="#FBFAF6" d="M1036.507,808.97c0,25.358,20.549,45.909,45.899,45.909c25.331,0,45.881-20.551,45.881-45.909
					c0-25.323-20.55-45.892-45.881-45.892C1057.056,763.078,1036.507,783.646,1036.507,808.97z"/>
				<path fill="#3A002F" d="M1102.35,813.47c0,13.488-10.929,24.439-24.417,24.439c-13.498,0-24.437-10.951-24.437-24.439
					c0-13.506,10.938-24.474,24.437-24.474C1091.421,788.996,1102.35,799.964,1102.35,813.47z"/>
				<g>
					<g>
						<path fill="#3A002F" d="M1071.006,848.145c-0.923-1.212-1.761-2.462-2.482-3.733c-0.721-1.271-1.327-2.559-1.828-3.847
							c1.771,0.729,3.608,1.306,5.503,1.671c1.876,0.366,3.801,0.56,5.705,0.56c-0.952,1.002-2.011,1.962-3.155,2.846
							C1073.594,846.546,1072.353,847.396,1071.006,848.145z"/>
					</g>
					<g>
						<path fill="#3A002F" d="M1058.277,842.854c-0.404-1.481-0.692-2.945-0.865-4.406c-0.173-1.443-0.25-2.887-0.212-4.271
							c1.357,1.364,2.839,2.597,4.436,3.653c1.597,1.078,3.3,2.003,5.06,2.735c-1.27,0.556-2.606,1.036-4.021,1.423
							C1061.27,842.37,1059.798,842.64,1058.277,842.854z"/>
					</g>
					<g>
						<path fill="#3A002F" d="M1048.532,833.099c0.202-1.54,0.49-3.005,0.875-4.407c0.395-1.405,0.866-2.752,1.434-4.022
							c0.722,1.771,1.646,3.464,2.704,5.08c1.067,1.578,2.299,3.08,3.655,4.427c-1.395,0.038-2.819-0.038-4.271-0.214
							C1051.485,833.789,1050.014,833.481,1048.532,833.099z"/>
					</g>
					<g>
						<path fill="#3A002F" d="M1043.26,820.342c0.751-1.33,1.597-2.559,2.482-3.716c0.904-1.153,1.866-2.214,2.867-3.174
							c0,1.924,0.183,3.83,0.559,5.716c0.374,1.885,0.942,3.732,1.673,5.501c-1.299-0.501-2.588-1.115-3.857-1.827
							C1045.713,822.131,1044.472,821.284,1043.26,820.342z"/>
					</g>
					<g>
						<path fill="#3A002F" d="M1043.26,806.546c1.212-0.926,2.463-1.751,3.733-2.483c1.26-0.711,2.559-1.329,3.848-1.826
							c-0.73,1.768-1.289,3.615-1.673,5.501c-0.376,1.886-0.559,3.809-0.559,5.715c-1.001-0.963-1.963-2.021-2.867-3.174
							C1044.856,809.122,1044.021,807.893,1043.26,806.546z"/>
					</g>
					<g>
						<path fill="#3A002F" d="M1048.542,793.807c1.49-0.384,2.963-0.691,4.396-0.867c1.452-0.173,2.886-0.249,4.262-0.211
							c-1.356,1.347-2.578,2.85-3.646,4.428c-1.067,1.616-1.981,3.308-2.713,5.08c-0.558-1.271-1.029-2.618-1.424-4.023
							C1049.032,796.808,1048.734,795.347,1048.542,793.807z"/>
					</g>
					<g>
						<path fill="#3A002F" d="M1058.288,784.071c1.528,0.193,2.991,0.463,4.405,0.846c1.404,0.404,2.751,0.885,4.021,1.423
							c-1.77,0.753-3.473,1.654-5.069,2.732c-1.598,1.06-3.079,2.289-4.445,3.656c-0.02-1.385,0.048-2.808,0.222-4.271
							C1057.604,787.014,1057.894,785.532,1058.288,784.071z"/>
					</g>
					<g>
						<path fill="#3A002F" d="M1071.035,778.76c1.327,0.771,2.578,1.616,3.723,2.501c1.155,0.887,2.213,1.868,3.166,2.849
							c-1.915,0-3.84,0.193-5.716,0.577c-1.886,0.365-3.723,0.925-5.493,1.653c0.501-1.267,1.106-2.576,1.828-3.847
							C1069.255,781.223,1070.092,779.993,1071.035,778.76z"/>
					</g>
					<g>
						<path fill="#3A002F" d="M1084.821,778.781c0.943,1.212,1.77,2.441,2.492,3.712c0.722,1.288,1.327,2.58,1.827,3.868
							c-1.77-0.75-3.617-1.288-5.493-1.675c-1.876-0.384-3.791-0.577-5.724-0.577c0.961-0.98,2.02-1.944,3.174-2.849
							C1082.243,780.376,1083.493,779.53,1084.821,778.781z"/>
					</g>
					<g>
						<path fill="#3A002F" d="M1097.568,784.071c0.395,1.481,0.683,2.963,0.866,4.386c0.163,1.464,0.23,2.887,0.212,4.271
							c-1.356-1.347-2.849-2.579-4.445-3.656c-1.597-1.058-3.291-1.979-5.061-2.711c1.271-0.56,2.607-1.02,4.031-1.423
							C1094.576,784.572,1096.048,784.265,1097.568,784.071z"/>
					</g>
					<g>
						<path fill="#3A002F" d="M1107.305,793.845c-0.192,1.502-0.49,2.963-0.876,4.389c-0.385,1.402-0.865,2.749-1.424,4.02
							c-0.73-1.789-1.646-3.48-2.703-5.059c-1.078-1.616-2.3-3.098-3.655-4.466c1.385-0.017,2.809,0.038,4.261,0.231
							C1104.351,793.153,1105.832,793.423,1107.305,793.845z"/>
					</g>
					<g>
						<path fill="#3A002F" d="M1112.586,806.584c-0.76,1.309-1.597,2.576-2.491,3.712c-0.896,1.153-1.866,2.214-2.857,3.174
							c0-1.924-0.192-3.847-0.567-5.732c-0.366-1.886-0.934-3.713-1.665-5.484c1.299,0.501,2.578,1.099,3.857,1.827
							C1110.123,804.812,1111.374,805.62,1112.586,806.584z"/>
					</g>
					<g>
						<path fill="#3A002F" d="M1112.586,820.359c-1.212,0.942-2.463,1.771-3.724,2.503c-1.279,0.712-2.568,1.326-3.857,1.827
							c0.731-1.789,1.299-3.619,1.665-5.484c0.375-1.885,0.567-3.809,0.567-5.735c0.991,0.963,1.962,2.023,2.857,3.156
							C1110.989,817.783,1111.826,819.033,1112.586,820.359z"/>
					</g>
					<g>
						<path fill="#3A002F" d="M1107.305,833.099c-1.491,0.403-2.963,0.69-4.407,0.884c-1.452,0.173-2.886,0.231-4.261,0.211
							c1.356-1.364,2.578-2.846,3.655-4.444c1.067-1.596,1.973-3.291,2.713-5.06c0.559,1.25,1.021,2.597,1.424,4.02
							C1106.814,830.114,1107.103,831.579,1107.305,833.099z"/>
					</g>
					<g>
						<path fill="#3A002F" d="M1097.549,842.871c-1.52-0.211-2.991-0.501-4.396-0.884c-1.404-0.387-2.751-0.867-4.021-1.423
							c1.761-0.732,3.464-1.657,5.061-2.715c1.597-1.06,3.088-2.289,4.445-3.656c0.019,1.385-0.039,2.828-0.212,4.271
							C1098.232,839.908,1097.943,841.372,1097.549,842.871z"/>
					</g>
					<g>
						<path fill="#3A002F" d="M1084.802,848.145c-1.328-0.749-2.568-1.599-3.723-2.504c-1.145-0.884-2.203-1.844-3.176-2.846
							c1.935,0,3.849-0.193,5.725-0.56c1.886-0.365,3.732-0.942,5.503-1.671c-0.51,1.288-1.116,2.576-1.827,3.847
							C1086.582,845.683,1085.744,846.933,1084.802,848.145z"/>
					</g>
				</g>
				<path fill="#FBFAF6" d="M1072.795,833.019c-4.79-0.998-7.927-5.618-6.965-10.197c0.962-4.655,5.676-7.618,10.478-6.616
					c4.839,1.019,7.955,5.618,6.993,10.273C1082.34,831.058,1077.634,834.021,1072.795,833.019z"/>
				<path fill="#FBFAF6" d="M1086.842,834.021c1.135,0.308,2.309-0.346,2.597-1.443c0.309-1.095-0.394-2.252-1.539-2.56
					c-1.145-0.307-2.318,0.35-2.606,1.465C1085.004,832.56,1085.687,833.713,1086.842,834.021z"/>
				<path fill="#FBFAF6" d="M1092.672,830.136c-1.771,0.459-3.579-0.539-4.021-2.234c-0.462-1.692,0.606-3.464,2.376-3.944
					c1.78-0.479,3.589,0.521,4.04,2.252C1095.519,827.884,1094.441,829.673,1092.672,830.136z"/>
			</g>
			<path fill="#3A002F" d="M1008.674,824.631c0,0-13.594,8.198-16.432,23.358c4.743,4.427,16.432,26.822,16.432,26.822
				s11.68-22.396,16.432-26.822C1022.277,832.829,1008.674,824.631,1008.674,824.631z"/>
			<g opacity="0.25">
				<path fill="#1D1D1B" d="M1008.674,824.631L1008.674,824.631v50.181l0,0c0,0,11.68-22.396,16.432-26.822
					C1022.277,832.829,1008.674,824.631,1008.674,824.631z"/>
			</g>
			<g>
				<rect x="929.044" y="916.624" fill="#EAE5D3" width="159.25" height="96.801"/>
				<polygon fill="#EAE5D3" points="1008.664,974.923 929.044,917.356 929.044,916.624 1008.664,916.624 1088.294,916.624 
					1088.294,917.356 				"/>
				<polygon fill="#EAE5D3" points="1008.664,967.364 929.044,917.356 929.044,916.624 1008.664,916.624 1088.294,916.624 
					1088.294,917.356 				"/>
				<path fill="#EA3D4E" d="M1022.729,949.352c-7.379-2.77-11.92,3.812-14.065,6.14c-2.136-2.327-6.677-8.909-14.065-6.14
					c-8.677,3.273-8.514,14.511,0.125,22.149c3.55,3.136,8.361,5.905,13.94,10.332c5.58-4.427,10.4-7.196,13.95-10.332
					C1031.253,963.862,1031.417,952.625,1022.729,949.352z"/>
			</g>
			<g>
				<path opacity="0.3" fill="#1D1D1B" d="M903.068,975.559v18.434c24.351,4.213,44.842,6.579,44.842,6.579
					s-24.445-19.47-34.162-58.03c-3.647-14.432-8.101-25.496-10.188-37.002l1.116,6.157L903.068,975.559z"/>
				<path opacity="0.3" fill="#1D1D1B" d="M1114.279,975.559v18.434c-24.35,4.213-44.86,6.579-44.86,6.579
					s24.455-19.47,34.182-58.03c3.637-14.432,8.476-27.554,10.562-39.04l0.116-0.673V975.559z"/>
				<path fill="#3A002F" d="M901.337,980.639v18.434c24.35,4.196,46.573,1.499,46.573,1.499s-26.177-14.391-35.894-52.971
					c-4.253-16.814-6.533-32.074-8.976-44.793l-1.703-0.557V980.639z"/>
				<path fill="#3A002F" d="M1116.29,980.677v-78.388l-1.992,0.519c-2.442,12.719-4.723,27.979-8.966,44.793
					c-9.717,38.58-35.913,52.971-35.913,52.971s22.521,2.655,46.871-1.575V980.677z"/>
			</g>
		</g>
		<path opacity="0.15" fill="#1D1D1B" d="M1145.874,865.636c2.337-2.773,3.348-6.178,3.001-9.255
			c-0.347-3.194-2.106-5.968-4.83-7.815c0.01,0,0.01-0.017,0.021-0.038c2.771,1.772,6.032,2.272,9.091,1.31
			c3.127-0.96,6.022-3.426,7.581-6.966c1.559-3.539,1.424-7.349,0.01-10.294c-1.395-2.98-4.031-5.06-7.292-5.867
			c-0.01,0-0.01,0-0.01-0.021l0,0c0,0,0,0.021,0.01,0.021c3.251,0.808,6.57,0.231,9.226-1.713c2.646-1.924,4.56-5.215,4.877-9.062
			c0.328-3.851-1.058-7.391-3.328-9.718c-2.29-2.349-5.474-3.484-8.822-3.215c-0.009,0-0.019,0.021-0.019,0.021s0,0,0-0.021
			c0,0,0.01,0,0.019,0c3.349-0.249,6.292-1.886,8.178-4.579c1.886-2.673,2.626-6.406,1.684-10.16
			c-0.942-3.75-3.396-6.654-6.32-8.119c-2.925-1.498-6.302-1.52-9.38-0.151c0,0,0,0-0.01,0l0,0h0.01
			c3.088-1.347,5.339-3.851,6.233-7.024c0.895-3.136,0.404-6.906-1.722-10.139c-2.117-3.236-5.368-5.197-8.61-5.619
			c-3.252-0.445-6.446,0.615-8.919,2.904c0,0,0,0.018-0.01,0.018l0,0c0.01,0,0.01-0.018,0.01-0.018
			c2.482-2.251,3.8-5.369,3.628-8.64c-0.164-3.271-1.848-6.658-4.897-9.045c-0.231-0.189-0.491-0.307-0.731-0.459
			c5.388-1.944,9.784-3.809,12.517-5.312c4.724-2.828,16.557-9.545,15.422-22.146c-0.135-1.52-0.336-3.043-0.933-4.369l-0.462-0.963
			c-0.26-0.519-0.327-0.557-0.501-0.863c-0.423-0.636-0.934-1.271-1.414-1.733c-4.012-4.079-10.987-3.25-13.19,2.327
			c-1.01,2.601-0.538,5.698,1.098,7.718c1.674,2.059,4.521,2.425,6.397,1.078l-0.212-0.442c-1.866,0.922-4.117,0.114-5.117-1.599
			c-1.03-1.713-0.991-4.02-0.106-5.636c0.404-0.809,1.077-1.503,1.731-1.868c0.799-0.463,1.616-0.691,2.463-0.732
			c1.684-0.076,3.338,0.771,4.368,2.1c0.278,0.366,0.441,0.652,0.615,0.998c0.096,0.193,0.327,0.656,0.288,0.656l0.202,0.652
			c0.212,0.847,0.28,1.713,0.241,2.542c-0.145,1.654-0.809,3.291-1.588,5.08c-1.539,3.539-6.629,6.022-10.688,6.695
			c-23.417,2.846-32.519-9.486-69.817-16.973c-26.87-5.426-50.037,4.966-65.661,17.626c-0.52-0.038-1.01-0.076-1.539-0.076v313.131
			c0.01,0,0.01,0,0.01,0c2.377,0.155,4.704,0.248,7.014,0.328c-0.443,1.729-0.712,3.653-0.712,5.732
			c0,7.504,3.252,13.412,7.398,13.412c2.251,0,4.214-1.771,5.561-4.579c1.048,6.116,3.676,10.274,6.917,10.274
			c3.232,0,5.85-4.158,6.889-10.274c1.356,2.808,3.318,4.579,5.58,4.579c4.146,0,7.397-5.908,7.397-13.412
			c0-3.675-0.788-6.966-2.068-9.369c23.609-5.888,42.119-18.548,55.444-36.329c2.452-0.286,4.954-0.673,7.484-1.115
			c0.24-0.038,0.472-0.076,0.712-0.114l0,0c25.918-4.676,54.655-17.395,63.708-49.99
			C1192.091,905.445,1167.655,870.694,1145.874,865.636z M1040.894,1039.248c-0.028-0.117-0.067-0.231-0.106-0.349
			c0.067,0,0.146,0,0.222-0.017C1040.97,1038.996,1040.933,1039.131,1040.894,1039.248z"/>
	</g>
</g>
</svg>
