<?xml version="1.0" encoding="utf-8"?>
<!-- Generator: Adobe Illustrator 16.0.0, SVG Export Plug-In . SVG Version: 6.00 Build 0)  -->
<!DOCTYPE svg PUBLIC "-//W3C//DTD SVG 1.1//EN" "http://www.w3.org/Graphics/SVG/1.1/DTD/svg11.dtd">
<svg version="1.1" id="Layer_1" xmlns="http://www.w3.org/2000/svg" xmlns:xlink="http://www.w3.org/1999/xlink" x="0px" y="0px"
   width="101.90735" height="141.79021" viewBox="0 0 101.90735 141.79021" enable-background="new 0 0 198.43 198.43" xml:space="preserve">
<g transform="translate(-50.641388,-31.786532)">
	<g>
		<g>
			<defs>
				<path id="SVGID_1_" d="M54.93,142.018c1.116,4.396,2.515,8.678,4.232,12.773c2.143,5.104,5.846,14.555,12.51,15.017
					c4.769,0.331,5.611-5.197,6.464-8.645c0.824-3.333,2.771-5.394,6.143-6.146c4.673-1.046,7.816,3.002,12.358,4.033
					c2.95,0.671,6.019,0.742,8.967,0.246c6.885-1.156,11.109-8.604,17.62-2.312c3.884,3.757,8.231,8.5,13.304,10.603
					c2.579,1.067,5.258,1.143,6.914-1.457c1.592-2.498,1.671-5.65,1.628-8.514c-0.055-3.893,0.695-8.75,2-12.377
					c2.676-7.449,3.929-15.849,4.504-23.724c1.224-16.765-0.249-33.521-3.152-50.044c-1.506-8.562-3.486-17.057-5.785-25.438
					c-0.556-2.021-2.973-8.903-0.067-10.376c-4.737,2.402-9.952,3.895-15.229,4.475c-1.294,0.142-15.334,0.164-15.127-1.059
					c0.268-1.433,1.225-2.784,1.205-4.317c-1.435,1.543-5.624,3.067-7.678,2.93c1.263-1.502,2.228-3.387,2.509-5.374
					c-2.625,3.014-8.708,5.551-12.554,5.384c0.687-1.173,1.27-2.656,1.523-4.016c-5.422,3.199-12.278,5.662-18.628,5.686
					c-2.802,0.01-14.72,1.06-16.028-1.912c0.151,0.345,0.349,0.741,0.5,1.09c-0.82-0.631-1.952-0.865-2.843-1.175
					c4.762,1.652,0.608,15.091-0.364,18.251c-4.067,13.227-6.958,26.974-8.065,40.78C50.604,111.157,51.176,127.243,54.93,142.018z"
					/>
			</defs>
			<clipPath id="SVGID_2_">
				<use xlink:href="#SVGID_1_"  overflow="visible"/>
			</clipPath>
		</g>
	</g>
	<path fill="#FFFFFF" stroke="#000000" stroke-width="0.5" stroke-miterlimit="10" d="M54.786,141.87
		c1.115,4.396,2.516,8.679,4.234,12.773c2.141,5.104,5.845,14.555,12.508,15.018c4.769,0.331,5.611-5.198,6.465-8.646
		c0.824-3.334,2.771-5.392,6.143-6.146c4.673-1.043,7.816,3.002,12.359,4.034c2.949,0.672,6.019,0.739,8.966,0.246
		c6.885-1.157,11.11-8.604,17.62-2.312c3.885,3.754,8.231,8.5,13.305,10.602c2.579,1.068,5.256,1.144,6.913-1.459
		c1.591-2.495,1.672-5.647,1.63-8.513c-0.058-3.891,0.695-8.75,1.998-12.378c2.674-7.446,3.929-15.846,4.504-23.721
		c1.222-16.767-0.25-33.522-3.154-50.044c-1.505-8.563-3.482-17.058-5.783-25.439c-0.555-2.02-2.975-8.902-0.066-10.375
		c-4.739,2.403-9.953,3.896-15.229,4.475c-1.296,0.143-15.333,0.164-15.129-1.059c0.27-1.432,1.227-2.784,1.206-4.317
		c-1.435,1.544-5.624,3.067-7.677,2.932c1.264-1.503,2.228-3.389,2.508-5.375c-2.624,3.014-8.707,5.553-12.551,5.385
		c0.686-1.173,1.269-2.657,1.521-4.016c-5.424,3.198-12.277,5.663-18.628,5.685c-2.803,0.01-14.722,1.061-16.029-1.912
		c0.151,0.346,0.35,0.742,0.502,1.091c-0.822-0.632-1.952-0.864-2.844-1.175c4.762,1.653,0.606,15.091-0.363,18.25
		c-4.067,13.229-6.958,26.976-8.067,40.782C50.46,111.01,51.032,127.098,54.786,141.87z"/>
	<g>
		<path opacity="0.18" d="M147.381,82.14c0.073-2,0.128-4.005,0.208-6.003
			c0.113-2.777,0.362-5.525-0.168-8.284c0.664,3.456,1.378,6.96,2.128,10.412c0.611,2.812,0.79,5.66,1.09,8.525
			c0.343,3.274,0.545,6.623,0.611,9.908c0.086,4.183,0.579,8.302,0.819,12.475c0.246,4.233-0.331,8.855-0.829,13.058
			c-0.546,4.574-0.893,9.234-1.805,13.754c-0.818,4.062-2.701,7.816-3.611,11.854c-0.438,1.938-0.383,3.825-0.568,5.772
			c-0.212,2.229-0.712,4.427-0.896,6.665c-0.134,1.64,0.068,3.541-0.762,5.026c-1.798,3.218-5.448,2.788-8.354,1.542
			c-2.797-1.201-5.029-3.662-7.275-5.656c-3.188-2.828-6.325-7.771-11.275-6.801c-2.979,0.584-5.704,2.328-8.416,3.617
			c-3.709,1.766-9.368,1.634-13.246,0.438c-2.823-0.868-5.16-2.863-7.972-3.66c-3.291-0.934-6.588,0.887-8.338,3.671
			c-1.921,3.061-1.826,8.551-5.372,10.354c-3.146,1.604-6.577-1.01-8.459-3.363c-2.33-2.916-3.802-6.366-5.095-9.837
			c-2.354-6.325-4.634-12.449-5.903-19.126c-1.305-6.858-1.933-13.828-2.396-20.787c-1.267-18.926,1.884-38.612,7.962-56.583
			c0.031,20.902-3.604,39.719,5.528,59.74c7.519,16.484,22.671,26.424,41.118,23.583c11.358-1.75,24.698-6.073,30.906-16.32
			C144.555,113.662,146.864,96.355,147.381,82.14z"/>
		<path opacity="0.18" d="M141.911,133.851c2.506-3.501,4.016-7.805,5.428-11.782
			c1.854-5.215,3.502-10.406,4.422-15.884c-0.331,1.97,0.067,4.329,0.035,6.34c-0.036,2.454-0.131,4.907-0.284,7.356
			c-0.164,2.624-0.249,5.414-0.579,8.085c-0.333,2.692-1.275,5.19-1.815,7.837c-0.579,2.834-1.132,5.918-2.111,8.633
			c-1.163,3.219-2.007,6.115-2.014,9.59c-0.013,4.886,0.088,18.183-8.77,13.233c-3.493-1.951-6.521-4.646-9.43-7.349
			c-2.368-2.2-4.598-5.619-8.258-5.543c-3.968,0.079-6.904,2.989-10.479,4.219c-4.137,1.425-9.369,0.965-13.531-0.244
			c-1.483-0.43-2.575-1.749-3.885-2.498c-1.62-0.932-3.774-1.551-5.646-1.479c-1.689,0.065-3.493,1.032-4.599,2.283
			c-2.804,3.182-2.977,8.641-6.247,11.347c-4.461,3.691-8.915-2.087-11.04-5.573c-8.555-14.035-10.741-31.053-11.814-47.087
			c-0.549-8.187-0.871-17.116,1.199-25.134c0-0.096-0.001-0.099-0.008-0.011c-0.625,11.198,2.542,24.959,8.987,34.249
			c6.792,9.792,16.988,19.641,29.664,20.24c9.913,0.471,20.146,0.756,29.911-1.297c5.769-1.212,12.027-1.936,16.928-5.496
			C139.53,136.758,140.816,135.381,141.911,133.851z"/>
	</g>
	
		<ellipse transform="matrix(-0.008 -1 1 -0.008 -65.92 273.7397)" opacity="0.17" cx="102.825" cy="169.569" rx="3.988" ry="49.726"/>
	<g>
		<path d="M138.907,168.23c3.135-0.102,4.705-2.518,5.407-5.302c0.564-2.246,1.37-6.188,0.75-8.476
			c-0.418-1.535-1.628-2.277-2.979-1.164c-1.086,0.895-1.585,3.01-2.078,4.28c-1.062,2.726-2.889,3.14-5.551,2.634
			c-1.386-0.266-3.05-0.937-4.465-0.742c-3.952,0.538-0.049,3.527,1.229,4.766C133.118,166.068,136.104,168.323,138.907,168.23z"/>
		<path opacity="0.12" fill="#F5F5F5" d="M142.677,159.484c0.293-0.845,0.335-3.432,1.199-3.946
			c0.78-0.466,0.907,0.944,0.854,1.643c-0.058,0.775-1.697,11.387-3.826,8.988c-0.766-0.863,0.368-2.281,0.73-3.017
			C142.191,162.012,142.263,160.683,142.677,159.484z"/>
	</g>
	<g>
		<path d="M77.762,162.646c0.292-1.436,1.741-4.736,0.29-5.879c-1.431-1.125-3.26,0.462-3.967,1.683
			c-0.427,0.731-0.754,1.519-1.186,2.248c-1.238,2.096-3.398,1.771-5.411,1.143c-1.099-0.342-4.684-2.928-5.295-1.064
			c-0.372,1.125,2.048,3.699,2.714,4.505c1.546,1.86,2.756,3.946,5.339,4.425c4.125,0.763,6.325-2.725,7.288-6.112
			C77.623,163.278,77.697,162.965,77.762,162.646z"/>
		<path opacity="0.12" fill="#F5F5F5" d="M75.236,162.221c0.422-0.786,0.872-3.335,1.807-3.709
			c0.844-0.336,0.747,1.078,0.586,1.759c-0.182,0.755-3.474,10.977-5.196,8.272c-0.619-0.974,0.725-2.196,1.196-2.865
			C74.358,164.641,74.64,163.34,75.236,162.221z"/>
	</g>
	<g>
		<path d="M64.623,32.42c10.392-4.019,13.132,12.526,6.59,11.741c-0.992-0.119-4.06-2.636-4.635-2.332
			c-1.61,0.848-5.086,4.74-7.059,3.269c-3.436-2.579,0.49-9.182,2.699-11.196C62.936,33.25,63.753,32.757,64.623,32.42z"/>
		<path opacity="0.12" fill="#F5F5F5" d="M59.566,40.704c-0.081,1.887,0.327,3.929,2.785,3.137
			c0.823-0.264,2.191-0.866,2.688-1.637c0.6-0.934,0.098-1.456-0.595-2.117c-0.772-0.741-1.194-1.529-0.786-2.575
			c0.6-1.535,2.158-1.94,2.939-3.238c1.175-1.96-3.323-0.093-3.793,0.234C60.719,35.962,59.672,38.185,59.566,40.704z"/>
	</g>
	<g>
		<path d="M139.863,32.477c-10.244-4.128-13.75,11.626-7.146,11.052c1.001-0.086,4.193-2.409,4.756-2.104
			c1.58,0.854,4.891,4.674,6.938,3.319c3.565-2.373-0.074-8.798-2.199-10.783C141.521,33.315,140.723,32.823,139.863,32.477z"/>
		<path opacity="0.12" fill="#F5F5F5" d="M144.563,40.538c-0.007,1.808-0.509,3.75-2.938,2.926
			c-0.814-0.276-2.16-0.889-2.623-1.64c-0.558-0.908-0.029-1.396,0.693-2.011c0.811-0.686,1.27-1.429,0.906-2.441
			c-0.532-1.484-2.078-1.914-2.804-3.178c-1.091-1.906,3.34,0.002,3.797,0.327C143.621,35.971,144.572,38.125,144.563,40.538z"/>
	</g>
	<g>
		<path d="M105.512,101.394c22.355,1.759,36.037,18.535,33.725,40.196c-0.347,3.255-0.294,7.086-2.596,9.709
			c-2.093,2.382-5.504,3.179-8.562,2.447c-3.634-0.871-7.166-3.973-10.983-3.622c-0.007,0.001-0.012,0-0.017,0.001
			c-3.438,0.252-5.577,2.844-8.611,4.001c-3.279,1.251-6.89,1.256-10.282,0.454c-4.179-0.988-7.381-4.573-11.944-4.25
			c-2.889,0.207-4.858,1.864-7.375,2.977c-1.756,0.776-4.059,0.982-5.958,1.075c-10.154,0.494-9.59-13.386-9.095-20.038
			c0.376-5.042,1.568-10.304,4.045-14.785c7.23-13.077,22.96-19.315,37.646-18.165C105.507,101.394,105.508,101.394,105.512,101.394
			z"/>
		<path opacity="0.07" fill="#F5F5F5" d="M77.62,113.834c-3.335,2.514-6.074,5.662-7.941,9.372
			c-0.428,0.851-3.114,6.154-1.288,6.667c1.693,0.475,5.437-5.15,6.283-6.14c2.329-2.719,4.746-5.372,7.771-7.36
			c4.859-3.195,10.39-5.021,15.927-6.696c0.982-0.298,4.437-1.14,3.492-2.73c-0.91-1.531-4.121-1.253-5.605-1.122
			C89.212,106.436,83.136,109.68,77.62,113.834z"/>
	</g>
	<g>
		<path stroke="#FFFFFF" stroke-width="3" stroke-miterlimit="10" d="M92.536,105.764c3.318-1.061,6.896-3.509,8.542-6.593
			c0.972-1.818,2.876-6.281,1.063-8.023c-1.354-1.305-2.737-0.438-3.96,0.639c-0.595,0.524-1.115,1.099-1.861,1.31
			c-0.927,0.258-1.865,0.673-2.834,0.565c-2.729-0.302-4.894-2.159-7.28-3.428c-2.063-1.095-4.348-1.004-6.577-0.75
			c-0.954,0.109-1.961,0.055-2.916-0.028c-0.693-0.062-1.474-0.187-2.15-0.352c-0.867-0.211-1.814-0.622-2.562,0.211
			c-0.841,0.939-1.081,2.566-0.99,3.794c0.124,1.658,0.771,3.245,1.554,4.644c0.433,0.771,0.925,1.514,1.448,2.212
			c4.275,5.711,10.115,6.928,16.65,6.21C91.265,106.109,91.894,105.969,92.536,105.764z"/>
		<path opacity="0.12" fill="#F5F5F5" d="M97.563,100.924c0.615-0.621,1.176-1.295,1.61-1.935
			c1.129-1.666,0.557-2.301-1.13-1.068c-6.136,4.479-13.66,4.892-18.992-1.343c-0.957-1.119-3.751-6.224-5.837-4.212
			c-1.225,1.179,0.571,4.688,1.395,5.712c2.561,3.185,6.821,5.072,10.662,5.93c3.312,0.738,7.371,0.489,10.284-1.408
			C96.227,102.162,96.924,101.571,97.563,100.924z"/>
	</g>
	<g>
		<path stroke="#FFFFFF" stroke-width="3" stroke-miterlimit="10" d="M113.568,106.043c-3.371-1.06-7.021-3.507-8.729-6.588
			c-1.006-1.816-2.997-6.272-1.192-8.014c1.353-1.303,2.762-0.437,4.013,0.64c0.608,0.523,1.143,1.099,1.9,1.307
			c0.938,0.259,1.896,0.672,2.87,0.566c2.757-0.302,4.913-2.155,7.309-3.42c2.069-1.097,4.378-1.005,6.636-0.748
			c0.966,0.107,1.981,0.054,2.945-0.03c0.702-0.061,1.485-0.186,2.168-0.349c0.874-0.213,1.826-0.621,2.594,0.212
			c0.862,0.938,1.129,2.562,1.056,3.79c-0.101,1.655-0.732,3.24-1.503,4.638c-0.425,0.77-0.912,1.51-1.431,2.21
			c-4.24,5.701-10.12,6.918-16.736,6.199C114.857,106.389,114.22,106.248,113.568,106.043z"/>
		<path opacity="0.12" fill="#F5F5F5" d="M107.517,100.659c-0.585-0.657-1.112-1.365-1.514-2.03
			c-1.043-1.73-0.425-2.329,1.209-0.998c5.94,4.842,13.533,5.707,19.308-0.195c1.036-1.06,4.173-5.985,6.163-3.853
			c1.168,1.25-0.861,4.645-1.756,5.618c-2.783,3.023-7.211,4.651-11.151,5.275c-3.396,0.537-7.49,0.045-10.325-2.024
			C108.796,101.975,108.126,101.344,107.517,100.659z"/>
	</g>
	<g>
		<path d="M104.903,77.101c0.088-0.071,0.174-0.14,0.26-0.205c0.299-0.228,0.675-0.466,0.861-0.801
			c0.378-0.676-0.544-1.025-1.021-1.237c-0.804-0.355-1.728-0.455-2.598-0.389c-0.801,0.06-3.322,0.612-2.194,1.925
			c0.469,0.548,1.162,0.851,1.625,1.402c0.318,0.378,0.479,1.289,1.009,1.424c0.487,0.125,0.764-0.404,0.96-0.747
			C104.088,77.978,104.456,77.475,104.903,77.101z"/>
		<path fill="none" stroke="#000000" stroke-miterlimit="10" d="M97.662,77.277c0.204,2.257,0.677,4.114,1.781,5.697
			c2.924,4.193,8.475,1.234,8.764-5.974"/>
	</g>
	<g>
		<g>
			<path d="M86.071,49.89c-0.781-0.372-1.604-0.664-2.47-0.867c-17.54-4.12-23.01,20.294-16.88,32.046
				c3.604,6.908,12.775,7.563,19.653,5.205C100.436,81.454,98.438,55.767,86.071,49.89z"/>
			<path opacity="0.12" fill="#F5F5F5" d="M73.541,80.422c2.487,1.183,5.688,1.456,8.405,1.09
				c2.153-0.291,3.936-1.308,5.586-2.413c1.243-0.833,2.843-2.709,4.463-2.947c2.296-0.335,0.443,2.964-0.025,3.614
				c-1.328,1.843-3.079,3.712-5.354,4.82c-1.826,0.889-3.457,1.225-5.568,1.321c-3.622,0.164-6.977-0.541-9.771-2.54
				c-2.53-1.812-4.092-4.426-4.946-7.044c-0.779-2.392-1.526-6.083-0.604-8.489c0.962-2.511,1.623,0.616,1.735,1.493
				c0.18,1.413,0.494,2.82,1.009,4.183c0.806,2.123,1.551,4.56,3.677,6.096C72.579,79.914,73.047,80.187,73.541,80.422z"/>
		</g>
		<g>
			<path fill="#F5F5F5" d="M75.685,73.495c0.724-0.88,1.396-1.775,2.188-2.605c0.783-0.829,1.658-1.62,2.776-2.149
				c0.562-0.245,1.199-0.417,1.861-0.374c0.657,0.053,1.294,0.312,1.771,0.712c0.493,0.396,0.85,0.858,1.154,1.377
				c0.286,0.521,0.46,1.122,0.41,1.694c-0.331-1.088-1.167-1.878-2.013-2.434c-0.868-0.542-1.85-0.513-2.773-0.066
				c-0.935,0.418-1.795,1.116-2.658,1.809C77.537,72.155,76.684,72.923,75.685,73.495z"/>
		</g>
	</g>
	<g>
		<g>
			<path d="M121.125,50.215c0.806-0.333,1.646-0.584,2.521-0.748c4.334-0.802,10.888,1.258,13.834,4.686
				c6.088,7.083,5.775,20.597,1.151,28.262c-4.03,6.68-13.271,6.784-20.032,4.018C104.704,80.744,108.377,55.471,121.125,50.215z"/>
			<path opacity="0.12" fill="#F5F5F5" d="M131.829,81.359c-2.568,1.031-5.795,1.111-8.501,0.583
				c-2.144-0.419-3.868-1.541-5.458-2.742c-1.198-0.907-2.689-2.875-4.302-3.21c-2.283-0.473-0.624,2.932-0.192,3.608
				c1.223,1.919,2.868,3.89,5.086,5.132c1.778,0.997,3.394,1.431,5.508,1.653c3.623,0.382,7.03-0.12,9.953-1.948
				c2.648-1.657,4.371-4.171,5.388-6.735c0.926-2.34,1.896-5.979,1.113-8.438c-0.815-2.563-1.664,0.517-1.831,1.385
				c-0.266,1.399-0.663,2.787-1.264,4.115c-0.937,2.07-1.829,4.458-4.056,5.864C132.824,80.911,132.34,81.154,131.829,81.359z"/>
		</g>
		<g>
			<path fill="#F5F5F5" d="M129.804,73.291c-0.956-0.484-1.781-1.163-2.608-1.773c-0.828-0.605-1.649-1.221-2.523-1.571
				c-0.867-0.377-1.753-0.364-2.53,0.168c-0.759,0.546-1.5,1.304-1.776,2.323c-0.078-0.529,0.054-1.097,0.292-1.599
				c0.259-0.498,0.563-0.947,1.006-1.342c0.425-0.398,1.011-0.672,1.626-0.752c0.619-0.069,1.226,0.066,1.759,0.274
				c1.062,0.455,1.904,1.162,2.657,1.909C128.463,71.677,129.112,72.488,129.804,73.291z"/>
		</g>
	</g>
</g>
</svg>
