<svg xmlns="http://www.w3.org/2000/svg" viewBox="0 0 358 335"><path fill="#F96488" d="M221.154,55.208c0,0,16.917-24.381,18.807-43.786c1.893-18.809,25.379-9.952,13.137,4.976c-6.668,8.16-25.077,33.039-26.37,41.597"/><path d="M226.729,58.994c-0.05,0-0.1-0.003-0.15-0.011c-0.546-0.083-0.922-0.592-0.84-1.138c1.351-8.936,19.959-33.972,26.585-42.08c3.319-4.048,4.181-8.047,2.361-10.975c-1.449-2.334-4.414-3.512-7.197-2.866c-3.622,0.839-6.002,4.338-6.531,9.598c-1.893,19.437-18.283,43.251-18.98,44.256c-0.314,0.454-0.938,0.566-1.392,0.251c-0.453-0.315-0.566-0.938-0.251-1.392c0.167-0.242,16.79-24.395,18.633-43.312c0.611-6.078,3.628-10.319,8.069-11.349c3.606-0.835,7.454,0.708,9.35,3.759c1.088,1.75,3.02,6.551-2.514,13.297c-6.271,7.673-24.883,32.692-26.154,41.112C227.642,58.639,227.215,58.994,226.729,58.994z"/><path fill="#F96488" d="M258.373,142.78c0,0,7.266,24.082-18.012,27.766c0.598,7.262,4.576,14.029,4.576,14.029s18.91-4.477,25.875-24.778C282.158,126.36,258.373,142.78,258.373,142.78z"/><path d="M244.938,185.575c-0.349,0-0.68-0.184-0.862-0.494c-0.167-0.283-4.102-7.049-4.711-14.453c-0.043-0.527,0.33-0.996,0.853-1.072c7.221-1.053,12.363-3.915,15.286-8.51c4.919-7.733,1.944-17.875,1.913-17.977c-0.125-0.416,0.031-0.865,0.389-1.111c0.25-0.172,6.15-4.208,10.92-4.208c2.088,0,3.684,0.75,4.742,2.228c2.342,3.267,1.783,9.855-1.707,20.142c-7.062,20.588-26.397,25.383-26.592,25.43C245.091,185.565,245.014,185.575,244.938,185.575zM241.453,171.386c0.651,5.309,3.051,10.254,3.978,12.01c3.478-1.074,18.505-6.635,24.435-23.923c4.014-11.828,3.291-16.497,1.977-18.331c-0.672-0.937-1.691-1.393-3.117-1.393c-3.361,0-7.654,2.5-9.199,3.474c0.639,2.609,2.33,11.564-2.334,18.897C254.074,167.019,248.782,170.134,241.453,171.386z"/><path fill="#F96488" d="M287.232,179.3c0,0-45.976,21.795-37.02,70.357c0.199,1.193-4.777,11.443-2.686,21.994c29.156,0,44.084-4.777,49.754-14.332c3.584-16.518-12.238-24.58-0.1-51.049C309.225,179.7,287.232,179.3,287.232,179.3z"/><path d="M247.527,272.651c-0.478,0-0.888-0.338-0.98-0.807c-1.628-8.207,0.892-16.236,2.103-20.096c0.25-0.797,0.532-1.697,0.566-1.984c-4.666-25.447,5.799-43.5,15.405-54.166c10.389-11.535,21.705-16.977,22.182-17.203c0.141-0.064,0.268-0.092,0.447-0.096c0.348,0.006,8.537,0.227,12.502,6.502c3.191,5.051,2.633,12.412-1.658,21.881c-7.182,15.658-4.436,24.498-1.781,33.049c1.76,5.662,3.42,11.01,1.947,17.801c-0.023,0.105-0.062,0.205-0.117,0.299C292.059,268.079,276.449,272.651,247.527,272.651z M287.443,180.312c-3.398,1.717-44.642,23.646-36.247,69.164c0.087,0.521-0.084,1.105-0.639,2.873c-1.121,3.57-3.41,10.869-2.195,18.301c27.097-0.088,42.36-4.447,47.976-13.701c1.301-6.203-0.271-11.266-1.936-16.623c-2.637-8.496-5.627-18.123,1.871-34.473c3.99-8.805,4.596-15.525,1.795-19.971C295.027,181.054,288.727,180.396,287.443,180.312z"/><path d="M349.627,272.651h-30.65c-0.553,0-1-0.447-1-1s0.447-1,1-1h30.65c0.553,0,1,0.447,1,1S350.18,272.651,349.627,272.651z"/><path d="M297.98,315.938H267.43c-0.553,0-1-0.447-1-1s0.447-1,1-1h30.551c0.553,0,1,0.447,1,1S298.533,315.938,297.98,315.938z"/><path d="M135.274,334.249h-30.55c-0.552,0-1-0.447-1-1s0.448-1,1-1h30.55c0.552,0,1,0.447,1,1S135.826,334.249,135.274,334.249z"/><path fill="#F96488" d="M254.789,121.783c0,0,75.531,2.986,88.27,59.609c12.639,56.623-75.033,26.371-92.646-43.089C230.607,111.433,254.789,121.783,254.789,121.783z"/><path d="M325.453,211.991c-23.928,0-64.357-27.863-75.962-73.253c-6.522-8.877-8.949-14.666-7.42-17.692c0.512-1.014,1.726-2.223,4.598-2.223c3.353,0,7.452,1.604,8.344,1.97c2.017,0.105,20.171,1.244,39.491,8.627c27.117,10.362,44.246,28.258,49.531,51.751c2.396,10.74,1.418,18.922-2.908,24.32C337.719,209.743,332.299,211.991,325.453,211.991z M246.669,120.823c-1.489,0-2.436,0.378-2.812,1.125c-0.646,1.28-0.55,5.029,7.36,15.761c0.077,0.104,0.133,0.222,0.165,0.348c11.302,44.569,50.759,71.935,74.071,71.935c6.217,0,11.098-1.988,14.113-5.752c3.873-4.832,4.742-12.656,2.518-22.631c-6.484-28.815-29.84-43.27-48.293-50.321c-20.09-7.677-38.854-8.498-39.041-8.506c-0.122-0.004-0.242-0.032-0.354-0.08C254.352,122.684,249.959,120.823,246.669,120.823z"/><path fill="#F96488" d="M295.789,185.47c0,0-16.816,40.205,9.455,66.178c3.98,3.98-4.479,14.729,1.689,19.904c37.121,0,51.75-21.197,48.764-33.34c-11.443-11.941-23.783-21.891-13.234-36.918"/><path d="M306.934,272.552c-0.234,0-0.463-0.084-0.643-0.234c-3.865-3.244-2.732-8.188-1.734-12.549c0.709-3.094,1.377-6.018-0.02-7.414c-26.441-26.141-9.842-66.861-9.67-67.27c0.213-0.512,0.801-0.752,1.309-0.537c0.51,0.213,0.75,0.799,0.537,1.309c-0.166,0.395-16.244,39.893,9.234,65.08c2.184,2.184,1.395,5.629,0.559,9.277c-0.885,3.865-1.799,7.857,0.809,10.336c19.07-0.078,34.656-6.068,42.803-16.461c3.955-5.049,5.689-10.775,4.668-15.381c-0.996-1.037-1.998-2.061-2.99-3.072c-10.387-10.594-20.199-20.602-10.15-34.916c0.316-0.453,0.941-0.562,1.393-0.244c0.453,0.316,0.562,0.939,0.244,1.393c-9.092,12.953-0.271,21.951,9.943,32.369c1.059,1.08,2.131,2.174,3.193,3.283c0.123,0.127,0.207,0.283,0.25,0.453c1.289,5.242-0.57,11.727-4.979,17.35C343.109,266.272,326.795,272.552,306.934,272.552z"/><path fill="#F96488" d="M248.621,143.576c-10.846-6.07-22.391-21.097-29.855-40.503c-11.145-28.659-0.895-54.832,16.818-57.817c15.822-2.687,27.365,3.085,28.662,36.124c0.795,21.097,0,36.521,12.238,43.687"/><path d="M248.62,144.576c-0.165,0-0.333-0.041-0.487-0.127c-11.415-6.389-23.025-22.105-30.301-41.017c-6.524-16.779-6.274-34.099,0.67-46.328c4.043-7.119,10.051-11.677,16.916-12.834c8.336-1.415,14.38-0.324,19.012,3.434c6.6,5.355,10.137,16.358,10.814,33.637c0.078,2.032,0.139,4.011,0.199,5.935c0.559,17.841,0.961,30.731,11.547,36.928c0.477,0.279,0.637,0.892,0.357,1.368s-0.895,0.637-1.367,0.357c-11.541-6.755-11.957-20.109-12.535-38.591c-0.061-1.919-0.123-3.894-0.199-5.92c-0.654-16.668-3.949-27.188-10.077-32.16c-4.152-3.37-9.684-4.327-17.418-3.015c-6.262,1.056-11.77,5.264-15.51,11.85c-6.65,11.711-6.854,28.392-0.544,44.619c7.116,18.499,18.386,33.822,29.412,39.993c0.482,0.27,0.654,0.879,0.385,1.361C249.311,144.392,248.971,144.576,248.62,144.576z"/><path fill="#F96488" d="M280.168,152.034c0,0,17.213,8.459-11.246,31.049c4.578,5.672,8.26,11.844,8.26,11.844s28.859-15.326,22.988-35.926"/><path d="M277.182,195.927c-0.342,0-0.672-0.176-0.859-0.488c-0.037-0.061-3.699-6.18-8.18-11.729c-0.166-0.207-0.244-0.473-0.215-0.738c0.029-0.264,0.164-0.506,0.371-0.672c14.002-11.113,16.418-18.461,15.98-22.669c-0.48-4.614-4.389-6.617-4.555-6.7c-0.492-0.246-0.695-0.846-0.451-1.339c0.244-0.493,0.84-0.699,1.336-0.454c0.205,0.101,5.041,2.54,5.654,8.251c0.721,6.699-4.641,14.72-15.939,23.851c3.314,4.209,6.1,8.561,7.205,10.342c4.59-2.678,26.713-16.646,21.678-34.306c-0.15-0.531,0.156-1.084,0.688-1.236c0.533-0.149,1.084,0.156,1.236,0.688c2.508,8.795-0.795,18.018-9.551,26.672c-6.51,6.436-13.631,10.25-13.93,10.41C277.502,195.888,277.34,195.927,277.182,195.927z"/><ellipse transform="matrix(-0.3023 -0.9532 0.9532 -0.3023 180.4936 378.6493)" fill="#A266F7" cx="228.821" cy="123.27" rx="45.776" ry="31.05"/><path d="M236.096,168.911c-15.31,0-31.217-15.121-37.822-35.953c-3.757-11.844-4.155-23.986-1.123-34.19c3.073-10.342,9.299-17.475,17.529-20.085c2.206-0.7,4.517-1.054,6.866-1.054c15.31,0,31.217,15.121,37.825,35.954c3.756,11.844,4.154,23.986,1.121,34.19c-3.072,10.342-9.299,17.474-17.531,20.084C240.756,168.556,238.446,168.911,236.096,168.911z M221.546,79.628c-2.145,0-4.251,0.323-6.261,0.96c-7.579,2.404-13.339,9.062-16.218,18.749c-2.919,9.824-2.524,21.55,1.112,33.016c6.35,20.023,21.454,34.558,35.916,34.558c2.145,0,4.251-0.324,6.261-0.961c7.58-2.404,13.34-9.062,16.22-18.748c2.92-9.824,2.525-21.549-1.111-33.016C251.112,94.162,236.007,79.628,221.546,79.628z"/><ellipse transform="matrix(-0.3023 -0.9532 0.9532 -0.3023 171.7354 375.6298)" fill="#A266F7" cx="223.336" cy="124.965" rx="45.775" ry="31.047"/><path d="M230.609,170.606c-15.31,0-31.216-15.121-37.82-35.953c-3.757-11.843-4.156-23.985-1.123-34.189c3.073-10.342,9.299-17.475,17.529-20.085c2.206-0.7,4.516-1.054,6.865-1.054c15.311,0,31.218,15.121,37.823,35.953c3.757,11.844,4.155,23.986,1.123,34.19c-3.074,10.341-9.299,17.475-17.529,20.084C235.271,170.251,232.96,170.606,230.609,170.606zM216.061,81.324c-2.145,0-4.251,0.323-6.26,0.96c-7.579,2.404-13.339,9.062-16.218,18.749c-2.92,9.825-2.524,21.549,1.112,33.015c6.349,20.024,21.452,34.558,35.914,34.558c2.146,0,4.253-0.324,6.263-0.961c7.579-2.404,13.339-9.062,16.218-18.748c2.92-9.824,2.524-21.549-1.112-33.016C245.628,95.858,230.522,81.324,216.061,81.324z"/><ellipse transform="matrix(-0.3022 -0.9532 0.9532 -0.3022 171.6651 375.6288)" fill="#9FCBFF" cx="223.318" cy="124.982" rx="32.241" ry="21.893"/><path d="M228.432,157.427c-10.918,0-22.246-10.735-26.935-25.526c-2.662-8.399-2.94-17.014-0.783-24.258c2.199-7.382,6.659-12.478,12.56-14.347c1.584-0.502,3.244-0.757,4.933-0.757c10.918,0,22.246,10.735,26.935,25.526c2.663,8.397,2.941,17.012,0.782,24.257c-2.199,7.382-6.659,12.478-12.559,14.349C231.779,157.172,230.119,157.427,228.432,157.427zM218.206,94.538c-1.483,0-2.939,0.223-4.329,0.664c-5.248,1.664-9.242,6.285-11.246,13.012c-2.044,6.864-1.771,15.062,0.772,23.083c4.433,13.982,14.959,24.131,25.028,24.131c1.482,0,2.938-0.223,4.328-0.664c5.248-1.665,9.242-6.286,11.247-13.013c2.045-6.865,1.771-15.062-0.772-23.082C238.802,104.687,228.275,94.538,218.206,94.538z"/><ellipse transform="matrix(-0.3023 -0.9532 0.9532 -0.3023 174.5755 376.7112)" fill="#FFFFFF" cx="225.149" cy="124.468" rx="29.456" ry="20.001"/><path d="M229.821,154.195c-10.174,0-20.327-9.613-24.69-23.378c-5.077-16.008-0.228-31.879,10.811-35.379c1.457-0.462,2.983-0.696,4.535-0.696c10.174,0,20.327,9.613,24.691,23.377c2.438,7.689,2.693,15.578,0.718,22.213c-2.017,6.773-6.11,11.449-11.529,13.167C232.899,153.96,231.373,154.195,229.821,154.195z M220.477,96.741c-1.347,0-2.669,0.203-3.93,0.603c-9.987,3.167-14.253,17.912-9.51,32.869c4.038,12.738,13.62,21.982,22.784,21.982c1.347,0,2.669-0.203,3.931-0.603c4.768-1.511,8.396-5.713,10.217-11.831c1.862-6.255,1.611-13.727-0.707-21.038C239.224,105.986,229.641,96.741,220.477,96.741z"/><ellipse transform="matrix(-0.3023 -0.9532 0.9532 -0.3023 169.2517 377.1537)" cx="222.651" cy="126.636" rx="20.599" ry="14.029"/><rect x="238.969" y="167.454" transform="matrix(-0.9532 0.3023 -0.3023 -0.9532 528.4988 277.7814)" fill="#A266F7" width="7.565" height="24.678"/><path d="M242.877,193.698c-0.159,0-0.316-0.037-0.46-0.111c-0.235-0.123-0.413-0.334-0.493-0.586l-7.461-23.523c-0.167-0.525,0.124-1.088,0.65-1.256l7.211-2.287c0.254-0.079,0.528-0.056,0.763,0.066c0.235,0.121,0.413,0.332,0.493,0.584l7.459,23.523c0.167,0.527-0.124,1.09-0.65,1.256l-7.209,2.287C243.081,193.683,242.979,193.698,242.877,193.698z M236.672,169.825l6.855,21.617l5.303-1.682l-6.854-21.617L236.672,169.825z"/><ellipse transform="matrix(-0.3149 -0.9491 0.9491 -0.3149 142.6514 452.0052)" fill="#F96488" cx="234.467" cy="174.516" rx="2.886" ry="5.87"/><path d="M232.109,178.821c-2.193,0-3.71-0.781-4.162-2.141c-0.698-2.104,1.579-4.621,5.296-5.854c1.217-0.404,2.456-0.617,3.584-0.617c2.192,0,3.709,0.779,4.16,2.141c0.369,1.111-0.069,2.357-1.236,3.506c-0.987,0.973-2.43,1.807-4.06,2.348C234.476,178.606,233.237,178.821,232.109,178.821z M236.827,172.21c-0.917,0-1.938,0.178-2.953,0.516c-2.779,0.922-4.265,2.611-4.028,3.324c0.123,0.371,0.884,0.771,2.264,0.771c0.916,0,1.938-0.18,2.951-0.516c1.326-0.441,2.524-1.123,3.287-1.875c0.56-0.551,0.851-1.121,0.741-1.449C238.966,172.608,238.205,172.21,236.827,172.21z"/><path fill="#F96488" d="M246.032,172.634c-2.188-2.986-7.464-4.479-7.165-6.07c0.4-1.592,3.186-2.189,6.369-1.492c2.191,0.496,4.28,2.387,4.977,3.482"/><path d="M246.033,173.634c-0.308,0-0.611-0.141-0.808-0.408c-0.958-1.309-2.653-2.338-4.148-3.248c-1.94-1.178-3.473-2.109-3.192-3.6c0.557-2.223,3.66-3.138,7.565-2.284c2.511,0.569,4.789,2.638,5.606,3.925c0.297,0.465,0.159,1.084-0.308,1.379c-0.466,0.295-1.084,0.16-1.38-0.307c-0.624-0.982-2.534-2.633-4.354-3.045c-2.874-0.629-4.779-0.044-5.133,0.643c0.26,0.381,1.438,1.098,2.234,1.58c1.572,0.957,3.529,2.146,4.723,3.775c0.326,0.445,0.229,1.07-0.216,1.396C246.445,173.571,246.238,173.634,246.033,173.634z"/><ellipse transform="matrix(-0.315 -0.9491 0.9491 -0.315 141.131 462.2538)" fill="#F96488" cx="237.378" cy="180.197" rx="2.886" ry="5.869"/><path d="M235.017,184.505c-2.193,0-3.71-0.781-4.161-2.143c-0.697-2.102,1.58-4.617,5.298-5.854c1.217-0.402,2.456-0.617,3.584-0.617c2.192,0,3.709,0.781,4.16,2.143c0.37,1.111-0.069,2.355-1.235,3.504c-0.987,0.973-2.429,1.805-4.06,2.348C237.386,184.29,236.146,184.505,235.017,184.505z M239.737,177.892c-0.917,0-1.938,0.178-2.953,0.516c-2.78,0.924-4.267,2.613-4.03,3.326c0.123,0.371,0.884,0.771,2.263,0.771c0.917,0,1.939-0.18,2.955-0.518c1.327-0.441,2.525-1.123,3.287-1.875c0.56-0.551,0.851-1.119,0.74-1.449C241.876,178.292,241.115,177.892,239.737,177.892z"/><ellipse transform="matrix(-0.315 -0.9491 0.9491 -0.315 137.7318 471.3746)" fill="#F96488" cx="238.97" cy="185.984" rx="2.886" ry="5.871"/><path d="M236.606,190.29c-2.191,0-3.708-0.779-4.159-2.141c-0.698-2.102,1.58-4.619,5.298-5.854c1.217-0.404,2.456-0.617,3.584-0.617c2.193,0,3.709,0.779,4.161,2.139c0.225,0.674,0.147,1.422-0.222,2.16c-0.746,1.488-2.69,2.904-5.074,3.695C238.977,190.077,237.736,190.29,236.606,190.29z M241.329,183.679c-0.917,0-1.938,0.178-2.953,0.516c-2.78,0.922-4.267,2.613-4.03,3.324c0.123,0.373,0.883,0.771,2.261,0.771c0.918,0,1.94-0.178,2.957-0.516c2.127-0.707,3.5-1.861,3.917-2.693c0.088-0.176,0.18-0.43,0.111-0.631C243.469,184.077,242.708,183.679,241.329,183.679z"/><path fill="#F96488" d="M275.986,176.813c-7.164,6.27-7.762,5.373-9.254,5.771c-7.363,2.09-4.877,6.27-4.877,6.27s-7.961,4.977-3.383,8.758c-0.795,2.289,1.592,7.166,8.26,3.383c7.266,5.871,19.105-12.041,22.588-14.828"/><path d="M262.336,203.388c-1.584,0-2.646-0.6-3.271-1.119c-1.4-1.166-1.879-2.947-1.693-4.311c-1.166-1.182-1.365-2.402-1.309-3.258c0.184-2.779,3.154-5.217,4.57-6.227c-0.197-0.689-0.32-1.711,0.119-2.818c0.719-1.805,2.639-3.162,5.707-4.033c0.293-0.078,0.543-0.115,0.801-0.152c1.006-0.145,2.258-0.324,8.068-5.408c0.414-0.365,1.045-0.322,1.412,0.094c0.363,0.416,0.32,1.047-0.096,1.412c-6.258,5.475-7.768,5.691-9.102,5.883c-0.182,0.025-0.357,0.049-0.553,0.102c-2.371,0.672-3.889,1.648-4.369,2.82c-0.426,1.031,0.078,1.943,0.1,1.98c0.264,0.465,0.119,1.066-0.334,1.35c-1.158,0.727-4.193,3.064-4.328,5.131c-0.047,0.727,0.297,1.385,1.051,2.008c0.322,0.266,0.445,0.705,0.309,1.1c-0.262,0.752,0.018,2.035,0.928,2.793c1.262,1.049,3.354,0.832,5.895-0.609c0.355-0.201,0.801-0.166,1.121,0.094c4.859,3.926,12.883-5.359,17.676-10.906c1.561-1.807,2.795-3.232,3.658-3.926c0.434-0.348,1.061-0.275,1.406,0.156c0.346,0.43,0.275,1.061-0.156,1.404c-0.721,0.578-1.961,2.012-3.395,3.672c-5.117,5.922-13.584,15.721-19.896,11.557C264.916,203.069,263.488,203.388,262.336,203.388z"/><path fill="#F96488" d="M269.221,190.446c-2.986,3.283-10.748,9.156-11.543,5.873"/><path d="M258.914,198.278c-0.225,0-0.438-0.023-0.635-0.074c-0.807-0.207-1.365-0.793-1.574-1.65c-0.129-0.535,0.199-1.076,0.736-1.207c0.537-0.133,1.078,0.199,1.207,0.736c0.039,0.16,0.072,0.17,0.125,0.184c1.537,0.395,6.938-3.447,9.707-6.492c0.371-0.408,1.006-0.438,1.412-0.068c0.408,0.373,0.439,1.004,0.068,1.414C267.916,193.366,262.133,198.278,258.914,198.278z"/><path fill="#F96488" d="M273.898,195.72c-2.986,3.285-9.951,7.764-12.938,6.469"/><path d="M262.215,203.417c-0.602,0-1.158-0.098-1.652-0.312c-0.506-0.219-0.738-0.809-0.52-1.314c0.219-0.508,0.807-0.742,1.316-0.52c2.223,0.965,8.639-2.748,11.799-6.225c0.371-0.408,1.006-0.436,1.412-0.066c0.408,0.371,0.439,1.004,0.068,1.412C272.105,199.179,266.188,203.417,262.215,203.417z"/><ellipse fill="#FFFFFF" cx="54.669" cy="275.033" rx="26.172" ry="5.673"/><path d="M54.669,281.706c-9.398,0-27.172-1.395-27.172-6.672c0-5.279,17.774-6.674,27.172-6.674c9.398,0,27.172,1.395,27.172,6.674C81.841,280.312,64.067,281.706,54.669,281.706z M54.669,270.36c-16.288,0-25.172,3.088-25.172,4.674s8.885,4.672,25.172,4.672c16.287,0,25.172-3.086,25.172-4.672S70.956,270.36,54.669,270.36z"/><ellipse fill="#FFFFFF" cx="22.327" cy="297.921" rx="21.395" ry="4.578"/><path d="M22.327,303.499c-5.783,0-11.23-0.484-15.338-1.363c-4.749-1.016-7.058-2.395-7.058-4.213c0-1.82,2.309-3.199,7.057-4.217c4.108-0.879,9.556-1.363,15.338-1.363s11.23,0.484,15.338,1.363c4.749,1.018,7.057,2.396,7.057,4.217c0,1.818-2.309,3.197-7.057,4.213C33.557,303.015,28.11,303.499,22.327,303.499z M22.327,294.343c-13.457,0-20.396,2.51-20.396,3.58c0.029,1.068,7.004,3.576,20.396,3.576c13.395,0,20.367-2.508,20.395-3.576C42.722,296.853,35.783,294.343,22.327,294.343z"/><ellipse fill="#FFFFFF" cx="334.303" cy="291.653" rx="21.395" ry="4.578"/><path d="M334.303,297.231c-5.783,0-11.23-0.484-15.338-1.363c-4.748-1.018-7.057-2.396-7.057-4.217c0-1.818,2.309-3.197,7.057-4.213c4.107-0.879,9.555-1.363,15.338-1.363s11.23,0.484,15.338,1.363c4.748,1.016,7.057,2.395,7.057,4.213c0,1.82-2.309,3.199-7.057,4.217C345.533,296.747,340.086,297.231,334.303,297.231z M334.303,288.075c-13.455,0-20.395,2.508-20.395,3.576c0,1.07,6.939,3.58,20.395,3.58s20.395-2.51,20.395-3.58C354.697,290.583,347.758,288.075,334.303,288.075z"/><path d="M261.857,189.854c-0.307,0-0.609-0.139-0.805-0.404c-0.328-0.443-0.236-1.07,0.207-1.398l3.086-2.289c0.441-0.326,1.07-0.236,1.4,0.209c0.328,0.443,0.234,1.07-0.209,1.398l-3.086,2.289C262.273,189.79,262.064,189.854,261.857,189.854z"/><path fill="#FFE269" d="M132.189,290.259c-0.796,4.08-5.872,7.564-5.872,7.564h16.42c0,0,6.867-11.443,2.886-18.211"/><path d="M142.738,298.823h-16.42c-0.438,0-0.825-0.285-0.955-0.703s0.027-0.873,0.388-1.121c0.047-0.033,4.75-3.309,5.457-6.932c0.106-0.541,0.63-0.896,1.173-0.789c0.542,0.105,0.896,0.631,0.79,1.172c-0.501,2.572-2.464,4.869-4.066,6.373h13.05c1.203-2.193,5.8-11.277,2.607-16.705c-0.28-0.475-0.121-1.088,0.355-1.369c0.477-0.279,1.089-0.121,1.369,0.355c4.234,7.197-2.597,18.744-2.89,19.232C143.415,298.638,143.089,298.823,142.738,298.823z"/><path fill="#FFE269" d="M214.887,228.163c-24.58-5.971-42.593-7.463-46.573,15.725c-3.982,33.832,6.368,39.307,16.717,42.293c10.349,3.084,0,11.543,0,11.543h16.42C201.451,297.823,257.479,238.612,214.887,228.163z"/><path d="M201.508,298.726c-0.028,0-0.058,0-0.087-0.002h-16.39c-0.423,0-0.799-0.266-0.941-0.664s-0.019-0.842,0.308-1.109c1.331-1.092,4.678-4.459,4.185-6.908c-0.25-1.242-1.541-2.219-3.836-2.904c-11.021-3.18-21.453-9.148-17.425-43.367c2.387-13.916,9.888-20.373,23.614-20.373c7.551,0,16.465,1.918,24.188,3.795c12.704,3.115,18.226,10.711,16.414,22.574c-1.672,10.945-9.567,23.598-15.896,32.285c-3.587,4.924-7.04,9.096-9.306,11.73C202.382,298.378,201.969,298.726,201.508,298.726zM187.528,296.724h13.496c3.113-3.34,33.441-36.746,28.25-55.797c-1.59-5.834-6.511-9.801-14.626-11.791c-7.606-1.85-16.374-3.738-23.714-3.738c-12.748,0-19.42,5.754-21.635,18.658c-4.158,35.344,7.979,38.846,16.009,41.164c3.07,0.914,4.829,2.404,5.235,4.432C191.068,292.269,189.128,294.991,187.528,296.724z"/><path fill="#FFE269" d="M211.8,228.56c7.763,9.754-3.383,28.264-25.675,45.877c-22.29,17.713-46.671,24.082-54.333,14.328c-7.763-9.752,4.08-31.941,26.37-49.654C180.355,221.396,204.037,218.808,211.8,228.56z"/><path d="M143.54,294.333c-5.656,0-9.991-1.713-12.535-4.951c-4.01-5.037-3.365-13.182,1.819-22.93c5.041-9.477,13.819-19.467,24.716-28.125c12.855-10.26,27.631-16.387,39.525-16.387c6.929,0,12.439,2.129,15.517,5.996c2.154,2.707,3.017,6.068,2.563,9.992c-1.199,10.387-11.551,23.979-28.4,37.291C171.911,287.009,155.355,294.333,143.54,294.333zM197.065,223.94c-11.456,0-25.766,5.963-38.279,15.951c-10.688,8.494-19.281,18.26-24.196,27.5c-4.787,9-5.502,16.369-2.016,20.75c2.155,2.744,5.946,4.191,10.966,4.191c11.385,0,27.464-7.158,41.963-18.68c16.196-12.797,26.533-26.236,27.655-35.955c0.391-3.375-0.33-6.242-2.141-8.516C208.327,225.802,203.372,223.94,197.065,223.94z"/><path fill="#FFE269" d="M179.06,279.612c20.1-10.252,30.75-1.393,35.528,3.383c6.768,6.867,6.367,14.828,6.367,14.828h16.42c0,0,23.783-65.48-18.907-75.83c-16.122-3.883-39.01,2.488-52.146,11.344"/><path d="M237.375,298.823h-16.42c-0.274,0-0.536-0.113-0.725-0.311c-0.188-0.199-0.288-0.467-0.274-0.74c0.004-0.074,0.274-7.627-6.08-14.076c-3.392-3.391-13.726-13.719-34.362-3.193c-0.494,0.25-1.094,0.055-1.345-0.438c-0.251-0.492-0.056-1.094,0.436-1.344c14.757-7.527,26.759-6.361,36.689,3.566c5.616,5.697,6.518,12.062,6.646,14.535h14.722c1.727-5.111,12.359-38.66,1.405-59.078c-4.081-7.605-10.755-12.578-19.836-14.781c-16.026-3.857-38.691,2.666-51.351,11.201c-0.458,0.309-1.08,0.189-1.388-0.27s-0.188-1.08,0.27-1.389c13.019-8.775,36.376-15.469,52.939-11.486c9.661,2.342,16.77,7.652,21.131,15.783c6.418,11.969,5.654,28.037,3.883,39.41c-1.908,12.254-5.366,21.855-5.401,21.951C238.171,298.56,237.796,298.823,237.375,298.823z"/><path fill="#FFE269" d="M149.405,290.259c-0.796,4.08-2.189,7.564-2.189,7.564h16.42c0,0,3.185-11.443-0.796-18.211"/><path d="M163.636,298.823h-16.42c-0.332,0-0.642-0.166-0.828-0.439c-0.187-0.275-0.224-0.625-0.101-0.932c0.014-0.035,1.37-3.453,2.137-7.385c0.106-0.541,0.629-0.896,1.173-0.789c0.542,0.105,0.896,0.631,0.79,1.172c-0.509,2.611-1.25,4.963-1.739,6.373h14.205c0.596-2.574,2.284-11.334-0.875-16.705c-0.28-0.475-0.121-1.088,0.355-1.369c0.477-0.279,1.09-0.121,1.369,0.355c4.149,7.053,1.033,18.502,0.898,18.986C164.479,298.524,164.085,298.823,163.636,298.823z"/><path fill="#FFE269" d="M132.09,271.651l-38.91,26.072l-5.771,1.293c0,0,0.198,4.676,3.482,5.475c3.384,0.795,21.594,1.789,41.099-17.119"/><path d="M94.813,305.774c-2.598,0-4.098-0.297-4.15-0.311c-3.977-0.967-4.243-6.184-4.252-6.406c-0.021-0.482,0.308-0.912,0.78-1.018l5.588-1.252l38.754-25.969c0.458-0.307,1.08-0.186,1.387,0.275c0.308,0.459,0.185,1.08-0.274,1.387l-38.91,26.072c-0.103,0.068-0.217,0.119-0.338,0.145l-4.888,1.096c0.21,1.188,0.831,3.291,2.616,3.725c0.176,0.041,18.924,3.729,40.167-16.865c0.397-0.385,1.031-0.375,1.414,0.021c0.385,0.396,0.375,1.031-0.021,1.414C116.655,303.632,101.783,305.774,94.813,305.774z"/><path fill="#F96488" d="M109.102,275.929c0,0-7.164,10.846-19.006,19.504c-11.842,8.66,17.912,8.461,36.522-15.125C145.227,256.823,114.775,273.343,109.102,275.929z"/><path d="M91.507,301.671C91.506,301.671,91.506,301.671,91.507,301.671c-3.558,0-4.687-1.172-5.008-2.154c-0.471-1.443,0.54-3.088,3.006-4.893c11.563-8.453,18.691-19.141,18.762-19.246c0.104-0.158,0.249-0.281,0.42-0.359c0.574-0.262,1.404-0.668,2.413-1.16c6.913-3.379,14.648-6.982,18.944-6.982c2.041,0,2.889,0.867,3.241,1.596c0.703,1.455,0.67,4.186-5.884,12.457C115.478,296.04,99.058,301.671,91.507,301.671z M109.775,276.72c-1.151,1.688-8.066,11.461-19.089,19.52c-2.088,1.527-2.357,2.436-2.285,2.656c0.065,0.201,0.777,0.775,3.106,0.775c7.175,0,22.838-5.424,34.326-19.982c6.14-7.748,5.878-9.877,5.652-10.346c-0.197-0.406-0.987-0.467-1.44-0.467c-4.193,0-13.563,4.578-18.066,6.779C111.092,276.087,110.34,276.454,109.775,276.72z"/><path fill="#FFFFFF" d="M70.989,282.099c0.398-2.785,1.99-4.977,3.582-4.777c1.593,0.199,2.588,2.689,2.289,5.475c-0.398,2.785-2.189,6.27-3.781,6.07C71.387,288.667,70.591,284.888,70.989,282.099z"/><path d="M73.21,289.874c-0.086,0-0.171-0.006-0.256-0.016c-0.445-0.053-1.11-0.279-1.708-1.057c-1.232-1.6-1.56-4.654-1.247-6.844c0.491-3.445,2.51-5.908,4.695-5.629c2.174,0.271,3.533,3.098,3.16,6.572C77.434,285.845,75.591,289.874,73.21,289.874zM74.443,278.313c-0.841,0-2.116,1.494-2.464,3.928c-0.281,1.969,0.101,4.365,0.852,5.34c0.133,0.174,0.266,0.279,0.364,0.291l0.016,0.002c0.63,0,2.259-2.416,2.66-5.221c0.246-2.297-0.562-4.232-1.423-4.34C74.445,278.313,74.444,278.313,74.443,278.313z"/><path fill="#FFFFFF" d="M76.562,282.298c0.1-2.885,1.393-5.176,3.085-5.076c1.592,0,2.885,2.391,2.885,5.275c-0.099,2.885-1.492,6.469-3.084,6.469C77.755,288.866,76.562,285.183,76.562,282.298z"/><path d="M79.447,289.966c-0.02,0-0.039-0.002-0.059-0.002c-2.611-0.154-3.827-4.666-3.827-7.666c0.122-3.537,1.795-6.078,3.979-6.078l0.165,0.004c0.001,0,0.001,0,0.002,0c2.119,0,3.824,2.756,3.824,6.273C83.424,285.647,81.945,289.966,79.447,289.966z M79.541,278.22c-0.888,0-1.895,1.652-1.98,4.111c0,2.961,1.249,5.518,1.915,5.633c0.622-0.078,1.958-2.646,2.057-5.502c0-2.574-1.117-4.24-1.885-4.24L79.541,278.22z"/><path fill="#FFFFFF" d="M82.532,282.597c-0.199-2.885,0.996-5.275,2.688-5.275c1.592-0.1,3.084,2.191,3.185,4.977c0.199,2.885-0.995,6.568-2.588,6.668C84.224,289.065,82.731,285.481,82.532,282.597z"/><path d="M85.751,289.968c-2.422,0-4.005-4.242-4.217-7.303c-0.15-2.178,0.405-4.168,1.485-5.326c0.622-0.666,1.383-1.018,2.2-1.018c0.001,0,0.002,0,0.004,0c2.232,0,4.062,2.664,4.18,5.939c0.171,2.477-0.598,5.396-1.792,6.758c-0.641,0.73-1.296,0.918-1.733,0.945C85.857,289.964,85.771,289.968,85.751,289.968z M85.318,278.317c-0.352,0.004-0.6,0.133-0.837,0.387c-0.688,0.736-1.061,2.236-0.952,3.824c0.202,2.922,1.614,5.439,2.222,5.439v1l0.002-1c0.044-0.004,0.174-0.062,0.354-0.268c0.838-0.955,1.433-3.398,1.299-5.334C87.318,279.919,86.091,278.317,85.318,278.317z"/><path fill="#FFFFFF" d="M88.503,282.298c-0.298-2.885,0.796-5.275,2.388-5.471c1.593-0.201,3.185,1.988,3.483,4.775c0.299,2.885-0.597,6.668-2.188,6.766C90.593,288.667,88.802,285.083,88.503,282.298z"/><path d="M91.997,289.386c-2.317,0-4.175-4.066-4.487-6.982c-0.359-3.473,1.042-6.295,3.259-6.568c0.107-0.014,0.217-0.021,0.327-0.021c2.089,0,3.926,2.443,4.273,5.682c0.234,2.26-0.205,5.469-1.48,6.975c-0.56,0.66-1.157,0.854-1.579,0.893C92.206,289.378,92.101,289.386,91.997,289.386z M91.095,277.813c-0.893,0.105-1.862,1.818-1.597,4.381c0.293,2.734,1.875,5.191,2.499,5.191h0.004c0.041-0.008,0.082-0.012,0.123-0.016c0.021,0,0.107-0.039,0.238-0.193c0.765-0.904,1.231-3.408,1.018-5.471C93.121,279.296,91.875,277.813,91.095,277.813z"/><path fill="#FFFFFF" d="M93.777,281.104c-0.298-2.785,0.796-5.275,2.388-5.475s3.184,1.99,3.484,4.777c0.297,2.887-0.598,6.668-2.19,6.766C95.767,287.474,94.076,283.989,93.777,281.104z"/><path d="M97.253,288.19c-2.445,0-4.167-4.057-4.47-6.984c-0.365-3.408,1.066-6.295,3.259-6.568c2.189-0.271,4.235,2.254,4.602,5.664c0.233,2.262-0.208,5.471-1.483,6.975c-0.562,0.66-1.16,0.852-1.582,0.891C97.47,288.183,97.361,288.19,97.253,288.19zM96.368,276.618c-0.878,0.104-1.867,1.857-1.597,4.379c0.294,2.844,1.825,5.193,2.481,5.193l0.032-0.002c0.038-0.008,0.076-0.012,0.114-0.014c0.016-0.002,0.104-0.037,0.237-0.193c0.765-0.9,1.231-3.406,1.019-5.471C98.396,278.101,97.148,276.618,96.368,276.618z"/><path fill="#FFFFFF" d="M98.554,280.011c-0.298-2.889,0.796-5.275,2.389-5.475c1.592-0.199,3.185,1.99,3.483,4.777c0.298,2.885-0.598,6.666-2.19,6.766C100.644,286.38,98.853,282.796,98.554,280.011z"/><path d="M102.045,287.097c-2.315,0-4.173-4.064-4.486-6.98c-0.359-3.471,1.042-6.295,3.259-6.572c2.212-0.277,4.237,2.254,4.602,5.662c0.234,2.258-0.206,5.467-1.481,6.973c-0.56,0.66-1.157,0.854-1.578,0.893C102.256,287.089,102.151,287.097,102.045,287.097z M101.145,275.522c-0.89,0.107-1.861,1.822-1.596,4.385c0.293,2.732,1.875,5.189,2.497,5.189h0.005c0.041-0.008,0.082-0.014,0.123-0.016c0.021-0.002,0.108-0.041,0.239-0.195c0.765-0.904,1.231-3.408,1.019-5.471C103.173,277.005,101.925,275.522,101.145,275.522z"/><path fill="#FFE269" d="M147.018,256.724c0.098-2.389,0.098-4.777-0.199-7.166c-1.991-20.199-12.539-20.598-18.51-17.314c-11.345,6.469-15.524,34.332-15.524,34.332s-25.076,5.572-38.511-1.592c-5.473-2.391-3.383-7.266-9.752-10.051c-6.37-2.785-12.439-1.992-16.42,7.463c-3.981,9.553-1.791,12.439,2.389,14.826c2.786,1.594,50.054,18.111,82-6.867"/><path d="M88.106,285.001c-19.366,0.002-35.636-5.494-38.114-6.91c-4.868-2.781-6.889-6.305-2.815-16.08c1.923-4.57,4.492-7.521,7.635-8.777c2.885-1.15,6.285-0.891,10.108,0.783c3.632,1.588,4.789,3.85,5.81,5.844c0.878,1.717,1.636,3.199,3.942,4.207c11.827,6.305,33.206,2.471,37.232,1.668c0.743-4.475,5.155-28.23,15.908-34.361c3.701-2.033,7.878-2.205,11.183-0.463c3.363,1.771,7.623,6.428,8.817,18.549c0.261,2.092,0.325,4.354,0.203,7.305c-0.022,0.551-0.47,1.002-1.04,0.957c-0.552-0.021-0.981-0.488-0.958-1.039c0.117-2.838,0.057-4.996-0.192-7.002c-0.879-8.918-3.562-14.787-7.762-17c-3.908-2.059-7.787-0.379-9.274,0.438c-10.785,6.15-14.977,33.332-15.018,33.605c-0.061,0.408-0.368,0.738-0.772,0.828c-1.039,0.23-25.593,5.57-39.199-1.686c-2.89-1.26-3.887-3.209-4.852-5.094c-0.953-1.863-1.853-3.621-4.831-4.924c-3.361-1.471-6.163-1.717-8.564-0.758c-2.628,1.049-4.826,3.639-6.533,7.693c-3.882,9.314-1.523,11.578,1.963,13.57c4.25,2.432,50.225,17.188,80.888-6.787c0.434-0.34,1.063-0.264,1.403,0.172s0.264,1.062-0.172,1.404C119.474,281.8,102.888,285.001,88.106,285.001z"/><path fill="#FFFFFF" d="M131.294,254.733c-1.492,5.174-4.578,8.857-6.965,8.16c-2.389-0.697-3.186-5.475-1.693-10.646c1.493-5.176,4.578-8.859,6.967-8.16C131.99,244.681,132.788,249.458,131.294,254.733z"/><path fill="#231F20" d="M124.927,263.978c-0.3,0-0.595-0.041-0.879-0.125c-3.001-0.875-4.043-6.096-2.374-11.883c1.523-5.281,4.537-8.969,7.327-8.969c0.301,0,0.597,0.043,0.881,0.125c0.845,0.209,1.6,0.822,2.144,1.76c1.282,2.211,1.37,6.09,0.229,10.119C130.732,260.29,127.719,263.978,124.927,263.978z M129.002,245.001c-1.556,0-4.065,2.877-5.405,7.523c-1.388,4.811-0.611,8.936,1.012,9.408c1.547,0.453,4.289-2.498,5.724-7.477c1.118-3.945,0.788-7.146-0.036-8.566c-0.27-0.465-0.584-0.746-0.936-0.832C129.218,245.017,129.114,245.001,129.002,245.001z"/><path fill="#FFFFFF" d="M92.788,298.079c0.036-0.254,0.083-0.5,0.135-0.742c-0.222-1.305-0.774-2.232-1.36-2.305c-0.001,0-0.003,0-0.004,0c-0.841,0-2.116,1.494-2.463,3.926c-0.024,0.18-0.035,0.359-0.049,0.539c0.86,0.309,2.101,0.434,3.631,0.352C92.671,299.229,92.709,298.626,92.788,298.079z"/><path d="M91.559,295.032c0.001,0,0.003,0,0.004,0c0.586,0.072,1.138,1,1.36,2.305c0.23-1.064,0.609-2.01,1.092-2.781c-0.444-0.678-1.016-1.16-1.687-1.385c-0.631,0.494-1.274,0.984-1.935,1.469c-3.3,2.412-3.367,4.135-1.348,4.857c0.014-0.18,0.025-0.359,0.049-0.539C89.443,296.526,90.718,295.032,91.559,295.032z"/><path fill="#FFFFFF" d="M98.662,298.728c-0.003-0.336,0.008-0.664,0.032-0.98c-0.048-1.818-0.73-3.221-1.458-3.312c-0.001,0-0.003,0-0.004,0c-0.842,0-2.117,1.496-2.464,3.928c-0.059,0.414-0.083,0.85-0.086,1.285c1.212-0.174,2.545-0.451,3.972-0.842c0.001-0.01,0.005-0.02,0.006-0.031C98.662,298.759,98.661,298.743,98.662,298.728z"/><path d="M98.66,298.774c-0.001,0.012-0.005,0.021-0.006,0.031c0.002,0,0.005,0,0.008-0.002c0-0.025,0.001-0.049,0.001-0.076C98.661,298.743,98.662,298.759,98.66,298.774z"/><path d="M97.231,294.435c0.001,0,0.003,0,0.004,0c0.728,0.092,1.41,1.494,1.458,3.312c0.017-0.227,0.034-0.453,0.064-0.664c0.166-1.158,0.506-2.199,0.966-3.068c-0.558-0.879-1.325-1.449-2.24-1.564c-1.312-0.168-2.568,0.666-3.469,2.105c-0.483,0.771-0.862,1.717-1.092,2.781c-0.052,0.242-0.099,0.488-0.135,0.742c-0.078,0.547-0.116,1.15-0.11,1.77c0.622-0.031,1.292-0.1,2.004-0.201c0.003-0.436,0.027-0.871,0.086-1.285C95.114,295.931,96.39,294.435,97.231,294.435z"/><path fill="#FFFFFF" d="M103.207,293.44c-0.001,0-0.003,0-0.004,0c-0.842,0-2.117,1.494-2.465,3.926c-0.038,0.268-0.059,0.549-0.071,0.836c1.28-0.42,2.618-0.924,3.995-1.514C104.599,294.901,103.926,293.53,103.207,293.44z"/><path d="M105.751,293.103c-0.562-0.928-1.352-1.529-2.296-1.646c-1.448-0.186-2.824,0.842-3.731,2.559c-0.459,0.869-0.8,1.91-0.966,3.068c-0.03,0.211-0.047,0.438-0.064,0.664c-0.023,0.316-0.035,0.645-0.032,0.98c0,0.027-0.001,0.051-0.001,0.076c0.65-0.178,1.319-0.377,2.005-0.602c0.012-0.287,0.033-0.568,0.071-0.836c0.348-2.432,1.623-3.926,2.465-3.926c0.001,0,0.003,0,0.004,0c0.72,0.09,1.393,1.461,1.455,3.248c0.038-0.016,0.075-0.031,0.112-0.047c0.017-0.188,0.031-0.377,0.056-0.553C104.989,294.968,105.313,293.954,105.751,293.103z"/><path fill="#FFFFFF" d="M109.278,292.446c-0.001,0-0.003,0-0.004,0c-0.753,0-1.849,1.201-2.321,3.195c1.135-0.553,2.29-1.166,3.454-1.838C110.128,293.015,109.71,292.499,109.278,292.446z"/><path d="M109.525,290.462c-1.47-0.188-2.868,0.873-3.774,2.641c-0.438,0.852-0.762,1.865-0.922,2.986c-0.025,0.176-0.039,0.365-0.056,0.553c0.717-0.311,1.444-0.643,2.18-1c0.472-1.994,1.567-3.195,2.321-3.195c0.001,0,0.003,0,0.004,0c0.432,0.053,0.85,0.568,1.129,1.357c0.579-0.334,1.16-0.684,1.743-1.047C111.591,291.466,110.674,290.604,109.525,290.462z"/><path fill="#231F20" d="M127.911,253.739c-0.597,2.088-1.593,3.68-2.189,3.482c-0.696-0.199-0.796-1.99-0.2-4.182c0.598-2.09,1.592-3.682,2.19-3.482C128.408,249.757,128.507,251.647,127.911,253.739z"/><path fill="#231F20" d="M109.201,268.171c-0.498,0-0.929-0.371-0.991-0.877c-0.067-0.549,0.322-1.047,0.87-1.115c7.696-0.949,10.389-2.271,10.416-2.285c0.493-0.244,1.094-0.053,1.343,0.436c0.25,0.49,0.061,1.09-0.428,1.342c-0.116,0.061-2.94,1.488-11.085,2.492C109.283,268.169,109.242,268.171,109.201,268.171z"/><rect x="138.453" y="197.863" transform="matrix(0.9794 0.2021 -0.2021 0.9794 46.2493 -23.7577)" fill="#231F20" width="2" height="33.432"/><path fill="#231F20" d="M143.037,199.21c-2.363,0-4.285-1.922-4.285-4.283c0-2.363,1.922-4.285,4.285-4.285c2.362,0,4.283,1.922,4.283,4.285C147.32,197.288,145.398,199.21,143.037,199.21z M143.037,192.642c-1.26,0-2.285,1.025-2.285,2.285c0,1.258,1.025,2.283,2.285,2.283c1.259,0,2.283-1.025,2.283-2.283C145.32,193.667,144.295,192.642,143.037,192.642z"/><path fill="#231F20" d="M145.382,212.144c-1.558,0-3.353-0.197-5.192-0.566c-0.959-0.195-9.351-1.986-8.702-5.211c0.269-1.328,1.899-2,4.847-2c1.559,0,3.354,0.195,5.192,0.566c2.328,0.471,4.477,1.17,6.05,1.971c1.988,1.014,2.879,2.104,2.649,3.24C149.96,211.47,148.33,212.144,145.382,212.144z M133.529,206.782c0.504,0.664,3.001,2.016,7.056,2.834c1.711,0.344,3.37,0.527,4.797,0.527c1.668,0,2.499-0.256,2.805-0.418c-0.503-0.662-3-2.014-7.055-2.832c-1.71-0.346-3.369-0.527-4.797-0.527C134.667,206.366,133.836,206.62,133.529,206.782z"/><path fill="#231F20" d="M144.987,222.892c-1.974,0-4.231-0.248-6.528-0.715c-3.995-0.812-9.146-2.531-10.515-4.701c-0.417-0.662-0.397-1.234-0.307-1.596c0.346-1.85,3.393-2.248,5.886-2.248c1.974,0,4.231,0.246,6.528,0.713c4.294,0.889,11.403,3.201,10.836,6.238C150.529,222.491,147.481,222.892,144.987,222.892z M133.522,215.632c-2.824,0-3.824,0.539-3.952,0.729c0.167,0.68,3.49,2.678,9.287,3.857c2.168,0.441,4.288,0.674,6.13,0.674c2.627,0,3.676-0.467,3.913-0.686c-0.315-0.791-3.611-2.734-9.251-3.902C137.484,215.864,135.365,215.632,133.522,215.632z"/><path fill="#A266F7" d="M151.994,244.583c0,0,12.836,12.736,17.215,40.998c5.772-2.387,8.758-5.174,8.758-5.174s-2.786-25.674-18.809-42.094C151.994,243.786,151.994,244.583,151.994,244.583z"/><path d="M169.208,286.581c-0.169,0-0.339-0.043-0.49-0.129c-0.268-0.15-0.451-0.416-0.498-0.719c-4.278-27.615-16.805-40.314-16.931-40.439c-0.189-0.188-0.296-0.443-0.296-0.711c0-0.451,0-1.291,7.557-7.064c0.403-0.307,0.97-0.264,1.323,0.096c16.078,16.477,19.059,42.426,19.087,42.686c0.034,0.312-0.082,0.625-0.312,0.84c-0.127,0.117-3.185,2.938-9.058,5.365C169.468,286.556,169.338,286.581,169.208,286.581z M153.295,244.509c2.589,2.875,12.658,15.365,16.696,39.643c3.705-1.674,6.047-3.441,6.915-4.152c-0.498-3.639-4.011-25.635-17.851-40.348C155.396,242.478,153.898,243.872,153.295,244.509z"/><ellipse fill="#F96488" cx="58.549" cy="263.589" rx="3.582" ry="4.279"/><path d="M58.549,268.868c-2.526,0-4.582-2.367-4.582-5.277c0-2.912,2.056-5.281,4.582-5.281s4.582,2.369,4.582,5.281C63.131,266.501,61.076,268.868,58.549,268.868z M58.549,260.31c-1.424,0-2.582,1.473-2.582,3.281c0,1.807,1.158,3.277,2.582,3.277s2.582-1.471,2.582-3.277C61.131,261.782,59.973,260.31,58.549,260.31z"/><path d="M186.358,269.661c-11.926,0-24.082-8.428-35.285-24.506c-0.316-0.453-0.205-1.076,0.249-1.393c0.454-0.312,1.077-0.203,1.392,0.25c11.406,16.369,23.693,24.518,35.499,23.574c11.937-0.955,23.506-11.312,31.741-28.414c17.001-35.301,37.13-48.939,42.894-52.277c0.477-0.277,1.09-0.113,1.365,0.363c0.277,0.479,0.115,1.09-0.363,1.367c-5.639,3.266-25.34,16.627-42.093,51.414c-8.553,17.76-20.721,28.527-33.384,29.541C187.702,269.634,187.031,269.661,186.358,269.661z"/><path fill="#F96488" d="M244.64,57.397c0,0,16.917-24.381,18.808-43.787c1.893-18.808,25.377-9.951,13.137,4.975c-6.668,8.16-25.078,33.04-26.371,41.598"/><path d="M250.214,61.184c-0.05,0-0.1-0.003-0.15-0.011c-0.546-0.083-0.922-0.592-0.84-1.138c1.351-8.936,19.96-33.972,26.587-42.081c3.318-4.047,4.178-8.047,2.359-10.974c-1.449-2.334-4.414-3.514-7.197-2.865c-3.621,0.839-6,4.337-6.529,9.597c-1.895,19.438-18.285,43.252-18.982,44.257c-0.315,0.453-0.937,0.566-1.392,0.251c-0.453-0.315-0.566-0.938-0.251-1.392c0.167-0.242,16.791-24.395,18.635-43.314c0.611-6.077,3.627-10.318,8.068-11.348c3.609-0.835,7.453,0.709,9.348,3.758c1.088,1.75,3.02,6.551-2.512,13.296c-6.27,7.673-24.884,32.693-26.155,41.113C251.127,60.829,250.7,61.184,250.214,61.184z"/></svg>