<svg xmlns="http://www.w3.org/2000/svg" viewBox="0 0 291 344"><path fill="#DBD6B9" d="M204.516,78.029c0,0,2.542-15.072-9.261-15.707c-11.803-0.637-4.902-5.63-1.543-6.538c4.631-1.18,20.791-2.814,21.971,20.791"/><path fill="#231F20" d="M204.517,79.029c-0.055,0-0.11-0.005-0.166-0.015c-0.545-0.091-0.912-0.606-0.821-1.15c0.013-0.074,1.199-7.466-2.166-11.663c-1.417-1.768-3.49-2.736-6.162-2.88c-3.114-0.169-7.285-0.688-7.556-3.254c-0.264-2.497,3.717-4.684,5.806-5.249c2.062-0.526,9.214-1.885,15.19,2.523c4.879,3.6,7.584,10.055,8.04,19.184c0.027,0.552-0.397,1.021-0.949,1.049c-0.548,0.02-1.021-0.397-1.049-0.949c-0.425-8.501-2.857-14.447-7.229-17.674c-5.406-3.988-12.189-2.528-13.495-2.198c-2.09,0.565-4.403,2.361-4.324,3.104c0.001,0.012,0.273,1.175,5.674,1.466c3.268,0.176,5.832,1.398,7.62,3.633c3.925,4.902,2.63,12.901,2.573,13.239C205.419,78.684,204.996,79.029,204.517,79.029z"/><path fill="#DBD6B9" d="M178.73,145.579c17.613,18.795,35.5,6.174,41.493-6.899c6.082-13.438,4.267-32.868-10.441-33.321c-15.436-4.812-5.175-30.688,8.897-34.048c14.073-3.269-1.545,19.883-1.545,19.883s7.81,0.546,12.531,11.713c26.511,62.193-39.313,88.16-59.288,60.469"/><path fill="#231F20" d="M193.954,175.43c-9.916,0.001-18.957-3.941-24.387-11.47c-0.323-0.448-0.223-1.073,0.226-1.396c0.448-0.323,1.074-0.222,1.396,0.226c8.543,11.843,26.79,14.107,42.443,5.271c16.646-9.397,29.358-31.345,15.114-64.762c-4.399-10.406-11.391-11.085-11.687-11.108c-0.354-0.028-0.669-0.243-0.823-0.563s-0.129-0.698,0.069-0.993c3.664-5.433,8.765-15.084,6.858-17.854c-0.729-1.057-2.719-0.852-4.258-0.495c-8.704,2.078-15.532,13.033-15.817,21.438c-0.106,3.121,0.649,8.633,6.865,10.642c4.918,0.191,8.857,2.443,11.398,6.519c4.281,6.866,4.191,18.467-0.218,28.209c-3.073,6.703-10.228,15.107-20.283,16.746c-5.488,0.897-13.915-0.04-22.851-9.575c-0.378-0.402-0.357-1.035,0.046-1.413c0.402-0.377,1.036-0.356,1.413,0.046c6.597,7.039,13.883,10.137,21.07,8.969c9.279-1.513,15.918-9.35,18.784-15.602c4.082-9.019,4.227-20.091,0.341-26.322c-2.226-3.57-5.558-5.448-9.904-5.582c-0.09-0.003-0.18-0.019-0.267-0.045c-5.549-1.73-8.608-6.344-8.395-12.658c0.31-9.125,7.799-21.035,17.357-23.317c3.126-0.726,5.268-0.286,6.364,1.308c1.488,2.163,0.76,6.135-2.228,12.141c-1.381,2.774-2.903,5.286-3.812,6.72c2.671,0.758,8.146,3.335,11.814,12.011c14.761,34.629,1.429,57.463-15.972,67.286C207.903,173.592,200.725,175.43,193.954,175.43z"/><path fill="#A266F7" d="M208.875,84.838l56.835,12.711c0,0,10.623-47.484,10.713-47.938c0.729-3.358-11.348-8.897-27.055-12.348c-15.708-3.541-29.054-3.631-29.779-0.272C219.496,37.263,208.875,84.838,208.875,84.838z"/><path d="M265.711,98.549c-0.072,0-0.146-0.008-0.219-0.024l-56.835-12.711c-0.539-0.12-0.879-0.654-0.758-1.193c6.757-30.269,10.358-46.347,10.715-47.84l-0.003,0c0.472-2.182,3.687-3.243,9.828-3.243c5.771,0,13.282,0.977,21.148,2.75c11.795,2.591,28.94,8.335,27.812,13.535c-0.088,0.443-10.28,46.006-10.715,47.945C266.582,98.232,266.169,98.549,265.711,98.549zM210.068,84.08l54.884,12.274c1.514-6.764,10.36-46.312,10.49-46.942c0.393-1.807-8.295-7.22-26.289-11.173c-7.731-1.743-15.086-2.702-20.714-2.702c-5.943,0-7.749,1.089-7.873,1.665c-0.008,0.038-0.019,0.075-0.031,0.112C220.365,37.988,213.738,67.645,210.068,84.08z"/><path fill="#F96488" d="M241.47,72.49c15.707,3.542,27.781,8.989,27.055,12.348c1.452-6.627,2.544-11.439,2.544-11.621c0.727-3.359-11.35-8.897-27.057-12.349c-15.707-3.539-29.055-3.631-29.781-0.271c0,0.182-1.088,4.994-2.54,11.622C212.507,68.769,225.761,68.95,241.47,72.49z"/><path d="M268.525,85.838c-0.07,0-0.142-0.007-0.214-0.022c-0.539-0.118-0.881-0.649-0.765-1.189c0.377-1.74-8.323-7.107-26.297-11.16c-7.827-1.764-15.204-2.735-20.771-2.735c-5.848,0-7.664,1.08-7.815,1.719c-0.126,0.533-0.659,0.872-1.194,0.744c-0.536-0.121-0.873-0.652-0.755-1.188c0.536-2.447,1.022-4.647,1.423-6.459c0.583-2.637,1.046-4.729,1.099-5.047c0.004-0.038,0.01-0.076,0.018-0.113c0.472-2.182,3.687-3.242,9.828-3.242c5.771,0,13.283,0.977,21.15,2.749c11.751,2.582,28.815,8.294,27.826,13.479c-0.04,0.28-0.225,1.127-1.072,4.953c-0.412,1.859-0.921,4.155-1.483,6.724c0,0.001,0,0.001,0,0.001s-0.001,0.001-0.001,0.002C269.398,85.52,268.985,85.838,268.525,85.838z M220.479,68.73c5.711,0,13.243,0.988,21.211,2.784c8.181,1.845,22.039,5.958,26.464,10.355c0.324-1.471,0.621-2.811,0.879-3.978c0.553-2.49,0.99-4.466,1.041-4.774c0.004-0.038,0.01-0.075,0.018-0.112c0.388-1.794-8.301-7.208-26.294-11.161c-7.732-1.742-15.088-2.701-20.716-2.701c-5.848,0-7.689,1.055-7.866,1.637c-0.049,0.316-0.256,1.266-1.125,5.198c-0.24,1.084-0.511,2.309-0.805,3.643C214.913,69.024,217.302,68.73,220.479,68.73z"/><path fill="#A266F7" d="M235.049,101.593c-23.588-5.259-41.667-14.204-40.38-19.979c1.287-5.773,21.455-6.192,45.044-0.934c23.589,5.26,41.669,14.204,40.38,19.98C278.808,106.435,258.64,106.853,235.049,101.593z"/><path d="M264.409,106.279c-8.341,0-18.845-1.317-29.578-3.711c-21.178-4.721-42.793-13.746-41.138-21.173c0.995-4.465,9.61-5.401,16.663-5.401c8.34,0,18.843,1.317,29.574,3.71c11.485,2.561,22.049,6.068,29.745,9.876c5.716,2.828,12.333,7.084,11.393,11.298C280.075,105.343,271.461,106.279,264.409,106.279z M210.356,77.994c-10.216,0-14.298,1.981-14.712,3.837c-0.999,4.484,15.027,13.303,39.622,18.786c10.595,2.361,20.944,3.662,29.143,3.662c10.214,0,14.295-1.981,14.707-3.836c0.386-1.725-2.126-5.013-10.327-9.071c-7.557-3.738-17.96-7.189-29.294-9.717C228.903,79.294,218.555,77.994,210.356,77.994z"/><ellipse transform="matrix(-0.2176 0.976 -0.976 -0.2176 377.9968 -120.713)" cx="237.378" cy="91.139" rx="7.172" ry="29.142"/><path d="M255.313,101.586c-5.569,0-12.57-0.878-19.714-2.471c-7.674-1.71-14.735-4.06-19.883-6.614c-5.69-2.824-8.301-5.489-7.758-7.922c0.715-3.212,6.64-3.886,11.484-3.886c5.569,0,12.57,0.877,19.714,2.47c14.62,3.259,28.81,9.299,27.643,14.536C266.084,100.911,260.158,101.586,255.313,101.586z M219.443,82.693c-6.228,0-9.275,1.166-9.533,2.321c-0.219,0.985,1.402,3.067,6.696,5.695c5.007,2.484,11.907,4.777,19.429,6.454c7.004,1.562,13.851,2.422,19.278,2.422c6.229,0,9.277-1.167,9.535-2.322c0.561-2.516-9.108-8.355-26.127-12.149C231.717,83.553,224.87,82.693,219.443,82.693z"/><path fill="#DBD6B9" d="M213.05,95.733c22.064-4.63,22.698,30.507,22.698,30.507"/><path fill="#231F20" d="M235.748,127.24c-0.544,0-0.989-0.436-1-0.981c-0.004-0.197-0.472-19.769-9.742-27.155c-3.203-2.552-7.157-3.354-11.751-2.392c-0.539,0.114-1.07-0.232-1.184-0.773c-0.113-0.54,0.232-1.07,0.773-1.184c5.208-1.095,9.72-0.155,13.41,2.787c10.006,7.976,10.478,27.839,10.493,28.681c0.01,0.552-0.43,1.007-0.981,1.018C235.76,127.24,235.754,127.24,235.748,127.24z"/><path fill="#DBD6B9" d="M115.176,184.076c12.074,3.903,19.156-3.723,20.701-3.36l1.18,25.059c-34.865-11.893-40.222,14.527-40.222,14.527s-7.264-2.271-16.615-5.176C84.215,191.885,93.476,176.994,115.176,184.076z"/><path fill="#231F20" d="M97.592,221.585l-1.056-0.329c0,0-7.263-2.27-16.613-5.175l-0.837-0.26l0.148-0.864c3.893-22.646,12.368-33.654,25.91-33.654c3.155,0,6.635,0.613,10.341,1.823c2.188,0.706,4.366,1.065,6.475,1.065c5.161,0,8.938-2.129,11.194-3.401c1.414-0.797,2.213-1.216,2.951-1.048l0.734,0.173l1.284,27.28l-1.391-0.475c-5.881-2.006-11.282-3.022-16.055-3.022c-19.186,0-22.723,16.117-22.864,16.804L97.592,221.585z M81.357,214.432c6.925,2.152,12.584,3.919,14.786,4.606c1.207-3.925,6.645-17.34,24.535-17.34c4.61,0,9.755,0.897,15.311,2.671l-1.049-22.284c-0.261,0.142-0.545,0.302-0.804,0.447c-2.428,1.368-6.49,3.659-12.177,3.659c-2.317,0-4.703-0.392-7.092-1.164c-3.509-1.145-6.779-1.725-9.724-1.725C92.731,183.303,85.16,193.201,81.357,214.432z"/><path fill="#DBD6B9" d="M177.005,184.803c-12.075,3.902-19.158-3.724-20.7-3.36l-1.18,25.059c34.863-11.894,40.312,11.532,40.312,11.532s7.174,0.727,16.525-2.181C207.874,192.611,198.614,177.721,177.005,184.803z"/><path fill="#231F20" d="M197.642,219.114L197.642,219.114c-1.442,0-2.271-0.083-2.306-0.086l-0.712-0.072l-0.161-0.696c-0.137-0.575-3.554-14.127-21.581-14.127c-5.121,0-10.987,1.115-17.434,3.314l-1.392,0.475l1.284-27.28l0.734-0.173c0.738-0.168,1.537,0.251,2.95,1.047c2.257,1.272,6.034,3.402,11.195,3.401c2.108,0,4.288-0.358,6.477-1.065c3.688-1.209,7.154-1.822,10.3-1.822c13.479,0,21.967,11.007,25.95,33.65l0.152,0.866l-0.841,0.262C205.804,218.814,200.33,219.114,197.642,219.114z M196.193,217.081c0.354,0.018,0.843,0.033,1.448,0.033c2.457,0,7.347-0.263,13.179-1.962c-3.889-21.229-11.471-31.123-23.823-31.123c-2.934,0-6.19,0.58-9.681,1.724c-2.392,0.773-4.778,1.164-7.096,1.164c-5.687,0.001-9.75-2.29-12.178-3.659c-0.257-0.145-0.54-0.305-0.802-0.445l-1.049,22.281c6.113-1.965,11.723-2.961,16.689-2.961C190.068,202.133,195.16,213.995,196.193,217.081z"/><path fill="#DBD6B9" d="M194.438,201.146c-13.527,4.084-16.434-7.538-17.069-9.987c-3.178-25.695,31.052-84.711-4.175-85.438c-35.229-0.636-53.934,66.189-57.201,85.438c0,0-3.541,14.071-17.069,9.987c-18.703-5.63-38.133,16.887-35.046,40.311c9.806,0,17.433,0,17.433,0s0.998-19.793,15.253-20.973c8.626-0.726,91.702-0.726,100.327,0c14.345,1.18,15.252,20.973,15.252,20.973s7.628,0,17.435,0C232.662,218.124,213.143,195.607,194.438,201.146z"/><path fill="#231F20" d="M230.452,242.457h-19.265l-0.045-0.954c-0.002-0.048-0.249-4.882-2.195-9.767c-2.53-6.351-6.615-9.801-12.14-10.255c-4.441-0.374-28.354-0.541-50.081-0.541c-21.729,0-45.641,0.167-50.08,0.54c-13.211,1.094-14.329,19.838-14.339,20.027l-0.049,0.948L63,242.457l-0.114-0.869c-1.5-11.38,2.136-23.34,9.725-31.994c5.836-6.655,13.082-10.321,20.402-10.321c2.093,0,4.178,0.309,6.198,0.916c1.542,0.466,3.018,0.702,4.387,0.701c8.812-0.001,11.399-9.875,11.425-9.975c1.48-8.743,6.871-30.581,16.554-50.106c11.709-23.611,25.928-36.093,41.118-36.093l0.517,0.005c6.206,0.128,10.767,2.067,13.557,5.762c6.954,9.21,2.036,27.952-2.72,46.077c-3.317,12.641-6.746,25.71-5.695,34.412c2.244,8.569,7.633,11.681,15.796,9.218c1.999-0.592,4.057-0.892,6.123-0.892c7.271,0,14.768,3.797,20.569,10.416c7.586,8.655,11.222,20.57,9.727,31.874L230.452,242.457z M213.066,240.457h15.623c1.127-10.48-2.335-21.418-9.353-29.425c-5.422-6.187-12.371-9.734-19.065-9.734c-1.874,0-3.741,0.271-5.55,0.808c-1.983,0.599-3.866,0.903-5.593,0.903c-4.436,0-10.241-2.003-12.715-11.544l-0.038-0.183c-1.124-9.084,2.209-21.784,5.737-35.229c4.635-17.664,9.428-35.93,3.058-44.365c-2.436-3.226-6.36-4.851-11.998-4.967l-0.479-0.005c-34.333,0-52.683,66.738-55.717,84.61c-0.045,0.192-3.027,11.562-13.38,11.563c-1.565,0.001-3.235-0.264-4.964-0.786c-1.832-0.552-3.724-0.831-5.621-0.831c-6.736,0-13.448,3.424-18.899,9.641c-7.021,8.007-10.483,18.99-9.349,29.544h15.624c0.175-1.715,0.712-5.5,2.272-9.414c2.808-7.044,7.586-11.039,13.818-11.556c4.497-0.378,28.477-0.547,50.247-0.547c21.77,0,45.749,0.169,50.247,0.548c6.269,0.515,11.059,4.512,13.851,11.557C212.375,234.956,212.898,238.739,213.066,240.457z"/><path fill="#DBD6B9" d="M123.619,212.131c-22.789-0.363-27.238,16.706-24.151,40.039c9.806,0,17.432,0,17.432,0s-2.542-25.148,30.78-25.784c33.322,0.545,30.778,25.784,30.778,25.784s7.627,0,17.433,0c3.088-23.333-1.362-40.402-24.149-40.039"/><path fill="#231F20" d="M196.767,253.17h-19.411l0.107-1.099c0.009-0.088,0.79-8.883-5.437-15.862c-5.061-5.673-13.258-8.642-24.363-8.823c-11.106,0.212-19.32,3.212-24.378,8.915c-6.198,6.989-5.399,15.682-5.391,15.769l0.111,1.101H98.592l-0.115-0.869c-2.158-16.309-0.344-27.452,5.546-34.065c4.322-4.853,10.905-7.25,19.612-7.104l-0.032,2c-8.175-0.134-14.114,1.975-18.086,6.435c-5.379,6.039-7.071,16.383-5.169,31.604h15.505c-0.036-2.732,0.441-10,5.937-16.195c5.443-6.139,14.148-9.365,25.872-9.589c11.737,0.191,20.434,3.394,25.88,9.517c5.524,6.21,6.001,13.524,5.964,16.268h15.506c1.903-15.222,0.21-25.565-5.168-31.604c-3.973-4.461-9.899-6.576-18.086-6.435l-0.031-2c8.69-0.129,15.289,2.252,19.61,7.104c5.891,6.613,7.704,17.757,5.546,34.065L196.767,253.17z"/><path fill="#FC9DCD" d="M140.144,154.205c-1.726,4.449,1.906,10.077,8.172,12.437c6.173,2.363,12.62,0.637,14.346-3.812c1.724-4.449,0.271-15.98-5.901-18.341C150.585,142.13,141.868,149.757,140.144,154.205z"/><path d="M153.889,168.701C153.889,168.701,153.889,168.701,153.889,168.701c-1.957,0-4.007-0.389-5.931-1.126c-3.853-1.45-7.003-4.215-8.423-7.392c-0.975-2.181-1.087-4.373-0.324-6.34c1.646-4.247,8.852-10.797,15.051-10.797c1.011,0,1.972,0.171,2.854,0.508c2.244,0.858,4.112,2.849,5.404,5.757c2.128,4.791,2.214,10.936,1.073,13.88C162.275,166.59,158.557,168.701,153.889,168.701z M154.262,145.047c-5.241,0-11.729,5.761-13.186,9.52c-0.566,1.459-0.468,3.119,0.284,4.801c1.207,2.7,3.938,5.07,7.307,6.339c1.703,0.651,3.507,0.995,5.221,0.995c3.824,0,6.828-1.621,7.841-4.232c1.001-2.582,0.823-8.16-1.036-12.346c-0.747-1.682-2.097-3.861-4.29-4.7C155.748,145.173,155.027,145.047,154.262,145.047z"/><ellipse transform="matrix(-0.8484 0.5293 -0.5293 -0.8484 413.5701 135.0471)" fill="#FFFFFF" cx="187.45" cy="126.735" rx="10.986" ry="7.989"/><path d="M184.596,136.666c-3.227,0-5.893-1.308-7.315-3.587c-1.304-2.09-1.424-4.718-0.339-7.4c1.04-2.573,3.082-4.907,5.75-6.57c2.381-1.486,5.085-2.305,7.612-2.305c3.227,0,5.893,1.308,7.316,3.587c2.623,4.205,0.195,10.473-5.411,13.972C189.827,135.848,187.123,136.666,184.596,136.666z M190.304,118.804c-2.158,0-4.485,0.711-6.554,2.002c-2.312,1.441-4.071,3.438-4.955,5.622c-0.838,2.074-0.773,4.061,0.183,5.593c1.049,1.682,3.097,2.646,5.618,2.646c2.158,0,4.486-0.711,6.555-2.001c4.671-2.915,6.812-7.946,4.772-11.216C194.873,119.769,192.825,118.804,190.304,118.804z"/><path d="M190.068,127.577c-1.104-0.332-1.684-1.652-1.293-2.948c0.39-1.298,1.599-2.079,2.703-1.747c1.106,0.332,1.686,1.651,1.297,2.948C192.384,127.126,191.173,127.908,190.068,127.577z"/><path fill="#FFFFFF" d="M148.228,150.965c1.014,1.276,2.771,1.85,5.293,1.697c0.021-0.001,0.04-0.002,0.061-0.002c0.223,0,0.44,0.074,0.616,0.213c1.233,0.966,2.57,1.455,3.973,1.455c1.42,0,2.804-0.516,3.972-1.3c-0.867-3.546-2.686-6.852-5.656-7.994c-2.873-1.077-6.344,0.157-9.307,2.183C147.159,148.473,147.372,149.889,148.228,150.965z"/><path d="M162.534,155.118c-0.098-0.697-0.223-1.397-0.393-2.09c-1.168,0.784-2.552,1.3-3.972,1.3c-1.402,0-2.739-0.489-3.973-1.455c-0.176-0.139-0.394-0.213-0.616-0.213c-0.021,0-0.04,0.001-0.061,0.002c-2.521,0.152-4.279-0.421-5.293-1.697c-0.855-1.076-1.068-2.492-1.049-3.748c-0.67,0.458-1.309,0.958-1.914,1.479c0.158,1.209,0.557,2.455,1.396,3.513c1.305,1.644,3.355,2.477,6.096,2.477h0.001c0.166,0,0.337-0.003,0.511-0.009c1.512,1.097,3.158,1.651,4.901,1.651C159.728,156.328,161.22,155.86,162.534,155.118z"/><ellipse transform="matrix(-0.8484 0.5293 -0.5293 -0.8484 387.2692 142.5917)" fill="#FFFFFF" cx="173.218" cy="126.747" rx="10.986" ry="7.989"/><path d="M170.364,136.678c-3.227,0-5.893-1.308-7.315-3.587c-1.303-2.089-1.423-4.717-0.339-7.4c1.041-2.573,3.083-4.906,5.75-6.57c2.382-1.486,5.086-2.305,7.613-2.305c3.226,0,5.892,1.308,7.313,3.587c1.304,2.089,1.425,4.718,0.34,7.4c-1.04,2.573-3.083,4.906-5.751,6.571C175.595,135.859,172.892,136.678,170.364,136.678z M176.073,118.815c-2.158,0-4.486,0.711-6.555,2.002c-2.312,1.441-4.071,3.438-4.954,5.623c-0.839,2.074-0.774,4.06,0.182,5.592c1.049,1.681,3.097,2.646,5.618,2.646c2.158,0,4.485-0.711,6.553-2.001c2.312-1.442,4.072-3.439,4.955-5.623c0.839-2.074,0.774-4.061-0.183-5.593C180.641,119.779,178.594,118.815,176.073,118.815z"/><ellipse transform="matrix(-0.2876 0.9577 -0.9577 -0.2876 347.2694 -7.828)" cx="176.546" cy="125.234" rx="2.451" ry="2.089"/><path fill="#DEF5FF" d="M46.898,214.582c0.271-1.362,0.363-2.723,0.363-4.085c0-12.348-10.26-22.426-22.971-22.426S1.319,198.149,1.319,210.497c0,1.362,0.182,2.723,0.364,4.085H46.898z"/><path d="M46.898,215.582H1.684c-0.501,0-0.925-0.371-0.991-0.867c-0.184-1.37-0.373-2.787-0.373-4.218c0-12.917,10.754-23.426,23.972-23.426c13.217,0,23.971,10.509,23.971,23.426c0,1.59-0.125,2.99-0.382,4.28C47.786,215.245,47.376,215.582,46.898,215.582z M2.561,213.582h43.496c0.138-0.939,0.205-1.957,0.205-3.085c0-11.814-9.856-21.426-21.971-21.426c-12.115,0-21.972,9.611-21.972,21.426C2.319,211.509,2.43,212.553,2.561,213.582z"/><path fill="#DEF5FF" d="M38.908,161.286c0-13.164-1.815-23.788-4.086-23.788c-2.27,0-4.085,10.624-4.085,23.788c0,1.271,0,2.543,0.091,3.723c-1.726-1.452-3.723-2.27-5.811-2.27c-1.998,0-3.813,0.727-5.447,1.998c0-1.09,0-2.271,0-3.451c0-13.164-1.816-23.788-4.086-23.788c-2.271,0-4.086,10.624-4.086,23.788c0,2.18,0,53.296,0,53.296H39C38.908,214.582,38.908,163.466,38.908,161.286z"/><path d="M39,215.582H11.398c-0.553,0-1-0.447-1-1v-53.296c0-2.537,0.143-24.788,5.086-24.788s5.086,22.251,5.086,24.788v1.604c2.913-1.572,6.267-1.513,9.176,0.145c-0.009-0.583-0.009-1.17-0.009-1.748c0-2.537,0.143-24.788,5.085-24.788c4.943,0,5.086,22.251,5.086,24.788c0,19.108,0.018,51.644,0.084,53.176c0.005,0.039,0.008,0.079,0.008,0.12C40,215.135,39.552,215.582,39,215.582z M12.398,213.582h25.583c-0.007-0.339-0.009-0.733-0.012-1.194c-0.009-1.403-0.017-3.409-0.022-5.824c-0.013-4.826-0.021-11.285-0.027-17.812c-0.012-13.052-0.012-26.376-0.012-27.466c0-14.387-1.99-21.849-3.086-22.745c-1.095,0.896-3.085,8.359-3.085,22.745c0,1.231,0,2.504,0.088,3.646c0.031,0.401-0.182,0.783-0.54,0.967c-0.357,0.184-0.792,0.135-1.101-0.125c-3.062-2.576-6.847-2.7-10-0.247c-0.302,0.235-0.71,0.278-1.054,0.109c-0.343-0.168-0.561-0.517-0.561-0.898v-3.451c0-14.386-1.991-21.849-3.086-22.745c-1.096,0.896-3.086,8.359-3.086,22.745V213.582z"/><circle fill="#F9B189" cx="24.291" cy="188.252" r="3.904"/><path fill="#231F20" d="M24.291,193.156c-2.704,0-4.904-2.2-4.904-4.905c0-2.704,2.2-4.903,4.904-4.903s4.904,2.199,4.904,4.903C29.195,190.956,26.995,193.156,24.291,193.156z M24.291,185.348c-1.602,0-2.904,1.303-2.904,2.903c0,1.602,1.303,2.905,2.904,2.905s2.904-1.304,2.904-2.905C27.195,186.65,25.893,185.348,24.291,185.348z"/><path fill="#FFFFFF" d="M23.473,184.983c0-0.085-0.028-0.161-0.049-0.24c-0.634,0.165-1.195,0.499-1.632,0.96c0.179,0.17,0.418,0.278,0.684,0.278C23.025,185.981,23.473,185.534,23.473,184.983z"/><path fill="#231F20" d="M24.473,187.202c-0.609-0.549-1-1.336-1-2.219c0,0.551-0.447,0.998-0.997,0.998c-0.266,0-0.505-0.108-0.684-0.278c-0.466,0.492-0.783,1.119-0.896,1.818c0.46,0.287,0.998,0.46,1.579,0.46C23.245,187.981,23.941,187.682,24.473,187.202z"/><path fill="#231F20" d="M23.499,184.72c-0.025,0.007-0.05,0.018-0.075,0.023c0.021,0.079,0.049,0.155,0.049,0.24C23.473,184.894,23.491,184.809,23.499,184.72z"/><path fill="#FFFFFF" d="M26.47,185.981c0.164,0,0.313-0.05,0.45-0.121c-0.378-0.449-0.861-0.801-1.421-1.011c-0.006,0.046-0.026,0.086-0.026,0.134C25.473,185.534,25.92,185.981,26.47,185.981z"/><path fill="#231F20" d="M24.473,187.202c0.531,0.479,1.227,0.779,1.997,0.779c0.441,0,0.857-0.102,1.235-0.273c-0.074-0.702-0.354-1.336-0.785-1.848c-0.137,0.071-0.286,0.121-0.45,0.121c-0.55,0-0.997-0.447-0.997-0.998c0-0.048,0.021-0.088,0.026-0.134c-0.377-0.142-0.781-0.229-1.208-0.229c-0.273,0-0.537,0.04-0.792,0.1c-0.008,0.089-0.026,0.174-0.026,0.264C23.473,185.866,23.863,186.653,24.473,187.202z"/><path d="M47.08,239.552H11.307c-0.552,0-1-0.447-1-1s0.448-1,1-1H47.08c0.553,0,1,0.447,1,1S47.633,239.552,47.08,239.552z"/><path d="M101.374,286.855H75.316c-0.552,0-1-0.447-1-1s0.448-1,1-1h26.058c0.553,0,1,0.447,1,1S101.927,286.855,101.374,286.855z"/><path d="M126.524,268.877H98.56c-0.553,0-1-0.447-1-1s0.447-1,1-1h27.965c0.552,0,1,0.447,1,1S127.076,268.877,126.524,268.877z"/><path d="M204.152,290.123h-27.873c-0.553,0-1-0.447-1-1s0.447-1,1-1h27.873c0.553,0,1,0.447,1,1S204.705,290.123,204.152,290.123z"/><path d="M223.673,253.17h-17.795c-0.553,0-1-0.447-1-1s0.447-1,1-1h17.795c0.553,0,1,0.447,1,1S224.226,253.17,223.673,253.17z"/><path d="M59.882,258.89H40.997c-0.553,0-1-0.447-1-1s0.447-1,1-1h18.885c0.553,0,1,0.447,1,1S60.435,258.89,59.882,258.89z"/><ellipse fill="#FFFFFF" cx="29.194" cy="175.632" rx="2.724" ry="4.63"/><path d="M29.194,181.263c-2.089,0-3.725-2.473-3.725-5.63s1.636-5.631,3.725-5.631c2.088,0,3.724,2.474,3.724,5.631S31.282,181.263,29.194,181.263z M29.194,172.002c-0.798,0-1.725,1.586-1.725,3.631c0,2.044,0.927,3.63,1.725,3.63c0.797,0,1.724-1.586,1.724-3.63C30.918,173.588,29.991,172.002,29.194,172.002z"/><ellipse cx="30.102" cy="176.267" rx="0.727" ry="0.999"/><ellipse fill="#FFFFFF" cx="20.478" cy="175.632" rx="2.724" ry="4.63"/><path d="M20.478,181.263c-2.088,0-3.724-2.473-3.724-5.63s1.636-5.631,3.724-5.631s3.724,2.474,3.724,5.631S22.565,181.263,20.478,181.263z M20.478,172.002c-0.797,0-1.724,1.586-1.724,3.631c0,2.044,0.927,3.63,1.724,3.63s1.724-1.586,1.724-3.63C22.201,173.588,21.274,172.002,20.478,172.002z"/><ellipse cx="21.386" cy="176.267" rx="0.727" ry="0.999"/><rect x="17.391" y="197.513" fill="#DEF5FF" width="13.801" height="17.069"/><path d="M31.191,215.582H17.391c-0.553,0-1-0.447-1-1v-17.069c0-0.553,0.447-1,1-1h13.801c0.553,0,1,0.447,1,1v17.069C32.191,215.135,31.744,215.582,31.191,215.582z M18.391,213.582h11.801v-15.069H18.391V213.582z"/><path fill="#DEF5FF" d="M59.064,321.445c0-14.255,0-30.597,0-31.868c0-13.165-1.815-23.789-4.085-23.789c-2.271,0-4.087,10.624-4.087,23.789c0,1.271,0,2.542,0.092,3.724c-1.726-1.453-3.723-2.27-5.812-2.27c-1.997,0-3.812,0.727-5.447,1.997c0-1.09,0-2.271,0-3.451c0-13.165-1.816-23.789-4.085-23.789c-2.271,0-4.086,10.624-4.086,23.789c0,1.18,0,16.707,0,30.688c-5.993,4.085-9.987,10.806-9.987,18.432c0,1.36,0.182,2.723,0.363,4.085h9.532h6.175h13.8h7.627h8.08c0.273-1.362,0.364-2.725,0.364-4.085C67.509,331.797,64.239,325.532,59.064,321.445z"/><path d="M67.145,343.782H21.931c-0.501,0-0.925-0.371-0.991-0.868c-0.184-1.372-0.372-2.79-0.372-4.217c0-7.438,3.724-14.484,9.987-18.953v-30.167c0-2.537,0.143-24.789,5.086-24.789c4.942,0,5.085,22.252,5.085,24.789v1.604c2.916-1.57,6.269-1.511,9.176,0.146c-0.009-0.584-0.009-1.171-0.009-1.749c0-2.537,0.143-24.789,5.087-24.789c4.942,0,5.085,22.252,5.085,24.789v31.39c5.373,4.423,8.444,10.857,8.444,17.73c0,1.594-0.126,2.994-0.384,4.281C68.031,343.446,67.621,343.782,67.145,343.782z M22.808,341.782h43.496c0.138-0.938,0.205-1.955,0.205-3.085c0-6.418-2.939-12.42-8.063-16.467c-0.24-0.19-0.381-0.479-0.381-0.785v-31.868c0-14.386-1.99-21.849-3.085-22.746c-1.096,0.896-3.087,8.359-3.087,22.746c0,1.23,0,2.503,0.089,3.646c0.03,0.401-0.183,0.783-0.541,0.967c-0.358,0.185-0.792,0.135-1.101-0.125c-3.057-2.575-6.844-2.699-10-0.248c-0.301,0.236-0.71,0.278-1.054,0.109c-0.343-0.168-0.561-0.517-0.561-0.898v-3.451c0-14.385-1.99-21.848-3.085-22.746c-1.096,0.897-3.086,8.36-3.086,22.746v30.688c0,0.331-0.164,0.64-0.437,0.826c-5.98,4.076-9.551,10.658-9.551,17.605C22.567,339.715,22.674,340.73,22.808,341.782z"/><path fill="#DEF5FF" d="M44.538,332.433c-3.451,0-6.355,2.813-6.355,6.355c0,1.544,0.545,2.906,1.362,3.994h9.896c0.908-1.088,1.362-2.45,1.362-3.994C50.803,335.339,47.987,332.433,44.538,332.433z"/><path d="M49.44,343.782h-9.896c-0.314,0-0.61-0.147-0.8-0.399c-1.022-1.36-1.562-2.949-1.562-4.595c0-4.056,3.3-7.355,7.355-7.355c4.006,0,7.265,3.3,7.265,7.355c0,1.782-0.551,3.385-1.595,4.635C50.019,343.65,49.737,343.782,49.44,343.782z M40.068,341.782h8.876c0.57-0.834,0.858-1.839,0.858-2.994c0-2.903-2.411-5.355-5.265-5.355c-2.953,0-5.355,2.402-5.355,5.355C39.183,339.841,39.487,340.866,40.068,341.782z"/><path fill="#DEF5FF" d="M289.317,276.141c0.272-1.361,0.363-2.725,0.363-4.086c0-12.347-10.26-22.427-22.97-22.427c-12.712,0-22.973,10.08-22.973,22.427c0,1.361,0.183,2.725,0.363,4.086H289.317z"/><path d="M289.317,277.141h-45.216c-0.501,0-0.926-0.371-0.991-0.868c-0.186-1.397-0.372-2.803-0.372-4.218c0-12.918,10.754-23.427,23.973-23.427c13.217,0,23.97,10.509,23.97,23.427c0,1.595-0.125,2.995-0.383,4.282C290.204,276.805,289.794,277.141,289.317,277.141z M244.979,275.141h43.496c0.138-0.938,0.205-1.955,0.205-3.086c0-11.814-9.855-21.427-21.97-21.427c-12.116,0-21.973,9.612-21.973,21.427C244.738,273.072,244.845,274.088,244.979,275.141z"/><path fill="#DEF5FF" d="M281.326,222.845c0-13.164-1.814-23.788-4.085-23.788s-4.085,10.624-4.085,23.788c0,1.271,0,2.543,0.091,3.721c-1.726-1.452-3.723-2.269-5.811-2.269c-1.998,0-3.813,0.726-5.449,1.998c0-1.09,0-2.27,0-3.45c0-13.164-1.814-23.788-4.085-23.788s-4.085,10.624-4.085,23.788c0,2.178,0,53.296,0,53.296h27.6C281.326,276.141,281.326,225.022,281.326,222.845z"/><path d="M281.417,277.141h-27.6c-0.553,0-1-0.447-1-1v-53.296c0-2.537,0.143-24.788,5.085-24.788s5.085,22.251,5.085,24.788v1.603c2.912-1.572,6.268-1.514,9.178,0.145c-0.009-0.583-0.009-1.169-0.009-1.747c0-2.537,0.143-24.788,5.085-24.788s5.085,22.251,5.085,24.788c0,19.109,0.018,51.646,0.084,53.176c0.005,0.04,0.007,0.079,0.007,0.12C282.417,276.693,281.97,277.141,281.417,277.141z M254.817,275.141h25.581c-0.006-0.339-0.009-0.733-0.012-1.194c-0.009-1.403-0.016-3.409-0.022-5.824c-0.013-4.827-0.021-11.285-0.026-17.812c-0.012-13.053-0.012-26.377-0.012-27.466c0-14.387-1.99-21.849-3.085-22.745c-1.095,0.896-3.085,8.358-3.085,22.745c0,1.231,0,2.505,0.088,3.644c0.031,0.402-0.182,0.783-0.541,0.967c-0.354,0.184-0.792,0.136-1.1-0.125c-1.581-1.33-3.368-2.033-5.167-2.033c-1.684,0-3.311,0.602-4.835,1.787c-0.303,0.235-0.709,0.278-1.054,0.109c-0.343-0.168-0.561-0.517-0.561-0.898v-3.45c0-14.387-1.99-21.849-3.085-22.745c-1.095,0.896-3.085,8.358-3.085,22.745V275.141z"/><ellipse fill="#FFFFFF" cx="271.612" cy="237.099" rx="2.725" ry="4.631"/><path d="M271.612,242.729c-2.088,0-3.724-2.474-3.724-5.631s1.636-5.631,3.724-5.631c2.089,0,3.725,2.474,3.725,5.631S273.701,242.729,271.612,242.729z M271.612,233.468c-0.797,0-1.724,1.586-1.724,3.631s0.927,3.631,1.724,3.631c0.798,0,1.725-1.586,1.725-3.631S272.41,233.468,271.612,233.468z"/><ellipse cx="271.612" cy="235.919" rx="0.728" ry="0.999"/><ellipse fill="#FFFFFF" cx="262.896" cy="237.099" rx="2.723" ry="4.631"/><path d="M262.896,242.729c-2.088,0-3.724-2.474-3.724-5.631s1.636-5.631,3.724-5.631s3.723,2.474,3.723,5.631S264.984,242.729,262.896,242.729z M262.896,233.468c-0.797,0-1.724,1.586-1.724,3.631s0.927,3.631,1.724,3.631s1.723-1.586,1.723-3.631S263.693,233.468,262.896,233.468z"/><ellipse cx="262.896" cy="235.919" rx="0.727" ry="0.999"/><rect x="259.809" y="258.981" fill="#DEF5FF" width="13.802" height="17.069"/><path d="M273.61,277.051h-13.802c-0.553,0-1-0.447-1-1v-17.069c0-0.553,0.447-1,1-1h13.802c0.553,0,1,0.447,1,1v17.069C274.61,276.604,274.163,277.051,273.61,277.051z M260.809,275.051h11.802v-15.069h-11.802V275.051z"/><path d="M269.251,250.63h-4.994c-0.553,0-1-0.447-1-1s0.447-1,1-1h4.994c0.553,0,1,0.447,1,1S269.804,250.63,269.251,250.63z"/><path fill="#DEF5FF" d="M181.546,314.638c0.272-1.362,0.363-2.725,0.363-4.087c0-12.347-10.261-22.426-22.971-22.426c-12.712,0-22.972,10.079-22.972,22.426c0,1.362,0.182,2.725,0.362,4.087H181.546z"/><path d="M181.546,315.638h-45.217c-0.501,0-0.925-0.371-0.991-0.868c-0.184-1.379-0.371-2.794-0.371-4.219c0-12.917,10.753-23.426,23.972-23.426c13.218,0,23.971,10.509,23.971,23.426c0,1.595-0.125,2.995-0.383,4.283C182.433,315.301,182.022,315.638,181.546,315.638z M137.207,313.638h43.497c0.138-0.938,0.205-1.956,0.205-3.087c0-11.814-9.856-21.426-21.971-21.426c-12.115,0-21.972,9.611-21.972,21.426C136.967,311.569,137.073,312.585,137.207,313.638z"/><path fill="#DEF5FF" d="M173.465,261.341c0-13.165-1.816-23.787-4.087-23.787c-2.27,0-4.084,10.622-4.084,23.787c0,1.271,0,2.542,0.091,3.722c-1.728-1.452-3.724-2.27-5.812-2.27c-1.995,0-3.813,0.727-5.446,1.999c0-1.092,0-2.27,0-3.451c0-13.165-1.816-23.787-4.086-23.787s-4.086,10.622-4.086,23.787c0,2.179,0,53.297,0,53.297h27.601C173.465,314.638,173.465,263.52,173.465,261.341z"/><path d="M173.555,315.638h-27.601c-0.553,0-1-0.447-1-1v-53.297c0-2.537,0.143-24.787,5.086-24.787s5.086,22.25,5.086,24.787v1.602c2.912-1.57,6.265-1.513,9.177,0.146c-0.009-0.583-0.009-1.17-0.009-1.748c0-2.537,0.143-24.787,5.084-24.787c4.944,0,5.087,22.25,5.087,24.787c0,19.113,0.018,51.655,0.083,53.178c0.005,0.039,0.007,0.079,0.007,0.119C174.555,315.19,174.107,315.638,173.555,315.638z M146.954,313.638h25.582c-0.006-0.339-0.008-0.733-0.011-1.194c-0.009-1.403-0.017-3.41-0.022-5.824c-0.013-4.827-0.021-11.285-0.026-17.812c-0.012-13.052-0.012-26.376-0.012-27.466c0-14.386-1.991-21.848-3.087-22.744c-1.095,0.896-3.084,8.359-3.084,22.744c0,1.23,0,2.504,0.088,3.645c0.031,0.402-0.182,0.783-0.54,0.967c-0.357,0.184-0.791,0.135-1.101-0.124c-3.066-2.577-6.852-2.7-10.001-0.247c-0.3,0.235-0.71,0.278-1.053,0.109c-0.344-0.168-0.562-0.517-0.562-0.898v-3.451c0-14.385-1.991-21.848-3.086-22.744c-1.096,0.896-3.086,8.358-3.086,22.744V313.638z"/><rect x="152.037" y="297.568" fill="#DEF5FF" width="13.802" height="17.069"/><path d="M165.839,315.638h-13.802c-0.553,0-1-0.447-1-1v-17.069c0-0.553,0.447-1,1-1h13.802c0.553,0,1,0.447,1,1v17.069C166.839,315.19,166.392,315.638,165.839,315.638z M153.037,313.638h11.802v-15.069h-11.802V313.638z"/><path d="M161.479,289.125h-5.084c-0.553,0-1-0.447-1-1s0.447-1,1-1h5.084c0.553,0,1,0.447,1,1S162.031,289.125,161.479,289.125z"/><path d="M157.03,277.141h-4.267c-0.553,0-1-0.447-1-1s0.447-1,1-1h4.267c0.553,0,1,0.447,1,1S157.583,277.141,157.03,277.141z"/><path d="M165.929,277.141h-4.268c-0.553,0-1-0.447-1-1s0.447-1,1-1h4.268c0.553,0,1,0.447,1,1S166.481,277.141,165.929,277.141z"/><path fill="#FFFFFF" d="M158.938,33.177c0,17.705-44.308,50.663-36.318,31.959c7.989-18.612-30.688-7.718-36.317-31.959C80.674,8.844,102.555,1.218,122.62,1.218S158.938,15.472,158.938,33.177z"/><path d="M123.594,71.704c-1.402,0-2.114-0.631-2.463-1.16c-0.78-1.181-0.594-3.078,0.569-5.801c1.12-2.608,1.299-4.64,0.547-6.211c-1.475-3.085-6.521-4.5-12.365-6.139c-9.6-2.691-21.546-6.041-24.553-18.991c-1.99-8.601-0.768-15.769,3.634-21.305c6.003-7.55,18.271-11.88,33.657-11.88c20.577,0,37.318,14.785,37.318,32.959C159.938,47.817,131.865,71.704,123.594,71.704zM122.62,2.218c-14.773,0-26.471,4.055-32.092,11.125c-4.003,5.035-5.097,11.632-3.251,19.608c2.739,11.795,13.579,14.835,23.145,17.517c6.312,1.77,11.764,3.298,13.63,7.201c1.015,2.122,0.847,4.693-0.513,7.861c-1.211,2.835-0.872,3.711-0.739,3.912c0.114,0.174,0.382,0.262,0.794,0.262c7.137,0,34.345-23.318,34.345-36.527C157.938,16.106,142.095,2.218,122.62,2.218z"/><path d="M121.11,35.443l-0.086-1.126c-0.258-2.338,0.517-4.894,2.668-7.492c1.937-2.295,3.012-3.984,3.012-5.933c0-2.208-1.377-3.681-4.088-3.724c-1.549,0-3.27,0.52-4.346,1.342l-1.033-2.728c1.421-1.04,3.873-1.732,6.153-1.732c4.949,0,7.187,3.075,7.187,6.366c0,2.945-1.636,5.067-3.701,7.535c-1.893,2.252-2.581,4.157-2.452,6.366l0.043,1.126H121.11zM120.164,41.505c0-1.602,1.075-2.728,2.581-2.728c1.507,0,2.539,1.126,2.539,2.728c0,1.516-0.989,2.685-2.582,2.685C121.196,44.19,120.164,43.021,120.164,41.505z"/><ellipse fill="#FFFFFF" cx="135.967" cy="100.545" rx="6.355" ry="5.448"/><path d="M135.967,106.993c-4.056,0-7.355-2.893-7.355-6.447c0-3.556,3.3-6.448,7.355-6.448s7.355,2.893,7.355,6.448C143.322,104.101,140.022,106.993,135.967,106.993z M135.967,96.098c-2.953,0-5.355,1.995-5.355,4.448c0,2.452,2.402,4.447,5.355,4.447s5.355-1.995,5.355-4.447C141.322,98.093,138.92,96.098,135.967,96.098z"/><ellipse fill="#FFFFFF" cx="103.826" cy="86.382" rx="11.258" ry="9.715"/><path d="M103.826,97.097c-6.76,0-12.259-4.807-12.259-10.714c0-5.909,5.499-10.716,12.259-10.716c6.759,0,12.258,4.807,12.258,10.716C116.084,92.29,110.585,97.097,103.826,97.097z M103.826,77.667c-5.656,0-10.259,3.91-10.259,8.716c0,4.805,4.603,8.714,10.259,8.714s10.258-3.909,10.258-8.714C114.084,81.577,109.482,77.667,103.826,77.667z"/></svg>