<svg xmlns="http://www.w3.org/2000/svg" viewBox="0 0 308 300"><rect x="30.811" y="94.327" fill="#FFFFFF" width="5.002" height="140.147"/><path fill="#231F20" d="M36.812,235.475h-7.002V93.327h7.002V235.475z M31.811,233.475h3.002V95.327h-3.002V233.475z"/><path fill="#FFFFFF" d="M65.9,125.129c-1.286,1.5-3.931,2.858-5.86,3.001L5.726,132.49c-1.93,0.143-3.716-1.286-3.86-3.287L1.008,118.84c-0.143-1.929,1.287-3.716,3.288-3.859l54.314-4.359c1.93-0.143,4.788,0.786,6.29,2.001l4.002,3.431c1.5,1.286,1.644,3.573,0.429,5.002L65.9,125.129z"/><path fill="#231F20" d="M5.459,133.5c-2.405,0-4.421-1.856-4.591-4.225l-0.856-10.352c-0.09-1.225,0.318-2.455,1.119-3.382c0.793-0.918,1.893-1.471,3.094-1.558l54.306-4.358c0.162-0.012,0.323-0.018,0.489-0.018c2.134,0,4.933,0.962,6.51,2.238l4.024,3.449c1.877,1.609,2.125,4.544,0.54,6.409l-3.427,4.07c-1.475,1.721-4.351,3.191-6.552,3.354l-54.308,4.359C5.686,133.496,5.572,133.5,5.459,133.5z M59.019,111.607c-0.115,0-0.227,0.004-0.335,0.012l-54.308,4.359c-0.676,0.049-1.289,0.358-1.732,0.871c-0.457,0.529-0.689,1.228-0.639,1.918l0.857,10.354c0.101,1.401,1.338,2.466,2.79,2.373l54.308-4.359c1.655-0.123,4.074-1.364,5.181-2.656l3.424-4.067c0.889-1.045,0.744-2.692-0.314-3.599l-4.002-3.431C63.049,112.411,60.693,111.607,59.019,111.607z"/><path d="M15.596,117.724c0.5-0.153,1.3-0.307,2.119-0.381c1.168-0.106,1.939,0.028,2.545,0.433c0.501,0.307,0.832,0.819,0.896,1.531c0.079,0.874-0.429,1.692-1.352,2.127l0.002,0.027c0.879,0.137,1.952,0.758,2.073,2.102c0.07,0.778-0.186,1.398-0.602,1.883c-0.579,0.635-1.576,0.995-3.054,1.129c-0.806,0.073-1.428,0.076-1.823,0.056L15.596,117.724z M17.1,121.326l1.061-0.096c1.236-0.112,1.903-0.823,1.824-1.696c-0.096-1.062-0.94-1.405-2.122-1.298c-0.537,0.049-0.843,0.117-1.027,0.175L17.1,121.326zM17.492,125.664c0.232,0.02,0.569,0.003,0.985-0.034c1.209-0.109,2.284-0.653,2.165-1.97c-0.112-1.236-1.219-1.65-2.495-1.535l-0.967,0.087L17.492,125.664z"/><path d="M24.078,122.901c0.171,1.597,1.252,2.163,2.434,2.056c0.846-0.077,1.344-0.27,1.77-0.499l0.278,0.828c-0.399,0.225-1.092,0.504-2.126,0.598c-2.002,0.181-3.316-1.026-3.494-2.988c-0.177-1.962,0.838-3.61,2.732-3.782c2.122-0.192,2.856,1.625,2.964,2.82c0.022,0.242,0.012,0.432,0.009,0.553L24.078,122.901z M27.467,121.742c-0.054-0.753-0.482-1.893-1.812-1.772c-1.195,0.108-1.62,1.257-1.64,2.085L27.467,121.742z"/><path d="M30.018,120.915c-0.069-0.765-0.143-1.422-0.237-2.022l1.034-0.093l0.156,1.272l0.054-0.005c0.216-0.901,0.879-1.515,1.671-1.586c0.135-0.012,0.229-0.007,0.34,0.008l0.101,1.116c-0.124-0.016-0.246-0.019-0.407-0.004c-0.833,0.075-1.367,0.76-1.448,1.662c-0.013,0.164-0.022,0.354-0.004,0.555l0.313,3.467l-1.169,0.105L30.018,120.915z"/><path d="M34.004,115.45l1.182-0.107l0.862,9.538l-1.182,0.107L34.004,115.45z"/><path d="M38.599,116.253c0.049,0.402-0.217,0.751-0.687,0.793c-0.416,0.038-0.741-0.258-0.777-0.661c-0.038-0.417,0.242-0.766,0.672-0.805C38.25,115.541,38.562,115.836,38.599,116.253z M38.036,124.701l-0.588-6.502l1.182-0.107l0.588,6.502L38.036,124.701z"/><path d="M40.749,119.675c-0.061-0.672-0.124-1.221-0.213-1.755l1.048-0.095l0.165,1.068l0.026-0.002c0.267-0.647,0.964-1.319,2.039-1.416c0.9-0.082,2.346,0.328,2.547,2.559l0.351,3.883l-1.182,0.107l-0.339-3.749c-0.095-1.047-0.563-1.886-1.678-1.785c-0.779,0.07-1.334,0.676-1.476,1.352c-0.04,0.153-0.048,0.357-0.03,0.559l0.353,3.909l-1.183,0.107L40.749,119.675z"/><path fill="#FFFFFF" d="M122.145,42.729c0,3.644,4.002,6.074,6.646,6.646c11.221,1.501,20.796-9.004,25.585,0.787c1.501,3.002-2.573,7.718,0.499,10.434c6.361,5.503,26.516-5.503,26.516-17.795V7.496c0-3.645-2.931-6.646-6.646-6.646H128.72c-3.645,0-6.646,2.93-6.646,6.646v35.233H122.145z"/><path fill="#231F20" d="M159.512,63.051c-2.207,0-3.987-0.572-5.291-1.7c-2.194-1.939-1.52-4.651-0.979-6.831c0.375-1.508,0.729-2.933,0.239-3.913c-1.26-2.575-2.812-3.671-5.195-3.671c-1.928,0-4.261,0.729-6.73,1.5c-3.134,0.979-6.686,2.087-10.47,2.087l0,0c-0.824,0-1.641-0.053-2.428-0.159c-2.904-0.625-6.803-3.038-7.427-6.637h-0.086l-0.071-1V7.496c0-4.216,3.43-7.646,7.646-7.646h46.024c4.216,0,7.646,3.43,7.646,7.646V42.8C182.391,53.586,168.131,63.051,159.512,63.051zM148.286,44.938c3.128,0,5.413,1.565,6.988,4.784c0.816,1.632,0.355,3.488-0.091,5.282c-0.574,2.311-0.837,3.79,0.354,4.843c0.922,0.797,2.262,1.205,3.975,1.205c7.854,0,20.879-8.84,20.879-18.251V7.496c0-3.113-2.533-5.646-5.646-5.646H128.72c-3.113,0-5.646,2.533-5.646,5.646v34.233l0.071,1c0,3.003,3.495,5.158,5.857,5.668c0.621,0.08,1.349,0.127,2.084,0.127c3.479,0,6.876-1.061,9.873-1.997C143.579,45.71,146.053,44.938,148.286,44.938z"/><path d="M150.489,28.953l-0.067-0.886c-0.204-1.841,0.406-3.852,2.1-5.897c1.524-1.807,2.371-3.136,2.371-4.67c0-1.739-1.084-2.897-3.218-2.932c-1.22,0-2.574,0.409-3.421,1.057l-0.813-2.147c1.118-0.818,3.049-1.364,4.844-1.364c3.896,0,5.657,2.42,5.657,5.011c0,2.318-1.287,3.988-2.913,5.931c-1.49,1.772-2.032,3.272-1.931,5.011l0.034,0.886H150.489zM149.744,33.725c0-1.262,0.847-2.148,2.032-2.148s1.999,0.886,1.999,2.148c0,1.193-0.779,2.113-2.033,2.113C150.557,35.838,149.744,34.918,149.744,33.725z"/><path fill="#F96488" d="M177.245,233.615c-2.288-5.502-0.643-11.006,0.716-14.15c5.358-2.287,9.861-5.289,12.935-9.004c15.365-18.295,0-79.186,0-79.186s-13.078-2.287-17.367-3.145c-1.5-13.793-12.935-24.513-26.728-24.513c-13.222,0-24.013,8.934-26.3,21.869c-4.001-0.357-13.864,5.86-13.864,5.86s-20.01,59.532,0,79.186c2.573,2.5,5.574,4.645,8.934,6.504c0,0,5.359,8.432,2,16.578c-3.43,8.219-14.15,17.725-14.436,25.729s10.72,6.789,16.58,6.789c5.86,0,17.295,0.072,17.295,0.072s4.645-6.291-1.787-12.223c-6.432-5.93-5.145-10.289-0.356-14.506c4.859-4.217,7.717-7.721,3.787-15.438l0,0c5.718,0.715,11.649,0.857,17.367,0.5c-3.573,7.434-0.716,10.791,4,14.938c4.86,4.217,6.076,8.646-0.356,14.506c-6.431,5.861-1.786,12.223-1.786,12.223s11.435-0.072,17.295-0.072s17.009,1.287,16.579-6.789C191.324,251.27,180.675,241.834,177.245,233.615z"/><path d="M180.111,267.207c-0.96,0-1.898-0.021-2.782-0.041c-0.77-0.018-1.497-0.033-2.156-0.033c-5.858,0-17.288,0.072-17.288,0.072c-0.003,0-0.005,0-0.007,0c-0.319,0-0.619-0.152-0.808-0.41c-0.052-0.07-5.093-7.16,1.92-13.551c2.779-2.531,4.118-4.797,4.093-6.922c-0.023-1.949-1.239-3.941-3.718-6.092c-4.471-3.93-7.686-7.553-4.911-14.605c-4.781,0.217-9.574,0.084-14.143-0.389c3.069,7.334-0.209,11.021-4.79,14.994c-2.494,2.197-3.669,4.135-3.691,6.092c-0.024,2.111,1.308,4.377,4.07,6.926c7.01,6.465,1.966,13.48,1.914,13.551c-0.188,0.256-0.487,0.406-0.805,0.406c-0.002,0-0.004,0-0.007,0c0,0-11.431-0.072-17.289-0.072c-0.637,0-1.336,0.014-2.075,0.029c-4.628,0.098-10.744,0.262-13.775-2.881c-1.22-1.264-1.802-2.938-1.729-4.975c0.181-5.068,4.184-10.551,8.054-15.852c2.515-3.445,5.115-7.008,6.458-10.225c2.834-6.875-1.042-14.141-1.799-15.451c-3.432-1.922-6.429-4.117-8.91-6.529c-8.542-8.391-11.164-24.479-7.796-47.822c2.485-17.231,7.496-32.25,7.546-32.399c0.073-0.219,0.22-0.405,0.415-0.527c0.377-0.238,8.985-5.634,13.57-6.009c2.668-12.923,13.707-21.875,27.128-21.875c13.987,0,25.741,10.555,27.633,24.671c4.805,0.931,16.51,2.979,16.634,3.001c0.389,0.068,0.701,0.358,0.798,0.74c0.633,2.506,15.312,61.598-0.204,80.073c-2.987,3.613-7.34,6.682-12.936,9.119c-1.392,3.369-2.538,8.246-0.558,13.008c1.351,3.234,3.96,6.807,6.483,10.26c3.85,5.268,7.83,10.715,8.1,15.801c0.108,2.049-0.447,3.732-1.653,5.004C188.664,266.861,184.178,267.207,180.111,267.207z M175.173,265.133c0.673,0,1.415,0.016,2.201,0.033c0.869,0.02,1.793,0.041,2.737,0.041c3.429,0,7.611-0.26,9.535-2.289c0.824-0.869,1.187-2.021,1.106-3.521c-0.237-4.492-4.04-9.695-7.717-14.727c-2.592-3.547-5.272-7.215-6.714-10.67c-2.322-5.584-0.89-11.203,0.721-14.932c0.102-0.236,0.29-0.424,0.525-0.523c5.479-2.338,9.703-5.271,12.557-8.723c14.047-16.725,1.512-71.193-0.046-77.675c-2.69-0.472-13.042-2.295-16.747-3.036c-0.428-0.085-0.751-0.438-0.798-0.873c-1.465-13.466-12.527-23.621-25.733-23.621c-12.715,0-23.125,8.653-25.315,21.043c-0.091,0.511-0.558,0.865-1.074,0.822c-2.955-0.27-10.098,3.765-12.938,5.521c-1.564,4.837-18.704,59.579-0.137,77.815c2.407,2.34,5.341,4.475,8.717,6.344c0.146,0.08,0.271,0.197,0.36,0.338c0.23,0.363,5.598,8.969,2.081,17.496c-1.436,3.439-4.107,7.1-6.69,10.639c-3.693,5.057-7.512,10.287-7.67,14.744c-0.053,1.494,0.329,2.643,1.169,3.514c1.972,2.043,6.211,2.307,9.685,2.307c0.9,0,1.78-0.02,2.61-0.037c0.753-0.016,1.466-0.029,2.116-0.029c5.096,0,14.408,0.055,16.753,0.07c0.816-1.387,2.928-6.012-1.923-10.484c-3.204-2.955-4.746-5.709-4.715-8.42c0.029-2.564,1.419-4.971,4.375-7.574c4.665-4.047,7.229-7.021,3.557-14.23c-0.167-0.33-0.14-0.727,0.073-1.029c0.213-0.301,0.569-0.461,0.942-0.418c5.491,0.686,11.395,0.855,17.181,0.494c0.366-0.016,0.693,0.145,0.892,0.439s0.226,0.672,0.072,0.992c-3.293,6.85-0.776,9.766,3.759,13.752c2.93,2.543,4.371,5.021,4.402,7.574c0.033,2.729-1.52,5.484-4.745,8.424c-4.875,4.443-2.745,9.084-1.919,10.48C160.764,265.188,170.076,265.133,175.173,265.133z"/><path fill="#F96488" d="M173.958,128.131c12.006,3.001,28.657,5.075,34.375,3.502c6.361-1.787,17.366-11.006,22.727-16.652l12.722,27.586c-3.288,3.431-8.935,16.439-26.372,21.369c-4.503,1.287-9.792,1.787-15.224,1.787c-1.785,0-3.571-0.072-5.358-0.143"/><path d="M202.186,166.723c-1.78,0-3.582-0.072-5.324-0.141c-0.552-0.021-1.019-0.488-0.996-1.041s0.458-0.99,1.002-0.961c1.797,0.072,3.578,0.143,5.318,0.143c5.86,0,10.89-0.588,14.949-1.748c13.605-3.848,19.795-12.651,23.493-17.911c0.758-1.077,1.39-1.976,1.972-2.672l-11.838-25.669c-5.717,5.754-15.935,14.125-22.158,15.874c-5.961,1.638-22.849-0.484-34.888-3.495c-0.536-0.134-0.862-0.677-0.728-1.213c0.133-0.536,0.675-0.865,1.212-0.728c11.554,2.888,28.304,5.038,33.867,3.508c5.977-1.678,16.773-10.589,22.267-16.376c0.228-0.24,0.558-0.351,0.889-0.298c0.327,0.054,0.606,0.267,0.745,0.568l12.722,27.586c0.172,0.374,0.099,0.814-0.187,1.111c-0.605,0.632-1.362,1.708-2.238,2.955c-3.599,5.118-10.297,14.646-24.583,18.685C213.446,166.109,208.231,166.723,202.186,166.723z"/><path fill="#F96488" stroke="#000000" stroke-width="2" stroke-linecap="round" stroke-linejoin="round" stroke-miterlimit="10" d="M173.028,128.131"/><path fill="#F96488" d="M101.276,156.504c-1.644-0.359-3.43-0.787-5.145-1.215c-19.868-5.218-31.303-14.651-33.947-27.944c-4.216-39.45,49.526-47.883,64.605-39.235c4.002,2.287,2.216,11.435-7.289,17.509c-15.365,4.789-17.724,13.722-18.296,16.152c5.503,1.787,12.579,3.287,19.225,3.716"/><path d="M101.277,157.504c-0.071,0-0.142-0.008-0.214-0.023c-1.494-0.326-3.235-0.736-5.175-1.223C75.6,150.93,63.934,141.27,61.203,127.541c-1.928-17.999,7.874-28.418,16.433-34.005c15.968-10.422,39.801-11.94,49.651-6.293c1.559,0.891,2.448,2.584,2.502,4.768c0.092,3.733-2.406,9.757-9.75,14.451c-0.075,0.048-0.156,0.085-0.241,0.112c-9.452,2.946-15.439,7.959-17.383,14.533c5.76,1.784,12.293,3.01,18.079,3.383c0.551,0.036,0.969,0.511,0.934,1.062c-0.035,0.551-0.496,0.979-1.062,0.934c-6.249-0.403-13.345-1.774-19.469-3.763c-0.495-0.161-0.784-0.674-0.665-1.18c1.814-7.709,8.328-13.53,18.842-16.837c6.138-3.965,8.802-9.199,8.716-12.645c-0.036-1.457-0.567-2.551-1.496-3.082c-11.209-6.428-35.187-1.846-47.564,6.232c-8.091,5.282-17.357,15.126-15.551,32.029c2.556,12.827,13.732,21.969,33.207,27.083c1.909,0.477,3.63,0.883,5.104,1.205c0.54,0.117,0.882,0.65,0.764,1.189C102.151,157.184,101.737,157.504,101.277,157.504z"/><rect x="205.046" y="93.685" fill="#FFF5CA" width="43.666" height="71.396"/><polygon fill="#CCC189" points="193.54,191.307 237.277,191.307 248.712,165.15 205.046,165.15 "/><polygon fill="#FFF5CA" points="205.046,93.685 248.712,93.685 274.511,110.836 230.773,110.836 "/><polygon fill="#FFF5CA" points="193.54,191.307 237.277,191.307 248.712,209.674 205.046,209.674 "/><polygon fill="#CCC189" points="193.54,221.322 237.277,221.322 248.712,209.674 205.046,209.674 "/><polygon fill="#FFF5CA" points="193.54,221.322 237.277,221.322 248.712,232.4 205.046,232.4 "/><polygon fill="#CCC189" points="193.54,244.049 237.277,244.049 248.712,232.4 205.046,232.4 "/><polygon fill="#FFF5CA" points="193.54,244.049 237.277,244.049 248.712,251.27 205.046,251.27 "/><polygon fill="#CCC189" points="193.54,258.916 237.277,258.916 248.712,251.27 205.046,251.27 "/><polygon fill="#FFF5CA" points="193.54,258.916 237.277,258.916 248.712,266.205 205.046,266.205 "/><path fill="#A1E7FF" d="M240.135,98.973c0,0-5.932,0.071-3.644,4.073c1.429,2.501,5.146,0.071,7.29,1c2.144,0.929-6.361,6.789-6.361,6.789h16.294c0,0-3.931-0.929-2.501-2.715c1.431-1.787,4.86-2.859,2.501-5.432c-2.43-2.573-1.144-3.502,1.431-1.787c2.571,1.715,5.216,0.572,5.216,0.572l-9.29-6.218c0,0,1,1.644-1.501,2.716C247.068,99.044,240.135,98.973,240.135,98.973z"/><path fill="#A1E7FF" d="M223.055,105.69c0,0-1.644,2.073-4.86,4.788c-3.215,2.716-2.929,12.15,3.86,16.366c6.79,4.216,10.004,2.859,8.219-1.358c-1.786-4.216-1.072-8.147,2.787-6.146c3.858,1.93,1.286-3.431-2.644-2.858c-3.932,0.571-3.646,6.146-6.075,4.001c-2.431-2.144-2.072-6.146-1.002-7.218c1.072-1.072,3.573-5.003,3.573-5.003L223.055,105.69z"/><path fill="#A1E7FF" d="M218.194,165.15c0,0,15.01-5.789,14.866-12.078c-0.143-6.289-1.501-15.507,1.858-11.934c3.357,3.573,6.146-4.431,1-5.503s-8.433,8.79-13.578,8.433c-5.146-0.357-2.288-6.861,1.785-8.505c4.074-1.715,10.937-3.502,14.651-1c3.717,2.501,3.002,6.289,5.004,5.789c2-0.5,3.214,0.572,2,2.215s-6.646,0.215-7.646,2.287c-0.929,2.001-3.358,3.358-1.573,8.218c1.788,4.861,1.645,13.58-3.357,12.078c-5.004-1.5-7.72,0.143-7.72,0.143L218.194,165.15z"/><path fill="#4393C9" d="M225.628,165.293c0,0-3.074,3.002,0,6.648c3.073,3.715,7.79-1.287,9.361,2c1.572,3.357,9.148,1.785,9.148,1.785l-2.288,5.219c0,0-3.144,2.93-6.86,0c-3.644-2.93-5.002-5.074-6.288-2.717c-1.287,2.287-3.002,10.078-7.003,8.146c-4.075-1.93-2.718-10.361-3.431-11.934c-0.716-1.572-5.575,1.572-6.79-1.645c-1.216-3.215,6.79-7.646,6.79-7.646L225.628,165.293z"/><path fill="#A1E7FF" d="M198.043,198.525c0,0,3.072,0.145,5.002,2.859c1.929,2.715,2.286,3.787,5.002,3.43s3.217,4.859,3.217,4.859h-6.646L198.043,198.525z"/><path fill="#4393C9" d="M211.264,209.674c0,0-3.073,3.145-5.361,5.789c-2.286,2.645,0.215,4.287,4.789,3.289c4.503-1.002,8.934,2.5,8.934,2.5H193.54l11.077-11.648h6.646V209.674z"/><path d="M248.712,267.205h-43.666c-0.189,0-0.375-0.053-0.535-0.154l-11.506-7.291c-0.286-0.182-0.461-0.494-0.465-0.834c-0.004-0.338,0.164-0.656,0.446-0.844l10.217-6.789l-10.194-6.396c-0.257-0.162-0.427-0.43-0.462-0.732c-0.035-0.301,0.068-0.602,0.281-0.818l10.795-10.928l-10.776-10.375c-0.193-0.186-0.303-0.439-0.307-0.707c-0.003-0.268,0.101-0.525,0.288-0.717l10.95-11.084l-11.086-17.697c-0.176-0.281-0.201-0.631-0.067-0.934l11.421-25.965V93.685c0-0.552,0.447-1,1-1h43.666c0.197,0,0.39,0.058,0.554,0.167l25.688,17.078c0.341,0.159,0.577,0.505,0.577,0.907c0,0.552-0.447,1-1,1c-0.005,0-0.012,0-0.02,0h-24.799v53.314c0,0.137-0.028,0.273-0.084,0.4l-11.224,25.674l11.156,17.922c0.244,0.391,0.188,0.898-0.135,1.229l-10.729,10.93l10.712,10.379c0.19,0.184,0.3,0.438,0.304,0.705c0.003,0.266-0.1,0.523-0.286,0.713l-10.566,10.764l10.387,6.559c0.286,0.18,0.461,0.494,0.466,0.832c0.004,0.338-0.163,0.656-0.444,0.844l-10.161,6.797l10.143,6.467c0.375,0.238,0.547,0.695,0.423,1.123C249.548,266.912,249.156,267.205,248.712,267.205z M205.336,265.205h39.947l-8.543-5.447c-0.285-0.18-0.459-0.494-0.463-0.832s0.163-0.654,0.444-0.842l10.155-6.791l-10.134-6.398c-0.255-0.16-0.424-0.43-0.459-0.73c-0.035-0.299,0.067-0.6,0.279-0.814l10.729-10.932l-10.712-10.377c-0.19-0.186-0.3-0.439-0.304-0.705c-0.003-0.268,0.1-0.523,0.286-0.713l10.884-11.088l-11.019-17.701c-0.175-0.279-0.199-0.627-0.067-0.928l11.351-25.965v-54.105c0-0.552,0.447-1,1-1H271.2l-22.79-15.151h-42.364v70.466c0,0.139-0.029,0.275-0.085,0.402l-11.292,25.672l11.225,17.918c0.246,0.395,0.189,0.904-0.136,1.234l-10.795,10.928l10.776,10.375c0.192,0.186,0.303,0.441,0.307,0.709c0.003,0.268-0.101,0.525-0.288,0.715l-10.63,10.762l10.449,6.557c0.288,0.18,0.464,0.494,0.469,0.834c0.004,0.34-0.164,0.658-0.446,0.846l-10.223,6.795L205.336,265.205z"/><path fill="#F96488" d="M126.79,102.617c0,0,3.145-1.214,5.646,1.93c3.645,4.502,10.434,1.358,6.574-2.359c-4.859-4.645-3.431-11.648-14.15-15.008"/><path d="M136.855,107.766c-1.653,0-3.646-0.672-5.197-2.589c-2.026-2.548-4.484-1.637-4.508-1.627c-0.514,0.2-1.094-0.056-1.293-0.572c-0.199-0.515,0.057-1.094,0.572-1.293c1.324-0.511,4.448-0.702,6.789,2.24c1.358,1.677,3.148,2.014,4.366,1.771c0.794-0.159,1.399-0.577,1.542-1.065c0.138-0.475-0.149-1.086-0.81-1.723c-1.818-1.738-2.812-3.771-3.772-5.738c-1.752-3.587-3.407-6.975-9.983-9.036c-0.527-0.165-0.821-0.726-0.655-1.253c0.165-0.528,0.728-0.821,1.253-0.655c7.398,2.318,9.409,6.435,11.182,10.066c0.925,1.892,1.797,3.679,3.36,5.173c1.652,1.591,1.551,3.018,1.344,3.727c-0.359,1.23-1.506,2.151-3.067,2.465C137.631,107.727,137.252,107.766,136.855,107.766z"/><path fill="#F96488" d="M123.788,91.611c8.29,1.287,8.004,12.007,3.502,15.652c-2.645,2.072-5.574,0.357-5.574,0.357"/><path d="M124.36,109.29c-1.739,0-3.061-0.755-3.149-0.807c-0.477-0.279-0.637-0.892-0.357-1.368c0.279-0.476,0.891-0.637,1.368-0.357c0.092,0.052,2.392,1.333,4.452-0.281c2.234-1.809,3.31-5.771,2.437-9.011c-0.422-1.565-1.694-4.278-5.475-4.865c-0.546-0.085-0.919-0.596-0.835-1.142c0.085-0.546,0.601-0.917,1.142-0.835c3.579,0.556,6.167,2.859,7.1,6.321c1.081,4.01-0.261,8.78-3.122,11.096C126.704,108.993,125.45,109.29,124.36,109.29z"/><path fill="#F96488" d="M118.428,92.827c7.432,0.571,7.29,7.503,5.932,11.005c-1.287,3.359-5.932,7.647-8.934,4.789c-2.645-2.573,3.787-6.075,0.929-9.005"/><path d="M117.69,110.559c-1.104,0-2.11-0.411-2.953-1.213c-1.861-1.811-0.609-3.936,0.306-5.487c1.062-1.802,1.438-2.681,0.597-3.544c-0.386-0.396-0.378-1.028,0.018-1.414c0.396-0.385,1.029-0.378,1.414,0.018c1.998,2.048,0.667,4.307-0.306,5.956c-1.044,1.771-1.269,2.421-0.642,3.031c0.613,0.583,1.334,0.775,2.202,0.579c2.083-0.47,4.319-2.97,5.1-5.009c0.809-2.086,1.041-5.111-0.259-7.175c-0.925-1.468-2.545-2.301-4.816-2.476c-0.551-0.042-0.963-0.523-0.92-1.074c0.042-0.55,0.516-0.969,1.074-0.92c3.657,0.281,5.474,2.006,6.354,3.404c1.785,2.833,1.349,6.598,0.434,8.959c-0.982,2.563-3.692,5.601-6.526,6.241C118.399,110.517,118.04,110.559,117.69,110.559z"/><path d="M100.918,127.273c-0.442,0-0.847-0.295-0.966-0.743c-0.405-1.52-0.307-3.177,0.3-5.065c0.168-0.525,0.729-0.817,1.258-0.646c0.526,0.169,0.815,0.732,0.646,1.258c-0.486,1.512-0.575,2.8-0.271,3.938c0.142,0.534-0.175,1.082-0.709,1.224C101.09,127.262,101.003,127.273,100.918,127.273z"/><path fill="#F96488" d="M246.782,129.346c0,0,0.929-3.073-3.001-5.359c-3.932-2.215-1.502-10.22,3.357-8.076c4.86,2.073,7.576,7.647,6.433,11.078C252.143,131.204,249.427,130.847,246.782,129.346z"/><path d="M249.958,131.379c-1.09,0-2.29-0.381-3.669-1.164c-0.407-0.23-0.6-0.712-0.464-1.159c0.022-0.083,0.603-2.373-2.547-4.206c-2.335-1.316-2.807-4.116-2.232-6.305c0.637-2.428,2.404-3.997,4.503-3.997c0.651,0,1.322,0.15,1.993,0.446c5.459,2.328,8.237,8.53,6.978,12.309C253.379,130.673,251.409,131.379,249.958,131.379z M247.87,128.79c0.803,0.391,1.503,0.589,2.088,0.589c0.75,0,1.843-0.281,2.666-2.712c0.969-2.904-1.437-7.943-5.878-9.837c-0.427-0.188-0.825-0.281-1.197-0.281c-1.411,0-2.266,1.349-2.568,2.504c-0.38,1.446-0.127,3.262,1.292,4.062C247.581,125.041,247.941,127.512,247.87,128.79z"/><path fill="#F96488" d="M247.997,137.279c0,0,0.214-3.216-4.074-4.574s-3.645-9.648,1.501-8.648c5.146,1.001,9.005,5.86,8.648,9.434C253.714,137.994,250.927,138.208,247.997,137.279z"/><path d="M250.457,138.722c-0.819,0-1.723-0.16-2.762-0.49c-0.439-0.139-0.727-0.56-0.696-1.02c0.004-0.088,0.058-2.466-3.378-3.554c-2.786-0.882-3.846-3.921-3.452-6.466c0.454-2.932,2.682-4.655,5.445-4.116c5.802,1.128,9.846,6.579,9.453,10.515C254.73,137.828,252.374,138.722,250.457,138.722z M248.937,136.507c0.568,0.143,1.078,0.214,1.521,0.214c1.097,0,2.385-0.376,2.618-3.31c0.305-3.053-3.127-7.456-7.843-8.373c-0.222-0.043-0.437-0.065-0.64-0.065c-1.909,0-2.355,1.932-2.447,2.523c-0.257,1.662,0.385,3.718,2.079,4.255C247.844,132.898,248.728,135.247,248.937,136.507z"/><path fill="#F96488" d="M248.712,144.568c0,0-0.071-3.216-4.431-4.217c-4.432-1-4.432-9.362,0.857-8.719c5.217,0.572,9.433,5.146,9.433,8.719C254.429,144.783,251.784,145.211,248.712,144.568z"/><path d="M250.727,145.806c-0.66,0-1.387-0.084-2.22-0.259c-0.455-0.096-0.784-0.492-0.795-0.957c-0.004-0.088-0.16-2.462-3.654-3.264c-2.959-0.667-4.249-3.793-3.96-6.395c0.294-2.633,2.051-4.334,4.477-4.334c0.22,0,0.447,0.014,0.686,0.042c5.802,0.636,10.312,5.743,10.312,9.711C255.427,144.866,252.857,145.806,250.727,145.806zM249.578,143.71c0.421,0.064,0.801,0.096,1.148,0.096c1.42,0,2.747-0.422,2.846-3.487c-0.001-3.042-3.812-7.174-8.543-7.692c-0.165-0.02-0.312-0.029-0.455-0.029c-2.045,0-2.422,1.956-2.488,2.555c-0.196,1.764,0.653,3.826,2.415,4.223C248.174,140.219,249.258,142.473,249.578,143.71z"/><path d="M146.801,225.684c-7.509,0-16.035-2.791-16.395-2.91c-0.524-0.174-0.809-0.738-0.635-1.264c0.172-0.525,0.736-0.807,1.263-0.635c0.085,0.027,8.586,2.809,15.767,2.809c7.274,0,17.651-1.051,19.614-1.414c0.543-0.102,1.064,0.26,1.165,0.803s-0.259,1.064-0.802,1.164C164.771,224.609,154.187,225.684,146.801,225.684z"/><path fill="#848484" d="M105.35,113.98c0,0-2.287-10.291-10.648-17.009c1.787-0.215,6.79-1.43,6.79-1.43s5.717,4.002,8.576,14.508L105.35,113.98z"/><path d="M105.35,114.98c-0.108,0-0.217-0.018-0.323-0.053c-0.33-0.112-0.578-0.389-0.654-0.729c-0.022-0.1-2.323-10.04-10.299-16.447c-0.313-0.252-0.446-0.668-0.335-1.055c0.111-0.387,0.442-0.67,0.842-0.718c1.708-0.206,6.624-1.397,6.673-1.409c0.279-0.067,0.574-0.012,0.81,0.152c0.245,0.172,6.047,4.333,8.967,15.064c0.103,0.377-0.024,0.78-0.325,1.031l-4.717,3.931C105.808,114.9,105.581,114.98,105.35,114.98z M96.939,97.592c5.544,5.196,8.053,11.697,8.961,14.627l3.027-2.523c-2.356-8.117-6.477-12.057-7.677-13.068C100.393,96.833,98.539,97.267,96.939,97.592z"/><path fill="#848484" d="M103.206,101.403c-2.43,1.358-5.289,2.144-8.219,2.358c-4.645,0.286-9.433-0.929-12.649-3.573c-5.289-4.289-4.502-10.577,1.787-14.222c6.218-3.573,15.58-3.073,20.869,1.215C110.281,91.469,109.495,97.829,103.206,101.403z"/><path d="M93.655,104.802c-4.626,0-8.982-1.4-11.953-3.842c-2.702-2.191-4.069-4.992-3.843-7.882c0.245-3.132,2.292-5.965,5.763-7.978c2.818-1.62,6.385-2.51,10.047-2.51c4.607,0,8.963,1.39,11.953,3.813c2.72,2.206,4.086,5.028,3.845,7.948c-0.259,3.141-2.308,5.955-5.768,7.921c-2.499,1.396-5.485,2.255-8.64,2.486C94.584,104.788,94.12,104.802,93.655,104.802z M93.67,84.59c-3.318,0-6.531,0.796-9.048,2.243c-2.882,1.67-4.577,3.944-4.769,6.401c-0.173,2.214,0.933,4.408,3.114,6.177c2.89,2.376,7.379,3.63,11.958,3.352c2.854-0.209,5.553-0.982,7.793-2.233c2.862-1.626,4.553-3.88,4.756-6.343c0.185-2.24-0.92-4.453-3.111-6.229C101.724,85.817,97.826,84.59,93.67,84.59z"/><path fill="#FFFFFF" d="M103.206,97.472c-2.43,1.358-5.289,2.144-8.219,2.358c-4.645,0.286-9.433-0.929-12.649-3.573c-5.289-4.289-4.502-10.577,1.787-14.222c6.218-3.573,15.58-3.073,20.869,1.215C110.281,87.539,109.495,93.898,103.206,97.472z"/><path d="M93.655,100.872c-4.626,0-8.982-1.4-11.953-3.842c-2.702-2.191-4.069-4.992-3.843-7.882c0.245-3.132,2.292-5.965,5.763-7.978c2.818-1.62,6.385-2.51,10.047-2.51c4.607,0,8.963,1.39,11.953,3.813c2.72,2.206,4.086,5.028,3.845,7.948c-0.259,3.141-2.308,5.955-5.768,7.921c-2.499,1.396-5.485,2.255-8.64,2.486C94.584,100.857,94.12,100.872,93.655,100.872z M93.67,80.66c-3.318,0-6.531,0.796-9.048,2.243c-2.882,1.67-4.577,3.944-4.769,6.401c-0.173,2.214,0.933,4.408,3.114,6.177c2.89,2.375,7.379,3.633,11.958,3.352c2.854-0.209,5.553-0.982,7.793-2.233c2.862-1.626,4.553-3.88,4.756-6.343c0.185-2.24-0.92-4.453-3.111-6.229C101.724,81.887,97.826,80.66,93.67,80.66z"/><polygon fill="#D12A56" points="90.557,86.466 97.489,92.041 80.766,94.685 "/><path d="M80.765,95.685c-0.387,0-0.745-0.225-0.91-0.585c-0.186-0.409-0.077-0.892,0.267-1.181l9.791-8.218c0.367-0.307,0.897-0.312,1.27-0.013l6.932,5.574c0.309,0.248,0.442,0.654,0.34,1.037c-0.102,0.382-0.419,0.668-0.81,0.73l-16.723,2.644C80.869,95.681,80.817,95.685,80.765,95.685z M90.57,87.76l-6.402,5.374l10.935-1.729L90.57,87.76z"/><polygon fill="#2C34CE" points="97.846,91.969 90.914,86.466 106.493,84.679 "/><path d="M97.846,92.969c-0.22,0-0.439-0.072-0.622-0.217l-6.932-5.502c-0.317-0.251-0.451-0.669-0.34-1.058c0.111-0.389,0.446-0.672,0.848-0.719l15.58-1.787c0.435-0.048,0.857,0.193,1.032,0.598c0.175,0.405,0.064,0.876-0.273,1.161l-8.647,7.29C98.304,92.89,98.075,92.969,97.846,92.969z M93.427,87.185l4.4,3.492l5.488-4.626L93.427,87.185z"/><path fill="#FFFFFF" d="M96.273,90.897c-0.5,0.286-1.143,0.5-1.786,0.5c-1.001,0.072-2.073-0.215-2.788-0.787c-1.143-0.929-1-2.287,0.357-3.072c1.358-0.787,3.431-0.644,4.574,0.286C97.846,88.682,97.631,90.111,96.273,90.897z"/><path d="M94.182,92.408c-1.167,0-2.299-0.371-3.107-1.017c-0.793-0.645-1.206-1.518-1.136-2.4c0.073-0.921,0.662-1.766,1.617-2.319c1.656-0.96,4.28-0.783,5.706,0.375c0.76,0.534,1.205,1.374,1.165,2.263c-0.044,0.976-0.646,1.869-1.652,2.451c-0.718,0.41-1.528,0.635-2.287,0.635C94.434,92.404,94.308,92.408,94.182,92.408z M94.114,88.028c-0.585,0-1.137,0.134-1.556,0.376c-0.377,0.218-0.605,0.49-0.625,0.746c-0.023,0.296,0.239,0.557,0.397,0.685c0.489,0.392,1.318,0.625,2.086,0.565c0.481-0.002,0.951-0.137,1.36-0.371c0.388-0.225,0.64-0.535,0.652-0.807c0.011-0.253-0.197-0.456-0.374-0.581C95.559,88.242,94.854,88.028,94.114,88.028z"/><path fill="#FFFFFF" d="M135.509,266.205c-0.143-3.504-1.645-6.291-3.431-6.291c-1.787,0-3.288,2.717-3.43,6.291H135.509z"/><path d="M135.509,267.205h-6.861c-0.272,0-0.533-0.111-0.721-0.307s-0.289-0.461-0.278-0.732c0.167-4.201,2.03-7.252,4.429-7.252c2.396,0,4.259,3.049,4.43,7.25c0.011,0.273-0.089,0.537-0.277,0.734C136.042,267.094,135.781,267.205,135.509,267.205zM129.733,265.205h4.69c-0.344-2.684-1.521-4.291-2.345-4.291C131.149,260.914,130.058,262.631,129.733,265.205z"/><path fill="#FFFFFF" d="M126.433,266.205c-0.144-3.504-1.644-6.291-3.431-6.291c-1.787,0-3.288,2.717-3.43,6.291H126.433z"/><path d="M126.433,267.205h-6.861c-0.272,0-0.533-0.111-0.721-0.307s-0.289-0.461-0.278-0.732c0.167-4.201,2.03-7.252,4.429-7.252c2.395,0,4.258,3.049,4.43,7.25c0.011,0.273-0.089,0.537-0.278,0.734C126.965,267.094,126.705,267.205,126.433,267.205zM120.657,265.205h4.689c-0.344-2.684-1.521-4.291-2.344-4.291C122.073,260.914,120.981,262.631,120.657,265.205z"/><path fill="#FFFFFF" d="M117.499,266.205c-0.143-3.504-1.644-6.291-3.43-6.291c-1.787,0-3.287,2.717-3.431,6.291H117.499z"/><path d="M117.499,267.205h-6.861c-0.272,0-0.533-0.111-0.721-0.307c-0.188-0.197-0.289-0.461-0.278-0.732c0.168-4.201,2.032-7.252,4.43-7.252c2.396,0,4.258,3.049,4.429,7.25c0.011,0.273-0.089,0.537-0.278,0.734C118.032,267.094,117.771,267.205,117.499,267.205z M111.723,265.205h4.69c-0.343-2.684-1.521-4.291-2.344-4.291C113.14,260.914,112.049,262.631,111.723,265.205z"/><path fill="#FFFFFF" d="M184.249,266.205c-0.144-3.504-1.644-6.291-3.431-6.291s-3.287,2.717-3.431,6.291H184.249z"/><path d="M184.249,267.205h-6.861c-0.272,0-0.532-0.111-0.721-0.307c-0.189-0.197-0.289-0.461-0.278-0.732c0.169-4.201,2.031-7.252,4.43-7.252c2.395,0,4.258,3.049,4.43,7.25c0.012,0.273-0.089,0.537-0.277,0.734C184.782,267.094,184.521,267.205,184.249,267.205z M178.473,265.205h4.69c-0.345-2.684-1.522-4.291-2.345-4.291C179.89,260.914,178.798,262.631,178.473,265.205z"/><path fill="#FFFFFF" d="M175.173,266.205c-0.143-3.504-1.645-6.291-3.43-6.291c-1.788,0-3.289,2.717-3.431,6.291H175.173z"/><path d="M175.173,267.205h-6.86c-0.272,0-0.532-0.111-0.721-0.307s-0.289-0.461-0.278-0.732c0.166-4.201,2.029-7.252,4.43-7.252c2.396,0,4.258,3.049,4.429,7.25c0.011,0.273-0.089,0.537-0.277,0.734C175.706,267.094,175.445,267.205,175.173,267.205zM169.397,265.205h4.689c-0.344-2.684-1.521-4.291-2.344-4.291C170.813,260.914,169.722,262.631,169.397,265.205z"/><path fill="#FFFFFF" d="M166.238,266.205c-0.142-3.504-1.643-6.291-3.431-6.291c-1.785,0-3.287,2.717-3.43,6.291H166.238z"/><path d="M166.238,267.205h-6.86c-0.272,0-0.532-0.111-0.721-0.307s-0.289-0.461-0.278-0.732c0.167-4.201,2.03-7.252,4.429-7.252c2.397,0,4.26,3.051,4.43,7.252c0.011,0.271-0.089,0.535-0.277,0.732C166.771,267.094,166.511,267.205,166.238,267.205zM160.463,265.205h4.689c-0.343-2.684-1.521-4.291-2.345-4.291C161.879,260.914,160.787,262.631,160.463,265.205z"/><path d="M248.712,111.836h-17.938c-0.197,0-0.391-0.059-0.555-0.168l-25.728-17.151c-0.46-0.306-0.584-0.927-0.277-1.387c0.306-0.459,0.925-0.585,1.387-0.277l25.476,16.983h17.636c0.553,0,1,0.448,1,1S249.265,111.836,248.712,111.836z"/><path d="M248.712,166.15h-43.666c-0.553,0-1-0.447-1-1s0.447-1,1-1h43.666c0.553,0,1,0.447,1,1S249.265,166.15,248.712,166.15z"/><path d="M237.277,192.307H193.54c-0.553,0-1-0.447-1-1s0.447-1,1-1h43.737c0.553,0,1,0.447,1,1S237.83,192.307,237.277,192.307z"/><path d="M248.712,210.674h-43.666c-0.553,0-1-0.447-1-1s0.447-1,1-1h43.666c0.553,0,1,0.447,1,1S249.265,210.674,248.712,210.674z"/><path d="M237.277,222.322H193.54c-0.553,0-1-0.447-1-1s0.447-1,1-1h43.737c0.553,0,1,0.447,1,1S237.83,222.322,237.277,222.322z"/><path d="M248.712,233.4h-43.666c-0.553,0-1-0.447-1-1s0.447-1,1-1h43.666c0.553,0,1,0.447,1,1S249.265,233.4,248.712,233.4z"/><path d="M237.277,245.049H193.54c-0.553,0-1-0.447-1-1s0.447-1,1-1h43.737c0.553,0,1,0.447,1,1S237.83,245.049,237.277,245.049z"/><path d="M247.568,252.27h-43.666c-0.553,0-1-0.447-1-1s0.447-1,1-1h43.666c0.553,0,1,0.447,1,1S248.121,252.27,247.568,252.27z"/><path d="M237.277,259.916H193.54c-0.553,0-1-0.447-1-1s0.447-1,1-1h43.737c0.553,0,1,0.447,1,1S237.83,259.916,237.277,259.916z"/><circle fill="#FFFFFF" cx="140.725" cy="135.849" r="4.717"/><path d="M140.725,141.566c-3.151,0-5.716-2.564-5.716-5.717s2.564-5.717,5.716-5.717c3.153,0,5.719,2.565,5.719,5.717S143.878,141.566,140.725,141.566z M140.725,132.132c-2.049,0-3.716,1.667-3.716,3.717c0,2.049,1.667,3.717,3.716,3.717c2.051,0,3.719-1.667,3.719-3.717C144.443,133.8,142.775,132.132,140.725,132.132z"/><circle fill="#FFFFFF" cx="154.304" cy="135.849" r="4.717"/><path d="M154.304,141.566c-3.152,0-5.717-2.564-5.717-5.717s2.564-5.717,5.717-5.717s5.718,2.565,5.718,5.717S157.456,141.566,154.304,141.566z M154.304,132.132c-2.05,0-3.717,1.667-3.717,3.717c0,2.049,1.667,3.717,3.717,3.717s3.718-1.667,3.718-3.717C158.021,133.8,156.354,132.132,154.304,132.132z"/><path fill="#F96488" d="M144.085,140.709l-0.071-1.287c0,0-3.289,0.072-5.934,1.716c-2.644,1.644,1.431,2.358,1.431,2.358L144.085,140.709z"/><path fill="#E84463" d="M137.724,141.353c0,0,2.645-2.001,7.36-2.001"/><path d="M137.727,142.35c-0.305,0-0.605-0.138-0.802-0.399c-0.329-0.44-0.243-1.063,0.195-1.396c0.119-0.09,2.97-2.204,7.964-2.204c0.553,0,1,0.448,1,1s-0.447,1-1,1c-4.282,0-6.736,1.783-6.761,1.801C138.144,142.286,137.935,142.35,137.727,142.35z"/><path fill="#F96488" d="M156.021,141.996l0.643-1.144c0,0-2.787-1.644-5.932-1.644s0,2.788,0,2.788H156.021z"/><path fill="#E84463" d="M150.23,139.208c0,0,3.287-0.357,7.362,2.144"/><path d="M157.592,142.353c-0.179,0-0.359-0.047-0.522-0.148c-3.696-2.269-6.711-2.004-6.735-2.001c-0.551,0.06-1.038-0.344-1.096-0.892c-0.057-0.547,0.337-1.037,0.884-1.097c0.15-0.016,3.678-0.364,7.994,2.286c0.471,0.289,0.618,0.904,0.329,1.375C158.256,142.183,157.928,142.353,157.592,142.353z"/><circle cx="141.87" cy="135.063" r="1.644"/><circle cx="155.448" cy="135.063" r="1.644"/><circle fill="#FFFFFF" cx="140.439" cy="122.343" r="4.931"/><path d="M140.439,128.273c-3.271,0-5.931-2.661-5.931-5.931c0-3.27,2.66-5.931,5.931-5.931s5.931,2.661,5.931,5.931C146.37,125.613,143.71,128.273,140.439,128.273z M140.439,118.412c-2.167,0-3.931,1.763-3.931,3.931s1.764,3.931,3.931,3.931s3.931-1.764,3.931-3.931S142.606,118.412,140.439,118.412z"/><circle fill="#FFFFFF" cx="154.805" cy="122.343" r="4.931"/><path d="M154.805,128.273c-3.271,0-5.932-2.661-5.932-5.931c0-3.27,2.661-5.931,5.932-5.931s5.931,2.661,5.931,5.931C160.735,125.613,158.075,128.273,154.805,128.273z M154.805,118.412c-2.168,0-3.932,1.763-3.932,3.931s1.764,3.931,3.932,3.931c2.167,0,3.931-1.764,3.931-3.931S156.972,118.412,154.805,118.412z"/><path fill="#F96488" d="M135.509,117.625v1.787c0,0,4.43,0.214,8.218-1.787s-1.786-3.359-1.786-3.359L135.509,117.625z"/><path d="M159.092,116.338c-0.209,0-0.419-0.065-0.599-0.2c-2.525-1.894-4.745-1.944-4.767-1.944c-0.55-0.007-0.994-0.457-0.991-1.006c0.004-0.55,0.447-0.994,0.997-0.994c0.116,0,2.87,0.027,5.96,2.344c0.442,0.332,0.532,0.958,0.2,1.4C159.696,116.2,159.396,116.338,159.092,116.338z"/><path fill="#E84463" d="M144.298,117.268c0,0-3.715,2.501-10.219,2.073"/><path d="M135.573,120.391c-0.502,0-1.021-0.017-1.56-0.052c-0.552-0.037-0.969-0.513-0.933-1.064c0.036-0.551,0.513-0.973,1.063-0.932c6.041,0.401,9.562-1.883,9.598-1.906c0.462-0.306,1.08-0.18,1.386,0.277c0.306,0.458,0.186,1.076-0.271,1.384C144.706,118.199,141.379,120.391,135.573,120.391z"/><path fill="#F96488" d="M144.014,127.488l-0.072-1.43c0,0-3.43,0.072-6.289,1.787c-2.859,1.715,1.573,2.501,1.573,2.501L144.014,127.488z"/><path fill="#E84463" d="M137.295,128.131c0,0,2.787-2.072,7.789-2.072"/><path d="M137.296,129.131c-0.306,0-0.607-0.139-0.804-0.403c-0.329-0.443-0.237-1.07,0.206-1.399c0.125-0.092,3.113-2.27,8.386-2.27c0.553,0,1,0.448,1,1s-0.447,1-1,1c-4.617,0-7.167,1.856-7.192,1.875C137.712,129.066,137.503,129.131,137.296,129.131z"/><path fill="#F96488" d="M156.591,128.846l0.644-1.215c0,0-2.931-1.715-6.289-1.715c-3.287,0,0,2.931,0,2.931H156.591z"/><path fill="#E84463" d="M150.516,125.916c0,0,3.431-0.357,7.72,2.287"/><path d="M158.234,129.203c-0.179,0-0.36-0.048-0.523-0.149c-3.911-2.411-7.064-2.145-7.097-2.143c-0.563,0.043-1.037-0.35-1.091-0.896c-0.055-0.548,0.341-1.036,0.889-1.093c0.152-0.016,3.824-0.359,8.348,2.431c0.471,0.29,0.616,0.906,0.327,1.376C158.897,129.034,158.57,129.203,158.234,129.203z"/><circle cx="141.654" cy="121.556" r="1.787"/><circle cx="156.021" cy="121.556" r="1.787"/><path fill="#A30027" d="M142.155,152.287c0,0,4.86-1.93,8.576,0.357c3.645,2.357,1.356,5.359-1.573,4.002c-3.002-1.287-4.86-1.072-6.646-0.428C140.725,156.861,139.152,153.574,142.155,152.287z"/><path d="M150.593,157.984c-0.612,0-1.236-0.145-1.854-0.432c-1.322-0.566-2.487-0.848-3.535-0.848c-0.757,0-1.482,0.141-2.352,0.453c-1.415,0.516-2.994-0.504-3.321-2.098c-0.238-1.16,0.203-2.824,2.231-3.693c0.11-0.043,2.147-0.841,4.655-0.841c1.846,0,3.474,0.426,4.839,1.267c1.842,1.191,2.674,2.762,2.245,4.213C153.146,157.207,152.005,157.984,150.593,157.984zM145.203,154.705c1.324,0,2.747,0.334,4.35,1.021c0.976,0.451,1.871,0.256,2.03-0.287c0.12-0.408-0.173-1.164-1.395-1.955c-1.026-0.633-2.302-0.959-3.771-0.959c-2.13,0-3.875,0.684-3.893,0.691c-0.769,0.328-1.154,0.859-1.035,1.441c0.083,0.406,0.38,0.736,0.686,0.619C143.255,154.887,144.218,154.705,145.203,154.705z"/><path d="M147.73,107.191c-0.297,0-0.591-0.132-0.788-0.383c-0.341-0.434-0.265-1.062,0.169-1.403c0.05-0.04,4.979-3.991,3.322-8.595c-2.517-6.992-0.004-9.288,0.826-9.825c0.464-0.3,1.083-0.167,1.383,0.296c0.3,0.464,0.167,1.083-0.297,1.383c-0.818,0.53-1.747,2.7-0.03,7.469c2.149,5.973-3.72,10.65-3.971,10.846C148.162,107.122,147.945,107.191,147.73,107.191z"/><path d="M153.377,105.476c-0.032,0-0.064-0.001-0.097-0.004c-0.55-0.053-0.953-0.542-0.899-1.092c0.02-0.2,0.506-4.933,3.332-7.221c1.191-0.965,2.604-1.363,4.208-1.18c0.549,0.062,0.942,0.558,0.88,1.107c-0.062,0.548-0.559,0.942-1.106,0.88c-1.06-0.121-1.953,0.124-2.724,0.748c-1.81,1.466-2.49,4.726-2.6,5.859C154.321,105.089,153.886,105.476,153.377,105.476z"/><path d="M145.943,104.689c-0.111,0-0.225-0.019-0.336-0.059c-0.52-0.186-0.791-0.758-0.605-1.278c0.405-1.139,0.793-3.112,0.385-3.93c-0.096-0.191-0.208-0.249-0.314-0.282c-0.355-0.104-0.622-0.1-0.782,0.022c-0.365,0.278-0.5,1.163-0.491,1.574c0.012,0.552-0.427,1.009-0.979,1.021c-0.527,0.005-1.009-0.427-1.021-0.979c-0.005-0.225-0.01-2.225,1.278-3.208c0.479-0.365,1.314-0.721,2.578-0.345c0.681,0.212,1.202,0.662,1.522,1.305c0.946,1.902-0.163,5.132-0.293,5.494C146.738,104.435,146.354,104.689,145.943,104.689z"/><path fill="#F982A4" d="M102.635,152.143c-0.037,0-0.074-0.002-0.112-0.006c-0.134-0.014-3.335-0.377-7.922-1.525c-0.536-0.134-0.861-0.677-0.728-1.213c0.134-0.536,0.679-0.861,1.213-0.727c4.445,1.112,7.625,1.474,7.657,1.477c0.549,0.062,0.944,0.556,0.883,1.105C103.571,151.766,103.138,152.143,102.635,152.143z"/><path fill="#F982A4" d="M88.555,148.784c-0.11,0-0.222-0.018-0.332-0.057c-2.633-0.925-5.33-2.15-8.016-3.643c-0.482-0.268-0.657-0.877-0.388-1.36c0.268-0.482,0.876-0.657,1.36-0.388c2.587,1.438,5.18,2.616,7.707,3.504c0.521,0.183,0.795,0.754,0.612,1.274C89.354,148.527,88.968,148.784,88.555,148.784z"/><path fill="#F982A4" d="M75.405,141.566c-0.229,0-0.459-0.078-0.647-0.238c-3.949-3.361-6.532-7.183-7.677-11.36c-4.765-16.93,7.701-27.584,7.827-27.689c0.424-0.354,1.053-0.297,1.407,0.126s0.298,1.053-0.124,1.408c-0.476,0.399-11.591,9.956-7.184,25.62c1.039,3.789,3.409,7.276,7.046,10.372c0.421,0.358,0.472,0.989,0.114,1.41C75.969,141.447,75.688,141.566,75.405,141.566z"/><path fill="#F982A4" d="M125.36,129.56c-0.547,0-0.994-0.44-1-0.989c-0.148-13.247,9.811-17.476,9.911-17.517c0.509-0.209,1.096,0.034,1.305,0.546c0.209,0.511-0.035,1.094-0.545,1.304c-0.365,0.152-8.804,3.802-8.671,15.644c0.006,0.552-0.437,1.005-0.989,1.011C125.368,129.56,125.364,129.56,125.36,129.56z"/><path fill="#F982A4" d="M149.57,219.797c-1.079,0-2.109-0.018-3.085-0.045c-19.599-0.504-32.476-9.947-33.014-10.348c-0.443-0.33-0.534-0.957-0.204-1.4c0.33-0.441,0.956-0.535,1.399-0.203c0.127,0.094,12.936,9.465,31.874,9.951c18.482,0.541,39.184-3.994,41.943-18.344c0.105-0.541,0.633-0.893,1.171-0.793c0.543,0.104,0.897,0.629,0.794,1.17c-1.393,7.24-6.729,12.662-15.86,16.113C166.32,219.023,156.879,219.797,149.57,219.797z"/><path fill="#E84463" d="M127.075,169.582c0,1-0.786,1.785-1.787,1.785c-1,0-1.786-0.785-1.786-1.785"/><path d="M125.289,172.367c-1.562,0-2.786-1.223-2.786-2.785c0-0.553,0.448-1,1-1s1,0.447,1,1c0,0.447,0.338,0.785,0.786,0.785s0.787-0.338,0.787-0.785c0-0.553,0.448-1,1-1s1,0.447,1,1C128.075,171.145,126.851,172.367,125.289,172.367z"/><path fill="#E84463" d="M170.957,169.582c0,1-0.787,1.785-1.788,1.785c-0.999,0-1.785-0.785-1.785-1.785"/><path d="M169.169,172.367c-1.562,0-2.785-1.223-2.785-2.785c0-0.553,0.447-1,1-1s1,0.447,1,1c0,0.447,0.338,0.785,0.785,0.785c0.449,0,0.788-0.338,0.788-0.785c0-0.553,0.447-1,1-1s1,0.447,1,1C171.957,171.145,170.732,172.367,169.169,172.367z"/><rect x="261.575" y="181.303" fill="#FFFFFF" width="5.002" height="112.703"/><path fill="#231F20" d="M267.577,295.006h-7.002V180.303h7.002V295.006z M262.575,293.006h3.002V182.303h-3.002V293.006z"/><path fill="#FFFFFF" d="M297.023,209.316c-1.145,1.572-3.646,3.217-5.575,3.502l-53.741,9.221c-1.932,0.355-3.79-1.002-4.146-2.932l-1.786-10.221c-0.358-1.928,1-3.787,2.929-4.143l53.744-9.221c1.929-0.357,4.859,0.359,6.432,1.43l4.289,3.074c1.572,1.143,2,3.357,0.856,5.002L297.023,209.316z"/><path fill="#231F20" d="M237.086,223.096c-2.17,0-4.108-1.637-4.509-3.807l-1.788-10.23c-0.22-1.186,0.056-2.402,0.778-3.414c0.71-0.994,1.76-1.664,2.954-1.885l53.757-9.221c0.379-0.07,0.812-0.107,1.274-0.107c2.001,0,4.423,0.697,5.889,1.695l4.31,3.088c2.029,1.477,2.519,4.338,1.095,6.385l-3.003,4.291c-1.374,1.889-4.114,3.602-6.248,3.918l-53.719,9.215C237.624,223.07,237.354,223.096,237.086,223.096z M289.553,196.432c-0.34,0-0.65,0.025-0.923,0.076l-53.758,9.221c-0.67,0.125-1.27,0.508-1.677,1.078c-0.404,0.566-0.56,1.24-0.438,1.898l1.788,10.23c0.254,1.373,1.594,2.373,2.979,2.119l53.754-9.221c1.607-0.238,3.903-1.688,4.936-3.105l2.99-4.273c0.806-1.158,0.525-2.783-0.625-3.619l-4.284-3.07C293.169,196.998,291.165,196.432,289.553,196.432z"/><path d="M248.133,211.502c-0.293-1.236-0.646-2.723-0.835-3.838l-0.041,0.006c-0.113,1.104-0.282,2.287-0.509,3.604l-0.789,4.627l-0.876,0.158l-2.222-3.996c-0.654-1.184-1.223-2.271-1.669-3.287l-0.025,0.004c0.176,1.119,0.382,2.631,0.547,3.986l0.459,3.879l-1.102,0.201l-1.004-9.061l1.473-0.268l2.313,4.049c0.572,1.035,1.057,1.961,1.451,2.85l0.04-0.008c0.061-0.943,0.201-1.984,0.394-3.186l0.805-4.615l1.474-0.268l2.186,8.844l-1.128,0.205L248.133,211.502z"/><path d="M257.233,210.529c0.432,2.377-1.024,3.711-2.577,3.992c-1.739,0.316-3.311-0.713-3.681-2.742c-0.391-2.15,0.786-3.668,2.564-3.99C255.385,207.453,256.876,208.566,257.233,210.529z M252.149,211.523c0.256,1.406,1.26,2.32,2.4,2.113c1.115-0.203,1.76-1.404,1.496-2.85c-0.198-1.088-0.993-2.371-2.374-2.119C252.293,208.92,251.927,210.303,252.149,211.523z"/><path d="M258.921,212.361c0.386,0.164,1.04,0.291,1.624,0.184c0.85-0.154,1.169-0.652,1.073-1.182c-0.102-0.559-0.489-0.803-1.409-0.965c-1.229-0.201-1.89-0.738-2.03-1.508c-0.188-1.035,0.494-2.037,1.873-2.287c0.65-0.119,1.255-0.037,1.652,0.109l-0.138,0.902c-0.281-0.113-0.784-0.242-1.382-0.133c-0.689,0.125-1.002,0.596-0.915,1.072c0.097,0.531,0.525,0.699,1.419,0.865c1.192,0.223,1.864,0.676,2.038,1.631c0.206,1.129-0.525,2.084-2.052,2.361c-0.703,0.129-1.385,0.074-1.885-0.109L258.921,212.361z"/><path d="M269.085,211.498c-0.276,0.215-0.915,0.551-1.777,0.707c-1.938,0.354-3.437-0.73-3.795-2.695c-0.359-1.977,0.732-3.656,2.829-4.039c0.69-0.125,1.332-0.064,1.681,0.037l-0.102,0.951c-0.309-0.109-0.772-0.174-1.41-0.059c-1.473,0.268-2.07,1.5-1.826,2.84c0.27,1.486,1.393,2.229,2.666,1.998c0.664-0.121,1.07-0.373,1.376-0.58L269.085,211.498z"/><path d="M275.631,207.18c0.433,2.377-1.024,3.711-2.577,3.994c-1.738,0.316-3.311-0.713-3.68-2.744c-0.392-2.15,0.785-3.668,2.563-3.99C273.782,204.104,275.273,205.217,275.631,207.18z M270.547,208.174c0.256,1.406,1.26,2.322,2.4,2.113c1.115-0.203,1.76-1.404,1.497-2.85c-0.198-1.088-0.994-2.369-2.374-2.119C270.69,205.57,270.324,206.953,270.547,208.174z"/><path d="M276.897,203.688l1.443,3.109c0.316,0.682,0.61,1.314,0.851,1.957l0.04-0.008c0.027-0.678,0.114-1.406,0.201-2.135l0.451-3.467l0.981-0.18l1.581,3.029c0.379,0.727,0.688,1.369,0.952,1.994l0.04-0.008c-0.013-0.67,0.036-1.379,0.111-2.174l0.328-3.391l1.155-0.209l-0.901,6.799l-1.062,0.193l-1.54-2.887c-0.356-0.676-0.658-1.279-0.955-2.006l-0.026,0.004c-0.02,0.799-0.097,1.5-0.197,2.23l-0.479,3.24l-1.062,0.193l-3.107-6.07L276.897,203.688z"/><rect x="78.407" y="170.725" fill="#FFFFFF" width="5.003" height="109.701"/><path fill="#231F20" d="M84.41,281.426h-7.003V169.725h7.003V281.426z M79.407,279.426h3.003V171.725h-3.003V279.426z"/><path fill="#FFFFFF" d="M50.177,198.311c1.215,1.572,3.788,3.074,5.717,3.289l54.029,7.074c1.93,0.287,3.716-1.145,4.002-3.074l1.358-10.291c0.287-1.928-1.143-3.785-3.073-4.002l-54.029-7.074c-1.929-0.285-4.788,0.5-6.36,1.715l-4.145,3.217c-1.572,1.213-1.858,3.43-0.643,5.002L50.177,198.311z"/><path fill="#231F20" d="M110.417,209.711L110.417,209.711c-0.211,0-0.425-0.016-0.64-0.047l-54.012-7.074c-2.166-0.24-4.976-1.854-6.379-3.668l-3.149-4.15c-0.746-0.967-1.074-2.164-0.919-3.369c0.155-1.203,0.776-2.279,1.748-3.031l4.144-3.213c1.764-1.365,4.951-2.234,7.12-1.914l54.012,7.07c1.169,0.131,2.28,0.766,3.029,1.74c0.75,0.975,1.08,2.215,0.903,3.402l-1.356,10.273C114.58,208.006,112.646,209.711,110.417,209.711z M57.327,185.174c-1.637,0-3.74,0.674-4.894,1.564l-4.144,3.215c-0.551,0.426-0.901,1.031-0.988,1.705s0.099,1.348,0.523,1.896l3.149,4.15c1.051,1.361,3.404,2.719,5.031,2.9l54.048,7.078c0.133,0.02,0.249,0.027,0.364,0.027c1.225,0,2.332-0.992,2.519-2.258l1.356-10.275c0.099-0.668-0.087-1.355-0.508-1.904c-0.419-0.545-1.034-0.9-1.685-0.973l-54.047-7.076C57.812,185.189,57.575,185.174,57.327,185.174z"/><path d="M60.003,187.975l1.163,0.152l-1.051,8.037l3.852,0.504l-0.127,0.977l-5.015-0.654L60.003,187.975z"/><path d="M71.196,195.262c-0.313,2.393-2.109,3.219-3.673,3.016c-1.752-0.23-2.935-1.691-2.667-3.736c0.284-2.168,1.868-3.252,3.66-3.018C70.375,191.766,71.455,193.281,71.196,195.262z M66.051,194.656c-0.186,1.418,0.491,2.594,1.641,2.744c1.123,0.148,2.104-0.799,2.294-2.258c0.144-1.096-0.223-2.559-1.614-2.74C66.981,192.221,66.212,193.426,66.051,194.656z"/><path d="M72.864,194.023c0.087-0.668,0.146-1.219,0.176-1.76l1.043,0.137l-0.072,1.08l0.026,0.004c0.402-0.574,1.229-1.078,2.299-0.938c0.896,0.117,2.217,0.834,1.927,3.053l-0.505,3.867l-1.177-0.154l0.488-3.732c0.136-1.043-0.138-1.963-1.248-2.109c-0.776-0.102-1.45,0.369-1.735,0.998c-0.074,0.141-0.125,0.338-0.152,0.537l-0.509,3.893l-1.178-0.152L72.864,194.023z"/><path d="M86.5,190.951l-1.023,7.824c-0.075,0.574-0.147,1.232-0.165,1.678l-1.057-0.137l0.094-1.131l-0.027-0.004c-0.456,0.676-1.316,1.121-2.373,0.982c-1.564-0.205-2.595-1.688-2.338-3.652c0.268-2.156,1.779-3.305,3.357-3.098c0.989,0.129,1.598,0.684,1.824,1.244l0.026,0.004l0.505-3.865L86.5,190.951z M84.583,196.455c0.019-0.148,0.033-0.35,0.011-0.502c-0.075-0.773-0.637-1.471-1.52-1.588c-1.217-0.158-2.08,0.816-2.267,2.248c-0.171,1.311,0.328,2.479,1.599,2.645c0.789,0.104,1.58-0.324,1.91-1.18c0.062-0.154,0.096-0.312,0.12-0.5L84.583,196.455z"/><path d="M93.496,198.178c-0.313,2.395-2.108,3.221-3.673,3.016c-1.751-0.229-2.934-1.689-2.666-3.736c0.284-2.166,1.867-3.252,3.66-3.018C92.674,194.684,93.754,196.197,93.496,198.178z M88.351,197.572c-0.186,1.418,0.491,2.596,1.641,2.746c1.123,0.146,2.104-0.801,2.295-2.258c0.144-1.098-0.223-2.559-1.614-2.742C89.282,195.137,88.512,196.342,88.351,197.572z"/><path d="M95.164,196.939c0.087-0.668,0.146-1.219,0.177-1.758l1.043,0.137l-0.073,1.078l0.026,0.004c0.402-0.572,1.229-1.078,2.299-0.938c0.897,0.117,2.217,0.834,1.927,3.055l-0.505,3.865l-1.176-0.154l0.488-3.73c0.136-1.045-0.139-1.965-1.248-2.109c-0.777-0.102-1.45,0.367-1.736,0.996c-0.073,0.141-0.125,0.338-0.152,0.539l-0.509,3.893l-1.178-0.154L95.164,196.939z"/><ellipse transform="matrix(-0.0433 0.9991 -0.9991 -0.0433 204.175 -75.4784)" fill="#FFFFFF" cx="138.228" cy="60.022" rx="4.717" ry="6.79"/><path fill="#231F20" d="M138.452,65.744c-0.156,0-0.313-0.003-0.472-0.01c-2.015-0.087-3.896-0.723-5.3-1.792c-1.511-1.15-2.305-2.662-2.236-4.258c0.136-3.134,3.709-5.571,8.03-5.374c4.363,0.189,7.673,2.846,7.536,6.048C145.877,63.379,142.557,65.744,138.452,65.744z M138.002,56.301c-2.982,0-5.476,1.557-5.559,3.471c-0.04,0.922,0.475,1.838,1.448,2.58c1.082,0.823,2.564,1.315,4.175,1.385c3.166,0.129,5.858-1.467,5.946-3.464c0.086-2.012-2.489-3.827-5.624-3.963C138.259,56.304,138.13,56.301,138.002,56.301z"/><ellipse transform="matrix(-0.0432 0.9991 -0.9991 -0.0432 211.9589 -54.5412)" fill="#FFFFFF" cx="132.097" cy="74.228" rx="2.573" ry="3.644"/><path fill="#231F20" d="M132.213,77.803c-0.089,0-0.18-0.002-0.271-0.006c-1.177-0.051-2.282-0.432-3.11-1.072c-0.918-0.709-1.419-1.693-1.375-2.699c0.085-1.993,2.172-3.478,4.794-3.368c1.178,0.051,2.282,0.432,3.111,1.072c0.918,0.709,1.419,1.693,1.375,2.699C136.654,76.352,134.709,77.803,132.213,77.803z M131.98,72.652c-1.473,0-2.495,0.755-2.525,1.46c-0.021,0.477,0.367,0.85,0.6,1.03c0.497,0.384,1.217,0.624,1.974,0.656l0.184,0.004c1.474,0,2.496-0.755,2.526-1.461c0.021-0.476-0.367-0.849-0.6-1.029c-0.498-0.385-1.218-0.624-1.975-0.657L131.98,72.652z"/><path fill="#FFFFFF" d="M130.506,130.275c0,0.929-0.787,1.715-1.716,1.715c-0.929,0-1.715-0.786-1.715-1.715s1.715-4.216,1.715-4.216S130.506,129.346,130.506,130.275z"/><path d="M128.791,132.99c-1.472,0-2.715-1.244-2.715-2.715c0-1.06,1.279-3.625,1.829-4.679c0.345-0.661,1.429-0.661,1.773,0c0.55,1.054,1.829,3.619,1.829,4.679C131.506,131.747,130.263,132.99,128.791,132.99z M128.791,128.346c-0.399,0.886-0.7,1.66-0.715,1.937c0,0.367,0.341,0.708,0.715,0.708s0.716-0.341,0.716-0.715C129.491,130.003,129.19,129.231,128.791,128.346z"/><path fill="#FFFFFF" d="M170.028,137.994c0,0.929-0.788,1.715-1.716,1.715c-0.929,0-1.716-0.787-1.716-1.715c0-0.929,1.716-4.217,1.716-4.217S170.028,136.993,170.028,137.994z"/><path d="M168.312,140.709c-1.472,0-2.716-1.244-2.716-2.715c0-1.06,1.279-3.625,1.829-4.68c0.172-0.329,0.512-0.536,0.882-0.537c0.382,0.005,0.712,0.202,0.887,0.529c0.552,1.033,1.834,3.559,1.834,4.688C171.028,139.465,169.784,140.709,168.312,140.709zM168.318,136.052c-0.403,0.891-0.706,1.671-0.722,1.949c0,0.367,0.341,0.708,0.716,0.708s0.716-0.341,0.716-0.715C169.021,137.715,168.719,136.934,168.318,136.052z"/><path fill="#FFFFFF" d="M128.791,144.64c0,0.929-0.786,1.715-1.715,1.715c-0.928,0-1.715-0.786-1.715-1.715c0-0.929,1.715-4.217,1.715-4.217S128.791,143.711,128.791,144.64z"/><path d="M127.075,147.355c-1.472,0-2.715-1.243-2.715-2.715c0-1.06,1.278-3.625,1.828-4.679c0.345-0.661,1.429-0.661,1.773,0c0.55,1.054,1.829,3.619,1.829,4.679C129.791,146.112,128.547,147.355,127.075,147.355z M127.075,142.711c-0.399,0.886-0.699,1.66-0.715,1.936c0,0.367,0.341,0.708,0.715,0.708c0.375,0,0.715-0.341,0.715-0.715C127.775,144.368,127.475,143.596,127.075,142.711z"/><path d="M64.328,270.85H41.101c-0.552,0-1-0.447-1-1s0.448-1,1-1h23.227c0.552,0,1,0.447,1,1S64.88,270.85,64.328,270.85z"/><path d="M86.268,295.006H63.042c-0.552,0-1-0.447-1-1s0.448-1,1-1h23.227c0.552,0,1,0.447,1,1S86.82,295.006,86.268,295.006z"/><path d="M183.391,300.15h-23.154c-0.553,0-1-0.447-1-1s0.447-1,1-1h23.154c0.553,0,1,0.447,1,1S183.943,300.15,183.391,300.15z"/><path d="M67.401,257.914H48.534c-0.552,0-1-0.447-1-1s0.448-1,1-1h18.867c0.552,0,1,0.447,1,1S67.953,257.914,67.401,257.914z"/><path d="M99.132,267.205c-0.55,0-0.997-0.443-1-0.994c-0.003-0.553,0.443-1.002,0.995-1.006l14.722-0.072c0.001,0,0.003,0,0.005,0c0.55,0,0.997,0.443,1,0.994c0.003,0.553-0.443,1.002-0.995,1.006l-14.722,0.072C99.136,267.205,99.134,267.205,99.132,267.205z"/><path d="M234.061,281.926H193.54c-0.553,0-1-0.447-1-1s0.447-1,1-1h40.521c0.553,0,1,0.447,1,1S234.613,281.926,234.061,281.926z"/><path d="M307.101,263.559h-40.45c-0.553,0-1-0.447-1-1s0.447-1,1-1h40.45c0.553,0,1,0.447,1,1S307.653,263.559,307.101,263.559z"/></svg>