<svg xmlns="http://www.w3.org/2000/svg" viewBox="0 0 238 284"><path fill="#FFE269" d="M185.756,130.038c0,0,20.723-15.499,28.892-40.939c8.173-25.439,11.625,24.008-2.105,54.754s-51.385,60.818-75.139,56.102C113.647,195.152,185.756,130.038,185.756,130.038z"/><path d="M142.599,201.445c-1.872,0-3.686-0.172-5.39-0.511c-2.93-0.592-4.733-2.061-5.365-4.367c-4.169-15.211,50.896-65.153,53.242-67.271c0.275-0.212,20.638-15.678,28.609-40.503c1.717-5.345,3.281-7.728,5.07-7.728c0.524,0,1.29,0.216,1.959,1.249c3.875,5.973,2.925,39.119-7.27,61.946C200.09,174.188,166.317,201.445,142.599,201.445zM218.739,83.062c0.009,0.008-1.201,0.31-3.14,6.343c-8.172,25.45-29.035,41.277-29.245,41.435c-15.656,14.144-55.774,53.554-52.582,65.199c0.422,1.54,1.675,2.5,3.829,2.936c1.572,0.312,3.255,0.472,4.997,0.472c22.628,0,56.176-27.216,69.03-56.001c9.532-21.344,10.769-52.116,7.754-59.38C219.025,83.201,218.749,83.065,218.739,83.062z"/><path fill="#FFFFFF" d="M63.274,174.685l-9.182-2.781c0,0-8.255,19.627,10.614,28.304c9.939-6.738,5.475-16.933,5.475-16.933l-6.907-8.338"/><path d="M64.706,201.207c-0.142,0-0.285-0.03-0.418-0.092c-19.522-8.977-11.204-29.395-11.118-29.6c0.199-0.472,0.721-0.719,1.212-0.569l9.182,2.781c0.393,0.119,0.658,0.458,0.704,0.841l6.683,8.068c0.06,0.071,0.108,0.151,0.146,0.236c0.048,0.109,4.677,11.039-5.83,18.162C65.099,201.148,64.903,201.207,64.706,201.207zM54.707,173.134c-0.546,1.621-1.605,5.39-1.381,9.685c0.383,7.34,4.178,12.8,11.283,16.236c8.115-5.873,5.171-14.108,4.708-15.257l-6.812-8.224c-0.027-0.032-0.051-0.065-0.073-0.101L54.707,173.134z"/><path fill="#2BAD72" d="M55.188,202.734c0,0,11.708-1.264,11.456-21.986C57.798,185.298,49.796,193.215,55.188,202.734z"/><path d="M54.641,203.799l-0.324-0.571c-1.905-3.363-2.364-6.764-1.366-10.105c1.981-6.636,9.142-11.158,13.234-13.264l1.438-0.739l0.02,1.617c0.261,21.385-11.833,22.937-12.348,22.992L54.641,203.799z M65.637,182.428c-3.856,2.184-9.21,6.044-10.77,11.267c-0.775,2.595-0.488,5.254,0.852,7.914C57.984,201.011,65.329,197.882,65.637,182.428z"/><path fill="#FFE269" d="M119.544,204.84c0,0,3.117,34.454,4.885,42.54c2.023,9.098,3.455,14.067-1.347,14.067c-5.476,0-27.04,0-32.769,0c-5.728,0,12.299-3.875,18.869-10.614c6.907-7.159,1.516-30.494-1.938-35.801"/><path d="M123.083,262.447H90.314c-0.711,0-1.903,0-2.09-1.009c-0.205-1.104,0.599-1.412,4.46-2.895c4.533-1.74,12.121-4.652,15.783-8.409c6.431-6.666,1.23-29.502-2.06-34.557c-0.301-0.463-0.17-1.083,0.292-1.384c0.462-0.301,1.083-0.17,1.384,0.292c3.706,5.695,9.14,29.453,1.819,37.041c-3.972,4.074-11.815,7.085-16.502,8.884c-0.031,0.012-0.062,0.024-0.093,0.036h29.775c1.306,0,1.656-0.438,1.771-0.582c1.058-1.321,0.134-5.433-1.036-10.637l-0.365-1.632c-1.761-8.058-4.776-41.258-4.904-42.667c-0.05-0.55,0.355-1.036,0.906-1.086c0.547-0.051,1.036,0.356,1.086,0.906c0.031,0.344,3.132,34.483,4.865,42.416l0.364,1.624c1.437,6.394,2.303,10.253,0.646,12.324C125.698,262.012,124.608,262.447,123.083,262.447z"/><path d="M116.636,40.404c-0.672,0-2.354-0.256-3.252-2.68c-0.458-1.285-0.856-1.616-1.053-1.701c-0.077-0.032-0.31-0.133-0.973,0.162c-1.014,0.46-2.052,0.507-2.99,0.131c-0.953-0.383-1.731-1.181-2.134-2.189c-0.555-1.384-1.068-1.563-1.824-1.413c-0.781,0.16-1.74-0.058-2.44-0.548c-0.606-0.424-0.998-1.031-1.103-1.712c-0.044-0.347-0.137-0.511-0.211-0.557c-0.066-0.043-0.199-0.04-0.337,0.005c-0.525,0.176-1.091-0.108-1.265-0.632c-0.175-0.524,0.108-1.091,0.632-1.266c0.716-0.237,1.458-0.164,2.037,0.2c0.436,0.274,0.984,0.839,1.125,1.973c0.018,0.11,0.109,0.238,0.269,0.35c0.284,0.198,0.681,0.271,0.902,0.226c1.852-0.373,3.225,0.514,4.072,2.631c0.199,0.497,0.581,0.898,1.023,1.076c0.424,0.171,0.904,0.138,1.425-0.1c0.989-0.439,1.83-0.496,2.58-0.175c0.906,0.389,1.588,1.296,2.145,2.855c0.516,1.392,1.288,1.37,1.379,1.365c0.527-0.046,1.03,0.343,1.093,0.877c0.063,0.533-0.284,1.02-0.815,1.104C116.902,40.39,116.798,40.404,116.636,40.404z"/><path d="M121.052,38.629c-0.102,0-0.206-0.016-0.309-0.05c-0.094-0.032-2.299-0.807-1.852-4.034c0.19-1.392-0.005-1.869-0.139-2.029c-0.14-0.168-0.457-0.266-0.942-0.288c-1.474-0.123-2.312-0.808-2.761-1.361c-0.636-0.783-0.925-1.833-0.794-2.879c0.185-1.472-0.219-1.891-0.979-2.119c-0.788-0.236-1.536-0.895-1.906-1.676c-0.316-0.668-0.344-1.388-0.078-2.025c0.106-0.268,0.101-0.443,0.058-0.515c-0.038-0.062-0.143-0.116-0.257-0.129c-0.549-0.061-0.944-0.556-0.883-1.104c0.061-0.549,0.556-0.945,1.104-0.883c0.737,0.082,1.392,0.489,1.751,1.089c0.385,0.643,0.413,1.459,0.078,2.298c-0.023,0.055-0.076,0.182,0.034,0.414c0.143,0.302,0.455,0.55,0.673,0.615c1.871,0.562,2.675,2.003,2.389,4.283c-0.062,0.501,0.073,1.014,0.363,1.371c0.296,0.365,0.747,0.576,1.338,0.625c1.049,0.05,1.829,0.379,2.35,1.006c0.637,0.766,0.816,1.87,0.582,3.58c-0.209,1.508,0.461,1.844,0.538,1.877c0.492,0.213,0.751,0.783,0.561,1.284C121.819,38.377,121.452,38.629,121.052,38.629z"/><path d="M118.449,39.388c-0.175,0-0.352-0.046-0.513-0.142c-1.079-0.646-1.75-1.847-1.75-3.133c-0.104-1.61-0.72-1.812-1.29-1.868c-0.768-0.077-1.571-0.544-2.095-1.221c-0.471-0.607-0.671-1.329-0.563-2.032c0.059-0.297,0.044-0.502-0.03-0.593c-0.055-0.067-0.182-0.109-0.33-0.109c-0.552,0-1-0.447-1-1c0-0.552,0.448-1,1-1c0.754,0,1.438,0.307,1.876,0.842c0.328,0.399,0.672,1.107,0.452,2.209c-0.022,0.154,0.082,0.339,0.175,0.459c0.202,0.261,0.521,0.436,0.713,0.455c1.309,0.131,2.907,0.896,3.089,3.796c0.002,0.501,0.206,1.136,0.779,1.479c0.474,0.283,0.628,0.897,0.344,1.371C119.121,39.215,118.789,39.388,118.449,39.388z"/><path fill="#FFE269" d="M128.559,13.117l0.589,52.985c0,0,5.475-51.301,3.79-56.691c-1.684-5.307-4.886,3.706-4.886,3.706"/><path d="M129.148,67.103c-0.017,0-0.032-0.001-0.049-0.001c-0.528-0.025-0.946-0.459-0.952-0.988l-0.579-52.12c-0.422-0.232-0.625-0.742-0.459-1.211c0.804-2.262,2.454-6.044,4.501-6.044c0.01,0,0.019,0,0.028,0c1.001,0.017,1.759,0.814,2.252,2.37c1.699,5.437-3.187,51.828-3.749,57.1C130.087,66.719,129.656,67.103,129.148,67.103zM129.354,12.512c0.126,0.165,0.201,0.371,0.204,0.595l0.387,34.79c1.492-16.161,2.96-35.234,2.038-38.188c-0.18-0.564-0.341-0.822-0.427-0.931C131.033,9.096,130.098,10.698,129.354,12.512z"/><path fill="#FFE269" d="M150.123,13.117l0.589,52.985c0,0,5.645-52.648,3.96-57.955c-1.686-5.307-5.055,5.055-5.055,5.055"/><path d="M150.713,67.103c-0.017,0-0.032-0.001-0.049-0.001c-0.528-0.025-0.946-0.459-0.952-0.988l-0.578-52.036c-0.412-0.227-0.618-0.721-0.468-1.185c1.077-3.312,2.785-7.258,4.809-7.258c0.002,0,0.003,0,0.005,0c0.959,0.003,1.681,0.747,2.146,2.21c1.699,5.353-3.339,52.954-3.919,58.364C151.651,66.719,151.221,67.103,150.713,67.103zM150.915,12.507c0.128,0.166,0.205,0.374,0.208,0.6l0.389,35.014c1.7-18.112,3.091-36.887,2.207-39.67c-0.125-0.396-0.239-0.617-0.315-0.737C152.802,8.194,151.744,10.243,150.915,12.507z"/><path fill="#FFE269" d="M111.458,46.222l23.586,19.123l21.228-16.006c-5.391-12.298-11.455-16.173-20.3-16.173C124.346,33.166,115.754,39.315,111.458,46.222z"/><path d="M135.044,66.345c-0.224,0-0.446-0.075-0.63-0.224l-23.586-19.122c-0.392-0.317-0.485-0.877-0.219-1.306c5.27-8.471,14.75-13.527,25.363-13.527c9.848,0,15.994,4.859,21.216,16.771c0.186,0.425,0.056,0.921-0.314,1.2l-21.228,16.005C135.468,66.277,135.256,66.345,135.044,66.345z M112.785,46.011l22.282,18.064l19.968-15.056c-5.578-12.305-11.667-14.854-19.062-14.854C126.369,34.166,117.77,38.576,112.785,46.011z"/><path fill="#FFFFFF" d="M107.162,45.211c0,3.37-2.106,6.149-4.718,6.149c-2.611,0-4.717-2.779-4.717-6.149c0-3.368,2.106-7.834,4.717-7.834C105.056,37.377,107.162,41.758,107.162,45.211z"/><path d="M102.444,52.36c-3.152,0-5.717-3.207-5.717-7.149c0-3.602,2.227-8.834,5.717-8.834s5.718,5.232,5.718,8.834C108.162,49.153,105.597,52.36,102.444,52.36z M102.444,38.377c-1.737,0-3.717,3.641-3.717,6.834c0,2.792,1.702,5.149,3.717,5.149s3.718-2.357,3.718-5.149C106.162,41.954,104.216,38.377,102.444,38.377z"/><path fill="#FFFFFF" d="M115.501,45.211c0,3.37-2.106,6.149-4.717,6.149c-2.611,0-4.717-2.779-4.717-6.149c0-3.368,2.106-7.834,4.717-7.834C113.395,37.377,115.501,41.758,115.501,45.211z"/><path d="M110.784,52.36c-3.152,0-5.717-3.207-5.717-7.149c0-3.602,2.227-8.834,5.717-8.834s5.717,5.232,5.717,8.834C116.501,49.153,113.936,52.36,110.784,52.36z M110.784,38.377c-1.737,0-3.717,3.641-3.717,6.834c0,2.792,1.702,5.149,3.717,5.149s3.717-2.357,3.717-5.149C114.501,41.954,112.556,38.377,110.784,38.377z"/><path fill="#FFFFFF" d="M123.504,46.054c0,3.37-2.106,6.149-4.719,6.149c-2.611,0-4.717-2.779-4.717-6.149c0-3.369,2.106-7.834,4.717-7.834C121.398,38.22,123.504,42.601,123.504,46.054z"/><path d="M118.786,53.203c-3.152,0-5.717-3.207-5.717-7.149c0-3.602,2.227-8.834,5.717-8.834c3.491,0,5.719,5.232,5.719,8.834C124.504,49.996,121.939,53.203,118.786,53.203z M118.786,39.22c-1.737,0-3.717,3.641-3.717,6.834c0,2.791,1.702,5.149,3.717,5.149c2.016,0,3.719-2.358,3.719-5.149C122.504,42.797,120.558,39.22,118.786,39.22z"/><path fill="#FFFFFF" d="M132.264,47.402c0,3.368-2.105,6.148-4.716,6.148c-2.613,0-4.718-2.78-4.718-6.148c0-3.37,2.105-7.834,4.718-7.834C130.158,39.568,132.264,43.947,132.264,47.402z"/><path d="M127.548,54.551c-3.153,0-5.718-3.207-5.718-7.148c0-3.603,2.228-8.834,5.718-8.834c3.489,0,5.716,5.231,5.716,8.834C133.264,51.344,130.699,54.551,127.548,54.551z M127.548,40.568c-1.738,0-3.718,3.641-3.718,6.834c0,2.791,1.702,5.148,3.718,5.148c2.015,0,3.716-2.357,3.716-5.148C131.264,44.145,129.319,40.568,127.548,40.568z"/><path fill="#FFFFFF" d="M141.7,48.16c0,3.369-2.106,6.148-4.718,6.148c-2.612,0-4.719-2.779-4.719-6.148c0-3.37,2.106-7.834,4.719-7.834C139.594,40.326,141.7,44.706,141.7,48.16z"/><path d="M136.982,55.309c-3.153,0-5.719-3.207-5.719-7.148c0-3.603,2.228-8.834,5.719-8.834c3.49,0,5.718,5.231,5.718,8.834C142.7,52.102,140.135,55.309,136.982,55.309z M136.982,41.326c-1.737,0-3.719,3.641-3.719,6.834c0,2.791,1.703,5.148,3.719,5.148s3.718-2.357,3.718-5.148C140.7,44.902,138.755,41.326,136.982,41.326z"/><path fill="#FFE269" d="M174.214,109.4c-9.603-5.897-9.181-10.698-8.508-16.679c-1.347-26.366-5.979-36.475-11.371-46.415c-19.544,5.728-47.764-4.212-56.692,0c-0.506,1.854-2.106,9.435-2.106,14.657c0,24.935,35.296,21.985,11.793,41.95c-12.551,9.266-38.917,32.262-38.665,74.633c0,17.691,19.627,16.849,21.059,5.055l75.224,0.506c-7.159,6.824,3.623,25.692,19.965,9.687C205.719,172.492,195.526,122.456,174.214,109.4z"/><path d="M172.637,200.067c-0.001,0-0.002,0-0.003,0c-5.355-0.001-8.728-3.659-10.098-7.083c-1.257-3.141-1.082-6.422,0.369-8.891l-72.33-0.486c-1.129,5.638-6.179,8.581-10.816,8.581c-6.02,0-12.094-4.527-12.094-14.642c-0.181-30.347,13.33-56.435,39.071-75.438c5.185-4.407,7.71-7.933,7.666-10.734c-0.048-3.044-3.027-5.416-6.799-8.42c-5.821-4.636-13.066-10.405-13.066-21.991c0-5.333,1.593-12.909,2.142-14.92c0.077-0.282,0.274-0.517,0.538-0.642c1.691-0.798,3.971-1.169,7.177-1.169c4.022,0,9.072,0.608,14.418,1.253c6.415,0.773,13.686,1.649,20.63,1.649c5.726,0,10.505-0.585,14.612-1.788c0.454-0.133,0.935,0.067,1.16,0.482c5.691,10.492,10.15,20.603,11.491,46.841c0.003,0.054,0.001,0.108-0.005,0.162c-0.634,5.633-1.135,10.082,8.037,15.715c11.067,6.78,19.939,24.119,22.074,43.146c1.986,17.691-2.097,32.934-11.2,41.816C181.231,197.799,176.745,200.067,172.637,200.067z M89.724,181.602c0.002,0,0.004,0,0.007,0l75.224,0.506c0.407,0.003,0.772,0.253,0.923,0.632s0.056,0.811-0.239,1.092c-2.028,1.933-2.517,5.234-1.246,8.41c1.127,2.816,3.884,5.825,8.242,5.826c0,0,0.001,0,0.002,0c3.574,0,7.577-2.07,11.576-5.988c8.66-8.45,12.527-23.089,10.611-40.163c-2.07-18.444-10.562-35.188-21.133-41.663c-10.208-6.27-9.641-11.758-8.988-17.562c-1.293-25.17-5.487-35.192-10.868-45.205c-4.111,1.109-8.83,1.649-14.394,1.649c-7.064,0-14.399-0.884-20.87-1.664c-5.285-0.637-10.276-1.238-14.179-1.238c-2.586,0-4.525,0.262-5.904,0.798c-0.567,2.309-1.953,9.137-1.953,13.933c0,10.622,6.541,15.831,12.312,20.427c4.019,3.2,7.489,5.964,7.552,9.953c0.056,3.484-2.622,7.403-8.424,12.332c-25.26,18.65-38.489,44.178-38.312,73.865c0,8.738,5.069,12.647,10.094,12.647c3.871,0,8.33-2.412,8.973-7.707C88.792,181.979,89.219,181.602,89.724,181.602z"/><path fill="#FFE269" d="M78.521,176.958c0,0,2.358-0.254,4.38,1.938c1.938,2.273,3.791,7.834,8.171,5.054c4.38-2.78,0.843-6.906-1.011-9.265"/><path d="M88.823,185.714c-2.629,0.001-4.346-2.675-5.482-4.444c-0.423-0.659-0.823-1.281-1.201-1.726c-1.604-1.738-3.445-1.6-3.521-1.591c-0.542,0.053-1.035-0.352-1.088-0.898c-0.053-0.546,0.338-1.032,0.883-1.091c0.116-0.016,2.885-0.279,5.222,2.254c0.492,0.576,0.927,1.254,1.388,1.971c1.988,3.099,3.179,4.398,5.513,2.916c0.948-0.602,1.472-1.269,1.603-2.039c0.299-1.763-1.465-3.993-2.632-5.469l-0.232-0.294c-0.341-0.435-0.266-1.063,0.168-1.404c0.435-0.343,1.062-0.267,1.404,0.168l0.229,0.289c1.387,1.755,3.483,4.405,3.035,7.045c-0.228,1.342-1.07,2.483-2.503,3.394C90.582,185.445,89.656,185.714,88.823,185.714z"/><path fill="#FFE269" d="M179.1,160.11c9.436,46.331-13.729,62.083-43.549,62.083c-30.664,0-50.796-11.962-50.796-44.729c0-17.438,5.98-38.076,15.584-53.575"/><path d="M135.551,223.193c-34.37,0-51.796-15.386-51.796-45.729c0-17.708,6.029-38.439,15.734-54.102c0.291-0.469,0.907-0.617,1.377-0.323c0.469,0.29,0.614,0.907,0.323,1.376c-9.52,15.364-15.434,35.691-15.434,53.049c0,29.426,16.289,43.729,49.796,43.729c16.269,0,28.794-4.806,36.22-13.897c8.455-10.35,10.591-26.158,6.35-46.986c-0.11-0.541,0.238-1.069,0.78-1.179c0.539-0.109,1.069,0.238,1.179,0.78c4.368,21.444,2.094,37.813-6.759,48.65C165.501,218.134,152.44,223.193,135.551,223.193z"/><polygon fill="#F96488" points="130.664,101.903 135.297,149.244 123.334,162.133 114.827,145.875 "/><path d="M123.334,163.133c-0.044,0-0.088-0.003-0.133-0.009c-0.321-0.043-0.603-0.24-0.753-0.527l-8.508-16.258c-0.129-0.248-0.149-0.539-0.055-0.803l15.838-43.972c0.158-0.441,0.603-0.716,1.064-0.653c0.464,0.058,0.825,0.429,0.871,0.895l4.633,47.341c0.028,0.285-0.067,0.568-0.262,0.778l-11.962,12.889C123.876,163.019,123.611,163.133,123.334,163.133zM115.917,145.801l7.647,14.614l10.694-11.521l-4.157-42.477L115.917,145.801z"/><path fill="#FFE269" d="M153.914,126.584c12.804,14.32,7.749,33.526,6.485,37.233c-1.012,3.033-4.381,7.918-6.233,10.276s-6.907,9.603-2.612,12.383c4.382,2.78,9.52-4.212,11.121-6.739c2.527-4.043,4.547-2.779,4.547-2.779s2.612,1.938-2.188,6.149c-5.138,3.958-3.539,14.658,5.307,14.658c3.031,5.221,10.865,5.728,15.078,0.673c37.654-6.318,13.394-76.319-11.878-89.46"/><path d="M177.93,202.968c-0.297,0-0.594-0.012-0.892-0.037c-3.046-0.258-5.661-1.771-7.262-4.179c-3.888-0.194-6.899-2.399-8.119-5.983c-1.322-3.882-0.185-8.181,2.766-10.453c2.229-1.959,2.53-3.22,2.507-3.793c-0.016-0.39-0.188-0.632-0.266-0.722c-0.497-0.164-1.691,0.147-3.142,2.467c-0.661,1.043-2.438,3.665-4.721,5.594c-3.575,3.019-6.208,2.459-7.784,1.46c-1.156-0.749-1.851-1.801-2.073-3.132c-0.629-3.772,2.893-8.749,4.436-10.714c1.844-2.347,5.122-7.131,6.071-9.975c0.296-0.87,7.059-21.329-6.282-36.25c-0.368-0.412-0.333-1.044,0.078-1.412c0.413-0.369,1.044-0.333,1.412,0.078c14.112,15.783,6.996,37.314,6.687,38.223c-1.033,3.1-4.39,8.021-6.394,10.572c-2.217,2.822-4.441,6.708-4.034,9.148c0.127,0.765,0.513,1.346,1.179,1.776c1.467,0.93,3.29,0.492,5.415-1.304c2.13-1.799,3.844-4.382,4.318-5.131c1.19-1.904,2.484-3.032,3.841-3.345c1.168-0.271,1.939,0.164,2.081,0.253c0.173,0.124,1.116,0.865,1.176,2.33c0.068,1.652-1.021,3.476-3.235,5.419c-2.295,1.771-3.176,5.229-2.143,8.265c1.005,2.949,3.479,4.642,6.79,4.642c0.356,0,0.686,0.189,0.865,0.498c1.229,2.116,3.416,3.455,6.002,3.674c2.823,0.238,5.605-0.935,7.442-3.14c0.153-0.184,0.367-0.306,0.604-0.346c12.763-2.142,16.895-11.79,18.113-19.507c3.568-22.599-12.566-58.865-30.287-68.079c-0.49-0.255-0.681-0.859-0.427-1.349c0.255-0.49,0.857-0.681,1.349-0.427c18.318,9.525,35.014,46.903,31.34,70.166c-1.873,11.867-8.579,19.157-19.399,21.105C183.889,201.66,180.966,202.968,177.93,202.968z"/><path fill="#F96488" d="M114.743,90.952c0,0,15.921,8.424,50.963-0.169c0,0.843,0,4.213,0,4.213s-29.651,11.877-51.722,0.758C114.827,93.563,114.743,90.952,114.743,90.952z"/><path d="M136.201,101.507c-8.64,0-16.266-1.636-22.667-4.86c-0.459-0.23-0.668-0.772-0.484-1.252c0.757-1.967,0.693-4.388,0.692-4.411c-0.011-0.356,0.168-0.691,0.471-0.88c0.301-0.188,0.68-0.203,0.997-0.035c0.066,0.034,6.999,3.578,21.41,3.578c8.766,0,18.472-1.29,28.848-3.834c0.301-0.075,0.614-0.005,0.855,0.185s0.383,0.479,0.383,0.786v4.213c0,0.408-0.249,0.776-0.628,0.928C165.938,95.979,151.959,101.507,136.201,101.507z M115.208,95.239c5.959,2.832,13.017,4.268,20.994,4.268c13.49,0,25.652-4.154,28.505-5.202v-2.252c-10.067,2.385-19.511,3.594-28.086,3.594c-11.356,0-18.173-2.104-20.931-3.187C115.625,93.245,115.49,94.243,115.208,95.239z"/><path fill="#F96488" d="M131.591,102.66c-0.591,0.506-1.516,0.422-2.021-0.168l-3.203-4.043c-0.505-0.59-0.336-1.517,0.253-2.021l3.959-3.117c0.591-0.505,1.518-0.421,2.023,0.169l3.2,4.043c0.505,0.59,0.337,1.517-0.252,2.022L131.591,102.66z"/><path d="M130.675,103.992c-0.722,0-1.401-0.31-1.864-0.849l-3.228-4.073c-0.811-0.946-0.645-2.518,0.386-3.401l3.993-3.144c0.399-0.344,0.955-0.546,1.534-0.546c0.723,0,1.403,0.309,1.866,0.849l3.226,4.073c0.811,0.945,0.646,2.518-0.385,3.402l-3.993,3.143C131.81,103.789,131.254,103.992,130.675,103.992z M131.495,93.979c-0.072,0-0.178,0.016-0.266,0.091l-3.991,3.144c-0.158,0.137-0.23,0.445-0.111,0.585l3.227,4.072c0.086,0.1,0.331,0.249,0.587,0.029l3.992-3.142c0.157-0.137,0.23-0.446,0.11-0.586l-3.225-4.073C131.763,94.036,131.632,93.979,131.495,93.979z"/><polygon fill="#FFE269" points="145.069,45.211 145.069,50.855 153.323,51.698 153.577,45.549 "/><ellipse fill="#FFE269" cx="125.778" cy="14.128" rx="7.667" ry="13.057"/><path d="M125.778,28.185c-4.86,0-8.667-6.174-8.667-14.057c0-7.882,3.807-14.057,8.667-14.057c4.86,0,8.667,6.175,8.667,14.057C134.444,22.011,130.638,28.185,125.778,28.185z M125.778,2.071c-3.614,0-6.667,5.521-6.667,12.057s3.053,12.057,6.667,12.057c3.614,0,6.667-5.521,6.667-12.057S129.392,2.071,125.778,2.071z"/><ellipse fill="#FFE269" cx="147.933" cy="14.128" rx="7.666" ry="13.057"/><path d="M147.933,28.185c-4.859,0-8.665-6.174-8.665-14.057c0-7.882,3.806-14.057,8.665-14.057s8.666,6.175,8.666,14.057C156.599,22.011,152.792,28.185,147.933,28.185z M147.933,2.071c-3.613,0-6.665,5.521-6.665,12.057s3.052,12.057,6.665,12.057s6.666-5.521,6.666-12.057S151.546,2.071,147.933,2.071z"/><path fill="#DDB44E" d="M133.444,12.191c-11.204-1.012-18.533,1.937-18.533,1.937"/><path d="M114.912,15.129c-0.396,0-0.771-0.237-0.928-0.628c-0.206-0.512,0.042-1.095,0.555-1.301c0.308-0.124,7.683-3.025,18.996-2.005c0.55,0.05,0.956,0.536,0.906,1.086s-0.541,0.948-1.086,0.906c-10.84-0.983-17.999,1.84-18.07,1.868C115.162,15.105,115.036,15.129,114.912,15.129z"/><path d="M160.146,15.128c-0.116,0-0.234-0.021-0.351-0.063c-0.077-0.028-7.787-2.855-19.444-1.877c-0.54,0.055-1.034-0.362-1.08-0.913c-0.047-0.55,0.362-1.033,0.912-1.08c12.13-1.018,19.988,1.874,20.316,1.998c0.517,0.194,0.777,0.771,0.583,1.287C160.933,14.881,160.552,15.128,160.146,15.128z"/><path d="M152.902,55.394c-0.467,0-0.884-0.328-0.979-0.803l0,0c-0.049-0.244-1.289-5.968-7.3-5.602c-0.541,0.045-1.024-0.386-1.059-0.938c-0.033-0.552,0.387-1.025,0.938-1.059c6.212-0.368,8.857,4.55,9.383,7.207c0.106,0.541-0.246,1.067-0.787,1.175C153.032,55.388,152.967,55.394,152.902,55.394z"/><path fill="#FFFFFF" d="M118.197,13.202c0,0,5.896-1.77,15.248-0.928c0,1.938,0.083,2.864-0.169,4.381c-0.421,4.38-3.874,10.108-7.751,10.108c-2.441,0-6.149-2.527-6.991-8.593C118.197,15.729,118.197,13.202,118.197,13.202z"/><path d="M125.524,27.764c-2.681,0-7.019-2.518-7.981-9.455c-0.342-2.483-0.346-5.001-0.346-5.106c0-0.441,0.29-0.831,0.713-0.958c0.162-0.049,4.062-1.197,10.542-1.197c1.668,0,3.378,0.078,5.082,0.231c0.516,0.047,0.91,0.479,0.91,0.996c0,0.413,0.004,0.78,0.007,1.116c0.014,1.249,0.022,2.152-0.189,3.429C133.839,21.241,130.218,27.764,125.524,27.764zM119.21,13.977c0.026,0.917,0.101,2.515,0.312,4.059c0.782,5.63,4.096,7.729,6.001,7.729c3.163,0,6.358-5.061,6.756-9.204c0.192-1.172,0.185-1.916,0.172-3.148c-0.001-0.07-0.002-0.142-0.003-0.215c-1.343-0.099-2.684-0.149-3.997-0.149C123.855,13.047,120.588,13.661,119.21,13.977z"/><path fill="#FFFFFF" d="M155.43,13.202c0,0-5.896-1.77-15.162-0.928c0,1.938,0.169,4.381,0.169,4.381s1.01,10.108,7.58,10.529c2.442,0.169,5.897-3.622,7.161-9.014C155.43,15.729,155.43,13.202,155.43,13.202z"/><path d="M148.175,28.19L148.175,28.19c-0.076,0-0.152-0.003-0.227-0.008c-7.328-0.47-8.462-10.98-8.507-11.428c-0.01-0.132-0.174-2.53-0.174-4.48c0-0.517,0.395-0.949,0.909-0.996c1.689-0.153,3.387-0.231,5.044-0.231c6.435,0,10.334,1.148,10.496,1.197c0.423,0.127,0.713,0.517,0.713,0.958c0,0.105-0.003,2.605-0.257,5.071c-0.005,0.043-0.012,0.085-0.021,0.126C154.886,23.798,151.308,28.19,148.175,28.19z M141.278,13.194c0.037,1.662,0.154,3.372,0.156,3.393c0.006,0.061,1.004,9.238,6.646,9.6l0.095,0.004c1.703,0,4.807-3.112,6.015-8.186c0.156-1.538,0.211-3.118,0.229-4.027c-1.373-0.316-4.632-0.931-9.198-0.931C143.924,13.047,142.603,13.097,141.278,13.194z"/><path d="M152.903,41.312c-0.008,0-0.017,0-0.024,0c-0.543-0.014-0.976-0.444-0.976-0.986c0-0.127,0.048-3.104,4.172-3.93c1.581-0.316,2.555-0.75,2.893-1.289c0.14-0.223,0.296-0.632,0.043-1.606c-0.5-1.832-0.006-3.162,0.497-3.953c0.722-1.136,1.937-1.927,3.333-2.169c2.066-0.45,2.76-1.108,2.709-2.603c-0.068-0.952,0.395-2.106,1.181-2.904c0.679-0.688,1.533-1.041,2.401-0.993c0.346,0.018,0.814-0.021,1.053-0.282c0.163-0.181,0.229-0.491,0.177-0.853c-0.077-0.547,0.303-1.053,0.85-1.131c0.559-0.081,1.053,0.305,1.131,0.851c0.137,0.967-0.104,1.847-0.678,2.479c-0.42,0.461-1.201,0.996-2.634,0.935c-0.378-0.02-0.684,0.205-0.875,0.398c-0.429,0.436-0.634,1.045-0.609,1.396c0.128,3.702-3.104,4.404-4.322,4.669c-0.871,0.152-1.613,0.628-2.028,1.28c-0.416,0.655-0.501,1.451-0.252,2.365c0.339,1.306,0.245,2.343-0.281,3.184c-0.669,1.066-1.962,1.741-4.194,2.188c-2.42,0.484-2.558,1.839-2.564,1.991C153.876,40.883,153.435,41.312,152.903,41.312z"/><path d="M154.333,47.714c-0.167,0-0.335-0.042-0.489-0.13c-0.471-0.27-0.646-0.855-0.388-1.332c0.061-0.112,1.527-2.729,5.553-1.49c1.555,0.478,2.628,0.558,3.18,0.232c0.133-0.078,0.534-0.313,0.772-1.424c0.351-1.449,1.129-2.555,2.258-3.222c1.148-0.679,2.589-0.855,3.951-0.482c2.072,0.566,2.99,0.312,3.645-0.998c0.4-0.87,1.313-1.641,2.368-1.982c0.929-0.3,1.866-0.226,2.639,0.21c0.456,0.264,0.85,0.348,1.115,0.243c0.209-0.082,0.381-0.298,0.471-0.592c0.162-0.527,0.72-0.823,1.249-0.662c0.528,0.162,0.825,0.721,0.663,1.249c-0.27,0.88-0.872,1.561-1.652,1.867c-0.598,0.235-1.575,0.362-2.837-0.369c-0.351-0.197-0.757-0.134-1.031-0.044c-0.575,0.187-1.03,0.617-1.182,0.945c-1.623,3.25-4.673,2.417-5.974,2.062c-0.83-0.229-1.732-0.125-2.407,0.274c-0.662,0.392-1.108,1.046-1.326,1.944c-0.278,1.301-0.84,2.194-1.709,2.704c-1.101,0.646-2.576,0.633-4.78-0.046c-2.365-0.726-3.137,0.418-3.218,0.551C155.014,47.536,154.677,47.714,154.333,47.714z"/><path d="M153.997,43.937c-0.226,0-0.452-0.076-0.64-0.231c-0.424-0.354-0.481-0.984-0.127-1.409c0.947-1.137,2.547-1.74,4.291-1.62c2.396,0.312,3.079-0.396,3.432-1.635c0.274-0.953,1.057-1.859,2.042-2.368c0.864-0.445,1.796-0.53,2.622-0.239c0.483,0.193,0.865,0.208,1.108,0.056c0.193-0.12,0.321-0.353,0.342-0.62c0.042-0.551,0.531-0.962,1.072-0.921c0.551,0.041,0.964,0.521,0.922,1.072c-0.068,0.9-0.546,1.71-1.278,2.166c-0.801,0.497-1.819,0.54-2.87,0.119c-0.344-0.121-0.74,0.012-1.001,0.146c-0.546,0.281-0.935,0.786-1.036,1.141c-0.692,2.429-2.559,3.463-5.555,3.073c-0.741-0.053-1.921,0.15-2.556,0.912C154.568,43.814,154.284,43.937,153.997,43.937z"/><path fill="#FFE269" d="M187.354,183.444c0,0-2.947,0-4.295,2.611c-0.926,1.77-4.043,14.32-16.005,11.202"/><path d="M170.691,198.756c-1.19,0-2.483-0.164-3.889-0.53c-0.535-0.14-0.855-0.686-0.716-1.22c0.14-0.535,0.692-0.851,1.22-0.716c8.581,2.235,12.2-3.933,14.39-9.561c0.198-0.51,0.342-0.879,0.478-1.138c1.605-3.111,5.035-3.147,5.181-3.147c0.553,0,1,0.447,1,1c0,0.551-0.444,0.997-0.994,1c-0.103,0.001-2.372,0.055-3.412,2.07c-0.102,0.193-0.225,0.52-0.389,0.94C182.4,190.436,179.161,198.755,170.691,198.756z"/><path fill="#231F20" d="M36.318,197.332c-0.246,0-0.491-0.089-0.684-0.271c-0.402-0.378-0.423-1.01-0.045-1.412c0.627-0.669,15.72-16.403,47.27-17.753c0.558-0.028,1.019,0.404,1.042,0.956s-0.404,1.019-0.956,1.042c-16.034,0.686-27.657,5.304-34.584,9.057c-7.509,4.068-11.276,8.026-11.313,8.066C36.85,197.227,36.584,197.332,36.318,197.332z"/><path fill="#231F20" d="M31.516,186.213c-0.449,0-0.858-0.305-0.97-0.762c-0.132-0.536,0.196-1.077,0.732-1.209c0.2-0.05,20.336-4.927,51.577-6.346c0.542-0.037,1.02,0.401,1.044,0.954c0.025,0.552-0.402,1.019-0.954,1.044c-31.047,1.41-50.993,6.241-51.19,6.289C31.676,186.204,31.595,186.213,31.516,186.213z"/><path fill="#231F20" d="M43.647,206.009c-0.099,0-0.2-0.016-0.299-0.047c-0.527-0.165-0.82-0.725-0.655-1.252c0.08-0.254,8.328-25.451,40.166-26.813c0.558-0.028,1.019,0.404,1.042,0.956s-0.404,1.019-0.956,1.042c-15.887,0.68-25.456,7.538-30.686,13.173c-5.686,6.125-7.638,12.181-7.657,12.241C44.466,205.735,44.072,206.009,43.647,206.009z"/><path fill="#FCE663" d="M41.036,181.759c-1.433-4.043-4.549-6.739-7.244-6.318c-1.77-3.789-4.97-5.979-7.582-5.053c-2.612,0.927-3.707,4.718-2.612,8.761c-2.358,1.432-3.032,5.476-1.6,9.52c1.432,4.043,4.549,6.737,7.244,6.316c1.769,3.791,4.97,5.981,7.582,5.055c2.611-0.927,3.706-4.718,2.611-8.761C41.793,189.846,42.468,185.887,41.036,181.759z"/><path fill="#231F20" d="M35.579,201.251L35.579,201.251c-2.581,0-5.249-2.029-6.935-5.224c-3.013-0.022-6.129-2.905-7.589-7.025c-1.477-4.17-0.867-8.325,1.414-10.267c-0.936-4.324,0.469-8.248,3.407-9.29c0.504-0.179,1.035-0.27,1.579-0.27c2.58,0,5.248,2.028,6.935,5.222c3.012,0.022,6.129,2.906,7.589,7.027c1.477,4.257,0.881,8.333-1.414,10.269c0.936,4.323-0.469,8.245-3.406,9.288C36.654,201.16,36.123,201.251,35.579,201.251z M29.243,193.984c0.384,0,0.74,0.221,0.906,0.577c1.309,2.805,3.491,4.689,5.431,4.689l0,0c0.315,0,0.622-0.052,0.91-0.154c2.06-0.731,2.93-4.051,1.98-7.557c-0.116-0.43,0.065-0.885,0.446-1.116c1.947-1.183,2.441-4.688,1.175-8.337c-1.242-3.504-3.898-6.021-6.145-5.658c-0.443,0.063-0.872-0.161-1.061-0.565c-1.522-3.26-4.277-5.266-6.341-4.533c-2.061,0.731-2.931,4.051-1.981,7.557c0.116,0.431-0.065,0.886-0.446,1.116c-1.937,1.176-2.442,4.758-1.176,8.331c1.242,3.508,3.893,6.021,6.147,5.662C29.14,193.988,29.191,193.984,29.243,193.984z"/><ellipse transform="matrix(-0.3353 -0.9421 0.9421 -0.3353 -132.4102 277.0012)" fill="#F96488" cx="31.51" cy="185.209" rx="5.728" ry="3.706"/><path d="M32.594,191.748c-2.21,0-4.479-2.039-5.519-4.96c-1.265-3.554-0.308-7.031,2.178-7.917c0.374-0.133,0.768-0.2,1.172-0.2c2.209,0,4.479,2.04,5.518,4.962c0.577,1.619,0.707,3.305,0.366,4.744c-0.377,1.596-1.281,2.722-2.544,3.171C33.392,191.681,32.998,191.748,32.594,191.748z M30.426,180.671c-0.175,0-0.343,0.028-0.501,0.085c-1.358,0.483-1.809,2.989-0.965,5.362c0.839,2.357,2.499,3.63,3.634,3.63c0.174,0,0.343-0.028,0.5-0.085c0.812-0.288,1.144-1.219,1.269-1.747c0.25-1.053,0.139-2.37-0.304-3.613C33.22,181.943,31.561,180.671,30.426,180.671z"/><path fill="#FF8B00" d="M52.66,203.493c-1.432-4.043-4.549-6.739-7.245-6.318c-1.769-3.791-4.97-5.98-7.581-5.055c-2.611,0.927-3.707,4.717-2.611,8.762c-2.359,1.431-3.033,5.474-1.6,9.517c1.432,4.045,4.548,6.74,7.244,6.318c1.77,3.791,4.97,5.981,7.582,5.055c2.611-0.926,3.706-4.716,2.611-8.76C53.418,211.579,54.092,207.536,52.66,203.493z"/><path fill="#231F20" d="M47.204,222.983L47.204,222.983c-2.58,0-5.249-2.029-6.936-5.224c-3.013-0.021-6.129-2.905-7.588-7.027c-1.477-4.17-0.868-8.324,1.414-10.264c-0.936-4.324,0.469-8.248,3.406-9.291c0.504-0.179,1.035-0.27,1.579-0.27c2.581,0,5.249,2.029,6.935,5.224c3.013,0.022,6.129,2.906,7.589,7.027c1.477,4.169,0.867,8.324-1.414,10.266c0.936,4.324-0.468,8.247-3.406,9.289C48.279,222.893,47.748,222.983,47.204,222.983z M40.867,215.717c0.383,0,0.74,0.221,0.906,0.577c1.309,2.805,3.492,4.689,5.431,4.689c0,0,0,0,0,0c0.315,0,0.622-0.052,0.91-0.154c2.06-0.73,2.93-4.05,1.98-7.556c-0.116-0.43,0.065-0.885,0.446-1.116c1.937-1.177,2.442-4.758,1.177-8.33c-1.244-3.51-3.899-6.027-6.148-5.664c-0.441,0.067-0.872-0.162-1.061-0.565c-1.521-3.261-4.278-5.268-6.341-4.535c-2.06,0.731-2.93,4.051-1.98,7.558c0.116,0.431-0.066,0.886-0.447,1.117c-1.937,1.174-2.442,4.754-1.176,8.327c1.243,3.511,3.894,6.023,6.146,5.664C40.764,215.721,40.816,215.717,40.867,215.717z"/><ellipse transform="matrix(-0.3353 -0.9421 0.9421 -0.3353 -137.2932 316.8489)" fill="#F96488" cx="43.129" cy="206.858" rx="5.728" ry="3.706"/><path d="M44.214,213.396c-2.209,0-4.479-2.039-5.518-4.96c-0.577-1.621-0.707-3.307-0.367-4.746c0.378-1.596,1.281-2.722,2.545-3.171c0.373-0.133,0.768-0.2,1.172-0.2c2.209,0,4.479,2.04,5.518,4.962c0.577,1.62,0.707,3.305,0.366,4.744c-0.378,1.596-1.282,2.722-2.545,3.171C45.012,213.329,44.618,213.396,44.214,213.396zM42.046,202.319c-0.175,0-0.343,0.028-0.501,0.085c-0.813,0.289-1.145,1.219-1.27,1.747c-0.249,1.053-0.138,2.371,0.305,3.615c0.839,2.357,2.499,3.63,3.634,3.63c0.174,0,0.343-0.028,0.5-0.085c0.813-0.288,1.144-1.219,1.269-1.747c0.249-1.053,0.138-2.37-0.304-3.613C44.84,203.592,43.181,202.319,42.046,202.319z"/><path fill="#BEEAA4" d="M35.896,197.596c-1.432-4.043-4.548-6.739-7.244-6.317c-1.77-3.791-4.97-5.98-7.582-5.055c-2.611,0.927-3.706,4.718-2.611,8.761c-2.358,1.432-3.032,5.476-1.601,9.519c1.432,4.044,4.549,6.738,7.245,6.317c1.769,3.791,4.97,5.981,7.581,5.055c2.611-0.926,3.707-4.717,2.611-8.76C36.571,205.683,37.33,201.64,35.896,197.596z"/><path fill="#231F20" d="M30.441,217.087C30.44,217.087,30.44,217.087,30.441,217.087c-2.581,0-5.249-2.029-6.935-5.224c-3.013-0.022-6.13-2.905-7.589-7.026c-1.476-4.17-0.867-8.325,1.414-10.266c-0.936-4.323,0.468-8.247,3.406-9.29c0.504-0.179,1.035-0.27,1.579-0.27c2.581,0,5.249,2.029,6.936,5.224c3.012,0.021,6.128,2.905,7.588,7.026c1.463,4.128,0.853,8.283-1.416,10.257c0.94,4.328-0.464,8.257-3.405,9.299C31.516,216.996,30.984,217.087,30.441,217.087zM24.104,209.82c0.384,0,0.74,0.222,0.906,0.577c1.309,2.805,3.491,4.689,5.43,4.689l0,0c0.315,0,0.622-0.052,0.91-0.154c2.061-0.73,2.931-4.05,1.98-7.556c-0.115-0.425,0.061-0.874,0.432-1.107c1.901-1.197,2.424-4.86,1.191-8.34c-1.243-3.511-3.896-6.021-6.146-5.663c-0.445,0.064-0.873-0.162-1.061-0.565c-1.522-3.261-4.277-5.269-6.342-4.535c-2.06,0.731-2.929,4.051-1.979,7.557c0.116,0.431-0.065,0.886-0.446,1.116c-1.937,1.176-2.442,4.757-1.177,8.33c1.243,3.51,3.888,6.018,6.147,5.663C24.001,209.824,24.053,209.82,24.104,209.82z"/><ellipse transform="matrix(-0.3353 -0.9421 0.9421 -0.3353 -154.1256 293.1678)" fill="#F96488" cx="26.362" cy="200.957" rx="5.728" ry="3.706"/><path d="M27.447,207.496c-2.209,0-4.479-2.04-5.518-4.961c-1.265-3.555-0.308-7.032,2.178-7.917c0.374-0.133,0.768-0.2,1.17-0.2c2.21,0,4.48,2.04,5.519,4.962c0.742,2.083,0.734,4.277-0.022,5.868c-0.48,1.01-1.226,1.718-2.156,2.048C28.245,207.429,27.851,207.496,27.447,207.496z M25.277,196.418c-0.174,0-0.342,0.028-0.5,0.085c-1.358,0.483-1.809,2.989-0.964,5.362c0.84,2.358,2.5,3.631,3.634,3.631c0.174,0,0.343-0.028,0.5-0.085c0.531-0.188,0.848-0.659,1.02-1.022c0.525-1.104,0.504-2.768-0.055-4.338C28.072,197.691,26.413,196.418,25.277,196.418z"/><ellipse cx="123.25" cy="15.982" rx="1.938" ry="2.78"/><ellipse cx="145.321" cy="15.982" rx="1.938" ry="2.78"/><path fill="#2BAD72" d="M43.647,179.822c0,0,5.981,10.109,24.766,1.264C60.579,175.02,50.049,170.977,43.647,179.822z"/><path d="M54.628,185.715c0,0-0.001,0-0.001,0c-8.557-0.001-11.71-5.163-11.84-5.383l-0.334-0.564l0.385-0.531c2.662-3.679,6.18-5.544,10.456-5.544c4.646,0,10.233,2.345,15.732,6.603l1.291,1l-1.477,0.695C63.591,184.462,58.81,185.715,54.628,185.715z M44.893,179.836c0.967,1.171,3.843,3.878,9.734,3.879c0,0,0.001,0,0.001,0c3.482,0,7.453-0.955,11.824-2.841c-4.694-3.353-9.322-5.182-13.16-5.182C49.921,175.692,47.099,177.086,44.893,179.836z"/><path fill="#FFE269" d="M159.642,204.84c0,0,3.116,34.454,4.886,42.54c2.021,9.098,3.454,14.067-1.349,14.067c-5.476,0-27.039,0-32.768,0c-5.728,0,12.299-3.875,18.869-10.614c6.907-7.159,1.518-30.494-1.937-35.801"/><path d="M163.179,262.447h-32.768c-0.712,0-1.902,0-2.09-1.009c-0.204-1.104,0.6-1.412,4.46-2.895c4.533-1.74,12.121-4.652,15.783-8.409c6.432-6.667,1.231-29.502-2.059-34.557c-0.302-0.463-0.171-1.083,0.292-1.384c0.466-0.301,1.083-0.17,1.384,0.292c3.707,5.695,9.141,29.452,1.818,37.041c-3.972,4.074-11.815,7.085-16.502,8.884c-0.031,0.013-0.062,0.024-0.093,0.036h29.773c1.306,0,1.657-0.438,1.772-0.583c1.057-1.319,0.135-5.426-1.032-10.623l-0.368-1.645c-1.763-8.058-4.777-41.258-4.905-42.667c-0.05-0.55,0.356-1.036,0.906-1.086c0.54-0.051,1.037,0.356,1.086,0.906c0.031,0.344,3.131,34.483,4.866,42.416l0.366,1.637c1.434,6.387,2.3,10.241,0.643,12.312C165.795,262.012,164.704,262.447,163.179,262.447z"/><path fill="#FFFFFF" d="M54.092,171.903c8.761,4.045,14.573,13.646,10.614,28.304c10.024-7.665,18.195-21.312,18.195-21.312S67.823,172.578,54.092,171.903z"/><path d="M64.706,201.207c-0.194,0-0.388-0.057-0.557-0.17c-0.356-0.238-0.52-0.677-0.408-1.091c3.381-12.52-0.382-22.663-10.068-27.135c-0.435-0.201-0.666-0.682-0.552-1.146c0.114-0.466,0.536-0.799,1.021-0.761c13.748,0.676,28.523,6.809,29.146,7.069c0.268,0.111,0.473,0.334,0.564,0.61c0.09,0.275,0.057,0.576-0.092,0.825c-0.337,0.563-8.385,13.899-18.445,21.592C65.135,201.138,64.92,201.207,64.706,201.207z M58.343,173.285c4.703,3.492,10.66,10.749,8.007,24.28c7.211-6.309,13.179-15.221,15.069-18.184C78.189,178.13,68.319,174.54,58.343,173.285z"/><path fill="#FFFFFF" stroke="#000000" stroke-width="2" stroke-linecap="round" stroke-miterlimit="10" d="M64.706,200.291"/><path fill="#FFFFFF" stroke="#000000" stroke-width="2" stroke-linecap="round" stroke-miterlimit="10" d="M57.209,172.578"/><path d="M79.194,283.929H44.236c-0.552,0-1-0.447-1-1s0.448-1,1-1h34.958c0.552,0,1,0.447,1,1S79.747,283.929,79.194,283.929z"/><path d="M127.548,274.662h-25.609c-0.552,0-1-0.447-1-1s0.448-1,1-1h25.609c0.553,0,1,0.447,1,1S128.101,274.662,127.548,274.662z"/><path d="M189.63,262.447h-27.376c-0.553,0-1-0.447-1-1s0.447-1,1-1h27.376c0.553,0,1,0.447,1,1S190.183,262.447,189.63,262.447z"/><path d="M228.21,277.862h-27.292c-0.553,0-1-0.447-1-1s0.447-1,1-1h27.292c0.553,0,1,0.447,1,1S228.763,277.862,228.21,277.862z"/><path d="M206.057,234.145h-22.324c-0.553,0-1-0.447-1-1s0.447-1,1-1h22.324c0.553,0,1,0.447,1,1S206.609,234.145,206.057,234.145z"/><path d="M236.887,249.392h-17.354c-0.553,0-1-0.447-1-1s0.447-1,1-1h17.354c0.553,0,1,0.447,1,1S237.439,249.392,236.887,249.392z"/><path d="M86.945,247.285H68.328c-0.552,0-1-0.447-1-1s0.448-1,1-1h18.617c0.552,0,1,0.447,1,1S87.497,247.285,86.945,247.285z"/><path fill="#FFE269" d="M194.263,186.896c-3.452,0.508-5.812,8.425-8.845,11.458"/><path d="M185.418,199.354c-0.256,0-0.512-0.098-0.707-0.293c-0.391-0.391-0.391-1.023,0-1.414c1.096-1.097,2.172-3.023,3.213-4.888c1.858-3.329,3.613-6.474,6.193-6.853c0.548-0.09,1.055,0.298,1.135,0.844s-0.297,1.055-0.844,1.135c-1.604,0.236-3.27,3.218-4.738,5.85c-1.107,1.982-2.252,4.033-3.545,5.326C185.93,199.257,185.674,199.354,185.418,199.354z"/></svg>