<svg xmlns="http://www.w3.org/2000/svg" viewBox="0 0 243 271"><path fill="#E6486E" d="M94.922,27.223H61.491c0,0-31.864-1.219-58.417,12.972c17.325,8.619,19.327,17.76,22.113,27.511c7.574,2.089,14.8,11.057,16.541,19.066c4.527,1.741,20.199,0.871,22.984,12.623C67.498,111.062,94.922,27.223,94.922,27.223z"/><path d="M65.582,101.509c-0.534,0.005-1.445-0.216-1.843-1.882c-1.989-8.395-11.358-9.898-17.557-10.894c-1.97-0.316-3.672-0.59-4.813-1.028l-0.504-0.194l-0.114-0.527c-1.749-8.043-8.998-16.43-15.83-18.314L24.38,68.52l-0.47-1.651c-2.577-9.094-5.011-17.685-21.281-25.779l-1.736-0.864l1.71-0.914c22.773-12.17,49.349-13.116,56.952-13.116c1.276,0,1.975,0.027,1.975,0.027l34.772,0l-0.429,1.311c-0.06,0.183-6.075,18.549-12.672,36.677C69.725,101.241,66.916,101.509,65.582,101.509z M42.576,86.001c0.964,0.282,2.353,0.505,3.923,0.757c6.726,1.08,16.889,2.711,19.186,12.406c0.019,0.078,0.037,0.145,0.055,0.2c3.854-2.892,16.958-38.11,27.803-71.142H61.491c-0.049-0.001-0.72-0.026-1.937-0.026c-7.296,0-32.332,0.882-54.302,11.993c15.509,8.228,17.975,16.935,20.582,26.135l0.165,0.58C33.253,69.211,40.511,77.566,42.576,86.001z"/><path d="M41.729,87.771c-0.069,0-0.138-0.007-0.208-0.022c-0.541-0.114-0.886-0.645-0.771-1.185c0.081-0.38,7.761-35.824,26.436-56.137c-9.525,4.693-30.228,16.81-41.111,37.74c-0.255,0.489-0.858,0.679-1.349,0.426c-0.49-0.255-0.681-0.858-0.426-1.349c14.719-28.305,46.872-40.833,47.195-40.956c0.452-0.174,0.96,0.002,1.211,0.415c0.25,0.413,0.171,0.945-0.189,1.266c-21.092,18.796-29.726,58.609-29.81,59.009C42.606,87.449,42.191,87.771,41.729,87.771z"/><path fill="#E6486E" d="M148.812,27.223h33.433c0,0,31.863-1.219,58.416,12.972c-17.325,8.619-19.328,17.76-22.113,27.511c-7.573,2.089-14.8,11.057-16.541,19.066c-4.526,1.741-20.197,0.871-22.984,12.623C176.235,111.062,148.812,27.223,148.812,27.223z"/><path d="M178.18,101.509c-1.322,0-4.072,0-17.646-37.301c-6.598-18.127-12.612-36.491-12.672-36.674l-0.429-1.311h34.81c0.002,0,0.697-0.026,1.939-0.026c7.603,0,34.178,0.946,56.95,13.116l1.709,0.914l-1.735,0.864c-16.272,8.095-18.706,16.687-21.282,25.782l-0.469,1.648l-0.542,0.149c-6.832,1.885-14.081,10.272-15.829,18.314l-0.115,0.527l-0.503,0.193c-1.142,0.439-2.843,0.712-4.813,1.029c-6.199,0.995-15.567,2.499-17.558,10.892C179.604,101.264,178.689,101.509,178.18,101.509z M150.191,28.223c10.846,33.028,23.948,68.244,27.803,71.141c0.018-0.056,0.036-0.122,0.055-0.201c2.299-9.692,12.461-11.324,19.187-12.404c1.569-0.252,2.958-0.475,3.922-0.757c2.065-8.435,9.323-16.79,16.578-19.098l0.164-0.577c2.605-9.201,5.072-17.909,20.583-26.138c-21.97-11.11-47.006-11.993-54.301-11.993c-1.217,0-1.888,0.025-1.899,0.026L150.191,28.223z"/><path fill="#688C71" d="M71.416,27.223c-6.791,12.885-10.708,28.381-10.708,45.184c0,44.052,27.25,79.834,60.942,79.834c33.604,0,60.941-35.782,60.941-79.834c0-16.803-3.917-32.387-10.709-45.184H71.416z"/><path d="M121.649,153.241c-34.155,0-61.942-36.262-61.942-80.834c0-16.429,3.743-32.214,10.823-45.65l0.281-0.534h101.671l0.282,0.531c7.082,13.344,10.825,29.131,10.825,45.653C183.591,116.979,155.804,153.241,121.649,153.241z M72.021,28.223c-6.75,13.033-10.314,28.296-10.314,44.184c0,43.469,26.89,78.834,59.942,78.834c33.052,0,59.941-35.365,59.941-78.834c0-15.977-3.564-31.24-10.312-44.184H72.021z"/><path fill="#FFFFFF" d="M128.005,34.536c1.045,4.702,5.31,8.271,10.359,8.271c5.051,0,9.315-3.569,10.36-8.271H128.005z"/><path d="M138.364,43.806c-5.402,0-10.17-3.808-11.336-9.054c-0.065-0.296,0.007-0.606,0.196-0.842c0.19-0.237,0.477-0.375,0.78-0.375h20.72c0.304,0,0.59,0.138,0.78,0.375c0.189,0.236,0.262,0.546,0.196,0.842C148.535,39.999,143.768,43.806,138.364,43.806z M129.34,35.536c1.369,3.698,4.981,6.271,9.024,6.271s7.656-2.573,9.025-6.271H129.34z"/><path d="M139.235,254.664h-26.379c-0.552,0-1-0.447-1-1s0.448-1,1-1h26.379c0.553,0,1,0.447,1,1S139.788,254.664,139.235,254.664z"/><path d="M218.547,265.199h-26.466c-0.553,0-1-0.447-1-1s0.447-1,1-1h26.466c0.553,0,1,0.447,1,1S219.1,265.199,218.547,265.199z"/><path d="M195.738,235.773h-59.026c-0.553,0-1-0.447-1-1s0.447-1,1-1h59.026c0.553,0,1,0.447,1,1S196.291,235.773,195.738,235.773z"/><path d="M231.693,204.259h-26.379c-0.553,0-1-0.447-1-1s0.447-1,1-1h26.379c0.553,0,1,0.447,1,1S232.246,204.259,231.693,204.259z"/><path d="M74.463,270.51H46.168c-0.552,0-1-0.447-1-1s0.448-1,1-1h28.294c0.552,0,1,0.447,1,1S75.015,270.51,74.463,270.51z"/><path d="M51.566,225.326H28.495c-0.552,0-1-0.447-1-1s0.448-1,1-1h23.071c0.552,0,1,0.447,1,1S52.119,225.326,51.566,225.326z"/><path fill="#FFFFFF" d="M95.444,34.536c1.045,4.702,5.311,8.271,10.36,8.271c5.049,0,9.315-3.569,10.359-8.271H95.444z"/><path d="M105.805,43.806c-5.403,0-10.17-3.808-11.336-9.054c-0.066-0.296,0.006-0.606,0.196-0.842c0.19-0.237,0.477-0.375,0.78-0.375h20.72c0.304,0,0.591,0.138,0.78,0.374c0.19,0.237,0.263,0.547,0.196,0.843C115.976,39.999,111.208,43.806,105.805,43.806z M96.779,35.536c1.37,3.698,4.982,6.271,9.025,6.271s7.656-2.573,9.025-6.271H96.779z"/><path d="M101.626,34.536c0.435,1.916,2.176,3.308,4.179,3.308c2.002,0,3.743-1.393,4.178-3.308H101.626z"/><path d="M134.273,34.536c0.436,1.916,2.177,3.308,4.18,3.308c2.001,0,3.742-1.393,4.178-3.308H134.273z"/><path fill="#688C71" d="M148.376,64.397c0,0-8.792-10.709-26.64-10.709h-0.174c-17.848,0-26.64,10.709-26.64,10.709"/><path d="M147.604,65.033c-0.086-0.104-8.744-10.345-25.868-10.345h-0.174c-17.176,0-25.782,10.24-25.867,10.344l-1.546-1.27c0.372-0.452,9.301-11.074,27.413-11.074h0.174c18.112,0,27.041,10.622,27.412,11.074L147.604,65.033z"/><path fill="#FFFFFF" d="M108.33,55.865c-0.784-2.873-2.525-5.224-4.18-4.962c-2.089,0.261-3.482,4.526-2.959,8.444C103.106,58.216,105.63,56.736,108.33,55.865z"/><path d="M101.19,60.347c-0.149,0-0.299-0.033-0.437-0.101c-0.302-0.146-0.51-0.435-0.554-0.767c-0.405-3.04,0.271-6.406,1.643-8.186c0.62-0.804,1.375-1.282,2.184-1.383c0.104-0.017,0.241-0.028,0.378-0.028c2.3,0,4.114,2.872,4.89,5.719c0.141,0.516-0.149,1.051-0.658,1.215c-2.635,0.85-5.122,2.319-6.938,3.391C101.542,60.301,101.367,60.347,101.19,60.347zM104.404,51.883c-0.011,0.002-0.12,0.011-0.13,0.012c-0.338,0.042-0.648,0.36-0.848,0.62c-0.74,0.958-1.354,2.919-1.348,5.155c1.45-0.831,3.162-1.74,5.005-2.429C106.34,53.2,105.169,51.883,104.404,51.883z"/><path fill="#FFFFFF" d="M134.796,55.865c0.783-2.873,2.524-5.224,4.178-4.962c2.091,0.261,3.482,4.526,2.962,8.444C139.933,58.216,137.494,56.736,134.796,55.865z"/><path d="M141.936,60.347c-0.17,0-0.34-0.043-0.492-0.129l-0.722-0.411c-1.851-1.056-3.948-2.253-6.232-2.99c-0.509-0.164-0.799-0.699-0.658-1.215c0.822-3.015,2.863-6.065,5.299-5.687c0.776,0.096,1.531,0.574,2.151,1.377c1.395,1.807,2.056,5.097,1.646,8.186c-0.044,0.329-0.248,0.615-0.545,0.763C142.241,60.312,142.088,60.347,141.936,60.347zM136.041,55.243c1.835,0.693,3.54,1.618,5.006,2.449c0.009-2.246-0.607-4.216-1.349-5.176c-0.2-0.259-0.51-0.577-0.849-0.62l-0.13-0.012C137.955,51.883,136.784,53.2,136.041,55.243z"/><path d="M201.918,87.771c-0.463,0-0.878-0.322-0.978-0.793c-0.085-0.4-8.717-40.213-29.809-59.009c-0.36-0.321-0.44-0.854-0.189-1.266c0.251-0.412,0.763-0.587,1.211-0.415c0.323,0.123,32.476,12.651,47.194,40.956c0.254,0.49,0.063,1.094-0.427,1.349c-0.49,0.254-1.093,0.064-1.349-0.426c-10.883-20.93-31.585-33.046-41.11-37.74c18.675,20.313,26.354,55.757,26.436,56.137c0.114,0.54-0.231,1.071-0.771,1.185C202.057,87.765,201.986,87.771,201.918,87.771z"/><path fill="#FFE197" d="M107.023,27.223c0,0,1.654-11.492,2.873-22.375C111.202-6.469,93.093,9.027,86.39,27.31C98.753,27.223,107.023,27.223,107.023,27.223z"/><path d="M86.39,28.31c-0.325,0-0.63-0.158-0.818-0.424c-0.188-0.269-0.234-0.612-0.121-0.92C90.543,13.077,102.461,0,107.982,0c0.86,0,1.59,0.308,2.108,0.89c0.756,0.848,1.018,2.181,0.799,4.073c-1.207,10.77-2.86,22.287-2.877,22.402c-0.071,0.492-0.493,0.857-0.99,0.857c-0.083,0-8.409,0.001-20.627,0.087C86.395,28.31,86.392,28.31,86.39,28.31z M107.982,2c-3.634,0-14.599,10.409-20.136,24.3c9.216-0.062,15.993-0.074,18.309-0.077c0.404-2.866,1.734-12.44,2.748-21.486c0.2-1.738-0.146-2.339-0.305-2.517C108.506,2.118,108.354,2,107.982,2z"/><path fill="#FFE197" d="M133.229,27.223c0,0-1.656-11.492-2.874-22.375c-1.306-11.317,16.804,4.179,23.506,22.462C141.5,27.223,133.229,27.223,133.229,27.223z"/><path d="M153.861,28.31c-0.002,0-0.005,0-0.007,0c-12.217-0.086-20.542-0.087-20.625-0.087c-0.497,0-0.919-0.365-0.99-0.857c-0.017-0.115-1.672-11.632-2.878-22.406c-0.218-1.889,0.044-3.222,0.8-4.07C130.68,0.308,131.409,0,132.27,0c5.498,0,17.338,12.966,22.466,26.789c0.093,0.152,0.146,0.33,0.146,0.521c0,0.552-0.447,1-1,1C153.876,28.311,153.869,28.311,153.861,28.31z M134.098,26.223c2.315,0.003,9.092,0.015,18.307,0.077C146.869,12.409,135.904,2,132.27,2c-0.371,0-0.523,0.118-0.615,0.22c-0.158,0.178-0.506,0.779-0.306,2.513C132.361,13.782,133.692,23.357,134.098,26.223z"/><path fill="#688C71" d="M79.425,74.583c0,0,0.958,12.014,14.017,17.847c5.224,2.351,18.805-4.788,31.342,2.176c-4.44,4.268-12.711,12.885-24.813,12.798c-7.749-0.087-18.805-1.219-26.988-14.104"/><path d="M100.15,108.405c-0.062,0-0.124-0.001-0.187-0.001c-9.252-0.104-19.79-1.916-27.825-14.567l1.688-1.072c7.522,11.845,17.443,13.542,26.155,13.64c0.058,0,0.118,0.001,0.176,0.001c10.75,0,18.311-7.084,22.93-11.551c-7.196-3.459-14.626-2.399-20.661-1.54c-4.013,0.572-7.182,1.024-9.396,0.027C79.588,87.337,78.47,75.178,78.428,74.663l1.994-0.161c0.01,0.115,1.1,11.508,13.428,17.015c1.687,0.758,4.749,0.323,8.295-0.183c6.317-0.899,14.97-2.132,23.125,2.398l1.184,0.657l-1.656,1.595C120.306,100.332,111.966,108.404,100.15,108.405z"/><path fill="#688C71" d="M163.003,98.959c-3.656,5.66-14.453,8.097-21.853,6.966c-7.921-1.132-18.543-8.445-18.543-8.445s-9.751-6.094-21.417-4.091c-5.485,0.957-13.06-2.264-15.323-7.139c0,0,17.76-8.88,36.304-4.353c5.919,1.479,23.07,13.06,33.518-2.003"/><path d="M144.942,107.198c-1.365,0-2.692-0.094-3.943-0.285c-8.051-1.15-18.517-8.306-18.958-8.61c-0.057-0.034-9.554-5.837-20.681-3.929c-6.208,1.085-14.025-2.588-16.399-7.704l-0.409-0.881l0.869-0.435c0.739-0.37,18.3-8.993,36.989-4.43c1.172,0.293,2.698,0.932,4.465,1.671c7.457,3.12,19.938,8.342,27.994-3.272l1.643,1.14c-8.977,12.944-22.919,7.112-30.408,3.978c-1.692-0.708-3.153-1.319-4.173-1.574c-15.564-3.799-30.785,2.141-34.668,3.844c2.469,3.851,8.81,6.56,13.757,5.693c11.909-2.042,21.708,3.971,22.118,4.229c0.143,0.096,10.562,7.218,18.155,8.303c7.174,1.101,17.507-1.311,20.871-6.519l1.68,1.086C160.612,104.502,152.244,107.198,144.942,107.198z"/><path fill="#688C71" d="M123.564,82.244c0,0,15.323-5.572,26.467,2.96c11.144,8.531-5.484,9.664-16.02,2.525C127.482,83.203,123.564,82.244,123.564,82.244z"/><path d="M148.623,93.423c-4.854,0-10.811-1.91-15.172-4.866c-6.268-4.345-10.088-5.333-10.127-5.342l-3.17-0.793l3.068-1.118c0.208-0.075,5.154-1.847,11.544-1.847c6.239,0,11.579,1.667,15.873,4.954c3.227,2.47,4.554,4.634,3.944,6.431C154.021,92.506,151.903,93.423,148.623,93.423z M126.771,82.385c1.849,0.831,4.504,2.23,7.81,4.522c4.917,3.331,10.639,4.515,14.042,4.515c2.523,0,3.86-0.614,4.066-1.223c0.222-0.653-0.521-2.099-3.266-4.201c-3.937-3.014-8.867-4.542-14.657-4.542C131.579,81.457,128.745,81.933,126.771,82.385z"/><path fill="#688C71" d="M98.317,141.444c-11.839,28.991-8.183,80.009-8.183,80.009s-15.062,2.785-21.504,13.32c11.667,0,37.523,0,37.523,0s-4.788-66.427,3.395-89.062"/><path d="M107.228,235.773H66.846l0.931-1.521c5.771-9.437,17.92-12.818,21.305-13.598c-0.189-3.155-0.772-14.538-0.295-28.368c0.519-15.025,2.434-36.107,8.605-51.22l1.852,0.756c-11.614,28.439-8.148,79.052-8.111,79.56l0.063,0.891l-0.879,0.164c-0.139,0.025-13.213,2.55-19.8,11.337h34.565c-0.602-8.944-4.163-67.134,3.526-88.401l1.881,0.68c-8.018,22.177-3.386,87.987-3.338,88.649L107.228,235.773z"/><path fill="#688C71" d="M142.718,141.444c11.841,28.991,8.184,80.009,8.184,80.009s18.718-7.662,25.16,2.873c-11.056,8.88-25.855,10.447-41.266,10.447c0,0,4.788-66.427-3.396-89.062"/><path d="M134.796,235.773h-1.074l0.077-1.072c0.048-0.662,4.679-66.473-3.339-88.649l1.881-0.68c7.688,21.265,4.13,79.442,3.527,88.399c13.846-0.062,28.018-1.397,38.845-9.659c-6.36-8.574-23.259-1.805-23.433-1.733l-1.491,0.608l0.115-1.605c0.036-0.508,3.503-51.12-8.112-79.56l1.852-0.756c6.172,15.112,8.087,36.194,8.605,51.22c0.449,12.986-0.038,23.814-0.256,27.7c1.838-0.629,5.198-1.631,8.964-2.041c7.595-0.829,13.106,1.199,15.958,5.859l0.459,0.75l-0.687,0.551C164.984,234.506,148.943,235.773,134.796,235.773z"/></svg>