<svg xmlns="http://www.w3.org/2000/svg" viewBox="0 0 253 270"><path d="M123.951,266.116h-23.226c-0.552,0-1-0.447-1-1s0.448-1,1-1h23.226c0.553,0,1,0.447,1,1S124.504,266.116,123.951,266.116z"/><path d="M215.641,269.03h-24.926c-0.553,0-1-0.447-1-1s0.447-1,1-1h24.926c0.553,0,1,0.447,1,1S216.193,269.03,215.641,269.03z"/><path d="M76.609,226.301H44.805c-0.552,0-1-0.447-1-1s0.448-1,1-1h31.804c0.552,0,1,0.447,1,1S77.161,226.301,76.609,226.301z"/><path d="M159.235,236.578h-24.845c-0.553,0-1-0.447-1-1s0.447-1,1-1h24.845c0.553,0,1,0.447,1,1S159.788,236.578,159.235,236.578z"/><path d="M223.491,243.133h-15.782c-0.553,0-1-0.447-1-1s0.447-1,1-1h15.782c0.553,0,1,0.447,1,1S224.044,243.133,223.491,243.133z"/><path d="M87.048,241.19H70.135c-0.552,0-1-0.447-1-1s0.448-1,1-1h16.914c0.552,0,1,0.447,1,1S87.601,241.19,87.048,241.19z"/><path d="M22.558,219.055C22.557,219.055,22.558,219.055,22.558,219.055c-5.284,0-9.977-2.002-13.571-5.791c-6.553-6.906-9.405-19.347-8.477-36.977c2.572-48.881,27.72-92.357,27.974-92.791c0.23-0.393,0.696-0.58,1.134-0.457s0.738,0.526,0.729,0.981c-0.558,28.728,4.545,53.822,8.646,73.986c5.487,26.983,9.452,46.479-3.519,56.826C33.061,216.779,28.225,219.055,22.558,219.055z M28.305,87.993c-5.914,11.213-23.669,47.951-25.798,88.399c-0.898,17.06,1.771,29.002,7.93,35.495c4.052,4.271,8.828,5.167,12.12,5.167c5.147,0.001,9.501-2.037,11.666-3.781c12.018-9.589,8.156-28.581,2.81-54.868C33.104,139.086,28.26,115.264,28.305,87.993z"/><path d="M23.359,219.017c-0.268,0-0.534-0.106-0.731-0.317c-12.844-13.767-16.21-39.092-10.006-75.274c4.595-26.8,13.032-49.908,13.117-50.139c0.19-0.519,0.767-0.785,1.284-0.593c0.518,0.19,0.784,0.765,0.593,1.283c-0.335,0.912-33.186,91.567-3.526,123.357c0.377,0.404,0.355,1.037-0.049,1.414C23.848,218.928,23.604,219.017,23.359,219.017z"/><path d="M29.751,217.804c-0.527,0-0.968-0.412-0.998-0.945c-0.01-0.19-1.094-19.445-4.85-51.409c-4.421-37.217,3.581-70.748,3.663-71.083c0.131-0.537,0.675-0.862,1.208-0.735c0.537,0.131,0.866,0.672,0.735,1.208c-0.081,0.331-7.997,33.529-3.62,70.376c3.763,32.033,4.85,51.343,4.86,51.534c0.03,0.551-0.392,1.022-0.943,1.053C29.788,217.804,29.77,217.804,29.751,217.804z"/><path d="M9.681,213.515c-0.209,0-0.421-0.065-0.602-0.202c-0.441-0.333-0.528-0.96-0.195-1.4c8.947-11.847,32.521-11.426,33.516-11.405c0.552,0.014,0.989,0.472,0.976,1.023s-0.479,0.956-1.023,0.977c-0.237-0.014-23.544-0.417-31.873,10.61C10.284,213.378,9.984,213.515,9.681,213.515z"/><path d="M1.832,192.229c-0.246,0-0.492-0.09-0.685-0.271c-0.402-0.379-0.422-1.012-0.043-1.414c16.923-17.989,41.363-9.567,41.608-9.48c0.52,0.186,0.792,0.757,0.606,1.277c-0.185,0.52-0.754,0.791-1.277,0.607c-0.233-0.083-23.467-8.058-39.481,8.967C2.364,192.123,2.098,192.229,1.832,192.229z"/><path d="M2.561,165.605c-0.293,0-0.583-0.128-0.781-0.374c-0.345-0.432-0.276-1.061,0.155-1.406c17.794-14.27,35.987-7.915,36.169-7.849c0.519,0.188,0.787,0.761,0.599,1.28s-0.757,0.787-1.28,0.601c-0.17-0.062-17.349-6.014-34.238,7.528C3.001,165.533,2.781,165.605,2.561,165.605z"/><path d="M7.982,138.332c-0.245,0-0.49-0.089-0.682-0.269c-0.404-0.377-0.426-1.01-0.049-1.414c0.107-0.114,10.852-11.358,26.363-4.935c0.51,0.211,0.753,0.796,0.542,1.307c-0.211,0.51-0.796,0.753-1.306,0.541c-14.248-5.898-24.04,4.348-24.137,4.452C8.517,138.226,8.25,138.332,7.982,138.332z"/><path d="M15.105,116.238c-0.278,0-0.555-0.115-0.752-0.34c-0.364-0.415-0.324-1.046,0.09-1.41c0.087-0.077,8.801-7.591,16.886-1.42c0.439,0.336,0.523,0.963,0.188,1.402s-0.962,0.522-1.402,0.188c-6.773-5.172-14.046,1.064-14.352,1.332C15.574,116.156,15.339,116.238,15.105,116.238z"/><path d="M230.443,219.055c-5.668,0-10.503-2.275-12.922-4.225c-12.859-10.335-8.906-29.794-3.435-56.726c4.101-20.188,9.204-45.311,8.646-74.084c-0.009-0.455,0.291-0.858,0.729-0.981c0.444-0.124,0.905,0.064,1.135,0.457c0.254,0.434,25.402,43.91,27.895,92.793c0.927,17.628-1.925,30.069-8.478,36.976C240.419,217.053,235.727,219.055,230.443,219.055zM224.774,87.992c0.047,27.315-4.799,51.168-8.728,70.51c-5.331,26.239-9.183,45.197,2.729,54.771c2.166,1.745,6.521,3.782,11.668,3.782c3.292,0,8.066-0.896,12.118-5.167c6.16-6.492,8.829-18.435,7.931-35.495C248.431,135.929,230.686,99.201,224.774,87.992z"/><path d="M229.803,219.017c-0.244,0-0.489-0.089-0.683-0.269c-0.403-0.377-0.426-1.01-0.049-1.414c29.661-31.79-3.19-122.445-3.525-123.357c-0.19-0.519,0.075-1.093,0.594-1.283c0.518-0.192,1.093,0.075,1.283,0.593c0.085,0.23,8.521,23.339,13.117,50.139c6.204,36.183,2.838,61.508-10.006,75.274C230.337,218.91,230.07,219.017,229.803,219.017z"/><path d="M223.33,217.804c-0.019,0-0.037,0-0.056-0.002c-0.552-0.03-0.975-0.502-0.943-1.053c0.01-0.191,1.097-19.501,4.859-51.532c4.379-36.866-3.539-70.047-3.619-70.378c-0.131-0.536,0.198-1.077,0.735-1.208c0.536-0.133,1.077,0.198,1.208,0.735c0.081,0.335,8.083,33.866,3.662,71.085c-3.755,31.962-4.839,51.217-4.85,51.407C224.298,217.392,223.857,217.804,223.33,217.804z"/><path d="M243.481,213.515c-0.303,0-0.603-0.137-0.799-0.397c-8.335-11.036-31.64-10.622-31.875-10.61c-0.561-0.023-1.011-0.425-1.023-0.977s0.424-1.01,0.977-1.023c0.998-0.026,24.572-0.439,33.518,11.405c0.333,0.44,0.245,1.067-0.195,1.4C243.902,213.449,243.691,213.515,243.481,213.515z"/><path d="M251.329,192.229c-0.266,0-0.531-0.105-0.729-0.314c-16.012-17.023-39.251-9.05-39.481-8.967c-0.522,0.186-1.093-0.089-1.277-0.607c-0.185-0.521,0.087-1.092,0.607-1.277c0.244-0.086,24.687-8.507,41.608,9.48c0.378,0.402,0.359,1.035-0.043,1.414C251.821,192.139,251.575,192.229,251.329,192.229z"/><path d="M250.52,165.605c-0.219,0-0.44-0.072-0.625-0.22c-8.821-7.074-17.646-8.746-23.497-8.903c-6.372-0.168-10.699,1.359-10.741,1.375c-0.521,0.187-1.093-0.082-1.28-0.601c-0.187-0.52,0.081-1.092,0.6-1.28c0.181-0.066,18.375-6.42,36.171,7.849c0.431,0.346,0.5,0.975,0.154,1.406C251.104,165.478,250.812,165.605,250.52,165.605z"/><path d="M245.179,138.331c-0.267,0-0.533-0.105-0.73-0.315c-0.398-0.425-9.932-10.335-24.136-4.453c-0.509,0.21-1.095-0.031-1.307-0.541c-0.211-0.511,0.031-1.096,0.541-1.307c15.516-6.422,26.257,4.82,26.363,4.935c0.376,0.403,0.354,1.035-0.049,1.412C245.669,138.242,245.424,138.331,245.179,138.331z"/><path d="M238.057,116.238c-0.233,0-0.469-0.082-0.658-0.248c-0.307-0.267-7.581-6.501-14.354-1.332c-0.438,0.336-1.066,0.25-1.401-0.188c-0.335-0.439-0.251-1.066,0.188-1.402c8.083-6.17,16.799,1.344,16.886,1.42c0.415,0.364,0.455,0.995,0.091,1.41C238.611,116.123,238.335,116.238,238.057,116.238z"/><path fill="#DEF5FF" d="M117.477,205.958c-13.029-15.537,3.237-42.163,3.237-42.163l-1.133-2.508l-8.74-8.335c0,0-4.613,2.103-12.948,8.335c-8.417,6.312-8.659,26.705-4.936,35.122c3.723,8.335-4.047,10.763-4.047,10.763c-3.561,1.699-5.746,3.967-5.746,6.475c0,5.26,9.63,9.549,21.446,9.549c11.815,0,21.445-4.289,21.445-9.549C126.055,210.49,122.737,207.658,117.477,205.958z"/><path d="M104.61,224.195c-12.586,0-22.446-4.634-22.446-10.549c0-2.813,2.243-5.434,6.315-7.377c0.043-0.021,0.087-0.038,0.132-0.052c0.025-0.009,2.796-0.919,3.896-3.378c0.739-1.652,0.583-3.679-0.464-6.022c-3.589-8.115-3.838-29.515,5.249-36.33c8.327-6.227,12.941-8.357,13.134-8.445c0.371-0.17,0.808-0.097,1.105,0.187l8.74,8.335c0.093,0.089,0.168,0.194,0.221,0.312l1.133,2.508c0.137,0.302,0.114,0.651-0.058,0.934c-0.158,0.259-15.585,25.944-3.504,40.782c5.719,1.912,8.991,5.019,8.991,8.548C127.055,219.562,117.195,224.195,104.61,224.195z M89.285,208.101c-3.303,1.589-5.121,3.557-5.121,5.546c0,4.129,8.216,8.549,20.446,8.549s20.445-4.42,20.445-8.549c0-2.623-2.948-5.142-7.886-6.737c-0.179-0.058-0.338-0.164-0.459-0.309c-5.549-6.618-6.747-16.239-3.463-27.823c2.111-7.447,5.377-13.379,6.342-15.044l-0.839-1.857l-8.092-7.717c-1.49,0.769-5.715,3.105-12.167,7.929c-8.063,6.048-8.038,26.19-4.62,33.917c1.292,2.892,1.444,5.475,0.452,7.673C92.946,206.73,89.83,207.914,89.285,208.101z"/><path fill="#DEF5FF" d="M140.54,205.958c13.11-15.537-3.236-42.163-3.236-42.163l1.133-2.508l8.739-8.335c0,0,4.613,2.103,12.948,8.335c8.416,6.312,8.659,26.705,4.938,35.122c-3.724,8.335,4.046,10.763,4.046,10.763c3.562,1.699,5.746,3.967,5.746,6.475c0,5.26-9.631,9.549-21.445,9.549c-11.815,0-21.446-4.289-21.446-9.549C132.043,210.49,135.36,207.658,140.54,205.958z"/><path d="M153.408,224.195c-12.587,0-22.446-4.634-22.446-10.549c0.091-3.539,3.363-6.636,8.991-8.547c12.164-14.835-3.343-40.522-3.502-40.781c-0.173-0.283-0.195-0.633-0.059-0.936l1.133-2.508c0.053-0.117,0.128-0.223,0.221-0.312l8.739-8.335c0.297-0.283,0.734-0.356,1.105-0.187c0.192,0.088,4.807,2.219,13.132,8.444c9.088,6.816,8.84,28.216,5.254,36.327c-1.049,2.348-1.206,4.374-0.467,6.026c1.1,2.459,3.871,3.369,3.899,3.379c0.043,0.014,0.088,0.031,0.129,0.051c4.072,1.942,6.315,4.562,6.315,7.377C175.854,219.562,165.994,224.195,153.408,224.195z M138.43,163.732c0.97,1.666,4.251,7.598,6.37,15.044c3.299,11.585,2.09,21.208-3.495,27.826c-0.12,0.142-0.276,0.248-0.453,0.306c-4.873,1.6-7.822,4.128-7.89,6.764c0,4.104,8.216,8.523,20.446,8.523c12.229,0,20.445-4.42,20.445-8.549c0-1.989-1.818-3.957-5.121-5.546c-0.545-0.187-3.661-1.37-5.038-4.423c-0.992-2.198-0.84-4.781,0.454-7.677c3.415-7.724,3.438-27.866-4.624-33.914c-6.45-4.823-10.676-7.159-12.165-7.928l-8.092,7.717L138.43,163.732z"/><path fill="#DEF5FF" d="M188.288,159.668c0,37.874-27.921,46.29-62.394,46.29c-34.476,0-62.396-8.416-62.396-46.29s43.134-90.881,62.396-90.881C145.234,68.787,188.288,121.794,188.288,159.668z"/><path d="M125.895,206.958c-29.516,0-63.396-5.375-63.396-47.29c0-17.083,9.035-39.601,24.168-60.234c13.883-18.929,29.647-31.646,39.228-31.646c9.607,0,25.384,12.718,39.256,31.646c15.114,20.624,24.138,43.142,24.138,60.234C189.288,201.583,155.409,206.958,125.895,206.958z M125.895,69.787c-8.975,0-24.091,12.389-37.615,30.829c-14.891,20.304-23.781,42.379-23.781,59.052c0,31.322,18.935,45.29,61.396,45.29c42.459,0,61.394-13.968,61.394-45.29C187.288,122.018,144.663,69.787,125.895,69.787z"/><path fill="#D93229" d="M167.895,52.925c0,0-11.008-7.85-35.285-7.444c9.064-19.423,22.66-40.545,22.66-40.545s-5.585,13.515,5.583,20.798c-4.774,5.261-5.018,12.139-0.404,14C164.98,41.434,151.708,44.023,167.895,52.925z"/><path d="M167.894,53.925c-0.163,0-0.328-0.04-0.48-0.123c-0.773-0.426-1.481-0.837-2.128-1.234c-4.602-2.37-15.09-6.398-32.659-6.087c-0.358,0.009-0.668-0.167-0.855-0.456s-0.213-0.654-0.067-0.967c8.989-19.262,22.589-40.452,22.726-40.663c0.278-0.435,0.845-0.583,1.303-0.346c0.459,0.239,0.659,0.789,0.463,1.268c-0.214,0.521-5.123,12.845,5.204,19.58c0.246,0.159,0.408,0.419,0.446,0.71c0.037,0.29-0.055,0.582-0.252,0.799c-2.642,2.911-3.941,6.569-3.312,9.32c0.237,1.033,0.87,2.406,2.541,3.081c0.54,0.202,1.315,0.575,1.56,1.38c0.267,0.884-0.27,1.628-0.788,2.348c-0.58,0.806-1.181,1.639-0.965,2.723c0.217,1.085,1.372,2.932,5.641,5.567c1.447,0.749,2.175,1.265,2.205,1.286c0.432,0.308,0.549,0.898,0.267,1.347C168.552,53.758,168.228,53.925,167.894,53.925zM134.415,44.465c11.46,0,19.847,1.807,25.501,3.71c-0.669-0.858-1.083-1.698-1.248-2.527c-0.387-1.938,0.63-3.349,1.304-4.283c0.131-0.182,0.295-0.41,0.396-0.578c-0.064-0.033-0.152-0.072-0.271-0.116c-1.951-0.787-3.279-2.381-3.765-4.497c-0.719-3.14,0.441-6.983,3.045-10.248c-6.056-4.488-6.814-10.871-6.364-15.492c-4.388,7.141-12.57,20.906-18.819,34.032C134.268,44.465,134.341,44.465,134.415,44.465z"/><path d="M132.608,46.48c-0.181,0-0.364-0.049-0.529-0.152c-0.469-0.293-0.61-0.91-0.317-1.378c11.211-17.922,28.249-20.202,28.969-20.29c0.562-0.067,1.047,0.322,1.114,0.87c0.067,0.547-0.322,1.047-0.869,1.115c-0.167,0.021-16.833,2.283-27.519,19.365C133.268,46.313,132.941,46.48,132.608,46.48z"/><path d="M132.61,46.48c-0.329,0-0.651-0.162-0.843-0.46c-0.298-0.465-0.163-1.084,0.302-1.382c15.36-9.855,28.932-5.557,29.5-5.369c0.524,0.173,0.809,0.737,0.637,1.262c-0.172,0.523-0.734,0.811-1.261,0.639c-0.13-0.042-13.271-4.169-27.796,5.152C132.982,46.429,132.795,46.48,132.61,46.48z"/><path fill="#D93229" d="M89.476,56.567c0,0,10.116-8.821,34.313-10.683C112.622,27.433,96.841,7.688,96.841,7.688s7.041,12.947-3.318,21.202c5.341,4.774,6.312,11.572,1.942,13.839C91.176,44.913,104.61,46.209,89.476,56.567z"/><path d="M89.477,57.567c-0.299,0-0.595-0.135-0.792-0.389c-0.324-0.418-0.265-1.018,0.134-1.365c0.028-0.024,0.688-0.597,2.031-1.466c3.961-3.014,4.923-4.95,5.032-6.044c0.109-1.104-0.578-1.882-1.243-2.635c-0.595-0.673-1.209-1.369-1.036-2.282c0.176-0.922,1.103-1.395,1.408-1.55c1.551-0.804,2.032-2.193,2.161-3.218c0.353-2.798-1.341-6.324-4.316-8.983c-0.22-0.196-0.341-0.479-0.333-0.774c0.008-0.294,0.146-0.57,0.376-0.754c4.01-3.195,5.75-7.504,5.173-12.806c-0.439-4.026-2.093-7.106-2.11-7.137c-0.248-0.455-0.106-1.024,0.325-1.311c0.431-0.287,1.01-0.197,1.334,0.208c0.158,0.198,15.95,20.009,27.022,38.305c0.18,0.297,0.192,0.666,0.034,0.975c-0.159,0.309-0.467,0.513-0.812,0.54c-18.157,1.396-28.314,6.815-31.868,9.104c-0.594,0.449-1.244,0.918-1.958,1.406C89.869,57.511,89.672,57.567,89.477,57.567z M95.657,43.771c0.118,0.164,0.32,0.394,0.48,0.575c0.768,0.87,1.93,2.185,1.734,4.155c-0.083,0.835-0.409,1.703-0.983,2.613c5.472-2.444,13.69-5.035,25.204-6.09c-7.656-12.442-17.261-25.345-22.397-32.043c0.941,4.554,0.858,10.949-4.678,15.951c2.971,3.013,4.542,6.738,4.139,9.938c-0.267,2.119-1.415,3.805-3.23,4.746C95.805,43.678,95.718,43.729,95.657,43.771z"/><path d="M123.79,46.885c-0.298,0-0.592-0.132-0.789-0.385c-12.514-16.034-29.338-16.687-29.506-16.691c-0.552-0.015-0.987-0.476-0.972-1.027c0.015-0.552,0.451-1.014,1.027-0.972c0.727,0.021,17.939,0.691,31.027,17.46c0.34,0.436,0.263,1.063-0.173,1.403C124.222,46.815,124.005,46.885,123.79,46.885z"/><path d="M123.788,46.885c-0.151,0-0.306-0.034-0.45-0.107c-15.583-7.87-28.155-2.539-28.281-2.485c-0.506,0.222-1.096-0.01-1.317-0.516c-0.222-0.506,0.009-1.096,0.515-1.316c0.546-0.239,13.566-5.759,29.985,2.532c0.492,0.249,0.69,0.851,0.441,1.343C124.506,46.684,124.153,46.885,123.788,46.885z"/><path fill="#DEF5FF" d="M145.882,64.498c0-0.566-8.093-63.447-19.099-63.528c-11.005-0.08-20.798,63.042-20.798,63.609c0,8.982,8.982,16.185,19.99,16.185C136.979,80.764,145.882,73.48,145.882,64.498z"/><path d="M125.976,81.764c-11.574,0-20.99-7.709-20.99-17.185c0-0.646,9.522-64.609,21.776-64.609c12.285,0.091,20.12,63.885,20.12,64.528C146.882,74.019,137.503,81.764,125.976,81.764z M126.775,1.97c-9.042,0-19.1,55.704-19.793,62.684c0.003,8.299,8.521,15.11,18.993,15.11c10.425,0,18.906-6.848,18.906-15.266c-0.064-0.78-2.091-16.445-5.473-32.072C133.471,4.978,128.595,1.983,126.775,1.97z"/><ellipse transform="matrix(0.2409 0.9706 -0.9706 0.2409 146.4929 -105.7991)" fill="#DEF5FF" cx="140.88" cy="40.749" rx="14.001" ry="8.175"/><path d="M143.069,55.481c-4.627,0-9.292-5.267-11.094-12.523c-0.943-3.798-0.961-7.601-0.05-10.707c0.966-3.294,2.863-5.446,5.341-6.062c0.463-0.115,0.942-0.173,1.424-0.173c4.626,0,9.292,5.266,11.095,12.521c2.024,8.165-0.3,15.531-5.291,16.77C144.031,55.423,143.552,55.481,143.069,55.481z M138.69,28.017c-0.319,0-0.636,0.038-0.941,0.114c-1.76,0.437-3.146,2.1-3.904,4.683c-0.812,2.771-0.787,6.203,0.072,9.663c1.558,6.273,5.492,11.005,9.152,11.005c0.32,0,0.637-0.039,0.942-0.115c3.773-0.936,5.528-7.506,3.832-14.346C146.285,32.747,142.351,28.017,138.69,28.017z"/><path fill="#FFFFFF" d="M132.447,34.555c0,0,6.313-5.18,12.867-3.317c2.268,2.751,4.047,10.115,4.047,10.115s1.538,10.764-5.099,12.867c-2.427,0.81-7.04-2.266-9.791-7.526C131.801,40.786,132.447,34.555,132.447,34.555z"/><path d="M143.417,55.349c-3.163,0-7.39-3.521-9.831-8.191c-2.776-6.136-2.161-12.44-2.134-12.705c0.027-0.263,0.157-0.503,0.361-0.67c0.196-0.162,4.878-3.949,10.544-3.949c1.111,0,2.198,0.148,3.23,0.442c0.195,0.056,0.369,0.169,0.498,0.325c2.387,2.896,4.173,10.207,4.247,10.518c0.086,0.566,1.592,11.722-5.769,14.055C144.222,55.288,143.83,55.349,143.417,55.349z M133.412,35.077c-0.079,1.461-0.165,6.479,1.971,11.204c2.274,4.346,5.948,7.067,8.034,7.067c0.198,0,0.376-0.026,0.529-0.077c5.762-1.827,4.439-11.679,4.425-11.778l0,0c-0.005,0.001-1.633-6.658-3.639-9.376c-0.762-0.188-1.56-0.284-2.375-0.284C138.209,31.833,134.514,34.276,133.412,35.077z"/><ellipse transform="matrix(0.2407 0.9706 -0.9706 0.2407 143.6094 -99.2458)" cx="135.236" cy="42.163" rx="2.994" ry="2.105"/><ellipse transform="matrix(0.2512 -0.9679 0.9679 0.2512 44.7084 139.03)" fill="#DEF5FF" cx="112.212" cy="40.619" rx="14" ry="8.173"/><path d="M109.931,55.327c-0.504,0-1.004-0.063-1.487-0.189c-2.471-0.641-4.345-2.813-5.275-6.117c-0.877-3.115-0.819-6.917,0.165-10.706c1.865-7.187,6.559-12.403,11.161-12.403c0.504,0,1.003,0.063,1.485,0.189c4.979,1.292,7.225,8.682,5.111,16.823C119.227,50.11,114.533,55.327,109.931,55.327z M114.494,27.911c-3.646,0-7.612,4.688-9.226,10.906c-0.896,3.451-0.958,6.882-0.175,9.661c0.73,2.591,2.098,4.269,3.853,4.724c0.319,0.083,0.65,0.125,0.984,0.125c3.646,0,7.611-4.688,9.225-10.905c1.771-6.821,0.086-13.409-3.678-14.386C115.159,27.953,114.828,27.911,114.494,27.911z"/><path fill="#FFFFFF" d="M120.633,34.474c0,0-6.312-5.261-12.867-3.398c-2.347,2.751-4.128,10.115-4.128,10.115s-1.699,10.683,4.937,12.949c2.428,0.809,7.041-2.186,9.873-7.446C121.281,40.705,120.633,34.474,120.633,34.474z"/><path d="M109.439,55.271L109.439,55.271c-0.42,0-0.817-0.062-1.18-0.183c-7.355-2.512-5.684-13.584-5.609-14.055c0.091-0.388,1.881-7.707,4.355-10.607c0.128-0.15,0.298-0.259,0.487-0.312c1.021-0.29,2.095-0.438,3.193-0.438c5.688,0,10.39,3.865,10.588,4.03c0.2,0.167,0.327,0.405,0.354,0.664c0.027,0.266,0.644,6.581-2.275,12.751C116.802,51.862,112.643,55.271,109.439,55.271z M108.339,31.957c-1.724,2.263-3.266,7.555-3.729,9.469c0,0.02-1.47,9.801,4.288,11.768c0.151,0.05,0.336,0.077,0.541,0.077c2.13,0,5.752-2.638,8.128-7.051c2.247-4.752,2.177-9.775,2.1-11.229c-1.098-0.812-4.814-3.315-8.981-3.315C109.88,31.676,109.092,31.771,108.339,31.957z"/><ellipse transform="matrix(0.2511 -0.968 0.968 0.2511 46.6477 145.5717)" cx="117.398" cy="42.64" rx="2.995" ry="2.104"/><path fill="#DEF5FF" d="M164.737,105.204c0,0,21.041,15.619,48.233,4.289l-27.92-25.815c0,0-8.659,22.336-22.66,14.891"/><path d="M192.967,114.579c-17.013,0-28.668-8.455-28.825-8.572c-0.443-0.328-0.536-0.954-0.207-1.397c0.327-0.443,0.953-0.536,1.398-0.208c0.201,0.149,20.167,14.587,45.797,4.752l-25.716-23.778c-1.545,3.418-6.15,12.312-13.271,14.961c-3.341,1.243-6.779,0.946-10.222-0.885c-0.487-0.26-0.673-0.865-0.413-1.353s0.865-0.673,1.353-0.413c2.916,1.55,5.803,1.81,8.585,0.776c7.856-2.923,12.626-15.024,12.673-15.146c0.12-0.31,0.385-0.538,0.707-0.613c0.324-0.076,0.661,0.016,0.904,0.24l27.92,25.815c0.25,0.231,0.365,0.574,0.306,0.909c-0.06,0.336-0.285,0.617-0.6,0.748C206.049,113.461,199.152,114.579,192.967,114.579z"/><path fill="#D93229" d="M229.074,98.406c9.469-10.035,13.515-22.578,11.169-31.966c-1.133-4.775-3.562-1.133-3.562-1.133c-0.97,1.214-0.97,3.317-0.161,4.612c0,0,0.891,1.295,0.404,1.78c-0.484,0.485-1.699-0.323-1.699-0.323c-1.376-0.81-2.752-1.134-3.156-0.729c0,0,0,0-0.322,0.404c-0.081,0.081-0.081,0.081-0.081,0.081c-0.081,0.081,0.565,1.214,1.375,2.509c0,0,0.809,1.214,0.404,1.699c-0.485,0.486-1.779-0.323-1.779-0.323c-1.376-0.81-3.076-0.81-3.319-0.566c-0.243,0.242,0.243,1.457,1.133,2.751c0,0,0.892,1.295,0.405,1.78c-0.486,0.486-1.943-0.404-1.943-0.404c-1.375-0.81-3.074-0.89-3.316-0.647c-0.243,0.242,0.323,1.457,1.214,2.751c0,0,1.052,1.457,0.566,1.942c-0.485,0.486-2.186-0.565-2.186-0.565c-1.294-0.81-2.994-0.972-3.237-0.81c-0.243,0.161,0.324,1.375,1.214,2.671c0,0,1.296,1.78,0.811,2.266c-0.486,0.566-2.672-0.81-2.672-0.81c-1.294-0.891-2.993-1.053-3.236-0.81c-0.243,0.162,0.323,1.376,1.295,2.671c0,0,1.618,2.266,1.132,2.752c-0.565,0.566-3.317-1.296-3.317-1.296c-1.296-0.89-3.479-0.971-4.773-0.161c0,0-6.232,3.723-7.527,2.59c-1.295-1.214,2.186-7.688,2.186-7.688c0.729-1.375,0.566-3.561-0.404-4.774c0,0-2.024-2.671-1.457-3.237c0.485-0.566,2.832,0.971,2.832,0.971c1.295,0.891,2.833,0.891,2.995,0.647c0.161-0.242-0.405-1.456-1.376-2.751c0,0-1.537-2.023-0.973-2.59c0.486-0.485,2.349,0.647,2.349,0.647c1.294,0.81,2.913,0.891,3.074,0.647c0.162-0.243-0.404-1.456-1.295-2.752c0,0-1.134-1.699-0.729-2.185c0.485-0.485,2.023,0.485,2.023,0.485c1.296,0.81,2.994,0.81,3.156,0.566c0.242-0.242-0.324-1.537-1.215-2.832c0,0-0.97-1.376-0.484-1.861c0.484-0.485,1.779,0.323,1.779,0.323c1.377,0.81,2.994,0.81,3.237,0.567c0.243-0.243-0.324-1.538-1.213-2.833c0,0-0.891-1.295-0.405-1.699c0.486-0.485,1.699,0.323,1.699,0.323c1.376,0.81,2.509,1.376,2.59,1.295c0,0,0,0,0.081-0.081c0.324-0.404,0.324-0.404,0.324-0.404c0.405-0.405,0-1.78-0.891-3.075c0,0-0.81-1.214-0.404-1.7c0.485-0.484,1.781,0.324,1.781,0.324c1.375,0.81,3.397,0.647,4.612-0.404c0,0,3.155-2.913-0.81-3.399c-9.792-1.133-22.175,2.59-31.886,12.787c-12.786,13.514-15.699,31.642-6.312,40.463C198.323,115.725,216.288,111.921,229.074,98.406z"/><path d="M201.921,112.658C201.921,112.658,201.921,112.658,201.921,112.658c-5.49,0-10.271-1.735-13.826-5.021c-3.646-3.425-5.658-8.263-5.826-13.995c-0.27-9.177,4.25-19.603,12.09-27.89c8.048-8.45,18.673-13.295,29.155-13.295c1.209,0,2.411,0.067,3.572,0.202c1.548,0.189,2.483,0.766,2.789,1.712c0.498,1.546-1.093,3.116-1.416,3.415c-1.522,1.319-4.098,1.532-5.799,0.531c-0.005-0.003-0.011-0.007-0.017-0.011c0.929,1.362,1.682,3.276,0.794,4.256l-0.3,0.374c-0.022,0.029-0.047,0.057-0.073,0.082l-0.081,0.081c-0.188,0.188-0.47,0.301-0.735,0.301c-0.213,0-0.605,0-2.947-1.37c2.015,2.983,1.261,3.734,1.011,3.984c-0.297,0.295-0.744,0.433-1.408,0.433c-1.003,0-2.141-0.316-3.042-0.846c-0.02-0.012-0.039-0.023-0.06-0.036c0.029,0.048,0.06,0.094,0.09,0.137c2.026,2.945,1.423,3.783,1.143,4.075c-0.366,0.422-0.972,0.474-1.41,0.474c-0.386,0-1.745-0.062-3.022-0.859c-0.056-0.036-0.115-0.07-0.177-0.104c0.077,0.138,0.161,0.275,0.244,0.401c1.965,2.856,1.495,3.561,1.295,3.86c-0.376,0.565-1.115,0.565-1.358,0.565c-0.741,0-1.992-0.24-3.078-0.92c-0.182-0.109-0.383-0.217-0.578-0.31c0.154,0.266,0.341,0.552,0.528,0.799c2.126,2.836,1.59,3.645,1.413,3.91c-0.263,0.394-0.728,0.585-1.421,0.585c-0.369,0-1.677-0.069-2.974-0.962c-0.292-0.19-0.619-0.378-0.924-0.533c0.249,0.431,0.577,0.928,0.912,1.371c1.183,1.479,1.41,4.111,0.491,5.848c-1.439,2.679-2.49,5.565-2.363,6.434c0.013,0,0.025,0,0.04,0c1.316,0,4.544-1.633,6.269-2.662c1.528-0.958,4.292-0.876,5.853,0.195c0.438,0.296,0.927,0.583,1.355,0.805c-0.164-0.283-0.355-0.583-0.551-0.856c-0.626-0.833-1.677-2.402-1.518-3.327c0.048-0.279,0.187-0.521,0.396-0.691c0.347-0.298,0.802-0.334,1.121-0.334c0.867,0,2.231,0.336,3.323,1.088c0.25,0.156,0.536,0.312,0.805,0.44c-0.1-0.166-0.21-0.334-0.319-0.485c-1.087-1.581-1.565-2.704-1.438-3.36c0.06-0.306,0.229-0.565,0.479-0.731c0.231-0.154,0.515-0.224,0.917-0.224c0.856,0,2.286,0.318,3.404,1.019c0.12,0.073,0.252,0.146,0.385,0.213c-0.036-0.056-0.072-0.108-0.106-0.156c-2.102-3.055-1.432-3.724-1.109-4.045c0.281-0.281,0.697-0.412,1.309-0.412c0.813,0,2.087,0.237,3.222,0.905c0.084,0.052,0.176,0.102,0.268,0.147c-0.021-0.033-0.041-0.065-0.062-0.096c-1.362-1.982-1.703-3.336-1.014-4.024c0.296-0.296,0.751-0.434,1.434-0.434c0.39,0,1.765,0.061,3.099,0.846c0.006,0.004,0.011,0.007,0.017,0.01c-1.549-2.478-1.884-3.086-1.23-3.739l0.041-0.041l0.287-0.36c0.023-0.029,0.048-0.058,0.074-0.084c0.786-0.785,2.499-0.521,4.344,0.557c-0.003-0.004-0.006-0.008-0.009-0.012c-1.102-1.762-1.001-4.295,0.204-5.803c0.146-0.228,1.204-1.705,2.619-1.705c1.281,0,2.189,1.087,2.697,3.23c2.494,9.979-1.985,22.892-11.414,32.884C221.765,107.587,211.342,112.658,201.921,112.658z M223.514,54.458c-9.938,0-20.035,4.618-27.704,12.672c-7.481,7.906-11.797,17.797-11.542,26.454c0.152,5.189,1.947,9.543,5.19,12.591c3.174,2.932,7.485,4.483,12.462,4.483c8.883,0.001,18.762-4.837,26.428-12.939c8.972-9.508,13.261-21.69,10.926-31.036c-0.355-1.497-0.757-1.704-0.761-1.705c-0.196,0.001-0.714,0.455-1,0.885c-0.713,0.898-0.758,2.547-0.146,3.527c0.296,0.429,1.262,2.022,0.263,3.019c-0.202,0.203-0.565,0.447-1.135,0.447c-0.813,0-1.663-0.538-1.825-0.646c-0.68-0.398-1.321-0.63-1.747-0.706c0.199,0.354,0.508,0.878,0.965,1.61c0.352,0.526,1.121,1.912,0.325,2.868c-0.266,0.271-0.63,0.516-1.208,0.516c-0.819,0-1.702-0.525-1.87-0.631c-0.51-0.3-1.108-0.46-1.594-0.523c0.163,0.341,0.41,0.782,0.762,1.294c0.319,0.464,1.286,2.058,0.288,3.055c-0.2,0.199-0.559,0.438-1.13,0.438c-0.859,0-1.852-0.58-2.042-0.697c-0.478-0.28-1.031-0.461-1.516-0.551c0.174,0.328,0.421,0.745,0.759,1.235c0.452,0.627,1.431,2.233,0.449,3.216c-0.191,0.192-0.536,0.422-1.089,0.422c-0.896,0-2.01-0.646-2.33-0.844c-0.4-0.251-0.868-0.432-1.298-0.549c0.161,0.284,0.368,0.618,0.625,0.993c0.805,1.105,1.594,2.638,0.693,3.539c-0.139,0.166-0.49,0.43-1.085,0.43c-1.002,0-2.417-0.842-2.826-1.1c-0.427-0.293-0.89-0.486-1.299-0.604c0.175,0.292,0.402,0.636,0.689,1.019c2.125,2.975,1.336,3.763,1.039,4.06c-0.182,0.182-0.51,0.4-1.034,0.4c-1.135,0-3.005-1.205-3.551-1.575c-0.932-0.64-2.783-0.704-3.683-0.142c-0.522,0.312-5.016,2.956-7.312,2.956c-0.582,0-1.054-0.155-1.404-0.462c-1.56-1.461,0.209-5.651,1.963-8.914c0.548-1.034,0.404-2.79-0.305-3.677c-2.567-3.387-1.706-4.246-1.382-4.569c0.099-0.119,0.444-0.417,1.052-0.417c1.031,0,2.583,0.964,3.034,1.26c0.346,0.237,0.711,0.395,1.043,0.492c-0.192-0.332-0.449-0.729-0.771-1.16c-0.938-1.234-1.855-2.917-0.882-3.896c0.191-0.19,0.531-0.415,1.077-0.415c0.925,0,2.147,0.7,2.5,0.914c0.37,0.231,0.784,0.394,1.167,0.495c-0.179-0.327-0.419-0.725-0.731-1.179c-1.035-1.551-1.259-2.688-0.672-3.392c0.256-0.263,0.606-0.495,1.164-0.495c0.864,0,1.872,0.594,2.161,0.775c0.439,0.275,0.951,0.431,1.39,0.504c-0.181-0.366-0.447-0.835-0.807-1.357c-0.431-0.61-1.343-2.159-0.367-3.135c0.203-0.204,0.568-0.448,1.146-0.448c0.819,0,1.702,0.525,1.871,0.631c0.484,0.284,1.023,0.443,1.479,0.513c-0.18-0.366-0.447-0.838-0.809-1.364c-0.881-1.281-0.964-2.416-0.221-3.034c0.138-0.144,0.501-0.387,1.068-0.387c0.814,0,1.663,0.538,1.825,0.646c0.667,0.391,1.19,0.675,1.562,0.863c-0.089-0.376-0.342-1.011-0.837-1.729c-0.376-0.564-1.146-1.951-0.348-2.908c0.265-0.271,0.63-0.514,1.207-0.514c0.819,0,1.702,0.524,1.871,0.63c0.388,0.228,0.913,0.36,1.459,0.36c0.759,0,1.476-0.245,1.97-0.672c0.483-0.453,0.878-1.109,0.844-1.315v0.001c-0.007,0-0.209-0.225-1.121-0.336C225.771,54.521,224.646,54.458,223.514,54.458z"/><path fill="#DEF5FF" d="M84.216,106.175c0,0-18.29,14.648-45.4,3.318l27.92-25.815c0,0,9.873,22.497,23.874,15.053"/><path d="M59.116,114.755c-6.089,0-13.058-1.151-20.686-4.339c-0.314-0.131-0.54-0.413-0.599-0.748c-0.059-0.335,0.056-0.678,0.306-0.909l27.92-25.815c0.237-0.219,0.567-0.312,0.882-0.245c0.316,0.066,0.582,0.281,0.712,0.577c0.055,0.125,5.578,12.501,13.863,15.375c2.857,0.991,5.76,0.723,8.625-0.803c0.489-0.26,1.093-0.074,1.353,0.413s0.074,1.093-0.413,1.353c-3.379,1.797-6.819,2.108-10.225,0.926c-7.542-2.62-12.737-11.811-14.438-15.205l-25.763,23.822c25.468,9.874,42.762-3.621,42.938-3.762c0.431-0.346,1.06-0.275,1.406,0.155c0.345,0.432,0.275,1.061-0.156,1.406C84.706,107.063,74.852,114.755,59.116,114.755z"/><path fill="#D93229" d="M22.631,98.406C13.162,88.371,9.116,75.828,11.463,66.44c1.132-4.775,3.561-1.133,3.561-1.133c0.971,1.214,0.971,3.317,0.162,4.612c0,0-0.89,1.295-0.405,1.78c0.486,0.485,1.7-0.323,1.7-0.323c1.375-0.81,2.751-1.134,3.156-0.729c0,0,0,0,0.324,0.404c0.081,0.081,0.081,0.081,0.081,0.081c0.081,0.081-0.567,1.214-1.375,2.509c0,0-0.81,1.214-0.405,1.699c0.485,0.486,1.78-0.323,1.78-0.323c1.375-0.81,3.075-0.81,3.318-0.566c0.243,0.242-0.243,1.457-1.133,2.751c0,0-0.891,1.295-0.405,1.78c0.486,0.486,1.942-0.404,1.942-0.404c1.375-0.81,3.075-0.89,3.317-0.647c0.243,0.242-0.323,1.457-1.213,2.751c0,0-1.052,1.457-0.567,1.942c0.486,0.486,2.185-0.565,2.185-0.565c1.295-0.81,2.995-0.972,3.237-0.81c0.243,0.161-0.324,1.375-1.214,2.671c0,0-1.295,1.78-0.809,2.266c0.486,0.566,2.671-0.81,2.671-0.81c1.294-0.891,2.994-1.053,3.237-0.81c0.243,0.162-0.324,1.376-1.295,2.671c0,0-1.619,2.266-1.133,2.752c0.567,0.566,3.318-1.296,3.318-1.296c1.295-0.89,3.48-0.971,4.774-0.161c0,0,6.231,3.723,7.526,2.59c1.295-1.214-2.185-7.688-2.185-7.688c-0.729-1.375-0.566-3.561,0.405-4.774c0,0,2.023-2.671,1.457-3.237c-0.485-0.566-2.833,0.971-2.833,0.971c-1.294,0.891-2.832,0.891-2.994,0.647c-0.162-0.242,0.404-1.456,1.376-2.751c0,0,1.537-2.023,0.971-2.59c-0.486-0.485-2.347,0.647-2.347,0.647c-1.295,0.81-2.914,0.891-3.075,0.647c-0.162-0.243,0.405-1.456,1.294-2.752c0,0,1.133-1.699,0.729-2.185c-0.485-0.485-2.023,0.485-2.023,0.485c-1.295,0.81-2.994,0.81-3.157,0.566c-0.242-0.242,0.325-1.537,1.214-2.832c0,0,0.971-1.376,0.486-1.861c-0.486-0.485-1.78,0.323-1.78,0.323c-1.376,0.81-3.076,0.81-3.237,0.567c-0.243-0.243,0.324-1.538,1.214-2.833c0,0,0.89-1.295,0.404-1.699c-0.485-0.485-1.699,0.323-1.699,0.323c-1.375,0.81-2.509,1.376-2.59,1.295c0,0,0,0-0.081-0.081c-0.323-0.404-0.323-0.404-0.323-0.404c-0.405-0.405,0-1.78,0.89-3.075c0,0,0.809-1.214,0.405-1.7c-0.486-0.484-1.781,0.324-1.781,0.324c-1.376,0.81-3.399,0.647-4.613-0.404c0,0-3.156-2.913,0.81-3.399c9.792-1.133,22.174,2.59,31.885,12.787c12.787,13.514,15.7,31.642,6.312,40.463C53.383,115.725,35.417,111.921,22.631,98.406z"/><path d="M49.785,112.658c-9.422,0-19.845-5.07-27.881-13.564C12.474,89.1,7.995,76.188,10.493,66.197c0.505-2.132,1.413-3.219,2.694-3.219c1.415,0,2.472,1.478,2.669,1.774c1.156,1.438,1.256,3.972,0.177,5.697c-0.011,0.017-0.023,0.034-0.034,0.052c1.904-1.104,3.568-1.338,4.345-0.561c0.026,0.025,0.051,0.054,0.074,0.082l0.331,0.403c0.654,0.654,0.314,1.264-1.23,3.739c1.353-0.795,2.726-0.855,3.115-0.855c0.682,0,1.137,0.138,1.434,0.435c0.688,0.688,0.347,2.042-1.016,4.024c-0.021,0.03-0.041,0.062-0.062,0.095c0.092-0.046,0.179-0.094,0.253-0.139c1.149-0.677,2.422-0.914,3.236-0.914c0.612,0,1.028,0.131,1.31,0.413c0.321,0.32,0.991,0.989-1.096,4.024c-0.04,0.056-0.08,0.114-0.118,0.175c0.133-0.067,0.266-0.141,0.387-0.216c1.115-0.696,2.544-1.015,3.399-1.015c0.402,0,0.686,0.069,0.919,0.225c0.248,0.165,0.418,0.425,0.477,0.73c0.127,0.656-0.352,1.78-1.422,3.339c-0.115,0.159-0.229,0.333-0.331,0.505c0.275-0.134,0.57-0.295,0.836-0.462c1.058-0.729,2.421-1.064,3.288-1.064c0.32,0,0.775,0.036,1.123,0.334c0.208,0.171,0.348,0.413,0.396,0.691c0.159,0.924-0.892,2.493-1.532,3.347c-0.188,0.265-0.375,0.559-0.538,0.837c0.431-0.223,0.921-0.511,1.363-0.809c1.55-1.065,4.298-1.16,5.865-0.181c1.707,1.019,4.934,2.651,6.25,2.651c0.031,0,0.057-0.001,0.078-0.002c0.143-0.715-0.924-3.683-2.398-6.427c-0.922-1.741-0.694-4.373,0.505-5.873c0.327-0.432,0.649-0.923,0.896-1.351c-0.308,0.158-0.642,0.349-0.943,0.546c-1.278,0.88-2.584,0.949-2.954,0.949c-0.693,0-1.158-0.191-1.419-0.584c-0.177-0.266-0.716-1.075,1.408-3.906c0.192-0.254,0.379-0.539,0.532-0.804c-0.2,0.096-0.405,0.205-0.588,0.316c-1.077,0.673-2.328,0.913-3.068,0.913c-0.243,0-0.982,0-1.359-0.565c-0.2-0.3-0.668-1.003,1.303-3.872c0.081-0.122,0.161-0.255,0.237-0.391c-0.06,0.034-0.119,0.068-0.174,0.104c-1.279,0.8-2.639,0.861-3.025,0.861c-0.438,0-1.044-0.052-1.411-0.474c-0.279-0.291-0.883-1.127,1.136-4.066c0.032-0.046,0.064-0.095,0.096-0.146c-0.012,0.008-0.024,0.015-0.036,0.022c-1.358,0.799-2.717,0.859-3.102,0.859c-0.438,0-1.044-0.052-1.411-0.472c-0.276-0.286-0.872-1.104,1.053-3.949c-2.349,1.374-2.739,1.374-2.951,1.374c-0.265,0-0.548-0.113-0.735-0.301L28.64,63.02c-0.026-0.026-0.051-0.054-0.074-0.083l-0.299-0.373c-0.883-0.978-0.138-2.882,0.794-4.255c-1.749,1.029-4.313,0.781-5.791-0.5c-0.347-0.32-1.938-1.89-1.44-3.437c0.305-0.946,1.242-1.522,2.783-1.711c1.167-0.136,2.37-0.203,3.579-0.203c10.481,0,21.106,4.845,29.152,13.293c7.843,8.288,12.363,18.714,12.093,27.892c-0.168,5.732-2.181,10.57-5.82,13.989C60.056,110.923,55.274,112.658,49.785,112.658zM13.187,64.979c0.002,0-0.398,0.208-0.75,1.692c-2.339,9.356,1.949,21.539,10.922,31.049c7.664,8.102,17.544,12.938,26.427,12.938c4.978,0,9.289-1.552,12.469-4.489c3.237-3.042,5.032-7.396,5.184-12.586c0.254-8.656-4.061-18.547-11.544-26.455c-7.667-8.052-17.765-12.67-27.701-12.67c-1.133,0-2.258,0.063-3.343,0.188c-0.934,0.115-1.12,0.35-1.121,0.353c-0.028,0.187,0.367,0.845,0.877,1.32c0.804,0.696,2.447,0.853,3.425,0.275c0.146-0.092,1.029-0.616,1.849-0.616c0.577,0,0.941,0.243,1.146,0.446c0.857,1.024,0.088,2.411-0.279,2.963c-0.5,0.728-0.754,1.364-0.843,1.741c0.378-0.192,0.915-0.484,1.608-0.893c0.115-0.078,0.964-0.616,1.778-0.616c0.569,0,0.932,0.244,1.136,0.448c0.675,0.557,0.593,1.691-0.288,2.973c-0.36,0.523-0.627,0.993-0.807,1.358c0.46-0.072,1.009-0.233,1.499-0.521c0.146-0.092,1.027-0.617,1.848-0.617c0.577,0,0.942,0.243,1.146,0.447c0.975,0.978,0.062,2.525-0.375,3.146c-0.355,0.518-0.62,0.983-0.799,1.348c0.439-0.073,0.952-0.229,1.394-0.506c0.285-0.18,1.292-0.773,2.157-0.773c0.558,0,0.908,0.232,1.104,0.429c0.647,0.77,0.423,1.907-0.604,3.446c-0.316,0.46-0.559,0.861-0.738,1.19c0.381-0.1,0.793-0.261,1.157-0.488c0.362-0.221,1.584-0.921,2.509-0.921c0.546,0,0.885,0.225,1.074,0.413c0.978,0.979,0.061,2.663-0.881,3.902c-0.322,0.429-0.578,0.824-0.77,1.156c0.33-0.096,0.689-0.25,1.024-0.48c0.47-0.309,2.022-1.272,3.053-1.272c0.608,0,0.954,0.298,1.106,0.475c0.271,0.267,1.131,1.125-1.419,4.491c-0.725,0.907-0.869,2.663-0.318,3.703c1.75,3.257,3.519,7.447,1.985,8.886c-0.376,0.329-0.849,0.484-1.43,0.484c-2.296,0-6.789-2.644-7.293-2.945c-0.938-0.586-2.775-0.505-3.695,0.127c-0.552,0.374-2.421,1.579-3.557,1.579c-0.524,0-0.852-0.218-1.035-0.4c-0.297-0.297-1.084-1.085,1.026-4.04c0.295-0.394,0.526-0.744,0.704-1.039c-0.405,0.115-0.857,0.303-1.265,0.583c-0.444,0.28-1.859,1.122-2.86,1.122c-0.595,0-0.947-0.265-1.137-0.486c-0.85-0.844-0.061-2.377,0.759-3.505c0.249-0.362,0.451-0.688,0.609-0.967c-0.436,0.116-0.898,0.295-1.294,0.542c-0.323,0.2-1.437,0.847-2.333,0.847c-0.552,0-0.897-0.229-1.089-0.422c-0.981-0.982-0.003-2.589,0.463-3.234c0.33-0.481,0.574-0.892,0.745-1.217c-0.486,0.091-1.044,0.273-1.531,0.56c-0.176,0.107-1.168,0.688-2.027,0.688c-0.572,0-0.93-0.238-1.129-0.438c-0.997-0.996-0.032-2.59,0.288-3.054c0.351-0.512,0.598-0.953,0.761-1.293c-0.486,0.064-1.088,0.227-1.615,0.536c-0.146,0.092-1.028,0.617-1.848,0.617c-0.578,0-0.943-0.244-1.147-0.448c-0.857-1.023-0.087-2.409,0.281-2.961c0.444-0.712,0.747-1.226,0.944-1.576c-0.459,0.081-1.091,0.315-1.79,0.727c-0.115,0.078-0.964,0.617-1.778,0.617c-0.569,0-0.932-0.244-1.136-0.448c-0.996-0.995-0.032-2.589,0.288-3.054c0.59-0.945,0.545-2.593-0.118-3.422C13.896,65.426,13.388,64.979,13.187,64.979z"/><path d="M124.923,191.178c-37.667,0-63.371-8.504-83.293-51.972c-10.841-23.786-7.16-50.866-7.122-51.137c0.042-0.297,0.216-0.56,0.472-0.715c0.292-0.177,3.943-2.15,9.039,4.32c10.697,10.859,35.418,29.143,81.001,29.929c45.552-0.784,70.272-19.071,80.969-29.931c5.059-6.338,8.731-4.497,9.02-4.328c0.266,0.153,0.446,0.421,0.489,0.725c0.038,0.271,3.718,27.354-7.286,51.14C188.292,182.674,162.588,191.178,124.923,191.178z M36.413,88.962c-0.468,4.11-2.662,28.137,7.036,49.412c9.154,19.975,19.512,32.857,32.594,40.542c12.081,7.097,27.156,10.262,48.88,10.262c21.723,0,36.797-3.165,48.878-10.262c13.082-7.685,23.439-20.567,32.595-40.544c9.839-21.267,7.671-45.242,7.199-49.396c-0.824-0.102-2.964,0.07-6.073,3.982c-0.022,0.027-0.046,0.054-0.07,0.079c-10.89,11.072-36.08,29.768-82.431,30.565c-46.385-0.8-71.576-19.493-82.466-30.565c-0.026-0.027-0.051-0.055-0.074-0.085C39.346,88.956,37.224,88.841,36.413,88.962z"/><path d="M125.003,138.413c-33.548,0-55.784-13.472-68.53-24.772C42.65,101.385,36.857,89.307,36.617,88.798c-0.236-0.499-0.022-1.095,0.477-1.33c0.5-0.236,1.096-0.022,1.332,0.477c0.057,0.121,5.897,12.274,19.442,24.26c12.48,11.044,34.258,24.209,67.135,24.209c0.553,0,1,0.447,1,1S125.556,138.413,125.003,138.413z"/><path d="M114.968,168.356c-0.553,0-1-0.447-1-1c0-5.91-4.999-10.131-14.856-12.544c-27.755-6.854-43.468-24.504-51.762-38.103c-8.977-14.719-11.363-27.62-11.46-28.162c-0.097-0.544,0.264-1.062,0.808-1.16c0.542-0.099,1.063,0.263,1.161,0.807c0.093,0.518,9.912,51.879,61.731,64.676c10.868,2.66,16.379,7.534,16.379,14.486C115.968,167.909,115.521,168.356,114.968,168.356z"/><path d="M122.537,176.104c-6.007,0-21.84-0.837-38.395-8.662c-19.34-9.143-43.678-29.937-49.798-77.08c-0.071-0.548,0.315-1.049,0.863-1.12c0.547-0.078,1.049,0.314,1.121,0.862c3.313,25.527,14.447,59.353,48.669,75.529c20.475,9.679,39.742,8.428,39.935,8.414c0.56-0.051,1.029,0.376,1.068,0.926c0.04,0.551-0.375,1.029-0.926,1.068C125.033,176.044,124.13,176.104,122.537,176.104z"/><path d="M125.003,138.413c-0.553,0-1-0.447-1-1s0.447-1,1-1c32.835,0,54.594-13.165,67.064-24.209c13.535-11.985,19.374-24.139,19.432-24.26c0.236-0.499,0.831-0.714,1.331-0.477c0.5,0.235,0.713,0.831,0.478,1.33c-0.24,0.509-6.032,12.587-19.845,24.842C180.726,124.941,158.509,138.413,125.003,138.413z"/><path d="M134.635,168.356c-0.048,0-0.097-0.003-0.146-0.011c-0.546-0.08-0.924-0.588-0.844-1.135c1.396-9.497,10.01-12.687,16.367-14.26c52.179-12.649,62.042-64.237,62.136-64.757c0.098-0.543,0.619-0.906,1.161-0.808c0.544,0.099,0.905,0.618,0.808,1.162c-0.099,0.544-2.505,13.505-11.542,28.265c-8.35,13.636-24.164,31.312-52.087,38.08c-9.337,2.311-13.923,6.199-14.864,12.608C135.55,167.999,135.123,168.356,134.635,168.356z"/><path d="M127.469,176.104c-1.594,0-2.496-0.06-2.537-0.062c-0.551-0.039-0.965-0.518-0.926-1.068s0.52-0.966,1.068-0.926c0.191,0.01,19.533,1.256,40.011-8.45c18.857-8.938,42.596-29.291,48.594-75.493c0.07-0.548,0.564-0.936,1.12-0.862c0.548,0.071,0.934,0.572,0.862,1.12c-3.378,26.021-14.76,60.517-49.799,77.08C149.309,175.266,133.477,176.104,127.469,176.104z"/><path d="M36.227,118.263c-0.062,0-0.125-0.006-0.188-0.018c-0.542-0.104-0.898-0.628-0.795-1.17c2.513-13.154,8.375-19.089,17.407-17.633c0.545,0.088,0.917,0.601,0.829,1.146c-0.088,0.546-0.602,0.915-1.146,0.829c-7.988-1.286-12.791,3.81-15.125,16.033C37.117,117.929,36.698,118.263,36.227,118.263z"/><path d="M45.451,145.697c-0.47,0-0.889-0.332-0.981-0.811c-0.08-0.414-1.888-10.254,4.494-19.354c5.02-7.158,13.614-11.743,25.546-13.629c0.55-0.083,1.058,0.286,1.144,0.832c0.086,0.546-0.286,1.058-0.832,1.144c-11.376,1.798-19.525,6.104-24.221,12.801c-5.9,8.413-4.186,17.733-4.167,17.827c0.104,0.542-0.25,1.066-0.792,1.171C45.578,145.691,45.514,145.697,45.451,145.697z"/><path d="M74.665,180.252c-0.478,0-0.9-0.344-0.984-0.83c-0.062-0.363-5.925-36.604,21.774-60.729c0.417-0.363,1.047-0.319,1.411,0.098c0.363,0.416,0.319,1.048-0.097,1.41c-26.834,23.372-21.177,58.529-21.117,58.882c0.093,0.544-0.272,1.061-0.817,1.154C74.778,180.247,74.721,180.252,74.665,180.252z"/><path d="M97.648,188.508c-0.506,0-0.941-0.384-0.993-0.898c-0.041-0.399-3.874-40.246,14.333-66.706c0.313-0.453,0.936-0.569,1.39-0.257c0.455,0.313,0.57,0.936,0.258,1.391c-17.785,25.847-14.032,64.977-13.992,65.369c0.056,0.55-0.344,1.04-0.893,1.097C97.717,188.506,97.683,188.508,97.648,188.508z"/><path d="M153.085,188.508c-0.036,0-0.072-0.002-0.108-0.006c-0.549-0.06-0.946-0.553-0.887-1.102c0.042-0.393,4.02-39.506-14.706-65.343c-0.324-0.447-0.225-1.072,0.223-1.396c0.448-0.325,1.073-0.225,1.396,0.223c19.184,26.469,15.118,66.332,15.075,66.731C154.022,188.128,153.589,188.508,153.085,188.508z"/><path d="M213.293,118.263c-0.475,0-0.896-0.34-0.983-0.823c-2.168-12.053-6.986-17.289-14.715-16.023c-0.544,0.088-1.06-0.279-1.148-0.824c-0.09-0.545,0.279-1.06,0.824-1.149c8.914-1.463,14.639,4.472,17.008,17.643c0.098,0.544-0.264,1.063-0.808,1.162C213.411,118.258,213.352,118.263,213.293,118.263z"/><path d="M204.313,145.697c-0.062,0-0.125-0.006-0.188-0.018c-0.542-0.103-0.898-0.626-0.797-1.168c0.018-0.096,1.72-9.637-4.221-18.091c-4.601-6.549-12.488-10.769-23.444-12.541c-0.545-0.089-0.915-0.603-0.827-1.147c0.089-0.545,0.59-0.917,1.147-0.827c11.522,1.865,19.859,6.37,24.779,13.392c6.419,9.16,4.61,19.166,4.53,19.587C205.203,145.363,204.783,145.697,204.313,145.697z"/><path d="M175.825,180.252c-0.055,0-0.109-0.005-0.166-0.014c-0.544-0.091-0.912-0.606-0.821-1.151c0.059-0.353,5.569-35.52-20.559-58.895c-0.411-0.368-0.446-1-0.078-1.411c0.368-0.413,0.999-0.448,1.412-0.079c26.965,24.123,21.258,60.352,21.197,60.715C176.729,179.906,176.306,180.252,175.825,180.252z"/><path d="M125.003,191.259c-0.553,0-1-0.447-1-1v-22.117c-0.099-0.898-0.816-9.235,6.03-12.145c0.503-0.218,1.095,0.02,1.311,0.529c0.217,0.508-0.021,1.095-0.529,1.311c-5.711,2.428-4.829,10.047-4.819,10.123c0.005,0.041,0.008,0.083,0.008,0.124v22.175C126.003,190.812,125.556,191.259,125.003,191.259z"/><path d="M118.366,153.062c-0.475,0-0.896-0.339-0.983-0.822c-0.098-0.543,0.263-1.063,0.807-1.162c5.817-1.052,5.816-6.694,5.813-6.935v-21.458c0-0.552,0.447-1,1-1s1,0.448,1,1v21.446c0.031,2.604-1.486,7.835-7.458,8.915C118.485,153.057,118.425,153.062,118.366,153.062z"/><circle fill="#F9B189" cx="122.009" cy="66.358" r="7.445"/><path fill="#231F20" d="M122.009,74.804c-4.657,0-8.445-3.788-8.445-8.444c0-4.657,3.788-8.446,8.445-8.446s8.444,3.789,8.444,8.446C130.453,71.016,126.666,74.804,122.009,74.804z M122.009,59.913c-3.554,0-6.445,2.892-6.445,6.446c0,3.554,2.892,6.444,6.445,6.444s6.444-2.891,6.444-6.444C128.453,62.805,125.562,59.913,122.009,59.913z"/><path fill="#FFFFFF" d="M121.038,62.203c0.964,0,1.815-0.489,2.32-1.232c0.099-0.388,0.248-0.751,0.436-1.095c0.004-0.026,0.004-0.055,0.008-0.081c-0.547-0.147-1.119-0.233-1.713-0.233c-1.314,0-2.536,0.391-3.562,1.058C118.981,61.553,119.932,62.203,121.038,62.203z"/><path fill="#231F20" d="M123.194,62.151c0-0.41,0.067-0.801,0.164-1.181c-0.505,0.743-1.356,1.232-2.32,1.232c-1.106,0-2.057-0.65-2.512-1.584c-0.576,0.374-1.091,0.834-1.523,1.366c0.855,1.33,2.34,2.218,4.035,2.218c0.872,0,1.681-0.251,2.387-0.66C123.289,63.1,123.194,62.639,123.194,62.151z"/><path fill="#231F20" d="M123.833,59.803c-0.011-0.003-0.021-0.005-0.031-0.008c-0.004,0.026-0.004,0.055-0.008,0.081C123.807,59.852,123.819,59.827,123.833,59.803z"/><path fill="#FFFFFF" d="M125.194,62.151c0,1.546,1.257,2.803,2.802,2.803c0.182,0,0.359-0.021,0.531-0.054c-0.336-1.791-1.398-3.323-2.873-4.28C125.365,61.061,125.194,61.586,125.194,62.151z"/><path fill="#231F20" d="M128.527,64.9c-0.172,0.033-0.35,0.054-0.531,0.054c-1.545,0-2.802-1.257-2.802-2.803c0-0.565,0.171-1.091,0.46-1.531c-0.555-0.36-1.167-0.637-1.821-0.817c-0.014,0.024-0.026,0.049-0.039,0.073c-0.188,0.344-0.337,0.707-0.436,1.095c-0.097,0.38-0.164,0.771-0.164,1.181c0,0.487,0.095,0.948,0.23,1.392c0.601,1.968,2.411,3.411,4.571,3.411c0.205,0,0.4-0.035,0.599-0.061c0.03-0.255,0.05-0.514,0.05-0.777C128.645,65.7,128.602,65.295,128.527,64.9z"/></svg>