<svg xmlns="http://www.w3.org/2000/svg" viewBox="0 0 300 302"><path fill="#870440" d="M148.654,25.357c0,0,7.108-7.661,7.385-25.104c16.613,6.922,34.61,17.074,34.61,17.074s-11.629-4.337-18.181,3.507c-4.431-3.507-10.431-3.876-12.091-0.646C158.715,23.511,156.869,14.004,148.654,25.357z"/><path d="M148.654,26.357c-0.225,0-0.449-0.075-0.635-0.227c-0.408-0.335-0.485-0.931-0.176-1.359c0.378-0.522,0.744-1.002,1.096-1.442c1.784-2.634,5.894-10.095,6.1-23.092c0.006-0.332,0.175-0.639,0.452-0.821c0.276-0.182,0.625-0.215,0.933-0.086c16.478,6.866,34.536,17.024,34.717,17.126c0.454,0.256,0.635,0.818,0.415,1.292c-0.219,0.474-0.764,0.699-1.255,0.517c-0.03-0.012-3.102-1.134-6.853-1.134c-4.369,0-7.805,1.462-10.212,4.344c-0.346,0.416-0.961,0.48-1.389,0.143c-2.094-1.658-4.699-2.648-6.967-2.648c-1.028,0-2.864,0.218-3.613,1.675c-0.428,0.854-1.021,1.292-1.758,1.292c-0.608,0-1.114-0.305-1.65-0.627c-0.587-0.354-1.194-0.719-1.962-0.719c-1.448,0-3.247,1.322-5.349,3.93c-0.679,0.995-1.142,1.497-1.161,1.518C149.191,26.249,148.923,26.357,148.654,26.357zM155.897,18.589c1.323,0,2.289,0.582,2.993,1.006c0.163,0.098,0.368,0.221,0.513,0.291c0.022-0.037,0.05-0.085,0.08-0.146c0.907-1.764,2.872-2.77,5.397-2.77c2.43,0,5.155,0.93,7.45,2.519c2.737-2.855,6.56-4.358,11.117-4.358c0.39,0,0.772,0.011,1.146,0.031c-6.343-3.394-17.183-8.993-27.596-13.419c-0.296,7.77-1.912,13.53-3.626,17.539C154.242,18.818,155.081,18.589,155.897,18.589z"/><path fill="#870440" d="M156.039,0.252c15.043,8.307,16.43,20.581,16.43,20.581"/><path d="M172.468,21.833c-0.502,0-0.935-0.377-0.993-0.888c-0.013-0.116-1.551-11.884-15.919-19.818c-0.483-0.267-0.659-0.875-0.392-1.359c0.266-0.483,0.873-0.659,1.358-0.392c15.319,8.459,16.881,20.822,16.94,21.344c0.062,0.549-0.333,1.044-0.882,1.106C172.543,21.832,172.505,21.833,172.468,21.833z"/><path fill="#870440" d="M159.824,20.926c0,0,4.244-9.507-3.785-20.581"/><path d="M159.823,21.927c-0.136,0-0.274-0.028-0.406-0.087c-0.504-0.225-0.73-0.814-0.507-1.318l0,0c0.162-0.369,3.887-9.151-3.681-19.589c-0.324-0.447-0.225-1.072,0.223-1.396c0.446-0.325,1.073-0.225,1.396,0.223c8.273,11.41,4.071,21.166,3.889,21.576C160.571,21.706,160.206,21.927,159.823,21.927z"/><path fill="#FFE269" d="M106.385,43.261c0,0,4.522-7.752,15.044-11.905c3.969-1.57-0.277,10.798-0.277,10.798l-6.276,3.415L106.385,43.261z"/><path d="M114.876,46.569c-0.088,0-0.176-0.012-0.262-0.035l-8.491-2.308c-0.3-0.082-0.545-0.298-0.663-0.586c-0.118-0.288-0.095-0.614,0.062-0.883c0.192-0.329,4.82-8.1,15.541-12.332c1.047-0.415,1.979-0.182,2.521,0.578c1.538,2.154-0.748,9.328-1.485,11.475c-0.081,0.237-0.248,0.434-0.468,0.554l-6.276,3.415C115.206,46.528,115.042,46.569,114.876,46.569z M108.003,42.665l6.748,1.834l5.58-3.036c1.403-4.199,2.157-8.377,1.665-9.237c-0.043,0.008-0.108,0.025-0.199,0.061C114.076,35.333,109.656,40.433,108.003,42.665z"/><path fill="#FFE269" d="M169.699,111.928c0,0,33.688,28.797,84.08,15.044c23.166-6.367,3.876,11.536,3.876,11.536s-34.702,22.337-82.788,3.509C116.076,118.943,169.699,111.928,169.699,111.928z"/><path d="M213.554,150.562c-13.008,0-26.146-2.561-39.051-7.614c-19.675-7.723-28.877-14.42-28.135-20.478c1.029-8.396,20.935-11.238,23.201-11.534c0.277-0.038,0.563,0.047,0.779,0.23c0.217,0.186,22.11,18.525,56.273,18.525c8.885,0,17.933-1.239,26.894-3.686c7.505-2.062,11.479-1.841,12.466,0.676c1.496,3.812-6.106,11.13-7.646,12.559c-0.044,0.04-0.09,0.075-0.14,0.107C258.022,139.461,240.463,150.562,213.554,150.562z M169.404,112.978c-6.015,0.848-20.355,4.056-21.051,9.736c-0.417,3.405,3.908,9.356,26.879,18.372c12.671,4.961,25.564,7.477,38.321,7.477c25.465,0,42.263-10.091,43.489-10.852c3.309-3.087,7.804-8.446,7.076-10.297c-0.276-0.706-1.709-0.812-2.538-0.812c-1.781,0-4.317,0.448-7.537,1.333c-9.134,2.493-18.359,3.757-27.422,3.757C194.082,131.693,172.401,115.368,169.404,112.978z"/><path fill="#FFE269" d="M53.87,175.15c0,0-22.612-9.137-33.688,8.121c-0.461,0.74-2.123,3.877-0.37,5.076c2.677,1.848,5.077-2.215,5.538-2.861c3.6-4.707,11.352-8.213,22.889-1.475C59.961,190.934,53.87,175.15,53.87,175.15z"/><path d="M21.241,189.826c-0.695,0-1.367-0.221-1.997-0.654c-2.17-1.484-0.965-4.74,0.089-6.43c4.624-7.205,11.965-11.008,21.238-11.008c7.425,0,13.421,2.387,13.672,2.49c0.257,0.104,0.459,0.309,0.559,0.566c0.301,0.781,2.888,7.717,0.886,10.635c-0.42,0.611-1.231,1.342-2.713,1.342c0,0-0.001,0-0.001,0c-1.37,0-3.085-0.621-5.243-1.895c-4.099-2.395-7.961-3.609-11.476-3.609c-5.583,0-8.731,3.027-10.11,4.83l-0.105,0.156C25.384,187.229,23.64,189.826,21.241,189.826z M40.572,173.734c-8.68,0-15.257,3.391-19.548,10.078c-0.564,0.904-1.522,3.111-0.647,3.711c0.296,0.203,0.578,0.303,0.864,0.303c0.884,0,1.94-0.906,3.139-2.689l0.157-0.23c1.623-2.123,5.275-5.643,11.718-5.643c3.875,0,8.076,1.307,12.489,3.885c2.266,1.338,3.551,1.619,4.231,1.619c0,0,0,0,0.001,0c0.655,0,0.913-0.254,1.063-0.473c0.961-1.4,0.061-5.586-0.947-8.367C51.653,175.41,46.537,173.734,40.572,173.734z"/><path fill="#FFE269" d="M90.972,200.346c0,0,5.907,52.146,2.954,72.084c15.506,0,32.396,0,32.396,0s9.875-28.521,3.23-52.24"/><path d="M126.321,273.43H93.925c-0.291,0-0.567-0.127-0.757-0.348s-0.274-0.512-0.232-0.799c2.901-19.582-2.899-71.305-2.958-71.824c-0.062-0.549,0.333-1.045,0.881-1.105c0.551-0.072,1.045,0.332,1.106,0.881c0.237,2.094,5.678,50.633,3.105,71.195h30.525c1.411-4.43,8.916-29.826,2.992-50.971c-0.149-0.531,0.161-1.084,0.693-1.232c0.531-0.15,1.084,0.16,1.233,0.693c6.653,23.746-3.148,52.549-3.248,52.836C127.126,273.158,126.747,273.43,126.321,273.43z"/><path d="M119.398,283.857H91.434c-0.552,0-1-0.447-1-1s0.448-1,1-1h27.965c0.552,0,1,0.447,1,1S119.951,283.857,119.398,283.857z"/><path d="M171.268,263.369h-28.057c-0.552,0-1-0.447-1-1s0.448-1,1-1h28.057c0.553,0,1,0.447,1,1S171.82,263.369,171.268,263.369z"/><path d="M50.731,300.748H20.828c-0.552,0-1-0.447-1-1s0.448-1,1-1h29.903c0.552,0,1,0.447,1,1S51.284,300.748,50.731,300.748z"/><path d="M26.458,252.754H2c-0.552,0-1-0.447-1-1s0.448-1,1-1h24.458c0.552,0,1,0.447,1,1S27.01,252.754,26.458,252.754z"/><path d="M60.238,273.336H41.225c-0.552,0-1-0.447-1-1s0.448-1,1-1h19.014c0.552,0,1,0.447,1,1S60.791,273.336,60.238,273.336z"/><path fill="#FFE269" d="M73.805,235.881c31.104,13.197,69.128-10.707,86.573-46.424c7.476-15.229,22.242-55.746,18.552-98.479c-2.771,0.185-4.801-0.831-5.445-5.261c-0.555-3.415,5.445-6.553,2.675-12.09c-5.537-10.984-6.829-22.982-11.998-35.903c-12.274-27.781-51.223-16.06-45.777,9.229c0.646,8.768,4.429,40.794-6.461,67.098c-3.415,8.213-17.167,24.457-37.194,29.903C38.087,154.107,25.535,214.098,73.805,235.881z"/><path d="M92.119,240.559c-0.003,0-0.002,0-0.006,0c-6.533-0.002-12.824-1.266-18.698-3.758c-21.756-9.816-33.725-28.777-32.036-50.729c1.595-20.727,14.89-38.041,33.082-43.082c18.727-5.092,32.873-20.508,36.538-29.323c9.959-24.055,7.508-53.226,6.585-64.208c-0.077-0.909-0.143-1.701-0.192-2.364c-1.396-6.571-0.035-12.644,3.939-17.565c4.473-5.539,11.751-8.845,19.468-8.845c10.599,0,19.674,6.218,24.277,16.634c2.333,5.831,3.871,11.417,5.358,16.82c1.845,6.699,3.587,13.026,6.617,19.037c1.924,3.845,0.168,6.687-1.242,8.971c-0.804,1.301-1.498,2.424-1.338,3.409c0.585,4.015,2.217,4.576,4.392,4.423c0.544-0.035,1.016,0.37,1.062,0.912c3.537,40.957-10.059,81.504-18.65,99.004C146.708,219.725,118.269,240.559,92.119,240.559z M140.799,22.686c-7.119,0-13.815,3.029-17.912,8.102c-3.596,4.452-4.815,9.969-3.526,15.956c0.01,0.045,0.017,0.091,0.02,0.137c0.05,0.671,0.118,1.48,0.196,2.412c0.934,11.114,3.416,40.636-6.73,65.142c-3.089,7.429-16.406,24.652-37.856,30.485c-17.379,4.816-30.087,21.417-31.617,41.307c-1.622,21.074,9.909,39.295,30.843,48.742c5.605,2.379,11.634,3.588,17.897,3.59c0.001,0,0.004,0,0.005,0c25.416,0,53.115-20.371,67.361-49.541c8.437-17.186,21.748-56.823,18.531-97.026c-3.13-0.131-4.936-2.14-5.516-6.131c-0.277-1.705,0.684-3.26,1.612-4.764c1.327-2.148,2.581-4.178,1.157-7.022c-3.118-6.186-4.886-12.606-6.758-19.403c-1.474-5.35-2.996-10.882-5.274-16.575C158.91,28.314,150.729,22.686,140.799,22.686z"/><path fill="#FFE269" d="M43.348,200.346c0,0,5.907,52.146,2.954,72.084c15.506,0,32.396,0,32.396,0s6.553-21.783,3.415-44.303"/><path d="M78.697,273.43H46.301c-0.291,0-0.567-0.127-0.757-0.348s-0.274-0.512-0.232-0.799c2.901-19.582-2.899-71.305-2.958-71.824c-0.062-0.549,0.333-1.045,0.881-1.105c0.556-0.072,1.044,0.332,1.106,0.881c0.237,2.094,5.678,50.633,3.105,71.195h30.493c1.069-3.92,5.939-23.381,3.182-43.164c-0.077-0.547,0.305-1.053,0.852-1.129c0.539-0.078,1.053,0.305,1.128,0.854c3.132,22.475-3.381,44.508-3.448,44.727C79.527,273.141,79.138,273.43,78.697,273.43z"/><path fill="#FFE269" d="M144.411,210.775c5.075,4.154,9.414,10.43,4.982,24.92c21.874,5.539,33.872-13.752,33.872-13.752s5.262-34.242-19.012-43.193"/><path d="M157.097,237.686c-2.492,0-5.142-0.311-7.948-1.021c-0.266-0.066-0.492-0.24-0.626-0.479c-0.135-0.238-0.165-0.521-0.085-0.783c4.319-14.123,0.068-19.982-4.66-23.854c-0.427-0.35-0.49-0.979-0.14-1.406c0.349-0.426,0.979-0.49,1.407-0.141c4.823,3.949,9.77,10.348,5.606,24.963c19.408,4.293,30.371-11.412,31.653-13.375c0.37-2.814,3.868-33.691-18.396-41.9c-0.519-0.191-0.783-0.768-0.593-1.285c0.192-0.518,0.768-0.781,1.284-0.592c24.754,9.129,19.708,43.934,19.654,44.283c-0.021,0.133-0.067,0.262-0.139,0.377C184.007,222.646,174.422,237.686,157.097,237.686z"/><path fill="#FFE269" d="M110.446,118.481c-2.768-1.108-20.027-6.645-29.35-22.796c-6.368-11.076-4.337-22.612-2.861-27.043C83.127,50.46,100.479,44,111.831,41.969c0.831-0.185,1.568-0.277,2.308-0.369c0.831-0.093,3.691-3.6,3.691-2.862c-0.554,8.122,8.214,16.152,1.477,18.182c-1.661,0.461-14.767,3.23-20.581,10.706c-1.662,2.677-6.092,9.415-1.016,19.197c6.091,11.814,30.642,14.86,30.549,14.767"/><path d="M110.445,119.481c-0.124,0-0.25-0.022-0.371-0.071c-0.187-0.075-0.44-0.17-0.754-0.288c-13.425-5.037-23.213-12.754-29.09-22.937c-7.523-13.085-3.435-26.386-2.943-27.859c2.226-8.279,9.675-22.923,34.368-27.341c0.808-0.181,1.557-0.277,2.281-0.367c0.329-0.181,1.179-1.006,1.643-1.458c1.287-1.251,1.818-1.768,2.597-1.439c0.403,0.17,0.654,0.561,0.654,1.018c-0.218,3.231,1.122,6.469,2.304,9.327c1.244,3.006,2.318,5.603,1.366,7.61c-0.487,1.028-1.465,1.769-2.905,2.203c-0.158,0.044-0.37,0.098-0.648,0.167c-9.454,2.372-15.98,5.788-19.4,10.155l-0.079,0.126c-1.67,2.682-5.58,8.962-0.871,18.038c5.728,11.111,28.781,14.13,29.66,14.228c0.001,0,0.002,0,0.002,0c0.128,0,0.259,0.025,0.385,0.077c0.5,0.208,0.743,0.776,0.548,1.282c-0.141,0.367-0.491,0.619-0.885,0.641c0,0-0.001,0-0.001,0c-0.334,0.001-25.078-2.879-31.485-15.309c-5.233-10.084-0.742-17.297,0.949-20.013l0.105-0.169c0.019-0.03,0.039-0.059,0.06-0.086c3.692-4.748,10.598-8.417,20.525-10.908c0.256-0.064,0.452-0.113,0.578-0.148c0.868-0.262,1.416-0.636,1.654-1.139c0.572-1.206-0.389-3.529-1.407-5.989c-1.028-2.483-2.167-5.236-2.427-8.125c-1.294,1.254-1.948,1.815-2.61,1.889c-0.722,0.09-1.416,0.176-2.201,0.351c-23.647,4.231-30.727,18.078-32.847,25.957c-0.479,1.443-4.326,13.957,2.762,26.285c5.639,9.769,15.08,17.193,28.06,22.063c0.331,0.124,0.599,0.225,0.795,0.303c0.513,0.206,0.762,0.788,0.557,1.301C111.218,119.244,110.842,119.481,110.445,119.481z"/><path fill="#FFE269" d="M118.291,35.509c0,0-1.569,4.983-1.016,7.199c0.462,2.123-1.107,2.954-1.292,3.138c-0.184,0.184-8.675,1.938-8.86,1.938c-0.277,0-0.185-4.892,2.308-6.738C110.446,40.124,118.291,35.509,118.291,35.509z"/><path fill="#FC9DCD" d="M140.534,70.119c1.846,7.937,8.121,14.398,18.829,15.229c7.844,0.646,15.505-1.753,17.998-8.306c-0.831,7.292-2.493,11.813,1.569,14.028c-5.078,16.705-39.042,20.119-45.872-1.384C131.304,83.963,131.212,73.627,140.534,70.119z"/><path d="M155.858,105.716c-9.068,0-20.071-4.132-23.754-15.728c-1.69-5.516-2.172-16.948,8.077-20.806c0.269-0.102,0.569-0.082,0.824,0.054c0.254,0.136,0.437,0.375,0.502,0.655c1.938,8.333,8.642,13.738,17.932,14.458c0.796,0.065,1.588,0.099,2.36,0.099c7.418,0,12.749-2.83,14.626-7.763c0.18-0.47,0.682-0.732,1.171-0.616c0.489,0.119,0.814,0.584,0.757,1.085c-0.155,1.37-0.341,2.642-0.513,3.821c-0.781,5.372-1.018,7.806,1.567,9.216c0.416,0.227,0.616,0.715,0.479,1.169C177.317,99.813,167.437,105.716,155.858,105.716z M139.858,71.491c-7.789,3.707-7.28,13.214-5.844,17.902c3.354,10.558,13.483,14.323,21.845,14.323c10.363,0,19.217-4.986,21.872-12.215c-2.955-2.084-2.635-5.48-1.981-10.032c-3.021,3.209-7.872,4.98-13.949,4.98c-0.827,0-1.675-0.035-2.52-0.105C149.508,85.587,142.331,80.066,139.858,71.491z"/><path fill="#FFFFFF" d="M138.594,78.703c-0.211,0.527-0.222,0.978-0.028,1.236c0.218,0.291,0.68,0.334,0.936,0.334c0.79,0,1.766-0.378,2.611-1.012c0.495-0.371,0.908-0.812,1.221-1.266c-0.623-0.777-1.103-1.496-1.468-2.112c-0.551,0.167-1.125,0.447-1.652,0.841C139.462,77.289,138.872,78.009,138.594,78.703z"/><path d="M139.502,82.273c1.225,0,2.613-0.514,3.811-1.411c0.535-0.401,1.005-0.858,1.395-1.348c-0.524-0.521-0.98-1.03-1.373-1.519c-0.312,0.454-0.726,0.895-1.221,1.266c-0.846,0.633-1.822,1.012-2.611,1.012c-0.256,0-0.718-0.043-0.936-0.334c-0.194-0.258-0.184-0.709,0.028-1.236c0.278-0.693,0.868-1.414,1.62-1.978c0.527-0.395,1.101-0.675,1.652-0.841c-0.479-0.808-0.781-1.437-1.003-1.78c-0.634,0.24-1.265,0.583-1.849,1.021c-1.052,0.789-1.861,1.795-2.278,2.834c-0.477,1.19-0.394,2.349,0.229,3.179C137.513,81.87,138.414,82.273,139.502,82.273z"/><path fill="#FFFFFF" d="M145.547,82.684c-0.605,0.989-0.958,2.088-0.966,3.014c-0.007,0.742,0.206,1.3,0.583,1.531c0.15,0.092,0.325,0.137,0.535,0.137c0.856,0,2.267-0.797,3.338-2.546c0.318-0.521,0.562-1.071,0.727-1.611c-1.166-0.635-2.182-1.294-3.057-1.961C146.305,81.626,145.906,82.097,145.547,82.684z"/><path d="M143.842,81.64c-0.802,1.308-1.249,2.743-1.261,4.04c-0.013,1.462,0.548,2.648,1.539,3.254c0.467,0.286,0.998,0.431,1.579,0.431c1.761,0,3.741-1.375,5.043-3.502c0.349-0.569,0.616-1.163,0.824-1.758c-0.639-0.291-1.239-0.59-1.803-0.897c-0.165,0.54-0.408,1.09-0.727,1.611c-1.071,1.749-2.481,2.546-3.338,2.546c-0.21,0-0.385-0.044-0.535-0.137c-0.377-0.23-0.59-0.789-0.583-1.531c0.008-0.926,0.36-2.024,0.966-3.014c0.359-0.587,0.758-1.058,1.16-1.437c-0.562-0.429-1.081-0.857-1.539-1.283C144.683,80.449,144.229,81.006,143.842,81.64z"/><path fill="#FFFFFF" d="M148.944,94.155c-0.079-0.011-0.158-0.017-0.238-0.017c-1.548,0-3.524,2.21-4.017,5.781c-0.068,0.493-0.094,0.978-0.096,1.453c1.995,0.955,4.094,1.613,6.229,2.01c0.301-0.736,0.533-1.583,0.663-2.527C151.949,97.477,150.785,94.408,148.944,94.155z"/><path d="M153.466,101.128c0.633-4.606-1.233-8.539-4.248-8.955c-3.005-0.416-5.883,2.934-6.509,7.472c-0.032,0.229-0.033,0.454-0.053,0.681c0.633,0.382,1.279,0.73,1.938,1.045c0.002-0.476,0.027-0.96,0.096-1.453c0.492-3.571,2.469-5.781,4.017-5.781c0.08,0,0.159,0.005,0.238,0.017c1.841,0.253,3.005,3.322,2.541,6.7c-0.13,0.944-0.362,1.791-0.663,2.527c0.669,0.124,1.341,0.223,2.014,0.298C153.123,102.889,153.341,102.035,153.466,101.128z"/><path fill="#FFFFFF" d="M137.478,87.496c-0.254-0.128-0.541-0.193-0.853-0.193c-0.951,0-2.229,0.655-3.396,1.9c1.079,2.502,2.407,4.634,3.926,6.429c0.194-0.304,0.381-0.628,0.555-0.974C139.245,91.613,139.138,88.333,137.478,87.496z"/><path d="M138.377,85.709c-0.536-0.27-1.125-0.407-1.752-0.407c-1.387,0-2.856,0.701-4.169,1.869c0.013,0.072,0.026,0.144,0.048,0.207c0.226,0.631,0.47,1.234,0.725,1.824c1.167-1.245,2.445-1.9,3.396-1.9c0.312,0,0.599,0.065,0.853,0.193c1.661,0.837,1.767,4.117,0.232,7.163c-0.174,0.345-0.36,0.669-0.555,0.974c0.446,0.527,0.909,1.025,1.386,1.496c0.345-0.492,0.672-1.007,0.955-1.569C141.588,91.406,141.097,87.081,138.377,85.709z"/><path fill="#FFFFFF" d="M165.844,96.917c-0.288-0.664-0.934-1.799-2.031-1.95c-0.079-0.011-0.158-0.016-0.237-0.016c-1.549,0-3.526,2.21-4.019,5.781c-0.142,1.03-0.12,2.027,0.023,2.95c2.334-0.25,4.591-0.748,6.675-1.432c0.036-0.19,0.07-0.384,0.098-0.583C166.594,99.916,166.413,98.229,165.844,96.917z"/><path d="M167.679,96.121c-0.785-1.811-2.062-2.925-3.593-3.136c-3.017-0.412-5.885,2.936-6.51,7.473c-0.16,1.162-0.146,2.303,0.004,3.376c0.671-0.03,1.339-0.081,2-0.152c-0.144-0.923-0.165-1.92-0.023-2.95c0.492-3.571,2.47-5.781,4.019-5.781c0.079,0,0.158,0.005,0.237,0.016c1.098,0.151,1.743,1.287,2.031,1.95c0.569,1.312,0.75,3,0.509,4.75c-0.027,0.199-0.062,0.392-0.098,0.583c0.728-0.239,1.434-0.501,2.114-0.783C168.565,99.525,168.338,97.641,167.679,96.121z"/><path fill="#FFFFFF" d="M154.53,90.308c0.314,0.651,1.007,1.76,2.108,1.866c1.619,0.181,3.588-2.067,4-5.764c-2.147-0.132-4.409-0.55-6.726-1.356c-0.026,0.177-0.065,0.344-0.083,0.528C153.66,87.34,153.908,89.019,154.53,90.308z"/><path d="M162.648,86.452c-0.657,0.015-1.327,0-2.01-0.042c-0.412,3.697-2.381,5.945-4,5.764c-1.102-0.106-1.794-1.215-2.108-1.866c-0.622-1.29-0.87-2.968-0.7-4.726c0.018-0.184,0.057-0.351,0.083-0.528c-0.552-0.192-1.104-0.394-1.659-0.629c-0.091-0.039-0.169-0.081-0.258-0.12c-0.064,0.354-0.12,0.713-0.156,1.084c-0.206,2.118,0.11,4.173,0.89,5.788c0.858,1.778,2.178,2.839,3.717,2.988c0.12,0.012,0.239,0.018,0.359,0.018C159.706,94.183,162.216,90.861,162.648,86.452z"/><path fill="#FFFFFF" d="M169.356,90.679c1.101-0.135,1.763-1.262,2.06-1.921c0.569-1.263,0.77-2.884,0.586-4.577c-1.765,0.94-4.013,1.688-6.563,2.05C166.177,89.167,167.943,90.869,169.356,90.679z"/><path d="M169.143,92.692c0.153,0,0.307-0.009,0.459-0.028c1.535-0.189,2.827-1.285,3.638-3.085c0.736-1.634,0.998-3.697,0.736-5.81c-0.032-0.263-0.074-0.521-0.122-0.776c-0.538,0.416-1.155,0.816-1.852,1.188c0.184,1.693-0.017,3.314-0.586,4.577c-0.297,0.659-0.959,1.786-2.06,1.921c-1.413,0.19-3.18-1.512-3.918-4.448c-0.649,0.092-1.312,0.167-2,0.204C164.281,90.081,166.59,92.692,169.143,92.692z"/><path fill="#870440" d="M133.058,25.357c0,0-7.106-7.661-7.383-25.104c-16.613,6.922-34.61,17.074-34.61,17.074s11.628-4.337,18.182,3.507c4.431-3.507,10.43-3.876,12.09-0.646C123.091,23.511,124.936,14.004,133.058,25.357z"/><path d="M133.058,26.357c-0.27,0-0.537-0.108-0.733-0.32c-0.021-0.022-0.514-0.557-1.229-1.618c-2.043-2.541-3.797-3.83-5.213-3.83c-0.758,0-1.367,0.363-1.956,0.713c-0.547,0.326-1.063,0.633-1.683,0.633c0,0,0,0-0.001,0c-0.739,0-1.341-0.432-1.79-1.282c-0.754-1.467-2.591-1.685-3.619-1.685c-2.268,0-4.872,0.99-6.967,2.648c-0.424,0.336-1.04,0.273-1.388-0.143c-2.408-2.882-5.844-4.344-10.213-4.344c-3.751,0-6.822,1.122-6.853,1.134c-0.489,0.18-1.036-0.043-1.255-0.517c-0.219-0.473-0.039-1.035,0.416-1.292c0.18-0.102,18.239-10.26,34.717-17.126c0.306-0.128,0.655-0.096,0.933,0.086c0.277,0.182,0.447,0.489,0.452,0.821c0.204,12.9,4.269,20.357,6.034,22.997c0.373,0.467,0.76,0.979,1.163,1.541c0.307,0.429,0.228,1.023-0.181,1.357C133.505,26.283,133.281,26.357,133.058,26.357z M116.833,16.97c2.525,0,4.49,1.006,5.392,2.761c0.042,0.079,0.078,0.135,0.105,0.174c0.142-0.064,0.385-0.208,0.572-0.32c0.705-0.419,1.671-0.995,2.979-0.995c0.793,0,1.606,0.218,2.445,0.658c-1.703-4.001-3.317-9.754-3.613-17.505c-10.413,4.427-21.253,10.025-27.595,13.419c0.373-0.02,0.756-0.031,1.146-0.031c4.558,0,8.38,1.503,11.118,4.358C111.679,17.9,114.404,16.97,116.833,16.97z"/><path fill="#870440" d="M125.675,0.252c-15.044,8.307-16.429,20.581-16.429,20.581"/><path d="M109.247,21.833c-0.038,0-0.076-0.002-0.115-0.007c-0.548-0.063-0.941-0.556-0.879-1.104c0.059-0.522,1.618-12.885,16.939-21.344c0.483-0.268,1.091-0.091,1.359,0.392c0.267,0.483,0.091,1.092-0.392,1.359c-14.37,7.934-15.905,19.702-15.918,19.82C110.18,21.457,109.748,21.833,109.247,21.833z"/><path fill="#870440" d="M121.891,20.926c0,0-4.246-9.507,3.784-20.581"/><path d="M121.89,21.925c-0.382,0-0.746-0.22-0.912-0.591c-0.183-0.41-4.386-10.165,3.888-21.576c0.323-0.447,0.948-0.548,1.396-0.223c0.447,0.324,0.547,0.95,0.223,1.396c-7.568,10.438-3.842,19.22-3.68,19.589c0.222,0.504-0.005,1.095-0.509,1.318C122.164,21.898,122.025,21.925,121.89,21.925z"/><ellipse transform="matrix(0.1934 -0.9811 0.9811 0.1934 83.482 363.2296)" fill="#5CB537" cx="262.654" cy="130.842" rx="17.998" ry="5.076"/><path d="M259.459,149.527c-0.162,0-0.321-0.015-0.479-0.046c-3.913-0.771-4.112-10.552-2.287-19.814c1.662-8.434,5.235-17.51,9.156-17.51c0.162,0,0.321,0.015,0.479,0.046c1.862,0.367,2.974,2.644,3.306,6.768c0.29,3.609-0.071,8.243-1.019,13.047C266.952,140.451,263.377,149.527,259.459,149.527z M265.938,114.166c-1.79,0-5.344,6.045-7.282,15.888c-2.158,10.949-0.685,17.19,0.711,17.465l0.093,0.009c1.694,0,5.252-6.048,7.193-15.896c0.913-4.629,1.264-9.068,0.988-12.5c-0.3-3.722-1.242-4.875-1.699-4.965C265.94,114.166,265.938,114.166,265.938,114.166z"/><ellipse transform="matrix(0.1934 -0.9811 0.9811 0.1934 131.0173 337.6215)" fill="#5CB537" cx="270.85" cy="89.126" rx="24.458" ry="10.799"/><path d="M267.068,114.214c-0.385,0-0.769-0.037-1.143-0.11c-6.49-1.281-9.411-13.255-6.651-27.261c2.564-13.001,9.167-22.806,15.358-22.806c0.384,0,0.768,0.038,1.142,0.111c6.49,1.28,9.412,13.253,6.652,27.259C279.863,104.41,273.261,114.214,267.068,114.214z M274.633,66.037c-5.168,0-11.053,9.309-13.396,21.193c-2.459,12.475-0.135,23.884,5.075,24.911c0.247,0.049,0.501,0.073,0.756,0.073c5.169,0,11.053-9.31,13.396-21.194c2.459-12.475,0.134-23.882-5.076-24.91C275.142,66.062,274.887,66.037,274.633,66.037z"/><ellipse transform="matrix(0.1935 -0.9811 0.9811 0.1935 131.0051 337.6122)" fill="#FFFFFF" cx="270.853" cy="89.123" rx="15.136" ry="6.645"/><path d="M268.506,105.03c-0.261,0-0.521-0.025-0.775-0.075c-2.154-0.425-3.765-2.563-4.534-6.022c-0.708-3.18-0.652-7.188,0.155-11.287c1.649-8.36,5.792-14.429,9.849-14.429c0.261,0,0.521,0.025,0.774,0.076c2.154,0.424,3.765,2.563,4.534,6.022c0.708,3.18,0.652,7.188-0.155,11.288C276.704,98.962,272.562,105.03,268.506,105.03zM273.2,75.217c-2.576,0-6.324,4.9-7.886,12.815c-0.756,3.833-0.815,7.55-0.166,10.466c0.578,2.598,1.66,4.235,2.969,4.493c0.129,0.025,0.259,0.038,0.389,0.038c2.576,0,6.323-4.899,7.885-12.814c0.756-3.833,0.815-7.551,0.166-10.466c-0.578-2.599-1.66-4.236-2.969-4.495C273.46,75.229,273.331,75.217,273.2,75.217z"/><path fill="#FFE269" d="M253.688,133.249c0,0,6.275-1.015,6.461-7.568c0.184-6.553,2.491-10.337,2.491-10.337s-4.432,1.385-6.83,4.799c-2.03,2.861-2.493,6.093-5.998,7.846"/><path d="M253.687,134.249c-0.482,0-0.907-0.35-0.986-0.841c-0.088-0.544,0.281-1.056,0.824-1.146l0,0c0.223-0.038,5.465-0.988,5.624-6.61c0.103-3.661,0.843-6.492,1.514-8.341c-1.317,0.717-2.929,1.832-4.034,3.406c-0.604,0.851-1.075,1.765-1.53,2.648c-1.057,2.051-2.149,4.172-4.839,5.517c-0.494,0.246-1.095,0.047-1.342-0.447s-0.047-1.095,0.447-1.342c2.104-1.053,2.963-2.717,3.955-4.644c0.488-0.946,0.992-1.924,1.675-2.887c2.562-3.646,7.153-5.113,7.348-5.174c0.396-0.125,0.83,0.011,1.086,0.339s0.282,0.78,0.065,1.136c-0.021,0.034-2.172,3.673-2.345,9.845c-0.166,5.838-4.849,8.131-7.302,8.527C253.793,134.245,253.739,134.249,253.687,134.249z"/><ellipse transform="matrix(-0.2608 -0.9654 0.9654 -0.2608 205.221 430.2953)" fill="#FFE269" cx="267.353" cy="136.577" rx="4.153" ry="5.261"/><path d="M266.732,141.816c-2.662,0-4.842-1.449-5.425-3.606c-0.739-2.744,1.37-5.708,4.701-6.607c0.648-0.176,1.311-0.265,1.967-0.265c2.66,0,4.839,1.45,5.422,3.607c0.739,2.742-1.37,5.706-4.701,6.606C268.048,141.727,267.387,141.816,266.732,141.816z M267.976,133.337c-0.479,0-0.966,0.065-1.444,0.195c-2.269,0.612-3.745,2.477-3.292,4.156c0.343,1.271,1.747,2.127,3.493,2.127c0.479,0,0.964-0.065,1.442-0.195c2.267-0.613,3.744-2.477,3.291-4.154C271.122,134.193,269.72,133.337,267.976,133.337z"/><path fill="#FFE269" d="M268.475,124.53c2.805-0.757,5.562,0.424,6.163,2.637c0.597,2.216-1.19,4.625-3.998,5.383c-2.803,0.757-5.562-0.424-6.16-2.637C263.881,127.696,265.671,125.288,268.475,124.53z"/><path d="M268.938,133.778c-2.662,0-4.842-1.448-5.425-3.604c-0.74-2.743,1.368-5.708,4.7-6.609c0.648-0.175,1.309-0.263,1.963-0.263c2.66,0,4.841,1.448,5.426,3.604c0.74,2.746-1.37,5.711-4.702,6.61C270.253,133.69,269.593,133.778,268.938,133.778zM270.177,125.301c-0.479,0-0.964,0.065-1.441,0.194c-2.268,0.612-3.744,2.478-3.29,4.156c0.343,1.271,1.747,2.126,3.493,2.126c0.479,0,0.963-0.064,1.44-0.194c2.269-0.612,3.746-2.477,3.293-4.157C273.327,126.156,271.922,125.301,270.177,125.301z"/><ellipse transform="matrix(-0.2607 -0.9654 0.9654 -0.2607 224.6141 414.1201)" fill="#FFE269" cx="270.861" cy="121.062" rx="4.153" ry="5.26"/><path d="M270.24,126.301c-2.66,0-4.84-1.449-5.424-3.607c-0.74-2.743,1.368-5.707,4.701-6.607c0.648-0.175,1.309-0.263,1.963-0.263c2.663,0,4.843,1.449,5.425,3.607c0.74,2.742-1.368,5.706-4.7,6.606C271.557,126.212,270.896,126.301,270.24,126.301zM271.48,117.824c-0.479,0-0.964,0.065-1.441,0.194c-2.269,0.612-3.745,2.476-3.291,4.154c0.344,1.273,1.747,2.129,3.492,2.129c0.479,0,0.965-0.065,1.443-0.194c2.268-0.613,3.744-2.478,3.29-4.155C274.631,118.678,273.227,117.824,271.48,117.824z"/><path fill="#FFE269" d="M267.9,103.992c3.6,0.737,7.844-5.353,9.414-13.568c0.276-1.2,0.369-2.399,0.461-3.6c-3.784,0.461-9.507,1.846-14.12,6.276C263.562,98.915,265.131,103.437,267.9,103.992z"/><path d="M268.501,105.052C268.5,105.052,268.5,105.052,268.501,105.052c-0.271,0-0.54-0.027-0.801-0.081c-3.217-0.644-5.151-5.199-5.045-11.887c0.004-0.267,0.115-0.521,0.308-0.705c3.711-3.564,8.792-5.829,14.691-6.548c0.295-0.037,0.596,0.062,0.812,0.27c0.216,0.207,0.328,0.5,0.306,0.799c-0.093,1.213-0.188,2.468-0.483,3.748C276.697,98.979,272.577,105.052,268.501,105.052z M264.651,93.537c-0.008,5.192,1.388,9.062,3.445,9.475c0.135,0.027,0.269,0.041,0.403,0.041c2.589,0,6.319-4.899,7.832-12.816c0.172-0.749,0.271-1.501,0.343-2.245C271.889,88.777,267.76,90.679,264.651,93.537z"/><circle fill="#0A8CDD" cx="266.239" cy="113.036" r="2.584"/><path d="M266.239,116.621c-1.977,0-3.584-1.608-3.584-3.585s1.607-3.584,3.584-3.584s3.584,1.607,3.584,3.584S268.216,116.621,266.239,116.621z M266.239,111.452c-0.873,0-1.584,0.711-1.584,1.584c0,0.874,0.711,1.585,1.584,1.585s1.584-0.711,1.584-1.585C267.823,112.163,267.112,111.452,266.239,111.452z"/><circle fill="#0A8CDD" cx="259.316" cy="148.568" r="2.584"/><path d="M259.316,152.152c-1.977,0-3.584-1.607-3.584-3.584c0-1.977,1.607-3.584,3.584-3.584s3.584,1.607,3.584,3.584C262.9,150.545,261.293,152.152,259.316,152.152z M259.316,146.984c-0.873,0-1.584,0.711-1.584,1.584c0,0.874,0.711,1.585,1.584,1.585s1.584-0.711,1.584-1.585C260.9,147.695,260.189,146.984,259.316,146.984z"/><path fill="#FFE269" d="M137.396,68.089c0,0,1.753,0.185,3.137,2.03"/><path d="M140.535,71.119c-0.304,0-0.604-0.138-0.801-0.4c-1.092-1.456-2.429-1.634-2.442-1.636c-0.549-0.058-0.947-0.55-0.89-1.1s0.55-0.948,1.1-0.89c0.089,0.01,2.206,0.256,3.832,2.425c0.332,0.442,0.242,1.069-0.2,1.4C140.954,71.054,140.743,71.119,140.535,71.119z"/><path fill="#FFC36C" d="M125.675,115.621c0,0-10.891,20.027-17.997,25.195c-7.107,5.168-11.906,4.247-16.244,8.677c-4.338,4.429-8.953,3.23-16.336,7.843c-7.384,4.615-5.538,13.199,0,9.879c5.538-3.416,14.767-11.725,17.812-12.277c3.046-0.646,8.399-2.121,16.336-5.354C117.275,146.262,143.857,109.529,125.675,115.621z"/><path fill="#FFC36C" d="M94.202,167.951c0,0-4.245,2.492-11.167,7.846c-6.921,5.26-12.459,4.338-15.228,6.553c-2.769,2.215-11.26,3.598-12.276,6.553c-0.922,2.953,1.477-0.461,6.738,0c5.261,0.461,19.659-1.016,25.565-5.631c5.814-4.613,18.828-18.182,17.721-19.656C104.446,162.137,94.202,167.951,94.202,167.951z"/><path fill="#FFC36C" d="M44.271,198.131c0,0,7.292-2.4,11.167-1.475c3.969,0.922-9.875,8.027-9.875,8.027L44.271,198.131z"/><path fill="#FFC36C" d="M152.07,105.467h6.462c0,0-3.6,12.83-7.199,18.828c-3.6,6-11.445,11.905-9.045,5.168c2.399-6.644,5.074-12.274,6.09-14.12C149.579,113.497,152.07,105.467,152.07,105.467z"/><path fill="#FFC36C" d="M112.292,186.686c0,0,9.229-11.352,16.52-8.119c7.199,3.229,6.83,4.43,6.83,4.43s-6.922-0.463-10.337,2.584c-3.415,3.047-5.629,7.938-8.768,8.121c-3.139,0.184-1.569-1.57-0.831-3.6C116.445,187.979,110.815,188.256,112.292,186.686z"/><path fill="#FFC36C" d="M148.287,213.176c0.091-0.463,1.292-11.629,6.552-17.445c5.263-5.812,11.17-6.92,8.862-2.029c-2.308,4.799-1.387,3.416,0,5.262c1.383,1.846,0.83,0.092-3.14,5.721c-3.969,5.631-8.491,13.475-8.491,13.475L148.287,213.176z"/><path fill="#FFC36C" d="M57.931,235.326c0,0,4.522-6.092,10.613-5.168c6.092,0.922,10.891,1.016,8.861,3.691c-1.938,2.676-8.307,2.031-9.507,2.584c-1.199,0.553-12.183,2.307-11.722,1.477C56.546,236.986,57.931,235.326,57.931,235.326z"/><path fill="#FFC36C" d="M95.679,255.262c0,0,11.168-2.215,14.213-3.508c2.954-1.199,8.768-3.506,6.369,0c-2.4,3.508-2.215,4.154-6.092,5.814c-3.876,1.662-11.167,1.939-11.537,2.309c-0.37,0.369-2.861,0-2.861,0v-4.615H95.679z"/><path fill="#FFC36C" d="M163.701,132.51c0,0-5.263,16.336-6.369,18.828c-1.107,2.494-5.538,5.631-6.554,11.168c-1.014,5.539,0,8.861,0.832,8.307c0.829-0.555,6.828-8.398,7.752-11.537c0.923-3.137,2.215-9.783,3.323-13.292c1.106-3.505,2.398-12.367,2.398-12.367L163.701,132.51z"/><path fill="#FFC36C" d="M77.681,79.626c0,0,0.185,5.814,0.923,7.198c0.739,1.477,4.892-1.199,6.923-4.246c2.03-3.045,3.415-10.429,0-7.106C82.204,78.887,77.681,79.626,77.681,79.626z"/><path fill="#FFC36C" d="M203.664,130.848c0,0-1.201,3.692-4.154,5.631c-2.953,2.029-5.261,4.153-3.969,4.892c1.201,0.737,2.493,5.445,7.385,0c4.892-5.446,10.89-10.522,10.89-10.522l-8.768-1.661L203.664,130.848z"/><ellipse fill="#FFE269" cx="150.595" cy="53.229" rx="7.29" ry="12.367"/><path d="M150.595,66.597c-4.649,0-8.292-5.872-8.292-13.367c0-7.496,3.643-13.368,8.292-13.368c4.648,0,8.29,5.872,8.29,13.368C158.885,60.725,155.243,66.597,150.595,66.597z M150.595,41.862c-3.41,0-6.292,5.206-6.292,11.368c0,6.162,2.882,11.367,6.292,11.367c3.409,0,6.29-5.206,6.29-11.367C156.885,47.067,154.004,41.862,150.595,41.862z"/><path fill="#FFFFFF" d="M157.701,50.46c0,0,0.923,13.66-7.106,15.136c-2.308,0.185-6.276-3.691-7.108-10.891C142.842,49.353,157.701,50.46,157.701,50.46z"/><path d="M150.435,66.603c-3.178,0-7.127-4.734-7.941-11.782c-0.122-1.014,0.173-1.958,0.854-2.727c1.605-1.81,5.406-2.728,11.297-2.728c1.802,0,3.078,0.094,3.132,0.098c0.496,0.037,0.89,0.433,0.924,0.93c0.04,0.594,0.882,14.568-7.924,16.187c-0.033,0.006-0.066,0.011-0.101,0.013C150.596,66.6,150.516,66.603,150.435,66.603zM154.644,51.366c-5.069,0-8.642,0.749-9.8,2.055c-0.304,0.342-0.419,0.712-0.364,1.166c0.76,6.578,4.28,10.017,5.955,10.017l0.042-0.001c5.909-1.15,6.286-10.289,6.254-13.192C156.205,51.387,155.48,51.366,154.644,51.366z"/><ellipse cx="153.086" cy="55.721" rx="1.847" ry="2.677"/><path fill="#FFE269" d="M132.504,68.366c-0.739-4.154,4.707-5.999,7.199-3.784"/><path d="M132.503,69.366c-0.476,0-0.897-0.34-0.983-0.825c-0.379-2.129,0.549-4.046,2.482-5.127c2.095-1.172,4.773-0.994,6.365,0.42c0.413,0.367,0.45,0.999,0.083,1.412c-0.367,0.413-0.999,0.45-1.412,0.083c-0.96-0.855-2.706-0.926-4.06-0.17c-0.689,0.386-1.799,1.292-1.49,3.031c0.097,0.544-0.266,1.063-0.809,1.16C132.62,69.361,132.562,69.366,132.503,69.366z"/><path fill="#FFE269" d="M171.821,83.226c0,0,9.507-4.615,9.507-13.106c0.186-5.077-3.6-12.552-13.106-9.229"/><path d="M171.822,84.226c-0.37,0-0.727-0.207-0.899-0.562c-0.242-0.496-0.035-1.095,0.461-1.336c0.089-0.044,8.944-4.456,8.944-12.208c0.093-2.544-0.92-5.89-3.389-7.711c-2.14-1.578-4.962-1.772-8.388-0.575c-0.521,0.184-1.092-0.092-1.274-0.614c-0.182-0.521,0.093-1.092,0.614-1.274c5.09-1.78,8.376-0.519,10.235,0.853c3.265,2.409,4.304,6.546,4.2,9.357c0.001,8.977-9.658,13.77-10.069,13.969C172.117,84.193,171.969,84.226,171.822,84.226z"/><ellipse fill="#FFE269" cx="169.33" cy="53.229" rx="7.292" ry="12.367"/><path d="M169.33,66.597c-4.649,0-8.292-5.872-8.292-13.367c0-7.496,3.643-13.368,8.292-13.368s8.292,5.872,8.292,13.368C177.622,60.725,173.979,66.597,169.33,66.597z M169.33,41.862c-3.41,0-6.292,5.206-6.292,11.368c0,6.162,2.882,11.367,6.292,11.367s6.292-5.206,6.292-11.367C175.622,47.067,172.74,41.862,169.33,41.862z"/><path fill="#FFFFFF" d="M163.423,46.03c0,0,6.553-3.138,11.814-0.092c1.385,2.861,1.292,9.599,1.292,9.599s-0.923,9.599-7.199,10.06c-2.308,0.185-5.538-3.415-6.83-8.583C161.484,51.291,163.423,46.03,163.423,46.03z"/><path d="M169.158,66.604c-2.968,0-6.318-4.106-7.628-9.347c-1.065-5.989,0.871-11.347,0.954-11.572c0.09-0.244,0.271-0.444,0.507-0.556c0.13-0.062,3.218-1.521,6.948-1.521c2.169,0,4.12,0.493,5.799,1.464c0.173,0.101,0.312,0.25,0.399,0.43c1.471,3.039,1.396,9.763,1.392,10.048c-0.046,0.508-1.089,10.526-8.126,11.043C169.327,66.6,169.242,66.604,169.158,66.604z M164.231,46.771c-0.401,1.292-1.546,5.564-0.747,10.068c1.246,4.976,4.149,7.765,5.674,7.765l0.092-0.003c5.363-0.395,6.275-9.072,6.284-9.16c0.019-1.657-0.134-6.485-1.074-8.79c-1.31-0.692-2.828-1.042-4.521-1.042C167.379,45.608,165.104,46.417,164.231,46.771z"/><ellipse cx="171.821" cy="54.89" rx="1.845" ry="2.677"/><path fill="#FFE269" d="M72.052,256.738c0,0,16.613-0.553,14.306,15.691c-8.307,0-19.29,0-19.29,0"/><path d="M86.357,273.43h-19.29c-0.552,0-1-0.447-1-1s0.448-1,1-1h18.405c0.416-4.043-0.419-7.256-2.488-9.559c-3.874-4.316-10.832-4.137-10.9-4.133c-0.53,0.055-1.014-0.414-1.033-0.967c-0.019-0.551,0.414-1.014,0.966-1.031c0.321-0.01,7.965-0.207,12.455,4.795c2.626,2.926,3.593,6.975,2.875,12.035C87.277,273.062,86.855,273.43,86.357,273.43z"/><path fill="#FFE269" d="M121.798,256.738c0,0,16.612-0.553,14.306,15.691c-8.307,0-19.29,0-19.29,0"/><path d="M136.104,273.43h-19.29c-0.552,0-1-0.447-1-1s0.448-1,1-1h18.405c0.416-4.043-0.42-7.256-2.488-9.559c-3.874-4.316-10.832-4.137-10.899-4.133c-0.545,0.055-1.014-0.414-1.033-0.967c-0.019-0.551,0.414-1.014,0.966-1.031c0.323-0.014,7.964-0.207,12.454,4.795c2.626,2.924,3.593,6.975,2.875,12.035C137.024,273.062,136.602,273.43,136.104,273.43z"/><path d="M108.786,203.285c-0.25,0-0.495-0.094-0.683-0.27c-0.255-0.236-0.368-0.592-0.297-0.934c0.011-0.057,1.142-5.713-1.229-8.621c-0.939-1.152-2.3-1.713-4.161-1.713c-0.552,0-1-0.447-1-1s0.448-1,1-1c2.468,0,4.391,0.826,5.715,2.455c2.102,2.582,2.074,6.527,1.859,8.707l27.131-7.58c1.166-2.857,7.41-19.225,1.951-29.357c-2.279-4.23-6.377-6.875-12.182-7.863c-7.856-1.32-15.801,1.58-23.605,8.629c-5.902,5.33-9.486,11.152-9.522,11.209c-0.287,0.473-0.902,0.623-1.374,0.334c-0.472-0.287-0.621-0.902-0.333-1.375c0.15-0.246,3.745-6.094,9.851-11.619c8.175-7.396,16.931-10.561,25.318-9.15c6.446,1.098,11.025,4.088,13.611,8.891c6.427,11.938-1.713,30.744-2.062,31.537c-0.121,0.275-0.358,0.48-0.646,0.561l-29.072,8.123C108.966,203.273,108.875,203.285,108.786,203.285z"/><path fill="#FFE269" d="M130.658,181.611c0,0,10.799-4.984,17.629,0c4.522,3.322,5.075,11.535-0.925,16.428c-9.874,7.938-18.181,10.244-24.364,11.26c-6.184,1.107-14.491-0.553-13.937-7.938"/><path d="M119.511,210.602c-3.201,0-6.706-0.725-9.016-2.809c-1.789-1.615-2.629-3.865-2.431-6.506c0.041-0.551,0.511-0.971,1.072-0.922c0.551,0.041,0.964,0.521,0.922,1.072c-0.152,2.029,0.445,3.668,1.776,4.871c2.711,2.447,7.614,2.609,10.987,2.006c5.953-0.977,14.037-3.115,23.914-11.055c2.642-2.154,4.114-5.229,4.033-8.434c-0.066-2.648-1.216-5.045-3.073-6.41c-6.282-4.584-16.516,0.055-16.618,0.104c-0.503,0.23-1.096,0.012-1.327-0.49c-0.231-0.5-0.013-1.096,0.489-1.326c0.462-0.213,11.413-5.172,18.638,0.1c2.355,1.73,3.81,4.711,3.892,7.975c0.096,3.826-1.645,7.484-4.774,10.037c-10.361,8.328-19.135,10.535-24.834,11.471C122.061,210.482,120.811,210.602,119.511,210.602z"/><ellipse transform="matrix(-0.3616 -0.9323 0.9323 -0.3616 -13.2515 388.8875)" fill="#FFBBCE" cx="126.511" cy="198.98" rx="4.431" ry="8.122"/><path d="M123.435,205.049c-2.726,0-4.755-1.035-5.427-2.77c-1.101-2.838,1.772-6.51,6.54-8.361c1.697-0.658,3.44-1.006,5.042-1.006c2.726,0,4.754,1.035,5.427,2.77c0.566,1.459,0.122,3.16-1.253,4.787c-1.234,1.461-3.111,2.73-5.288,3.574C126.779,204.701,125.036,205.049,123.435,205.049z M129.589,194.912c-1.356,0-2.849,0.301-4.318,0.871c-3.913,1.518-5.986,4.262-5.399,5.773c0.357,0.92,1.723,1.492,3.563,1.492c1.356,0,2.849-0.301,4.317-0.871c1.87-0.725,3.462-1.791,4.483-3c0.867-1.027,1.201-2.037,0.916-2.771C132.794,195.484,131.429,194.912,129.589,194.912z"/><path fill="#FFBBCE" d="M128.128,186.66c2.043-0.793,3.999-0.666,4.367,0.285c0.37,0.953-0.988,2.363-3.032,3.156s-3.999,0.666-4.368-0.285C124.727,188.865,126.084,187.453,128.128,186.66z"/><path d="M126.939,191.623c-1.408,0-2.42-0.527-2.776-1.443c-0.596-1.539,0.919-3.41,3.604-4.453c0.991-0.383,1.989-0.588,2.884-0.588c1.409,0,2.421,0.527,2.777,1.445c0.189,0.488,0.335,1.488-0.823,2.693c-0.671,0.697-1.658,1.322-2.78,1.758C128.833,191.42,127.835,191.623,126.939,191.623z M126.04,189.484c0.04,0,0.31,0.139,0.9,0.139c0.642,0,1.41-0.162,2.162-0.453c1.73-0.672,2.457-1.625,2.454-1.893c-0.004,0.025-0.281-0.139-0.905-0.139c-0.642,0-1.409,0.162-2.161,0.453c-1.73,0.672-2.458,1.627-2.456,1.895C126.036,189.486,126.037,189.484,126.04,189.484z"/><ellipse transform="matrix(-0.3619 -0.9322 0.9322 -0.3619 14.3882 386.0207)" fill="#FFBBCE" cx="139.312" cy="188.086" rx="1.846" ry="3.969"/><path d="M137.457,191.326c-1.409,0-2.421-0.525-2.777-1.443c-0.597-1.537,0.918-3.408,3.602-4.449c0.991-0.385,1.988-0.588,2.885-0.588c1.409,0,2.421,0.525,2.778,1.443c0.596,1.537-0.92,3.408-3.603,4.451C139.351,191.123,138.353,191.326,137.457,191.326z M136.556,189.189c0.041,0,0.312,0.137,0.9,0.137c0.642,0,1.41-0.16,2.161-0.451c1.729-0.672,2.456-1.627,2.454-1.895c-0.011,0.018-0.282-0.135-0.905-0.135c-0.642,0-1.41,0.16-2.161,0.453c-1.729,0.67-2.456,1.625-2.454,1.893C136.552,189.191,136.554,189.189,136.556,189.189z"/><ellipse transform="matrix(-0.3617 -0.9323 0.9323 -0.3617 14.3933 397.6479)" fill="#FFBBCE" cx="143.33" cy="193.896" rx="1.846" ry="3.967"/><path d="M141.472,197.139c-1.408,0-2.42-0.527-2.775-1.445c-0.189-0.488-0.334-1.486,0.823-2.691c0.671-0.699,1.659-1.324,2.78-1.76c0.99-0.383,1.987-0.588,2.884-0.588c1.41,0,2.423,0.529,2.777,1.449c0.136,0.346,0.232,0.91-0.078,1.617c-0.485,1.104-1.803,2.16-3.523,2.83C143.367,196.936,142.369,197.139,141.472,197.139z M140.573,195c0.039,0,0.308,0.139,0.899,0.139c0.642,0,1.411-0.16,2.163-0.453c1.727-0.67,2.455-1.625,2.454-1.893c-0.014,0.025-0.281-0.139-0.905-0.139c-0.642,0-1.409,0.162-2.16,0.453c-1.729,0.672-2.457,1.627-2.455,1.895C140.57,195,140.571,195,140.573,195z"/><path fill="#FFE269" d="M181.051,220.742c12.275,4.801,13.937,12,9.691,17.352c-4.613,5.814-34.426,2.678-41.349-2.398"/><path d="M177.171,242.172c-10.802,0-24.152-2.578-28.369-5.67c-0.445-0.328-0.541-0.953-0.215-1.398c0.327-0.445,0.952-0.543,1.398-0.215c6.786,4.977,35.893,7.725,39.974,2.584c1.687-2.125,2.259-4.428,1.657-6.658c-0.67-2.482-3.11-6.082-10.93-9.141c-0.515-0.201-0.769-0.781-0.567-1.295s0.778-0.77,1.296-0.568c8.596,3.363,11.342,7.557,12.132,10.482c0.764,2.826,0.045,5.818-2.021,8.422C189.568,241.184,183.857,242.172,177.171,242.172z"/></svg>