<svg xmlns="http://www.w3.org/2000/svg" viewBox="0 0 250 267"><path fill="#A266F7" d="M99.735,21.25c0,0-9.251,3.802-20.489-4.065c-1.99,8.817-18.414,20.055-36.311,18.933c-2.336,8.903-24.209,38.212-30.693,47.034c14.093-15.824,38.732-17.21,69.423-31.472c30.693-14.266,18.502-25.678,18.502-25.678L99.735,21.25z"/><path d="M12.242,84.152c-0.222,0-0.444-0.073-0.629-0.223c-0.415-0.336-0.492-0.939-0.176-1.369l1.343-1.824C20.176,70.7,39.822,44.042,41.969,35.864c0.122-0.462,0.555-0.777,1.029-0.744c0.803,0.05,1.622,0.076,2.433,0.076c15.912,0,30.977-9.974,32.84-18.231c0.074-0.325,0.304-0.592,0.615-0.712c0.312-0.12,0.662-0.077,0.934,0.113c5.671,3.97,10.784,4.803,14.074,4.803c3.337,0,5.443-0.835,5.464-0.844c0.294-0.118,0.626-0.092,0.896,0.073c0.27,0.165,0.448,0.447,0.477,0.762l0.401,4.405c0.802,0.894,2.974,3.761,2.297,7.993c-1.045,6.531-8.226,12.934-21.343,19.03c-11.639,5.408-22.476,8.995-32.037,12.16c-15.904,5.264-28.466,9.42-37.061,19.071C12.792,84.039,12.518,84.152,12.242,84.152zM43.666,37.158c-2.631,7.84-16.134,26.814-25.016,38.965c8.175-5.797,18.496-9.212,30.772-13.275c9.51-3.147,20.289-6.715,31.823-12.074c15.541-7.224,19.569-13.521,20.21-17.533c0.642-4.011-1.943-6.485-1.97-6.509c-0.179-0.167-0.29-0.395-0.312-0.639l-0.321-3.521c-1.072,0.277-2.78,0.596-4.958,0.596c-3.353,0-8.433-0.787-14.076-4.397c-3.21,8.812-18.152,18.425-34.387,18.425C44.844,37.195,44.252,37.183,43.666,37.158z"/><path d="M81.666,46.021c-0.13,0-0.26-0.025-0.384-0.077c-0.204-0.085-20.616-8.489-38.365-8.827c-0.552-0.011-0.991-0.466-0.98-1.019c0.011-0.553,0.479-1.004,1.019-0.98C58.25,35.41,75.408,41.536,80.529,43.5L78.25,17.271c-0.048-0.55,0.359-1.035,0.909-1.082c0.553-0.053,1.035,0.359,1.083,0.909l2.419,27.836c0.03,0.348-0.124,0.687-0.406,0.893C82.082,45.956,81.875,46.021,81.666,46.021z"/><path fill="#A266F7" d="M154.371,22.974c0,0,9.254,3.805,20.496-4.062c1.986,8.823,18.412,20.06,36.309,18.933c2.333,8.908,24.206,38.216,30.691,47.03c-14.092-15.818-38.733-17.201-69.424-31.467c-30.691-14.266-18.498-25.673-18.498-25.673L154.371,22.974z"/><path d="M241.867,85.875c-0.275,0-0.55-0.113-0.747-0.335c-8.59-9.643-21.147-13.799-37.046-19.06c-9.564-3.165-20.408-6.753-32.053-12.166c-13.115-6.097-20.295-12.499-21.339-19.028c-0.677-4.23,1.495-7.096,2.298-7.989l0.395-4.413c0.029-0.316,0.206-0.601,0.478-0.765c0.272-0.165,0.604-0.191,0.899-0.07c0.018,0.007,2.127,0.845,5.467,0.845c3.291,0,8.404-0.833,14.074-4.802c0.273-0.191,0.625-0.234,0.934-0.113c0.312,0.12,0.542,0.388,0.615,0.713c1.86,8.258,16.918,18.231,32.828,18.231c0.815,0,1.637-0.026,2.443-0.076c0.449-0.025,0.909,0.281,1.03,0.744c2.151,8.216,21.859,34.937,29.279,44.995l1.149,1.562c0.193,0.183,0.313,0.44,0.313,0.727c0,0.553-0.447,1-0.999,1C241.881,85.875,241.875,85.875,241.867,85.875z M155.256,24.296l-0.315,3.528c-0.022,0.244-0.134,0.473-0.313,0.64c-0.104,0.1-2.621,2.553-1.964,6.545c0.659,4.002,4.698,10.286,20.202,17.492c11.539,5.364,22.323,8.933,31.838,12.081c12.268,4.059,22.581,7.472,30.75,13.261c-8.911-12.186-22.381-31.113-25.008-38.959c-0.591,0.025-1.185,0.039-1.775,0.039c-16.232,0-31.168-9.614-34.375-18.426c-5.643,3.609-10.723,4.396-14.076,4.396C158.04,24.894,156.33,24.574,155.256,24.296z"/><path fill="#F96488" d="M195.873,170.643l-69.251,25.59c0,0-0.173,0.434-0.518,1.124c-0.261-0.69-0.519-1.124-0.519-1.124l-69.25-25.59l43.745,72.533c0,0,4.842,4.061,11.239,0c6.484-4.062,5.621-28.787,14.266-28.787c0.173,0,0.346,0,0.519,0c0.172,0,0.345,0,0.518,0c8.646,0,6.052,24.64,12.536,28.787c6.484,4.061,11.236,0,11.236,0L195.873,170.643z"/><path d="M144.954,245.98C144.953,245.98,144.954,245.98,144.954,245.98c-2.124,0-4.253-0.659-6.326-1.957c-3.287-2.103-4.38-8.154-5.536-14.562c-1.249-6.918-2.541-14.073-6.47-14.073h-1.036c-4.025,0-5.808,7.312-7.532,14.384c-1.534,6.291-2.983,12.234-6.204,14.252c-2.044,1.297-4.161,1.957-6.287,1.957c-3.651,0-6.025-1.955-6.125-2.038c-0.084-0.071-0.157-0.155-0.214-0.25l-43.746-72.533c-0.219-0.364-0.185-0.825,0.086-1.153c0.271-0.327,0.719-0.444,1.117-0.301l69.25,25.589c0.061,0.022,0.118,0.051,0.172,0.083c0.055-0.032,0.112-0.061,0.172-0.083l69.251-25.589c0.402-0.145,0.853-0.024,1.123,0.308c0.27,0.332,0.298,0.799,0.071,1.161l-45.479,72.533c-0.054,0.086-0.121,0.163-0.197,0.229C150.947,244.02,148.609,245.98,144.954,245.98z M125.586,213.389h1.036c5.6,0,7.042,7.99,8.438,15.719c1.029,5.702,2.094,11.6,4.638,13.226c1.742,1.092,3.514,1.648,5.256,1.648c2.501,0,4.25-1.162,4.688-1.486l43.826-69.897l-66.097,24.423c-0.09,0.201-0.215,0.467-0.373,0.783c-0.178,0.355-0.551,0.573-0.945,0.552c-0.396-0.021-0.744-0.274-0.884-0.646c-0.104-0.276-0.208-0.506-0.29-0.672l-66.215-24.468l42.174,69.928c0.457,0.33,2.231,1.484,4.724,1.484c1.74,0,3.497-0.555,5.221-1.649c2.537-1.589,3.956-7.407,5.327-13.033C118.018,221.477,119.99,213.389,125.586,213.389z"/><path d="M46.738,221.351H12.675c-0.552,0-1-0.447-1-0.999c0-0.553,0.448-1,1-1h34.063c0.552,0,1,0.447,1,1C47.738,220.903,47.291,221.351,46.738,221.351z"/><path d="M97.313,263.886H72.501c-0.552,0-1-0.447-1-1s0.447-1,1-1h24.812c0.552,0,1,0.447,1,1S97.866,263.886,97.313,263.886z"/><path d="M121.262,246.771H94.635c-0.552,0-1-0.447-1-1s0.447-1,1-1h26.627c0.552,0,1,0.447,1,1S121.814,246.771,121.262,246.771z"/><path d="M195.182,267h-26.543c-0.553,0-1-0.447-1-1s0.447-1,1-1h26.543c0.553,0,1,0.447,1,1S195.734,267,195.182,267z"/><path d="M203.655,239.337h-16.946c-0.553,0-0.999-0.447-0.999-1c0-0.552,0.446-0.999,0.999-0.999h16.946c0.552,0,0.999,0.447,0.999,0.999C204.654,238.89,204.207,239.337,203.655,239.337z"/><path d="M57.805,237.261H39.823c-0.552,0-1-0.447-1-1s0.447-1,1-1h17.982c0.552,0,1,0.447,1,1S58.357,237.261,57.805,237.261z"/><path fill="#A6E8E8" d="M202.187,138.825c0,55.938-33.89,70.375-75.737,70.375c-41.844,0-75.733-14.437-75.733-70.375c0-55.938,46.339-132.276,75.733-132.276C155.844,6.549,202.187,82.888,202.187,138.825z"/><path d="M126.449,210.2c-23.909,0-41.628-4.717-54.17-14.42c-14.972-11.583-22.563-30.746-22.563-56.955c0-25.993,10.087-58.748,26.981-87.62c16.479-28.162,35.543-45.656,49.752-45.656c14.21,0,33.274,17.495,49.754,45.656c16.896,28.872,26.983,61.627,26.983,87.62c0,26.209-7.592,45.372-22.563,56.955C168.08,205.484,150.36,210.2,126.449,210.2zM126.449,7.548c-13.501,0-31.904,17.116-48.026,44.667c-16.723,28.579-26.707,60.957-26.707,86.61c0,47.331,23.748,69.376,74.733,69.376c50.99,0,74.737-22.045,74.737-69.376c0-25.653-9.984-58.03-26.708-86.61C158.355,24.664,139.951,7.548,126.449,7.548z"/><path fill="#FC9DCD" d="M144.691,29.288c0,0-7.521,12.534-19.278,12.534c-0.087,0-0.261,0-0.346,0c-0.087,0-0.261,0-0.345,0c-11.76,0-19.281-12.534-19.281-12.534c-15.389,25.248-2.939,32.158,4.842,34.235c5.188,1.387,9.855-0.174,14.611-0.174c0.086,0,0.086,0,0.173,0c0.085,0,0.085,0,0.172,0c4.84,0,9.51,1.472,14.61,0.174C147.631,61.536,160.08,54.535,144.691,29.288z"/><path d="M114.938,65.097c-1.776,0-3.384-0.199-4.914-0.608c-5.98-1.597-10.081-4.782-11.857-9.212c-2.564-6.396-0.404-15.314,6.419-26.51l0.859-1.409l0.851,1.415c0.073,0.121,7.38,12.049,18.425,12.049h0.691c11.041,0,18.35-11.929,18.423-12.049l0.85-1.414l0.859,1.409c6.854,11.244,9.003,20.2,6.389,26.62c-2.283,5.61-7.697,8.047-11.836,9.105c-1.497,0.381-3.074,0.565-4.824,0.565l0,0c-1.756,0-3.481-0.184-5.15-0.361c-1.678-0.179-3.262-0.348-4.883-0.348h-0.346c-1.576,0-3.131,0.176-4.777,0.363C118.444,64.901,116.716,65.097,114.938,65.097zM105.487,31.159c-5.842,9.984-7.681,17.842-5.464,23.374c1.554,3.876,5.093,6.576,10.518,8.024c1.36,0.364,2.799,0.541,4.398,0.541c1.664,0,3.336-0.19,4.953-0.374c1.629-0.185,3.314-0.376,5.003-0.376h0.346c1.729,0,3.44,0.183,5.096,0.359c1.616,0.172,3.288,0.351,4.938,0.351l0,0c1.581,0,2.997-0.165,4.33-0.504c3.692-0.943,8.509-3.083,10.479-7.922c2.262-5.553,0.432-13.444-5.436-23.473c-2.383,3.35-9.294,11.662-19.233,11.662h-0.691C114.78,42.821,107.868,34.509,105.487,31.159z"/><path fill="#FFFFFF" d="M110.716,39.7c0.68,0,1.405-0.778,1.872-2.009c-1.709-1.379-3.107-2.843-4.156-4.077c-0.052,0.385-0.089,0.784-0.089,1.206C108.343,37.613,109.596,39.7,110.716,39.7z"/><path d="M110.716,41.699c0.95,0,1.819-0.459,2.529-1.24c-0.044-0.399-0.071-0.81-0.071-1.231c0-0.354,0.021-0.697,0.053-1.035c-0.218-0.165-0.43-0.333-0.638-0.501c-0.467,1.231-1.192,2.009-1.872,2.009c-1.12,0-2.373-2.087-2.373-4.879c0-0.422,0.037-0.821,0.089-1.206c-0.684-0.806-1.218-1.51-1.589-2.028c-0.318,0.959-0.499,2.057-0.499,3.234C106.344,38.678,108.264,41.699,110.716,41.699z"/><path fill="#FFFFFF" d="M117.544,44.107c0.769,0,1.589-0.995,2.035-2.512c-1.584-0.514-3.051-1.231-4.389-2.058C115.28,42.169,116.468,44.107,117.544,44.107z"/><path d="M113.173,39.228c0,0.422,0.027,0.832,0.071,1.231c0.359,3.248,2.117,5.647,4.299,5.647c1.36,0,2.554-0.932,3.35-2.417c-0.217-0.566-0.383-1.187-0.489-1.85c-0.278-0.075-0.554-0.156-0.826-0.244c-0.446,1.517-1.267,2.512-2.035,2.512c-1.076,0-2.264-1.938-2.354-4.569c-0.688-0.425-1.346-0.876-1.964-1.345C113.195,38.53,113.173,38.874,113.173,39.228z"/><path fill="#FFFFFF" d="M124.635,44.973c0.783,0,1.622-1.247,2.062-2.816C126.273,42.19,125.848,42,125.413,42c-0.087,0-0.261,0-0.346,0c-0.087,0-0.261,0-0.345,0c-0.744,0-1.468,0.159-2.176,0.063C122.977,43.686,123.835,44.973,124.635,44.973z"/><path d="M120.894,43.689c0.759,1.98,2.133,3.283,3.741,3.283c1.582,0,2.939-1.262,3.705-3.191c-0.292-0.441-0.543-0.947-0.746-1.504c-0.296,0.04-0.596,0.07-0.897,0.094c-0.439,1.569-1.278,2.602-2.062,2.602c-0.799,0-1.658-1.073-2.089-2.695c-0.734-0.1-1.447-0.25-2.141-0.438C120.511,42.502,120.677,43.123,120.894,43.689z"/><path fill="#FFFFFF" d="M131.377,43.68c0.906,0,1.889-1.379,2.234-3.382c-1.246,0.655-2.587,1.204-4.017,1.579C130.062,42.983,130.737,43.68,131.377,43.68z"/><path d="M128.34,43.781c0.781,1.179,1.845,1.899,3.037,1.899c1.869,0,3.427-1.76,4.062-4.306c-0.319-0.478-0.592-1.03-0.806-1.646c-0.333,0.198-0.675,0.387-1.022,0.569c-0.346,2.003-1.328,3.382-2.234,3.382c-0.64,0-1.314-0.697-1.782-1.803c-0.649,0.171-1.316,0.306-2.001,0.399C127.797,42.834,128.048,43.34,128.34,43.781z"/><path fill="#FFFFFF" d="M131.377,57.778c-1.119,0-2.37,2.087-2.37,4.879c0,0.08,0.011,0.153,0.013,0.232c1.552,0.156,3.11,0.343,4.695,0.411c0.015-0.212,0.035-0.421,0.035-0.643C133.75,59.865,132.497,57.778,131.377,57.778z"/><path d="M135.27,59.489c-0.717-2.22-2.173-3.71-3.893-3.71c-1.371,0-2.575,0.947-3.37,2.456c0.627,1.188,1,2.724,1,4.423c0-2.792,1.251-4.879,2.37-4.879c1.12,0,2.373,2.087,2.373,4.879c0,0.222-0.021,0.431-0.035,0.643c0.14,0.006,0.28,0.009,0.421,0.013C134.254,61.83,134.661,60.51,135.27,59.489z"/><path d="M129,62.888c0.007,0.001,0.013,0.001,0.02,0.002c-0.002-0.079-0.013-0.152-0.013-0.232C129.007,62.735,129.001,62.811,129,62.888z"/><path fill="#FFFFFF" d="M110.801,59.335c-0.821,0-1.708,1.127-2.126,2.826c0.76,0.272,1.507,0.492,2.215,0.671c0.753,0.198,1.496,0.326,2.23,0.41C112.872,60.952,111.786,59.335,110.801,59.335z"/><path d="M113.774,59.141c-0.775-1.122-1.813-1.805-2.974-1.805c-1.806,0-3.32,1.642-3.995,4.047c0.623,0.295,1.25,0.556,1.868,0.778c0.418-1.698,1.306-2.826,2.126-2.826c0.985,0,2.071,1.617,2.319,3.907c0.024,0.002,0.048,0.005,0.072,0.008c-0.01-0.196-0.019-0.393-0.019-0.593C113.173,61.362,113.394,60.165,113.774,59.141z"/><path fill="#FFFFFF" d="M117.544,57.778c-1.119,0-2.371,2.087-2.371,4.879c0,0.244,0.021,0.474,0.039,0.706c1.586,0.007,3.141-0.154,4.684-0.325c0.005-0.128,0.021-0.25,0.021-0.381C119.917,59.865,118.665,57.778,117.544,57.778z"/><path d="M121.089,58.596c-0.788-1.715-2.068-2.817-3.545-2.817c-1.627,0-3.017,1.337-3.77,3.362c-0.38,1.024-0.601,2.221-0.601,3.517c0,0.2,0.008,0.397,0.019,0.593c0.68,0.075,1.353,0.111,2.02,0.113c-0.018-0.232-0.039-0.462-0.039-0.706c0-2.792,1.252-4.879,2.371-4.879c1.121,0,2.373,2.087,2.373,4.879c0,0.131-0.016,0.253-0.021,0.381c0.125-0.014,0.251-0.028,0.377-0.042c-0.003-0.113-0.011-0.224-0.011-0.339C120.263,61.124,120.57,59.728,121.089,58.596z"/><path fill="#FFFFFF" d="M124.635,57.778c-1.121,0-2.373,2.087-2.373,4.879c0,0.046,0.007,0.258,0.007,0.304c0.874-0.078,1.748,0.039,2.625,0.039c0.086,0,0.086,0,0.173,0c0.085,0,0.085,0,0.172,0c0.589,0,1.177-0.148,1.765-0.111c0-0.021,0.003-0.125,0.003-0.146C127.008,59.95,125.755,57.778,124.635,57.778z"/><path d="M128.007,58.234c-0.796-1.509-2.001-2.456-3.372-2.456c-1.478,0-2.758,1.102-3.545,2.817c-0.52,1.132-0.827,2.528-0.827,4.062c0,0.115,0.007,0.226,0.011,0.339c0.667-0.074,1.331-0.147,1.996-0.207c0-0.045-0.007-0.086-0.007-0.132c0-2.792,1.252-4.879,2.373-4.879c1.12,0,2.373,2.087,2.373,4.879c0,0.021-0.003,0.04-0.003,0.061c0.664,0.042,1.329,0.103,1.995,0.17c0.001-0.077,0.007-0.152,0.007-0.23C129.007,60.958,128.634,59.422,128.007,58.234z"/><path fill="#FFFFFF" d="M138.467,59.335c-0.99,0-2.082,1.638-2.32,3.95c1.017-0.06,2.047-0.195,3.098-0.453c0.455-0.115,0.927-0.248,1.407-0.399C140.266,60.583,139.33,59.335,138.467,59.335z"/><path d="M138.467,57.336c-1.276,0-2.405,0.824-3.197,2.153c-0.608,1.021-1.016,2.341-1.134,3.825c0.664,0.019,1.334,0.012,2.011-0.029c0.238-2.312,1.33-3.95,2.32-3.95c0.863,0,1.799,1.248,2.185,3.098c0.623-0.197,1.26-0.43,1.898-0.698C141.93,59.14,140.358,57.336,138.467,57.336z"/><path fill="#FFFFFF" d="M138.467,41.257c1.119,0,2.371-2.087,2.371-4.879c0-0.577-0.063-1.114-0.158-1.618c-1.155,1.239-2.599,2.593-4.297,3.816C136.815,40.19,137.671,41.257,138.467,41.257z"/><path d="M135.439,41.374c0.78,1.169,1.84,1.882,3.027,1.882c2.451,0,4.37-3.021,4.37-6.878c0-1.265-0.21-2.437-0.573-3.444c-0.443,0.551-0.976,1.173-1.584,1.826c0.095,0.504,0.158,1.041,0.158,1.618c0,2.792-1.252,4.879-2.371,4.879c-0.796,0-1.651-1.067-2.084-2.681c-0.557,0.401-1.139,0.789-1.749,1.152C134.848,40.344,135.12,40.896,135.439,41.374z"/><path fill="#A266F7" d="M118.282,5.836c3.333,3.682,2.335,10.017-2.229,14.151c-4.567,4.133-10.97,4.504-14.302,0.823c-3.334-3.681-2.335-10.017,2.229-14.15C108.546,2.522,114.948,2.155,118.282,5.836z"/><path d="M107.849,24.347c-2.738,0-5.168-1.018-6.839-2.865c-1.82-2.009-2.563-4.755-2.094-7.732c0.457-2.897,2.017-5.678,4.393-7.83c2.539-2.3,5.772-3.62,8.872-3.62c2.738,0,5.169,1.018,6.842,2.866c3.698,4.085,2.667,11.066-2.299,15.563C114.184,23.028,110.949,24.347,107.849,24.347z M112.181,4.299c-2.609,0-5.354,1.13-7.53,3.102c-2.039,1.847-3.375,4.212-3.76,6.66c-0.374,2.368,0.195,4.527,1.601,6.079c1.289,1.424,3.191,2.208,5.357,2.208c2.61,0,5.355-1.13,7.533-3.101c4.148-3.757,5.116-9.472,2.159-12.74C116.251,5.083,114.348,4.299,112.181,4.299z"/><path fill="#FFFFFF" d="M112.446,3.051c2.691,2.969,1.89,8.084-1.79,11.417c-3.681,3.335-8.848,3.625-11.54,0.657c-2.691-2.978-1.893-8.089,1.79-11.421C104.585,0.371,109.751,0.077,112.446,3.051z"/><path d="M104.048,18.173c-2.268,0-4.282-0.844-5.672-2.377c-3.058-3.383-2.223-9.14,1.86-12.834C102.314,1.08,104.966,0,107.512,0c2.269,0,4.284,0.845,5.675,2.38c1.508,1.664,2.127,3.936,1.741,6.398c-0.374,2.382-1.652,4.666-3.601,6.43C109.248,17.092,106.595,18.173,104.048,18.173z M107.512,1.999c-2.056,0-4.219,0.891-5.935,2.445c-3.266,2.955-4.037,7.445-1.72,10.01c1.006,1.108,2.494,1.72,4.19,1.72c2.057,0,4.221-0.893,5.938-2.448c1.61-1.458,2.665-3.326,2.968-5.258c0.29-1.853-0.152-3.539-1.248-4.746C110.698,2.611,109.209,1.999,107.512,1.999z"/><path d="M109.389,5.883c1.423,0.175,2.395,1.74,2.176,3.494c-0.222,1.753-1.55,3.029-2.974,2.851c-1.42-0.176-2.394-1.746-2.173-3.494C106.637,6.976,107.969,5.705,109.389,5.883z"/><path fill="#A266F7" d="M150.135,22.56c-3.331,3.682-9.739,3.314-14.305-0.824c-4.564-4.133-5.562-10.469-2.229-14.147c3.334-3.685,9.737-3.314,14.303,0.819C152.469,12.547,153.467,18.878,150.135,22.56z"/><path d="M144.033,26.097c-3.102,0-6.336-1.319-8.875-3.621c-2.375-2.151-3.936-4.932-4.392-7.829c-0.469-2.977,0.274-5.722,2.095-7.729c1.672-1.85,4.103-2.868,6.842-2.868c3.1,0,6.333,1.318,8.871,3.617c4.964,4.5,5.996,11.481,2.303,15.563C149.203,25.079,146.773,26.097,144.033,26.097z M139.703,6.05c-2.166,0-4.07,0.785-5.36,2.21c-1.405,1.551-1.975,3.708-1.601,6.076c0.385,2.448,1.721,4.812,3.76,6.659c2.175,1.972,4.92,3.103,7.531,3.103c2.168,0,4.072-0.784,5.361-2.208c2.955-3.266,1.984-8.981-2.162-12.741C145.057,7.18,142.312,6.05,139.703,6.05z"/><path fill="#FFFFFF" d="M152.768,16.89c-2.691,2.978-7.857,2.684-11.541-0.648c-3.681-3.336-4.483-8.447-1.787-11.421c2.693-2.974,7.859-2.683,11.537,0.653C154.661,8.81,155.46,13.92,152.768,16.89z"/><path d="M147.834,19.945c-2.545,0-5.197-1.079-7.277-2.961c-1.95-1.768-3.229-4.052-3.603-6.434c-0.386-2.461,0.234-4.734,1.745-6.4c1.391-1.535,3.405-2.381,5.674-2.381c2.545,0,5.197,1.081,7.274,2.965c1.95,1.765,3.229,4.05,3.604,6.431c0.386,2.46-0.233,4.732-1.743,6.397C152.119,19.098,150.104,19.945,147.834,19.945z M144.373,3.768c-1.697,0-3.186,0.612-4.192,1.724c-1.097,1.21-1.542,2.896-1.251,4.749c0.303,1.931,1.357,3.799,2.969,5.261c1.717,1.553,3.88,2.444,5.936,2.444c1.697,0,3.186-0.612,4.191-1.725c1.097-1.21,1.541-2.895,1.25-4.746c-0.303-1.931-1.357-3.799-2.971-5.259C148.59,4.66,146.428,3.768,144.373,3.768z"/><path d="M143.211,14.028c-1.424,0.179-2.756-1.096-2.974-2.85c-0.217-1.754,0.756-3.319,2.177-3.495c1.42-0.179,2.752,1.093,2.973,2.851C145.604,12.282,144.633,13.853,143.211,14.028z"/><path fill="#A6E8E8" d="M61.869,96.897c-23.342,7.782-14.697,31.813,6.83,32.504c38.385,1.297,35.533,40.29-10.115,36.31c-26.715-2.329-55.678-13.66-56.629-51.177c-1.47-58.792,82.999-71.151,82.999-71.151"/><path d="M64.754,166.986c-2.024,0-4.112-0.092-6.258-0.279C32.793,164.466,1.945,153.6,0.955,114.56c-0.611-24.454,13.74-44.698,41.501-58.542c20.835-10.39,42.14-13.592,42.352-13.623c0.549-0.083,1.054,0.298,1.134,0.844c0.08,0.546-0.298,1.054-0.844,1.134c-0.21,0.031-21.239,3.197-41.791,13.455C15.931,71.491,2.354,90.562,2.953,114.509c0.526,20.733,10.62,46.274,55.717,50.206c15.685,1.368,28.158-2.44,33.376-10.186c2.69-3.993,3.024-8.651,0.916-12.78c-3.425-6.708-12.508-10.95-24.297-11.349c-12.661-0.406-20.422-8.413-21.545-16.111c-1.387-9.512,6.546-15.71,14.433-18.339c0.526-0.177,1.091,0.108,1.265,0.632s-0.108,1.09-0.632,1.264c-9.222,3.074-14.114,9.113-13.087,16.154c1.003,6.876,8.068,14.031,19.632,14.403c12.715,0.429,22.195,4.962,26.012,12.438c2.448,4.795,2.07,10.191-1.038,14.806C88.811,162.911,78.222,166.986,64.754,166.986z"/><path fill="#A6E8E8" d="M69.129,166.061c8.473-1.646,13.315,4.753,13.315,4.753s6.14,10.114,21.7,7.436c15.562-2.768-8.3-12.623-8.3-12.623l-3.803-15.474"/><path d="M99.004,179.706c-11.817,0-16.882-7.528-17.382-8.321c-0.402-0.511-4.782-5.798-12.302-4.343c-0.544,0.106-1.067-0.249-1.172-0.791c-0.105-0.542,0.249-1.066,0.79-1.172c8.983-1.742,14.091,4.85,14.303,5.132c0.021,0.027,0.04,0.056,0.058,0.085c0.237,0.385,6.026,9.492,20.676,6.968c3.168-0.563,4.37-1.412,4.436-2.018c0.214-1.979-6.555-6.056-12.949-8.696c-0.294-0.121-0.513-0.376-0.589-0.686l-3.803-15.474c-0.132-0.536,0.196-1.076,0.732-1.208c0.536-0.135,1.077,0.195,1.209,0.731l3.683,14.983c3.887,1.641,14.156,6.388,13.704,10.563c-0.2,1.846-2.188,3.08-6.079,3.772C102.414,179.561,100.644,179.706,99.004,179.706z"/><path fill="#A6E8E8" d="M87.977,169.261c0,0,8.387,13.14,23.948,10.37c15.562-2.765-8.299-12.622-8.299-12.622"/><path d="M107.712,181.011c-13.253,0-20.498-11.088-20.577-11.212c-0.297-0.465-0.161-1.082,0.304-1.38c0.463-0.298,1.083-0.162,1.38,0.303c0.33,0.513,8.234,12.536,22.93,9.926c3.175-0.564,4.375-1.413,4.441-2.019c0.214-1.979-6.553-6.056-12.947-8.697c-0.51-0.211-0.753-0.794-0.542-1.305c0.211-0.51,0.794-0.754,1.306-0.542c3.443,1.422,14.644,6.403,14.171,10.759c-0.2,1.848-2.189,3.08-6.079,3.771C110.572,180.888,109.107,181.011,107.712,181.011z"/><path fill="#A6E8E8" d="M92.732,166.492c4.409,5.964,14.957,12.964,23.863,14.261c8.991,1.299,11.412-7.866,5.618-12.099c-8.212-6.054-22.563-9.078-21.527-21.702c0.952-11.582,10.979-10.285,10.979-10.285c7.869,1.638,10.202-0.265,10.721-3.029c0.433-2.248-0.606-4.837-5.1-8.126c-4.497-3.285-11.5-4.493-16.254-3.371c-8.127,1.988-12.018,8.647-29.481,7.436"/><path d="M118.274,181.879c-0.575,0-1.182-0.044-1.823-0.137c-9.475-1.379-20.106-8.681-24.523-14.655c-0.328-0.444-0.234-1.07,0.209-1.398c0.444-0.33,1.069-0.234,1.398,0.209c4.196,5.676,14.521,12.603,23.203,13.866c3.495,0.505,6.199-0.697,7.226-3.218c0.994-2.438,0.031-5.352-2.341-7.084c-2.094-1.544-4.574-2.872-7.2-4.28c-7.291-3.906-15.554-8.335-14.734-18.312c0.327-3.978,1.709-6.979,4.108-8.919c3.487-2.82,7.812-2.297,7.996-2.276c4.129,0.858,6.92,0.793,8.371-0.179c0.667-0.447,1.062-1.096,1.239-2.043c0.268-1.392,0.07-3.639-4.708-7.136c-4.038-2.949-10.673-4.325-15.435-3.203c-2.446,0.598-4.546,1.67-6.77,2.805c-5.056,2.579-10.786,5.502-23.009,4.655c-0.551-0.039-0.966-0.517-0.928-1.067c0.039-0.55,0.519-0.94,1.067-0.928c11.663,0.808,17.138-1.981,21.962-4.441c2.33-1.188,4.531-2.312,7.211-2.969c5.365-1.265,12.546,0.221,17.082,3.535c4.335,3.173,6.08,6.071,5.492,9.123c-0.274,1.463-0.979,2.585-2.091,3.33c-1.941,1.3-5.152,1.459-9.815,0.489c-0.003-0.001-0.229-0.025-0.655-0.025c-1.172,0-3.7,0.215-5.769,1.898c-1.947,1.583-3.076,4.112-3.356,7.515c-0.712,8.669,6.282,12.417,13.686,16.386c2.572,1.378,5.232,2.805,7.438,4.43c3.113,2.273,4.352,6.161,3.01,9.451C124.869,179.624,122.419,181.879,118.274,181.879z"/><path fill="#A6E8E8" d="M188.957,93.264c21.873,7.61,20.746,35.102-5.277,36.138c-38.383,1.558-35.527,40.29,10.12,36.31c26.715-2.329,54.205-14.692,55.242-52.218c1.558-57.75-77.981-66.74-77.981-66.74"/><path d="M187.595,166.988c-13.458,0-24.029-4.047-28.916-11.266c-3.093-4.568-3.483-9.928-1.073-14.703c3.787-7.5,13.276-12.099,26.033-12.616c12.964-0.517,18.604-7.577,19.561-14.013c1.467-9.873-6.524-17.384-14.57-20.184c-0.521-0.182-0.797-0.75-0.615-1.272c0.182-0.521,0.752-0.797,1.272-0.615c8.799,3.062,17.524,11.366,15.891,22.365c-1.074,7.228-7.275,15.15-21.457,15.716c-11.834,0.48-20.929,4.786-24.329,11.521c-2.074,4.108-1.73,8.73,0.943,12.682c5.214,7.7,17.699,11.479,33.379,10.112c43.84-3.822,53.742-29.979,54.329-51.249c0.635-23.521-12.096-41.722-37.84-54.098c-19.313-9.285-39.056-11.599-39.253-11.621c-0.549-0.062-0.943-0.557-0.881-1.105c0.062-0.549,0.558-0.945,1.105-0.881c0.2,0.022,20.279,2.375,39.895,11.806c26.145,12.569,39.621,31.918,38.974,55.955c-0.482,17.445-6.665,30.926-18.377,40.068c-9.401,7.339-22.111,11.752-37.778,13.118C191.731,166.896,189.628,166.988,187.595,166.988z"/><path fill="#A6E8E8" d="M183.164,166.061c-8.473-1.646-13.314,4.753-13.314,4.753s-6.135,10.114-21.697,7.436c-15.564-2.768,8.297-12.623,8.297-12.623l3.805-15.474"/><path d="M153.295,179.706c-1.639,0.001-3.408-0.145-5.312-0.473c-3.896-0.692-5.885-1.927-6.086-3.772c-0.117-1.09,0.535-5.041,13.702-10.564l3.685-14.983c0.133-0.535,0.678-0.865,1.209-0.73c0.537,0.132,0.865,0.672,0.732,1.209l-3.805,15.474c-0.076,0.309-0.295,0.563-0.59,0.685c-6.393,2.642-13.16,6.718-12.945,8.695c0.065,0.606,1.268,1.454,4.442,2.02c14.714,2.531,20.61-6.874,20.668-6.969c0.018-0.029,0.037-0.058,0.058-0.085c0.213-0.282,5.326-6.881,14.301-5.132c0.542,0.105,0.896,0.63,0.791,1.172c-0.104,0.542-0.624,0.902-1.172,0.791c-7.48-1.453-11.939,3.89-12.303,4.345C170.164,172.189,165.101,179.706,153.295,179.706z"/><path fill="#A6E8E8" d="M164.316,169.261c0,0-8.383,13.14-23.946,10.37c-15.563-2.765,8.298-12.622,8.298-12.622"/><path d="M144.584,181.011c-1.396,0-2.86-0.123-4.389-0.396c-3.891-0.691-5.88-1.924-6.08-3.771c-0.119-1.101,0.55-5.132,14.172-10.759c0.512-0.213,1.094,0.031,1.305,0.542s-0.031,1.094-0.542,1.305c-6.394,2.643-13.161,6.72-12.946,8.697c0.065,0.605,1.267,1.454,4.441,2.019c14.729,2.615,22.848-9.799,22.928-9.925c0.299-0.465,0.917-0.602,1.381-0.305c0.466,0.297,0.603,0.915,0.306,1.381C165.08,169.923,157.836,181.011,144.584,181.011z"/><path fill="#A6E8E8" d="M159.559,166.492c-4.406,5.964-14.953,12.964-23.855,14.261c-8.994,1.299-11.414-7.866-5.623-12.099c8.217-6.054,22.568-9.078,21.527-21.702c-0.947-11.582-10.981-10.285-10.981-10.285c-7.864,1.638-10.2-0.265-10.719-3.029c-0.431-2.248,0.606-4.837,5.103-8.126c4.494-3.285,11.495-4.493,16.252-3.371c8.127,1.988,12.018,8.647,29.484,7.436"/><path d="M134.023,181.878c-4.146,0-6.597-2.254-7.545-4.577c-1.341-3.29-0.104-7.177,3.012-9.454c2.202-1.622,4.861-3.048,7.434-4.425c7.406-3.969,14.402-7.718,13.688-16.388c-0.278-3.401-1.406-5.93-3.353-7.513c-2.813-2.289-6.472-1.866-6.507-1.862c-4.584,0.958-7.795,0.797-9.736-0.502c-1.112-0.745-1.816-1.868-2.091-3.335c-0.584-3.05,1.162-5.948,5.495-9.118c4.533-3.312,11.711-4.797,17.071-3.537c2.688,0.658,4.889,1.781,7.219,2.97c4.825,2.462,10.299,5.254,21.966,4.442c0.553-0.023,1.029,0.378,1.066,0.928c0.039,0.551-0.377,1.028-0.928,1.067c-12.221,0.843-17.956-2.076-23.014-4.656c-2.223-1.135-4.322-2.206-6.776-2.806c-4.753-1.123-11.389,0.256-15.425,3.206c-4.777,3.494-4.977,5.743-4.711,7.131c0.178,0.95,0.572,1.599,1.24,2.046c1.451,0.974,4.242,1.036,8.293,0.193c0.26-0.037,4.588-0.56,8.078,2.265c2.397,1.94,3.778,4.941,4.104,8.917c0.822,9.978-7.442,14.406-14.734,18.313c-2.627,1.407-5.106,2.735-7.196,4.275c-2.375,1.735-3.337,4.648-2.343,7.087c1.028,2.521,3.73,3.719,7.229,3.218c8.68-1.264,19.001-8.19,23.195-13.866c0.327-0.443,0.954-0.538,1.398-0.21c0.444,0.329,0.538,0.955,0.21,1.399c-4.415,5.974-15.043,13.275-24.517,14.655C135.205,181.835,134.598,181.878,134.023,181.878z"/><path fill="#F96488" d="M140.626,146.693c0,9.513-13.658,17.205-13.658,17.205s-13.658-7.692-13.658-17.205c0-9.51,13.658-1.123,13.658-1.123S140.626,137.184,140.626,146.693z"/><path d="M126.968,164.897c-0.169,0-0.339-0.043-0.491-0.129c-0.578-0.324-14.167-8.093-14.167-18.075c0-3.571,1.801-5.539,5.07-5.539c3.559,0,8.064,2.388,9.588,3.256c1.524-0.868,6.03-3.256,9.588-3.256c3.269,0,5.069,1.968,5.069,5.539c0,9.982-13.588,17.751-14.166,18.075C127.307,164.854,127.137,164.897,126.968,164.897zM117.38,143.154c-1.43,0-3.07,0.402-3.07,3.539c0,7.84,10.271,14.581,12.657,16.041c2.387-1.462,12.659-8.212,12.659-16.041c0-3.137-1.641-3.539-3.07-3.539c-3.692,0-9.012,3.235-9.065,3.269c-0.32,0.195-0.725,0.195-1.045,0C126.392,146.39,121.072,143.154,117.38,143.154z"/><path d="M172.357,47.753c-0.209,0-0.416-0.065-0.59-0.193c-0.282-0.207-0.436-0.545-0.406-0.894l2.424-27.841c0.047-0.55,0.524-0.963,1.082-0.909c0.55,0.048,0.957,0.533,0.909,1.083l-2.283,26.232c5.122-1.963,22.28-8.091,37.573-8.386c0.007,0,0.014,0,0.02,0c0.544,0,0.989,0.435,1,0.98c0.011,0.552-0.429,1.008-0.98,1.019c-17.747,0.343-38.16,8.747-38.364,8.832C172.617,47.728,172.487,47.753,172.357,47.753z"/></svg>