<svg xmlns="http://www.w3.org/2000/svg" viewBox="0 0 268 261"><rect x="172.3" y="66.945" transform="matrix(-0.1206 -0.9927 0.9927 -0.1206 90.643 291.7707)" fill="#FFCB38" width="4.501" height="77.587"/><path fill="#231F20" d="M135.438,113.751l-0.782-6.451l79.006-9.575l0.784,6.453L135.438,113.751z M136.883,109.045l0.3,2.48l75.038-9.093l-0.302-2.482L136.883,109.045z"/><rect x="181.313" y="94.895" transform="matrix(-0.5664 -0.8242 0.8242 -0.5664 177.3457 360.6919)" fill="#FFCB38" width="4.5" height="77.59"/><path fill="#231F20" d="M152.597,158.894l-3.681-5.361l65.613-45.045l3.682,5.357L152.597,158.894z M151.697,154.05l1.417,2.062l62.315-42.785l-1.416-2.061L151.697,154.05z"/><path fill="#242963" d="M229.008,122.579c-20.883,0-37.896,16.922-37.896,37.896c0,20.882,16.924,37.894,37.896,37.894c20.883,0,37.893-16.922,37.893-37.894C266.811,139.592,249.891,122.579,229.008,122.579z M229.008,188.736c-15.574,0-28.264-12.691-28.264-28.262c0-15.573,12.689-28.264,28.264-28.264c15.572,0,28.264,12.69,28.264,28.264C257.271,176.045,244.58,188.736,229.008,188.736z"/><path fill="#231F20" d="M229.008,199.368c-21.447,0-38.896-17.447-38.896-38.894c0-21.447,17.449-38.896,38.896-38.896c21.354,0,38.801,17.446,38.893,38.892C267.9,181.921,250.453,199.368,229.008,199.368z M229.008,123.579c-20.345,0-36.896,16.551-36.896,36.896c0,20.343,16.552,36.894,36.896,36.894c20.343,0,36.893-16.551,36.893-36.894C265.812,140.132,249.263,123.579,229.008,123.579z M229.008,189.736c-16.136,0-29.264-13.127-29.264-29.262c0-16.136,13.128-29.264,29.264-29.264s29.264,13.128,29.264,29.264C258.271,176.609,245.144,189.736,229.008,189.736zM229.008,133.211c-15.033,0-27.264,12.23-27.264,27.264c0,15.032,12.23,27.262,27.264,27.262s27.264-12.229,27.264-27.262C256.271,145.441,244.041,133.211,229.008,133.211z"/><path fill="#242963" d="M86.879,122.579c-20.882,0-37.895,16.922-37.895,37.896c0,20.882,16.922,37.894,37.895,37.894c20.883,0,37.895-16.922,37.895-37.894C124.774,139.592,107.762,122.579,86.879,122.579z M86.879,188.736c-15.571,0-28.263-12.691-28.263-28.262c0-15.573,12.691-28.264,28.263-28.264c15.572,0,28.264,12.69,28.264,28.264C115.143,176.045,102.452,188.736,86.879,188.736z"/><path fill="#231F20" d="M86.879,199.368c-21.446,0-38.895-17.447-38.895-38.894c0-21.447,17.448-38.896,38.895-38.896c21.447,0,38.895,17.448,38.895,38.896C125.774,181.921,108.326,199.368,86.879,199.368z M86.879,123.579c-20.344,0-36.895,16.551-36.895,36.896c0,20.343,16.551,36.894,36.895,36.894s36.895-16.551,36.895-36.894C123.774,140.13,107.223,123.579,86.879,123.579z M86.879,189.736c-16.136,0-29.263-13.127-29.263-29.262c0-16.136,13.127-29.264,29.263-29.264c16.136,0,29.264,13.128,29.264,29.264C116.143,176.609,103.016,189.736,86.879,189.736zM86.879,133.211c-15.033,0-27.263,12.23-27.263,27.264c0,15.032,12.23,27.262,27.263,27.262c15.033,0,27.264-12.229,27.264-27.262C114.143,145.441,101.913,133.211,86.879,133.211z"/><circle fill="#FFCB38" cx="86.25" cy="159.393" r="6.392"/><path fill="#231F20" d="M86.25,166.784c-4.075,0-7.391-3.315-7.391-7.391c0-4.076,3.315-7.393,7.391-7.393c4.076,0,7.391,3.316,7.391,7.393C93.641,163.469,90.325,166.784,86.25,166.784z M86.25,154.001c-2.972,0-5.391,2.419-5.391,5.393c0,2.973,2.418,5.391,5.391,5.391c2.973,0,5.391-2.418,5.391-5.391C91.641,156.42,89.222,154.001,86.25,154.001z"/><polygon fill="#FFCB38" points="231.617,160.382 227.297,161.553 209.926,95.846 214.695,95.306"/><path fill="#231F20" d="M226.587,162.781l-17.924-67.799l6.781-0.768l17.39,66.874L226.587,162.781z M211.188,96.709l16.818,63.615l2.394-0.648l-16.454-63.279L211.188,96.709z"/><circle fill="#FFCB38" cx="229.008" cy="159.393" r="6.392"/><path fill="#231F20" d="M229.008,166.784c-4.075,0-7.391-3.315-7.391-7.391c0-4.076,3.315-7.393,7.391-7.393s7.391,3.316,7.391,7.393C236.398,163.469,233.083,166.784,229.008,166.784z M229.008,154.001c-2.973,0-5.391,2.419-5.391,5.393c0,2.973,2.418,5.391,5.391,5.391s5.391-2.418,5.391-5.391C234.398,156.42,231.98,154.001,229.008,154.001z"/><polygon fill="#515D9F" points="214.695,95.306 209.926,76.584 206.232,81.084 209.926,95.846 "/><path fill="#231F20" d="M209.168,96.938l-4.027-16.1l5.267-6.417l5.54,21.749L209.168,96.938z M207.324,81.33l3.359,13.424l2.76-0.312l-3.999-15.695L207.324,81.33z"/><path fill="#515D9F" d="M220.275,65.962c-7.74,0-14.043,6.301-14.043,14.042c0,0.09,0,0.18,0,0.271c1.352-0.181,2.883-0.36,4.322-0.451c0.09-5.31,4.41-9.54,9.721-9.54c5.402,0,9.721,4.319,9.721,9.721c0,4.681-3.24,8.551-7.65,9.451l1.17,4.141c6.211-1.44,10.801-7.021,10.801-13.682C234.316,72.263,228.018,65.962,220.275,65.962z"/><path fill="#231F20" d="M222.812,94.785l-1.722-6.094l1.055-0.216c4.033-0.823,6.851-4.307,6.851-8.471c0-4.89-3.831-8.721-8.721-8.721c-4.809,0-8.64,3.759-8.721,8.557l-0.016,0.923l-0.922,0.058c-1.183,0.075-2.574,0.22-4.252,0.444l-1.133,0.151v-1.413c0-8.294,6.748-15.042,15.043-15.042c8.294,0,15.041,6.708,15.041,14.952c0,7.048-4.76,13.075-11.575,14.656L222.812,94.785z M223.587,90.168l0.622,2.205c5.408-1.675,9.107-6.669,9.107-12.459c0-7.142-5.851-12.952-13.041-12.952c-6.9,0-12.565,5.385-13.015,12.173c0.856-0.104,1.636-0.185,2.35-0.245c0.557-5.375,5.161-9.607,10.665-9.607c5.911,0,10.721,4.809,10.721,10.721C230.996,84.764,227.999,88.803,223.587,90.168z"/><path d="M36.563,213.318H1.099c-0.552,0-1-0.447-1-1s0.448-1,1-1h35.464c0.552,0,1,0.447,1,1S37.116,213.318,36.563,213.318z"/><path d="M89.22,257.604H63.387c-0.552,0-1-0.447-1-1s0.448-1,1-1H89.22c0.552,0,1,0.447,1,1S89.772,257.604,89.22,257.604z"/><path d="M114.154,239.782H86.43c-0.552,0-1-0.447-1-1s0.448-1,1-1h27.724c0.552,0,1,0.447,1,1S114.706,239.782,114.154,239.782z"/><path d="M191.111,260.846h-27.633c-0.553,0-1-0.447-1-1s0.447-1,1-1h27.633c0.553,0,1,0.447,1,1S191.664,260.846,191.111,260.846z"/><path d="M199.934,232.042h-17.643c-0.553,0-1-0.447-1-1s0.447-1,1-1h17.643c0.553,0,1,0.447,1,1S200.486,232.042,199.934,232.042z"/><path d="M48.085,229.881H29.363c-0.552,0-1-0.447-1-1s0.448-1,1-1h18.722c0.552,0,1,0.447,1,1S48.637,229.881,48.085,229.881z"/><path fill="#F96488" d="M80.399,120.328c0,0-10.622-2.07-16.382-12.422c-4.05-9.63,1.98-15.661-1.26-18.361c-1.891-1.71-1.53,1.8-3.331,2.971c-3.51,2.52-3.42-1.71-3.42-1.71c0-2.701-2.161-4.861-4.861-4.861c-1.53,0-2.88,0.721-3.78,1.801c-0.81-0.541-1.71-0.9-2.791-0.9c-2.7,0-4.86,2.16-4.86,4.771c-0.27-0.09-0.63-0.09-0.9-0.09c-2.701,0-4.861,2.16-4.861,4.859c0,0-5.31,55.537,46.626,52.927C132.424,146.703,80.399,120.328,80.399,120.328z"/><path d="M77.098,150.4c-0.002,0-0.004,0-0.007,0c-13.688-0.001-24.47-4.228-32.045-12.562C30.682,122.036,32.858,97.333,32.958,96.29c-0.004-3.136,2.625-5.764,5.857-5.764c0.001,0,0.003,0,0.005,0c0.519-2.663,2.902-4.681,5.755-4.681c0.911,0,1.773,0.21,2.617,0.64c1.089-0.987,2.49-1.54,3.954-1.54c3.232,0,5.861,2.629,5.861,5.861c-0.006,0.457,0.117,1.198,0.365,1.45c0.042,0.042,0.075,0.061,0.162,0.061c0.137,0,0.538-0.06,1.31-0.613c0.527-0.344,0.832-1.063,1.101-1.698c0.363-0.856,0.814-1.922,1.95-1.922c0.662,0,1.193,0.411,1.535,0.72c1.862,1.551,1.389,3.847,0.841,6.505c-0.652,3.164-1.464,7.1,0.648,12.16c5.478,9.79,15.572,11.859,15.673,11.879c0.091,0.018,0.178,0.048,0.261,0.089c2.621,1.329,25.546,13.244,23.604,22.376c-1.055,4.965-8.849,7.744-23.827,8.498C79.435,150.37,78.247,150.4,77.098,150.4z M38.814,92.525c-2.165,0-3.861,1.695-3.861,3.859c-0.028,0.342-2.188,24.979,11.581,40.117c7.18,7.894,17.461,11.897,30.558,11.898c0.002,0,0.005,0,0.007,0c1.115,0,2.27-0.029,3.431-0.088c17.127-0.861,21.401-4.236,21.971-6.916c1.368-6.434-15.617-16.641-22.436-20.117c-1.371-0.3-11.3-2.786-16.921-12.887c-0.018-0.032-0.034-0.065-0.048-0.099c-2.379-5.656-1.458-10.126-0.785-13.39c0.512-2.484,0.736-3.816-0.193-4.591c-0.032-0.029-0.062-0.054-0.088-0.077c-0.083,0.169-0.174,0.384-0.244,0.549c-0.342,0.809-0.812,1.917-1.814,2.569c-1.63,1.172-3.096,1.254-4.03,0.299c-0.928-0.948-0.941-2.556-0.935-2.869c0-2.144-1.696-3.84-3.861-3.84c-1.151,0-2.249,0.525-3.012,1.441c-0.328,0.393-0.899,0.475-1.323,0.191c-0.748-0.5-1.458-0.732-2.235-0.732c-2.128,0-3.86,1.691-3.86,3.771c0,0.321-0.154,0.623-0.415,0.811c-0.262,0.188-0.597,0.238-0.901,0.138C39.283,92.525,38.978,92.525,38.814,92.525z"/><path fill="#F96488" d="M131.924,104.654c14.503-9.7,36.23-2.657,48.527,15.731c12.297,18.387,10.508,41.155-3.992,50.856c-14.506,9.698-36.23,2.655-48.528-15.731C115.633,137.124,117.421,114.354,131.924,104.654z"/><path d="M161.664,176.598c-12.851,0-26.095-7.867-34.564-20.531c-6.073-9.078-8.992-19.491-8.22-29.32c0.778-9.917,5.213-18.059,12.488-22.923c4.426-2.96,9.734-4.525,15.35-4.525c12.851,0,26.095,7.868,34.563,20.532c12.583,18.814,10.669,42.25-4.268,52.243C172.588,175.033,167.28,176.598,161.664,176.598z M146.719,101.298c-5.219,0-10.143,1.448-14.238,4.188c-6.755,4.518-10.876,12.124-11.606,21.417c-0.737,9.383,2.065,19.345,7.888,28.052c8.103,12.115,20.71,19.643,32.902,19.643c5.219,0,10.143-1.448,14.239-4.187c14.02-9.38,15.687-31.571,3.717-49.469C171.518,108.825,158.91,101.298,146.719,101.298z"/><path fill="#F96488" d="M170.41,167.675c0.449-4.682,0.719-9.991,0.719-16.111c0-0.093,0-0.182,0-0.362c0.18-21.872-1.889-42.755-2.248-45.814c-3.152-25.383-34.295-91.001-46.897-91.001c-12.601,0-43.115,64.537-46.535,89.381c-0.45,3.331-2.16,24.212-1.621,46.174c-0.09,0.542-0.09,1.081-0.09,1.623c0,37.263,9.451,46.263,9.451,46.263s22.593,0,31.234,0c-1.621-6.209-7.021-18.72,8.011-18.72l0,0c15.033,0,9.721,12.511,8.011,18.72c8.641,0,31.235,0,31.235,0s5.578-5.399,8.1-24.661h0.09C170.141,171.364,170.318,169.564,170.41,167.675z"/><path d="M161.68,198.826h-31.235c-0.312,0-0.606-0.146-0.795-0.394c-0.189-0.249-0.251-0.571-0.168-0.872c0.161-0.586,0.354-1.228,0.559-1.909c1.218-4.047,2.887-9.589,0.537-12.75c-1.378-1.854-4.118-2.795-8.143-2.795c-4.001,0-6.727,0.931-8.101,2.765c-2.322,3.101-0.718,8.572,0.453,12.567c0.203,0.693,0.395,1.347,0.555,1.947c0.065,0.133,0.102,0.282,0.102,0.44c0,0.557-0.439,1.053-1.01,1c-0.003,0-0.006,0-0.01,0H83.189c-0.257,0-0.504-0.099-0.689-0.275c-0.399-0.38-9.761-9.725-9.761-46.987c0-0.542,0-1.102,0.088-1.689c-0.527-21.718,1.136-42.578,1.631-46.241c1.65-11.984,9.656-33.812,19.922-54.321c5.407-10.802,18.921-35.926,27.604-35.926c13.866,0,44.815,67.119,47.889,91.878c0.025,0.216,2.452,22.026,2.256,45.945v0.354c0,5.752-0.243,11.205-0.724,16.207c-0.09,1.875-0.27,3.703-0.547,5.544c-0.021,0.139-0.07,0.267-0.141,0.38c-2.562,19.062-8.106,24.622-8.343,24.851C162.188,198.726,161.939,198.826,161.68,198.826zM131.776,196.826h29.453c1.084-1.331,5.434-7.552,7.56-23.791c0.02-0.15,0.072-0.29,0.149-0.411c0.235-1.641,0.391-3.28,0.474-4.998c0.478-4.985,0.718-10.374,0.718-16.062v-0.362c0.195-23.808-2.217-45.49-2.241-45.698c-3.16-25.448-34.332-90.118-45.904-90.118c-5.094,0-15.227,13.668-25.816,34.822c-10.178,20.331-18.106,41.91-19.729,53.695c-0.491,3.633-2.143,24.381-1.612,46.013c0.002,0.062-0.002,0.126-0.013,0.188c-0.076,0.461-0.076,0.946-0.076,1.46c0,32.792,7.44,43.483,8.899,45.263h29.47c-0.077-0.268-0.158-0.543-0.24-0.824c-1.291-4.401-3.057-10.428-0.135-14.33c1.772-2.365,5.036-3.565,9.702-3.565c4.691,0,7.971,1.212,9.748,3.602c2.95,3.969,1.114,10.067-0.226,14.521C131.894,196.432,131.834,196.631,131.776,196.826z"/><ellipse fill="#DBD6B9" cx="38.814" cy="97.646" rx="2.43" ry="2.7"/><path fill="#231F20" d="M38.814,101.347c-1.892,0-3.431-1.66-3.431-3.701c0-2.04,1.539-3.699,3.431-3.699c1.892,0,3.43,1.66,3.43,3.699C42.245,99.687,40.706,101.347,38.814,101.347z M38.814,95.946c-0.789,0-1.431,0.762-1.431,1.699c0,0.938,0.642,1.701,1.431,1.701c0.789,0,1.43-0.763,1.43-1.701C40.245,96.708,39.603,95.946,38.814,95.946z"/><ellipse fill="#DBD6B9" cx="44.395" cy="92.785" rx="2.43" ry="2.7"/><path fill="#231F20" d="M44.395,96.485c-1.892,0-3.43-1.66-3.43-3.7s1.539-3.7,3.43-3.7s3.43,1.66,3.43,3.7S46.286,96.485,44.395,96.485z M44.395,91.085c-0.789,0-1.43,0.763-1.43,1.7s0.642,1.7,1.43,1.7s1.43-0.763,1.43-1.7S45.183,91.085,44.395,91.085z"/><ellipse fill="#DBD6B9" cx="51.505" cy="92.246" rx="2.43" ry="2.701"/><path fill="#231F20" d="M51.505,95.946c-1.891,0-3.43-1.66-3.43-3.701c0-2.041,1.539-3.7,3.43-3.7c1.892,0,3.43,1.66,3.43,3.7C54.936,94.286,53.397,95.946,51.505,95.946z M51.505,90.545c-0.789,0-1.43,0.763-1.43,1.7c0,0.938,0.641,1.701,1.43,1.701s1.43-0.763,1.43-1.701C52.936,91.308,52.294,90.545,51.505,90.545z"/><rect x="28.547" y="72.912" transform="matrix(-0.6868 -0.7268 0.7268 -0.6868 2.6542 185.67)" fill="#FFFFFF" width="25.562" height="38.703"/><path fill="#231F20" d="M36.001,116.257l-18.93-20.033l29.584-27.956l18.93,20.033L36.001,116.257z M19.898,96.305l16.183,17.125l26.677-25.208L46.575,71.096L19.898,96.305z"/><polygon fill="#231F20" points="18.571,97.638 18.193,95.674 40.506,91.386 45.581,69.427 47.529,69.877 42.162,93.104 "/><path fill="#F96488" d="M63.747,92.245c0.36-4.23-2.791-7.74-6.391-7.74c-3.511,0-6.392,3.149-6.392,7.11c0,1.98,0.45,5.491,2.341,7.831"/><path d="M53.306,100.446c-0.292,0-0.581-0.127-0.778-0.372c-2.378-2.943-2.563-7.219-2.563-8.459c0-4.472,3.316-8.11,7.392-8.11c1.925,0,3.832,0.874,5.232,2.398c1.571,1.711,2.357,4.053,2.155,6.427c-0.047,0.55-0.521,0.957-1.082,0.912c-0.55-0.047-0.958-0.531-0.912-1.082c0.155-1.817-0.441-3.604-1.635-4.904c-1.022-1.113-2.392-1.751-3.759-1.751c-2.973,0-5.392,2.741-5.392,6.11c0,2.214,0.557,5.27,2.119,7.203c0.347,0.43,0.28,1.059-0.149,1.406C53.749,100.374,53.527,100.446,53.306,100.446z"/><polygon fill="#242963" points="75.449,109.258 170.859,161.643 170.23,170.554 74.368,117.628"/><path fill="#231F20" d="M171.118,172.186l-97.829-54.011l1.355-10.499l97.258,53.398L171.118,172.186z M75.447,117.081l93.896,51.841l0.474-6.711L76.253,110.84L75.447,117.081z"/><path fill="#242963" d="M171.129,140.941l-26.373,13.682l10.982,20.972c0,0,5.58,9.092,16.473,1.981c7.291-4.771,14.941-9.362,8.73-19.264C176.711,151.471,171.129,140.941,171.129,140.941z"/><path fill="#231F20" d="M164.291,181.293C164.29,181.293,164.291,181.293,164.291,181.293c-6.157,0-9.275-4.964-9.405-5.175l-11.481-21.921l28.144-14.6l0.465,0.875c0.056,0.105,5.615,10.579,9.779,17.313c6.555,10.45-1.4,15.644-8.419,20.226l-0.614,0.401C169.83,180.324,166.981,181.293,164.291,181.293z M146.107,155.049l10.517,20.082c0.072,0.11,2.65,4.162,7.666,4.162h0.001c2.296,0,4.776-0.859,7.373-2.554l0.615-0.402c7.152-4.669,13.329-8.702,7.815-17.493c-3.495-5.651-7.948-13.884-9.383-16.56L146.107,155.049z"/><polygon fill="#515D9F" points="164.738,158.224 175.359,148.772 171.129,140.941 144.756,154.623 148.447,161.553"/><path fill="#231F20" d="M147.916,162.682l-4.518-8.48l28.143-14.601l5.074,9.393l-11.413,10.156L147.916,162.682z M146.113,155.045l2.865,5.379l15.296-3.126l9.829-8.746l-3.387-6.27L146.113,155.045z"/><circle fill="#FFFFFF" cx="106.682" cy="102.416" r="9.001"/><path d="M106.682,112.417c-5.515,0-10.001-4.486-10.001-10.001s4.486-10.001,10.001-10.001s10.001,4.486,10.001,10.001S112.197,112.417,106.682,112.417z M106.682,94.415c-4.412,0-8.001,3.589-8.001,8.001s3.589,8.001,8.001,8.001c4.412,0,8.001-3.589,8.001-8.001S111.094,94.415,106.682,94.415z"/><path d="M98.942,90.725c-0.302,0-0.601-0.136-0.798-0.396c-0.333-0.44-0.248-1.067,0.192-1.401c5.426-4.116,10.128-4.163,10.325-4.163c0.552,0,1,0.448,1,1c0,0.551-0.446,0.999-0.997,1c-0.067,0.001-4.278,0.085-9.119,3.757C99.365,90.658,99.153,90.725,98.942,90.725z"/><path fill="#F96488" d="M103.441,114.298l-4.5-3.33c0,0,8.731-2.072,14.761-2.072c6.031,0,0,5.312,0,5.312L103.441,114.298z"/><path fill="#E84463" d="M114.604,108.896c0,0-12.332,1.352-16.922,2.072"/><path d="M97.68,111.968c-0.484,0-0.909-0.352-0.986-0.845c-0.086-0.546,0.287-1.058,0.833-1.143c4.561-0.716,16.845-2.065,16.969-2.079c0.542-0.062,1.042,0.336,1.103,0.885c0.06,0.549-0.336,1.043-0.885,1.103c-0.123,0.013-12.361,1.357-16.876,2.066C97.784,111.964,97.731,111.968,97.68,111.968z"/><circle cx="104.432" cy="100.886" r="3.241"/><circle fill="#FFFFFF" cx="138.186" cy="102.416" r="9.001"/><path d="M138.186,112.417c-5.514,0-10-4.486-10-10.001s4.486-10.001,10-10.001c5.515,0,10.002,4.486,10.002,10.001S143.7,112.417,138.186,112.417z M138.186,94.415c-4.411,0-8,3.589-8,8.001s3.588,8.001,8,8.001c4.412,0,8.002-3.589,8.002-8.001S142.598,94.415,138.186,94.415z"/><path d="M145.835,90.725c-0.21,0-0.423-0.066-0.604-0.204c-4.895-3.713-9.074-3.756-9.116-3.756c-0.553,0-1-0.448-1-1s0.447-1,1-1c0.197,0,4.9,0.047,10.325,4.164c0.44,0.333,0.526,0.961,0.192,1.401C146.436,90.588,146.138,90.725,145.835,90.725z"/><path fill="#F96488" d="M141.426,114.298l4.5-3.33c0,0-8.73-2.072-14.76-2.072c-6.031,0,0,5.312,0,5.312L141.426,114.298z"/><path fill="#E84463" d="M130.265,108.896c0,0,12.331,1.352,16.922,2.072"/><path d="M147.188,111.968c-0.052,0-0.104-0.004-0.156-0.012c-4.517-0.709-16.753-2.053-16.876-2.066c-0.549-0.06-0.945-0.554-0.885-1.103c0.061-0.549,0.562-0.941,1.103-0.885c0.124,0.014,12.406,1.362,16.969,2.079c0.545,0.085,0.918,0.597,0.833,1.143C148.098,111.616,147.673,111.968,147.188,111.968z"/><circle cx="140.348" cy="100.886" r="3.241"/><path fill="#F9CD15" d="M122.254,14.386c-6.031,0-15.662,11.882-34.384,51.036c0.63,14.042,24.753,16.292,24.753,16.292s3.061-3.69-0.81-9.092c6.391,1.621,16.742,1.892,28.892,0.45c1.891-5.85-1.799-9.181-1.799-9.181s13.23,0,15.842-1.26C141.877,32.839,128.195,14.386,122.254,14.386z"/><path d="M112.623,82.714c-0.031,0-0.062-0.001-0.093-0.004c-0.252-0.023-6.237-0.602-12.402-2.941c-8.396-3.185-12.98-8.131-13.257-14.302c-0.007-0.165,0.026-0.328,0.097-0.476c17.296-36.172,27.85-51.605,35.287-51.605c7.132,0,21.184,20.544,33.412,48.85c0.213,0.492-0.001,1.064-0.483,1.297c-2.181,1.052-10.336,1.29-14.264,1.344c1.004,1.695,2.002,4.593,0.737,8.503c-0.12,0.372-0.445,0.639-0.833,0.686c-5.292,0.627-10.33,0.946-14.975,0.946c0,0,0,0,0,0c-4.577,0-8.672-0.318-12.006-0.928c2.302,4.852-0.322,8.115-0.45,8.269C113.202,82.583,112.919,82.714,112.623,82.714zM88.882,65.622c0.781,11.628,19.641,14.571,23.244,15.028c0.559-1.014,1.537-3.729-1.126-7.445c-0.245-0.341-0.25-0.799-0.013-1.146c0.237-0.347,0.665-0.509,1.072-0.406c3.503,0.889,8.272,1.358,13.789,1.358c4.374,0,9.109-0.288,14.083-0.855c1.236-4.743-1.574-7.41-1.699-7.526c-0.303-0.279-0.405-0.717-0.255-1.101c0.149-0.383,0.517-0.638,0.929-0.638c4.417,0,11.613-0.244,14.484-0.875c-12.585-28.832-25.911-46.63-31.137-46.63C115.977,15.386,105.061,31.818,88.882,65.622z"/><path fill="#F9CD15" d="M103.802,67.312c0,0,2.071,4.59,9.091,5.581"/><path d="M112.895,73.894c-0.047,0-0.094-0.003-0.141-0.01c-7.48-1.056-9.77-5.952-9.863-6.16c-0.227-0.503-0.003-1.096,0.5-1.323c0.5-0.227,1.091-0.005,1.32,0.495c0.081,0.174,1.99,4.113,8.322,5.007c0.547,0.077,0.928,0.583,0.851,1.13C113.812,73.533,113.385,73.894,112.895,73.894z"/><path fill="#F9CD15" d="M131.794,60.472c0,0,1.441,3.42,8.19,3.42"/><path d="M139.984,64.892c-7.328,0-9.042-3.867-9.111-4.032c-0.215-0.509,0.024-1.095,0.533-1.31c0.503-0.214,1.084,0.02,1.304,0.52c0.067,0.142,1.406,2.822,7.274,2.822c0.553,0,1,0.448,1,1S140.537,64.892,139.984,64.892z"/><path fill="#F9CD15" d="M110.553,24.197c8.461-13.682,23.493-23.043,23.493-23.043l-7.471,11.521l7.471-0.99l-5.851,6.301"/><path d="M110.877,25.574l-1.701-1.052l0.526-0.851c8.487-13.723,23.193-22.979,23.814-23.366c0.399-0.249,0.915-0.187,1.242,0.148c0.328,0.334,0.381,0.852,0.125,1.245l-6.29,9.701l5.32-0.705c0.416-0.052,0.826,0.157,1.02,0.532c0.193,0.375,0.132,0.831-0.155,1.14l-6.531,7.033l-1.465-1.361l4.639-4.997l-4.715,0.625c-0.39,0.05-0.769-0.127-0.977-0.457c-0.208-0.33-0.206-0.751,0.006-1.078l4.682-7.222c-5.025,3.756-13.493,10.885-19.015,19.813L110.877,25.574z"/><path fill="#A31F45" d="M132.604,130.77c0,0,11.162,0.63,21.246-8.642c8.008-7.381,8.818,7.472,0,12.512C144.756,139.95,136.566,135.899,132.604,130.77z"/><path d="M145.199,138.137c-5.115,0-10.119-2.525-13.387-6.756c-0.239-0.31-0.275-0.73-0.093-1.076c0.182-0.346,0.555-0.553,0.939-0.534c0.015,0.001,0.155,0.007,0.403,0.007c1.835,0,11.429-0.404,20.111-8.387c1.644-1.515,3.153-2.283,4.488-2.283c1.587,0,2.777,1.051,3.264,2.882c0.919,3.462-0.895,10.268-6.579,13.517C151.361,137.251,148.281,138.137,145.199,138.137z M134.766,131.71c2.821,2.801,6.596,4.427,10.434,4.427c2.724,0,5.464-0.794,8.146-2.36c4.65-2.658,6.421-8.355,5.646-11.272c-0.245-0.926-0.693-1.396-1.33-1.396c-0.46,0-1.478,0.228-3.134,1.755C146.892,129.884,138.744,131.409,134.766,131.71z"/></svg>